<svg xmlns="http://www.w3.org/2000/svg" width="48.001" height="32.049" viewBox="0 0 48.001 32.049">
  <g id="합치기_2" data-name="합치기 2" transform="translate(-6731 -67.95) rotate(180)" fill="#fff">
    <path d="M -6754.63623046875 -68.65718078613281 L -6760.33251953125 -74.35350799560547 L -6760.47900390625 -74.49996185302734 L -6760.68603515625 -74.49996185302734 L -6774.99951171875 -74.49996185302734 C -6776.93017578125 -74.49996185302734 -6778.5009765625 -76.0699462890625 -6778.5009765625 -77.99972534179688 L -6778.5009765625 -95.99954223632812 C -6778.5009765625 -97.92930603027344 -6776.93017578125 -99.49929809570312 -6774.99951171875 -99.49929809570312 L -6735 -99.49929809570312 C -6733.0703125 -99.49929809570312 -6731.5 -97.92930603027344 -6731.5 -95.99954223632812 L -6731.5 -77.99972534179688 C -6731.5 -76.0699462890625 -6733.0703125 -74.49996185302734 -6735 -74.49996185302734 L -6748.5849609375 -74.49996185302734 L -6748.7919921875 -74.49996185302734 L -6748.9384765625 -74.35356140136719 L -6754.63623046875 -68.65718078613281 Z" stroke="none"/>
    <path d="M -6754.63623046875 -69.36425018310547 L -6748.9990234375 -74.99996185302734 L -6735 -74.99996185302734 C -6733.345703125 -74.99996185302734 -6732 -76.34564971923828 -6732 -77.99972534179688 L -6732 -95.99954223632812 C -6732 -97.65361022949219 -6733.345703125 -98.99929809570312 -6735 -98.99929809570312 L -6774.99951171875 -98.99929809570312 C -6776.654296875 -98.99929809570312 -6778.0009765625 -97.65361022949219 -6778.0009765625 -95.99954223632812 L -6778.0009765625 -77.99972534179688 C -6778.0009765625 -76.34564971923828 -6776.654296875 -74.99996185302734 -6774.99951171875 -74.99996185302734 L -6760.27197265625 -74.99996185302734 L -6754.63623046875 -69.36425018310547 M -6754.63623046875 -67.95011901855469 L -6760.68603515625 -73.99996185302734 L -6774.99951171875 -73.99996185302734 C -6777.20947265625 -73.99996185302734 -6779.0009765625 -75.79143524169922 -6779.0009765625 -77.99972534179688 L -6779.0009765625 -95.99954223632812 C -6779.0009765625 -98.20952606201172 -6777.20947265625 -99.99929809570312 -6774.99951171875 -99.99929809570312 L -6735 -99.99929809570312 C -6732.79150390625 -99.99929809570312 -6731 -98.20952606201172 -6731 -95.99954223632812 L -6731 -77.99972534179688 C -6731 -75.79143524169922 -6732.79150390625 -73.99996185302734 -6735 -73.99996185302734 L -6748.5849609375 -73.99996185302734 L -6754.63623046875 -67.95011901855469 Z" stroke="none" fill="#0559ae"/>
  </g>
</svg>
