<svg width="178" height="36" viewBox="0 0 178 36" fill="none" xmlns="http://www.w3.org/2000/svg">
<rect x="0.5" width="177" height="31" rx="15.5" fill="url(#paint0_linear_1543_1197)"/>
<rect x="0.5" width="177" height="31" rx="15.5" fill="#111111"/>
<path d="M25.296 10.292V13.412H26.736V14.492H25.296V17.516H23.976V10.292H25.296ZM16.8 16.244C17.952 16.244 18.844 16.236 19.476 16.22V15.548C18.884 15.476 18.416 15.304 18.072 15.032C17.736 14.76 17.568 14.416 17.568 14C17.568 13.512 17.796 13.128 18.252 12.848C18.716 12.56 19.336 12.416 20.112 12.416C20.896 12.416 21.52 12.56 21.984 12.848C22.448 13.128 22.68 13.512 22.68 14C22.68 14.416 22.512 14.76 22.176 15.032C21.84 15.296 21.376 15.468 20.784 15.548V16.172C21.808 16.116 22.696 16.036 23.448 15.932L23.556 16.856C22.564 17.032 21.556 17.144 20.532 17.192C19.516 17.24 18.328 17.268 16.968 17.276L16.8 16.244ZM25.296 17.984V20.972H23.976V19.016H18.144V17.984H25.296ZM19.476 11.132V10.196H20.784V11.132H23.16V12.104H17.076V11.132H19.476ZM20.112 13.28C19.704 13.28 19.384 13.344 19.152 13.472C18.928 13.6 18.816 13.776 18.816 14C18.816 14.224 18.932 14.4 19.164 14.528C19.396 14.656 19.712 14.72 20.112 14.72C20.52 14.72 20.84 14.656 21.072 14.528C21.312 14.4 21.432 14.224 21.432 14C21.432 13.776 21.312 13.6 21.072 13.472C20.84 13.344 20.52 13.28 20.112 13.28ZM35.6163 10.292V18.008H34.2963V10.292H35.6163ZM29.9163 17.24V19.7H35.9043V20.756H28.6083V17.24H29.9163ZM29.8323 10.988C30.3683 10.988 30.8523 11.104 31.2843 11.336C31.7243 11.56 32.0683 11.88 32.3163 12.296C32.5643 12.704 32.6883 13.164 32.6883 13.676C32.6883 14.18 32.5643 14.636 32.3163 15.044C32.0683 15.452 31.7243 15.772 31.2843 16.004C30.8523 16.236 30.3683 16.352 29.8323 16.352C29.3043 16.352 28.8203 16.236 28.3803 16.004C27.9483 15.772 27.6043 15.452 27.3483 15.044C27.1003 14.636 26.9763 14.18 26.9763 13.676C26.9763 13.164 27.1003 12.704 27.3483 12.296C27.6043 11.88 27.9483 11.56 28.3803 11.336C28.8203 11.104 29.3043 10.988 29.8323 10.988ZM29.8323 12.128C29.3763 12.128 29.0003 12.272 28.7043 12.56C28.4083 12.84 28.2603 13.212 28.2603 13.676C28.2603 14.132 28.4083 14.5 28.7043 14.78C29.0083 15.06 29.3843 15.2 29.8323 15.2C30.2803 15.2 30.6523 15.06 30.9483 14.78C31.2523 14.5 31.4043 14.132 31.4043 13.676C31.4043 13.212 31.2563 12.84 30.9603 12.56C30.6643 12.272 30.2883 12.128 29.8323 12.128ZM42.0726 11.192V16.28H37.0566V11.192H42.0726ZM38.3526 12.236V15.212H40.7766V12.236H38.3526ZM45.0486 10.28V13.424H46.5246V14.516H45.0486V18.08H43.7286V10.28H45.0486ZM39.5766 17.324V19.7H45.4686V20.756H38.2566V17.324H39.5766ZM50.6705 11.984V10.568H51.9665V11.984H53.8985V13.028H48.7145V11.984H50.6705ZM51.3185 13.604C51.7665 13.604 52.1665 13.712 52.5185 13.928C52.8705 14.136 53.1465 14.432 53.3465 14.816C53.5465 15.192 53.6465 15.62 53.6465 16.1C53.6465 16.588 53.5465 17.024 53.3465 17.408C53.1465 17.784 52.8705 18.08 52.5185 18.296C52.1665 18.504 51.7665 18.608 51.3185 18.608C50.8785 18.608 50.4825 18.504 50.1305 18.296C49.7785 18.08 49.5025 17.784 49.3025 17.408C49.1025 17.024 49.0025 16.588 49.0025 16.1C49.0025 15.62 49.1025 15.192 49.3025 14.816C49.5025 14.432 49.7785 14.136 50.1305 13.928C50.4825 13.712 50.8785 13.604 51.3185 13.604ZM51.3185 14.696C50.9825 14.696 50.7065 14.824 50.4905 15.08C50.2745 15.336 50.1665 15.676 50.1665 16.1C50.1665 16.524 50.2705 16.864 50.4785 17.12C50.6945 17.376 50.9745 17.504 51.3185 17.504C51.6625 17.504 51.9425 17.376 52.1585 17.12C52.3745 16.864 52.4825 16.524 52.4825 16.1C52.4825 15.676 52.3745 15.336 52.1585 15.08C51.9425 14.824 51.6625 14.696 51.3185 14.696ZM57.8465 10.28V20.96H56.5985V15.752H55.5665V20.48H54.3305V10.508H55.5665V14.684H56.5985V10.28H57.8465ZM67.1348 11.06V12.116H61.1108V15.128H67.2308V16.184H64.0988V18.62H68.2988V19.7H58.6268V18.62H62.7908V16.184H59.7908V11.06H67.1348Z" fill="white"/>
<path d="M87.8289 15.5002C87.8288 16.8846 87.4086 18.2379 86.6213 19.3891C85.8341 20.5402 84.7152 21.4373 83.4061 21.9671C82.097 22.4969 80.6565 22.6356 79.2668 22.3655C77.8771 22.0955 76.6005 21.4288 75.5985 20.4499C74.7654 19.6359 74.1506 18.6338 73.8085 17.5322C73.4665 16.4306 73.4078 15.2635 73.6376 14.1345C73.8675 13.0054 74.3788 11.9492 75.1262 11.0593C75.8737 10.1694 76.8342 9.47339 77.9227 9.03285C79.0112 8.59231 80.1942 8.42087 81.3667 8.53371C82.5392 8.64655 83.6652 9.04019 84.6448 9.67975C85.6245 10.3193 86.4276 11.1851 86.9829 12.2003C87.5383 13.2156 87.8289 14.349 87.8289 15.5002ZM81.8627 12.2102V15.7293L79.3552 12.2102H77.2972V18.7989H79.4644V15.2692L81.972 18.7901H84.0371V12.2102H81.8627ZM113.812 11.8445L111.813 16.295L109.551 11.8445H107.813L111.015 18.0191L109.695 20.9123H111.383L115.5 11.8532L113.812 11.8445ZM106.701 18.7265H105.049V18.0839C104.448 18.5987 103.673 18.8776 102.874 18.867C100.898 18.867 99.3518 17.2869 99.3518 15.2855C99.3518 13.284 100.896 11.704 102.874 11.704C103.673 11.6928 104.448 11.9711 105.049 12.4853V11.8445H106.701V18.7265ZM105.243 15.2943C105.243 13.9969 104.316 13.012 103.088 13.012C101.859 13.012 100.932 13.9969 100.932 15.2943C100.932 16.5917 101.857 17.5765 103.088 17.5765C104.318 17.5765 105.243 16.5829 105.243 15.2943ZM91.1799 20.9122H92.9042V18.1419C93.4941 18.6214 94.2402 18.8786 95.0075 18.867C96.9831 18.867 98.5314 17.2869 98.5314 15.2855C98.5314 13.284 96.985 11.704 95.0075 11.704C94.2064 11.69 93.4288 11.9686 92.8269 12.4853V11.8445H91.1746L91.1799 20.9122ZM94.8027 13.0119C96.0313 13.0119 96.958 13.9968 96.958 15.2942C96.958 16.5916 96.0313 17.5765 94.8027 17.5765C93.5742 17.5765 92.6474 16.5916 92.6474 15.2942C92.6474 13.9968 93.5634 13.0119 94.8027 13.0119Z" fill="#03E05A"/>
<path d="M121.432 20V11.564H123.04V20H121.432ZM119.776 12.98V11.564H122.92V12.98H119.776ZM124.23 21.428L125.082 19.844L125.574 19.712C125.518 19.816 125.454 19.904 125.382 19.976C125.31 20.048 125.226 20.084 125.13 20.084C124.93 20.084 124.742 19.996 124.566 19.82C124.39 19.644 124.302 19.424 124.302 19.16C124.302 18.872 124.398 18.628 124.59 18.428C124.782 18.228 125.022 18.128 125.31 18.128C125.574 18.128 125.806 18.228 126.006 18.428C126.206 18.628 126.306 18.872 126.306 19.16C126.306 19.272 126.282 19.408 126.234 19.568C126.186 19.72 126.098 19.916 125.97 20.156L125.046 21.86L124.23 21.428ZM130.276 20.12C129.612 20.12 129.012 19.94 128.476 19.58C127.94 19.22 127.512 18.712 127.192 18.056C126.88 17.4 126.724 16.636 126.724 15.764C126.724 14.892 126.88 14.132 127.192 13.484C127.504 12.836 127.924 12.332 128.452 11.972C128.988 11.612 129.584 11.432 130.24 11.432C130.912 11.432 131.512 11.612 132.04 11.972C132.576 12.332 133 12.84 133.312 13.496C133.624 14.144 133.78 14.908 133.78 15.788C133.78 16.66 133.624 17.424 133.312 18.08C133 18.728 132.58 19.232 132.052 19.592C131.524 19.944 130.932 20.12 130.276 20.12ZM130.252 18.644C130.636 18.644 130.968 18.536 131.248 18.32C131.528 18.104 131.744 17.784 131.896 17.36C132.056 16.936 132.136 16.408 132.136 15.776C132.136 15.144 132.056 14.616 131.896 14.192C131.744 13.768 131.524 13.452 131.236 13.244C130.956 13.028 130.624 12.92 130.24 12.92C129.864 12.92 129.536 13.028 129.256 13.244C128.976 13.452 128.756 13.768 128.596 14.192C128.444 14.608 128.368 15.132 128.368 15.764C128.368 16.404 128.444 16.936 128.596 17.36C128.756 17.784 128.976 18.104 129.256 18.32C129.536 18.536 129.868 18.644 130.252 18.644ZM137.838 20.12C137.174 20.12 136.574 19.94 136.038 19.58C135.502 19.22 135.074 18.712 134.754 18.056C134.442 17.4 134.286 16.636 134.286 15.764C134.286 14.892 134.442 14.132 134.754 13.484C135.066 12.836 135.486 12.332 136.014 11.972C136.55 11.612 137.146 11.432 137.802 11.432C138.474 11.432 139.074 11.612 139.602 11.972C140.138 12.332 140.562 12.84 140.874 13.496C141.186 14.144 141.342 14.908 141.342 15.788C141.342 16.66 141.186 17.424 140.874 18.08C140.562 18.728 140.142 19.232 139.614 19.592C139.086 19.944 138.494 20.12 137.838 20.12ZM137.814 18.644C138.198 18.644 138.53 18.536 138.81 18.32C139.09 18.104 139.306 17.784 139.458 17.36C139.618 16.936 139.698 16.408 139.698 15.776C139.698 15.144 139.618 14.616 139.458 14.192C139.306 13.768 139.086 13.452 138.798 13.244C138.518 13.028 138.186 12.92 137.802 12.92C137.426 12.92 137.098 13.028 136.818 13.244C136.538 13.452 136.318 13.768 136.158 14.192C136.006 14.608 135.93 15.132 135.93 15.764C135.93 16.404 136.006 16.936 136.158 17.36C136.318 17.784 136.538 18.104 136.818 18.32C137.098 18.536 137.43 18.644 137.814 18.644ZM145.399 20.12C144.735 20.12 144.135 19.94 143.599 19.58C143.063 19.22 142.635 18.712 142.315 18.056C142.003 17.4 141.847 16.636 141.847 15.764C141.847 14.892 142.003 14.132 142.315 13.484C142.627 12.836 143.047 12.332 143.575 11.972C144.111 11.612 144.707 11.432 145.363 11.432C146.035 11.432 146.635 11.612 147.163 11.972C147.699 12.332 148.123 12.84 148.435 13.496C148.747 14.144 148.903 14.908 148.903 15.788C148.903 16.66 148.747 17.424 148.435 18.08C148.123 18.728 147.703 19.232 147.175 19.592C146.647 19.944 146.055 20.12 145.399 20.12ZM145.375 18.644C145.759 18.644 146.091 18.536 146.371 18.32C146.651 18.104 146.867 17.784 147.019 17.36C147.179 16.936 147.259 16.408 147.259 15.776C147.259 15.144 147.179 14.616 147.019 14.192C146.867 13.768 146.647 13.452 146.359 13.244C146.079 13.028 145.747 12.92 145.363 12.92C144.987 12.92 144.659 13.028 144.379 13.244C144.099 13.452 143.879 13.768 143.719 14.192C143.567 14.608 143.491 15.132 143.491 15.764C143.491 16.404 143.567 16.936 143.719 17.36C143.879 17.784 144.099 18.104 144.379 18.32C144.659 18.536 144.991 18.644 145.375 18.644ZM151.041 16.868V15.536H152.997C153.253 15.536 153.485 15.484 153.693 15.38C153.901 15.276 154.065 15.128 154.185 14.936C154.305 14.736 154.365 14.496 154.365 14.216C154.365 13.944 154.305 13.708 154.185 13.508C154.065 13.308 153.901 13.156 153.693 13.052C153.485 12.948 153.253 12.896 152.997 12.896H151.041V11.564H153.165C153.701 11.564 154.181 11.672 154.605 11.888C155.037 12.104 155.377 12.412 155.625 12.812C155.873 13.204 155.997 13.672 155.997 14.216C155.997 14.76 155.873 15.232 155.625 15.632C155.377 16.024 155.037 16.328 154.605 16.544C154.181 16.76 153.701 16.868 153.165 16.868H151.041ZM149.841 20V11.564H151.473V20H149.841ZM158.793 17.06L158.553 11.324H160.233L159.993 17.06H158.793ZM159.393 20.12C159.105 20.12 158.869 20.024 158.685 19.832C158.501 19.64 158.409 19.404 158.409 19.124C158.409 18.844 158.501 18.608 158.685 18.416C158.869 18.224 159.105 18.128 159.393 18.128C159.681 18.128 159.917 18.224 160.101 18.416C160.285 18.608 160.377 18.844 160.377 19.124C160.377 19.404 160.285 19.64 160.101 19.832C159.917 20.024 159.681 20.12 159.393 20.12Z" fill="#03E05A"/>
<path d="M89 36L85.5359 30L92.4641 30L89 36Z" fill="#111111"/>
<defs>
<linearGradient id="paint0_linear_1543_1197" x1="0.5" y1="15.5" x2="177.5" y2="15.5" gradientUnits="userSpaceOnUse">
<stop stop-color="#68DB55"/>
<stop offset="1" stop-color="#4299E0"/>
</linearGradient>
</defs>
</svg>
