<svg width="236" height="92" viewBox="0 0 236 92" fill="none" xmlns="http://www.w3.org/2000/svg">
<path d="M24.946 5.494V17.36H29.57V20.488H24.946V34.734H21.206V5.494H24.946ZM0.942 25.758L6.484 18.006C7.096 17.122 7.51533 16.3627 7.742 15.728C7.96867 15.0707 8.082 14.368 8.082 13.62V7.432H11.72V13.62C11.72 14.3907 11.822 15.1047 12.026 15.762C12.2527 16.3967 12.672 17.1447 13.284 18.006L18.826 25.758L16.038 27.73L10.496 19.978L9.884 19.06L9.272 19.978L3.73 27.73L0.942 25.758ZM50.356 15.66H45.29V12.634H50.356V5.494H54.096V26.302H50.356V15.66ZM38.592 25.146V32.15H54.334V35.142H34.852V25.146H38.592ZM29.82 19.91L35.124 14.538C35.6226 14.0393 35.9513 13.5633 36.11 13.11C36.2913 12.634 36.382 12.1013 36.382 11.512V10.322H30.466V7.262H45.596V10.322H39.952V11.512C39.952 12.124 40.0313 12.6567 40.19 13.11C40.3486 13.5407 40.6886 14.0167 41.21 14.538L46.514 19.91L44.066 22.358L38.762 16.986L38.184 16.306L37.572 16.986L32.268 22.358L29.82 19.91ZM82.5319 5.46V34.7H78.9619V5.46H82.5319ZM76.6159 6.038V33.272H73.1139V22.222H69.4759C68.8412 23.2193 68.0252 23.99 67.0279 24.534C66.0532 25.078 64.9539 25.35 63.7299 25.35C62.3472 25.35 61.1119 24.9873 60.0239 24.262C58.9359 23.5367 58.0859 22.528 57.4739 21.236C56.8619 19.9213 56.5559 18.4367 56.5559 16.782C56.5559 15.1047 56.8619 13.62 57.4739 12.328C58.0859 11.0133 58.9359 9.99333 60.0239 9.268C61.1119 8.52 62.3472 8.146 63.7299 8.146C65.0219 8.146 66.1779 8.46333 67.1979 9.098C68.2406 9.71 69.0792 10.5713 69.7139 11.682H73.1139V6.038H76.6159ZM63.7299 22.018C64.8406 22.018 65.7359 21.542 66.4159 20.59C67.1186 19.6153 67.4699 18.346 67.4699 16.782C67.4699 15.1953 67.1186 13.9147 66.4159 12.94C65.7359 11.9653 64.8406 11.478 63.7299 11.478C62.6419 11.478 61.7579 11.9653 61.0779 12.94C60.3979 13.9147 60.0579 15.1953 60.0579 16.782C60.0579 18.346 60.3979 19.6153 61.0779 20.59C61.7579 21.542 62.6419 22.018 63.7299 22.018ZM73.1139 19.196V14.708H70.8019C70.9152 15.4333 70.9719 16.1247 70.9719 16.782C70.9719 17.5073 70.8926 18.312 70.7339 19.196H73.1139ZM107.772 5.494V9.676H111.852V12.77H107.772V16.204H111.852V19.264H107.772V23.004H103.998V5.494H107.772ZM107.772 24.296V35.754H103.998V27.288H89.0039V24.296H107.772ZM92.3359 21.644C90.8172 21.644 89.4572 21.3267 88.2559 20.692C87.0772 20.0573 86.1479 19.1733 85.4679 18.04C84.8105 16.9067 84.4819 15.6147 84.4819 14.164C84.4819 12.7133 84.8105 11.4213 85.4679 10.288C86.1479 9.132 87.0772 8.23667 88.2559 7.602C89.4572 6.96733 90.8172 6.65 92.3359 6.65C93.8545 6.65 95.2032 6.96733 96.3819 7.602C97.5605 8.23667 98.4785 9.132 99.1359 10.288C99.8159 11.4213 100.156 12.7133 100.156 14.164C100.156 15.6147 99.8159 16.9067 99.1359 18.04C98.4785 19.1733 97.5605 20.0573 96.3819 20.692C95.2032 21.3267 93.8545 21.644 92.3359 21.644ZM92.3359 18.584C93.5825 18.584 94.5799 18.176 95.3279 17.36C96.0985 16.544 96.4839 15.4787 96.4839 14.164C96.4839 12.8267 96.0985 11.75 95.3279 10.934C94.5799 10.0953 93.5825 9.676 92.3359 9.676C91.0892 9.676 90.0805 10.0953 89.3099 10.934C88.5392 11.75 88.1539 12.8267 88.1539 14.164C88.1539 15.4787 88.5392 16.544 89.3099 17.36C90.0805 18.176 91.0892 18.584 92.3359 18.584ZM143.568 5.46V34.7H140.032V21.134H137.108V33.34H133.606V6.106H137.108V18.108H140.032V5.46H143.568ZM122.896 9.506V6.038H126.602V9.506H131.838V12.498H117.66V9.506H122.896ZM124.732 27.458C123.44 27.458 122.284 27.1633 121.264 26.574C120.244 25.9847 119.439 25.1687 118.85 24.126C118.283 23.0607 118 21.8593 118 20.522C118 19.1847 118.283 17.9947 118.85 16.952C119.439 15.8867 120.244 15.0593 121.264 14.47C122.284 13.8807 123.44 13.586 124.732 13.586C126.046 13.586 127.214 13.8807 128.234 14.47C129.254 15.0593 130.047 15.8867 130.614 16.952C131.203 17.9947 131.498 19.1847 131.498 20.522C131.498 21.8593 131.203 23.0607 130.614 24.126C130.047 25.1687 129.254 25.9847 128.234 26.574C127.214 27.1633 126.046 27.458 124.732 27.458ZM124.732 24.364C125.729 24.364 126.534 24.0127 127.146 23.31C127.758 22.6073 128.064 21.678 128.064 20.522C128.064 19.366 127.758 18.4367 127.146 17.734C126.534 17.0313 125.729 16.68 124.732 16.68C123.734 16.68 122.93 17.0313 122.318 17.734C121.728 18.4367 121.434 19.366 121.434 20.522C121.434 21.678 121.728 22.6073 122.318 23.31C122.93 24.0127 123.734 24.364 124.732 24.364ZM168.876 5.494V12.736H173.262V15.83H168.876V21.678H173.262V24.738H168.876V34.734H165.102V5.494H168.876ZM153.678 25.35C152.091 25.35 150.663 24.9873 149.394 24.262C148.147 23.5367 147.172 22.528 146.47 21.236C145.767 19.9213 145.416 18.4367 145.416 16.782C145.416 15.1047 145.767 13.62 146.47 12.328C147.172 11.0133 148.147 9.99333 149.394 9.268C150.663 8.52 152.091 8.146 153.678 8.146C155.264 8.146 156.681 8.52 157.928 9.268C159.174 9.99333 160.149 11.0133 160.852 12.328C161.554 13.62 161.906 15.1047 161.906 16.782C161.906 18.4367 161.554 19.9213 160.852 21.236C160.149 22.528 159.174 23.5367 157.928 24.262C156.681 24.9873 155.264 25.35 153.678 25.35ZM153.678 22.154C155.06 22.154 156.171 21.6667 157.01 20.692C157.848 19.6947 158.268 18.3913 158.268 16.782C158.268 15.1727 157.848 13.8693 157.01 12.872C156.171 11.852 155.06 11.342 153.678 11.342C152.295 11.342 151.184 11.852 150.346 12.872C149.507 13.8693 149.088 15.1727 149.088 16.782C149.088 18.3913 149.507 19.6947 150.346 20.692C151.184 21.6667 152.295 22.154 153.678 22.154ZM202.564 5.494V17.53H207.154V20.624H202.564V34.734H198.824V5.494H202.564ZM186.006 9.302V6.038H189.712V9.302H196.308V12.294H179.376V9.302H186.006ZM187.842 27.798C186.414 27.798 185.144 27.5033 184.034 26.914C182.923 26.302 182.05 25.452 181.416 24.364C180.804 23.276 180.498 22.0407 180.498 20.658C180.498 19.2753 180.804 18.04 181.416 16.952C182.05 15.8413 182.923 14.98 184.034 14.368C185.144 13.756 186.414 13.45 187.842 13.45C189.27 13.45 190.539 13.756 191.65 14.368C192.783 14.98 193.656 15.8413 194.268 16.952C194.902 18.04 195.22 19.2753 195.22 20.658C195.22 22.0407 194.902 23.276 194.268 24.364C193.656 25.452 192.783 26.302 191.65 26.914C190.539 27.5033 189.27 27.798 187.842 27.798ZM187.842 24.704C188.975 24.704 189.882 24.33 190.562 23.582C191.264 22.834 191.616 21.8593 191.616 20.658C191.616 19.434 191.264 18.448 190.562 17.7C189.882 16.952 188.975 16.578 187.842 16.578C186.708 16.578 185.79 16.952 185.088 17.7C184.408 18.448 184.068 19.434 184.068 20.658C184.068 21.8593 184.419 22.834 185.122 23.582C185.824 24.33 186.731 24.704 187.842 24.704ZM214.442 6.548V14.402H230.354V17.36H210.702V6.548H214.442ZM233.958 20.284V23.276H206.554V20.284H233.958ZM214.51 25.792V32.116H230.082V35.108H210.804V25.792H214.51Z" fill="#2F2F2F"/>
<path d="M54.352 78.014L63.566 57.41L52.21 57.444V54.248H67.17L67.51 57.41L57.684 79.408L54.352 78.014ZM91.9706 51.426V63.19H96.4246V66.284H91.9706V80.7H88.2306V51.426H91.9706ZM70.0066 54.044H84.0486V57.104C84.0486 59.892 83.3913 62.408 82.0766 64.652C80.7619 66.8733 79.0393 68.7093 76.9086 70.16C74.7779 71.6107 72.4773 72.6533 70.0066 73.288L69.1566 69.888C71.2646 69.344 73.1686 68.5167 74.8686 67.406C76.5686 66.2727 77.9286 64.8333 78.9486 63.088C79.9686 61.3427 80.4786 59.348 80.4786 57.104H70.0066V54.044ZM121.121 51.494V80.734H117.347V51.494H121.121ZM96.3006 71.282L101.775 63.292C102.409 62.3627 102.829 61.6147 103.033 61.048C103.259 60.4587 103.373 59.8013 103.373 59.076V57.138H97.4566V54.078H112.961V57.138H107.045V59.076C107.045 59.8013 107.147 60.4587 107.351 61.048C107.577 61.6373 107.997 62.3853 108.609 63.292L114.083 71.282L111.227 73.254L105.753 65.264L105.175 64.414L104.631 65.264L99.1566 73.254L96.3006 71.282ZM154.638 51.426V80.768H150.864V51.426H154.638ZM138.386 71.35C136.8 71.35 135.372 70.9873 134.102 70.262C132.856 69.5367 131.881 68.528 131.178 67.236C130.476 65.9213 130.124 64.4367 130.124 62.782C130.124 61.1047 130.476 59.62 131.178 58.328C131.881 57.0133 132.856 55.9933 134.102 55.268C135.372 54.52 136.8 54.146 138.386 54.146C139.973 54.146 141.39 54.52 142.636 55.268C143.883 55.9933 144.858 57.0133 145.56 58.328C146.263 59.62 146.614 61.1047 146.614 62.782C146.614 64.4367 146.263 65.9213 145.56 67.236C144.858 68.528 143.883 69.5367 142.636 70.262C141.39 70.9873 139.973 71.35 138.386 71.35ZM138.386 68.154C139.769 68.154 140.88 67.6667 141.718 66.692C142.557 65.6947 142.976 64.3913 142.976 62.782C142.976 61.1727 142.557 59.8693 141.718 58.872C140.88 57.852 139.769 57.342 138.386 57.342C137.004 57.342 135.893 57.852 135.054 58.872C134.216 59.8693 133.796 61.1727 133.796 62.782C133.796 64.3913 134.216 65.6947 135.054 66.692C135.893 67.6667 137.004 68.154 138.386 68.154ZM184.638 69.038V72.098H177.974V81.72H174.2V72.098H167.57V81.72H163.728V72.098H157.234V69.038H184.638ZM162.13 59.314C162.13 57.818 162.493 56.4807 163.218 55.302C163.966 54.1233 164.998 53.2053 166.312 52.548C167.65 51.8907 169.157 51.562 170.834 51.562C172.557 51.562 174.087 51.8907 175.424 52.548C176.762 53.2053 177.804 54.1233 178.552 55.302C179.3 56.4807 179.674 57.818 179.674 59.314C179.674 60.81 179.3 62.1473 178.552 63.326C177.804 64.482 176.762 65.3887 175.424 66.046C174.087 66.7033 172.557 67.032 170.834 67.032C169.157 67.032 167.65 66.7033 166.312 66.046C164.998 65.3887 163.966 64.482 163.218 63.326C162.493 62.1473 162.13 60.81 162.13 59.314ZM165.802 59.314C165.802 60.6967 166.267 61.8187 167.196 62.68C168.126 63.5413 169.338 63.972 170.834 63.972C172.376 63.972 173.622 63.5527 174.574 62.714C175.526 61.8527 176.002 60.7193 176.002 59.314C176.002 57.9087 175.526 56.7753 174.574 55.914C173.622 55.03 172.376 54.588 170.834 54.588C169.338 54.588 168.126 55.03 167.196 55.914C166.267 56.7753 165.802 57.9087 165.802 59.314Z" fill="#FF0090"/>
<path d="M50 90.3333C49.4993 90.3333 49.0933 90.7393 49.0933 91.24C49.0933 91.7407 49.4993 92.1467 50 92.1467V90.3333ZM50 92.1467C51.638 92.1467 52.4769 91.1461 53.0623 90.477C53.6669 89.7861 54.018 89.4267 54.76 89.4267V87.6133C53.122 87.6133 52.2831 88.6139 51.6977 89.283C51.0931 89.9739 50.742 90.3333 50 90.3333V92.1467Z" fill="#FF0090"/>
<path d="M54.76 89.4267C55.502 89.4267 55.8531 89.7861 56.4577 90.477C57.0431 91.1461 57.882 92.1467 59.52 92.1467V90.3333C58.778 90.3333 58.4269 89.9739 57.8223 89.283C57.2369 88.6139 56.398 87.6133 54.76 87.6133V89.4267Z" fill="#FF0090"/>
<path d="M59.52 92.1467C61.158 92.1467 61.9969 91.1461 62.5823 90.477C63.1869 89.7861 63.538 89.4267 64.28 89.4267V87.6133C62.642 87.6133 61.8031 88.6139 61.2177 89.283C60.6131 89.9739 60.262 90.3333 59.52 90.3333V92.1467Z" fill="#FF0090"/>
<path d="M64.28 89.4267C65.022 89.4267 65.3731 89.7861 65.9777 90.477C66.5631 91.1461 67.402 92.1467 69.04 92.1467V90.3333C68.298 90.3333 67.9469 89.9739 67.3423 89.283C66.7569 88.6139 65.918 87.6133 64.28 87.6133V89.4267Z" fill="#FF0090"/>
<path d="M69.04 92.1467C70.678 92.1467 71.5169 91.1461 72.1023 90.477C72.7069 89.7861 73.058 89.4267 73.8 89.4267V87.6133C72.162 87.6133 71.3231 88.6139 70.7377 89.283C70.1331 89.9739 69.782 90.3333 69.04 90.3333V92.1467Z" fill="#FF0090"/>
<path d="M73.8 89.4267C74.542 89.4267 74.8931 89.7861 75.4977 90.477C76.0831 91.1461 76.922 92.1467 78.56 92.1467V90.3333C77.818 90.3333 77.4669 89.9739 76.8623 89.283C76.2769 88.6139 75.438 87.6133 73.8 87.6133V89.4267Z" fill="#FF0090"/>
<path d="M78.56 92.1467C80.198 92.1467 81.0369 91.1461 81.6224 90.477C82.2269 89.7861 82.578 89.4267 83.32 89.4267V87.6133C81.682 87.6133 80.8431 88.6139 80.2577 89.283C79.6531 89.9739 79.302 90.3333 78.56 90.3333V92.1467Z" fill="#FF0090"/>
<path d="M83.32 89.4267C84.062 89.4267 84.4131 89.7861 85.0177 90.477C85.6031 91.1461 86.442 92.1467 88.08 92.1467V90.3333C87.338 90.3333 86.9869 89.9739 86.3824 89.283C85.7969 88.6139 84.958 87.6133 83.32 87.6133V89.4267Z" fill="#FF0090"/>
<path d="M88.08 92.1467C89.718 92.1467 90.5569 91.1461 91.1424 90.477C91.7469 89.7861 92.098 89.4267 92.84 89.4267V87.6133C91.202 87.6133 90.3631 88.6139 89.7777 89.283C89.1731 89.9739 88.822 90.3333 88.08 90.3333V92.1467Z" fill="#FF0090"/>
<path d="M92.84 89.4267C93.582 89.4267 93.9331 89.7861 94.5377 90.477C95.1231 91.1461 95.962 92.1467 97.6 92.1467V90.3333C96.858 90.3333 96.5069 89.9739 95.9024 89.283C95.3169 88.6139 94.478 87.6133 92.84 87.6133V89.4267Z" fill="#FF0090"/>
<path d="M97.6 92.1467C99.238 92.1467 100.077 91.1461 100.662 90.477C101.267 89.7861 101.618 89.4267 102.36 89.4267V87.6133C100.722 87.6133 99.8831 88.6139 99.2977 89.283C98.6931 89.9739 98.3421 90.3333 97.6 90.3333V92.1467Z" fill="#FF0090"/>
<path d="M102.36 89.4267C103.102 89.4267 103.453 89.7861 104.058 90.477C104.643 91.1461 105.482 92.1467 107.12 92.1467V90.3333C106.378 90.3333 106.027 89.9739 105.422 89.283C104.837 88.6139 103.998 87.6133 102.36 87.6133V89.4267Z" fill="#FF0090"/>
<path d="M107.12 92.1467C108.758 92.1467 109.597 91.1461 110.182 90.477C110.787 89.7861 111.138 89.4267 111.88 89.4267V87.6133C110.242 87.6133 109.403 88.6139 108.818 89.283C108.213 89.9739 107.862 90.3333 107.12 90.3333V92.1467Z" fill="#FF0090"/>
<path d="M111.88 89.4267C112.622 89.4267 112.973 89.7861 113.578 90.477C114.163 91.1461 115.002 92.1467 116.64 92.1467V90.3333C115.898 90.3333 115.547 89.9739 114.942 89.283C114.357 88.6139 113.518 87.6133 111.88 87.6133V89.4267Z" fill="#FF0090"/>
<path d="M116.64 92.1467C118.278 92.1467 119.117 91.1461 119.702 90.477C120.307 89.7861 120.658 89.4267 121.4 89.4267V87.6133C119.762 87.6133 118.923 88.6139 118.338 89.283C117.733 89.9739 117.382 90.3333 116.64 90.3333V92.1467Z" fill="#FF0090"/>
<path d="M121.4 89.4267C122.142 89.4267 122.493 89.7861 123.098 90.477C123.683 91.1461 124.522 92.1467 126.16 92.1467V90.3333C125.418 90.3333 125.067 89.9739 124.462 89.283C123.877 88.6139 123.038 87.6133 121.4 87.6133V89.4267Z" fill="#FF0090"/>
<path d="M126.16 92.1467C127.798 92.1467 128.637 91.1461 129.222 90.477C129.827 89.7861 130.178 89.4267 130.92 89.4267V87.6133C129.282 87.6133 128.443 88.6139 127.858 89.283C127.253 89.9739 126.902 90.3333 126.16 90.3333V92.1467Z" fill="#FF0090"/>
<path d="M130.92 89.4267C131.662 89.4267 132.013 89.7861 132.618 90.477C133.203 91.1461 134.042 92.1467 135.68 92.1467V90.3333C134.938 90.3333 134.587 89.9739 133.982 89.283C133.397 88.6139 132.558 87.6133 130.92 87.6133V89.4267Z" fill="#FF0090"/>
<path d="M135.68 92.1467C137.318 92.1467 138.157 91.1461 138.742 90.477C139.347 89.7861 139.698 89.4267 140.44 89.4267V87.6133C138.802 87.6133 137.963 88.6139 137.378 89.283C136.773 89.9739 136.422 90.3333 135.68 90.3333V92.1467Z" fill="#FF0090"/>
<path d="M140.44 89.4267C141.182 89.4267 141.533 89.7861 142.138 90.477C142.723 91.1461 143.562 92.1467 145.2 92.1467V90.3333C144.458 90.3333 144.107 89.9739 143.502 89.283C142.917 88.6139 142.078 87.6133 140.44 87.6133V89.4267Z" fill="#FF0090"/>
<path d="M145.2 92.1467C146.838 92.1467 147.677 91.1461 148.262 90.477C148.867 89.7861 149.218 89.4267 149.96 89.4267V87.6133C148.322 87.6133 147.483 88.6139 146.898 89.283C146.293 89.9739 145.942 90.3333 145.2 90.3333V92.1467Z" fill="#FF0090"/>
<path d="M149.96 89.4267C150.702 89.4267 151.053 89.7861 151.658 90.477C152.243 91.1461 153.082 92.1467 154.72 92.1467V90.3333C153.978 90.3333 153.627 89.9739 153.022 89.283C152.437 88.6139 151.598 87.6133 149.96 87.6133V89.4267Z" fill="#FF0090"/>
<path d="M154.72 92.1467C156.358 92.1467 157.197 91.1461 157.782 90.477C158.387 89.7861 158.738 89.4267 159.48 89.4267V87.6133C157.842 87.6133 157.003 88.6139 156.418 89.283C155.813 89.9739 155.462 90.3333 154.72 90.3333V92.1467Z" fill="#FF0090"/>
<path d="M159.48 89.4267C160.222 89.4267 160.573 89.7861 161.178 90.477C161.763 91.1461 162.602 92.1467 164.24 92.1467V90.3333C163.498 90.3333 163.147 89.9739 162.542 89.283C161.957 88.6139 161.118 87.6133 159.48 87.6133V89.4267Z" fill="#FF0090"/>
<path d="M164.24 92.1467C165.878 92.1467 166.717 91.1461 167.302 90.477C167.907 89.7861 168.258 89.4267 169 89.4267V87.6133C167.362 87.6133 166.523 88.6139 165.938 89.283C165.333 89.9739 164.982 90.3333 164.24 90.3333V92.1467Z" fill="#FF0090"/>
<path d="M169 89.4267C169.742 89.4267 170.093 89.7861 170.698 90.477C171.283 91.1461 172.122 92.1467 173.76 92.1467V90.3333C173.018 90.3333 172.667 89.9739 172.062 89.283C171.477 88.6139 170.638 87.6133 169 87.6133V89.4267Z" fill="#FF0090"/>
<path d="M173.76 92.1467C175.398 92.1467 176.237 91.1461 176.822 90.477C177.427 89.7861 177.778 89.4267 178.52 89.4267V87.6133C176.882 87.6133 176.043 88.6139 175.458 89.283C174.853 89.9739 174.502 90.3333 173.76 90.3333V92.1467Z" fill="#FF0090"/>
<path d="M178.52 89.4267C179.262 89.4267 179.613 89.7861 180.218 90.477C180.803 91.1461 181.642 92.1467 183.28 92.1467V90.3333C182.538 90.3333 182.187 89.9739 181.582 89.283C180.997 88.6139 180.158 87.6133 178.52 87.6133V89.4267ZM183.28 92.1467C183.781 92.1467 184.187 91.7407 184.187 91.24C184.187 90.7393 183.781 90.3333 183.28 90.3333V92.1467Z" fill="#FF0090"/>
</svg>
