<svg width="288" height="46" viewBox="0 0 288 46" fill="none" xmlns="http://www.w3.org/2000/svg">
<path d="M24.616 5.494V11.546H28.764V14.606H24.616V20.692H20.842V5.494H24.616ZM24.616 21.984V29.94H9.316V32.422H25.364V35.38H5.644V27.186H20.91V24.874H5.576V21.984H24.616ZM9.18 20.522C7.66133 20.522 6.30133 20.216 5.1 19.604C3.92133 18.9693 2.992 18.108 2.312 17.02C1.65467 15.9093 1.326 14.6513 1.326 13.246C1.326 11.8407 1.65467 10.5827 2.312 9.472C2.992 8.36133 3.92133 7.5 5.1 6.888C6.30133 6.276 7.66133 5.97 9.18 5.97C10.6987 5.97 12.0473 6.276 13.226 6.888C14.4047 7.5 15.3227 8.36133 15.98 9.472C16.66 10.5827 17 11.8407 17 13.246C17 14.6513 16.66 15.9093 15.98 17.02C15.3227 18.108 14.4047 18.9693 13.226 19.604C12.0473 20.216 10.6987 20.522 9.18 20.522ZM9.18 17.564C10.4267 17.564 11.424 17.1673 12.172 16.374C12.9427 15.5807 13.328 14.538 13.328 13.246C13.328 11.954 12.9427 10.9113 12.172 10.118C11.424 9.302 10.4267 8.894 9.18 8.894C7.93333 8.894 6.92467 9.302 6.154 10.118C5.38333 10.9113 4.998 11.954 4.998 13.246C4.998 14.538 5.38333 15.5807 6.154 16.374C6.92467 17.1673 7.93333 17.564 9.18 17.564ZM33.57 24.466H52.168V35.38H33.57V24.466ZM48.53 32.422V27.39H37.208V32.422H48.53ZM39.418 12.872V10.016H29.932V6.956H43.124V15.762H33.672V18.72H44.96V21.78H29.932V12.872H39.418ZM48.428 5.494H52.168V12.838H56.384V15.932H52.168V22.698H48.428V5.494ZM63.5518 6.922H67.2578V11.036H73.6838V6.922H77.3898V21.168H63.5518V6.922ZM67.1218 24.398H86.0598V27.39H70.8618V32.354H86.0598V35.38H67.1218V24.398ZM73.6838 18.21V13.96H67.2578V18.21H73.6838ZM82.1158 5.494H85.8558V12.498H90.0378V15.592H85.8558V22.97H82.1158V5.494ZM117.114 27.832V30.892H89.7098V27.832H117.114ZM94.1638 15.796C94.1638 14.1187 94.5491 12.6227 95.3198 11.308C96.1131 9.97067 97.2011 8.93933 98.5838 8.214C99.9891 7.466 101.576 7.092 103.344 7.092C105.134 7.092 106.732 7.466 108.138 8.214C109.566 8.93933 110.665 9.97067 111.436 11.308C112.229 12.6227 112.626 14.1187 112.626 15.796C112.626 17.4733 112.229 18.9807 111.436 20.318C110.665 21.6327 109.566 22.664 108.138 23.412C106.732 24.1373 105.134 24.5 103.344 24.5C101.576 24.5 99.9891 24.1373 98.5838 23.412C97.2011 22.664 96.1131 21.6327 95.3198 20.318C94.5491 18.9807 94.1638 17.4733 94.1638 15.796ZM97.8358 15.796C97.8358 17.428 98.3458 18.7767 99.3658 19.842C100.386 20.8847 101.712 21.406 103.344 21.406C105.021 21.406 106.37 20.8847 107.39 19.842C108.432 18.7993 108.954 17.4507 108.954 15.796C108.954 14.1413 108.432 12.7927 107.39 11.75C106.37 10.7073 105.021 10.186 103.344 10.186C101.712 10.186 100.386 10.7187 99.3658 11.784C98.3458 12.8267 97.8358 14.164 97.8358 15.796ZM118.724 7.636H132.868V10.05H138.648V5.494H142.422V26.268H138.648V19.536H132.868V21.95H118.724V7.636ZM126.986 25.282V32.15H142.694V35.142H123.246V25.282H126.986ZM129.23 18.924V10.594H122.362V18.924H129.23ZM138.648 16.544V13.076H132.868V16.544H138.648Z" fill="#2F2F2F"/>
<path d="M164.518 36.332C163.09 36.332 161.821 36.0713 160.71 35.55C159.599 35.0287 158.727 34.3033 158.092 33.374C157.48 32.4447 157.174 31.402 157.174 30.246C157.174 29.0673 157.639 27.9793 158.568 26.982H155.304V24.058H162.784V21.542H166.49V24.058H173.97V26.982H170.638C171.59 28.002 172.066 29.09 172.066 30.246C172.066 31.402 171.737 32.4447 171.08 33.374C170.445 34.3033 169.55 35.0287 168.394 35.55C167.261 36.0713 165.969 36.332 164.518 36.332ZM164.552 33.442C165.731 33.442 166.683 33.1473 167.408 32.558C168.156 31.9687 168.53 31.198 168.53 30.246C168.53 29.3167 168.156 28.5573 167.408 27.968C166.683 27.3787 165.731 27.084 164.552 27.084C163.419 27.084 162.489 27.3787 161.764 27.968C161.061 28.5573 160.71 29.3167 160.71 30.246C160.71 31.198 161.061 31.9687 161.764 32.558C162.489 33.1473 163.419 33.442 164.552 33.442ZM150.918 17.36H162.716V14.3H166.422V17.36H178.322V20.318H150.918V17.36ZM153.774 13.28L161.22 10.016C161.968 9.676 162.455 9.27933 162.682 8.826H154.59V5.766H174.548V8.826H166.456C166.683 9.27933 167.17 9.676 167.918 10.016L175.364 13.28L174.004 16.272L166.626 13.008C165.81 12.668 165.13 12.226 164.586 11.682C163.997 12.226 163.305 12.668 162.512 13.008L155.134 16.272L153.774 13.28ZM205.806 20.896V23.888H178.47V20.896H205.806ZM186.426 26.166V32.15H202.066V35.176H182.686V26.166H186.426ZM183.876 12.022C183.876 10.6847 184.216 9.51733 184.896 8.52C185.599 7.5 186.562 6.718 187.786 6.174C189.033 5.60733 190.461 5.324 192.07 5.324C193.702 5.324 195.141 5.60733 196.388 6.174C197.657 6.718 198.643 7.5 199.346 8.52C200.049 9.51733 200.4 10.6847 200.4 12.022C200.4 13.2687 200.049 14.402 199.346 15.422C198.643 16.4193 197.657 17.2127 196.388 17.802C195.119 18.3687 193.679 18.652 192.07 18.652C190.483 18.652 189.067 18.3687 187.82 17.802C186.573 17.2127 185.599 16.4193 184.896 15.422C184.216 14.402 183.876 13.2687 183.876 12.022ZM187.446 12.022C187.446 13.0647 187.877 13.926 188.738 14.606C189.599 15.2633 190.721 15.592 192.104 15.592C193.509 15.592 194.643 15.252 195.504 14.572C196.388 13.892 196.83 13.042 196.83 12.022C196.83 10.8887 196.399 9.99333 195.538 9.336C194.677 8.67867 193.532 8.35 192.104 8.35C190.699 8.35 189.565 8.67867 188.704 9.336C187.865 9.99333 187.446 10.8887 187.446 12.022ZM223.888 26.71H213.246L212.906 23.582L222.936 8.044L225.928 9.88L217.122 23.582H223.888V16.544H227.492V23.582H230.62V26.71H227.492V33.102H223.888V26.71ZM255.037 5.426V17.19H259.491V20.284H255.037V34.7H251.297V5.426H255.037ZM233.073 8.044H247.115V11.104C247.115 13.892 246.457 16.408 245.143 18.652C243.828 20.8733 242.105 22.7093 239.975 24.16C237.844 25.6107 235.543 26.6533 233.073 27.288L232.223 23.888C234.331 23.344 236.235 22.5167 237.935 21.406C239.635 20.2727 240.995 18.8333 242.015 17.088C243.035 15.3427 243.545 13.348 243.545 11.104H233.073V8.044ZM284.187 5.494V34.734H280.413V5.494H284.187ZM259.367 25.282L264.841 17.292C265.475 16.3627 265.895 15.6147 266.099 15.048C266.325 14.4587 266.439 13.8013 266.439 13.076V11.138H260.523V8.078H276.027V11.138H270.111V13.076C270.111 13.8013 270.213 14.4587 270.417 15.048C270.643 15.6373 271.063 16.3853 271.675 17.292L277.149 25.282L274.293 27.254L268.819 19.264L268.241 18.414L267.697 19.264L262.223 27.254L259.367 25.282Z" fill="#FF0090"/>
<path d="M150 44.3333C149.499 44.3333 149.093 44.7393 149.093 45.24C149.093 45.7407 149.499 46.1467 150 46.1467V44.3333ZM150 46.1467C151.638 46.1467 152.477 45.1461 153.062 44.477C153.667 43.7861 154.018 43.4267 154.76 43.4267V41.6133C153.122 41.6133 152.283 42.6139 151.698 43.283C151.093 43.9739 150.742 44.3333 150 44.3333V46.1467Z" fill="#FF0090"/>
<path d="M154.76 43.4267C155.502 43.4267 155.853 43.7861 156.458 44.477C157.043 45.1461 157.882 46.1467 159.52 46.1467V44.3333C158.778 44.3333 158.427 43.9739 157.822 43.283C157.237 42.6139 156.398 41.6133 154.76 41.6133V43.4267Z" fill="#FF0090"/>
<path d="M159.52 46.1467C161.158 46.1467 161.997 45.1461 162.582 44.477C163.187 43.7861 163.538 43.4267 164.28 43.4267V41.6133C162.642 41.6133 161.803 42.6139 161.218 43.283C160.613 43.9739 160.262 44.3333 159.52 44.3333V46.1467Z" fill="#FF0090"/>
<path d="M164.28 43.4267C165.022 43.4267 165.373 43.7861 165.978 44.477C166.563 45.1461 167.402 46.1467 169.04 46.1467V44.3333C168.298 44.3333 167.947 43.9739 167.342 43.283C166.757 42.6139 165.918 41.6133 164.28 41.6133V43.4267Z" fill="#FF0090"/>
<path d="M169.04 46.1467C170.678 46.1467 171.517 45.1461 172.102 44.477C172.707 43.7861 173.058 43.4267 173.8 43.4267V41.6133C172.162 41.6133 171.323 42.6139 170.738 43.283C170.133 43.9739 169.782 44.3333 169.04 44.3333V46.1467Z" fill="#FF0090"/>
<path d="M173.8 43.4267C174.542 43.4267 174.893 43.7861 175.498 44.477C176.083 45.1461 176.922 46.1467 178.56 46.1467V44.3333C177.818 44.3333 177.467 43.9739 176.862 43.283C176.277 42.6139 175.438 41.6133 173.8 41.6133V43.4267Z" fill="#FF0090"/>
<path d="M178.56 46.1467C180.198 46.1467 181.037 45.1461 181.622 44.477C182.227 43.7861 182.578 43.4267 183.32 43.4267V41.6133C181.682 41.6133 180.843 42.6139 180.258 43.283C179.653 43.9739 179.302 44.3333 178.56 44.3333V46.1467Z" fill="#FF0090"/>
<path d="M183.32 43.4267C184.062 43.4267 184.413 43.7861 185.018 44.477C185.603 45.1461 186.442 46.1467 188.08 46.1467V44.3333C187.338 44.3333 186.987 43.9739 186.382 43.283C185.797 42.6139 184.958 41.6133 183.32 41.6133V43.4267Z" fill="#FF0090"/>
<path d="M188.08 46.1467C189.718 46.1467 190.557 45.1461 191.142 44.477C191.747 43.7861 192.098 43.4267 192.84 43.4267V41.6133C191.202 41.6133 190.363 42.6139 189.778 43.283C189.173 43.9739 188.822 44.3333 188.08 44.3333V46.1467Z" fill="#FF0090"/>
<path d="M192.84 43.4267C193.582 43.4267 193.933 43.7861 194.538 44.477C195.123 45.1461 195.962 46.1467 197.6 46.1467V44.3333C196.858 44.3333 196.507 43.9739 195.902 43.283C195.317 42.6139 194.478 41.6133 192.84 41.6133V43.4267Z" fill="#FF0090"/>
<path d="M197.6 46.1467C199.238 46.1467 200.077 45.1461 200.662 44.477C201.267 43.7861 201.618 43.4267 202.36 43.4267V41.6133C200.722 41.6133 199.883 42.6139 199.298 43.283C198.693 43.9739 198.342 44.3333 197.6 44.3333V46.1467Z" fill="#FF0090"/>
<path d="M202.36 43.4267C203.102 43.4267 203.453 43.7861 204.058 44.477C204.643 45.1461 205.482 46.1467 207.12 46.1467V44.3333C206.378 44.3333 206.027 43.9739 205.422 43.283C204.837 42.6139 203.998 41.6133 202.36 41.6133V43.4267Z" fill="#FF0090"/>
<path d="M207.12 46.1467C208.758 46.1467 209.597 45.1461 210.182 44.477C210.787 43.7861 211.138 43.4267 211.88 43.4267V41.6133C210.242 41.6133 209.403 42.6139 208.818 43.283C208.213 43.9739 207.862 44.3333 207.12 44.3333V46.1467Z" fill="#FF0090"/>
<path d="M211.88 43.4267C212.622 43.4267 212.973 43.7861 213.578 44.477C214.163 45.1461 215.002 46.1467 216.64 46.1467V44.3333C215.898 44.3333 215.547 43.9739 214.942 43.283C214.357 42.6139 213.518 41.6133 211.88 41.6133V43.4267Z" fill="#FF0090"/>
<path d="M216.64 46.1467C218.278 46.1467 219.117 45.1461 219.702 44.477C220.307 43.7861 220.658 43.4267 221.4 43.4267V41.6133C219.762 41.6133 218.923 42.6139 218.338 43.283C217.733 43.9739 217.382 44.3333 216.64 44.3333V46.1467Z" fill="#FF0090"/>
<path d="M221.4 43.4267C222.142 43.4267 222.493 43.7861 223.098 44.477C223.683 45.1461 224.522 46.1467 226.16 46.1467V44.3333C225.418 44.3333 225.067 43.9739 224.462 43.283C223.877 42.6139 223.038 41.6133 221.4 41.6133V43.4267Z" fill="#FF0090"/>
<path d="M226.16 46.1467C227.798 46.1467 228.637 45.1461 229.222 44.477C229.827 43.7861 230.178 43.4267 230.92 43.4267V41.6133C229.282 41.6133 228.443 42.6139 227.858 43.283C227.253 43.9739 226.902 44.3333 226.16 44.3333V46.1467Z" fill="#FF0090"/>
<path d="M230.92 43.4267C231.662 43.4267 232.013 43.7861 232.618 44.477C233.203 45.1461 234.042 46.1467 235.68 46.1467V44.3333C234.938 44.3333 234.587 43.9739 233.982 43.283C233.397 42.6139 232.558 41.6133 230.92 41.6133V43.4267Z" fill="#FF0090"/>
<path d="M235.68 46.1467C237.318 46.1467 238.157 45.1461 238.742 44.477C239.347 43.7861 239.698 43.4267 240.44 43.4267V41.6133C238.802 41.6133 237.963 42.6139 237.378 43.283C236.773 43.9739 236.422 44.3333 235.68 44.3333V46.1467Z" fill="#FF0090"/>
<path d="M240.44 43.4267C241.182 43.4267 241.533 43.7861 242.138 44.477C242.723 45.1461 243.562 46.1467 245.2 46.1467V44.3333C244.458 44.3333 244.107 43.9739 243.502 43.283C242.917 42.6139 242.078 41.6133 240.44 41.6133V43.4267Z" fill="#FF0090"/>
<path d="M245.2 46.1467C246.838 46.1467 247.677 45.1461 248.262 44.477C248.867 43.7861 249.218 43.4267 249.96 43.4267V41.6133C248.322 41.6133 247.483 42.6139 246.898 43.283C246.293 43.9739 245.942 44.3333 245.2 44.3333V46.1467Z" fill="#FF0090"/>
<path d="M249.96 43.4267C250.702 43.4267 251.053 43.7861 251.658 44.477C252.243 45.1461 253.082 46.1467 254.72 46.1467V44.3333C253.978 44.3333 253.627 43.9739 253.022 43.283C252.437 42.6139 251.598 41.6133 249.96 41.6133V43.4267Z" fill="#FF0090"/>
<path d="M254.72 46.1467C256.358 46.1467 257.197 45.1461 257.782 44.477C258.387 43.7861 258.738 43.4267 259.48 43.4267V41.6133C257.842 41.6133 257.003 42.6139 256.418 43.283C255.813 43.9739 255.462 44.3333 254.72 44.3333V46.1467Z" fill="#FF0090"/>
<path d="M259.48 43.4267C260.222 43.4267 260.573 43.7861 261.178 44.477C261.763 45.1461 262.602 46.1467 264.24 46.1467V44.3333C263.498 44.3333 263.147 43.9739 262.542 43.283C261.957 42.6139 261.118 41.6133 259.48 41.6133V43.4267Z" fill="#FF0090"/>
<path d="M264.24 46.1467C265.878 46.1467 266.717 45.1461 267.302 44.477C267.907 43.7861 268.258 43.4267 269 43.4267V41.6133C267.362 41.6133 266.523 42.6139 265.938 43.283C265.333 43.9739 264.982 44.3333 264.24 44.3333V46.1467Z" fill="#FF0090"/>
<path d="M269 43.4267C269.742 43.4267 270.093 43.7861 270.698 44.477C271.283 45.1461 272.122 46.1467 273.76 46.1467V44.3333C273.018 44.3333 272.667 43.9739 272.062 43.283C271.477 42.6139 270.638 41.6133 269 41.6133V43.4267Z" fill="#FF0090"/>
<path d="M273.76 46.1467C275.398 46.1467 276.237 45.1461 276.822 44.477C277.427 43.7861 277.778 43.4267 278.52 43.4267V41.6133C276.882 41.6133 276.043 42.6139 275.458 43.283C274.853 43.9739 274.502 44.3333 273.76 44.3333V46.1467Z" fill="#FF0090"/>
<path d="M278.52 43.4267C279.262 43.4267 279.613 43.7861 280.218 44.477C280.803 45.1461 281.642 46.1467 283.28 46.1467V44.3333C282.538 44.3333 282.187 43.9739 281.582 43.283C280.997 42.6139 280.158 41.6133 278.52 41.6133V43.4267Z" fill="#FF0090"/>
<path d="M283.28 46.1467C284.918 46.1467 285.757 45.1461 286.342 44.477C286.947 43.7861 287.298 43.4267 288.04 43.4267V41.6133C286.402 41.6133 285.563 42.6139 284.978 43.283C284.373 43.9739 284.022 44.3333 283.28 44.3333V46.1467ZM288.04 43.4267C288.541 43.4267 288.947 43.0207 288.947 42.52C288.947 42.0193 288.541 41.6133 288.04 41.6133V43.4267Z" fill="#FF0090"/>
</svg>
