<svg width="95" height="20" viewBox="0 0 95 20" fill="none" xmlns="http://www.w3.org/2000/svg">
<path d="M6.898 18.22C5.666 18.22 4.59533 17.9487 3.686 17.406C2.79133 16.8633 2.102 16.108 1.618 15.14C1.14867 14.172 0.914 13.0573 0.914 11.796V2.05H2.762V11.818C2.762 13.2553 3.12133 14.4067 3.84 15.272C4.55867 16.1227 5.578 16.548 6.898 16.548C8.218 16.548 9.23733 16.1227 9.956 15.272C10.6893 14.4067 11.056 13.2553 11.056 11.818V2.05H12.904V11.796C12.904 13.0573 12.662 14.172 12.178 15.14C11.7087 16.108 11.0193 16.8633 10.11 17.406C9.20067 17.9487 8.13 18.22 6.898 18.22ZM18.9247 4.588H22.2511V5.6704H18.9247V8.9836H17.8555V5.6704H14.5291V4.588H17.8555V1.2616H18.9247V4.588ZM40.5781 0.289999V5.68H43.3721V7.242H40.5781V12.324H38.6641V0.289999H40.5781ZM36.8821 9.97H26.6301V1.346H35.3421V2.93H28.5221V8.408H36.8821V9.97ZM28.1701 18.286L32.5701 14.964C33.3768 14.3333 33.7801 13.8053 33.7801 13.38V11.664H35.6061V13.38C35.6061 13.82 36.0168 14.348 36.8381 14.964L41.2381 18.286L40.2261 19.65L35.8261 16.328C35.3861 15.9907 35.0121 15.646 34.7041 15.294C34.3668 15.69 33.9928 16.0347 33.5821 16.328L29.1821 19.65L28.1701 18.286ZM43.604 9.508C45.0853 9.21467 46.31 8.86267 47.278 8.452C48.246 8.04133 49.0013 7.45467 49.544 6.692H44.044V5.152H50.27C50.4606 4.536 50.556 3.80267 50.556 2.952H44.044V1.39H52.294V2.952C52.294 4.756 51.92 6.21533 51.172 7.33C50.4386 8.44467 49.4706 9.288 48.268 9.86C47.0653 10.432 45.6206 10.8793 43.934 11.202L43.604 9.508ZM47.058 12.28H59.114V19.408H47.058V12.28ZM57.222 17.868V13.798H48.906V17.868H57.222ZM53.46 5.394H57.2V0.289999H59.114V11.268H57.2V6.956H53.46V5.394ZM77.2978 0.289999V18.99H75.4718V0.289999H77.2978ZM73.4478 0.708V18.022H71.6658V8.43H69.8618C69.7005 9.75 69.2092 10.8133 68.3878 11.62C67.5812 12.4267 66.5838 12.83 65.3958 12.83C64.5305 12.83 63.7532 12.6027 63.0638 12.148C62.3745 11.6933 61.8392 11.0627 61.4578 10.256C61.0765 9.44933 60.8858 8.53267 60.8858 7.506C60.8858 6.46467 61.0765 5.54067 61.4578 4.734C61.8392 3.91267 62.3745 3.27467 63.0638 2.82C63.7532 2.36533 64.5305 2.138 65.3958 2.138C66.2172 2.138 66.9505 2.336 67.5958 2.732C68.2558 3.128 68.7838 3.68533 69.1798 4.404C69.5905 5.12267 69.8325 5.944 69.9058 6.868H71.6658V0.708H73.4478ZM65.3958 11.136C66.2172 11.136 66.8845 10.7987 67.3978 10.124C67.9112 9.44933 68.1678 8.57667 68.1678 7.506C68.1678 6.42067 67.9038 5.54067 67.3758 4.866C66.8625 4.17667 66.2025 3.832 65.3958 3.832C64.5892 3.832 63.9292 4.17667 63.4158 4.866C62.9172 5.54067 62.6678 6.42067 62.6678 7.506C62.6678 8.57667 62.9172 9.44933 63.4158 10.124C63.9292 10.7987 64.5892 11.136 65.3958 11.136ZM92.5337 6.802V0.267999H94.4037V19.034H92.5337V8.364H87.9357V6.802H92.5337ZM78.1897 13.116L81.7977 8.298C82.2084 7.75533 82.487 7.24933 82.6337 6.78C82.7804 6.296 82.8537 5.77533 82.8537 5.218V1.588H84.6797V5.218C84.6797 5.76067 84.753 6.274 84.8997 6.758C85.061 7.242 85.347 7.75533 85.7577 8.298L89.3657 13.116L87.9577 14.172L84.3497 9.354C84.0857 8.98733 83.895 8.694 83.7777 8.474C83.6604 8.694 83.4697 8.98733 83.2057 9.354L79.5977 14.172L78.1897 13.116Z" fill="#555555"/>
</svg>
