<svg width="222" height="26" viewBox="0 0 222 26" fill="none" xmlns="http://www.w3.org/2000/svg">
<path d="M7.76471 22.75C7.23088 22.75 6.7739 22.5591 6.39375 22.1772C6.0136 21.7953 5.82353 21.3362 5.82353 20.8H9.70588C9.70588 21.3362 9.51581 21.7953 9.13566 22.1772C8.75552 22.5591 8.29853 22.75 7.76471 22.75ZM0.970588 19.825C0.695588 19.825 0.465074 19.7316 0.279044 19.5447C0.0930147 19.3578 0 19.1262 0 18.85C0 18.5737 0.0930147 18.3422 0.279044 18.1553C0.465074 17.9684 0.695588 17.875 0.970588 17.875H1.94118V11.05C1.94118 9.70125 2.34559 8.50281 3.15441 7.45469C3.96324 6.40656 5.01471 5.72 6.30882 5.395V4.7125C6.30882 4.30625 6.45037 3.96094 6.73346 3.67656C7.01654 3.39219 7.36029 3.25 7.76471 3.25C8.16912 3.25 8.51287 3.39219 8.79596 3.67656C9.07904 3.96094 9.22059 4.30625 9.22059 4.7125V5.02937C9.05882 5.35437 8.9375 5.69562 8.85662 6.05312C8.77574 6.41062 8.73529 6.77625 8.73529 7.15C8.73529 8.49875 9.20846 9.64844 10.1548 10.5991C11.1011 11.5497 12.2456 12.025 13.5882 12.025V17.875H14.5588C14.8338 17.875 15.0643 17.9684 15.2504 18.1553C15.4364 18.3422 15.5294 18.5737 15.5294 18.85C15.5294 19.1262 15.4364 19.3578 15.2504 19.5447C15.0643 19.7316 14.8338 19.825 14.5588 19.825H0.970588ZM13.5882 10.075C12.7794 10.075 12.0919 9.79062 11.5257 9.22187C10.9596 8.65312 10.6765 7.9625 10.6765 7.15C10.6765 6.3375 10.9596 5.64687 11.5257 5.07812C12.0919 4.50937 12.7794 4.225 13.5882 4.225C14.3971 4.225 15.0846 4.50937 15.6507 5.07812C16.2169 5.64687 16.5 6.3375 16.5 7.15C16.5 7.9625 16.2169 8.65312 15.6507 9.22187C15.0846 9.79062 14.3971 10.075 13.5882 10.075Z" fill="white"/>
<path d="M27.34 20.5V5.9H30.42L36.74 15.84V5.9H39.46V20.5H36.56L30.06 10.24V20.5H27.34ZM46.8886 20.74C43.2086 20.74 40.7086 18.06 40.7086 14.68C40.7086 11.26 43.3686 8.56 46.7886 8.56C50.2686 8.56 52.8086 11.12 52.8086 14.58V15.6H43.2886C43.6686 17.26 44.9686 18.36 46.8886 18.36C48.4086 18.36 49.5686 17.56 50.1286 16.3L52.3486 17.58C51.3286 19.48 49.5286 20.74 46.8886 20.74ZM46.7886 10.94C45.1686 10.94 43.9086 11.9 43.4286 13.34H50.0686C49.6686 11.76 48.4686 10.94 46.7886 10.94ZM56.5998 20.5L52.6998 8.8H55.4598L58.0398 16.86L60.9798 8.8H63.6598L66.5398 16.88L69.2198 8.8H71.9598L67.8598 20.5H65.2598L62.2998 12.4L59.2598 20.5H56.5998ZM85.1645 20.7C80.6045 20.7 77.5845 17.26 77.5845 13.2C77.5845 9.04 80.7245 5.7 85.0445 5.7C88.0645 5.7 90.4445 7.24 91.6845 9.44L89.2845 10.88C88.3645 9.18 86.9645 8.34 85.0645 8.34C82.3445 8.34 80.2845 10.56 80.2845 13.2C80.2845 15.9 82.3245 18.06 85.1645 18.06C87.3845 18.06 88.8445 16.82 89.3845 14.9H84.7245V12.3H92.3045V13.38C92.3045 17.32 89.5445 20.7 85.1645 20.7ZM99.1053 20.74C96.2853 20.74 93.3453 18.5 93.3453 14.66C93.3453 10.78 96.1853 8.56 99.1453 8.56C100.685 8.56 102.045 9.18 102.905 10.2V8.8H105.605V20.5H102.905V18.98C102.045 20.08 100.645 20.74 99.1053 20.74ZM99.5453 18.26C101.565 18.26 103.045 16.64 103.045 14.62C103.045 12.62 101.565 11.02 99.5453 11.02C97.5453 11.02 96.0053 12.6 96.0053 14.62C96.0053 16.66 97.5453 18.26 99.5453 18.26ZM107.143 20.5V5.7H109.863V20.5H107.143ZM116.801 20.74C113.981 20.74 111.041 18.5 111.041 14.66C111.041 10.78 113.881 8.56 116.841 8.56C118.381 8.56 119.741 9.18 120.601 10.2V8.8H123.301V20.5H120.601V18.98C119.741 20.08 118.341 20.74 116.801 20.74ZM117.241 18.26C119.261 18.26 120.741 16.64 120.741 14.62C120.741 12.62 119.261 11.02 117.241 11.02C115.241 11.02 113.701 12.6 113.701 14.62C113.701 16.66 115.241 18.26 117.241 18.26ZM123.963 20.5L128.363 14.54L124.123 8.8H127.423L130.083 12.52L132.723 8.8H135.923L131.723 14.58L136.203 20.5H132.903L130.043 16.6L127.263 20.5H123.963ZM138.608 25.9L141.068 19.92L136.268 8.8H139.148L142.408 16.68L145.488 8.8H148.328L141.348 25.9H138.608ZM167.121 4.32V7.88H169.581V9.68H167.121V13.26H164.921V4.32H167.121ZM167.121 14.02V18.7H157.781V20.16H167.701V21.9H155.601V17.08H164.961V15.72H155.561V14.02H167.121ZM158.081 4.86C158.974 4.86 159.774 5.03333 160.481 5.38C161.201 5.72667 161.761 6.20667 162.161 6.82C162.574 7.42 162.781 8.10667 162.781 8.88C162.781 9.65333 162.574 10.3467 162.161 10.96C161.761 11.56 161.201 12.0333 160.481 12.38C159.774 12.7133 158.974 12.88 158.081 12.88C157.201 12.88 156.401 12.7133 155.681 12.38C154.974 12.0333 154.414 11.56 154.001 10.96C153.601 10.3467 153.401 9.65333 153.401 8.88C153.401 8.10667 153.601 7.42 154.001 6.82C154.414 6.20667 154.974 5.72667 155.681 5.38C156.401 5.03333 157.201 4.86 158.081 4.86ZM158.081 6.64C157.334 6.64 156.721 6.84667 156.241 7.26C155.761 7.67333 155.521 8.21333 155.521 8.88C155.521 9.54667 155.761 10.0867 156.241 10.5C156.721 10.9133 157.334 11.12 158.081 11.12C158.841 11.12 159.454 10.92 159.921 10.52C160.401 10.1067 160.641 9.56 160.641 8.88C160.641 8.2 160.401 7.66 159.921 7.26C159.454 6.84667 158.841 6.64 158.081 6.64ZM184.022 4.32V8.64H186.502V10.46H184.022V14.9H181.822V4.32H184.022ZM184.022 15.72V21.9H172.582V15.72H184.022ZM174.742 17.42V20.16H181.882V17.42H174.742ZM178.842 5.24V10.44H172.962V12.38C174.562 12.3667 175.922 12.3267 177.042 12.26C178.162 12.18 179.288 12.04 180.422 11.84L180.622 13.58C179.382 13.8067 178.135 13.96 176.882 14.04C175.642 14.12 174.095 14.16 172.242 14.16H170.782V8.78H176.662V7H170.742V5.24H178.842ZM200.902 4.32V8.44H203.362V10.26H200.902V14.7H198.702V4.32H200.902ZM189.762 5.32V7.76H193.842V5.32H196.002V13.74H187.582V5.32H189.762ZM189.762 11.98H193.842V9.46H189.762V11.98ZM201.022 15.56V17.32H191.702V20.12H201.362V21.9H189.522V15.56H201.022ZM218.563 4.3V22.1H216.363V4.3H218.563ZM213.303 6.16C213.303 9.01333 212.669 11.5067 211.403 13.64C210.136 15.7733 208.029 17.5533 205.083 18.98L203.943 17.24C206.209 16.1467 207.909 14.84 209.043 13.32C210.176 11.8 210.843 10.0067 211.043 7.94H204.823V6.16H213.303Z" fill="white"/>
</svg>
