<svg width="262" height="41" viewBox="0 0 262 41" fill="none" xmlns="http://www.w3.org/2000/svg">
<path d="M21.168 0.425998H24.908V29.768H21.168V0.425998ZM19.094 24.124H0.428V21.132H7.976V16.746H11.716V21.132H19.094V24.124ZM0.802 15.182L6.548 9.708C7.04667 9.25467 7.398 8.83533 7.602 8.45C7.82867 8.042 7.96467 7.634 8.01 7.226H1.312V4.166H8.078V0.867999H11.716V4.166H18.516V7.226H11.784C11.8973 8.13267 12.3733 8.96 13.212 9.708L18.992 15.182L16.612 17.698L10.9 12.224C10.628 11.9747 10.288 11.6233 9.88 11.17C9.56267 11.578 9.22267 11.9293 8.86 12.224L3.182 17.698L0.802 15.182ZM37.534 22.764V13.448H41.24V22.764H54.84V25.824H27.47V22.764H37.534ZM50.25 18.82H46.476V6.002H30.938V2.942H50.25V18.82ZM84.9238 0.459998V7.906H89.0378V11H84.9238V18.14H81.1498V0.459998H84.9238ZM78.3618 15.896H62.7218V2.024H76.6618V5.084H66.4278V12.836H78.3618V15.896ZM75.9138 31.366C74.4178 31.366 73.0805 31.0827 71.9018 30.516C70.7458 29.972 69.8392 29.2013 69.1818 28.204C68.5472 27.2067 68.2298 26.0847 68.2298 24.838C68.2298 23.5687 68.5472 22.4353 69.1818 21.438C69.8392 20.4407 70.7458 19.67 71.9018 19.126C73.0805 18.5593 74.4178 18.276 75.9138 18.276C77.4098 18.276 78.7472 18.5593 79.9258 19.126C81.1045 19.67 82.0225 20.4407 82.6798 21.438C83.3372 22.4353 83.6658 23.5687 83.6658 24.838C83.6658 26.0847 83.3372 27.2067 82.6798 28.204C82.0225 29.2013 81.1045 29.972 79.9258 30.516C78.7472 31.0827 77.4098 31.366 75.9138 31.366ZM75.9138 28.34C77.1378 28.34 78.1238 28.0227 78.8718 27.388C79.6198 26.7307 79.9938 25.8807 79.9938 24.838C79.9938 23.7953 79.6198 22.9567 78.8718 22.322C78.1238 21.6647 77.1378 21.336 75.9138 21.336C74.7125 21.336 73.7378 21.6647 72.9898 22.322C72.2418 22.9567 71.8678 23.7953 71.8678 24.838C71.8678 25.8807 72.2418 26.7307 72.9898 27.388C73.7378 28.0227 74.7125 28.34 75.9138 28.34ZM110.062 8.008V0.493999H113.836V17.936H110.062V11.034H104.962V8.008H110.062ZM113.836 19.33V30.38H94.8638V19.33H113.836ZM98.5358 22.322V27.422H110.164V22.322H98.5358ZM89.2198 14.74L94.4218 9.47C94.9205 8.926 95.2605 8.45 95.4418 8.042C95.6458 7.634 95.7478 7.226 95.7478 6.818V6.274H89.8318V3.214H95.7818V0.459998H99.3178V3.214H105.2V6.274H99.2498V6.818C99.2498 7.226 99.3405 7.634 99.5218 8.042C99.7258 8.45 100.077 8.926 100.576 9.47L105.778 14.74L103.33 17.188L98.1278 11.85L97.5158 11.17L96.8698 11.85L91.6678 17.188L89.2198 14.74ZM135.37 12.564V4.54H119.662V1.48H139.144V12.564H143.666V15.556H116.262V12.564H135.37ZM139.518 19.058V30.414H120.172V19.058H139.518ZM123.844 21.982V27.422H135.846V21.982H123.844ZM154.098 7.94C154.687 7.94 155.163 8.13267 155.526 8.518C155.911 8.88067 156.104 9.35667 156.104 9.946C156.104 10.5353 155.911 11.0227 155.526 11.408C155.163 11.7933 154.687 11.986 154.098 11.986C153.508 11.986 153.021 11.7933 152.636 11.408C152.273 11.0227 152.092 10.5353 152.092 9.946C152.092 9.35667 152.284 8.88067 152.67 8.518C153.055 8.13267 153.531 7.94 154.098 7.94ZM154.098 19.364C154.687 19.364 155.163 19.5567 155.526 19.942C155.911 20.3047 156.104 20.7807 156.104 21.37C156.104 21.9593 155.911 22.4467 155.526 22.832C155.163 23.2173 154.687 23.41 154.098 23.41C153.508 23.41 153.021 23.2173 152.636 22.832C152.273 22.4467 152.092 21.9593 152.092 21.37C152.092 20.7807 152.284 20.3047 152.67 19.942C153.055 19.5567 153.531 19.364 154.098 19.364ZM165.771 24.94C166.315 24.4187 166.881 23.8973 167.471 23.376C168.06 22.832 168.649 22.2993 169.239 21.778C171.075 20.146 172.537 18.7973 173.625 17.732C174.713 16.644 175.631 15.5333 176.379 14.4C177.127 13.2667 177.501 12.19 177.501 11.17C177.501 9.76467 177.093 8.62 176.277 7.736C175.483 6.852 174.463 6.41 173.217 6.41C172.242 6.41 171.313 6.72733 170.429 7.362C169.567 7.99666 168.91 8.81267 168.457 9.81L165.295 8.416C165.975 6.852 167.051 5.58267 168.525 4.608C170.021 3.61067 171.585 3.112 173.217 3.112C174.758 3.112 176.118 3.452 177.297 4.132C178.498 4.812 179.427 5.764 180.085 6.988C180.765 8.212 181.105 9.606 181.105 11.17C181.105 12.7113 180.64 14.2413 179.711 15.76C178.804 17.2787 177.705 18.6727 176.413 19.942C175.121 21.2113 173.455 22.7187 171.415 24.464L170.871 24.94H181.513V28.102H166.111L165.771 24.94ZM193.792 25.144C195.22 25.144 196.467 24.7587 197.532 23.988C198.598 23.2173 199.414 22.1293 199.98 20.724C200.547 19.296 200.83 17.63 200.83 15.726C200.83 13.7993 200.547 12.1333 199.98 10.728C199.414 9.3 198.598 8.20067 197.532 7.43C196.467 6.65933 195.22 6.274 193.792 6.274C192.364 6.274 191.118 6.65933 190.052 7.43C188.987 8.20067 188.16 9.3 187.57 10.728C187.004 12.1333 186.72 13.7993 186.72 15.726C186.72 17.63 187.004 19.296 187.57 20.724C188.16 22.1293 188.987 23.2173 190.052 23.988C191.118 24.7587 192.364 25.144 193.792 25.144ZM193.792 28.34C191.616 28.34 189.724 27.83 188.114 26.81C186.505 25.7673 185.27 24.3053 184.408 22.424C183.547 20.52 183.116 18.2873 183.116 15.726C183.116 13.1647 183.547 10.932 184.408 9.028C185.27 7.124 186.505 5.662 188.114 4.642C189.724 3.622 191.616 3.112 193.792 3.112C195.946 3.112 197.827 3.622 199.436 4.642C201.046 5.662 202.281 7.124 203.142 9.028C204.004 10.932 204.434 13.1647 204.434 15.726C204.434 18.2873 204.004 20.52 203.142 22.424C202.281 24.3053 201.046 25.7673 199.436 26.81C197.827 27.83 195.946 28.34 193.792 28.34ZM206.327 2.5H220.539V16.678H206.327V2.5ZM213.807 19.942V27.252H229.719V30.278H209.999V19.942H213.807ZM216.867 13.686V5.492H209.999V13.686H216.867ZM225.231 0.459998H228.971V9.368H233.153V12.462H228.971V21.302H225.231V0.459998ZM242.345 12.326C240.917 12.326 239.647 12.088 238.537 11.612C237.449 11.136 236.587 10.456 235.953 9.572C235.341 8.688 235.035 7.65667 235.035 6.478C235.035 5.29933 235.341 4.268 235.953 3.384C236.587 2.5 237.449 1.82 238.537 1.344C239.647 0.867998 240.917 0.629998 242.345 0.629998C243.773 0.629998 245.031 0.867998 246.119 1.344C247.229 1.82 248.091 2.5 248.703 3.384C249.337 4.268 249.655 5.29933 249.655 6.478C249.655 7.65667 249.337 8.688 248.703 9.572C248.091 10.456 247.229 11.136 246.119 11.612C245.031 12.088 243.773 12.326 242.345 12.326ZM240.781 21.642V16.644H233.335V13.652H252.273V16.644H244.521V22.152H241.325V27.15H258.121V30.142H237.619V21.642H240.781ZM248.295 18.446H254.245V0.459998H257.985V23.75H254.245V21.03H248.295V18.446ZM242.345 9.334C243.523 9.334 244.453 9.08467 245.133 8.586C245.835 8.06467 246.187 7.362 246.187 6.478C246.187 5.594 245.835 4.90267 245.133 4.404C244.453 3.90533 243.523 3.656 242.345 3.656C241.189 3.656 240.259 3.90533 239.557 4.404C238.854 4.90267 238.503 5.594 238.503 6.478C238.503 7.362 238.854 8.06467 239.557 8.586C240.259 9.08467 241.189 9.334 242.345 9.334Z" fill="#FF0090"/>
<path d="M163.595 39.3333C163.094 39.3333 162.688 39.7393 162.688 40.24C162.688 40.7407 163.094 41.1467 163.595 41.1467V39.3333ZM163.595 41.1467C165.233 41.1467 166.071 40.1461 166.657 39.477C167.261 38.7861 167.613 38.4267 168.355 38.4267V36.6133C166.717 36.6133 165.878 37.6139 165.292 38.283C164.688 38.9739 164.337 39.3333 163.595 39.3333V41.1467Z" fill="#FF0090"/>
<path d="M168.355 38.4267C169.097 38.4267 169.448 38.7861 170.052 39.477C170.638 40.1461 171.477 41.1467 173.115 41.1467V39.3333C172.373 39.3333 172.021 38.9739 171.417 38.283C170.831 37.6139 169.992 36.6133 168.355 36.6133V38.4267Z" fill="#FF0090"/>
<path d="M173.115 41.1467C174.753 41.1467 175.591 40.1461 176.177 39.477C176.781 38.7861 177.133 38.4267 177.875 38.4267V36.6133C176.237 36.6133 175.398 37.6139 174.812 38.283C174.208 38.9739 173.857 39.3333 173.115 39.3333V41.1467Z" fill="#FF0090"/>
<path d="M177.875 38.4267C178.617 38.4267 178.968 38.7861 179.572 39.477C180.158 40.1461 180.997 41.1467 182.635 41.1467V39.3333C181.893 39.3333 181.541 38.9739 180.937 38.283C180.351 37.6139 179.513 36.6133 177.875 36.6133V38.4267Z" fill="#FF0090"/>
<path d="M182.635 41.1467C184.273 41.1467 185.111 40.1461 185.697 39.477C186.301 38.7861 186.653 38.4267 187.395 38.4267V36.6133C185.757 36.6133 184.918 37.6139 184.332 38.283C183.728 38.9739 183.377 39.3333 182.635 39.3333V41.1467Z" fill="#FF0090"/>
<path d="M187.395 38.4267C188.137 38.4267 188.488 38.7861 189.092 39.477C189.678 40.1461 190.517 41.1467 192.155 41.1467V39.3333C191.413 39.3333 191.061 38.9739 190.457 38.283C189.871 37.6139 189.033 36.6133 187.395 36.6133V38.4267Z" fill="#FF0090"/>
<path d="M192.155 41.1467C193.793 41.1467 194.631 40.1461 195.217 39.477C195.821 38.7861 196.173 38.4267 196.915 38.4267V36.6133C195.277 36.6133 194.438 37.6139 193.852 38.283C193.248 38.9739 192.897 39.3333 192.155 39.3333V41.1467Z" fill="#FF0090"/>
<path d="M196.915 38.4267C197.657 38.4267 198.008 38.7861 198.612 39.477C199.198 40.1461 200.037 41.1467 201.675 41.1467V39.3333C200.933 39.3333 200.581 38.9739 199.977 38.283C199.391 37.6139 198.553 36.6133 196.915 36.6133V38.4267Z" fill="#FF0090"/>
<path d="M201.675 41.1467C203.313 41.1467 204.152 40.1461 204.737 39.477C205.342 38.7861 205.693 38.4267 206.435 38.4267V36.6133C204.797 36.6133 203.958 37.6139 203.372 38.283C202.768 38.9739 202.417 39.3333 201.675 39.3333V41.1467Z" fill="#FF0090"/>
<path d="M206.435 38.4267C207.177 38.4267 207.528 38.7861 208.132 39.477C208.718 40.1461 209.557 41.1467 211.195 41.1467V39.3333C210.453 39.3333 210.102 38.9739 209.497 38.283C208.912 37.6139 208.073 36.6133 206.435 36.6133V38.4267Z" fill="#FF0090"/>
<path d="M211.195 41.1467C212.833 41.1467 213.672 40.1461 214.257 39.477C214.862 38.7861 215.213 38.4267 215.955 38.4267V36.6133C214.317 36.6133 213.478 37.6139 212.892 38.283C212.288 38.9739 211.937 39.3333 211.195 39.3333V41.1467Z" fill="#FF0090"/>
<path d="M215.955 38.4267C216.697 38.4267 217.048 38.7861 217.652 39.477C218.238 40.1461 219.077 41.1467 220.715 41.1467V39.3333C219.973 39.3333 219.622 38.9739 219.017 38.283C218.432 37.6139 217.593 36.6133 215.955 36.6133V38.4267Z" fill="#FF0090"/>
<path d="M220.715 41.1467C222.353 41.1467 223.192 40.1461 223.777 39.477C224.382 38.7861 224.733 38.4267 225.475 38.4267V36.6133C223.837 36.6133 222.998 37.6139 222.412 38.283C221.808 38.9739 221.457 39.3333 220.715 39.3333V41.1467Z" fill="#FF0090"/>
<path d="M225.475 38.4267C226.217 38.4267 226.568 38.7861 227.172 39.477C227.758 40.1461 228.597 41.1467 230.235 41.1467V39.3333C229.493 39.3333 229.142 38.9739 228.537 38.283C227.952 37.6139 227.113 36.6133 225.475 36.6133V38.4267Z" fill="#FF0090"/>
<path d="M230.235 41.1467C231.873 41.1467 232.712 40.1461 233.297 39.477C233.902 38.7861 234.253 38.4267 234.995 38.4267V36.6133C233.357 36.6133 232.518 37.6139 231.932 38.283C231.328 38.9739 230.977 39.3333 230.235 39.3333V41.1467Z" fill="#FF0090"/>
<path d="M234.995 38.4267C235.737 38.4267 236.088 38.7861 236.692 39.477C237.278 40.1461 238.117 41.1467 239.755 41.1467V39.3333C239.013 39.3333 238.662 38.9739 238.057 38.283C237.472 37.6139 236.633 36.6133 234.995 36.6133V38.4267Z" fill="#FF0090"/>
<path d="M239.755 41.1467C241.393 41.1467 242.232 40.1461 242.817 39.477C243.422 38.7861 243.773 38.4267 244.515 38.4267V36.6133C242.877 36.6133 242.038 37.6139 241.452 38.283C240.848 38.9739 240.497 39.3333 239.755 39.3333V41.1467Z" fill="#FF0090"/>
<path d="M244.515 38.4267C245.257 38.4267 245.608 38.7861 246.212 39.477C246.798 40.1461 247.637 41.1467 249.275 41.1467V39.3333C248.533 39.3333 248.182 38.9739 247.577 38.283C246.992 37.6139 246.153 36.6133 244.515 36.6133V38.4267Z" fill="#FF0090"/>
<path d="M249.275 41.1467C250.913 41.1467 251.752 40.1461 252.337 39.477C252.942 38.7861 253.293 38.4267 254.035 38.4267V36.6133C252.397 36.6133 251.558 37.6139 250.972 38.283C250.368 38.9739 250.017 39.3333 249.275 39.3333V41.1467Z" fill="#FF0090"/>
<path d="M258.795 41.1467C259.295 41.1467 259.701 40.7407 259.701 40.24C259.701 39.7393 259.295 39.3333 258.795 39.3333V41.1467ZM254.035 38.4267C254.777 38.4267 255.128 38.7861 255.732 39.477C256.318 40.1461 257.157 41.1467 258.795 41.1467V39.3333C258.053 39.3333 257.702 38.9739 257.097 38.283C256.512 37.6139 255.673 36.6133 254.035 36.6133V38.4267Z" fill="#FF0090"/>
</svg>
