<svg width="196" height="36" viewBox="0 0 196 36" fill="none" xmlns="http://www.w3.org/2000/svg">
<rect width="196" height="31" rx="15.5" fill="url(#paint0_linear_3160_5609)"/>
<rect width="196" height="31" rx="15.5" fill="#111111"/>
<path d="M20.56 15.848V15.044H17.632V10.58H24.916V11.588H18.94V12.296H24.664V13.28H18.94V14.036H24.988V15.044H21.88V15.848H26.044V16.892H16.396V15.848H20.56ZM21.22 17.504C22.396 17.504 23.304 17.652 23.944 17.948C24.584 18.236 24.904 18.664 24.904 19.232C24.904 19.792 24.584 20.22 23.944 20.516C23.304 20.812 22.396 20.96 21.22 20.96C20.036 20.96 19.124 20.812 18.484 20.516C17.844 20.22 17.524 19.792 17.524 19.232C17.524 18.664 17.844 18.236 18.484 17.948C19.124 17.652 20.036 17.504 21.22 17.504ZM21.22 18.464C19.644 18.464 18.856 18.72 18.856 19.232C18.856 19.736 19.644 19.988 21.22 19.988C22.796 19.988 23.584 19.736 23.584 19.232C23.584 18.72 22.796 18.464 21.22 18.464ZM35.1043 10.292V18.08H33.7843V10.292H35.1043ZM29.4163 17.348V19.7H35.4043V20.756H28.0963V17.348H29.4163ZM30.2323 10.868V11.936C30.2323 12.696 30.4523 13.392 30.8923 14.024C31.3403 14.656 31.9723 15.108 32.7883 15.38L32.1043 16.436C31.5123 16.22 31.0043 15.912 30.5803 15.512C30.1563 15.104 29.8243 14.62 29.5843 14.06C29.3443 14.66 29.0043 15.18 28.5643 15.62C28.1243 16.06 27.5963 16.392 26.9803 16.616L26.3083 15.572C27.1323 15.268 27.7683 14.784 28.2163 14.12C28.6723 13.448 28.9003 12.72 28.9003 11.936V10.868H30.2323ZM39.9766 11.156V12.836C39.9766 13.476 40.0766 14.104 40.2766 14.72C40.4846 15.336 40.7806 15.888 41.1646 16.376C41.5486 16.856 42.0086 17.228 42.5446 17.492L41.7406 18.536C41.1806 18.248 40.6966 17.84 40.2886 17.312C39.8806 16.784 39.5606 16.172 39.3286 15.476C39.0886 16.22 38.7526 16.876 38.3206 17.444C37.8886 18.012 37.3766 18.444 36.7846 18.74L35.9926 17.672C36.5446 17.408 37.0206 17.024 37.4206 16.52C37.8286 16.008 38.1366 15.432 38.3446 14.792C38.5606 14.152 38.6686 13.5 38.6686 12.836V11.156H39.9766ZM44.4886 10.292V14.48H46.1206V15.584H44.4886V20.972H43.1566V10.292H44.4886ZM51.9945 10.856V11.972C51.9945 12.676 52.2105 13.316 52.6425 13.892C53.0745 14.46 53.6825 14.872 54.4665 15.128L53.7825 16.148C53.2225 15.956 52.7345 15.672 52.3185 15.296C51.9105 14.92 51.5905 14.48 51.3585 13.976C51.1265 14.56 50.7945 15.064 50.3625 15.488C49.9385 15.912 49.4225 16.236 48.8145 16.46L48.1065 15.416C48.9385 15.128 49.5745 14.664 50.0145 14.024C50.4625 13.376 50.6865 12.656 50.6865 11.864V10.856H51.9945ZM56.5905 10.292V12.872H58.0785V13.964H56.5905V16.664H55.2705V10.292H56.5905ZM53.1465 16.928C54.2585 16.928 55.1305 17.108 55.7625 17.468C56.3945 17.82 56.7105 18.312 56.7105 18.944C56.7105 19.576 56.3945 20.068 55.7625 20.42C55.1305 20.78 54.2585 20.96 53.1465 20.96C52.0345 20.96 51.1585 20.78 50.5185 20.42C49.8865 20.068 49.5705 19.576 49.5705 18.944C49.5705 18.312 49.8865 17.82 50.5185 17.468C51.1585 17.108 52.0345 16.928 53.1465 16.928ZM53.1465 17.948C52.4185 17.948 51.8545 18.036 51.4545 18.212C51.0625 18.38 50.8665 18.624 50.8665 18.944C50.8665 19.264 51.0625 19.512 51.4545 19.688C51.8545 19.856 52.4185 19.94 53.1465 19.94C53.8745 19.94 54.4345 19.856 54.8265 19.688C55.2185 19.512 55.4145 19.264 55.4145 18.944C55.4145 18.624 55.2185 18.38 54.8265 18.212C54.4345 18.036 53.8745 17.948 53.1465 17.948ZM64.0428 11.084V11.708C64.0428 12.252 64.0268 12.764 63.9948 13.244C63.9628 13.724 63.8908 14.26 63.7787 14.852L62.4948 14.708C62.6548 13.9 62.7428 13.044 62.7588 12.14H58.6428V11.084H64.0428ZM61.3668 13.52V15.644C62.5988 15.588 63.6828 15.496 64.6188 15.368L64.7028 16.304C63.7188 16.488 62.6788 16.612 61.5828 16.676C60.4868 16.732 59.3388 16.76 58.1388 16.76L57.9948 15.704C58.8828 15.704 59.5748 15.696 60.0708 15.68V13.52H61.3668ZM66.5628 10.28V13.628H67.9428V14.708H66.5628V18.296H65.2428V10.28H66.5628ZM60.8988 17.576V19.7H66.9108V20.756H59.5908V17.576H60.8988ZM70.439 16.544V17.696H71.807V16.544H73.031V19.94C73.623 19.684 74.071 19.316 74.375 18.836C74.687 18.356 74.843 17.844 74.843 17.3V16.472H76.139V17.3C76.139 17.892 76.295 18.428 76.607 18.908C76.927 19.388 77.395 19.736 78.011 19.952L77.351 20.936C76.463 20.592 75.839 19.992 75.479 19.136C75.295 19.544 75.047 19.9 74.735 20.204C74.431 20.516 74.063 20.76 73.631 20.936L73.031 20.012V20.84H69.203V16.544H70.439ZM70.439 19.844H71.807V18.668H70.439V19.844ZM70.955 10.712C71.651 10.712 72.247 10.888 72.743 11.24C73.239 11.592 73.555 12.064 73.691 12.656H75.575V10.292H76.895V15.932H75.575V13.724H73.703C73.575 14.316 73.259 14.796 72.755 15.164C72.259 15.524 71.659 15.704 70.955 15.704C70.427 15.704 69.947 15.6 69.515 15.392C69.091 15.176 68.759 14.88 68.519 14.504C68.279 14.12 68.159 13.688 68.159 13.208C68.159 12.72 68.279 12.288 68.519 11.912C68.759 11.536 69.091 11.244 69.515 11.036C69.947 10.82 70.427 10.712 70.955 10.712ZM70.955 11.804C70.507 11.804 70.139 11.932 69.851 12.188C69.571 12.444 69.431 12.784 69.431 13.208C69.431 13.632 69.571 13.976 69.851 14.24C70.139 14.496 70.507 14.624 70.955 14.624C71.403 14.624 71.771 14.496 72.059 14.24C72.347 13.976 72.491 13.632 72.491 13.208C72.491 12.784 72.347 12.444 72.059 12.188C71.771 11.932 71.403 11.804 70.955 11.804ZM86.7113 10.268V20.984H85.3793V10.268H86.7113ZM80.9993 11.048C81.5353 11.048 82.0113 11.204 82.4273 11.516C82.8513 11.82 83.1793 12.26 83.4113 12.836C83.6513 13.404 83.7713 14.068 83.7713 14.828C83.7713 15.588 83.6513 16.256 83.4113 16.832C83.1793 17.408 82.8513 17.852 82.4273 18.164C82.0113 18.468 81.5353 18.62 80.9993 18.62C80.4633 18.62 79.9833 18.468 79.5593 18.164C79.1433 17.852 78.8153 17.408 78.5753 16.832C78.3433 16.256 78.2273 15.588 78.2273 14.828C78.2273 14.068 78.3433 13.404 78.5753 12.836C78.8153 12.26 79.1433 11.82 79.5593 11.516C79.9833 11.204 80.4633 11.048 80.9993 11.048ZM80.9993 12.248C80.5513 12.248 80.1873 12.48 79.9073 12.944C79.6353 13.4 79.4993 14.028 79.4993 14.828C79.4993 15.636 79.6353 16.272 79.9073 16.736C80.1873 17.2 80.5513 17.432 80.9993 17.432C81.4473 17.432 81.8073 17.2 82.0793 16.736C82.3593 16.272 82.4993 15.636 82.4993 14.828C82.4993 14.028 82.3593 13.4 82.0793 12.944C81.8073 12.48 81.4473 12.248 80.9993 12.248Z" fill="white"/>
<path d="M106.329 15.5002C106.329 16.8846 105.909 18.2379 105.121 19.3891C104.334 20.5402 103.215 21.4373 101.906 21.9671C100.597 22.4969 99.1565 22.6356 97.7668 22.3655C96.3771 22.0955 95.1005 21.4288 94.0985 20.4499C93.2654 19.6359 92.6506 18.6338 92.3085 17.5322C91.9665 16.4306 91.9078 15.2635 92.1376 14.1345C92.3675 13.0054 92.8788 11.9492 93.6262 11.0593C94.3737 10.1694 95.3342 9.47339 96.4227 9.03285C97.5112 8.59231 98.6942 8.42087 99.8667 8.53371C101.039 8.64655 102.165 9.04019 103.145 9.67975C104.124 10.3193 104.928 11.1851 105.483 12.2003C106.038 13.2156 106.329 14.349 106.329 15.5002ZM100.363 12.2102V15.7293L97.8552 12.2102H95.7972V18.7989H97.9644V15.2692L100.472 18.7901H102.537V12.2102H100.363ZM132.312 11.8445L130.313 16.295L128.051 11.8445H126.313L129.515 18.0191L128.195 20.9123H129.883L134 11.8532L132.312 11.8445ZM125.201 18.7265H123.549V18.0839C122.948 18.5987 122.173 18.8776 121.374 18.867C119.398 18.867 117.852 17.2869 117.852 15.2855C117.852 13.284 119.396 11.704 121.374 11.704C122.173 11.6928 122.948 11.9711 123.549 12.4853V11.8445H125.201V18.7265ZM123.743 15.2943C123.743 13.9969 122.816 13.012 121.588 13.012C120.359 13.012 119.432 13.9969 119.432 15.2943C119.432 16.5917 120.357 17.5765 121.588 17.5765C122.818 17.5765 123.743 16.5829 123.743 15.2943ZM109.68 20.9122H111.404V18.1419C111.994 18.6214 112.74 18.8786 113.507 18.867C115.483 18.867 117.031 17.2869 117.031 15.2855C117.031 13.284 115.485 11.704 113.507 11.704C112.706 11.69 111.929 11.9686 111.327 12.4853V11.8445H109.675L109.68 20.9122ZM113.303 13.0119C114.531 13.0119 115.458 13.9968 115.458 15.2942C115.458 16.5916 114.531 17.5765 113.303 17.5765C112.074 17.5765 111.147 16.5916 111.147 15.2942C111.147 13.9968 112.063 13.0119 113.303 13.0119Z" fill="#03E05A"/>
<path d="M139.932 20V11.564H141.54V20H139.932ZM138.276 12.98V11.564H141.42V12.98H138.276ZM142.73 21.428L143.582 19.844L144.074 19.712C144.018 19.816 143.954 19.904 143.882 19.976C143.81 20.048 143.726 20.084 143.63 20.084C143.43 20.084 143.242 19.996 143.066 19.82C142.89 19.644 142.802 19.424 142.802 19.16C142.802 18.872 142.898 18.628 143.09 18.428C143.282 18.228 143.522 18.128 143.81 18.128C144.074 18.128 144.306 18.228 144.506 18.428C144.706 18.628 144.806 18.872 144.806 19.16C144.806 19.272 144.782 19.408 144.734 19.568C144.686 19.72 144.598 19.916 144.47 20.156L143.546 21.86L142.73 21.428ZM148.776 20.12C148.112 20.12 147.512 19.94 146.976 19.58C146.44 19.22 146.012 18.712 145.692 18.056C145.38 17.4 145.224 16.636 145.224 15.764C145.224 14.892 145.38 14.132 145.692 13.484C146.004 12.836 146.424 12.332 146.952 11.972C147.488 11.612 148.084 11.432 148.74 11.432C149.412 11.432 150.012 11.612 150.54 11.972C151.076 12.332 151.5 12.84 151.812 13.496C152.124 14.144 152.28 14.908 152.28 15.788C152.28 16.66 152.124 17.424 151.812 18.08C151.5 18.728 151.08 19.232 150.552 19.592C150.024 19.944 149.432 20.12 148.776 20.12ZM148.752 18.644C149.136 18.644 149.468 18.536 149.748 18.32C150.028 18.104 150.244 17.784 150.396 17.36C150.556 16.936 150.636 16.408 150.636 15.776C150.636 15.144 150.556 14.616 150.396 14.192C150.244 13.768 150.024 13.452 149.736 13.244C149.456 13.028 149.124 12.92 148.74 12.92C148.364 12.92 148.036 13.028 147.756 13.244C147.476 13.452 147.256 13.768 147.096 14.192C146.944 14.608 146.868 15.132 146.868 15.764C146.868 16.404 146.944 16.936 147.096 17.36C147.256 17.784 147.476 18.104 147.756 18.32C148.036 18.536 148.368 18.644 148.752 18.644ZM156.338 20.12C155.674 20.12 155.074 19.94 154.538 19.58C154.002 19.22 153.574 18.712 153.254 18.056C152.942 17.4 152.786 16.636 152.786 15.764C152.786 14.892 152.942 14.132 153.254 13.484C153.566 12.836 153.986 12.332 154.514 11.972C155.05 11.612 155.646 11.432 156.302 11.432C156.974 11.432 157.574 11.612 158.102 11.972C158.638 12.332 159.062 12.84 159.374 13.496C159.686 14.144 159.842 14.908 159.842 15.788C159.842 16.66 159.686 17.424 159.374 18.08C159.062 18.728 158.642 19.232 158.114 19.592C157.586 19.944 156.994 20.12 156.338 20.12ZM156.314 18.644C156.698 18.644 157.03 18.536 157.31 18.32C157.59 18.104 157.806 17.784 157.958 17.36C158.118 16.936 158.198 16.408 158.198 15.776C158.198 15.144 158.118 14.616 157.958 14.192C157.806 13.768 157.586 13.452 157.298 13.244C157.018 13.028 156.686 12.92 156.302 12.92C155.926 12.92 155.598 13.028 155.318 13.244C155.038 13.452 154.818 13.768 154.658 14.192C154.506 14.608 154.43 15.132 154.43 15.764C154.43 16.404 154.506 16.936 154.658 17.36C154.818 17.784 155.038 18.104 155.318 18.32C155.598 18.536 155.93 18.644 156.314 18.644ZM163.899 20.12C163.235 20.12 162.635 19.94 162.099 19.58C161.563 19.22 161.135 18.712 160.815 18.056C160.503 17.4 160.347 16.636 160.347 15.764C160.347 14.892 160.503 14.132 160.815 13.484C161.127 12.836 161.547 12.332 162.075 11.972C162.611 11.612 163.207 11.432 163.863 11.432C164.535 11.432 165.135 11.612 165.663 11.972C166.199 12.332 166.623 12.84 166.935 13.496C167.247 14.144 167.403 14.908 167.403 15.788C167.403 16.66 167.247 17.424 166.935 18.08C166.623 18.728 166.203 19.232 165.675 19.592C165.147 19.944 164.555 20.12 163.899 20.12ZM163.875 18.644C164.259 18.644 164.591 18.536 164.871 18.32C165.151 18.104 165.367 17.784 165.519 17.36C165.679 16.936 165.759 16.408 165.759 15.776C165.759 15.144 165.679 14.616 165.519 14.192C165.367 13.768 165.147 13.452 164.859 13.244C164.579 13.028 164.247 12.92 163.863 12.92C163.487 12.92 163.159 13.028 162.879 13.244C162.599 13.452 162.379 13.768 162.219 14.192C162.067 14.608 161.991 15.132 161.991 15.764C161.991 16.404 162.067 16.936 162.219 17.36C162.379 17.784 162.599 18.104 162.879 18.32C163.159 18.536 163.491 18.644 163.875 18.644ZM169.541 16.868V15.536H171.497C171.753 15.536 171.985 15.484 172.193 15.38C172.401 15.276 172.565 15.128 172.685 14.936C172.805 14.736 172.865 14.496 172.865 14.216C172.865 13.944 172.805 13.708 172.685 13.508C172.565 13.308 172.401 13.156 172.193 13.052C171.985 12.948 171.753 12.896 171.497 12.896H169.541V11.564H171.665C172.201 11.564 172.681 11.672 173.105 11.888C173.537 12.104 173.877 12.412 174.125 12.812C174.373 13.204 174.497 13.672 174.497 14.216C174.497 14.76 174.373 15.232 174.125 15.632C173.877 16.024 173.537 16.328 173.105 16.544C172.681 16.76 172.201 16.868 171.665 16.868H169.541ZM168.341 20V11.564H169.973V20H168.341ZM177.293 17.06L177.053 11.324H178.733L178.493 17.06H177.293ZM177.893 20.12C177.605 20.12 177.369 20.024 177.185 19.832C177.001 19.64 176.909 19.404 176.909 19.124C176.909 18.844 177.001 18.608 177.185 18.416C177.369 18.224 177.605 18.128 177.893 18.128C178.181 18.128 178.417 18.224 178.601 18.416C178.785 18.608 178.877 18.844 178.877 19.124C178.877 19.404 178.785 19.64 178.601 19.832C178.417 20.024 178.181 20.12 177.893 20.12Z" fill="#03E05A"/>
<path d="M97.9998 36L94.5357 30L101.464 30L97.9998 36Z" fill="#111111"/>
<defs>
<linearGradient id="paint0_linear_3160_5609" x1="0" y1="15.5" x2="196" y2="15.5" gradientUnits="userSpaceOnUse">
<stop stop-color="#68DB55"/>
<stop offset="1" stop-color="#4299E0"/>
</linearGradient>
</defs>
</svg>
