<svg width="299" height="46" viewBox="0 0 299 46" fill="none" xmlns="http://www.w3.org/2000/svg">
<path d="M22.668 5.426H26.408V34.768H22.668V5.426ZM20.594 29.124H1.928V26.132H9.476V21.746H13.216V26.132H20.594V29.124ZM2.302 20.182L8.048 14.708C8.54667 14.2547 8.898 13.8353 9.102 13.45C9.32867 13.042 9.46467 12.634 9.51 12.226H2.812V9.166H9.578V5.868H13.216V9.166H20.016V12.226H13.284C13.3973 13.1327 13.8733 13.96 14.712 14.708L20.492 20.182L18.112 22.698L12.4 17.224C12.128 16.9747 11.788 16.6233 11.38 16.17C11.0627 16.578 10.7227 16.9293 10.36 17.224L4.682 22.698L2.302 20.182ZM54.81 5.46V34.7H51.24V20.352H47.942V33.204H44.474V6.072H47.942V17.292H51.24V5.46H54.81ZM42.332 26.948H30.228V8.078H41.652V11.138H33.968V23.854H42.332V26.948ZM86.4238 5.46V12.906H90.5378V16H86.4238V23.14H82.6498V5.46H86.4238ZM79.8618 20.896H64.2218V7.024H78.1618V10.084H67.9278V17.836H79.8618V20.896ZM77.4138 36.366C75.9178 36.366 74.5805 36.0827 73.4018 35.516C72.2458 34.972 71.3392 34.2013 70.6818 33.204C70.0472 32.2067 69.7298 31.0847 69.7298 29.838C69.7298 28.5687 70.0472 27.4353 70.6818 26.438C71.3392 25.4407 72.2458 24.67 73.4018 24.126C74.5805 23.5593 75.9178 23.276 77.4138 23.276C78.9098 23.276 80.2472 23.5593 81.4258 24.126C82.6045 24.67 83.5225 25.4407 84.1798 26.438C84.8372 27.4353 85.1658 28.5687 85.1658 29.838C85.1658 31.0847 84.8372 32.2067 84.1798 33.204C83.5225 34.2013 82.6045 34.972 81.4258 35.516C80.2472 36.0827 78.9098 36.366 77.4138 36.366ZM77.4138 33.34C78.6378 33.34 79.6238 33.0227 80.3718 32.388C81.1198 31.7307 81.4938 30.8807 81.4938 29.838C81.4938 28.7953 81.1198 27.9567 80.3718 27.322C79.6238 26.6647 78.6378 26.336 77.4138 26.336C76.2125 26.336 75.2378 26.6647 74.4898 27.322C73.7418 27.9567 73.3678 28.7953 73.3678 29.838C73.3678 30.8807 73.7418 31.7307 74.4898 32.388C75.2378 33.0227 76.2125 33.34 77.4138 33.34ZM111.562 13.008V5.494H115.336V22.936H111.562V16.034H106.462V13.008H111.562ZM115.336 24.33V35.38H96.3638V24.33H115.336ZM100.036 27.322V32.422H111.664V27.322H100.036ZM90.7198 19.74L95.9218 14.47C96.4205 13.926 96.7605 13.45 96.9418 13.042C97.1458 12.634 97.2478 12.226 97.2478 11.818V11.274H91.3318V8.214H97.2818V5.46H100.818V8.214H106.7V11.274H100.75V11.818C100.75 12.226 100.84 12.634 101.022 13.042C101.226 13.45 101.577 13.926 102.076 14.47L107.278 19.74L104.83 22.188L99.6278 16.85L99.0158 16.17L98.3698 16.85L93.1678 22.188L90.7198 19.74ZM136.87 17.564V9.54H121.162V6.48H140.644V17.564H145.166V20.556H117.762V17.564H136.87ZM141.018 24.058V35.414H121.672V24.058H141.018ZM125.344 26.982V32.422H137.346V26.982H125.344ZM155.598 12.94C156.187 12.94 156.663 13.1327 157.026 13.518C157.411 13.8807 157.604 14.3567 157.604 14.946C157.604 15.5353 157.411 16.0227 157.026 16.408C156.663 16.7933 156.187 16.986 155.598 16.986C155.008 16.986 154.521 16.7933 154.136 16.408C153.773 16.0227 153.592 15.5353 153.592 14.946C153.592 14.3567 153.784 13.8807 154.17 13.518C154.555 13.1327 155.031 12.94 155.598 12.94ZM155.598 24.364C156.187 24.364 156.663 24.5567 157.026 24.942C157.411 25.3047 157.604 25.7807 157.604 26.37C157.604 26.9593 157.411 27.4467 157.026 27.832C156.663 28.2173 156.187 28.41 155.598 28.41C155.008 28.41 154.521 28.2173 154.136 27.832C153.773 27.4467 153.592 26.9593 153.592 26.37C153.592 25.7807 153.784 25.3047 154.17 24.942C154.555 24.5567 155.031 24.364 155.598 24.364ZM179.715 36.74C178.173 36.74 176.791 36.468 175.567 35.924C174.343 35.4027 173.391 34.666 172.711 33.714C172.031 32.762 171.691 31.6967 171.691 30.518C171.691 29.294 172.031 28.2173 172.711 27.288C173.391 26.3587 174.331 25.6447 175.533 25.146C176.757 24.6247 178.151 24.364 179.715 24.364C181.279 24.364 182.673 24.6247 183.897 25.146C185.121 25.6447 186.073 26.3587 186.753 27.288C187.433 28.2173 187.773 29.294 187.773 30.518C187.773 31.6967 187.421 32.762 186.719 33.714C186.039 34.666 185.087 35.4027 183.863 35.924C182.661 36.468 181.279 36.74 179.715 36.74ZM179.715 33.748C181.007 33.748 182.061 33.4533 182.877 32.864C183.693 32.252 184.101 31.47 184.101 30.518C184.101 29.5887 183.693 28.8293 182.877 28.24C182.061 27.628 181.007 27.322 179.715 27.322C178.423 27.322 177.369 27.628 176.553 28.24C175.759 28.8293 175.363 29.5887 175.363 30.518C175.363 31.47 175.759 32.252 176.553 32.864C177.369 33.4533 178.423 33.748 179.715 33.748ZM166.013 20.046H177.811V17.088H181.551V20.046H193.349V23.038H166.013V20.046ZM169.039 15.694L176.349 12.158C177.165 11.7727 177.652 11.2853 177.811 10.696H169.957V7.636H177.913V5.086H181.551V7.636H189.507V10.696H181.653C181.811 11.2173 182.321 11.7047 183.183 12.158L190.425 15.694L188.997 18.618L181.687 15.082C180.893 14.6513 180.247 14.1867 179.749 13.688C179.182 14.2547 178.502 14.7193 177.709 15.082L170.467 18.618L169.039 15.694ZM211.43 26.71H200.788L200.448 23.582L210.478 8.044L213.47 9.88L204.664 23.582H211.43V16.544H215.034V23.582H218.162V26.71H215.034V33.102H211.43V26.71ZM230.441 30.144C231.869 30.144 233.116 29.7587 234.181 28.988C235.247 28.2173 236.063 27.1293 236.629 25.724C237.196 24.296 237.479 22.63 237.479 20.726C237.479 18.7993 237.196 17.1333 236.629 15.728C236.063 14.3 235.247 13.2007 234.181 12.43C233.116 11.6593 231.869 11.274 230.441 11.274C229.013 11.274 227.767 11.6593 226.701 12.43C225.636 13.2007 224.809 14.3 224.219 15.728C223.653 17.1333 223.369 18.7993 223.369 20.726C223.369 22.63 223.653 24.296 224.219 25.724C224.809 27.1293 225.636 28.2173 226.701 28.988C227.767 29.7587 229.013 30.144 230.441 30.144ZM230.441 33.34C228.265 33.34 226.373 32.83 224.763 31.81C223.154 30.7673 221.919 29.3053 221.057 27.424C220.196 25.52 219.765 23.2873 219.765 20.726C219.765 18.1647 220.196 15.932 221.057 14.028C221.919 12.124 223.154 10.662 224.763 9.642C226.373 8.622 228.265 8.112 230.441 8.112C232.595 8.112 234.476 8.622 236.085 9.642C237.695 10.662 238.93 12.124 239.791 14.028C240.653 15.932 241.083 18.1647 241.083 20.726C241.083 23.2873 240.653 25.52 239.791 27.424C238.93 29.3053 237.695 30.7673 236.085 31.81C234.476 32.83 232.595 33.34 230.441 33.34ZM242.976 7.5H257.188V21.678H242.976V7.5ZM250.456 24.942V32.252H266.368V35.278H246.648V24.942H250.456ZM253.516 18.686V10.492H246.648V18.686H253.516ZM261.88 5.46H265.62V14.368H269.802V17.462H265.62V26.302H261.88V5.46ZM278.993 17.326C277.565 17.326 276.296 17.088 275.185 16.612C274.097 16.136 273.236 15.456 272.601 14.572C271.989 13.688 271.683 12.6567 271.683 11.478C271.683 10.2993 271.989 9.268 272.601 8.384C273.236 7.5 274.097 6.82 275.185 6.344C276.296 5.868 277.565 5.63 278.993 5.63C280.421 5.63 281.679 5.868 282.767 6.344C283.878 6.82 284.739 7.5 285.351 8.384C285.986 9.268 286.303 10.2993 286.303 11.478C286.303 12.6567 285.986 13.688 285.351 14.572C284.739 15.456 283.878 16.136 282.767 16.612C281.679 17.088 280.421 17.326 278.993 17.326ZM277.429 26.642V21.644H269.983V18.652H288.921V21.644H281.169V27.152H277.973V32.15H294.769V35.142H274.267V26.642H277.429ZM284.943 23.446H290.893V5.46H294.633V28.75H290.893V26.03H284.943V23.446ZM278.993 14.334C280.172 14.334 281.101 14.0847 281.781 13.586C282.484 13.0647 282.835 12.362 282.835 11.478C282.835 10.594 282.484 9.90267 281.781 9.404C281.101 8.90533 280.172 8.656 278.993 8.656C277.837 8.656 276.908 8.90533 276.205 9.404C275.503 9.90267 275.151 10.594 275.151 11.478C275.151 12.362 275.503 13.0647 276.205 13.586C276.908 14.0847 277.837 14.334 278.993 14.334Z" fill="#FF0090"/>
<path d="M198.782 44.3333C198.282 44.3333 197.876 44.7393 197.876 45.24C197.876 45.7407 198.282 46.1467 198.782 46.1467V44.3333ZM198.782 46.1467C200.42 46.1467 201.259 45.1461 201.845 44.477C202.449 43.7861 202.8 43.4267 203.542 43.4267V41.6133C201.904 41.6133 201.066 42.6139 200.48 43.283C199.876 43.9739 199.524 44.3333 198.782 44.3333V46.1467Z" fill="#FF0090"/>
<path d="M203.542 43.4267C204.284 43.4267 204.636 43.7861 205.24 44.477C205.826 45.1461 206.664 46.1467 208.302 46.1467V44.3333C207.56 44.3333 207.209 43.9739 206.605 43.283C206.019 42.6139 205.18 41.6133 203.542 41.6133V43.4267Z" fill="#FF0090"/>
<path d="M208.302 46.1467C209.94 46.1467 210.779 45.1461 211.365 44.477C211.969 43.7861 212.32 43.4267 213.062 43.4267V41.6133C211.424 41.6133 210.586 42.6139 210 43.283C209.396 43.9739 209.044 44.3333 208.302 44.3333V46.1467Z" fill="#FF0090"/>
<path d="M213.062 43.4267C213.804 43.4267 214.156 43.7861 214.76 44.477C215.346 45.1461 216.184 46.1467 217.822 46.1467V44.3333C217.08 44.3333 216.729 43.9739 216.125 43.283C215.539 42.6139 214.7 41.6133 213.062 41.6133V43.4267Z" fill="#FF0090"/>
<path d="M217.822 46.1467C219.46 46.1467 220.299 45.1461 220.885 44.477C221.489 43.7861 221.84 43.4267 222.582 43.4267V41.6133C220.944 41.6133 220.106 42.6139 219.52 43.283C218.916 43.9739 218.564 44.3333 217.822 44.3333V46.1467Z" fill="#FF0090"/>
<path d="M222.582 43.4267C223.324 43.4267 223.676 43.7861 224.28 44.477C224.866 45.1461 225.704 46.1467 227.342 46.1467V44.3333C226.6 44.3333 226.249 43.9739 225.645 43.283C225.059 42.6139 224.22 41.6133 222.582 41.6133V43.4267Z" fill="#FF0090"/>
<path d="M227.342 46.1467C228.98 46.1467 229.819 45.1461 230.405 44.477C231.009 43.7861 231.36 43.4267 232.102 43.4267V41.6133C230.465 41.6133 229.626 42.6139 229.04 43.283C228.436 43.9739 228.085 44.3333 227.342 44.3333V46.1467Z" fill="#FF0090"/>
<path d="M232.102 43.4267C232.845 43.4267 233.196 43.7861 233.8 44.477C234.386 45.1461 235.225 46.1467 236.862 46.1467V44.3333C236.12 44.3333 235.769 43.9739 235.165 43.283C234.579 42.6139 233.74 41.6133 232.102 41.6133V43.4267Z" fill="#FF0090"/>
<path d="M236.862 46.1467C238.5 46.1467 239.339 45.1461 239.925 44.477C240.529 43.7861 240.88 43.4267 241.622 43.4267V41.6133C239.985 41.6133 239.146 42.6139 238.56 43.283C237.956 43.9739 237.605 44.3333 236.862 44.3333V46.1467Z" fill="#FF0090"/>
<path d="M241.622 43.4267C242.365 43.4267 242.716 43.7861 243.32 44.477C243.906 45.1461 244.745 46.1467 246.383 46.1467V44.3333C245.64 44.3333 245.289 43.9739 244.685 43.283C244.099 42.6139 243.26 41.6133 241.622 41.6133V43.4267Z" fill="#FF0090"/>
<path d="M246.383 46.1467C248.02 46.1467 248.859 45.1461 249.445 44.477C250.049 43.7861 250.4 43.4267 251.143 43.4267V41.6133C249.505 41.6133 248.666 42.6139 248.08 43.283C247.476 43.9739 247.125 44.3333 246.383 44.3333V46.1467Z" fill="#FF0090"/>
<path d="M251.143 43.4267C251.885 43.4267 252.236 43.7861 252.84 44.477C253.426 45.1461 254.265 46.1467 255.903 46.1467V44.3333C255.16 44.3333 254.809 43.9739 254.205 43.283C253.619 42.6139 252.78 41.6133 251.143 41.6133V43.4267Z" fill="#FF0090"/>
<path d="M255.903 46.1467C257.54 46.1467 258.379 45.1461 258.965 44.477C259.569 43.7861 259.921 43.4267 260.663 43.4267V41.6133C259.025 41.6133 258.186 42.6139 257.6 43.283C256.996 43.9739 256.645 44.3333 255.903 44.3333V46.1467Z" fill="#FF0090"/>
<path d="M260.663 43.4267C261.405 43.4267 261.756 43.7861 262.36 44.477C262.946 45.1461 263.785 46.1467 265.423 46.1467V44.3333C264.681 44.3333 264.329 43.9739 263.725 43.283C263.139 42.6139 262.301 41.6133 260.663 41.6133V43.4267Z" fill="#FF0090"/>
<path d="M265.423 46.1467C267.061 46.1467 267.899 45.1461 268.485 44.477C269.089 43.7861 269.441 43.4267 270.183 43.4267V41.6133C268.545 41.6133 267.706 42.6139 267.12 43.283C266.516 43.9739 266.165 44.3333 265.423 44.3333V46.1467Z" fill="#FF0090"/>
<path d="M270.183 43.4267C270.925 43.4267 271.276 43.7861 271.88 44.477C272.466 45.1461 273.305 46.1467 274.943 46.1467V44.3333C274.201 44.3333 273.849 43.9739 273.245 43.283C272.659 42.6139 271.821 41.6133 270.183 41.6133V43.4267Z" fill="#FF0090"/>
<path d="M274.943 46.1467C276.581 46.1467 277.419 45.1461 278.005 44.477C278.609 43.7861 278.961 43.4267 279.703 43.4267V41.6133C278.065 41.6133 277.226 42.6139 276.64 43.283C276.036 43.9739 275.685 44.3333 274.943 44.3333V46.1467Z" fill="#FF0090"/>
<path d="M279.703 43.4267C280.445 43.4267 280.796 43.7861 281.4 44.477C281.986 45.1461 282.825 46.1467 284.463 46.1467V44.3333C283.721 44.3333 283.369 43.9739 282.765 43.283C282.179 42.6139 281.341 41.6133 279.703 41.6133V43.4267Z" fill="#FF0090"/>
<path d="M284.463 46.1467C286.101 46.1467 286.939 45.1461 287.525 44.477C288.129 43.7861 288.481 43.4267 289.223 43.4267V41.6133C287.585 41.6133 286.746 42.6139 286.16 43.283C285.556 43.9739 285.205 44.3333 284.463 44.3333V46.1467Z" fill="#FF0090"/>
<path d="M289.223 43.4267C289.965 43.4267 290.316 43.7861 290.92 44.477C291.506 45.1461 292.345 46.1467 293.983 46.1467V44.3333C293.241 44.3333 292.89 43.9739 292.285 43.283C291.7 42.6139 290.861 41.6133 289.223 41.6133V43.4267Z" fill="#FF0090"/>
<path d="M293.983 46.1467C295.621 46.1467 296.46 45.1461 297.045 44.477C297.65 43.7861 298.001 43.4267 298.743 43.4267V41.6133C297.105 41.6133 296.266 42.6139 295.68 43.283C295.076 43.9739 294.725 44.3333 293.983 44.3333V46.1467ZM298.743 43.4267C299.243 43.4267 299.649 43.0207 299.649 42.52C299.649 42.0193 299.243 41.6133 298.743 41.6133V43.4267Z" fill="#FF0090"/>
</svg>
