<svg xmlns="http://www.w3.org/2000/svg" xmlns:xlink="http://www.w3.org/1999/xlink" width="30.201" height="41.893" viewBox="0 0 30.201 41.893">
  <defs>
    <clipPath id="clip-path">
      <rect id="사각형_349" data-name="사각형 349" width="30.201" height="41.893" transform="translate(0 0)" fill="none"/>
    </clipPath>
  </defs>
  <g id="그룹_423" data-name="그룹 423" transform="translate(0 0)" clip-path="url(#clip-path)">
    <path id="패스_6929" data-name="패스 6929" d="M29.2,12.209H23.736v2.873a.926.926,0,0,1-.028.221h2.44a.829.829,0,0,1,.829.83V43.773a.829.829,0,0,1-.829.829H5.408a.83.83,0,0,1-.83-.829V16.132a.83.83,0,0,1,.83-.83h2.44a.926.926,0,0,1-.028-.221V12.209H2.359A1.109,1.109,0,0,0,1.25,13.318V46.587A1.109,1.109,0,0,0,2.359,47.7H29.2a1.108,1.108,0,0,0,1.109-1.108V13.318A1.109,1.109,0,0,0,29.2,12.209" transform="translate(-0.677 -6.615)" fill="#4fcaff"/>
    <path id="패스_6930" data-name="패스 6930" d="M28.519,48.113H1.682A1.683,1.683,0,0,1,0,46.432V13.163a1.684,1.684,0,0,1,1.682-1.682H7.145v1.145H1.682a.537.537,0,0,0-.536.537V46.432a.536.536,0,0,0,.536.536H28.519a.537.537,0,0,0,.537-.536V13.163a.537.537,0,0,0-.537-.537H23.057V11.481h5.462A1.684,1.684,0,0,1,30.2,13.163V46.432a1.684,1.684,0,0,1-1.682,1.682" transform="translate(0 -6.221)" fill="#231815"/>
    <path id="패스_6931" data-name="패스 6931" d="M29.407,48.678H8.668a1.4,1.4,0,0,1-1.4-1.4V19.635a1.4,1.4,0,0,1,1.4-1.4h2.41v1.145H8.668a.257.257,0,0,0-.257.257v27.64a.257.257,0,0,0,.257.257H29.407a.258.258,0,0,0,.257-.257V19.635a.258.258,0,0,0-.257-.257H26.992V18.233h2.415a1.4,1.4,0,0,1,1.4,1.4v27.64a1.4,1.4,0,0,1-1.4,1.4" transform="translate(-3.937 -9.879)" fill="#231815"/>
    <path id="패스_6932" data-name="패스 6932" d="M29.873,10.233H15.867a1.529,1.529,0,0,1-1.528-1.528V5.029A1.53,1.53,0,0,1,15.867,3.5h2.969a4.074,4.074,0,0,1,8.067,0h2.969A1.529,1.529,0,0,1,31.4,5.029V8.706a1.529,1.529,0,0,1-1.528,1.528M15.867,4.646a.383.383,0,0,0-.382.383V8.706a.382.382,0,0,0,.382.382H29.873a.382.382,0,0,0,.382-.382V5.029a.383.383,0,0,0-.382-.383H25.8V4.074a2.928,2.928,0,1,0-5.856,0v.573Z" transform="translate(-7.769 0)" fill="#231815"/>
    <path id="패스_6933" data-name="패스 6933" d="M30.4,8.843a2.164,2.164,0,1,1,2.165-2.164A2.166,2.166,0,0,1,30.4,8.843m0-3.183a1.019,1.019,0,1,0,1.019,1.019A1.02,1.02,0,0,0,30.4,5.66" transform="translate(-15.298 -2.447)" fill="#231815"/>
    <path id="패스_6934" data-name="패스 6934" d="M18.287,33.853l-2.425-2.909a.573.573,0,0,1,.88-.733l1.344,1.612,1.89-3.478a.573.573,0,1,1,1.006.547Z" transform="translate(-8.522 -15.196)" fill="#f8b62d"/>
    <path id="패스_6935" data-name="패스 6935" d="M40.335,30.582h-6.6a.573.573,0,1,1,0-1.145h6.6a.573.573,0,1,1,0,1.145" transform="translate(-17.966 -15.95)" fill="#231815"/>
    <path id="패스_6936" data-name="패스 6936" d="M40.335,37.009h-6.6a.573.573,0,0,1,0-1.145h6.6a.573.573,0,0,1,0,1.145" transform="translate(-17.966 -19.432)" fill="#231815"/>
    <path id="패스_6937" data-name="패스 6937" d="M18.287,51.37l-2.425-2.909a.573.573,0,0,1,.88-.733l1.344,1.612,1.89-3.477a.573.573,0,0,1,1.006.547Z" transform="translate(-8.522 -24.687)" fill="#f8b62d"/>
    <path id="패스_6938" data-name="패스 6938" d="M40.335,48.1h-6.6a.573.573,0,0,1,0-1.145h6.6a.573.573,0,0,1,0,1.145" transform="translate(-17.966 -25.441)" fill="#231815"/>
    <path id="패스_6939" data-name="패스 6939" d="M40.335,54.526h-6.6a.573.573,0,0,1,0-1.145h6.6a.573.573,0,0,1,0,1.145" transform="translate(-17.966 -28.923)" fill="#231815"/>
    <path id="패스_6940" data-name="패스 6940" d="M18.287,68.174l-2.425-2.909a.573.573,0,0,1,.88-.734l1.344,1.612,1.89-3.478a.573.573,0,0,1,1.006.547Z" transform="translate(-8.522 -33.792)" fill="#f8b62d"/>
    <path id="패스_6941" data-name="패스 6941" d="M40.335,64.9h-6.6a.573.573,0,0,1,0-1.145h6.6a.573.573,0,0,1,0,1.145" transform="translate(-17.966 -34.546)" fill="#231815"/>
    <path id="패스_6942" data-name="패스 6942" d="M40.335,71.331h-6.6a.573.573,0,0,1,0-1.145h6.6a.573.573,0,0,1,0,1.145" transform="translate(-17.966 -38.028)" fill="#231815"/>
  </g>
</svg>
