<svg xmlns="http://www.w3.org/2000/svg" xmlns:xlink="http://www.w3.org/1999/xlink" width="39.527" height="33.01" viewBox="0 0 39.527 33.01">
  <defs>
    <clipPath id="clip-path">
      <rect id="사각형_350" data-name="사각형 350" width="39.527" height="33.01" fill="none"/>
    </clipPath>
  </defs>
  <g id="그룹_425" data-name="그룹 425" clip-path="url(#clip-path)">
    <path id="패스_6943" data-name="패스 6943" d="M43.428,5.374a.559.559,0,0,1-.559-.559V.833a.559.559,0,0,1,1.119,0V4.814a.56.56,0,0,1-.559.559" transform="translate(-23.685 -0.151)" fill="#231815"/>
    <path id="패스_6944" data-name="패스 6944" d="M20.03,23.619A8.071,8.071,0,1,0,25.737,37.4L20.03,31.69Z" transform="translate(-6.607 -13.049)" fill="#4fcaff"/>
    <path id="패스_6945" data-name="패스 6945" d="M35.7,25.982A8.051,8.051,0,0,0,30,23.619V31.69Z" transform="translate(-16.573 -13.049)" fill="#f8d340"/>
    <path id="패스_6946" data-name="패스 6946" d="M35.7,28.9,30,34.607,35.7,40.314a8.072,8.072,0,0,0,0-11.414" transform="translate(-16.573 -15.967)" fill="#036eb8"/>
    <path id="패스_6947" data-name="패스 6947" d="M39.664,38.8H2.768V14.118h36.9ZM3.887,37.679H38.545V15.237H3.887Z" transform="translate(-1.529 -7.8)" fill="#231815"/>
    <path id="패스_6948" data-name="패스 6948" d="M38.5,12.578H1.023A1.025,1.025,0,0,1,0,11.555V10.47A1.025,1.025,0,0,1,1.023,9.446H38.5a1.026,1.026,0,0,1,1.024,1.024v1.085A1.025,1.025,0,0,1,38.5,12.578M1.119,11.46h37.29v-.895H1.119Z" transform="translate(0 -5.219)" fill="#231815"/>
    <path id="패스_6949" data-name="패스 6949" d="M38.5,69.9H1.023A1.025,1.025,0,0,1,0,68.875V67.791a1.025,1.025,0,0,1,1.023-1.023H38.5a1.025,1.025,0,0,1,1.024,1.023v1.084A1.026,1.026,0,0,1,38.5,69.9M1.119,68.781h37.29v-.894H1.119Z" transform="translate(0 -36.889)" fill="#231815"/>
    <path id="패스_6950" data-name="패스 6950" d="M19.34,39.629a8.63,8.63,0,1,1,0-17.26.56.56,0,0,1,.559.559v7.839l5.543,5.542a.56.56,0,0,1,0,.792,8.582,8.582,0,0,1-6.1,2.527M18.78,23.508a7.511,7.511,0,1,0,5.46,13.183l-5.3-5.3a.56.56,0,0,1-.164-.4Z" transform="translate(-5.917 -12.359)" fill="#231815"/>
    <path id="패스_6951" data-name="패스 6951" d="M29.305,31.558a.571.571,0,0,1-.214-.042A.561.561,0,0,1,28.746,31V22.928a.56.56,0,0,1,.559-.559,8.581,8.581,0,0,1,6.1,2.527.56.56,0,0,1,0,.791L29.7,31.395a.559.559,0,0,1-.4.164m.559-8.05v6.14l4.341-4.342a7.447,7.447,0,0,0-4.341-1.8" transform="translate(-15.882 -12.359)" fill="#231815"/>
    <path id="패스_6952" data-name="패스 6952" d="M35.012,40.183a.557.557,0,0,1-.4-.164L28.91,34.312a.559.559,0,0,1,0-.791l5.706-5.707a.559.559,0,0,1,.791,0,8.631,8.631,0,0,1,0,12.205.558.558,0,0,1-.4.164M30.1,33.917l4.9,4.9a7.514,7.514,0,0,0,0-9.8Z" transform="translate(-15.882 -15.277)" fill="#231815"/>
    <path id="패스_6953" data-name="패스 6953" d="M64.417,33.978H56.981a.559.559,0,1,1,0-1.119h7.435a.559.559,0,1,1,0,1.119" transform="translate(-31.173 -18.155)" fill="#1cbaff"/>
    <path id="패스_6954" data-name="패스 6954" d="M64.417,42.5H56.981a.559.559,0,1,1,0-1.119h7.435a.559.559,0,1,1,0,1.119" transform="translate(-31.173 -22.863)" fill="#1cbaff"/>
    <path id="패스_6955" data-name="패스 6955" d="M64.417,50.6H56.981a.559.559,0,1,1,0-1.119h7.435a.559.559,0,1,1,0,1.119" transform="translate(-31.173 -27.336)" fill="#1cbaff"/>
    <path id="패스_6956" data-name="패스 6956" d="M42.925,1.119h-4.7a.559.559,0,0,1,0-1.119h4.7a.559.559,0,0,1,0,1.119" transform="translate(-20.813 0)" fill="#231815"/>
  </g>
</svg>
