<svg width="194" height="23" viewBox="0 0 194 23" fill="none" xmlns="http://www.w3.org/2000/svg">
<path d="M0.84 2.4H3.92L10.24 12.34V2.4H12.96V17H10.06L3.56 6.74V17H0.84V2.4ZM20.3886 17.24C19.4686 17.24 18.6286 17.0867 17.8686 16.78C17.1086 16.46 16.4553 16.0267 15.9086 15.48C15.3753 14.9333 14.9553 14.2933 14.6486 13.56C14.3553 12.8133 14.2086 12.02 14.2086 11.18C14.2086 10.3267 14.3619 9.52667 14.6686 8.78C14.9886 8.03333 15.4219 7.38667 15.9686 6.84C16.5153 6.29333 17.1553 5.86 17.8886 5.54C18.6353 5.22 19.4353 5.06 20.2886 5.06C21.1553 5.06 21.9553 5.21333 22.6886 5.52C23.4353 5.81333 24.0753 6.23333 24.6086 6.78C25.1419 7.31333 25.5553 7.94667 25.8486 8.68C26.1553 9.41333 26.3086 10.2133 26.3086 11.08V12.1H16.7886C16.9753 12.9267 17.3819 13.5933 18.0086 14.1C18.6353 14.6067 19.4286 14.86 20.3886 14.86C21.1486 14.86 21.8086 14.6733 22.3686 14.3C22.9286 13.9267 23.3486 13.4267 23.6286 12.8L25.8486 14.08C25.3419 15.0267 24.6286 15.7933 23.7086 16.38C22.8019 16.9533 21.6953 17.24 20.3886 17.24ZM20.2886 7.44C19.4753 7.44 18.7686 7.66 18.1686 8.1C17.5819 8.54 17.1686 9.12 16.9286 9.84H23.5686C23.3686 9.05333 22.9819 8.46 22.4086 8.06C21.8353 7.64667 21.1286 7.44 20.2886 7.44ZM26.1998 5.3H28.9598L31.5398 13.36L34.4798 5.3H37.1598L40.0398 13.38L42.7198 5.3H45.4598L41.3598 17H38.7598L35.7998 8.9L32.7598 17H30.0998L26.1998 5.3ZM58.6645 17.2C57.5179 17.2 56.4779 17 55.5445 16.6C54.6245 16.2 53.8312 15.66 53.1645 14.98C52.4979 14.2867 51.9845 13.4867 51.6245 12.58C51.2645 11.6733 51.0845 10.7133 51.0845 9.7C51.0845 8.66 51.2712 7.68667 51.6445 6.78C52.0179 5.86 52.5312 5.06667 53.1845 4.4C53.8512 3.72 54.6379 3.18667 55.5445 2.8C56.4645 2.4 57.4645 2.2 58.5445 2.2C59.3045 2.2 60.0179 2.29333 60.6845 2.48C61.3512 2.66667 61.9645 2.92667 62.5245 3.26C63.0979 3.58 63.6045 3.97333 64.0445 4.44C64.4979 4.89333 64.8779 5.39333 65.1845 5.94L62.7845 7.38C62.3312 6.54 61.7512 5.90667 61.0445 5.48C60.3512 5.05333 59.5245 4.84 58.5645 4.84C57.8845 4.84 57.2512 4.97333 56.6645 5.24C56.0912 5.49333 55.5845 5.84 55.1445 6.28C54.7179 6.72 54.3845 7.23333 54.1445 7.82C53.9045 8.40667 53.7845 9.03333 53.7845 9.7C53.7845 10.38 53.9045 11.0133 54.1445 11.6C54.3845 12.1867 54.7179 12.7 55.1445 13.14C55.5845 13.58 56.1045 13.9267 56.7045 14.18C57.3045 14.4333 57.9579 14.56 58.6645 14.56C59.7579 14.56 60.6645 14.2733 61.3845 13.7C62.1179 13.1267 62.6179 12.36 62.8845 11.4H58.2245V8.8H65.8045V9.88C65.8045 10.8667 65.6379 11.8067 65.3045 12.7C64.9712 13.58 64.4912 14.3533 63.8645 15.02C63.2512 15.6867 62.5045 16.22 61.6245 16.62C60.7445 17.0067 59.7579 17.2 58.6645 17.2ZM72.6053 17.24C71.8986 17.24 71.1986 17.1067 70.5053 16.84C69.8253 16.56 69.212 16.16 68.6653 15.64C68.1186 15.12 67.6786 14.4867 67.3453 13.74C67.012 12.98 66.8453 12.12 66.8453 11.16C66.8453 10.1867 67.0053 9.32667 67.3253 8.58C67.6586 7.82 68.092 7.18 68.6253 6.66C69.172 6.14 69.792 5.74667 70.4853 5.48C71.1786 5.2 71.8986 5.06 72.6453 5.06C73.4186 5.06 74.132 5.20667 74.7853 5.5C75.4386 5.79333 75.9786 6.19333 76.4053 6.7V5.3H79.1053V17H76.4053V15.48C75.9786 16.0267 75.432 16.46 74.7653 16.78C74.0986 17.0867 73.3786 17.24 72.6053 17.24ZM73.0453 14.76C73.5386 14.76 73.9986 14.6667 74.4253 14.48C74.8653 14.2933 75.2386 14.0333 75.5453 13.7C75.852 13.3667 76.092 12.98 76.2653 12.54C76.452 12.1 76.5453 11.6267 76.5453 11.12C76.5453 10.6267 76.452 10.16 76.2653 9.72C76.092 9.28 75.852 8.9 75.5453 8.58C75.2386 8.24667 74.8653 7.98667 74.4253 7.8C73.9986 7.61333 73.5386 7.52 73.0453 7.52C72.5386 7.52 72.072 7.61333 71.6453 7.8C71.2186 7.98667 70.8453 8.24 70.5253 8.56C70.2053 8.88 69.952 9.26 69.7653 9.7C69.592 10.14 69.5053 10.6133 69.5053 11.12C69.5053 11.6267 69.592 12.1067 69.7653 12.56C69.952 13 70.2053 13.3867 70.5253 13.72C70.8453 14.04 71.2186 14.2933 71.6453 14.48C72.072 14.6667 72.5386 14.76 73.0453 14.76ZM80.6433 2.2H83.3633V17H80.6433V2.2ZM90.3006 17.24C89.594 17.24 88.894 17.1067 88.2006 16.84C87.5206 16.56 86.9073 16.16 86.3606 15.64C85.814 15.12 85.374 14.4867 85.0406 13.74C84.7073 12.98 84.5406 12.12 84.5406 11.16C84.5406 10.1867 84.7006 9.32667 85.0206 8.58C85.354 7.82 85.7873 7.18 86.3206 6.66C86.8673 6.14 87.4873 5.74667 88.1806 5.48C88.874 5.2 89.594 5.06 90.3406 5.06C91.114 5.06 91.8273 5.20667 92.4806 5.5C93.134 5.79333 93.674 6.19333 94.1006 6.7V5.3H96.8006V17H94.1006V15.48C93.674 16.0267 93.1273 16.46 92.4606 16.78C91.794 17.0867 91.074 17.24 90.3006 17.24ZM90.7406 14.76C91.234 14.76 91.694 14.6667 92.1206 14.48C92.5606 14.2933 92.934 14.0333 93.2406 13.7C93.5473 13.3667 93.7873 12.98 93.9606 12.54C94.1473 12.1 94.2406 11.6267 94.2406 11.12C94.2406 10.6267 94.1473 10.16 93.9606 9.72C93.7873 9.28 93.5473 8.9 93.2406 8.58C92.934 8.24667 92.5606 7.98667 92.1206 7.8C91.694 7.61333 91.234 7.52 90.7406 7.52C90.234 7.52 89.7673 7.61333 89.3406 7.8C88.914 7.98667 88.5406 8.24 88.2206 8.56C87.9006 8.88 87.6473 9.26 87.4606 9.7C87.2873 10.14 87.2006 10.6133 87.2006 11.12C87.2006 11.6267 87.2873 12.1067 87.4606 12.56C87.6473 13 87.9006 13.3867 88.2206 13.72C88.5406 14.04 88.914 14.2933 89.3406 14.48C89.7673 14.6667 90.234 14.76 90.7406 14.76ZM101.863 11.04L97.6233 5.3H100.923L103.583 9.02L106.223 5.3H109.423L105.223 11.08L109.703 17H106.403L103.543 13.1L100.763 17H97.4633L101.863 11.04ZM114.568 16.42L109.768 5.3H112.648L115.908 13.18L118.988 5.3H121.828L114.848 22.4H112.108L114.568 16.42ZM133.914 2.26V5.06C133.914 6.12667 134.081 7.17333 134.414 8.2C134.761 9.22667 135.254 10.1467 135.894 10.96C136.534 11.76 137.301 12.38 138.194 12.82L136.854 14.56C135.921 14.08 135.114 13.4 134.434 12.52C133.754 11.64 133.221 10.62 132.834 9.46C132.434 10.7 131.874 11.7933 131.154 12.74C130.434 13.6867 129.581 14.4067 128.594 14.9L127.274 13.12C128.194 12.68 128.987 12.04 129.654 11.2C130.334 10.3467 130.847 9.38667 131.194 8.32C131.554 7.25333 131.734 6.16667 131.734 5.06V2.26H133.914ZM141.434 0.82V7.8H144.154V9.64H141.434V18.62H139.214V0.82H141.434ZM156.655 5.52V0.82H158.855V13.8H156.655V7.3H153.555V5.52H156.655ZM149.455 12.7V16.5H159.295V18.26H147.235V12.7H149.455ZM154.195 2.1V3.86H150.555V4.34C150.555 5.47333 150.915 6.53333 151.635 7.52C152.368 8.49333 153.388 9.2 154.695 9.64L153.615 11.36C152.655 11.0267 151.821 10.54 151.115 9.9C150.421 9.26 149.875 8.5 149.475 7.62C149.088 8.58 148.521 9.42 147.775 10.14C147.041 10.86 146.161 11.3933 145.135 11.74L144.015 10C145.375 9.53333 146.435 8.78 147.195 7.74C147.955 6.7 148.335 5.56667 148.335 4.34V3.86H144.635V2.1H154.195ZM174.475 0.82V4.38H176.935V6.18H174.475V9.76H172.275V0.82H174.475ZM174.475 10.52V15.2H165.135V16.66H175.055V18.4H162.955V13.58H172.315V12.22H162.915V10.52H174.475ZM165.435 1.36C166.328 1.36 167.128 1.53333 167.835 1.88C168.555 2.22667 169.115 2.70667 169.515 3.32C169.928 3.92 170.135 4.60667 170.135 5.38C170.135 6.15333 169.928 6.84667 169.515 7.46C169.115 8.06 168.555 8.53333 167.835 8.88C167.128 9.21333 166.328 9.38 165.435 9.38C164.555 9.38 163.755 9.21333 163.035 8.88C162.328 8.53333 161.768 8.06 161.355 7.46C160.955 6.84667 160.755 6.15333 160.755 5.38C160.755 4.60667 160.955 3.92 161.355 3.32C161.768 2.70667 162.328 2.22667 163.035 1.88C163.755 1.53333 164.555 1.36 165.435 1.36ZM165.435 3.14C164.688 3.14 164.075 3.34667 163.595 3.76C163.115 4.17333 162.875 4.71333 162.875 5.38C162.875 6.04667 163.115 6.58667 163.595 7C164.075 7.41333 164.688 7.62 165.435 7.62C166.195 7.62 166.808 7.42 167.275 7.02C167.755 6.60667 167.995 6.06 167.995 5.38C167.995 4.7 167.755 4.16 167.275 3.76C166.808 3.34667 166.195 3.14 165.435 3.14ZM190.975 0.82V5.14H193.455V6.96H190.975V11.4H188.775V0.82H190.975ZM190.975 12.22V18.4H179.535V12.22H190.975ZM181.695 13.92V16.66H188.835V13.92H181.695ZM185.795 1.74V6.94H179.915V8.88C181.515 8.86667 182.875 8.82667 183.995 8.76C185.115 8.68 186.242 8.54 187.375 8.34L187.575 10.08C186.335 10.3067 185.089 10.46 183.835 10.54C182.595 10.62 181.049 10.66 179.195 10.66H177.735V5.28H183.615V3.5H177.695V1.74H185.795Z" fill="white"/>
</svg>
