<svg width="33" height="25" viewBox="0 0 33 25" fill="none" xmlns="http://www.w3.org/2000/svg">
<path d="M13.6597 24.7653C12.4427 24.7653 11.3032 24.2924 10.4427 23.432L1.37332 14.3626C0.512889 13.5022 0.0400391 12.3588 0.0400391 11.1457C0.0400391 9.93252 0.512889 8.78916 1.37332 7.92872C2.23375 7.06829 3.37712 6.59544 4.59026 6.59544C5.80339 6.59544 6.94676 7.06829 7.80719 7.92872L13.6597 13.7812L25.2329 2.20801C26.0933 1.34758 27.2367 0.874725 28.4498 0.874725C29.663 0.874725 30.8063 1.34758 31.6668 2.20801C32.5272 3.06844 33 4.21181 33 5.42494C33 6.63807 32.5272 7.78144 31.6668 8.64188L16.8766 23.432C16.0162 24.2924 14.8728 24.7653 13.6597 24.7653Z" fill="#202425"/>
</svg>
