<svg width="21" height="15" viewBox="0 0 21 15" fill="none" xmlns="http://www.w3.org/2000/svg">
<path d="M8.67756 15C7.90216 15 7.17615 14.7031 6.62794 14.1629L0.849483 8.46853C0.30127 7.92829 0 7.21042 0 6.44873C0 5.68705 0.30127 4.96918 0.849483 4.42894C1.3977 3.88871 2.12618 3.59182 2.89911 3.59182C3.67204 3.59182 4.40052 3.88871 4.94873 4.42894L8.67756 8.1035L16.0513 0.837119C16.5995 0.296885 17.328 0 18.1009 0C18.8738 0 19.6023 0.296885 20.1505 0.837119C20.6987 1.37735 21 2.09523 21 2.85691C21 3.61859 20.6987 4.33647 20.1505 4.8767L10.7272 14.1629C10.179 14.7031 9.45049 15 8.67756 15Z" fill="#ED008C"/>
</svg>
