<svg width="31" height="35" viewBox="0 0 31 35" fill="none" xmlns="http://www.w3.org/2000/svg">
<path d="M24.7974 14.3951C24.806 14.3036 24.8104 14.2167 24.8104 14.1253V9.85432C24.8104 4.42187 20.635 0 15.5 0C10.365 0 6.1853 4.42187 6.1853 9.85432V14.1253C6.1853 14.2167 6.18963 14.3082 6.19827 14.3951H0V29.2932C0 32.4438 2.4162 35 5.39431 35H25.6057C28.5838 35 31 32.4438 31 29.2932V14.3951H24.8017H24.7974ZM16.8788 26.6044V28.6301C16.8788 29.4349 16.2607 30.0888 15.5 30.0888C14.7393 30.0888 14.1212 29.4349 14.1212 28.6301V26.6044C12.8893 26.0374 12.0291 24.7433 12.0291 23.2343C12.0291 21.2085 13.5852 19.5623 15.5 19.5623C17.4148 19.5623 18.9709 21.2085 18.9709 23.2343C18.9709 24.7433 18.1064 26.0374 16.8788 26.6044ZM10.9875 14.3951C10.9961 14.3036 11.0004 14.2167 11.0004 14.1253V9.85432C11.0004 7.22955 13.019 5.09864 15.5 5.09864C17.981 5.09864 19.9953 7.23413 19.9953 9.85432V14.1253C19.9953 14.2167 19.9996 14.3082 20.0082 14.3951H10.9875Z" fill="#999999"/>
</svg>
