<svg width="120" height="120" viewBox="0 0 120 120" fill="none" xmlns="http://www.w3.org/2000/svg">
<g filter="url(#filter0_ii_1695_1293)">
<rect x="30" y="30" width="60" height="60" rx="5" fill="#03E05A"/>
</g>
<path d="M53.8406 60.7502C53.8406 62.0852 53.4053 63.3902 52.59 64.5002C51.7746 65.6102 50.6157 66.4753 49.2599 66.9862C47.904 67.4971 46.4121 67.6307 44.9728 67.3703C43.5334 67.1099 42.2112 66.4671 41.1735 65.5231C40.3106 64.7382 39.6738 63.7718 39.3195 62.7096C38.9653 61.6473 38.9045 60.522 39.1426 59.4332C39.3806 58.3445 39.9102 57.326 40.6843 56.4679C41.4584 55.6098 42.4533 54.9386 43.5807 54.5138C44.7081 54.089 45.9332 53.9237 47.1477 54.0325C48.3621 54.1413 49.5282 54.5209 50.5429 55.1376C51.5575 55.7543 52.3893 56.5892 52.9645 57.5682C53.5397 58.5472 53.8406 59.6401 53.8406 60.7502ZM47.6614 57.5777V60.9711L45.0643 57.5777H42.9328V63.9311H45.1774V60.5274L47.7745 63.9226H49.9135V57.5777H47.6614ZM80.7513 57.225L78.6809 61.5166L76.3388 57.225H74.5381L77.8549 63.1791L76.4877 65.969H78.2363L82.5 57.2334L80.7513 57.225ZM73.3872 63.8613H71.6758V63.2417C71.0533 63.738 70.2507 64.007 69.423 63.9967C67.3767 63.9967 65.7751 62.4731 65.7751 60.5432C65.7751 58.6132 67.3749 57.0896 69.423 57.0896C70.2505 57.0788 71.053 57.3472 71.6758 57.8429V57.225H73.3872V63.8613ZM71.8767 60.5516C71.8767 59.3005 70.9168 58.3508 69.6445 58.3508C68.372 58.3508 67.412 59.3005 67.412 60.5516C67.412 61.8027 68.3701 62.7524 69.6444 62.7524C70.9187 62.7524 71.8767 61.7942 71.8767 60.5516ZM57.3114 65.9689H59.0972V63.2976C59.7082 63.7599 60.481 64.0079 61.2756 63.9967C63.3218 63.9967 64.9254 62.4731 64.9254 60.5432C64.9254 58.6132 63.3237 57.0896 61.2756 57.0896C60.4459 57.076 59.6405 57.3447 59.0172 57.8429V57.225H57.3058L57.3114 65.9689ZM61.0635 58.3508C62.336 58.3508 63.2958 59.3005 63.2958 60.5515C63.2958 61.8026 62.336 62.7523 61.0635 62.7523C59.7911 62.7523 58.8313 61.8026 58.8313 60.5515C58.8313 59.3005 59.7799 58.3508 61.0635 58.3508Z" fill="#222222"/>
<defs>
<filter id="filter0_ii_1695_1293" x="28" y="28" width="64" height="64" filterUnits="userSpaceOnUse" color-interpolation-filters="sRGB">
<feFlood flood-opacity="0" result="BackgroundImageFix"/>
<feBlend mode="normal" in="SourceGraphic" in2="BackgroundImageFix" result="shape"/>
<feColorMatrix in="SourceAlpha" type="matrix" values="0 0 0 0 0 0 0 0 0 0 0 0 0 0 0 0 0 0 127 0" result="hardAlpha"/>
<feOffset dx="2" dy="2"/>
<feGaussianBlur stdDeviation="2"/>
<feComposite in2="hardAlpha" operator="arithmetic" k2="-1" k3="1"/>
<feColorMatrix type="matrix" values="0 0 0 0 0.0878472 0 0 0 0 0.958333 0 0 0 0 0.430527 0 0 0 1 0"/>
<feBlend mode="normal" in2="shape" result="effect1_innerShadow_1695_1293"/>
<feColorMatrix in="SourceAlpha" type="matrix" values="0 0 0 0 0 0 0 0 0 0 0 0 0 0 0 0 0 0 127 0" result="hardAlpha"/>
<feOffset dx="-2" dy="-2"/>
<feGaussianBlur stdDeviation="2"/>
<feComposite in2="hardAlpha" operator="arithmetic" k2="-1" k3="1"/>
<feColorMatrix type="matrix" values="0 0 0 0 0 0 0 0 0 0 0 0 0 0 0 0 0 0 0.15 0"/>
<feBlend mode="normal" in2="effect1_innerShadow_1695_1293" result="effect2_innerShadow_1695_1293"/>
</filter>
</defs>
</svg>
