<svg width="105" height="30" viewBox="0 0 105 30" fill="none" xmlns="http://www.w3.org/2000/svg">
<g clip-path="url(#clip0_5188_1128)">
<path d="M39.9457 5.89743H35.5901V24.7719H48.9805V21.1008H39.9457V5.89743ZM58.5719 17.5727H62.1226V20.8751C61.4682 21.1234 60.1893 21.3716 58.9782 21.3716C55.0513 21.3716 53.7499 19.3781 53.7499 15.3309C53.7499 11.2837 54.9986 9.19238 58.918 9.19238C61.0996 9.19238 62.3408 9.87694 63.3714 11.1859L66.0796 8.69588C64.4321 6.33375 61.5284 5.61157 58.8202 5.61157C52.7118 5.61157 49.5071 8.94413 49.5071 15.2933C49.5071 21.6424 52.4033 25.0427 58.7901 25.0427C61.7164 25.0427 64.5826 24.298 66.1398 23.2072V14.052H58.5719V17.5727Z" fill="white"/>
<path d="M100.549 5.86714V1.11279H97.0356V5.86714H92.4016V9.22226H97.0356V13.9164H100.549V9.22226H105.22V5.86714H100.549Z" fill="white"/>
<path d="M85.1273 5.8822V16.7826C85.1273 19.7992 83.6302 21.2812 81.1026 21.2812C78.575 21.2812 77.078 19.7992 77.078 16.7826V5.8822H72.7975V16.8503C72.7975 22.8008 75.9646 25.035 80.9522 25.035C81.0048 25.035 81.0575 25.035 81.1026 25.035C81.1477 25.035 81.2079 25.035 81.2531 25.035C86.2406 25.035 89.4077 22.8008 89.4077 16.8503V5.8822H85.1273Z" fill="white"/>
<path d="M14.5113 30C22.5154 30 29.0226 23.5154 29.0226 15.5038C29.0226 7.49209 22.5154 1 14.5113 1C6.50713 1 0 7.49209 0 15.5038C0 23.5154 6.49209 30 14.5113 30Z" fill="#C30036"/>
<path d="M13.9245 9.13965V21.8605H17.9717V20.7171H15.0905V9.13965H13.9245Z" fill="white"/>
<path d="M9.87724 12.6075C10.8401 12.6075 11.615 11.8252 11.615 10.8698C11.615 9.91439 10.8401 9.12451 9.87724 9.12451C8.91433 9.12451 8.1395 9.90687 8.1395 10.8698C8.1395 11.8327 8.91433 12.6075 9.87724 12.6075Z" fill="white"/>
<path d="M15.0907 3.36967C14.9402 3.36967 14.6543 3.35462 14.5114 3.35462C7.81622 3.3471 2.36978 8.80106 2.36978 15.4963C2.36978 18.7461 3.63359 21.7928 5.9205 24.0872C8.21492 26.3741 11.2691 27.6379 14.5189 27.6379C17.7687 27.6379 20.8079 26.3741 23.1023 24.0872C25.3968 21.7928 26.6681 18.7461 26.6681 15.4963V14.9546H17.9944V16.0755H25.5096C25.5096 16.0755 25.5096 16.2184 25.5096 16.2485C25.1259 21.9733 20.349 26.502 14.5265 26.502C11.5776 26.502 8.81673 25.3585 6.74047 23.2747C4.65668 21.206 3.50571 18.4452 3.50571 15.4963C3.50571 12.5474 4.65668 9.79405 6.74047 7.71026C8.81673 5.634 11.5776 4.49055 14.5265 4.49055C14.6543 4.49055 14.9628 4.49055 15.1057 4.49807V3.36967H15.0907Z" fill="white"/>
</g>
<defs>
<clipPath id="clip0_5188_1128">
<rect width="105" height="30" fill="white"/>
</clipPath>
</defs>
</svg>
