<svg width="287" height="46" viewBox="0 0 287 46" fill="none" xmlns="http://www.w3.org/2000/svg">
<path d="M26.374 5.426V34.768H22.6V5.426H26.374ZM10.122 25.35C8.53533 25.35 7.10733 24.9873 5.838 24.262C4.59133 23.5367 3.61667 22.528 2.914 21.236C2.21133 19.9213 1.86 18.4367 1.86 16.782C1.86 15.1047 2.21133 13.62 2.914 12.328C3.61667 11.0133 4.59133 9.99333 5.838 9.268C7.10733 8.52 8.53533 8.146 10.122 8.146C11.7087 8.146 13.1253 8.52 14.372 9.268C15.6187 9.99333 16.5933 11.0133 17.296 12.328C17.9987 13.62 18.35 15.1047 18.35 16.782C18.35 18.4367 17.9987 19.9213 17.296 21.236C16.5933 22.528 15.6187 23.5367 14.372 24.262C13.1253 24.9873 11.7087 25.35 10.122 25.35ZM10.122 22.154C11.5047 22.154 12.6153 21.6667 13.454 20.692C14.2927 19.6947 14.712 18.3913 14.712 16.782C14.712 15.1727 14.2927 13.8693 13.454 12.872C12.6153 11.852 11.5047 11.342 10.122 11.342C8.73933 11.342 7.62867 11.852 6.79 12.872C5.95133 13.8693 5.532 15.1727 5.532 16.782C5.532 18.3913 5.95133 19.6947 6.79 20.692C7.62867 21.6667 8.73933 22.154 10.122 22.154ZM48.8079 36.74C47.2666 36.74 45.8839 36.468 44.6599 35.924C43.4359 35.38 42.4839 34.6207 41.8039 33.646C41.1239 32.6713 40.7839 31.5833 40.7839 30.382C40.7839 28.7727 41.3279 27.424 42.4159 26.336C43.5266 25.248 45.0112 24.5453 46.8699 24.228V21.78H35.1059V18.822H62.4419V21.78H50.6439V24.228C52.5252 24.5 54.0326 25.1913 55.1659 26.302C56.2992 27.39 56.8659 28.75 56.8659 30.382C56.8659 31.5833 56.5146 32.6713 55.8119 33.646C55.1319 34.6207 54.1799 35.38 52.9559 35.924C51.7319 36.468 50.3492 36.74 48.8079 36.74ZM48.8079 33.748C50.0999 33.748 51.1539 33.4307 51.9699 32.796C52.7859 32.1613 53.1939 31.3567 53.1939 30.382C53.1939 29.43 52.7859 28.648 51.9699 28.036C51.1539 27.4013 50.0999 27.084 48.8079 27.084C47.5159 27.084 46.4619 27.4013 45.6459 28.036C44.8526 28.648 44.4559 29.43 44.4559 30.382C44.4559 31.3567 44.8526 32.1613 45.6459 32.796C46.4619 33.4307 47.5159 33.748 48.8079 33.748ZM37.9619 14.64L45.3739 11.274C45.8952 11.0473 46.2692 10.7753 46.4959 10.458C46.7452 10.118 46.8926 9.78933 46.9379 9.472H38.7779V6.412H58.7359V9.472H50.5759C50.6212 9.78933 50.7572 10.118 50.9839 10.458C51.2332 10.7753 51.6186 11.0473 52.1399 11.274L59.5519 14.64L58.1919 17.632L50.7799 14.266C49.9639 13.8807 49.2952 13.416 48.7739 12.872C48.2072 13.4387 47.5272 13.9033 46.7339 14.266L39.3219 17.632L37.9619 14.64ZM92.3558 5.494V17.53H96.9458V20.624H92.3558V34.734H88.6158V5.494H92.3558ZM75.7978 9.302V6.038H79.5038V9.302H86.0998V12.294H69.1678V9.302H75.7978ZM77.6338 27.798C76.2058 27.798 74.9364 27.5033 73.8258 26.914C72.7151 26.302 71.8424 25.452 71.2078 24.364C70.5958 23.276 70.2898 22.0407 70.2898 20.658C70.2898 19.2753 70.5958 18.04 71.2078 16.952C71.8424 15.8413 72.7151 14.98 73.8258 14.368C74.9364 13.756 76.2058 13.45 77.6338 13.45C79.0618 13.45 80.3311 13.756 81.4418 14.368C82.5751 14.98 83.4478 15.8413 84.0598 16.952C84.6944 18.04 85.0118 19.2753 85.0118 20.658C85.0118 22.0407 84.6944 23.276 84.0598 24.364C83.4478 25.452 82.5751 26.302 81.4418 26.914C80.3311 27.5033 79.0618 27.798 77.6338 27.798ZM77.6338 24.704C78.7671 24.704 79.6738 24.33 80.3538 23.582C81.0564 22.834 81.4078 21.8593 81.4078 20.658C81.4078 19.434 81.0564 18.448 80.3538 17.7C79.6738 16.952 78.7671 16.578 77.6338 16.578C76.5004 16.578 75.5824 16.952 74.8798 17.7C74.1998 18.448 73.8598 19.434 73.8598 20.658C73.8598 21.8593 74.2111 22.834 74.9138 23.582C75.6164 24.33 76.5231 24.704 77.6338 24.704ZM119.908 5.426V17.156H124.328V20.25H119.908V34.7H116.168V5.426H119.908ZM113.278 26.948H97.3657V7.942H101.106V23.854H113.278V26.948Z" fill="#2F2F2F"/>
<path d="M141.06 33.102L137.456 33.068V12.294L132.492 15.286L130.928 12.294L137.49 8.384H141.06V33.102ZM155.016 30.144C156.444 30.144 157.691 29.7587 158.756 28.988C159.822 28.2173 160.638 27.1293 161.204 25.724C161.771 24.296 162.054 22.63 162.054 20.726C162.054 18.7993 161.771 17.1333 161.204 15.728C160.638 14.3 159.822 13.2007 158.756 12.43C157.691 11.6593 156.444 11.274 155.016 11.274C153.588 11.274 152.342 11.6593 151.276 12.43C150.211 13.2007 149.384 14.3 148.794 15.728C148.228 17.1333 147.944 18.7993 147.944 20.726C147.944 22.63 148.228 24.296 148.794 25.724C149.384 27.1293 150.211 28.2173 151.276 28.988C152.342 29.7587 153.588 30.144 155.016 30.144ZM155.016 33.34C152.84 33.34 150.948 32.83 149.338 31.81C147.729 30.7673 146.494 29.3053 145.632 27.424C144.771 25.52 144.34 23.2873 144.34 20.726C144.34 18.1647 144.771 15.932 145.632 14.028C146.494 12.124 147.729 10.662 149.338 9.642C150.948 8.622 152.84 8.112 155.016 8.112C157.17 8.112 159.051 8.622 160.66 9.642C162.27 10.662 163.505 12.124 164.366 14.028C165.228 15.932 165.658 18.1647 165.658 20.726C165.658 23.2873 165.228 25.52 164.366 27.424C163.505 29.3053 162.27 30.7673 160.66 31.81C159.051 32.83 157.17 33.34 155.016 33.34ZM177.887 30.144C179.315 30.144 180.561 29.7587 181.627 28.988C182.692 28.2173 183.508 27.1293 184.075 25.724C184.641 24.296 184.925 22.63 184.925 20.726C184.925 18.7993 184.641 17.1333 184.075 15.728C183.508 14.3 182.692 13.2007 181.627 12.43C180.561 11.6593 179.315 11.274 177.887 11.274C176.459 11.274 175.212 11.6593 174.147 12.43C173.081 13.2007 172.254 14.3 171.665 15.728C171.098 17.1333 170.815 18.7993 170.815 20.726C170.815 22.63 171.098 24.296 171.665 25.724C172.254 27.1293 173.081 28.2173 174.147 28.988C175.212 29.7587 176.459 30.144 177.887 30.144ZM177.887 33.34C175.711 33.34 173.818 32.83 172.209 31.81C170.599 30.7673 169.364 29.3053 168.503 27.424C167.641 25.52 167.211 23.2873 167.211 20.726C167.211 18.1647 167.641 15.932 168.503 14.028C169.364 12.124 170.599 10.662 172.209 9.642C173.818 8.622 175.711 8.112 177.887 8.112C180.04 8.112 181.921 8.622 183.531 9.642C185.14 10.662 186.375 12.124 187.237 14.028C188.098 15.932 188.529 18.1647 188.529 20.726C188.529 23.2873 188.098 25.52 187.237 27.424C186.375 29.3053 185.14 30.7673 183.531 31.81C181.921 32.83 180.04 33.34 177.887 33.34ZM212.623 8.18H216.329L200.621 33.204H196.983L212.623 8.18ZM197.867 21.372C196.643 21.372 195.521 21.0773 194.501 20.488C193.503 19.876 192.71 19.0487 192.121 18.006C191.531 16.9633 191.237 15.8187 191.237 14.572C191.237 13.3253 191.531 12.1807 192.121 11.138C192.71 10.0953 193.503 9.27933 194.501 8.69C195.521 8.078 196.643 7.772 197.867 7.772C199.068 7.772 200.167 8.078 201.165 8.69C202.185 9.27933 202.989 10.0953 203.579 11.138C204.168 12.1807 204.463 13.3253 204.463 14.572C204.463 15.8187 204.168 16.9633 203.579 18.006C202.989 19.0487 202.185 19.876 201.165 20.488C200.167 21.0773 199.068 21.372 197.867 21.372ZM197.867 18.006C198.773 18.006 199.533 17.6773 200.145 17.02C200.779 16.34 201.097 15.524 201.097 14.572C201.097 13.62 200.779 12.8153 200.145 12.158C199.533 11.5007 198.773 11.172 197.867 11.172C196.96 11.172 196.189 11.5007 195.555 12.158C194.943 12.8153 194.637 13.62 194.637 14.572C194.637 15.524 194.943 16.34 195.555 17.02C196.189 17.6773 196.96 18.006 197.867 18.006ZM215.173 33.442C213.949 33.442 212.827 33.136 211.807 32.524C210.809 31.912 210.016 31.0847 209.427 30.042C208.837 28.9993 208.543 27.8547 208.543 26.608C208.543 25.3613 208.837 24.2167 209.427 23.174C210.016 22.1313 210.809 21.3153 211.807 20.726C212.827 20.114 213.949 19.808 215.173 19.808C216.374 19.808 217.473 20.114 218.471 20.726C219.491 21.3153 220.295 22.1313 220.885 23.174C221.474 24.2167 221.769 25.3613 221.769 26.608C221.769 27.8547 221.474 28.9993 220.885 30.042C220.295 31.0847 219.491 31.912 218.471 32.524C217.473 33.136 216.374 33.442 215.173 33.442ZM215.173 30.042C216.079 30.042 216.839 29.7133 217.451 29.056C218.085 28.376 218.403 27.56 218.403 26.608C218.403 25.656 218.085 24.8513 217.451 24.194C216.839 23.5367 216.079 23.208 215.173 23.208C214.266 23.208 213.495 23.5367 212.861 24.194C212.249 24.8513 211.943 25.656 211.943 26.608C211.943 27.56 212.249 28.376 212.861 29.056C213.495 29.7133 214.266 30.042 215.173 30.042ZM253.627 5.46V12.906H257.741V16H253.627V23.14H249.853V5.46H253.627ZM247.065 20.896H231.425V7.024H245.365V10.084H235.131V17.836H247.065V20.896ZM244.617 36.366C243.121 36.366 241.784 36.0827 240.605 35.516C239.449 34.972 238.543 34.2013 237.885 33.204C237.251 32.2067 236.933 31.0847 236.933 29.838C236.933 28.5687 237.251 27.4353 237.885 26.438C238.543 25.4407 239.449 24.67 240.605 24.126C241.784 23.5593 243.121 23.276 244.617 23.276C246.113 23.276 247.451 23.5593 248.629 24.126C249.808 24.67 250.726 25.4407 251.383 26.438C252.041 27.4353 252.369 28.5687 252.369 29.838C252.369 31.0847 252.041 32.2067 251.383 33.204C250.726 34.2013 249.808 34.972 248.629 35.516C247.451 36.0827 246.113 36.366 244.617 36.366ZM244.617 33.34C245.841 33.34 246.827 33.0227 247.575 32.388C248.323 31.7307 248.697 30.8807 248.697 29.838C248.697 28.7953 248.323 27.9567 247.575 27.322C246.827 26.6647 245.841 26.336 244.617 26.336C243.416 26.336 242.441 26.6647 241.693 27.322C240.945 27.9567 240.571 28.7953 240.571 29.838C240.571 30.8807 240.945 31.7307 241.693 32.388C242.441 33.0227 243.416 33.34 244.617 33.34ZM278.765 13.008V5.494H282.539V22.936H278.765V16.034H273.665V13.008H278.765ZM282.539 24.33V35.38H263.567V24.33H282.539ZM267.239 27.322V32.422H278.867V27.322H267.239ZM257.923 19.74L263.125 14.47C263.624 13.926 263.964 13.45 264.145 13.042C264.349 12.634 264.451 12.226 264.451 11.818V11.274H258.535V8.214H264.485V5.46H268.021V8.214H273.903V11.274H267.953V11.818C267.953 12.226 268.044 12.634 268.225 13.042C268.429 13.45 268.781 13.926 269.279 14.47L274.481 19.74L272.033 22.188L266.831 16.85L266.219 16.17L265.573 16.85L260.371 22.188L257.923 19.74Z" fill="#FF0090"/>
<path d="M129.5 44.3333C128.999 44.3333 128.593 44.7393 128.593 45.24C128.593 45.7407 128.999 46.1467 129.5 46.1467V44.3333ZM129.5 46.1467C131.138 46.1467 131.977 45.1461 132.562 44.477C133.167 43.7861 133.518 43.4267 134.26 43.4267V41.6133C132.622 41.6133 131.783 42.6139 131.198 43.283C130.593 43.9739 130.242 44.3333 129.5 44.3333V46.1467Z" fill="#FF0090"/>
<path d="M134.26 43.4267C135.002 43.4267 135.353 43.7861 135.958 44.477C136.543 45.1461 137.382 46.1467 139.02 46.1467V44.3333C138.278 44.3333 137.927 43.9739 137.322 43.283C136.737 42.6139 135.898 41.6133 134.26 41.6133V43.4267Z" fill="#FF0090"/>
<path d="M139.02 46.1467C140.658 46.1467 141.497 45.1461 142.082 44.477C142.687 43.7861 143.038 43.4267 143.78 43.4267V41.6133C142.142 41.6133 141.303 42.6139 140.718 43.283C140.113 43.9739 139.762 44.3333 139.02 44.3333V46.1467Z" fill="#FF0090"/>
<path d="M143.78 43.4267C144.522 43.4267 144.873 43.7861 145.478 44.477C146.063 45.1461 146.902 46.1467 148.54 46.1467V44.3333C147.798 44.3333 147.447 43.9739 146.842 43.283C146.257 42.6139 145.418 41.6133 143.78 41.6133V43.4267Z" fill="#FF0090"/>
<path d="M148.54 46.1467C150.178 46.1467 151.017 45.1461 151.602 44.477C152.207 43.7861 152.558 43.4267 153.3 43.4267V41.6133C151.662 41.6133 150.823 42.6139 150.238 43.283C149.633 43.9739 149.282 44.3333 148.54 44.3333V46.1467Z" fill="#FF0090"/>
<path d="M153.3 43.4267C154.042 43.4267 154.393 43.7861 154.998 44.477C155.583 45.1461 156.422 46.1467 158.06 46.1467V44.3333C157.318 44.3333 156.967 43.9739 156.362 43.283C155.777 42.6139 154.938 41.6133 153.3 41.6133V43.4267Z" fill="#FF0090"/>
<path d="M158.06 46.1467C159.698 46.1467 160.537 45.1461 161.122 44.477C161.727 43.7861 162.078 43.4267 162.82 43.4267V41.6133C161.182 41.6133 160.343 42.6139 159.758 43.283C159.153 43.9739 158.802 44.3333 158.06 44.3333V46.1467Z" fill="#FF0090"/>
<path d="M162.82 43.4267C163.562 43.4267 163.913 43.7861 164.518 44.477C165.103 45.1461 165.942 46.1467 167.58 46.1467V44.3333C166.838 44.3333 166.487 43.9739 165.882 43.283C165.297 42.6139 164.458 41.6133 162.82 41.6133V43.4267Z" fill="#FF0090"/>
<path d="M167.58 46.1467C169.218 46.1467 170.057 45.1461 170.642 44.477C171.247 43.7861 171.598 43.4267 172.34 43.4267V41.6133C170.702 41.6133 169.863 42.6139 169.278 43.283C168.673 43.9739 168.322 44.3333 167.58 44.3333V46.1467Z" fill="#FF0090"/>
<path d="M172.34 43.4267C173.082 43.4267 173.433 43.7861 174.038 44.477C174.623 45.1461 175.462 46.1467 177.1 46.1467V44.3333C176.358 44.3333 176.007 43.9739 175.402 43.283C174.817 42.6139 173.978 41.6133 172.34 41.6133V43.4267Z" fill="#FF0090"/>
<path d="M177.1 46.1467C178.738 46.1467 179.577 45.1461 180.162 44.477C180.767 43.7861 181.118 43.4267 181.86 43.4267V41.6133C180.222 41.6133 179.383 42.6139 178.798 43.283C178.193 43.9739 177.842 44.3333 177.1 44.3333V46.1467Z" fill="#FF0090"/>
<path d="M181.86 43.4267C182.602 43.4267 182.953 43.7861 183.558 44.477C184.143 45.1461 184.982 46.1467 186.62 46.1467V44.3333C185.878 44.3333 185.527 43.9739 184.922 43.283C184.337 42.6139 183.498 41.6133 181.86 41.6133V43.4267Z" fill="#FF0090"/>
<path d="M186.62 46.1467C188.258 46.1467 189.097 45.1461 189.682 44.477C190.287 43.7861 190.638 43.4267 191.38 43.4267V41.6133C189.742 41.6133 188.903 42.6139 188.318 43.283C187.713 43.9739 187.362 44.3333 186.62 44.3333V46.1467Z" fill="#FF0090"/>
<path d="M191.38 43.4267C192.122 43.4267 192.473 43.7861 193.078 44.477C193.663 45.1461 194.502 46.1467 196.14 46.1467V44.3333C195.398 44.3333 195.047 43.9739 194.442 43.283C193.857 42.6139 193.018 41.6133 191.38 41.6133V43.4267Z" fill="#FF0090"/>
<path d="M196.14 46.1467C197.778 46.1467 198.617 45.1461 199.202 44.477C199.807 43.7861 200.158 43.4267 200.9 43.4267V41.6133C199.262 41.6133 198.423 42.6139 197.838 43.283C197.233 43.9739 196.882 44.3333 196.14 44.3333V46.1467Z" fill="#FF0090"/>
<path d="M200.9 43.4267C201.642 43.4267 201.993 43.7861 202.598 44.477C203.183 45.1461 204.022 46.1467 205.66 46.1467V44.3333C204.918 44.3333 204.567 43.9739 203.962 43.283C203.377 42.6139 202.538 41.6133 200.9 41.6133V43.4267Z" fill="#FF0090"/>
<path d="M205.66 46.1467C207.298 46.1467 208.137 45.1461 208.722 44.477C209.327 43.7861 209.678 43.4267 210.42 43.4267V41.6133C208.782 41.6133 207.943 42.6139 207.358 43.283C206.753 43.9739 206.402 44.3333 205.66 44.3333V46.1467Z" fill="#FF0090"/>
<path d="M210.42 43.4267C211.162 43.4267 211.513 43.7861 212.118 44.477C212.703 45.1461 213.542 46.1467 215.18 46.1467V44.3333C214.438 44.3333 214.087 43.9739 213.482 43.283C212.897 42.6139 212.058 41.6133 210.42 41.6133V43.4267Z" fill="#FF0090"/>
<path d="M215.18 46.1467C216.818 46.1467 217.657 45.1461 218.242 44.477C218.847 43.7861 219.198 43.4267 219.94 43.4267V41.6133C218.302 41.6133 217.463 42.6139 216.878 43.283C216.273 43.9739 215.922 44.3333 215.18 44.3333V46.1467Z" fill="#FF0090"/>
<path d="M219.94 43.4267C220.682 43.4267 221.033 43.7861 221.638 44.477C222.223 45.1461 223.062 46.1467 224.7 46.1467V44.3333C223.958 44.3333 223.607 43.9739 223.002 43.283C222.417 42.6139 221.578 41.6133 219.94 41.6133V43.4267Z" fill="#FF0090"/>
<path d="M224.7 46.1467C226.338 46.1467 227.177 45.1461 227.762 44.477C228.367 43.7861 228.718 43.4267 229.46 43.4267V41.6133C227.822 41.6133 226.983 42.6139 226.398 43.283C225.793 43.9739 225.442 44.3333 224.7 44.3333V46.1467Z" fill="#FF0090"/>
<path d="M229.46 43.4267C230.202 43.4267 230.553 43.7861 231.158 44.477C231.743 45.1461 232.582 46.1467 234.22 46.1467V44.3333C233.478 44.3333 233.127 43.9739 232.522 43.283C231.937 42.6139 231.098 41.6133 229.46 41.6133V43.4267Z" fill="#FF0090"/>
<path d="M234.22 46.1467C235.858 46.1467 236.697 45.1461 237.282 44.477C237.887 43.7861 238.238 43.4267 238.98 43.4267V41.6133C237.342 41.6133 236.503 42.6139 235.918 43.283C235.313 43.9739 234.962 44.3333 234.22 44.3333V46.1467Z" fill="#FF0090"/>
<path d="M238.98 43.4267C239.722 43.4267 240.073 43.7861 240.678 44.477C241.263 45.1461 242.102 46.1467 243.74 46.1467V44.3333C242.998 44.3333 242.647 43.9739 242.042 43.283C241.457 42.6139 240.618 41.6133 238.98 41.6133V43.4267Z" fill="#FF0090"/>
<path d="M243.74 46.1467C245.378 46.1467 246.217 45.1461 246.802 44.477C247.407 43.7861 247.758 43.4267 248.5 43.4267V41.6133C246.862 41.6133 246.023 42.6139 245.438 43.283C244.833 43.9739 244.482 44.3333 243.74 44.3333V46.1467Z" fill="#FF0090"/>
<path d="M248.5 43.4267C249.242 43.4267 249.593 43.7861 250.198 44.477C250.783 45.1461 251.622 46.1467 253.26 46.1467V44.3333C252.518 44.3333 252.167 43.9739 251.562 43.283C250.977 42.6139 250.138 41.6133 248.5 41.6133V43.4267Z" fill="#FF0090"/>
<path d="M253.26 46.1467C254.898 46.1467 255.737 45.1461 256.322 44.477C256.927 43.7861 257.278 43.4267 258.02 43.4267V41.6133C256.382 41.6133 255.543 42.6139 254.958 43.283C254.353 43.9739 254.002 44.3333 253.26 44.3333V46.1467Z" fill="#FF0090"/>
<path d="M258.02 43.4267C258.762 43.4267 259.113 43.7861 259.718 44.477C260.303 45.1461 261.142 46.1467 262.78 46.1467V44.3333C262.038 44.3333 261.687 43.9739 261.082 43.283C260.497 42.6139 259.658 41.6133 258.02 41.6133V43.4267Z" fill="#FF0090"/>
<path d="M262.78 46.1467C264.418 46.1467 265.257 45.1461 265.842 44.477C266.447 43.7861 266.798 43.4267 267.54 43.4267V41.6133C265.902 41.6133 265.063 42.6139 264.478 43.283C263.873 43.9739 263.522 44.3333 262.78 44.3333V46.1467Z" fill="#FF0090"/>
<path d="M267.54 43.4267C268.282 43.4267 268.633 43.7861 269.238 44.477C269.823 45.1461 270.662 46.1467 272.3 46.1467V44.3333C271.558 44.3333 271.207 43.9739 270.602 43.283C270.017 42.6139 269.178 41.6133 267.54 41.6133V43.4267Z" fill="#FF0090"/>
<path d="M272.3 46.1467C273.938 46.1467 274.777 45.1461 275.362 44.477C275.967 43.7861 276.318 43.4267 277.06 43.4267V41.6133C275.422 41.6133 274.583 42.6139 273.998 43.283C273.393 43.9739 273.042 44.3333 272.3 44.3333V46.1467Z" fill="#FF0090"/>
<path d="M277.06 43.4267C277.802 43.4267 278.153 43.7861 278.758 44.477C279.343 45.1461 280.182 46.1467 281.82 46.1467V44.3333C281.078 44.3333 280.727 43.9739 280.122 43.283C279.537 42.6139 278.698 41.6133 277.06 41.6133V43.4267Z" fill="#FF0090"/>
<path d="M286.58 43.4267C287.081 43.4267 287.487 43.0207 287.487 42.52C287.487 42.0193 287.081 41.6133 286.58 41.6133V43.4267ZM281.82 46.1467C283.458 46.1467 284.297 45.1461 284.882 44.477C285.487 43.7861 285.838 43.4267 286.58 43.4267V41.6133C284.942 41.6133 284.103 42.6139 283.518 43.283C282.913 43.9739 282.562 44.3333 281.82 44.3333V46.1467Z" fill="#FF0090"/>
</svg>
