<svg width="198" height="81" viewBox="0 0 198 81" fill="none" xmlns="http://www.w3.org/2000/svg">
<path d="M42.5146 26.72V29.72H20.6746V22.19H37.9846V20.63H20.6746V17.6H41.9746V25.13H24.6346V26.72H42.5146ZM45.3346 8.51V12.26H41.9746V16.58H37.9846V3.8H41.9746V8.51H45.3346ZM23.3446 10.22C23.3446 12.05 24.6646 13.28 26.4946 13.28C28.3246 13.28 29.7046 12.05 29.7046 10.22C29.7046 8.39 28.3246 7.16 26.4946 7.16C24.6646 7.16 23.3446 8.39 23.3446 10.22ZM19.4146 10.22C19.4146 6.47 22.4146 3.8 26.4946 3.8C30.6046 3.8 33.6346 6.47 33.6346 10.22C33.6346 13.94 30.6046 16.61 26.4946 16.61C22.4146 16.61 19.4146 13.94 19.4146 10.22ZM71.1463 9.59V13.37H67.7863V19.49H63.7963V3.8H67.7863V9.59H71.1463ZM67.7863 20.51V29.57H46.4863V20.51H67.7863ZM50.4463 26.36H63.7963V23.72H50.4463V26.36ZM61.5763 15.41V18.59H45.9163V9.8H55.8163V7.4H45.9163V4.22H59.6563V12.92H49.7563V15.41H61.5763ZM85.258 4.22V18.44H71.728V4.22H85.258ZM75.538 15.14H81.448V7.58H75.538V15.14ZM94.138 25.94V29.57H72.298V21.05H76.258V25.94H94.138ZM96.958 10.91V14.69H93.598V23H89.608V3.8H93.598V10.91H96.958ZM117.26 4.22V17.93H103.4V4.22H107.21V7.85H113.48V4.22H117.26ZM107.21 14.63H113.48V11.12H107.21V14.63ZM128.63 9.47V13.25H125.27V18.95H121.28V3.8H125.27V9.47H128.63ZM107.93 26.27H125.54V29.57H103.97V19.85H125.27V23.15H107.93V26.27ZM128.942 20.99V11.84C128.942 6.71 131.762 3.92 136.022 3.92C140.342 3.92 143.162 6.71 143.162 11.84V20.99C143.162 26.09 140.342 28.85 136.022 28.85C131.762 28.85 128.942 26.09 128.942 20.99ZM132.752 11.84V20.99C132.752 23.9 133.922 25.25 136.022 25.25C138.152 25.25 139.322 23.9 139.322 20.99V11.84C139.322 8.96 138.152 7.58 136.022 7.58C133.922 7.58 132.752 8.96 132.752 11.84ZM151.082 17.36V29.72H147.092V3.8H151.082V13.55H154.442V17.36H151.082ZM177.854 14.66V18.32H155.294V4.22H177.584V7.88H159.284V14.66H177.854ZM178.844 25.07V28.73H154.034V25.07H164.294V19.61H168.494V25.07H178.844Z" fill="white"/>
<path d="M42.5146 26.72V29.72H20.6746V22.19H37.9846V20.63H20.6746V17.6H41.9746V25.13H24.6346V26.72H42.5146ZM45.3346 8.51V12.26H41.9746V16.58H37.9846V3.8H41.9746V8.51H45.3346ZM23.3446 10.22C23.3446 12.05 24.6646 13.28 26.4946 13.28C28.3246 13.28 29.7046 12.05 29.7046 10.22C29.7046 8.39 28.3246 7.16 26.4946 7.16C24.6646 7.16 23.3446 8.39 23.3446 10.22ZM19.4146 10.22C19.4146 6.47 22.4146 3.8 26.4946 3.8C30.6046 3.8 33.6346 6.47 33.6346 10.22C33.6346 13.94 30.6046 16.61 26.4946 16.61C22.4146 16.61 19.4146 13.94 19.4146 10.22ZM71.1463 9.59V13.37H67.7863V19.49H63.7963V3.8H67.7863V9.59H71.1463ZM67.7863 20.51V29.57H46.4863V20.51H67.7863ZM50.4463 26.36H63.7963V23.72H50.4463V26.36ZM61.5763 15.41V18.59H45.9163V9.8H55.8163V7.4H45.9163V4.22H59.6563V12.92H49.7563V15.41H61.5763ZM85.258 4.22V18.44H71.728V4.22H85.258ZM75.538 15.14H81.448V7.58H75.538V15.14ZM94.138 25.94V29.57H72.298V21.05H76.258V25.94H94.138ZM96.958 10.91V14.69H93.598V23H89.608V3.8H93.598V10.91H96.958ZM117.26 4.22V17.93H103.4V4.22H107.21V7.85H113.48V4.22H117.26ZM107.21 14.63H113.48V11.12H107.21V14.63ZM128.63 9.47V13.25H125.27V18.95H121.28V3.8H125.27V9.47H128.63ZM107.93 26.27H125.54V29.57H103.97V19.85H125.27V23.15H107.93V26.27ZM128.942 20.99V11.84C128.942 6.71 131.762 3.92 136.022 3.92C140.342 3.92 143.162 6.71 143.162 11.84V20.99C143.162 26.09 140.342 28.85 136.022 28.85C131.762 28.85 128.942 26.09 128.942 20.99ZM132.752 11.84V20.99C132.752 23.9 133.922 25.25 136.022 25.25C138.152 25.25 139.322 23.9 139.322 20.99V11.84C139.322 8.96 138.152 7.58 136.022 7.58C133.922 7.58 132.752 8.96 132.752 11.84ZM151.082 17.36V29.72H147.092V3.8H151.082V13.55H154.442V17.36H151.082ZM177.854 14.66V18.32H155.294V4.22H177.584V7.88H159.284V14.66H177.854ZM178.844 25.07V28.73H154.034V25.07H164.294V19.61H168.494V25.07H178.844Z" fill="url(#paint0_linear_1695_1076)"/>
<path d="M31.7721 63.424H26.7181V59.624H3.53807V55.064H26.7181V49.972H3.53807V45.412H31.7721V63.424ZM33.3681 65.21V69.884H20.3341V78.054H14.9761V69.884H1.94207V65.21H33.3681ZM65.5689 73.076V77.522H36.9929V68.858H42.0469V73.076H65.5689ZM65.2269 45.412V49.592H36.9929V45.412H65.2269ZM46.8349 55.672H54.3969L55.6509 50.808H60.8189C60.4389 52.442 60.0209 54 59.6029 55.672H65.5689V59.662H53.5229V62.664H66.8229V66.996H35.3969V62.664H48.4689V59.662H36.6509V55.672H41.7809V50.808H46.8349V55.672ZM76.5791 69.656L86.8771 59.016C87.5104 58.3827 88.0171 57.8 88.3971 57.268C88.7771 56.736 89.0558 56.242 89.2331 55.786C89.4104 55.3047 89.4991 54.8233 89.4991 54.342C89.4991 53.3033 89.1571 52.4927 88.4731 51.91C87.8144 51.302 86.9404 50.998 85.8511 50.998C84.7871 50.998 83.8244 51.2893 82.9631 51.872C82.1271 52.4293 81.3164 53.354 80.5311 54.646L76.5411 51.188C77.6051 49.3893 78.9604 48.034 80.6071 47.122C82.2538 46.21 84.1411 45.754 86.2691 45.754C88.1184 45.754 89.7144 46.096 91.0571 46.78C92.4251 47.464 93.4764 48.4393 94.2111 49.706C94.9711 50.9727 95.3511 52.4547 95.3511 54.152C95.3511 55.216 95.2118 56.204 94.9331 57.116C94.6544 58.0027 94.1984 58.8893 93.5651 59.776C92.9571 60.6373 92.1338 61.5873 91.0951 62.626L83.9511 69.732L76.5791 69.656ZM76.5791 73V69.656L81.6331 67.908H95.8831V73H76.5791ZM109.048 73.418C106.895 73.418 104.944 72.8353 103.196 71.67C101.448 70.5047 100.068 68.8833 99.0543 66.806C98.0663 64.7033 97.5723 62.284 97.5723 59.548C97.5723 56.7867 98.0663 54.38 99.0543 52.328C100.042 50.2507 101.398 48.642 103.12 47.502C104.843 46.3367 106.794 45.754 108.972 45.754C111.176 45.754 113.14 46.3367 114.862 47.502C116.585 48.642 117.94 50.2507 118.928 52.328C119.942 54.4053 120.448 56.8247 120.448 59.586C120.448 62.3473 119.942 64.7667 118.928 66.844C117.94 68.9213 116.585 70.5427 114.862 71.708C113.165 72.848 111.227 73.418 109.048 73.418ZM109.01 68.136C110.125 68.136 111.088 67.8193 111.898 67.186C112.709 66.5273 113.33 65.5647 113.76 64.298C114.216 63.006 114.444 61.4353 114.444 59.586C114.444 57.7113 114.216 56.1407 113.76 54.874C113.33 53.6073 112.709 52.6573 111.898 52.024C111.088 51.3653 110.112 51.036 108.972 51.036C107.883 51.036 106.92 51.3527 106.084 51.986C105.274 52.6193 104.653 53.5693 104.222 54.836C103.792 56.1027 103.576 57.6733 103.576 59.548C103.576 61.4227 103.792 62.9933 104.222 64.26C104.653 65.5267 105.274 66.4893 106.084 67.148C106.92 67.8067 107.896 68.136 109.01 68.136ZM140.665 45.412V63.424H123.527V45.412H140.665ZM128.353 59.244H135.839V49.668H128.353V59.244ZM151.913 72.924V77.522H124.249V66.73H129.265V72.924H151.913ZM155.485 53.886V58.674H151.229V69.2H146.175V44.88H151.229V53.886H155.485ZM180.352 68.402H172.828V64.526H180.352V44.88H185.368V70.34H180.352V68.402ZM186.09 73.038V77.522H158.046V68.592H163.1V73.038H186.09ZM168.23 57.572H164.316C159.49 57.572 156.64 55.102 156.64 51.226C156.64 47.388 159.49 44.88 164.316 44.88H168.23C173.056 44.88 175.906 47.388 175.906 51.226C175.906 55.102 173.056 57.572 168.23 57.572ZM164.316 53.582H168.23C169.902 53.582 171.08 52.746 171.08 51.226C171.08 49.706 169.902 48.908 168.23 48.908H164.316C162.606 48.908 161.466 49.706 161.466 51.226C161.466 52.746 162.606 53.582 164.316 53.582ZM177.464 59.054V63.082H167.204V67.908H162.15V63.082H155.728V59.054H177.464ZM190.095 44.348H195.111V67.376H190.095V44.348ZM195.491 77.142H189.715V71.48H195.491V77.142Z" fill="white"/>
<path d="M31.7721 63.424H26.7181V59.624H3.53807V55.064H26.7181V49.972H3.53807V45.412H31.7721V63.424ZM33.3681 65.21V69.884H20.3341V78.054H14.9761V69.884H1.94207V65.21H33.3681ZM65.5689 73.076V77.522H36.9929V68.858H42.0469V73.076H65.5689ZM65.2269 45.412V49.592H36.9929V45.412H65.2269ZM46.8349 55.672H54.3969L55.6509 50.808H60.8189C60.4389 52.442 60.0209 54 59.6029 55.672H65.5689V59.662H53.5229V62.664H66.8229V66.996H35.3969V62.664H48.4689V59.662H36.6509V55.672H41.7809V50.808H46.8349V55.672ZM76.5791 69.656L86.8771 59.016C87.5104 58.3827 88.0171 57.8 88.3971 57.268C88.7771 56.736 89.0558 56.242 89.2331 55.786C89.4104 55.3047 89.4991 54.8233 89.4991 54.342C89.4991 53.3033 89.1571 52.4927 88.4731 51.91C87.8144 51.302 86.9404 50.998 85.8511 50.998C84.7871 50.998 83.8244 51.2893 82.9631 51.872C82.1271 52.4293 81.3164 53.354 80.5311 54.646L76.5411 51.188C77.6051 49.3893 78.9604 48.034 80.6071 47.122C82.2538 46.21 84.1411 45.754 86.2691 45.754C88.1184 45.754 89.7144 46.096 91.0571 46.78C92.4251 47.464 93.4764 48.4393 94.2111 49.706C94.9711 50.9727 95.3511 52.4547 95.3511 54.152C95.3511 55.216 95.2118 56.204 94.9331 57.116C94.6544 58.0027 94.1984 58.8893 93.5651 59.776C92.9571 60.6373 92.1338 61.5873 91.0951 62.626L83.9511 69.732L76.5791 69.656ZM76.5791 73V69.656L81.6331 67.908H95.8831V73H76.5791ZM109.048 73.418C106.895 73.418 104.944 72.8353 103.196 71.67C101.448 70.5047 100.068 68.8833 99.0543 66.806C98.0663 64.7033 97.5723 62.284 97.5723 59.548C97.5723 56.7867 98.0663 54.38 99.0543 52.328C100.042 50.2507 101.398 48.642 103.12 47.502C104.843 46.3367 106.794 45.754 108.972 45.754C111.176 45.754 113.14 46.3367 114.862 47.502C116.585 48.642 117.94 50.2507 118.928 52.328C119.942 54.4053 120.448 56.8247 120.448 59.586C120.448 62.3473 119.942 64.7667 118.928 66.844C117.94 68.9213 116.585 70.5427 114.862 71.708C113.165 72.848 111.227 73.418 109.048 73.418ZM109.01 68.136C110.125 68.136 111.088 67.8193 111.898 67.186C112.709 66.5273 113.33 65.5647 113.76 64.298C114.216 63.006 114.444 61.4353 114.444 59.586C114.444 57.7113 114.216 56.1407 113.76 54.874C113.33 53.6073 112.709 52.6573 111.898 52.024C111.088 51.3653 110.112 51.036 108.972 51.036C107.883 51.036 106.92 51.3527 106.084 51.986C105.274 52.6193 104.653 53.5693 104.222 54.836C103.792 56.1027 103.576 57.6733 103.576 59.548C103.576 61.4227 103.792 62.9933 104.222 64.26C104.653 65.5267 105.274 66.4893 106.084 67.148C106.92 67.8067 107.896 68.136 109.01 68.136ZM140.665 45.412V63.424H123.527V45.412H140.665ZM128.353 59.244H135.839V49.668H128.353V59.244ZM151.913 72.924V77.522H124.249V66.73H129.265V72.924H151.913ZM155.485 53.886V58.674H151.229V69.2H146.175V44.88H151.229V53.886H155.485ZM180.352 68.402H172.828V64.526H180.352V44.88H185.368V70.34H180.352V68.402ZM186.09 73.038V77.522H158.046V68.592H163.1V73.038H186.09ZM168.23 57.572H164.316C159.49 57.572 156.64 55.102 156.64 51.226C156.64 47.388 159.49 44.88 164.316 44.88H168.23C173.056 44.88 175.906 47.388 175.906 51.226C175.906 55.102 173.056 57.572 168.23 57.572ZM164.316 53.582H168.23C169.902 53.582 171.08 52.746 171.08 51.226C171.08 49.706 169.902 48.908 168.23 48.908H164.316C162.606 48.908 161.466 49.706 161.466 51.226C161.466 52.746 162.606 53.582 164.316 53.582ZM177.464 59.054V63.082H167.204V67.908H162.15V63.082H155.728V59.054H177.464ZM190.095 44.348H195.111V67.376H190.095V44.348ZM195.491 77.142H189.715V71.48H195.491V77.142Z" fill="url(#paint1_linear_1695_1076)"/>
<path d="M31.7721 63.424H26.7181V59.624H3.53807V55.064H26.7181V49.972H3.53807V45.412H31.7721V63.424ZM33.3681 65.21V69.884H20.3341V78.054H14.9761V69.884H1.94207V65.21H33.3681ZM65.5689 73.076V77.522H36.9929V68.858H42.0469V73.076H65.5689ZM65.2269 45.412V49.592H36.9929V45.412H65.2269ZM46.8349 55.672H54.3969L55.6509 50.808H60.8189C60.4389 52.442 60.0209 54 59.6029 55.672H65.5689V59.662H53.5229V62.664H66.8229V66.996H35.3969V62.664H48.4689V59.662H36.6509V55.672H41.7809V50.808H46.8349V55.672ZM76.5791 69.656L86.8771 59.016C87.5104 58.3827 88.0171 57.8 88.3971 57.268C88.7771 56.736 89.0558 56.242 89.2331 55.786C89.4104 55.3047 89.4991 54.8233 89.4991 54.342C89.4991 53.3033 89.1571 52.4927 88.4731 51.91C87.8144 51.302 86.9404 50.998 85.8511 50.998C84.7871 50.998 83.8244 51.2893 82.9631 51.872C82.1271 52.4293 81.3164 53.354 80.5311 54.646L76.5411 51.188C77.6051 49.3893 78.9604 48.034 80.6071 47.122C82.2538 46.21 84.1411 45.754 86.2691 45.754C88.1184 45.754 89.7144 46.096 91.0571 46.78C92.4251 47.464 93.4764 48.4393 94.2111 49.706C94.9711 50.9727 95.3511 52.4547 95.3511 54.152C95.3511 55.216 95.2118 56.204 94.9331 57.116C94.6544 58.0027 94.1984 58.8893 93.5651 59.776C92.9571 60.6373 92.1338 61.5873 91.0951 62.626L83.9511 69.732L76.5791 69.656ZM76.5791 73V69.656L81.6331 67.908H95.8831V73H76.5791ZM109.048 73.418C106.895 73.418 104.944 72.8353 103.196 71.67C101.448 70.5047 100.068 68.8833 99.0543 66.806C98.0663 64.7033 97.5723 62.284 97.5723 59.548C97.5723 56.7867 98.0663 54.38 99.0543 52.328C100.042 50.2507 101.398 48.642 103.12 47.502C104.843 46.3367 106.794 45.754 108.972 45.754C111.176 45.754 113.14 46.3367 114.862 47.502C116.585 48.642 117.94 50.2507 118.928 52.328C119.942 54.4053 120.448 56.8247 120.448 59.586C120.448 62.3473 119.942 64.7667 118.928 66.844C117.94 68.9213 116.585 70.5427 114.862 71.708C113.165 72.848 111.227 73.418 109.048 73.418ZM109.01 68.136C110.125 68.136 111.088 67.8193 111.898 67.186C112.709 66.5273 113.33 65.5647 113.76 64.298C114.216 63.006 114.444 61.4353 114.444 59.586C114.444 57.7113 114.216 56.1407 113.76 54.874C113.33 53.6073 112.709 52.6573 111.898 52.024C111.088 51.3653 110.112 51.036 108.972 51.036C107.883 51.036 106.92 51.3527 106.084 51.986C105.274 52.6193 104.653 53.5693 104.222 54.836C103.792 56.1027 103.576 57.6733 103.576 59.548C103.576 61.4227 103.792 62.9933 104.222 64.26C104.653 65.5267 105.274 66.4893 106.084 67.148C106.92 67.8067 107.896 68.136 109.01 68.136ZM140.665 45.412V63.424H123.527V45.412H140.665ZM128.353 59.244H135.839V49.668H128.353V59.244ZM151.913 72.924V77.522H124.249V66.73H129.265V72.924H151.913ZM155.485 53.886V58.674H151.229V69.2H146.175V44.88H151.229V53.886H155.485ZM180.352 68.402H172.828V64.526H180.352V44.88H185.368V70.34H180.352V68.402ZM186.09 73.038V77.522H158.046V68.592H163.1V73.038H186.09ZM168.23 57.572H164.316C159.49 57.572 156.64 55.102 156.64 51.226C156.64 47.388 159.49 44.88 164.316 44.88H168.23C173.056 44.88 175.906 47.388 175.906 51.226C175.906 55.102 173.056 57.572 168.23 57.572ZM164.316 53.582H168.23C169.902 53.582 171.08 52.746 171.08 51.226C171.08 49.706 169.902 48.908 168.23 48.908H164.316C162.606 48.908 161.466 49.706 161.466 51.226C161.466 52.746 162.606 53.582 164.316 53.582ZM177.464 59.054V63.082H167.204V67.908H162.15V63.082H155.728V59.054H177.464ZM190.095 44.348H195.111V67.376H190.095V44.348ZM195.491 77.142H189.715V71.48H195.491V77.142Z" fill="#F601BC"/>
<defs>
<linearGradient id="paint0_linear_1695_1076" x1="108.667" y1="5.25" x2="108.667" y2="33" gradientUnits="userSpaceOnUse">
<stop stop-color="#FFE3F8"/>
<stop offset="1" stop-color="#F601BC"/>
</linearGradient>
<linearGradient id="paint1_linear_1695_1076" x1="110.755" y1="44" x2="110.755" y2="81" gradientUnits="userSpaceOnUse">
<stop stop-color="#FFE3F8"/>
<stop offset="1" stop-color="#F601BC"/>
</linearGradient>
</defs>
</svg>
