<svg width="276" height="69" viewBox="0 0 276 69" fill="none" xmlns="http://www.w3.org/2000/svg">
<path d="M93.3117 18.576V20.976H75.8397V14.952H89.6877V13.704H75.8397V11.28H92.8797V17.304H79.0077V18.576H93.3117ZM95.5677 4.008V7.008H92.8797V10.464H89.6877V0.24H92.8797V4.008H95.5677ZM77.9757 5.376C77.9757 6.84 79.0317 7.824 80.4957 7.824C81.9597 7.824 83.0637 6.84 83.0637 5.376C83.0637 3.912 81.9597 2.928 80.4957 2.928C79.0317 2.928 77.9757 3.912 77.9757 5.376ZM74.8317 5.376C74.8317 2.376 77.2317 0.24 80.4957 0.24C83.7837 0.24 86.2077 2.376 86.2077 5.376C86.2077 8.352 83.7837 10.488 80.4957 10.488C77.2317 10.488 74.8317 8.352 74.8317 5.376ZM116.217 4.872V7.896H113.529V12.792H110.337V0.24H113.529V4.872H116.217ZM113.529 13.608V20.856H96.489V13.608H113.529ZM99.657 18.288H110.337V16.176H99.657V18.288ZM108.561 9.528V12.072H96.033V5.04H103.953V3.12H96.033V0.576H107.025V7.536H99.105V9.528H108.561ZM127.506 0.576V11.952H116.682V0.576H127.506ZM119.73 9.312H124.458V3.264H119.73V9.312ZM134.61 17.952V20.856H117.138V14.04H120.306V17.952H134.61ZM136.866 5.928V8.952H134.178V15.6H130.986V0.24H134.178V5.928H136.866ZM153.108 0.576V11.544H142.02V0.576H145.068V3.48H150.084V0.576H153.108ZM145.068 8.904H150.084V6.096H145.068V8.904ZM162.204 4.776V7.8H159.516V12.36H156.324V0.24H159.516V4.776H162.204ZM145.644 18.216H159.732V20.856H142.476V13.08H159.516V15.72H145.644V18.216ZM162.454 13.992V6.672C162.454 2.568 164.71 0.335999 168.118 0.335999C171.574 0.335999 173.83 2.568 173.83 6.672V13.992C173.83 18.072 171.574 20.28 168.118 20.28C164.71 20.28 162.454 18.072 162.454 13.992ZM165.502 6.672V13.992C165.502 16.32 166.438 17.4 168.118 17.4C169.822 17.4 170.758 16.32 170.758 13.992V6.672C170.758 4.368 169.822 3.264 168.118 3.264C166.438 3.264 165.502 4.368 165.502 6.672ZM180.166 11.088V20.976H176.974V0.24H180.166V8.04H182.854V11.088H180.166ZM201.583 8.928V11.856H183.535V0.576H201.367V3.504H186.727V8.928H201.583ZM202.375 17.256V20.184H182.527V17.256H190.735V12.888H194.095V17.256H202.375Z" fill="#DFDFDF"/>
<path d="M30.645 52.424H25.591V48.624H2.41096V44.064H25.591V38.972H2.41096V34.412H30.645V52.424ZM32.241 54.21V58.884H19.207V67.054H13.849V58.884H0.814961V54.21H32.241ZM64.4418 62.076V66.522H35.8658V57.858H40.9198V62.076H64.4418ZM64.0998 34.412V38.592H35.8658V34.412H64.0998ZM45.7078 44.672H53.2698L54.5238 39.808H59.6918C59.3118 41.442 58.8938 43 58.4758 44.672H64.4418V48.662H52.3958V51.664H65.6958V55.996H34.2698V51.664H47.3418V48.662H35.5238V44.672H40.6538V39.808H45.7078V44.672ZM75.5 58.48L86.34 47.28C87.0067 46.6133 87.54 46 87.94 45.44C88.34 44.88 88.6333 44.36 88.82 43.88C89.0067 43.3733 89.1 42.8667 89.1 42.36C89.1 41.2667 88.74 40.4133 88.02 39.8C87.3267 39.16 86.4067 38.84 85.26 38.84C84.14 38.84 83.1267 39.1467 82.22 39.76C81.34 40.3467 80.4867 41.32 79.66 42.68L75.46 39.04C76.58 37.1467 78.0067 35.72 79.74 34.76C81.4733 33.8 83.46 33.32 85.7 33.32C87.6467 33.32 89.3267 33.68 90.74 34.4C92.18 35.12 93.2867 36.1467 94.06 37.48C94.86 38.8133 95.26 40.3733 95.26 42.16C95.26 43.28 95.1133 44.32 94.82 45.28C94.5267 46.2133 94.0467 47.1467 93.38 48.08C92.74 48.9867 91.8733 49.9867 90.78 51.08L83.26 58.56L75.5 58.48ZM75.5 62V58.48L80.82 56.64H95.82V62H75.5ZM109.678 62.44C107.411 62.44 105.358 61.8267 103.518 60.6C101.678 59.3733 100.225 57.6667 99.1581 55.48C98.1181 53.2667 97.5981 50.72 97.5981 47.84C97.5981 44.9333 98.1181 42.4 99.1581 40.24C100.198 38.0533 101.625 36.36 103.438 35.16C105.251 33.9333 107.305 33.32 109.598 33.32C111.918 33.32 113.985 33.9333 115.798 35.16C117.611 36.36 119.038 38.0533 120.078 40.24C121.145 42.4267 121.678 44.9733 121.678 47.88C121.678 50.7867 121.145 53.3333 120.078 55.52C119.038 57.7067 117.611 59.4133 115.798 60.64C114.011 61.84 111.971 62.44 109.678 62.44ZM109.638 56.88C110.811 56.88 111.825 56.5467 112.678 55.88C113.531 55.1867 114.185 54.1733 114.638 52.84C115.118 51.48 115.358 49.8267 115.358 47.88C115.358 45.9067 115.118 44.2533 114.638 42.92C114.185 41.5867 113.531 40.5867 112.678 39.92C111.825 39.2267 110.798 38.88 109.598 38.88C108.451 38.88 107.438 39.2133 106.558 39.88C105.705 40.5467 105.051 41.5467 104.598 42.88C104.145 44.2133 103.918 45.8667 103.918 47.84C103.918 49.8133 104.145 51.4667 104.598 52.8C105.051 54.1333 105.705 55.1467 106.558 55.84C107.438 56.5333 108.465 56.88 109.638 56.88ZM135.519 62.44C133.252 62.44 131.199 61.8267 129.359 60.6C127.519 59.3733 126.065 57.6667 124.999 55.48C123.959 53.2667 123.439 50.72 123.439 47.84C123.439 44.9333 123.959 42.4 124.999 40.24C126.039 38.0533 127.465 36.36 129.279 35.16C131.092 33.9333 133.145 33.32 135.439 33.32C137.759 33.32 139.825 33.9333 141.639 35.16C143.452 36.36 144.879 38.0533 145.919 40.24C146.985 42.4267 147.519 44.9733 147.519 47.88C147.519 50.7867 146.985 53.3333 145.919 55.52C144.879 57.7067 143.452 59.4133 141.639 60.64C139.852 61.84 137.812 62.44 135.519 62.44ZM135.479 56.88C136.652 56.88 137.665 56.5467 138.519 55.88C139.372 55.1867 140.025 54.1733 140.479 52.84C140.959 51.48 141.199 49.8267 141.199 47.88C141.199 45.9067 140.959 44.2533 140.479 42.92C140.025 41.5867 139.372 40.5867 138.519 39.92C137.665 39.2267 136.639 38.88 135.439 38.88C134.292 38.88 133.279 39.2133 132.399 39.88C131.545 40.5467 130.892 41.5467 130.439 42.88C129.985 44.2133 129.759 45.8667 129.759 47.84C129.759 49.8133 129.985 51.4667 130.439 52.8C130.892 54.1333 131.545 55.1467 132.399 55.84C133.279 56.5333 134.305 56.88 135.479 56.88ZM149.378 66.8L152.298 61.36L154.098 60.84C153.911 61.24 153.685 61.5733 153.418 61.84C153.151 62.08 152.845 62.2 152.498 62.2C151.725 62.2 151.018 61.88 150.378 61.24C149.738 60.6 149.418 59.8 149.418 58.84C149.418 57.8 149.765 56.9067 150.458 56.16C151.178 55.4133 152.058 55.04 153.098 55.04C154.085 55.04 154.938 55.4133 155.658 56.16C156.405 56.88 156.778 57.7733 156.778 58.84C156.778 59.2667 156.698 59.76 156.538 60.32C156.378 60.88 156.058 61.6133 155.578 62.52L152.338 68.44L149.378 66.8ZM170.325 62.44C168.058 62.44 166.005 61.8267 164.165 60.6C162.325 59.3733 160.872 57.6667 159.805 55.48C158.765 53.2667 158.245 50.72 158.245 47.84C158.245 44.9333 158.765 42.4 159.805 40.24C160.845 38.0533 162.272 36.36 164.085 35.16C165.898 33.9333 167.952 33.32 170.245 33.32C172.565 33.32 174.632 33.9333 176.445 35.16C178.258 36.36 179.685 38.0533 180.725 40.24C181.792 42.4267 182.325 44.9733 182.325 47.88C182.325 50.7867 181.792 53.3333 180.725 55.52C179.685 57.7067 178.258 59.4133 176.445 60.64C174.658 61.84 172.618 62.44 170.325 62.44ZM170.285 56.88C171.458 56.88 172.472 56.5467 173.325 55.88C174.178 55.1867 174.832 54.1733 175.285 52.84C175.765 51.48 176.005 49.8267 176.005 47.88C176.005 45.9067 175.765 44.2533 175.285 42.92C174.832 41.5867 174.178 40.5867 173.325 39.92C172.472 39.2267 171.445 38.88 170.245 38.88C169.098 38.88 168.085 39.2133 167.205 39.88C166.352 40.5467 165.698 41.5467 165.245 42.88C164.792 44.2133 164.565 45.8667 164.565 47.84C164.565 49.8133 164.792 51.4667 165.245 52.8C165.698 54.1333 166.352 55.1467 167.205 55.84C168.085 56.5333 169.112 56.88 170.285 56.88ZM196.166 62.44C193.899 62.44 191.846 61.8267 190.006 60.6C188.166 59.3733 186.712 57.6667 185.646 55.48C184.606 53.2667 184.086 50.72 184.086 47.84C184.086 44.9333 184.606 42.4 185.646 40.24C186.686 38.0533 188.112 36.36 189.926 35.16C191.739 33.9333 193.792 33.32 196.086 33.32C198.406 33.32 200.472 33.9333 202.286 35.16C204.099 36.36 205.526 38.0533 206.566 40.24C207.632 42.4267 208.166 44.9733 208.166 47.88C208.166 50.7867 207.632 53.3333 206.566 55.52C205.526 57.7067 204.099 59.4133 202.286 60.64C200.499 61.84 198.459 62.44 196.166 62.44ZM196.126 56.88C197.299 56.88 198.312 56.5467 199.166 55.88C200.019 55.1867 200.672 54.1733 201.126 52.84C201.606 51.48 201.846 49.8267 201.846 47.88C201.846 45.9067 201.606 44.2533 201.126 42.92C200.672 41.5867 200.019 40.5867 199.166 39.92C198.312 39.2267 197.286 38.88 196.086 38.88C194.939 38.88 193.926 39.2133 193.046 39.88C192.192 40.5467 191.539 41.5467 191.086 42.88C190.632 44.2133 190.406 45.8667 190.406 47.84C190.406 49.8133 190.632 51.4667 191.086 52.8C191.539 54.1333 192.192 55.1467 193.046 55.84C193.926 56.5333 194.952 56.88 196.126 56.88ZM222.006 62.44C219.74 62.44 217.686 61.8267 215.846 60.6C214.006 59.3733 212.553 57.6667 211.486 55.48C210.446 53.2667 209.926 50.72 209.926 47.84C209.926 44.9333 210.446 42.4 211.486 40.24C212.526 38.0533 213.953 36.36 215.766 35.16C217.58 33.9333 219.633 33.32 221.926 33.32C224.246 33.32 226.313 33.9333 228.126 35.16C229.94 36.36 231.366 38.0533 232.406 40.24C233.473 42.4267 234.006 44.9733 234.006 47.88C234.006 50.7867 233.473 53.3333 232.406 55.52C231.366 57.7067 229.94 59.4133 228.126 60.64C226.34 61.84 224.3 62.44 222.006 62.44ZM221.966 56.88C223.14 56.88 224.153 56.5467 225.006 55.88C225.86 55.1867 226.513 54.1733 226.966 52.84C227.446 51.48 227.686 49.8267 227.686 47.88C227.686 45.9067 227.446 44.2533 226.966 42.92C226.513 41.5867 225.86 40.5867 225.006 39.92C224.153 39.2267 223.126 38.88 221.926 38.88C220.78 38.88 219.766 39.2133 218.886 39.88C218.033 40.5467 217.38 41.5467 216.926 42.88C216.473 44.2133 216.246 45.8667 216.246 47.84C216.246 49.8133 216.473 51.4667 216.926 52.8C217.38 54.1333 218.033 55.1467 218.886 55.84C219.766 56.5333 220.793 56.88 221.966 56.88ZM260.479 57.402H252.955V53.526H260.479V33.88H265.495V59.34H260.479V57.402ZM266.217 62.038V66.522H238.173V57.592H243.227V62.038H266.217ZM248.357 46.572H244.443C239.617 46.572 236.767 44.102 236.767 40.226C236.767 36.388 239.617 33.88 244.443 33.88H248.357C253.183 33.88 256.033 36.388 256.033 40.226C256.033 44.102 253.183 46.572 248.357 46.572ZM244.443 42.582H248.357C250.029 42.582 251.207 41.746 251.207 40.226C251.207 38.706 250.029 37.908 248.357 37.908H244.443C242.733 37.908 241.593 38.706 241.593 40.226C241.593 41.746 242.733 42.582 244.443 42.582ZM257.591 48.054V52.082H247.331V56.908H242.277V52.082H235.855V48.054H257.591ZM270.222 33.348H275.238V56.376H270.222V33.348ZM275.618 66.142H269.842V60.48H275.618V66.142Z" fill="url(#paint0_linear_1543_1020)"/>
<defs>
<linearGradient id="paint0_linear_1543_1020" x1="155.148" y1="34" x2="155.148" y2="67.2" gradientUnits="userSpaceOnUse">
<stop stop-color="#FFEEC0"/>
<stop offset="1" stop-color="#9A5F00"/>
</linearGradient>
</defs>
</svg>
