<svg width="243" height="71" viewBox="0 0 243 71" fill="none" xmlns="http://www.w3.org/2000/svg">
<path d="M78.1945 18.552V20.852H61.4505V15.079H74.7215V13.883H61.4505V11.56H77.7805V17.333H64.4865V18.552H78.1945ZM80.3565 4.591V7.466H77.7805V10.778H74.7215V0.98H77.7805V4.591H80.3565ZM63.4975 5.902C63.4975 7.305 64.5095 8.248 65.9125 8.248C67.3155 8.248 68.3735 7.305 68.3735 5.902C68.3735 4.499 67.3155 3.556 65.9125 3.556C64.5095 3.556 63.4975 4.499 63.4975 5.902ZM60.4845 5.902C60.4845 3.027 62.7845 0.98 65.9125 0.98C69.0635 0.98 71.3865 3.027 71.3865 5.902C71.3865 8.754 69.0635 10.801 65.9125 10.801C62.7845 10.801 60.4845 8.754 60.4845 5.902ZM100.145 5.419V8.317H97.5695V13.009H94.5105V0.98H97.5695V5.419H100.145ZM97.5695 13.791V20.737H81.2395V13.791H97.5695ZM84.2755 18.276H94.5105V16.252H84.2755V18.276ZM92.8085 9.881V12.319H80.8025V5.58H88.3925V3.74H80.8025V1.302H91.3365V7.972H83.7465V9.881H92.8085ZM110.964 1.302V12.204H100.591V1.302H110.964ZM103.512 9.674H108.043V3.878H103.512V9.674ZM117.772 17.954V20.737H101.028V14.205H104.064V17.954H117.772ZM119.934 6.431V9.329H117.358V15.7H114.299V0.98H117.358V6.431H119.934ZM135.5 1.302V11.813H124.874V1.302H127.795V4.085H132.602V1.302H135.5ZM127.795 9.283H132.602V6.592H127.795V9.283ZM144.217 5.327V8.225H141.641V12.595H138.582V0.98H141.641V5.327H144.217ZM128.347 18.207H141.848V20.737H125.311V13.285H141.641V15.815H128.347V18.207ZM144.456 14.159V7.144C144.456 3.211 146.618 1.072 149.884 1.072C153.196 1.072 155.358 3.211 155.358 7.144V14.159C155.358 18.069 153.196 20.185 149.884 20.185C146.618 20.185 144.456 18.069 144.456 14.159ZM147.377 7.144V14.159C147.377 16.39 148.274 17.425 149.884 17.425C151.517 17.425 152.414 16.39 152.414 14.159V7.144C152.414 4.936 151.517 3.878 149.884 3.878C148.274 3.878 147.377 4.936 147.377 7.144ZM161.43 11.376V20.852H158.371V0.98H161.43V8.455H164.006V11.376H161.43ZM181.955 9.306V12.112H164.659V1.302H181.748V4.108H167.718V9.306H181.955ZM182.714 17.287V20.093H163.693V17.287H171.559V13.101H174.779V17.287H182.714Z" fill="#DFDFDF"/>
<path d="M0.836409 62V33.76H5.23641L7.11641 39.4V62H0.836409ZM20.3164 62L3.67641 40.68L5.23641 33.76L21.8764 55.08L20.3164 62ZM20.3164 62L18.6364 56.36V33.76H24.9164V62H20.3164ZM41.1848 51.72V46.84H47.2648C48.0382 46.84 48.7448 46.68 49.3848 46.36C50.0248 46.04 50.5315 45.5733 50.9048 44.96C51.2782 44.3467 51.4648 43.6 51.4648 42.72C51.4648 41.8667 51.2782 41.1333 50.9048 40.52C50.5315 39.9067 50.0248 39.44 49.3848 39.12C48.7448 38.8 48.0382 38.64 47.2648 38.64H41.1848V33.76H48.1848C49.9715 33.76 51.5848 34.12 53.0248 34.84C54.4648 35.56 55.5982 36.6 56.4248 37.96C57.2782 39.2933 57.7048 40.88 57.7048 42.72C57.7048 44.56 57.2782 46.16 56.4248 47.52C55.5982 48.8533 54.4648 49.8933 53.0248 50.64C51.5848 51.36 49.9715 51.72 48.1848 51.72H41.1848ZM36.3848 62V33.76H42.6648V62H36.3848ZM67.4417 62.4C65.6551 62.4 64.0551 61.96 62.6417 61.08C61.2551 60.2 60.1484 59 59.3217 57.48C58.5217 55.96 58.1217 54.2267 58.1217 52.28C58.1217 50.3333 58.5217 48.6 59.3217 47.08C60.1484 45.56 61.2551 44.36 62.6417 43.48C64.0551 42.6 65.6551 42.16 67.4417 42.16C68.7484 42.16 69.9217 42.4133 70.9617 42.92C72.0284 43.4267 72.8951 44.1333 73.5617 45.04C74.2284 45.92 74.6017 46.9333 74.6817 48.08V56.48C74.6017 57.6267 74.2284 58.6533 73.5617 59.56C72.9217 60.44 72.0684 61.1333 71.0017 61.64C69.9351 62.1467 68.7484 62.4 67.4417 62.4ZM68.6817 56.88C69.9884 56.88 71.0417 56.4533 71.8417 55.6C72.6417 54.72 73.0417 53.6133 73.0417 52.28C73.0417 51.3733 72.8551 50.5733 72.4817 49.88C72.1351 49.1867 71.6284 48.6533 70.9617 48.28C70.3217 47.88 69.5751 47.68 68.7217 47.68C67.8684 47.68 67.1084 47.88 66.4417 48.28C65.8017 48.6533 65.2817 49.1867 64.8817 49.88C64.5084 50.5733 64.3217 51.3733 64.3217 52.28C64.3217 53.16 64.5084 53.9467 64.8817 54.64C65.2551 55.3333 65.7751 55.88 66.4417 56.28C67.1084 56.68 67.8551 56.88 68.6817 56.88ZM72.8017 62V56.76L73.7217 52.04L72.8017 47.32V42.56H78.8017V62H72.8017ZM88.3108 62.08L80.3108 42.56H86.9108L91.9908 58.04H89.5508L94.7508 42.56H101.351L93.0308 62.08H88.3108ZM83.3108 70.2L89.1508 57.6L93.0308 62.08L89.5908 70.2H83.3108ZM113.775 62V33.76H120.015V62H113.775ZM108.335 39.08V33.76H119.615V39.08H108.335ZM124.012 66.8L126.932 61.36L128.732 60.84C128.546 61.24 128.319 61.5733 128.052 61.84C127.786 62.08 127.479 62.2 127.132 62.2C126.359 62.2 125.652 61.88 125.012 61.24C124.372 60.6 124.052 59.8 124.052 58.84C124.052 57.8 124.399 56.9067 125.092 56.16C125.812 55.4133 126.692 55.04 127.732 55.04C128.719 55.04 129.572 55.4133 130.292 56.16C131.039 56.88 131.412 57.7733 131.412 58.84C131.412 59.2667 131.332 59.76 131.172 60.32C131.012 60.88 130.692 61.6133 130.212 62.52L126.972 68.44L124.012 66.8ZM144.959 62.44C142.693 62.44 140.639 61.8267 138.799 60.6C136.959 59.3733 135.506 57.6667 134.439 55.48C133.399 53.2667 132.879 50.72 132.879 47.84C132.879 44.9333 133.399 42.4 134.439 40.24C135.479 38.0533 136.906 36.36 138.719 35.16C140.533 33.9333 142.586 33.32 144.879 33.32C147.199 33.32 149.266 33.9333 151.079 35.16C152.893 36.36 154.319 38.0533 155.359 40.24C156.426 42.4267 156.959 44.9733 156.959 47.88C156.959 50.7867 156.426 53.3333 155.359 55.52C154.319 57.7067 152.893 59.4133 151.079 60.64C149.293 61.84 147.253 62.44 144.959 62.44ZM144.919 56.88C146.093 56.88 147.106 56.5467 147.959 55.88C148.813 55.1867 149.466 54.1733 149.919 52.84C150.399 51.48 150.639 49.8267 150.639 47.88C150.639 45.9067 150.399 44.2533 149.919 42.92C149.466 41.5867 148.813 40.5867 147.959 39.92C147.106 39.2267 146.079 38.88 144.879 38.88C143.733 38.88 142.719 39.2133 141.839 39.88C140.986 40.5467 140.333 41.5467 139.879 42.88C139.426 44.2133 139.199 45.8667 139.199 47.84C139.199 49.8133 139.426 51.4667 139.879 52.8C140.333 54.1333 140.986 55.1467 141.839 55.84C142.719 56.5333 143.746 56.88 144.919 56.88ZM170.8 62.44C168.533 62.44 166.48 61.8267 164.64 60.6C162.8 59.3733 161.347 57.6667 160.28 55.48C159.24 53.2667 158.72 50.72 158.72 47.84C158.72 44.9333 159.24 42.4 160.28 40.24C161.32 38.0533 162.747 36.36 164.56 35.16C166.373 33.9333 168.427 33.32 170.72 33.32C173.04 33.32 175.107 33.9333 176.92 35.16C178.733 36.36 180.16 38.0533 181.2 40.24C182.267 42.4267 182.8 44.9733 182.8 47.88C182.8 50.7867 182.267 53.3333 181.2 55.52C180.16 57.7067 178.733 59.4133 176.92 60.64C175.133 61.84 173.093 62.44 170.8 62.44ZM170.76 56.88C171.933 56.88 172.947 56.5467 173.8 55.88C174.653 55.1867 175.307 54.1733 175.76 52.84C176.24 51.48 176.48 49.8267 176.48 47.88C176.48 45.9067 176.24 44.2533 175.76 42.92C175.307 41.5867 174.653 40.5867 173.8 39.92C172.947 39.2267 171.92 38.88 170.72 38.88C169.573 38.88 168.56 39.2133 167.68 39.88C166.827 40.5467 166.173 41.5467 165.72 42.88C165.267 44.2133 165.04 45.8667 165.04 47.84C165.04 49.8133 165.267 51.4667 165.72 52.8C166.173 54.1333 166.827 55.1467 167.68 55.84C168.56 56.5333 169.587 56.88 170.76 56.88ZM196.64 62.44C194.374 62.44 192.32 61.8267 190.48 60.6C188.64 59.3733 187.187 57.6667 186.12 55.48C185.08 53.2667 184.56 50.72 184.56 47.84C184.56 44.9333 185.08 42.4 186.12 40.24C187.16 38.0533 188.587 36.36 190.4 35.16C192.214 33.9333 194.267 33.32 196.56 33.32C198.88 33.32 200.947 33.9333 202.76 35.16C204.574 36.36 206 38.0533 207.04 40.24C208.107 42.4267 208.64 44.9733 208.64 47.88C208.64 50.7867 208.107 53.3333 207.04 55.52C206 57.7067 204.574 59.4133 202.76 60.64C200.974 61.84 198.934 62.44 196.64 62.44ZM196.6 56.88C197.774 56.88 198.787 56.5467 199.64 55.88C200.494 55.1867 201.147 54.1733 201.6 52.84C202.08 51.48 202.32 49.8267 202.32 47.88C202.32 45.9067 202.08 44.2533 201.6 42.92C201.147 41.5867 200.494 40.5867 199.64 39.92C198.787 39.2267 197.76 38.88 196.56 38.88C195.414 38.88 194.4 39.2133 193.52 39.88C192.667 40.5467 192.014 41.5467 191.56 42.88C191.107 44.2133 190.88 45.8667 190.88 47.84C190.88 49.8133 191.107 51.4667 191.56 52.8C192.014 54.1333 192.667 55.1467 193.52 55.84C194.4 56.5333 195.427 56.88 196.6 56.88ZM216.641 51.72V46.84H222.721C223.494 46.84 224.201 46.68 224.841 46.36C225.481 46.04 225.988 45.5733 226.361 44.96C226.734 44.3467 226.921 43.6 226.921 42.72C226.921 41.8667 226.734 41.1333 226.361 40.52C225.988 39.9067 225.481 39.44 224.841 39.12C224.201 38.8 223.494 38.64 222.721 38.64H216.641V33.76H223.641C225.428 33.76 227.041 34.12 228.481 34.84C229.921 35.56 231.054 36.6 231.881 37.96C232.734 39.2933 233.161 40.88 233.161 42.72C233.161 44.56 232.734 46.16 231.881 47.52C231.054 48.8533 229.921 49.8933 228.481 50.64C227.041 51.36 225.428 51.72 223.641 51.72H216.641ZM211.841 62V33.76H218.121V62H211.841ZM236.798 51.68L235.798 32.96H242.398L241.398 51.68H236.798ZM239.078 62.44C238.038 62.44 237.172 62.08 236.478 61.36C235.785 60.64 235.438 59.7733 235.438 58.76C235.438 57.6933 235.785 56.8133 236.478 56.12C237.172 55.4 238.038 55.04 239.078 55.04C240.145 55.04 241.012 55.4 241.678 56.12C242.372 56.8133 242.718 57.6933 242.718 58.76C242.718 59.7733 242.372 60.64 241.678 61.36C241.012 62.08 240.145 62.44 239.078 62.44Z" fill="white"/>
<path d="M0.836409 62V33.76H5.23641L7.11641 39.4V62H0.836409ZM20.3164 62L3.67641 40.68L5.23641 33.76L21.8764 55.08L20.3164 62ZM20.3164 62L18.6364 56.36V33.76H24.9164V62H20.3164ZM41.1848 51.72V46.84H47.2648C48.0382 46.84 48.7448 46.68 49.3848 46.36C50.0248 46.04 50.5315 45.5733 50.9048 44.96C51.2782 44.3467 51.4648 43.6 51.4648 42.72C51.4648 41.8667 51.2782 41.1333 50.9048 40.52C50.5315 39.9067 50.0248 39.44 49.3848 39.12C48.7448 38.8 48.0382 38.64 47.2648 38.64H41.1848V33.76H48.1848C49.9715 33.76 51.5848 34.12 53.0248 34.84C54.4648 35.56 55.5982 36.6 56.4248 37.96C57.2782 39.2933 57.7048 40.88 57.7048 42.72C57.7048 44.56 57.2782 46.16 56.4248 47.52C55.5982 48.8533 54.4648 49.8933 53.0248 50.64C51.5848 51.36 49.9715 51.72 48.1848 51.72H41.1848ZM36.3848 62V33.76H42.6648V62H36.3848ZM67.4417 62.4C65.6551 62.4 64.0551 61.96 62.6417 61.08C61.2551 60.2 60.1484 59 59.3217 57.48C58.5217 55.96 58.1217 54.2267 58.1217 52.28C58.1217 50.3333 58.5217 48.6 59.3217 47.08C60.1484 45.56 61.2551 44.36 62.6417 43.48C64.0551 42.6 65.6551 42.16 67.4417 42.16C68.7484 42.16 69.9217 42.4133 70.9617 42.92C72.0284 43.4267 72.8951 44.1333 73.5617 45.04C74.2284 45.92 74.6017 46.9333 74.6817 48.08V56.48C74.6017 57.6267 74.2284 58.6533 73.5617 59.56C72.9217 60.44 72.0684 61.1333 71.0017 61.64C69.9351 62.1467 68.7484 62.4 67.4417 62.4ZM68.6817 56.88C69.9884 56.88 71.0417 56.4533 71.8417 55.6C72.6417 54.72 73.0417 53.6133 73.0417 52.28C73.0417 51.3733 72.8551 50.5733 72.4817 49.88C72.1351 49.1867 71.6284 48.6533 70.9617 48.28C70.3217 47.88 69.5751 47.68 68.7217 47.68C67.8684 47.68 67.1084 47.88 66.4417 48.28C65.8017 48.6533 65.2817 49.1867 64.8817 49.88C64.5084 50.5733 64.3217 51.3733 64.3217 52.28C64.3217 53.16 64.5084 53.9467 64.8817 54.64C65.2551 55.3333 65.7751 55.88 66.4417 56.28C67.1084 56.68 67.8551 56.88 68.6817 56.88ZM72.8017 62V56.76L73.7217 52.04L72.8017 47.32V42.56H78.8017V62H72.8017ZM88.3108 62.08L80.3108 42.56H86.9108L91.9908 58.04H89.5508L94.7508 42.56H101.351L93.0308 62.08H88.3108ZM83.3108 70.2L89.1508 57.6L93.0308 62.08L89.5908 70.2H83.3108ZM113.775 62V33.76H120.015V62H113.775ZM108.335 39.08V33.76H119.615V39.08H108.335ZM124.012 66.8L126.932 61.36L128.732 60.84C128.546 61.24 128.319 61.5733 128.052 61.84C127.786 62.08 127.479 62.2 127.132 62.2C126.359 62.2 125.652 61.88 125.012 61.24C124.372 60.6 124.052 59.8 124.052 58.84C124.052 57.8 124.399 56.9067 125.092 56.16C125.812 55.4133 126.692 55.04 127.732 55.04C128.719 55.04 129.572 55.4133 130.292 56.16C131.039 56.88 131.412 57.7733 131.412 58.84C131.412 59.2667 131.332 59.76 131.172 60.32C131.012 60.88 130.692 61.6133 130.212 62.52L126.972 68.44L124.012 66.8ZM144.959 62.44C142.693 62.44 140.639 61.8267 138.799 60.6C136.959 59.3733 135.506 57.6667 134.439 55.48C133.399 53.2667 132.879 50.72 132.879 47.84C132.879 44.9333 133.399 42.4 134.439 40.24C135.479 38.0533 136.906 36.36 138.719 35.16C140.533 33.9333 142.586 33.32 144.879 33.32C147.199 33.32 149.266 33.9333 151.079 35.16C152.893 36.36 154.319 38.0533 155.359 40.24C156.426 42.4267 156.959 44.9733 156.959 47.88C156.959 50.7867 156.426 53.3333 155.359 55.52C154.319 57.7067 152.893 59.4133 151.079 60.64C149.293 61.84 147.253 62.44 144.959 62.44ZM144.919 56.88C146.093 56.88 147.106 56.5467 147.959 55.88C148.813 55.1867 149.466 54.1733 149.919 52.84C150.399 51.48 150.639 49.8267 150.639 47.88C150.639 45.9067 150.399 44.2533 149.919 42.92C149.466 41.5867 148.813 40.5867 147.959 39.92C147.106 39.2267 146.079 38.88 144.879 38.88C143.733 38.88 142.719 39.2133 141.839 39.88C140.986 40.5467 140.333 41.5467 139.879 42.88C139.426 44.2133 139.199 45.8667 139.199 47.84C139.199 49.8133 139.426 51.4667 139.879 52.8C140.333 54.1333 140.986 55.1467 141.839 55.84C142.719 56.5333 143.746 56.88 144.919 56.88ZM170.8 62.44C168.533 62.44 166.48 61.8267 164.64 60.6C162.8 59.3733 161.347 57.6667 160.28 55.48C159.24 53.2667 158.72 50.72 158.72 47.84C158.72 44.9333 159.24 42.4 160.28 40.24C161.32 38.0533 162.747 36.36 164.56 35.16C166.373 33.9333 168.427 33.32 170.72 33.32C173.04 33.32 175.107 33.9333 176.92 35.16C178.733 36.36 180.16 38.0533 181.2 40.24C182.267 42.4267 182.8 44.9733 182.8 47.88C182.8 50.7867 182.267 53.3333 181.2 55.52C180.16 57.7067 178.733 59.4133 176.92 60.64C175.133 61.84 173.093 62.44 170.8 62.44ZM170.76 56.88C171.933 56.88 172.947 56.5467 173.8 55.88C174.653 55.1867 175.307 54.1733 175.76 52.84C176.24 51.48 176.48 49.8267 176.48 47.88C176.48 45.9067 176.24 44.2533 175.76 42.92C175.307 41.5867 174.653 40.5867 173.8 39.92C172.947 39.2267 171.92 38.88 170.72 38.88C169.573 38.88 168.56 39.2133 167.68 39.88C166.827 40.5467 166.173 41.5467 165.72 42.88C165.267 44.2133 165.04 45.8667 165.04 47.84C165.04 49.8133 165.267 51.4667 165.72 52.8C166.173 54.1333 166.827 55.1467 167.68 55.84C168.56 56.5333 169.587 56.88 170.76 56.88ZM196.64 62.44C194.374 62.44 192.32 61.8267 190.48 60.6C188.64 59.3733 187.187 57.6667 186.12 55.48C185.08 53.2667 184.56 50.72 184.56 47.84C184.56 44.9333 185.08 42.4 186.12 40.24C187.16 38.0533 188.587 36.36 190.4 35.16C192.214 33.9333 194.267 33.32 196.56 33.32C198.88 33.32 200.947 33.9333 202.76 35.16C204.574 36.36 206 38.0533 207.04 40.24C208.107 42.4267 208.64 44.9733 208.64 47.88C208.64 50.7867 208.107 53.3333 207.04 55.52C206 57.7067 204.574 59.4133 202.76 60.64C200.974 61.84 198.934 62.44 196.64 62.44ZM196.6 56.88C197.774 56.88 198.787 56.5467 199.64 55.88C200.494 55.1867 201.147 54.1733 201.6 52.84C202.08 51.48 202.32 49.8267 202.32 47.88C202.32 45.9067 202.08 44.2533 201.6 42.92C201.147 41.5867 200.494 40.5867 199.64 39.92C198.787 39.2267 197.76 38.88 196.56 38.88C195.414 38.88 194.4 39.2133 193.52 39.88C192.667 40.5467 192.014 41.5467 191.56 42.88C191.107 44.2133 190.88 45.8667 190.88 47.84C190.88 49.8133 191.107 51.4667 191.56 52.8C192.014 54.1333 192.667 55.1467 193.52 55.84C194.4 56.5333 195.427 56.88 196.6 56.88ZM216.641 51.72V46.84H222.721C223.494 46.84 224.201 46.68 224.841 46.36C225.481 46.04 225.988 45.5733 226.361 44.96C226.734 44.3467 226.921 43.6 226.921 42.72C226.921 41.8667 226.734 41.1333 226.361 40.52C225.988 39.9067 225.481 39.44 224.841 39.12C224.201 38.8 223.494 38.64 222.721 38.64H216.641V33.76H223.641C225.428 33.76 227.041 34.12 228.481 34.84C229.921 35.56 231.054 36.6 231.881 37.96C232.734 39.2933 233.161 40.88 233.161 42.72C233.161 44.56 232.734 46.16 231.881 47.52C231.054 48.8533 229.921 49.8933 228.481 50.64C227.041 51.36 225.428 51.72 223.641 51.72H216.641ZM211.841 62V33.76H218.121V62H211.841ZM236.798 51.68L235.798 32.96H242.398L241.398 51.68H236.798ZM239.078 62.44C238.038 62.44 237.172 62.08 236.478 61.36C235.785 60.64 235.438 59.7733 235.438 58.76C235.438 57.6933 235.785 56.8133 236.478 56.12C237.172 55.4 238.038 55.04 239.078 55.04C240.145 55.04 241.012 55.4 241.678 56.12C242.372 56.8133 242.718 57.6933 242.718 58.76C242.718 59.7733 242.372 60.64 241.678 61.36C241.012 62.08 240.145 62.44 239.078 62.44Z" fill="url(#paint0_linear_1543_414)"/>
<defs>
<linearGradient id="paint0_linear_1543_414" x1="136.239" y1="35" x2="136.239" y2="75" gradientUnits="userSpaceOnUse">
<stop stop-color="#03E05A" stop-opacity="0"/>
<stop offset="0.46" stop-color="#03E05A"/>
<stop offset="1" stop-color="#03E05A"/>
</linearGradient>
</defs>
</svg>
