<svg width="224" height="81" viewBox="0 0 224 81" fill="none" xmlns="http://www.w3.org/2000/svg">
<path d="M55.5146 26.72V29.72H33.6746V22.19H50.9846V20.63H33.6746V17.6H54.9746V25.13H37.6346V26.72H55.5146ZM58.3346 8.51V12.26H54.9746V16.58H50.9846V3.8H54.9746V8.51H58.3346ZM36.3446 10.22C36.3446 12.05 37.6646 13.28 39.4946 13.28C41.3246 13.28 42.7046 12.05 42.7046 10.22C42.7046 8.39 41.3246 7.16 39.4946 7.16C37.6646 7.16 36.3446 8.39 36.3446 10.22ZM32.4146 10.22C32.4146 6.47 35.4146 3.8 39.4946 3.8C43.6046 3.8 46.6346 6.47 46.6346 10.22C46.6346 13.94 43.6046 16.61 39.4946 16.61C35.4146 16.61 32.4146 13.94 32.4146 10.22ZM84.1463 9.59V13.37H80.7863V19.49H76.7963V3.8H80.7863V9.59H84.1463ZM80.7863 20.51V29.57H59.4863V20.51H80.7863ZM63.4463 26.36H76.7963V23.72H63.4463V26.36ZM74.5763 15.41V18.59H58.9163V9.8H68.8163V7.4H58.9163V4.22H72.6563V12.92H62.7563V15.41H74.5763ZM98.258 4.22V18.44H84.728V4.22H98.258ZM88.538 15.14H94.448V7.58H88.538V15.14ZM107.138 25.94V29.57H85.298V21.05H89.258V25.94H107.138ZM109.958 10.91V14.69H106.598V23H102.608V3.8H106.598V10.91H109.958ZM130.26 4.22V17.93H116.4V4.22H120.21V7.85H126.48V4.22H130.26ZM120.21 14.63H126.48V11.12H120.21V14.63ZM141.63 9.47V13.25H138.27V18.95H134.28V3.8H138.27V9.47H141.63ZM120.93 26.27H138.54V29.57H116.97V19.85H138.27V23.15H120.93V26.27ZM141.942 20.99V11.84C141.942 6.71 144.762 3.92 149.022 3.92C153.342 3.92 156.162 6.71 156.162 11.84V20.99C156.162 26.09 153.342 28.85 149.022 28.85C144.762 28.85 141.942 26.09 141.942 20.99ZM145.752 11.84V20.99C145.752 23.9 146.922 25.25 149.022 25.25C151.152 25.25 152.322 23.9 152.322 20.99V11.84C152.322 8.96 151.152 7.58 149.022 7.58C146.922 7.58 145.752 8.96 145.752 11.84ZM164.082 17.36V29.72H160.092V3.8H164.082V13.55H167.442V17.36H164.082ZM190.854 14.66V18.32H168.294V4.22H190.584V7.88H172.284V14.66H190.854ZM191.844 25.07V28.73H167.034V25.07H177.294V19.61H181.494V25.07H191.844Z" fill="white"/>
<path d="M55.5146 26.72V29.72H33.6746V22.19H50.9846V20.63H33.6746V17.6H54.9746V25.13H37.6346V26.72H55.5146ZM58.3346 8.51V12.26H54.9746V16.58H50.9846V3.8H54.9746V8.51H58.3346ZM36.3446 10.22C36.3446 12.05 37.6646 13.28 39.4946 13.28C41.3246 13.28 42.7046 12.05 42.7046 10.22C42.7046 8.39 41.3246 7.16 39.4946 7.16C37.6646 7.16 36.3446 8.39 36.3446 10.22ZM32.4146 10.22C32.4146 6.47 35.4146 3.8 39.4946 3.8C43.6046 3.8 46.6346 6.47 46.6346 10.22C46.6346 13.94 43.6046 16.61 39.4946 16.61C35.4146 16.61 32.4146 13.94 32.4146 10.22ZM84.1463 9.59V13.37H80.7863V19.49H76.7963V3.8H80.7863V9.59H84.1463ZM80.7863 20.51V29.57H59.4863V20.51H80.7863ZM63.4463 26.36H76.7963V23.72H63.4463V26.36ZM74.5763 15.41V18.59H58.9163V9.8H68.8163V7.4H58.9163V4.22H72.6563V12.92H62.7563V15.41H74.5763ZM98.258 4.22V18.44H84.728V4.22H98.258ZM88.538 15.14H94.448V7.58H88.538V15.14ZM107.138 25.94V29.57H85.298V21.05H89.258V25.94H107.138ZM109.958 10.91V14.69H106.598V23H102.608V3.8H106.598V10.91H109.958ZM130.26 4.22V17.93H116.4V4.22H120.21V7.85H126.48V4.22H130.26ZM120.21 14.63H126.48V11.12H120.21V14.63ZM141.63 9.47V13.25H138.27V18.95H134.28V3.8H138.27V9.47H141.63ZM120.93 26.27H138.54V29.57H116.97V19.85H138.27V23.15H120.93V26.27ZM141.942 20.99V11.84C141.942 6.71 144.762 3.92 149.022 3.92C153.342 3.92 156.162 6.71 156.162 11.84V20.99C156.162 26.09 153.342 28.85 149.022 28.85C144.762 28.85 141.942 26.09 141.942 20.99ZM145.752 11.84V20.99C145.752 23.9 146.922 25.25 149.022 25.25C151.152 25.25 152.322 23.9 152.322 20.99V11.84C152.322 8.96 151.152 7.58 149.022 7.58C146.922 7.58 145.752 8.96 145.752 11.84ZM164.082 17.36V29.72H160.092V3.8H164.082V13.55H167.442V17.36H164.082ZM190.854 14.66V18.32H168.294V4.22H190.584V7.88H172.284V14.66H190.854ZM191.844 25.07V28.73H167.034V25.07H177.294V19.61H181.494V25.07H191.844Z" fill="url(#paint0_linear_1695_1948)"/>
<path d="M3.36761 72V46.584H7.32761L9.01961 51.66V72H3.36761ZM20.8996 72L5.92361 52.812L7.32761 46.584L22.3036 65.772L20.8996 72ZM20.8996 72L19.3876 66.924V46.584H25.0396V72H20.8996ZM39.6812 62.748V58.356H45.1532C45.8492 58.356 46.4852 58.212 47.0612 57.924C47.6372 57.636 48.0932 57.216 48.4292 56.664C48.7652 56.112 48.9332 55.44 48.9332 54.648C48.9332 53.88 48.7652 53.22 48.4292 52.668C48.0932 52.116 47.6372 51.696 47.0612 51.408C46.4852 51.12 45.8492 50.976 45.1532 50.976H39.6812V46.584H45.9812C47.5892 46.584 49.0412 46.908 50.3372 47.556C51.6332 48.204 52.6532 49.14 53.3972 50.364C54.1652 51.564 54.5492 52.992 54.5492 54.648C54.5492 56.304 54.1652 57.744 53.3972 58.968C52.6532 60.168 51.6332 61.104 50.3372 61.776C49.0412 62.424 47.5892 62.748 45.9812 62.748H39.6812ZM35.3612 72V46.584H41.0132V72H35.3612ZM63.3475 72.36C61.7395 72.36 60.2995 71.964 59.0275 71.172C57.7795 70.38 56.7835 69.3 56.0395 67.932C55.3195 66.564 54.9595 65.004 54.9595 63.252C54.9595 61.5 55.3195 59.94 56.0395 58.572C56.7835 57.204 57.7795 56.124 59.0275 55.332C60.2995 54.54 61.7395 54.144 63.3475 54.144C64.5235 54.144 65.5795 54.372 66.5155 54.828C67.4755 55.284 68.2555 55.92 68.8555 56.736C69.4555 57.528 69.7915 58.44 69.8635 59.472V67.032C69.7915 68.064 69.4555 68.988 68.8555 69.804C68.2795 70.596 67.5115 71.22 66.5515 71.676C65.5915 72.132 64.5235 72.36 63.3475 72.36ZM64.4635 67.392C65.6395 67.392 66.5875 67.008 67.3075 66.24C68.0275 65.448 68.3875 64.452 68.3875 63.252C68.3875 62.436 68.2195 61.716 67.8835 61.092C67.5715 60.468 67.1155 59.988 66.5155 59.652C65.9395 59.292 65.2675 59.112 64.4995 59.112C63.7315 59.112 63.0475 59.292 62.4475 59.652C61.8715 59.988 61.4035 60.468 61.0435 61.092C60.7075 61.716 60.5395 62.436 60.5395 63.252C60.5395 64.044 60.7075 64.752 61.0435 65.376C61.3795 66 61.8475 66.492 62.4475 66.852C63.0475 67.212 63.7195 67.392 64.4635 67.392ZM68.1715 72V67.284L68.9995 63.036L68.1715 58.788V54.504H73.5715V72H68.1715ZM82.1297 72.072L74.9297 54.504H80.8697L85.4417 68.436H83.2457L87.9257 54.504H93.8657L86.3777 72.072H82.1297ZM77.6297 79.38L82.8857 68.04L86.3777 72.072L83.2817 79.38H77.6297ZM105.048 72V46.584H110.664V72H105.048ZM100.152 51.372V46.584H110.304V51.372H100.152ZM114.261 76.32L116.889 71.424L118.509 70.956C118.341 71.316 118.137 71.616 117.897 71.856C117.657 72.072 117.381 72.18 117.069 72.18C116.373 72.18 115.737 71.892 115.161 71.316C114.585 70.74 114.297 70.02 114.297 69.156C114.297 68.22 114.609 67.416 115.233 66.744C115.881 66.072 116.673 65.736 117.609 65.736C118.497 65.736 119.265 66.072 119.913 66.744C120.585 67.392 120.921 68.196 120.921 69.156C120.921 69.54 120.849 69.984 120.705 70.488C120.561 70.992 120.273 71.652 119.841 72.468L116.925 77.796L114.261 76.32ZM133.148 72.396C131.108 72.396 129.26 71.844 127.604 70.74C125.948 69.636 124.64 68.1 123.68 66.132C122.744 64.14 122.276 61.848 122.276 59.256C122.276 56.64 122.744 54.36 123.68 52.416C124.616 50.448 125.9 48.924 127.532 47.844C129.164 46.74 131.012 46.188 133.076 46.188C135.164 46.188 137.024 46.74 138.656 47.844C140.288 48.924 141.572 50.448 142.508 52.416C143.468 54.384 143.948 56.676 143.948 59.292C143.948 61.908 143.468 64.2 142.508 66.168C141.572 68.136 140.288 69.672 138.656 70.776C137.048 71.856 135.212 72.396 133.148 72.396ZM133.112 67.392C134.168 67.392 135.08 67.092 135.848 66.492C136.616 65.868 137.204 64.956 137.612 63.756C138.044 62.532 138.26 61.044 138.26 59.292C138.26 57.516 138.044 56.028 137.612 54.828C137.204 53.628 136.616 52.728 135.848 52.128C135.08 51.504 134.156 51.192 133.076 51.192C132.044 51.192 131.132 51.492 130.34 52.092C129.572 52.692 128.984 53.592 128.576 54.792C128.168 55.992 127.964 57.48 127.964 59.256C127.964 61.032 128.168 62.52 128.576 63.72C128.984 64.92 129.572 65.832 130.34 66.456C131.132 67.08 132.056 67.392 133.112 67.392ZM156.405 72.396C154.365 72.396 152.517 71.844 150.861 70.74C149.205 69.636 147.897 68.1 146.937 66.132C146.001 64.14 145.533 61.848 145.533 59.256C145.533 56.64 146.001 54.36 146.937 52.416C147.873 50.448 149.157 48.924 150.789 47.844C152.421 46.74 154.269 46.188 156.333 46.188C158.421 46.188 160.281 46.74 161.913 47.844C163.545 48.924 164.829 50.448 165.765 52.416C166.725 54.384 167.205 56.676 167.205 59.292C167.205 61.908 166.725 64.2 165.765 66.168C164.829 68.136 163.545 69.672 161.913 70.776C160.305 71.856 158.469 72.396 156.405 72.396ZM156.369 67.392C157.425 67.392 158.337 67.092 159.105 66.492C159.873 65.868 160.461 64.956 160.869 63.756C161.301 62.532 161.517 61.044 161.517 59.292C161.517 57.516 161.301 56.028 160.869 54.828C160.461 53.628 159.873 52.728 159.105 52.128C158.337 51.504 157.413 51.192 156.333 51.192C155.301 51.192 154.389 51.492 153.597 52.092C152.829 52.692 152.241 53.592 151.833 54.792C151.425 55.992 151.221 57.48 151.221 59.256C151.221 61.032 151.425 62.52 151.833 63.72C152.241 64.92 152.829 65.832 153.597 66.456C154.389 67.08 155.313 67.392 156.369 67.392ZM179.662 72.396C177.622 72.396 175.774 71.844 174.118 70.74C172.462 69.636 171.154 68.1 170.194 66.132C169.258 64.14 168.79 61.848 168.79 59.256C168.79 56.64 169.258 54.36 170.194 52.416C171.13 50.448 172.414 48.924 174.046 47.844C175.678 46.74 177.526 46.188 179.59 46.188C181.678 46.188 183.538 46.74 185.17 47.844C186.802 48.924 188.086 50.448 189.022 52.416C189.982 54.384 190.462 56.676 190.462 59.292C190.462 61.908 189.982 64.2 189.022 66.168C188.086 68.136 186.802 69.672 185.17 70.776C183.562 71.856 181.726 72.396 179.662 72.396ZM179.626 67.392C180.682 67.392 181.594 67.092 182.362 66.492C183.13 65.868 183.718 64.956 184.126 63.756C184.558 62.532 184.774 61.044 184.774 59.292C184.774 57.516 184.558 56.028 184.126 54.828C183.718 53.628 183.13 52.728 182.362 52.128C181.594 51.504 180.67 51.192 179.59 51.192C178.558 51.192 177.646 51.492 176.854 52.092C176.086 52.692 175.498 53.592 175.09 54.792C174.682 55.992 174.478 57.48 174.478 59.256C174.478 61.032 174.682 62.52 175.09 63.72C175.498 64.92 176.086 65.832 176.854 66.456C177.646 67.08 178.57 67.392 179.626 67.392ZM197.662 62.748V58.356H203.134C203.83 58.356 204.466 58.212 205.042 57.924C205.618 57.636 206.074 57.216 206.41 56.664C206.746 56.112 206.914 55.44 206.914 54.648C206.914 53.88 206.746 53.22 206.41 52.668C206.074 52.116 205.618 51.696 205.042 51.408C204.466 51.12 203.83 50.976 203.134 50.976H197.662V46.584H203.962C205.57 46.584 207.022 46.908 208.318 47.556C209.614 48.204 210.634 49.14 211.378 50.364C212.146 51.564 212.53 52.992 212.53 54.648C212.53 56.304 212.146 57.744 211.378 58.968C210.634 60.168 209.614 61.104 208.318 61.776C207.022 62.424 205.57 62.748 203.962 62.748H197.662ZM193.342 72V46.584H198.994V72H193.342ZM215.804 62.712L214.904 45.864H220.844L219.944 62.712H215.804ZM217.856 72.396C216.92 72.396 216.14 72.072 215.516 71.424C214.892 70.776 214.58 69.996 214.58 69.084C214.58 68.124 214.892 67.332 215.516 66.708C216.14 66.06 216.92 65.736 217.856 65.736C218.816 65.736 219.596 66.06 220.196 66.708C220.82 67.332 221.132 68.124 221.132 69.084C221.132 69.996 220.82 70.776 220.196 71.424C219.596 72.072 218.816 72.396 217.856 72.396Z" fill="white"/>
<path d="M3.36761 72V46.584H7.32761L9.01961 51.66V72H3.36761ZM20.8996 72L5.92361 52.812L7.32761 46.584L22.3036 65.772L20.8996 72ZM20.8996 72L19.3876 66.924V46.584H25.0396V72H20.8996ZM39.6812 62.748V58.356H45.1532C45.8492 58.356 46.4852 58.212 47.0612 57.924C47.6372 57.636 48.0932 57.216 48.4292 56.664C48.7652 56.112 48.9332 55.44 48.9332 54.648C48.9332 53.88 48.7652 53.22 48.4292 52.668C48.0932 52.116 47.6372 51.696 47.0612 51.408C46.4852 51.12 45.8492 50.976 45.1532 50.976H39.6812V46.584H45.9812C47.5892 46.584 49.0412 46.908 50.3372 47.556C51.6332 48.204 52.6532 49.14 53.3972 50.364C54.1652 51.564 54.5492 52.992 54.5492 54.648C54.5492 56.304 54.1652 57.744 53.3972 58.968C52.6532 60.168 51.6332 61.104 50.3372 61.776C49.0412 62.424 47.5892 62.748 45.9812 62.748H39.6812ZM35.3612 72V46.584H41.0132V72H35.3612ZM63.3475 72.36C61.7395 72.36 60.2995 71.964 59.0275 71.172C57.7795 70.38 56.7835 69.3 56.0395 67.932C55.3195 66.564 54.9595 65.004 54.9595 63.252C54.9595 61.5 55.3195 59.94 56.0395 58.572C56.7835 57.204 57.7795 56.124 59.0275 55.332C60.2995 54.54 61.7395 54.144 63.3475 54.144C64.5235 54.144 65.5795 54.372 66.5155 54.828C67.4755 55.284 68.2555 55.92 68.8555 56.736C69.4555 57.528 69.7915 58.44 69.8635 59.472V67.032C69.7915 68.064 69.4555 68.988 68.8555 69.804C68.2795 70.596 67.5115 71.22 66.5515 71.676C65.5915 72.132 64.5235 72.36 63.3475 72.36ZM64.4635 67.392C65.6395 67.392 66.5875 67.008 67.3075 66.24C68.0275 65.448 68.3875 64.452 68.3875 63.252C68.3875 62.436 68.2195 61.716 67.8835 61.092C67.5715 60.468 67.1155 59.988 66.5155 59.652C65.9395 59.292 65.2675 59.112 64.4995 59.112C63.7315 59.112 63.0475 59.292 62.4475 59.652C61.8715 59.988 61.4035 60.468 61.0435 61.092C60.7075 61.716 60.5395 62.436 60.5395 63.252C60.5395 64.044 60.7075 64.752 61.0435 65.376C61.3795 66 61.8475 66.492 62.4475 66.852C63.0475 67.212 63.7195 67.392 64.4635 67.392ZM68.1715 72V67.284L68.9995 63.036L68.1715 58.788V54.504H73.5715V72H68.1715ZM82.1297 72.072L74.9297 54.504H80.8697L85.4417 68.436H83.2457L87.9257 54.504H93.8657L86.3777 72.072H82.1297ZM77.6297 79.38L82.8857 68.04L86.3777 72.072L83.2817 79.38H77.6297ZM105.048 72V46.584H110.664V72H105.048ZM100.152 51.372V46.584H110.304V51.372H100.152ZM114.261 76.32L116.889 71.424L118.509 70.956C118.341 71.316 118.137 71.616 117.897 71.856C117.657 72.072 117.381 72.18 117.069 72.18C116.373 72.18 115.737 71.892 115.161 71.316C114.585 70.74 114.297 70.02 114.297 69.156C114.297 68.22 114.609 67.416 115.233 66.744C115.881 66.072 116.673 65.736 117.609 65.736C118.497 65.736 119.265 66.072 119.913 66.744C120.585 67.392 120.921 68.196 120.921 69.156C120.921 69.54 120.849 69.984 120.705 70.488C120.561 70.992 120.273 71.652 119.841 72.468L116.925 77.796L114.261 76.32ZM133.148 72.396C131.108 72.396 129.26 71.844 127.604 70.74C125.948 69.636 124.64 68.1 123.68 66.132C122.744 64.14 122.276 61.848 122.276 59.256C122.276 56.64 122.744 54.36 123.68 52.416C124.616 50.448 125.9 48.924 127.532 47.844C129.164 46.74 131.012 46.188 133.076 46.188C135.164 46.188 137.024 46.74 138.656 47.844C140.288 48.924 141.572 50.448 142.508 52.416C143.468 54.384 143.948 56.676 143.948 59.292C143.948 61.908 143.468 64.2 142.508 66.168C141.572 68.136 140.288 69.672 138.656 70.776C137.048 71.856 135.212 72.396 133.148 72.396ZM133.112 67.392C134.168 67.392 135.08 67.092 135.848 66.492C136.616 65.868 137.204 64.956 137.612 63.756C138.044 62.532 138.26 61.044 138.26 59.292C138.26 57.516 138.044 56.028 137.612 54.828C137.204 53.628 136.616 52.728 135.848 52.128C135.08 51.504 134.156 51.192 133.076 51.192C132.044 51.192 131.132 51.492 130.34 52.092C129.572 52.692 128.984 53.592 128.576 54.792C128.168 55.992 127.964 57.48 127.964 59.256C127.964 61.032 128.168 62.52 128.576 63.72C128.984 64.92 129.572 65.832 130.34 66.456C131.132 67.08 132.056 67.392 133.112 67.392ZM156.405 72.396C154.365 72.396 152.517 71.844 150.861 70.74C149.205 69.636 147.897 68.1 146.937 66.132C146.001 64.14 145.533 61.848 145.533 59.256C145.533 56.64 146.001 54.36 146.937 52.416C147.873 50.448 149.157 48.924 150.789 47.844C152.421 46.74 154.269 46.188 156.333 46.188C158.421 46.188 160.281 46.74 161.913 47.844C163.545 48.924 164.829 50.448 165.765 52.416C166.725 54.384 167.205 56.676 167.205 59.292C167.205 61.908 166.725 64.2 165.765 66.168C164.829 68.136 163.545 69.672 161.913 70.776C160.305 71.856 158.469 72.396 156.405 72.396ZM156.369 67.392C157.425 67.392 158.337 67.092 159.105 66.492C159.873 65.868 160.461 64.956 160.869 63.756C161.301 62.532 161.517 61.044 161.517 59.292C161.517 57.516 161.301 56.028 160.869 54.828C160.461 53.628 159.873 52.728 159.105 52.128C158.337 51.504 157.413 51.192 156.333 51.192C155.301 51.192 154.389 51.492 153.597 52.092C152.829 52.692 152.241 53.592 151.833 54.792C151.425 55.992 151.221 57.48 151.221 59.256C151.221 61.032 151.425 62.52 151.833 63.72C152.241 64.92 152.829 65.832 153.597 66.456C154.389 67.08 155.313 67.392 156.369 67.392ZM179.662 72.396C177.622 72.396 175.774 71.844 174.118 70.74C172.462 69.636 171.154 68.1 170.194 66.132C169.258 64.14 168.79 61.848 168.79 59.256C168.79 56.64 169.258 54.36 170.194 52.416C171.13 50.448 172.414 48.924 174.046 47.844C175.678 46.74 177.526 46.188 179.59 46.188C181.678 46.188 183.538 46.74 185.17 47.844C186.802 48.924 188.086 50.448 189.022 52.416C189.982 54.384 190.462 56.676 190.462 59.292C190.462 61.908 189.982 64.2 189.022 66.168C188.086 68.136 186.802 69.672 185.17 70.776C183.562 71.856 181.726 72.396 179.662 72.396ZM179.626 67.392C180.682 67.392 181.594 67.092 182.362 66.492C183.13 65.868 183.718 64.956 184.126 63.756C184.558 62.532 184.774 61.044 184.774 59.292C184.774 57.516 184.558 56.028 184.126 54.828C183.718 53.628 183.13 52.728 182.362 52.128C181.594 51.504 180.67 51.192 179.59 51.192C178.558 51.192 177.646 51.492 176.854 52.092C176.086 52.692 175.498 53.592 175.09 54.792C174.682 55.992 174.478 57.48 174.478 59.256C174.478 61.032 174.682 62.52 175.09 63.72C175.498 64.92 176.086 65.832 176.854 66.456C177.646 67.08 178.57 67.392 179.626 67.392ZM197.662 62.748V58.356H203.134C203.83 58.356 204.466 58.212 205.042 57.924C205.618 57.636 206.074 57.216 206.41 56.664C206.746 56.112 206.914 55.44 206.914 54.648C206.914 53.88 206.746 53.22 206.41 52.668C206.074 52.116 205.618 51.696 205.042 51.408C204.466 51.12 203.83 50.976 203.134 50.976H197.662V46.584H203.962C205.57 46.584 207.022 46.908 208.318 47.556C209.614 48.204 210.634 49.14 211.378 50.364C212.146 51.564 212.53 52.992 212.53 54.648C212.53 56.304 212.146 57.744 211.378 58.968C210.634 60.168 209.614 61.104 208.318 61.776C207.022 62.424 205.57 62.748 203.962 62.748H197.662ZM193.342 72V46.584H198.994V72H193.342ZM215.804 62.712L214.904 45.864H220.844L219.944 62.712H215.804ZM217.856 72.396C216.92 72.396 216.14 72.072 215.516 71.424C214.892 70.776 214.58 69.996 214.58 69.084C214.58 68.124 214.892 67.332 215.516 66.708C216.14 66.06 216.92 65.736 217.856 65.736C218.816 65.736 219.596 66.06 220.196 66.708C220.82 67.332 221.132 68.124 221.132 69.084C221.132 69.996 220.82 70.776 220.196 71.424C219.596 72.072 218.816 72.396 217.856 72.396Z" fill="#03E05A"/>
<defs>
<linearGradient id="paint0_linear_1695_1948" x1="121.667" y1="6.375" x2="121.667" y2="28.5" gradientUnits="userSpaceOnUse">
<stop stop-color="#03E05A" stop-opacity="0"/>
<stop offset="0.5" stop-color="#03E05A" stop-opacity="0.5"/>
<stop offset="1" stop-color="#03E05A"/>
</linearGradient>
</defs>
</svg>
