<svg width="190" height="44" viewBox="0 0 190 44" fill="none" xmlns="http://www.w3.org/2000/svg">
<g filter="url(#filter0_d_1543_1030)">
<rect x="4" width="182" height="31" rx="15.5" fill="#03E05A"/>
<path d="M28.616 10.376V12.668H30.188V13.412H28.616V15.728H27.716V10.376H28.616ZM28.616 16.232V18.776H22.904V20H29V20.732H22.016V18.092H27.728V16.952H21.992V16.232H28.616ZM23.384 10.76C23.904 10.76 24.368 10.86 24.776 11.06C25.192 11.252 25.516 11.528 25.748 11.888C25.98 12.24 26.096 12.64 26.096 13.088C26.096 13.544 25.98 13.948 25.748 14.3C25.516 14.652 25.192 14.928 24.776 15.128C24.368 15.32 23.904 15.416 23.384 15.416C22.872 15.416 22.412 15.32 22.004 15.128C21.596 14.928 21.276 14.652 21.044 14.3C20.812 13.948 20.696 13.544 20.696 13.088C20.696 12.64 20.812 12.24 21.044 11.888C21.276 11.528 21.596 11.252 22.004 11.06C22.412 10.86 22.872 10.76 23.384 10.76ZM23.384 11.492C22.864 11.492 22.432 11.644 22.088 11.948C21.744 12.244 21.572 12.624 21.572 13.088C21.572 13.552 21.744 13.936 22.088 14.24C22.432 14.536 22.864 14.684 23.384 14.684C23.92 14.684 24.36 14.536 24.704 14.24C25.048 13.936 25.22 13.552 25.22 13.088C25.22 12.624 25.048 12.244 24.704 11.948C24.36 11.644 23.92 11.492 23.384 11.492ZM38.5163 10.388V13.088H40.0883V13.844H38.5163V16.64H37.6163V10.388H38.5163ZM38.5163 17.168V20.732H31.9283V17.168H38.5163ZM32.8043 17.876V20H37.6403V17.876H32.8043ZM35.5403 10.952V13.796H31.7363V15.332C32.7603 15.332 33.6323 15.312 34.3523 15.272C35.0723 15.224 35.8123 15.132 36.5723 14.996L36.6563 15.728C35.8643 15.864 35.0923 15.956 34.3403 16.004C33.5963 16.052 32.7043 16.076 31.6643 16.076H30.8483V13.1H34.6523V11.696H30.8243V10.952H35.5403ZM45.5246 11.324V16.172H40.7246V11.324H45.5246ZM41.6006 12.056V15.428H44.6486V12.056H41.6006ZM48.4046 10.364V13.58H49.9646V14.336H48.4046V18.068H47.5046V10.364H48.4046ZM42.7886 17.336V19.892H48.8846V20.636H41.9006V17.336H42.7886ZM60.4585 10.376V12.908H62.0185V13.676H60.4585V16.52H59.5585V10.376H60.4585ZM53.6665 10.952V12.596H56.7265V10.952H57.6145V15.848H52.7785V10.952H53.6665ZM53.6665 15.104H56.7265V13.316H53.6665V15.104ZM60.5425 17.108V17.84H54.8305V19.988H60.7465V20.732H53.9305V17.108H60.5425ZM64.9948 11.192C65.5068 11.192 65.9588 11.344 66.3508 11.648C66.7508 11.944 67.0588 12.368 67.2748 12.92C67.4988 13.464 67.6108 14.104 67.6108 14.84C67.6108 15.576 67.4988 16.22 67.2748 16.772C67.0588 17.324 66.7508 17.752 66.3508 18.056C65.9588 18.352 65.5068 18.5 64.9948 18.5C64.4828 18.5 64.0268 18.352 63.6268 18.056C63.2348 17.752 62.9268 17.324 62.7028 16.772C62.4788 16.212 62.3668 15.568 62.3668 14.84C62.3668 14.112 62.4788 13.472 62.7028 12.92C62.9268 12.368 63.2348 11.944 63.6268 11.648C64.0268 11.344 64.4828 11.192 64.9948 11.192ZM64.9948 11.996C64.6508 11.996 64.3428 12.116 64.0708 12.356C63.8068 12.588 63.5988 12.92 63.4468 13.352C63.3028 13.776 63.2308 14.272 63.2308 14.84C63.2308 15.408 63.3028 15.908 63.4468 16.34C63.5988 16.772 63.8068 17.108 64.0708 17.348C64.3428 17.58 64.6508 17.696 64.9948 17.696C65.3388 17.696 65.6428 17.58 65.9068 17.348C66.1788 17.108 66.3868 16.772 66.5308 16.34C66.6828 15.908 66.7588 15.408 66.7588 14.84C66.7588 14.272 66.6828 13.776 66.5308 13.352C66.3868 12.92 66.1788 12.588 65.9068 12.356C65.6428 12.116 65.3388 11.996 64.9948 11.996ZM70.2628 10.376V14.6H72.0028V15.356H70.2628V20.876H69.3628V10.376H70.2628ZM80.379 11.216V11.96H74.211V15.296H80.499V16.04H77.271V18.776H81.603V19.532H72.087V18.776H76.383V16.04H73.311V11.216H80.379Z" fill="black"/>
<path d="M101.329 15.5002C101.329 16.8846 100.909 18.2379 100.121 19.3891C99.3341 20.5402 98.2152 21.4373 96.9061 21.9671C95.597 22.4969 94.1565 22.6356 92.7668 22.3655C91.3771 22.0955 90.1005 21.4288 89.0985 20.4499C88.2654 19.6359 87.6506 18.6338 87.3085 17.5322C86.9665 16.4306 86.9078 15.2635 87.1376 14.1345C87.3675 13.0054 87.8788 11.9492 88.6262 11.0593C89.3737 10.1694 90.3342 9.47339 91.4227 9.03285C92.5112 8.59231 93.6942 8.42087 94.8667 8.53371C96.0392 8.64655 97.1652 9.04019 98.1448 9.67975C99.1245 10.3193 99.9276 11.1851 100.483 12.2003C101.038 13.2156 101.329 14.349 101.329 15.5002ZM95.3627 12.2102V15.7293L92.8552 12.2102H90.7972V18.7989H92.9644V15.2692L95.472 18.7901H97.5371V12.2102H95.3627ZM127.312 11.8445L125.313 16.295L123.051 11.8445H121.313L124.515 18.0191L123.195 20.9123H124.883L129 11.8532L127.312 11.8445ZM120.201 18.7265H118.549V18.0839C117.948 18.5987 117.173 18.8776 116.374 18.867C114.398 18.867 112.852 17.2869 112.852 15.2855C112.852 13.284 114.396 11.704 116.374 11.704C117.173 11.6928 117.948 11.9711 118.549 12.4853V11.8445H120.201V18.7265ZM118.743 15.2943C118.743 13.9969 117.816 13.012 116.588 13.012C115.359 13.012 114.432 13.9969 114.432 15.2943C114.432 16.5917 115.357 17.5765 116.588 17.5765C117.818 17.5765 118.743 16.5829 118.743 15.2943ZM104.68 20.9122H106.404V18.1419C106.994 18.6214 107.74 18.8786 108.507 18.867C110.483 18.867 112.031 17.2869 112.031 15.2855C112.031 13.284 110.485 11.704 108.507 11.704C107.706 11.69 106.929 11.9686 106.327 12.4853V11.8445H104.675L104.68 20.9122ZM108.303 13.0119C109.531 13.0119 110.458 13.9968 110.458 15.2942C110.458 16.5916 109.531 17.5765 108.303 17.5765C107.074 17.5765 106.147 16.5916 106.147 15.2942C106.147 13.9968 107.063 13.0119 108.303 13.0119Z" fill="black"/>
<path d="M134.932 20V11.564H136.54V20H134.932ZM133.276 12.98V11.564H136.42V12.98H133.276ZM137.73 21.428L138.582 19.844L139.074 19.712C139.018 19.816 138.954 19.904 138.882 19.976C138.81 20.048 138.726 20.084 138.63 20.084C138.43 20.084 138.242 19.996 138.066 19.82C137.89 19.644 137.802 19.424 137.802 19.16C137.802 18.872 137.898 18.628 138.09 18.428C138.282 18.228 138.522 18.128 138.81 18.128C139.074 18.128 139.306 18.228 139.506 18.428C139.706 18.628 139.806 18.872 139.806 19.16C139.806 19.272 139.782 19.408 139.734 19.568C139.686 19.72 139.598 19.916 139.47 20.156L138.546 21.86L137.73 21.428ZM143.776 20.12C143.112 20.12 142.512 19.94 141.976 19.58C141.44 19.22 141.012 18.712 140.692 18.056C140.38 17.4 140.224 16.636 140.224 15.764C140.224 14.892 140.38 14.132 140.692 13.484C141.004 12.836 141.424 12.332 141.952 11.972C142.488 11.612 143.084 11.432 143.74 11.432C144.412 11.432 145.012 11.612 145.54 11.972C146.076 12.332 146.5 12.84 146.812 13.496C147.124 14.144 147.28 14.908 147.28 15.788C147.28 16.66 147.124 17.424 146.812 18.08C146.5 18.728 146.08 19.232 145.552 19.592C145.024 19.944 144.432 20.12 143.776 20.12ZM143.752 18.644C144.136 18.644 144.468 18.536 144.748 18.32C145.028 18.104 145.244 17.784 145.396 17.36C145.556 16.936 145.636 16.408 145.636 15.776C145.636 15.144 145.556 14.616 145.396 14.192C145.244 13.768 145.024 13.452 144.736 13.244C144.456 13.028 144.124 12.92 143.74 12.92C143.364 12.92 143.036 13.028 142.756 13.244C142.476 13.452 142.256 13.768 142.096 14.192C141.944 14.608 141.868 15.132 141.868 15.764C141.868 16.404 141.944 16.936 142.096 17.36C142.256 17.784 142.476 18.104 142.756 18.32C143.036 18.536 143.368 18.644 143.752 18.644ZM151.338 20.12C150.674 20.12 150.074 19.94 149.538 19.58C149.002 19.22 148.574 18.712 148.254 18.056C147.942 17.4 147.786 16.636 147.786 15.764C147.786 14.892 147.942 14.132 148.254 13.484C148.566 12.836 148.986 12.332 149.514 11.972C150.05 11.612 150.646 11.432 151.302 11.432C151.974 11.432 152.574 11.612 153.102 11.972C153.638 12.332 154.062 12.84 154.374 13.496C154.686 14.144 154.842 14.908 154.842 15.788C154.842 16.66 154.686 17.424 154.374 18.08C154.062 18.728 153.642 19.232 153.114 19.592C152.586 19.944 151.994 20.12 151.338 20.12ZM151.314 18.644C151.698 18.644 152.03 18.536 152.31 18.32C152.59 18.104 152.806 17.784 152.958 17.36C153.118 16.936 153.198 16.408 153.198 15.776C153.198 15.144 153.118 14.616 152.958 14.192C152.806 13.768 152.586 13.452 152.298 13.244C152.018 13.028 151.686 12.92 151.302 12.92C150.926 12.92 150.598 13.028 150.318 13.244C150.038 13.452 149.818 13.768 149.658 14.192C149.506 14.608 149.43 15.132 149.43 15.764C149.43 16.404 149.506 16.936 149.658 17.36C149.818 17.784 150.038 18.104 150.318 18.32C150.598 18.536 150.93 18.644 151.314 18.644ZM158.899 20.12C158.235 20.12 157.635 19.94 157.099 19.58C156.563 19.22 156.135 18.712 155.815 18.056C155.503 17.4 155.347 16.636 155.347 15.764C155.347 14.892 155.503 14.132 155.815 13.484C156.127 12.836 156.547 12.332 157.075 11.972C157.611 11.612 158.207 11.432 158.863 11.432C159.535 11.432 160.135 11.612 160.663 11.972C161.199 12.332 161.623 12.84 161.935 13.496C162.247 14.144 162.403 14.908 162.403 15.788C162.403 16.66 162.247 17.424 161.935 18.08C161.623 18.728 161.203 19.232 160.675 19.592C160.147 19.944 159.555 20.12 158.899 20.12ZM158.875 18.644C159.259 18.644 159.591 18.536 159.871 18.32C160.151 18.104 160.367 17.784 160.519 17.36C160.679 16.936 160.759 16.408 160.759 15.776C160.759 15.144 160.679 14.616 160.519 14.192C160.367 13.768 160.147 13.452 159.859 13.244C159.579 13.028 159.247 12.92 158.863 12.92C158.487 12.92 158.159 13.028 157.879 13.244C157.599 13.452 157.379 13.768 157.219 14.192C157.067 14.608 156.991 15.132 156.991 15.764C156.991 16.404 157.067 16.936 157.219 17.36C157.379 17.784 157.599 18.104 157.879 18.32C158.159 18.536 158.491 18.644 158.875 18.644ZM164.541 16.868V15.536H166.497C166.753 15.536 166.985 15.484 167.193 15.38C167.401 15.276 167.565 15.128 167.685 14.936C167.805 14.736 167.865 14.496 167.865 14.216C167.865 13.944 167.805 13.708 167.685 13.508C167.565 13.308 167.401 13.156 167.193 13.052C166.985 12.948 166.753 12.896 166.497 12.896H164.541V11.564H166.665C167.201 11.564 167.681 11.672 168.105 11.888C168.537 12.104 168.877 12.412 169.125 12.812C169.373 13.204 169.497 13.672 169.497 14.216C169.497 14.76 169.373 15.232 169.125 15.632C168.877 16.024 168.537 16.328 168.105 16.544C167.681 16.76 167.201 16.868 166.665 16.868H164.541ZM163.341 20V11.564H164.973V20H163.341Z" fill="black"/>
<path d="M95 36L91.5359 30L98.4641 30L95 36Z" fill="#03E05A"/>
</g>
<defs>
<filter id="filter0_d_1543_1030" x="0" y="0" width="190" height="44" filterUnits="userSpaceOnUse" color-interpolation-filters="sRGB">
<feFlood flood-opacity="0" result="BackgroundImageFix"/>
<feColorMatrix in="SourceAlpha" type="matrix" values="0 0 0 0 0 0 0 0 0 0 0 0 0 0 0 0 0 0 127 0" result="hardAlpha"/>
<feOffset dy="4"/>
<feGaussianBlur stdDeviation="2"/>
<feComposite in2="hardAlpha" operator="out"/>
<feColorMatrix type="matrix" values="0 0 0 0 0 0 0 0 0 0 0 0 0 0 0 0 0 0 0.15 0"/>
<feBlend mode="normal" in2="BackgroundImageFix" result="effect1_dropShadow_1543_1030"/>
<feBlend mode="normal" in="SourceGraphic" in2="effect1_dropShadow_1543_1030" result="shape"/>
</filter>
</defs>
</svg>
