<svg width="126" height="44" viewBox="0 0 126 44" fill="none" xmlns="http://www.w3.org/2000/svg">
<g filter="url(#filter0_d_4051_6685)">
<mask id="path-1-inside-1_4051_6685" fill="white">
<path fill-rule="evenodd" clip-rule="evenodd" d="M19.5 1C10.9396 1 4 7.93959 4 16.5C4 25.0604 10.9396 32 19.5 32H60.6491L63.5359 37L66.4226 32H106.5C115.06 32 122 25.0604 122 16.5C122 7.93959 115.06 1 106.5 1H19.5Z"/>
</mask>
<path fill-rule="evenodd" clip-rule="evenodd" d="M19.5 1C10.9396 1 4 7.93959 4 16.5C4 25.0604 10.9396 32 19.5 32H60.6491L63.5359 37L66.4226 32H106.5C115.06 32 122 25.0604 122 16.5C122 7.93959 115.06 1 106.5 1H19.5Z" fill="white"/>
<path d="M60.6491 32L61.5152 31.5L61.2265 31H60.6491V32ZM63.5359 37L62.6699 37.5L63.5359 39L64.4019 37.5L63.5359 37ZM66.4226 32V31H65.8453L65.5566 31.5L66.4226 32ZM5 16.5C5 8.49187 11.4919 2 19.5 2V0C10.3873 0 3 7.3873 3 16.5H5ZM19.5 31C11.4919 31 5 24.5081 5 16.5H3C3 25.6127 10.3873 33 19.5 33V31ZM60.6491 31H19.5V33H60.6491V31ZM64.4019 36.5L61.5152 31.5L59.7831 32.5L62.6699 37.5L64.4019 36.5ZM65.5566 31.5L62.6699 36.5L64.4019 37.5L67.2887 32.5L65.5566 31.5ZM106.5 31H66.4226V33H106.5V31ZM121 16.5C121 24.5081 114.508 31 106.5 31V33C115.613 33 123 25.6127 123 16.5H121ZM106.5 2C114.508 2 121 8.49187 121 16.5H123C123 7.3873 115.613 0 106.5 0V2ZM19.5 2H106.5V0H19.5V2Z" fill="#8100F5" mask="url(#path-1-inside-1_4051_6685)"/>
</g>
<path d="M26.08 17.28V18.36H23.728V21.96H22.384V18.36H20.056V21.96H18.7V18.36H16.408V17.28H26.08ZM21.208 11.688C21.96 11.688 22.624 11.784 23.2 11.976C23.776 12.168 24.224 12.44 24.544 12.792C24.864 13.144 25.024 13.56 25.024 14.04C25.024 14.52 24.864 14.94 24.544 15.3C24.224 15.652 23.776 15.924 23.2 16.116C22.624 16.308 21.96 16.404 21.208 16.404C20.456 16.404 19.792 16.308 19.216 16.116C18.648 15.924 18.204 15.652 17.884 15.3C17.564 14.94 17.404 14.52 17.404 14.04C17.404 13.56 17.564 13.144 17.884 12.792C18.204 12.44 18.648 12.168 19.216 11.976C19.792 11.784 20.456 11.688 21.208 11.688ZM21.208 12.732C20.456 12.732 19.86 12.848 19.42 13.08C18.98 13.312 18.76 13.632 18.76 14.04C18.76 14.456 18.98 14.78 19.42 15.012C19.86 15.236 20.456 15.348 21.208 15.348C21.968 15.348 22.568 15.236 23.008 15.012C23.456 14.78 23.68 14.456 23.68 14.04C23.68 13.632 23.456 13.312 23.008 13.08C22.56 12.848 21.96 12.732 21.208 12.732ZM35.0563 11.604V12.588H33.6043V14.208H34.9963V15.204H27.2203V14.208H28.6123V12.588H27.1483V11.604H35.0563ZM35.9443 15.876V16.92H26.2963V15.876H35.9443ZM34.7443 17.64V20.184H28.7323V20.904H35.0443V21.876H27.4483V19.284H33.4483V18.6H27.4123V17.64H34.7443ZM32.2963 14.208V12.588H29.9323V14.208H32.2963ZM44.5486 11.28V14.148H46.0246V15.228H44.5486V18.336H43.2286V11.28H44.5486ZM41.3566 12.06V13.116H37.9126V15.972C38.9686 15.964 39.8086 15.94 40.4326 15.9C41.0646 15.852 41.6846 15.764 42.2926 15.636L42.4366 16.692C41.7646 16.836 41.0686 16.932 40.3486 16.98C39.6366 17.028 38.6766 17.052 37.4686 17.052H36.6046V12.06H41.3566ZM41.8726 17.784V18.108C41.8726 18.548 42.0086 18.96 42.2806 19.344C42.5606 19.728 42.9566 20.056 43.4686 20.328C43.9886 20.6 44.5966 20.788 45.2926 20.892L44.7886 21.924C43.9646 21.788 43.2446 21.536 42.6286 21.168C42.0126 20.8 41.5446 20.344 41.2246 19.8C40.8966 20.344 40.4246 20.8 39.8086 21.168C39.1926 21.536 38.4726 21.788 37.6486 21.924L37.1326 20.892C37.8366 20.788 38.4446 20.6 38.9566 20.328C39.4766 20.056 39.8726 19.728 40.1446 19.344C40.4246 18.96 40.5646 18.548 40.5646 18.108V17.784H41.8726ZM53.6208 14.016V11.28H54.9408V17.4H53.6208V15.084H51.5808V14.016H53.6208ZM51.6288 11.844C51.6288 13.3 51.2408 14.512 50.4648 15.48C49.6888 16.448 48.4648 17.184 46.7928 17.688L46.2768 16.644C47.7728 16.204 48.8448 15.58 49.4928 14.772L46.4448 15L46.2648 13.956L50.0328 13.8C50.1368 13.488 50.2048 13.184 50.2368 12.888H46.7928V11.844H51.6288ZM54.9408 17.916V21.84H47.9568V17.916H54.9408ZM49.2528 18.948V20.796H53.6448V18.948H49.2528ZM67.1028 11.376V21.876H66.2388V11.376H67.1028ZM65.1588 11.616V21.348H64.3188V18.072H62.7828C62.6228 18.512 62.3628 18.864 62.0028 19.128C61.6428 19.384 61.2268 19.512 60.7548 19.512C60.3388 19.512 59.9628 19.412 59.6268 19.212C59.2908 19.004 59.0268 18.716 58.8348 18.348C58.6508 17.98 58.5588 17.56 58.5588 17.088C58.5588 16.616 58.6508 16.2 58.8348 15.84C59.0268 15.472 59.2868 15.188 59.6148 14.988C59.9508 14.78 60.3308 14.676 60.7548 14.676C61.1788 14.676 61.5548 14.78 61.8828 14.988C62.2188 15.188 62.4788 15.472 62.6628 15.84C62.8548 16.2 62.9508 16.616 62.9508 17.088L62.9388 17.34H64.3188V15.684H62.8308V14.952H64.3188V11.616H65.1588ZM60.3228 13.2V11.652H61.2108V13.2H63.3708V13.932H58.1748V13.2H60.3228ZM60.7548 15.444C60.3548 15.444 60.0228 15.6 59.7588 15.912C59.4948 16.216 59.3628 16.608 59.3628 17.088C59.3628 17.568 59.4948 17.964 59.7588 18.276C60.0228 18.58 60.3548 18.732 60.7548 18.732C61.1628 18.732 61.4988 18.58 61.7628 18.276C62.0268 17.964 62.1588 17.568 62.1588 17.088C62.1588 16.608 62.0268 16.216 61.7628 15.912C61.4988 15.6 61.1628 15.444 60.7548 15.444ZM72.587 12.144V12.888H69.419V14.244H72.479V14.952H69.419V16.428C70.211 16.428 70.871 16.408 71.399 16.368C71.935 16.328 72.475 16.256 73.019 16.152L73.115 16.884C72.539 16.996 71.967 17.072 71.399 17.112C70.839 17.152 70.111 17.172 69.215 17.172H68.555V12.144H72.587ZM76.919 11.376V17.736H76.067V14.88H74.591V17.676H73.739V11.58H74.591V14.136H76.067V11.376H76.919ZM76.919 18.3V21.876H76.031V19.044H69.899V18.3H76.919ZM82.7153 11.568C83.8753 11.568 84.7793 11.724 85.4273 12.036C86.0753 12.348 86.3993 12.796 86.3993 13.38C86.3993 13.964 86.0753 14.416 85.4273 14.736C84.7793 15.048 83.8753 15.204 82.7153 15.204C81.5553 15.204 80.6513 15.048 80.0033 14.736C79.3553 14.416 79.0313 13.964 79.0313 13.38C79.0313 12.796 79.3553 12.348 80.0033 12.036C80.6513 11.724 81.5553 11.568 82.7153 11.568ZM82.7153 12.24C81.8513 12.24 81.1753 12.34 80.6873 12.54C80.1993 12.74 79.9553 13.02 79.9553 13.38C79.9553 13.74 80.1953 14.02 80.6753 14.22C81.1633 14.42 81.8433 14.52 82.7153 14.52C83.5873 14.52 84.2633 14.42 84.7433 14.22C85.2313 14.02 85.4753 13.74 85.4753 13.38C85.4753 13.02 85.2313 12.74 84.7433 12.54C84.2553 12.34 83.5793 12.24 82.7153 12.24ZM87.4553 15.936V16.668H77.9753V15.936H87.4553ZM86.2313 17.592V19.92H80.0393V21.048H86.5553V21.756H79.1633V19.26H85.3553V18.288H79.1273V17.592H86.2313ZM98.1772 11.376V13.908H99.7372V14.676H98.1772V17.52H97.2772V11.376H98.1772ZM91.3852 11.952V13.596H94.4452V11.952H95.3332V16.848H90.4972V11.952H91.3852ZM91.3852 16.104H94.4452V14.316H91.3852V16.104ZM98.2612 18.108V18.84H92.5492V20.988H98.4652V21.732H91.6492V18.108H98.2612ZM102.714 12.192C103.226 12.192 103.678 12.344 104.07 12.648C104.47 12.944 104.778 13.368 104.994 13.92C105.218 14.464 105.33 15.104 105.33 15.84C105.33 16.576 105.218 17.22 104.994 17.772C104.778 18.324 104.47 18.752 104.07 19.056C103.678 19.352 103.226 19.5 102.714 19.5C102.202 19.5 101.746 19.352 101.346 19.056C100.954 18.752 100.646 18.324 100.422 17.772C100.198 17.212 100.086 16.568 100.086 15.84C100.086 15.112 100.198 14.472 100.422 13.92C100.646 13.368 100.954 12.944 101.346 12.648C101.746 12.344 102.202 12.192 102.714 12.192ZM102.714 12.996C102.37 12.996 102.062 13.116 101.79 13.356C101.526 13.588 101.318 13.92 101.166 14.352C101.022 14.776 100.95 15.272 100.95 15.84C100.95 16.408 101.022 16.908 101.166 17.34C101.318 17.772 101.526 18.108 101.79 18.348C102.062 18.58 102.37 18.696 102.714 18.696C103.058 18.696 103.362 18.58 103.626 18.348C103.898 18.108 104.106 17.772 104.25 17.34C104.402 16.908 104.478 16.408 104.478 15.84C104.478 15.272 104.402 14.776 104.25 14.352C104.106 13.92 103.898 13.588 103.626 13.356C103.362 13.116 103.058 12.996 102.714 12.996ZM107.982 11.376V15.6H109.722V16.356H107.982V21.876H107.082V11.376H107.982Z" fill="black"/>
<defs>
<filter id="filter0_d_4051_6685" x="0" y="0" width="126" height="44" filterUnits="userSpaceOnUse" color-interpolation-filters="sRGB">
<feFlood flood-opacity="0" result="BackgroundImageFix"/>
<feColorMatrix in="SourceAlpha" type="matrix" values="0 0 0 0 0 0 0 0 0 0 0 0 0 0 0 0 0 0 127 0" result="hardAlpha"/>
<feOffset dy="3"/>
<feGaussianBlur stdDeviation="2"/>
<feComposite in2="hardAlpha" operator="out"/>
<feColorMatrix type="matrix" values="0 0 0 0 0.505882 0 0 0 0 0 0 0 0 0 0.960784 0 0 0 0.08 0"/>
<feBlend mode="normal" in2="BackgroundImageFix" result="effect1_dropShadow_4051_6685"/>
<feBlend mode="normal" in="SourceGraphic" in2="effect1_dropShadow_4051_6685" result="shape"/>
</filter>
</defs>
</svg>
