<svg width="144" height="44" viewBox="0 0 144 44" fill="none" xmlns="http://www.w3.org/2000/svg">
<g filter="url(#filter0_d_4051_780)">
<mask id="path-1-inside-1_4051_780" fill="white">
<path fill-rule="evenodd" clip-rule="evenodd" d="M19.5 1C10.9396 1 4 7.93959 4 16.5C4 25.0604 10.9396 32 19.5 32H76.5769L79.4636 37L82.3504 32H124.5C133.06 32 140 25.0604 140 16.5C140 7.93959 133.06 1 124.5 1H19.5Z"/>
</mask>
<path fill-rule="evenodd" clip-rule="evenodd" d="M19.5 1C10.9396 1 4 7.93959 4 16.5C4 25.0604 10.9396 32 19.5 32H76.5769L79.4636 37L82.3504 32H124.5C133.06 32 140 25.0604 140 16.5C140 7.93959 133.06 1 124.5 1H19.5Z" fill="white"/>
<path d="M76.5769 32L77.4429 31.5L77.1542 31H76.5769V32ZM79.4636 37L78.5976 37.5L79.4636 39L80.3297 37.5L79.4636 37ZM82.3504 32V31H81.773L81.4844 31.5L82.3504 32ZM5 16.5C5 8.49187 11.4919 2 19.5 2V0C10.3873 0 3 7.3873 3 16.5H5ZM19.5 31C11.4919 31 5 24.5081 5 16.5H3C3 25.6127 10.3873 33 19.5 33V31ZM76.5769 31H19.5V33H76.5769V31ZM80.3297 36.5L77.4429 31.5L75.7108 32.5L78.5976 37.5L80.3297 36.5ZM81.4844 31.5L78.5976 36.5L80.3297 37.5L83.2164 32.5L81.4844 31.5ZM124.5 31H82.3504V33H124.5V31ZM139 16.5C139 24.5081 132.508 31 124.5 31V33C133.613 33 141 25.6127 141 16.5H139ZM124.5 2C132.508 2 139 8.49187 139 16.5H141C141 7.3873 133.613 0 124.5 0V2ZM19.5 2H124.5V0H19.5V2Z" fill="#8100F5" mask="url(#path-1-inside-1_4051_780)"/>
</g>
<g clip-path="url(#clip0_4051_780)">
<circle cx="23" cy="16.5" r="7" fill="black"/>
<path d="M22.25 19.5V16.5H20L23 13.5L26 16.5H23.75V19.5H22.25Z" fill="white"/>
</g>
<path d="M37.12 21H35.488V13.764H34.42V12.24H37.12V21ZM40.6247 21V13.8H38.2847V12.24H44.6087V13.8H42.2567V21H40.6247ZM45.4259 21V12.24H48.1859C50.1419 12.24 51.2339 13.068 51.2339 14.688C51.2339 15.444 50.9099 16.02 50.2739 16.392C51.0899 16.764 51.5459 17.436 51.5459 18.408C51.5459 20.136 50.3339 21 48.4019 21H45.4259ZM48.3299 17.256H47.0579V19.5H48.4019C49.3979 19.5 49.9019 19.092 49.9019 18.372C49.9019 17.652 49.5419 17.256 48.3299 17.256ZM48.1859 13.74H47.0579V15.732H48.1859C49.2299 15.732 49.5899 15.312 49.5899 14.688C49.5899 14.028 49.1939 13.74 48.1859 13.74Z" fill="black"/>
<path d="M59.336 11.868C60.04 11.868 60.636 12.052 61.124 12.42C61.612 12.788 61.904 13.28 62 13.896H64.196V11.376H65.096V17.004H64.196V14.64H62C61.912 15.256 61.624 15.756 61.136 16.14C60.648 16.524 60.048 16.716 59.336 16.716C58.816 16.716 58.352 16.616 57.944 16.416C57.536 16.208 57.216 15.92 56.984 15.552C56.752 15.184 56.636 14.764 56.636 14.292C56.636 13.82 56.752 13.4 56.984 13.032C57.216 12.664 57.536 12.38 57.944 12.18C58.352 11.972 58.816 11.868 59.336 11.868ZM59.336 12.624C58.792 12.624 58.348 12.78 58.004 13.092C57.668 13.404 57.5 13.804 57.5 14.292C57.5 14.78 57.672 15.18 58.016 15.492C58.36 15.796 58.8 15.948 59.336 15.948C59.872 15.948 60.308 15.796 60.644 15.492C60.988 15.18 61.16 14.78 61.16 14.292C61.16 13.804 60.988 13.404 60.644 13.092C60.308 12.78 59.872 12.624 59.336 12.624ZM59.3 17.544V18.888H64.196V17.544H65.096V21.732H58.4V17.544H59.3ZM59.3 21H64.196V19.608H59.3V21ZM74.5763 12.492V13.524C74.5763 14.436 74.5523 15.264 74.5043 16.008C74.4643 16.752 74.3563 17.628 74.1803 18.636L73.2683 18.552C73.4523 17.6 73.5683 16.752 73.6163 16.008C73.6643 15.264 73.6883 14.436 73.6883 13.524V13.236H67.4123V12.492H74.5763ZM75.8603 19.572V20.328H66.3683V19.572H75.8603ZM80.3366 12.54V16.152H77.4806V18.528C78.1686 18.528 78.8046 18.508 79.3886 18.468C79.9726 18.428 80.5846 18.348 81.2246 18.228L81.2966 18.972C80.6166 19.092 79.9726 19.172 79.3646 19.212C78.7566 19.252 78.0686 19.272 77.3006 19.272H76.6166V15.432H79.4726V13.296H76.5926V12.54H80.3366ZM85.1486 11.376V21.876H84.2846V11.376H85.1486ZM82.1726 15.168V11.64H83.0126V21.312H82.1726V15.912H80.8406V15.168H82.1726ZM94.7128 11.364V21.888H93.8128V11.364H94.7128ZM89.1928 12.192C89.7048 12.192 90.1608 12.344 90.5608 12.648C90.9688 12.944 91.2848 13.368 91.5088 13.92C91.7328 14.472 91.8448 15.112 91.8448 15.84C91.8448 16.568 91.7328 17.212 91.5088 17.772C91.2848 18.324 90.9688 18.752 90.5608 19.056C90.1608 19.352 89.7048 19.5 89.1928 19.5C88.6728 19.5 88.2088 19.352 87.8008 19.056C87.4008 18.752 87.0888 18.324 86.8648 17.772C86.6408 17.22 86.5288 16.576 86.5288 15.84C86.5288 15.112 86.6408 14.472 86.8648 13.92C87.0888 13.368 87.4008 12.944 87.8008 12.648C88.2088 12.344 88.6728 12.192 89.1928 12.192ZM89.1928 12.996C88.8408 12.996 88.5288 13.116 88.2568 13.356C87.9928 13.588 87.7848 13.92 87.6328 14.352C87.4808 14.776 87.4048 15.272 87.4048 15.84C87.4048 16.408 87.4808 16.908 87.6328 17.34C87.7848 17.772 87.9928 18.108 88.2568 18.348C88.5288 18.58 88.8408 18.696 89.1928 18.696C89.5368 18.696 89.8448 18.58 90.1168 18.348C90.3888 18.108 90.6008 17.772 90.7528 17.34C90.9048 16.9 90.9808 16.4 90.9808 15.84C90.9808 15.28 90.9048 14.784 90.7528 14.352C90.6008 13.92 90.3888 13.588 90.1168 13.356C89.8448 13.116 89.5368 12.996 89.1928 12.996ZM104.325 12.348V13.092H98.1451V16.428H104.445V17.16H97.2571V12.348H104.325ZM105.549 19.68V20.424H96.0331V19.68H105.549ZM116.655 11.364V21.888H115.755V11.364H116.655ZM109.587 12.276V15.06H112.719V12.276H113.607V19.344H108.687V12.276H109.587ZM109.587 18.6H112.719V15.78H109.587V18.6ZM120.339 16.596V15.096C119.467 14.744 119.031 14.22 119.031 13.524C119.031 12.908 119.359 12.432 120.015 12.096C120.671 11.752 121.571 11.58 122.715 11.58C123.859 11.58 124.759 11.752 125.415 12.096C126.071 12.432 126.399 12.908 126.399 13.524C126.399 13.876 126.287 14.184 126.063 14.448C125.839 14.704 125.519 14.916 125.103 15.084V16.596H127.455V17.316H117.975V16.596H120.339ZM122.715 18.144C123.843 18.144 124.723 18.308 125.355 18.636C125.987 18.956 126.303 19.408 126.303 19.992C126.303 20.592 125.987 21.052 125.355 21.372C124.723 21.7 123.843 21.864 122.715 21.864C121.587 21.864 120.707 21.7 120.075 21.372C119.443 21.052 119.127 20.592 119.127 19.992C119.127 19.408 119.443 18.956 120.075 18.636C120.707 18.308 121.587 18.144 122.715 18.144ZM122.715 18.84C121.875 18.84 121.215 18.944 120.735 19.152C120.263 19.352 120.027 19.632 120.027 19.992C120.027 20.36 120.263 20.648 120.735 20.856C121.207 21.056 121.867 21.156 122.715 21.156C123.555 21.156 124.211 21.056 124.683 20.856C125.155 20.648 125.391 20.36 125.391 19.992C125.391 19.632 125.151 19.352 124.671 19.152C124.199 18.944 123.547 18.84 122.715 18.84ZM122.715 12.276C121.867 12.276 121.195 12.388 120.699 12.612C120.203 12.828 119.955 13.132 119.955 13.524C119.955 13.908 120.203 14.212 120.699 14.436C121.195 14.652 121.867 14.76 122.715 14.76C123.563 14.76 124.235 14.652 124.731 14.436C125.227 14.212 125.475 13.908 125.475 13.524C125.475 13.132 125.227 12.828 124.731 12.612C124.235 12.388 123.563 12.276 122.715 12.276ZM124.215 16.596V15.336C123.719 15.416 123.219 15.456 122.715 15.456C122.147 15.456 121.651 15.416 121.227 15.336V16.596H124.215Z" fill="black"/>
<defs>
<filter id="filter0_d_4051_780" x="0" y="0" width="144" height="44" filterUnits="userSpaceOnUse" color-interpolation-filters="sRGB">
<feFlood flood-opacity="0" result="BackgroundImageFix"/>
<feColorMatrix in="SourceAlpha" type="matrix" values="0 0 0 0 0 0 0 0 0 0 0 0 0 0 0 0 0 0 127 0" result="hardAlpha"/>
<feOffset dy="3"/>
<feGaussianBlur stdDeviation="2"/>
<feComposite in2="hardAlpha" operator="out"/>
<feColorMatrix type="matrix" values="0 0 0 0 0.505882 0 0 0 0 0 0 0 0 0 0.960784 0 0 0 0.08 0"/>
<feBlend mode="normal" in2="BackgroundImageFix" result="effect1_dropShadow_4051_780"/>
<feBlend mode="normal" in="SourceGraphic" in2="effect1_dropShadow_4051_780" result="shape"/>
</filter>
<clipPath id="clip0_4051_780">
<rect width="14" height="14" fill="white" transform="translate(16 9.5)"/>
</clipPath>
</defs>
</svg>
