<svg width="160" height="44" viewBox="0 0 160 44" fill="none" xmlns="http://www.w3.org/2000/svg">
<g filter="url(#filter0_d_4051_1933)">
<mask id="path-1-inside-1_4051_1933" fill="white">
<path fill-rule="evenodd" clip-rule="evenodd" d="M19.5 1C10.9396 1 4 7.93959 4 16.5C4 25.0604 10.9396 32 19.5 32H76.5769L79.4636 37L82.3504 32H140.5C149.06 32 156 25.0604 156 16.5C156 7.93959 149.06 1 140.5 1H19.5Z"/>
</mask>
<path fill-rule="evenodd" clip-rule="evenodd" d="M19.5 1C10.9396 1 4 7.93959 4 16.5C4 25.0604 10.9396 32 19.5 32H76.5769L79.4636 37L82.3504 32H140.5C149.06 32 156 25.0604 156 16.5C156 7.93959 149.06 1 140.5 1H19.5Z" fill="white"/>
<path d="M76.5769 32L77.4429 31.5L77.1542 31H76.5769V32ZM79.4636 37L78.5976 37.5L79.4636 39L80.3297 37.5L79.4636 37ZM82.3504 32V31H81.773L81.4844 31.5L82.3504 32ZM5 16.5C5 8.49187 11.4919 2 19.5 2V0C10.3873 0 3 7.3873 3 16.5H5ZM19.5 31C11.4919 31 5 24.5081 5 16.5H3C3 25.6127 10.3873 33 19.5 33V31ZM76.5769 31H19.5V33H76.5769V31ZM80.3297 36.5L77.4429 31.5L75.7108 32.5L78.5976 37.5L80.3297 36.5ZM81.4844 31.5L78.5976 36.5L80.3297 37.5L83.2164 32.5L81.4844 31.5ZM140.5 31H82.3504V33H140.5V31ZM155 16.5C155 24.5081 148.508 31 140.5 31V33C149.613 33 157 25.6127 157 16.5H155ZM140.5 2C148.508 2 155 8.49187 155 16.5H157C157 7.3873 149.613 0 140.5 0V2ZM19.5 2H140.5V0H19.5V2Z" fill="#8100F5" mask="url(#path-1-inside-1_4051_1933)"/>
</g>
<g clip-path="url(#clip0_4051_1933)">
<circle cx="23" cy="16.5" r="7" fill="black"/>
<path d="M22.25 19.5V16.5H20L23 13.5L26 16.5H23.75V19.5H22.25Z" fill="white"/>
</g>
<path d="M37.24 21.12C35.704 21.12 34.708 20.316 34.252 19.44L35.764 18.564C36.016 19.128 36.472 19.62 37.252 19.62C37.972 19.62 38.596 19.056 38.596 18.24C38.596 17.424 38.08 16.788 37.216 16.788C36.532 16.788 36.112 17.16 35.812 17.676L34.36 16.932L34.984 12.24H39.856V13.764H36.28L36.028 15.708C36.364 15.48 36.832 15.3 37.396 15.3C38.968 15.3 40.24 16.332 40.24 18.24C40.24 19.944 38.98 21.12 37.24 21.12ZM43.6122 21H41.9802V13.764H40.9122V12.24H43.6122V21ZM44.8968 21V19.464C44.8968 17.952 46.1088 17.076 47.2008 16.332C48.0648 15.72 48.8568 15.24 48.8568 14.568C48.8568 13.992 48.4368 13.524 47.6568 13.524C46.8888 13.524 46.4208 14.04 46.1208 14.772L44.7168 14.064C45.2568 12.864 46.2288 12.12 47.6688 12.12C49.4448 12.12 50.5128 13.2 50.5128 14.58C50.5128 15.96 49.3848 16.74 48.3288 17.448C47.4288 18.06 46.5288 18.612 46.5288 19.44H50.4768V21H44.8968ZM55.7104 21.12C52.9744 21.12 51.1624 19.056 51.1624 16.62C51.1624 14.124 53.0464 12.12 55.6384 12.12C57.4504 12.12 58.8784 13.044 59.6224 14.364L58.1824 15.228C57.6304 14.208 56.7904 13.704 55.6504 13.704C54.0184 13.704 52.7824 15.036 52.7824 16.62C52.7824 18.24 54.0064 19.536 55.7104 19.536C57.0424 19.536 57.9184 18.792 58.2424 17.64H55.4464V16.08H59.9944V16.728C59.9944 19.092 58.3384 21.12 55.7104 21.12ZM60.7657 21V12.24H63.5257C65.4817 12.24 66.5737 13.068 66.5737 14.688C66.5737 15.444 66.2497 16.02 65.6137 16.392C66.4297 16.764 66.8857 17.436 66.8857 18.408C66.8857 20.136 65.6737 21 63.7417 21H60.7657ZM63.6697 17.256H62.3977V19.5H63.7417C64.7377 19.5 65.2417 19.092 65.2417 18.372C65.2417 17.652 64.8817 17.256 63.6697 17.256ZM63.5257 13.74H62.3977V15.732H63.5257C64.5697 15.732 64.9297 15.312 64.9297 14.688C64.9297 14.028 64.5337 13.74 63.5257 13.74Z" fill="black"/>
<path d="M75.336 11.868C76.04 11.868 76.636 12.052 77.124 12.42C77.612 12.788 77.904 13.28 78 13.896H80.196V11.376H81.096V17.004H80.196V14.64H78C77.912 15.256 77.624 15.756 77.136 16.14C76.648 16.524 76.048 16.716 75.336 16.716C74.816 16.716 74.352 16.616 73.944 16.416C73.536 16.208 73.216 15.92 72.984 15.552C72.752 15.184 72.636 14.764 72.636 14.292C72.636 13.82 72.752 13.4 72.984 13.032C73.216 12.664 73.536 12.38 73.944 12.18C74.352 11.972 74.816 11.868 75.336 11.868ZM75.336 12.624C74.792 12.624 74.348 12.78 74.004 13.092C73.668 13.404 73.5 13.804 73.5 14.292C73.5 14.78 73.672 15.18 74.016 15.492C74.36 15.796 74.8 15.948 75.336 15.948C75.872 15.948 76.308 15.796 76.644 15.492C76.988 15.18 77.16 14.78 77.16 14.292C77.16 13.804 76.988 13.404 76.644 13.092C76.308 12.78 75.872 12.624 75.336 12.624ZM75.3 17.544V18.888H80.196V17.544H81.096V21.732H74.4V17.544H75.3ZM75.3 21H80.196V19.608H75.3V21ZM90.5763 12.492V13.524C90.5763 14.436 90.5523 15.264 90.5043 16.008C90.4643 16.752 90.3563 17.628 90.1803 18.636L89.2683 18.552C89.4523 17.6 89.5683 16.752 89.6163 16.008C89.6643 15.264 89.6883 14.436 89.6883 13.524V13.236H83.4123V12.492H90.5763ZM91.8603 19.572V20.328H82.3683V19.572H91.8603ZM96.3366 12.54V16.152H93.4806V18.528C94.1686 18.528 94.8046 18.508 95.3886 18.468C95.9726 18.428 96.5846 18.348 97.2246 18.228L97.2966 18.972C96.6166 19.092 95.9726 19.172 95.3646 19.212C94.7566 19.252 94.0686 19.272 93.3006 19.272H92.6166V15.432H95.4726V13.296H92.5926V12.54H96.3366ZM101.149 11.376V21.876H100.285V11.376H101.149ZM98.1726 15.168V11.64H99.0126V21.312H98.1726V15.912H96.8406V15.168H98.1726ZM110.713 11.364V21.888H109.813V11.364H110.713ZM105.193 12.192C105.705 12.192 106.161 12.344 106.561 12.648C106.969 12.944 107.285 13.368 107.509 13.92C107.733 14.472 107.845 15.112 107.845 15.84C107.845 16.568 107.733 17.212 107.509 17.772C107.285 18.324 106.969 18.752 106.561 19.056C106.161 19.352 105.705 19.5 105.193 19.5C104.673 19.5 104.209 19.352 103.801 19.056C103.401 18.752 103.089 18.324 102.865 17.772C102.641 17.22 102.529 16.576 102.529 15.84C102.529 15.112 102.641 14.472 102.865 13.92C103.089 13.368 103.401 12.944 103.801 12.648C104.209 12.344 104.673 12.192 105.193 12.192ZM105.193 12.996C104.841 12.996 104.529 13.116 104.257 13.356C103.993 13.588 103.785 13.92 103.633 14.352C103.481 14.776 103.405 15.272 103.405 15.84C103.405 16.408 103.481 16.908 103.633 17.34C103.785 17.772 103.993 18.108 104.257 18.348C104.529 18.58 104.841 18.696 105.193 18.696C105.537 18.696 105.845 18.58 106.117 18.348C106.389 18.108 106.601 17.772 106.753 17.34C106.905 16.9 106.981 16.4 106.981 15.84C106.981 15.28 106.905 14.784 106.753 14.352C106.601 13.92 106.389 13.588 106.117 13.356C105.845 13.116 105.537 12.996 105.193 12.996ZM120.325 12.348V13.092H114.145V16.428H120.445V17.16H113.257V12.348H120.325ZM121.549 19.68V20.424H112.033V19.68H121.549ZM132.655 11.364V21.888H131.755V11.364H132.655ZM125.587 12.276V15.06H128.719V12.276H129.607V19.344H124.687V12.276H125.587ZM125.587 18.6H128.719V15.78H125.587V18.6ZM136.339 16.596V15.096C135.467 14.744 135.031 14.22 135.031 13.524C135.031 12.908 135.359 12.432 136.015 12.096C136.671 11.752 137.571 11.58 138.715 11.58C139.859 11.58 140.759 11.752 141.415 12.096C142.071 12.432 142.399 12.908 142.399 13.524C142.399 13.876 142.287 14.184 142.063 14.448C141.839 14.704 141.519 14.916 141.103 15.084V16.596H143.455V17.316H133.975V16.596H136.339ZM138.715 18.144C139.843 18.144 140.723 18.308 141.355 18.636C141.987 18.956 142.303 19.408 142.303 19.992C142.303 20.592 141.987 21.052 141.355 21.372C140.723 21.7 139.843 21.864 138.715 21.864C137.587 21.864 136.707 21.7 136.075 21.372C135.443 21.052 135.127 20.592 135.127 19.992C135.127 19.408 135.443 18.956 136.075 18.636C136.707 18.308 137.587 18.144 138.715 18.144ZM138.715 18.84C137.875 18.84 137.215 18.944 136.735 19.152C136.263 19.352 136.027 19.632 136.027 19.992C136.027 20.36 136.263 20.648 136.735 20.856C137.207 21.056 137.867 21.156 138.715 21.156C139.555 21.156 140.211 21.056 140.683 20.856C141.155 20.648 141.391 20.36 141.391 19.992C141.391 19.632 141.151 19.352 140.671 19.152C140.199 18.944 139.547 18.84 138.715 18.84ZM138.715 12.276C137.867 12.276 137.195 12.388 136.699 12.612C136.203 12.828 135.955 13.132 135.955 13.524C135.955 13.908 136.203 14.212 136.699 14.436C137.195 14.652 137.867 14.76 138.715 14.76C139.563 14.76 140.235 14.652 140.731 14.436C141.227 14.212 141.475 13.908 141.475 13.524C141.475 13.132 141.227 12.828 140.731 12.612C140.235 12.388 139.563 12.276 138.715 12.276ZM140.215 16.596V15.336C139.719 15.416 139.219 15.456 138.715 15.456C138.147 15.456 137.651 15.416 137.227 15.336V16.596H140.215Z" fill="black"/>
<defs>
<filter id="filter0_d_4051_1933" x="0" y="0" width="160" height="44" filterUnits="userSpaceOnUse" color-interpolation-filters="sRGB">
<feFlood flood-opacity="0" result="BackgroundImageFix"/>
<feColorMatrix in="SourceAlpha" type="matrix" values="0 0 0 0 0 0 0 0 0 0 0 0 0 0 0 0 0 0 127 0" result="hardAlpha"/>
<feOffset dy="3"/>
<feGaussianBlur stdDeviation="2"/>
<feComposite in2="hardAlpha" operator="out"/>
<feColorMatrix type="matrix" values="0 0 0 0 0.505882 0 0 0 0 0 0 0 0 0 0.960784 0 0 0 0.08 0"/>
<feBlend mode="normal" in2="BackgroundImageFix" result="effect1_dropShadow_4051_1933"/>
<feBlend mode="normal" in="SourceGraphic" in2="effect1_dropShadow_4051_1933" result="shape"/>
</filter>
<clipPath id="clip0_4051_1933">
<rect width="14" height="14" fill="white" transform="translate(16 9.5)"/>
</clipPath>
</defs>
</svg>
