<svg xmlns="http://www.w3.org/2000/svg" xmlns:xlink="http://www.w3.org/1999/xlink" width="24" height="24" viewBox="0 0 24 24">
  <defs>
    <clipPath id="clip-path">
      <rect id="사각형_610" data-name="사각형 610" width="24" height="24" fill="none" stroke="#0060aa" stroke-width="1"/>
    </clipPath>
  </defs>
  <g id="그룹_1016" data-name="그룹 1016" transform="translate(0 0)">
    <g id="그룹_1014" data-name="그룹 1014" transform="translate(0 0)" clip-path="url(#clip-path)">
      <path id="패스_7035" data-name="패스 7035" d="M21.945,10.43a3.967,3.967,0,0,0-.134-1L23.342,8.4,22.2,6.585l-1.73.705a4.805,4.805,0,0,0-1.893-1.007l-.2-1.724h-2.29l-.2,1.724a4.816,4.816,0,0,0-1.894,1.007l-1.73-.705L11.115,8.4l1.529,1.022a3.887,3.887,0,0,0,0,2.007l-1.529,1.022,1.143,1.819,1.73-.7a4.827,4.827,0,0,0,1.894,1.006l.2,1.724h2.29l.2-1.724a4.816,4.816,0,0,0,1.893-1.006l1.73.7,1.145-1.819-1.531-1.022A3.967,3.967,0,0,0,21.945,10.43Z" transform="translate(0.152 0.062)" fill="none" stroke="#0060aa" stroke-linecap="round" stroke-linejoin="round" stroke-width="1"/>
      <ellipse id="타원_50" data-name="타원 50" cx="2.444" cy="2.242" rx="2.444" ry="2.242" transform="translate(14.936 8.25)" fill="none" stroke="#0060aa" stroke-linecap="round" stroke-linejoin="round" stroke-width="1"/>
      <path id="패스_7036" data-name="패스 7036" d="M19.293,17.849v5.573H.5V5.225" transform="translate(0.007 0.071)" fill="none" stroke="#0060aa" stroke-linejoin="round" stroke-width="1"/>
      <path id="패스_7037" data-name="패스 7037" d="M5.65.5H19.223V2.979" transform="translate(0.077 0.007)" fill="none" stroke="#0060aa" stroke-linejoin="round" stroke-width="1"/>
      <path id="패스_7038" data-name="패스 7038" d="M5.72,5.289H.5L5.72.5Z" transform="translate(0.007 0.007)" fill="none" stroke="#0060aa" stroke-linejoin="round" stroke-width="1"/>
    </g>
  </g>
</svg>
