<svg xmlns="http://www.w3.org/2000/svg" xmlns:xlink="http://www.w3.org/1999/xlink" width="24" height="16" viewBox="0 0 24 16">
  <defs>
    <clipPath id="clip-path">
      <rect id="사각형_612" data-name="사각형 612" width="24" height="16" fill="none" stroke="#0060aa" stroke-width="1"/>
    </clipPath>
  </defs>
  <g id="그룹_1023" data-name="그룹 1023" transform="translate(0 0)">
    <g id="그룹_1022" data-name="그룹 1022" transform="translate(0 0)" clip-path="url(#clip-path)">
      <path id="패스_7043" data-name="패스 7043" d="M5.224,15.059c0-4.127,3-7.473,6.7-7.473s6.7,3.346,6.7,7.473Z" transform="translate(0.071 0.413)" fill="none" stroke="#0060aa" stroke-linejoin="round" stroke-width="1"/>
      <ellipse id="타원_51" data-name="타원 51" cx="3.352" cy="3.736" rx="3.352" ry="3.736" transform="translate(8.648 0.527)" fill="none" stroke="#0060aa" stroke-linejoin="round" stroke-width="1"/>
      <path id="패스_7044" data-name="패스 7044" d="M16.25,9.492a3.743,3.743,0,0,1,3.191-1.905,4.068,4.068,0,0,1,3.831,4.27H17.837" transform="translate(0.222 0.413)" fill="none" stroke="#0060aa" stroke-linejoin="round" stroke-width="1"/>
      <ellipse id="타원_52" data-name="타원 52" cx="1.916" cy="2.135" rx="1.916" ry="2.135" transform="translate(17.746 3.729)" fill="none" stroke="#0060aa" stroke-linejoin="round" stroke-width="1"/>
      <path id="패스_7045" data-name="패스 7045" d="M7.521,9.492A3.743,3.743,0,0,0,4.331,7.587,4.068,4.068,0,0,0,.5,11.857H5.934" transform="translate(0.007 0.413)" fill="none" stroke="#0060aa" stroke-linejoin="round" stroke-width="1"/>
      <ellipse id="타원_53" data-name="타원 53" cx="1.916" cy="2.135" rx="1.916" ry="2.135" transform="translate(2.422 3.729)" fill="none" stroke="#0060aa" stroke-linejoin="round" stroke-width="1"/>
    </g>
  </g>
</svg>
