<svg xmlns="http://www.w3.org/2000/svg" xmlns:xlink="http://www.w3.org/1999/xlink" width="20" height="20" viewBox="0 0 20 20">
  <defs>
    <clipPath id="clip-path">
      <rect id="사각형_616" data-name="사각형 616" width="20" height="20" fill="none" stroke="#fff" stroke-width="1"/>
    </clipPath>
  </defs>
  <g id="그룹_1035" data-name="그룹 1035" clip-path="url(#clip-path)">
    <path id="패스_7052" data-name="패스 7052" d="M18.981,7.435v7.909a.668.668,0,0,1-.659.671H1.176a.667.667,0,0,1-.659-.671V3.957a.666.666,0,0,1,.659-.67H11.4" transform="translate(0.018 0.115)" fill="none" stroke="#fff" stroke-linecap="round" stroke-linejoin="round" stroke-width="1.033"/>
    <line id="선_51" data-name="선 51" x2="8.786" transform="translate(5.373 19.466)" fill="none" stroke="#fff" stroke-linecap="round" stroke-linejoin="round" stroke-width="1.033"/>
    <line id="선_52" data-name="선 52" x2="18.464" transform="translate(0.534 13.925)" fill="none" stroke="#fff" stroke-linecap="round" stroke-linejoin="round" stroke-width="1.033"/>
    <line id="선_53" data-name="선 53" y2="3.336" transform="translate(7.623 16.13)" fill="none" stroke="#fff" stroke-linecap="round" stroke-linejoin="round" stroke-width="1.033"/>
    <line id="선_54" data-name="선 54" y2="3.28" transform="translate(11.91 16.186)" fill="none" stroke="#fff" stroke-linecap="round" stroke-linejoin="round" stroke-width="1.033"/>
    <ellipse id="타원_54" data-name="타원 54" cx="1.645" cy="1.67" rx="1.645" ry="1.67" transform="translate(13.706 3.238)" fill="none" stroke="#fff" stroke-linecap="round" stroke-linejoin="round" stroke-width="1.033"/>
    <path id="패스_7053" data-name="패스 7053" d="M18.145,4.891a3.289,3.289,0,0,0-.089-.747l1.03-.762-.771-1.356-1.164.525A3.162,3.162,0,0,0,15.877,1.8L15.742.517H14.2L14.066,1.8a3.162,3.162,0,0,0-1.274.749l-1.164-.525-.77,1.356,1.029.762a3.181,3.181,0,0,0,0,1.495L10.858,6.4l.77,1.356,1.164-.525a3.162,3.162,0,0,0,1.274.749L14.2,9.265h1.541l.135-1.284a3.162,3.162,0,0,0,1.274-.749l1.164.525L19.086,6.4l-1.03-.762A3.289,3.289,0,0,0,18.145,4.891Z" transform="translate(0.38 0.018)" fill="none" stroke="#fff" stroke-linecap="round" stroke-linejoin="round" stroke-width="1.033"/>
  </g>
</svg>
