<svg width="259" height="132" viewBox="0 0 259 132" fill="none" xmlns="http://www.w3.org/2000/svg">
<g filter="url(#filter0_d_1695_1734)">
<path d="M93.152 33V28.904C93.152 24.872 96.384 22.536 99.296 20.552C101.6 18.92 103.712 17.64 103.712 15.848C103.712 14.312 102.592 13.064 100.512 13.064C98.464 13.064 97.216 14.44 96.416 16.392L92.672 14.504C94.112 11.304 96.704 9.32 100.544 9.32C105.28 9.32 108.128 12.2 108.128 15.88C108.128 19.56 105.12 21.64 102.304 23.528C99.904 25.16 97.504 26.632 97.504 28.84H108.032V33H93.152ZM118.532 29C120.868 29 122.148 27.464 122.148 25.544V17.256C122.148 15.048 120.9 13.608 118.596 13.608C116.26 13.608 114.98 15.208 114.98 17.256V25.512C114.98 27.56 116.196 29 118.532 29ZM118.564 33.32C113.476 33.32 110.628 30.184 110.628 25.704V17.128C110.628 12.68 113.86 9.32 118.564 9.32C123.396 9.32 126.5 12.808 126.5 17.096V25.704C126.5 30.28 123.588 33.32 118.564 33.32ZM129.121 33V28.904C129.121 24.872 132.353 22.536 135.265 20.552C137.569 18.92 139.681 17.64 139.681 15.848C139.681 14.312 138.561 13.064 136.481 13.064C134.433 13.064 133.185 14.44 132.385 16.392L128.641 14.504C130.081 11.304 132.673 9.32 136.513 9.32C141.249 9.32 144.097 12.2 144.097 15.88C144.097 19.56 141.089 21.64 138.273 23.528C135.873 25.16 133.473 26.632 133.473 28.84H144.001V33H129.121ZM153.765 33.32C149.669 33.32 147.013 31.176 145.797 28.84L149.829 26.504C150.501 28.008 151.717 29.32 153.797 29.32C155.717 29.32 157.381 27.816 157.381 25.64C157.381 23.464 156.005 21.768 153.701 21.768C151.877 21.768 150.757 22.76 149.957 24.136L146.085 22.152L147.749 9.64H160.741V13.704H151.205L150.533 18.888C151.429 18.28 152.677 17.8 154.181 17.8C158.373 17.8 161.765 20.552 161.765 25.64C161.765 30.184 158.405 33.32 153.765 33.32Z" fill="#AAAAAA"/>
<path d="M4.15999 82V52.07H10.474L23.43 72.447V52.07H29.006V82H23.061L9.73599 60.967V82H4.15999ZM44.2346 82.492C36.6906 82.492 31.5656 76.998 31.5656 70.069C31.5656 63.058 37.0186 57.523 44.0296 57.523C51.1636 57.523 56.3706 62.771 56.3706 69.864V71.955H36.8546C37.6336 75.358 40.2986 77.613 44.2346 77.613C47.3506 77.613 49.7286 75.973 50.8766 73.39L55.4276 76.014C53.3366 79.909 49.6466 82.492 44.2346 82.492ZM44.0296 62.402C40.7086 62.402 38.1256 64.37 37.1416 67.322H50.7536C49.9336 64.083 47.4736 62.402 44.0296 62.402ZM64.1427 82L56.1477 58.015H61.8057L67.0947 74.538L73.1217 58.015H78.6157L84.5197 74.579L90.0137 58.015H95.6307L87.2257 82H81.8957L75.8277 65.395L69.5957 82H64.1427ZM122.7 82.41C113.352 82.41 107.161 75.358 107.161 67.035C107.161 58.507 113.598 51.66 122.454 51.66C128.645 51.66 133.524 54.817 136.066 59.327L131.146 62.279C129.26 58.794 126.39 57.072 122.495 57.072C116.919 57.072 112.696 61.623 112.696 67.035C112.696 72.57 116.878 76.998 122.7 76.998C127.251 76.998 130.244 74.456 131.351 70.52H121.798V65.19H137.337V67.404C137.337 75.481 131.679 82.41 122.7 82.41ZM151.279 82.492C145.498 82.492 139.471 77.9 139.471 70.028C139.471 62.074 145.293 57.523 151.361 57.523C154.518 57.523 157.306 58.794 159.069 60.885V58.015H164.604V82H159.069V78.884C157.306 81.139 154.436 82.492 151.279 82.492ZM152.181 77.408C156.322 77.408 159.356 74.087 159.356 69.946C159.356 65.846 156.322 62.566 152.181 62.566C148.081 62.566 144.924 65.805 144.924 69.946C144.924 74.128 148.081 77.408 152.181 77.408ZM167.757 82V51.66H173.333V82H167.757ZM187.554 82.492C181.773 82.492 175.746 77.9 175.746 70.028C175.746 62.074 181.568 57.523 187.636 57.523C190.793 57.523 193.581 58.794 195.344 60.885V58.015H200.879V82H195.344V78.884C193.581 81.139 190.711 82.492 187.554 82.492ZM188.456 77.408C192.597 77.408 195.631 74.087 195.631 69.946C195.631 65.846 192.597 62.566 188.456 62.566C184.356 62.566 181.199 65.805 181.199 69.946C181.199 74.128 184.356 77.408 188.456 77.408ZM202.238 82L211.258 69.782L202.566 58.015H209.331L214.784 65.641L220.196 58.015H226.756L218.146 69.864L227.33 82H220.565L214.702 74.005L209.003 82H202.238ZM232.26 93.07L237.303 80.811L227.463 58.015H233.367L240.05 74.169L246.364 58.015H252.186L237.877 93.07H232.26Z" fill="white"/>
<path d="M67.6177 120.2C66.4977 120.2 65.4711 120.007 64.5377 119.62C63.6177 119.22 62.8311 118.687 62.1777 118.02C61.5244 117.34 61.0177 116.547 60.6577 115.64C60.2977 114.72 60.1177 113.74 60.1177 112.7C60.1177 111.607 60.3111 110.607 60.6977 109.7C61.0844 108.78 61.6111 107.987 62.2777 107.32C62.9577 106.653 63.7511 106.133 64.6577 105.76C65.5777 105.387 66.5644 105.2 67.6177 105.2C68.2977 105.2 68.9511 105.287 69.5777 105.46C70.2177 105.633 70.8111 105.88 71.3577 106.2C71.9177 106.507 72.4177 106.887 72.8577 107.34C73.3111 107.78 73.6977 108.273 74.0177 108.82L71.6377 110.34C71.2111 109.58 70.6711 108.98 70.0177 108.54C69.3644 108.1 68.5644 107.88 67.6177 107.88C66.9244 107.88 66.2844 108.007 65.6977 108.26C65.1111 108.5 64.6044 108.84 64.1777 109.28C63.7511 109.707 63.4177 110.213 63.1777 110.8C62.9377 111.387 62.8177 112.02 62.8177 112.7C62.8177 113.367 62.9377 113.993 63.1777 114.58C63.4177 115.153 63.7444 115.66 64.1577 116.1C64.5844 116.527 65.0844 116.867 65.6577 117.12C66.2444 117.36 66.8777 117.48 67.5577 117.48C68.5711 117.48 69.4244 117.227 70.1177 116.72C70.8244 116.2 71.3711 115.54 71.7577 114.74L74.2377 116.04C73.9177 116.667 73.5244 117.233 73.0577 117.74C72.6044 118.247 72.0911 118.687 71.5177 119.06C70.9577 119.42 70.3444 119.7 69.6777 119.9C69.0244 120.1 68.3377 120.2 67.6177 120.2ZM81.001 120.24C80.161 120.24 79.3677 120.087 78.621 119.78C77.8877 119.46 77.2477 119.027 76.701 118.48C76.1543 117.92 75.721 117.273 75.401 116.54C75.0943 115.793 74.941 115 74.941 114.16C74.941 113.307 75.0943 112.513 75.401 111.78C75.721 111.033 76.1543 110.387 76.701 109.84C77.2477 109.293 77.8877 108.86 78.621 108.54C79.3677 108.22 80.161 108.06 81.001 108.06C81.841 108.06 82.6277 108.22 83.361 108.54C84.0943 108.86 84.7343 109.293 85.281 109.84C85.841 110.387 86.2744 111.033 86.581 111.78C86.901 112.513 87.061 113.307 87.061 114.16C87.061 115 86.901 115.793 86.581 116.54C86.2744 117.273 85.841 117.92 85.281 118.48C84.7343 119.027 84.0943 119.46 83.361 119.78C82.6277 120.087 81.841 120.24 81.001 120.24ZM81.001 117.7C81.481 117.7 81.9277 117.607 82.341 117.42C82.7543 117.233 83.1143 116.98 83.421 116.66C83.7277 116.34 83.9677 115.967 84.141 115.54C84.3143 115.1 84.401 114.64 84.401 114.16C84.401 113.667 84.3143 113.207 84.141 112.78C83.9677 112.34 83.7277 111.96 83.421 111.64C83.1143 111.32 82.7543 111.067 82.341 110.88C81.9277 110.693 81.481 110.6 81.001 110.6C80.521 110.6 80.0677 110.693 79.641 110.88C79.2277 111.067 78.8677 111.32 78.561 111.64C78.2677 111.96 78.0343 112.34 77.861 112.78C77.6877 113.207 77.601 113.667 77.601 114.16C77.601 114.64 77.6877 115.1 77.861 115.54C78.0343 115.967 78.2677 116.34 78.561 116.66C78.8677 116.98 79.2277 117.233 79.641 117.42C80.0677 117.607 80.521 117.7 81.001 117.7ZM88.2507 108.3H90.9307V109.66C91.304 109.167 91.7707 108.78 92.3307 108.5C92.904 108.207 93.5507 108.06 94.2707 108.06C95.1907 108.06 95.964 108.24 96.5907 108.6C97.2307 108.947 97.724 109.44 98.0707 110.08C98.4707 109.467 98.9974 108.98 99.6507 108.62C100.317 108.247 101.071 108.06 101.911 108.06C103.484 108.06 104.671 108.5 105.471 109.38C106.271 110.247 106.671 111.44 106.671 112.96V120H103.911V113.18C103.911 112.327 103.697 111.653 103.271 111.16C102.844 110.653 102.211 110.4 101.371 110.4C100.637 110.4 100.024 110.653 99.5307 111.16C99.0374 111.667 98.7907 112.433 98.7907 113.46V120H96.0507V113.1C96.0507 112.26 95.844 111.6 95.4307 111.12C95.0174 110.64 94.404 110.4 93.5907 110.4C92.8307 110.4 92.1974 110.66 91.6907 111.18C91.1974 111.7 90.9507 112.48 90.9507 113.52V120H88.2507V108.3ZM108.212 108.3H110.932V120H108.212V108.3ZM107.872 105.44C107.872 104.933 108.025 104.527 108.332 104.22C108.638 103.9 109.052 103.74 109.572 103.74C110.105 103.74 110.518 103.9 110.812 104.22C111.118 104.527 111.272 104.933 111.272 105.44C111.272 105.947 111.118 106.353 110.812 106.66C110.518 106.967 110.105 107.12 109.572 107.12C109.025 107.12 108.605 106.967 108.312 106.66C108.018 106.353 107.872 105.947 107.872 105.44ZM112.489 108.3H115.169V109.74C115.556 109.233 116.042 108.827 116.629 108.52C117.229 108.213 117.909 108.06 118.669 108.06C120.122 108.06 121.256 108.5 122.069 109.38C122.896 110.26 123.309 111.487 123.309 113.06V120H120.569V113.34C120.569 112.433 120.349 111.72 119.909 111.2C119.469 110.667 118.809 110.4 117.929 110.4C117.156 110.4 116.502 110.673 115.969 111.22C115.449 111.767 115.189 112.553 115.189 113.58V120H112.489V108.3ZM134.072 118.44C133.645 119 133.098 119.44 132.432 119.76C131.765 120.08 131.038 120.24 130.252 120.24C129.545 120.24 128.845 120.107 128.152 119.84C127.472 119.56 126.858 119.16 126.312 118.64C125.765 118.12 125.325 117.487 124.992 116.74C124.658 115.98 124.492 115.12 124.492 114.16C124.492 113.187 124.652 112.327 124.972 111.58C125.305 110.82 125.738 110.18 126.272 109.66C126.818 109.14 127.438 108.747 128.132 108.48C128.825 108.2 129.545 108.06 130.292 108.06C131.065 108.06 131.778 108.22 132.432 108.54C133.085 108.847 133.625 109.267 134.052 109.8V108.3H136.752V119.7C136.752 120.527 136.618 121.3 136.352 122.02C136.098 122.74 135.718 123.367 135.212 123.9C134.705 124.447 134.072 124.873 133.312 125.18C132.565 125.5 131.698 125.66 130.712 125.66C129.952 125.66 129.258 125.573 128.632 125.4C128.018 125.24 127.465 125.007 126.972 124.7C126.478 124.407 126.045 124.053 125.672 123.64C125.298 123.24 124.978 122.793 124.712 122.3L127.112 120.84C127.325 121.227 127.545 121.567 127.772 121.86C127.998 122.153 128.252 122.393 128.532 122.58C128.825 122.78 129.152 122.927 129.512 123.02C129.872 123.127 130.285 123.18 130.752 123.18C131.258 123.18 131.718 123.087 132.132 122.9C132.545 122.713 132.892 122.467 133.172 122.16C133.465 121.853 133.685 121.493 133.832 121.08C133.992 120.667 134.072 120.24 134.072 119.8V118.44ZM130.692 117.76C131.185 117.76 131.645 117.667 132.072 117.48C132.512 117.293 132.885 117.033 133.192 116.7C133.498 116.367 133.738 115.98 133.912 115.54C134.098 115.1 134.192 114.627 134.192 114.12C134.192 113.627 134.098 113.16 133.912 112.72C133.738 112.28 133.498 111.9 133.192 111.58C132.885 111.247 132.512 110.987 132.072 110.8C131.645 110.613 131.185 110.52 130.692 110.52C130.185 110.52 129.718 110.613 129.292 110.8C128.865 110.987 128.492 111.24 128.172 111.56C127.852 111.88 127.598 112.26 127.412 112.7C127.238 113.14 127.152 113.613 127.152 114.12C127.152 114.627 127.238 115.107 127.412 115.56C127.598 116 127.852 116.387 128.172 116.72C128.492 117.04 128.865 117.293 129.292 117.48C129.718 117.667 130.185 117.76 130.692 117.76ZM147.631 120.24C146.338 120.24 145.265 120 144.411 119.52C143.558 119.027 142.898 118.32 142.431 117.4L144.931 116.2C145.211 116.747 145.591 117.167 146.071 117.46C146.551 117.753 147.111 117.9 147.751 117.9C148.418 117.9 148.918 117.76 149.251 117.48C149.585 117.2 149.751 116.867 149.751 116.48C149.751 116.267 149.671 116.093 149.511 115.96C149.365 115.827 149.165 115.713 148.911 115.62C148.671 115.513 148.385 115.427 148.051 115.36C147.718 115.293 147.371 115.22 147.011 115.14C146.505 115.047 146.005 114.927 145.511 114.78C145.031 114.62 144.598 114.413 144.211 114.16C143.825 113.893 143.511 113.56 143.271 113.16C143.031 112.747 142.911 112.233 142.911 111.62C142.911 111.153 143.018 110.707 143.231 110.28C143.445 109.84 143.751 109.453 144.151 109.12C144.551 108.787 145.031 108.527 145.591 108.34C146.165 108.14 146.805 108.04 147.511 108.04C148.685 108.04 149.658 108.26 150.431 108.7C151.218 109.127 151.838 109.713 152.291 110.46L149.991 111.62C149.751 111.207 149.418 110.88 148.991 110.64C148.565 110.4 148.071 110.28 147.511 110.28C146.871 110.28 146.398 110.407 146.091 110.66C145.785 110.913 145.631 111.207 145.631 111.54C145.631 111.927 145.858 112.207 146.311 112.38C146.765 112.54 147.431 112.713 148.311 112.9C148.791 113.007 149.271 113.133 149.751 113.28C150.245 113.427 150.691 113.633 151.091 113.9C151.491 114.153 151.811 114.487 152.051 114.9C152.305 115.3 152.431 115.807 152.431 116.42C152.431 116.833 152.338 117.267 152.151 117.72C151.965 118.16 151.671 118.573 151.271 118.96C150.885 119.333 150.391 119.64 149.791 119.88C149.191 120.12 148.471 120.24 147.631 120.24ZM159.263 120.24C158.423 120.24 157.629 120.087 156.883 119.78C156.149 119.46 155.509 119.027 154.963 118.48C154.416 117.92 153.983 117.273 153.663 116.54C153.356 115.793 153.203 115 153.203 114.16C153.203 113.307 153.356 112.513 153.663 111.78C153.983 111.033 154.416 110.387 154.963 109.84C155.509 109.293 156.149 108.86 156.883 108.54C157.629 108.22 158.423 108.06 159.263 108.06C160.103 108.06 160.889 108.22 161.623 108.54C162.356 108.86 162.996 109.293 163.543 109.84C164.103 110.387 164.536 111.033 164.843 111.78C165.163 112.513 165.323 113.307 165.323 114.16C165.323 115 165.163 115.793 164.843 116.54C164.536 117.273 164.103 117.92 163.543 118.48C162.996 119.027 162.356 119.46 161.623 119.78C160.889 120.087 160.103 120.24 159.263 120.24ZM159.263 117.7C159.743 117.7 160.189 117.607 160.603 117.42C161.016 117.233 161.376 116.98 161.683 116.66C161.989 116.34 162.229 115.967 162.403 115.54C162.576 115.1 162.663 114.64 162.663 114.16C162.663 113.667 162.576 113.207 162.403 112.78C162.229 112.34 161.989 111.96 161.683 111.64C161.376 111.32 161.016 111.067 160.603 110.88C160.189 110.693 159.743 110.6 159.263 110.6C158.783 110.6 158.329 110.693 157.903 110.88C157.489 111.067 157.129 111.32 156.823 111.64C156.529 111.96 156.296 112.34 156.123 112.78C155.949 113.207 155.863 113.667 155.863 114.16C155.863 114.64 155.949 115.1 156.123 115.54C156.296 115.967 156.529 116.34 156.823 116.66C157.129 116.98 157.489 117.233 157.903 117.42C158.329 117.607 158.783 117.7 159.263 117.7ZM172.29 120.24C171.45 120.24 170.657 120.087 169.91 119.78C169.177 119.46 168.537 119.027 167.99 118.48C167.443 117.92 167.01 117.273 166.69 116.54C166.383 115.793 166.23 115 166.23 114.16C166.23 113.307 166.383 112.513 166.69 111.78C167.01 111.033 167.443 110.387 167.99 109.84C168.537 109.293 169.177 108.86 169.91 108.54C170.657 108.22 171.45 108.06 172.29 108.06C173.13 108.06 173.917 108.22 174.65 108.54C175.383 108.86 176.023 109.293 176.57 109.84C177.13 110.387 177.563 111.033 177.87 111.78C178.19 112.513 178.35 113.307 178.35 114.16C178.35 115 178.19 115.793 177.87 116.54C177.563 117.273 177.13 117.92 176.57 118.48C176.023 119.027 175.383 119.46 174.65 119.78C173.917 120.087 173.13 120.24 172.29 120.24ZM172.29 117.7C172.77 117.7 173.217 117.607 173.63 117.42C174.043 117.233 174.403 116.98 174.71 116.66C175.017 116.34 175.257 115.967 175.43 115.54C175.603 115.1 175.69 114.64 175.69 114.16C175.69 113.667 175.603 113.207 175.43 112.78C175.257 112.34 175.017 111.96 174.71 111.64C174.403 111.32 174.043 111.067 173.63 110.88C173.217 110.693 172.77 110.6 172.29 110.6C171.81 110.6 171.357 110.693 170.93 110.88C170.517 111.067 170.157 111.32 169.85 111.64C169.557 111.96 169.323 112.34 169.15 112.78C168.977 113.207 168.89 113.667 168.89 114.16C168.89 114.64 168.977 115.1 169.15 115.54C169.323 115.967 169.557 116.34 169.85 116.66C170.157 116.98 170.517 117.233 170.93 117.42C171.357 117.607 171.81 117.7 172.29 117.7ZM179.54 108.3H182.22V109.74C182.606 109.233 183.093 108.827 183.68 108.52C184.28 108.213 184.96 108.06 185.72 108.06C187.173 108.06 188.306 108.5 189.12 109.38C189.946 110.26 190.36 111.487 190.36 113.06V120H187.62V113.34C187.62 112.433 187.4 111.72 186.96 111.2C186.52 110.667 185.86 110.4 184.98 110.4C184.206 110.4 183.553 110.673 183.02 111.22C182.5 111.767 182.24 112.553 182.24 113.58V120H179.54V108.3ZM192.503 116.04C192.409 115.44 192.323 114.8 192.243 114.12C192.176 113.427 192.116 112.72 192.063 112C192.009 111.28 191.963 110.56 191.923 109.84C191.896 109.107 191.883 108.407 191.883 107.74V105.4H194.563V107.74C194.563 108.407 194.549 109.107 194.523 109.84C194.496 110.56 194.456 111.28 194.403 112C194.349 112.72 194.283 113.427 194.203 114.12C194.136 114.8 194.056 115.44 193.963 116.04H192.503ZM191.583 118.62C191.583 118.127 191.729 117.733 192.023 117.44C192.316 117.133 192.716 116.98 193.223 116.98C193.729 116.98 194.123 117.133 194.403 117.44C194.696 117.733 194.843 118.127 194.843 118.62C194.843 119.1 194.696 119.493 194.403 119.8C194.109 120.093 193.709 120.24 193.203 120.24C192.696 120.24 192.296 120.093 192.003 119.8C191.723 119.493 191.583 119.1 191.583 118.62Z" fill="#999999"/>
</g>
<defs>
<filter id="filter0_d_1695_1734" x="0" y="0" width="259" height="132" filterUnits="userSpaceOnUse" color-interpolation-filters="sRGB">
<feFlood flood-opacity="0" result="BackgroundImageFix"/>
<feColorMatrix in="SourceAlpha" type="matrix" values="0 0 0 0 0 0 0 0 0 0 0 0 0 0 0 0 0 0 127 0" result="hardAlpha"/>
<feOffset dx="2" dy="2"/>
<feGaussianBlur stdDeviation="2"/>
<feComposite in2="hardAlpha" operator="out"/>
<feColorMatrix type="matrix" values="0 0 0 0 0 0 0 0 0 0 0 0 0 0 0 0 0 0 0.45 0"/>
<feBlend mode="normal" in2="BackgroundImageFix" result="effect1_dropShadow_1695_1734"/>
<feBlend mode="normal" in="SourceGraphic" in2="effect1_dropShadow_1695_1734" result="shape"/>
</filter>
</defs>
</svg>
