<svg width="476" height="37" viewBox="0 0 476 37" fill="none" xmlns="http://www.w3.org/2000/svg">
<path d="M21.3789 29H16.8086L5.62891 12.8281H5.41797V29H0.144531V3.54688H4.78516L15.8945 19.7188H16.1406V3.54688H21.3789V29ZM34.2109 29.3867C32.2773 29.3867 30.6016 28.9883 29.1836 28.1914C27.7773 27.3945 26.6934 26.2578 25.9316 24.7812C25.1699 23.293 24.7891 21.5469 24.7891 19.543C24.7891 17.5859 25.1641 15.8633 25.9141 14.375C26.6758 12.875 27.7539 11.7148 29.1484 10.8945C30.543 10.0742 32.1602 9.66406 34 9.66406C35.7109 9.66406 37.2402 10.0273 38.5879 10.7539C39.9473 11.4688 41.0137 12.5527 41.7871 14.0059C42.5723 15.459 42.9648 17.2344 42.9648 19.332V20.8086H29.9219C29.9219 21.7578 30.0977 22.584 30.4492 23.2871C30.8125 23.9902 31.3223 24.5352 31.9785 24.9219C32.6465 25.2969 33.4258 25.4844 34.3164 25.4844C35.1719 25.4844 35.9102 25.3145 36.5312 24.9746C37.1523 24.623 37.5977 24.1484 37.8672 23.5508H42.8242C42.5781 24.7227 42.0742 25.748 41.3125 26.627C40.5508 27.5059 39.5605 28.1855 38.3418 28.666C37.1348 29.1465 35.7578 29.3867 34.2109 29.3867ZM38.043 17.5391C38.043 16.7773 37.873 16.0977 37.5332 15.5C37.2051 14.8906 36.7422 14.416 36.1445 14.0762C35.5469 13.7363 34.8672 13.5664 34.1055 13.5664C33.332 13.5664 32.6289 13.7422 31.9961 14.0938C31.375 14.4453 30.877 14.9258 30.502 15.5352C30.1387 16.1445 29.9453 16.8125 29.9219 17.5391H38.043ZM44.6523 9.91016H49.9258L52.9141 22.8125H53.0898L56.2188 9.91016H61.3867L64.5508 22.7422H64.7266L67.6797 9.91016H72.9531L67.7148 29H62.2305L58.9258 16.8711H58.6797L55.375 29H49.8555L44.6523 9.91016ZM100.902 11.7383C100.551 10.5312 99.9004 9.58789 98.9512 8.9082C98.0137 8.2168 96.8594 7.87109 95.4883 7.87109C94.1758 7.87109 93.0215 8.19922 92.0254 8.85547C91.0293 9.51172 90.2559 10.4727 89.7051 11.7383C89.1543 12.9922 88.8789 14.4922 88.8789 16.2383C88.8789 18.0078 89.1484 19.5254 89.6875 20.791C90.2383 22.0566 91.0117 23.0234 92.0078 23.6914C93.0039 24.3477 94.1758 24.6758 95.5234 24.6758C96.7188 24.6758 97.75 24.4648 98.6172 24.043C99.4961 23.6094 100.17 22.9941 100.639 22.1973C101.119 21.4004 101.371 20.4688 101.395 19.4023H95.875V15.4297H106.492V18.5938C106.492 20.7852 106.023 22.6953 105.086 24.3242C104.16 25.9414 102.865 27.1836 101.201 28.0508C99.5371 28.918 97.6328 29.3516 95.4883 29.3516C93.1211 29.3516 91.0293 28.8242 89.2129 27.7695C87.4082 26.7031 86.002 25.1914 84.9941 23.2344C83.998 21.2656 83.5 18.957 83.5 16.3086C83.5 13.625 84.0156 11.293 85.0469 9.3125C86.0781 7.33203 87.4961 5.82031 89.3008 4.77734C91.1055 3.72266 93.1328 3.19531 95.3828 3.19531C97.2695 3.19531 98.9922 3.55859 100.551 4.28516C102.121 5 103.404 6.00781 104.4 7.30859C105.396 8.59766 106.012 10.0742 106.246 11.7383H100.902ZM109.34 23.6562C109.34 21.6875 110.002 20.2461 111.326 19.332C112.65 18.418 114.355 17.9023 116.441 17.7852C117.73 17.7031 119.312 17.6211 121.188 17.5391V15.9922C121.164 15.1953 120.889 14.5742 120.361 14.1289C119.834 13.6836 119.09 13.4609 118.129 13.4609C117.262 13.4609 116.553 13.6484 116.002 14.0234C115.451 14.3984 115.105 14.9141 114.965 15.5703H110.008C110.113 14.4453 110.5 13.4375 111.168 12.5469C111.848 11.6562 112.791 10.9531 113.998 10.4375C115.205 9.92188 116.629 9.66406 118.27 9.66406C119.723 9.66406 121.059 9.89258 122.277 10.3496C123.508 10.8066 124.492 11.5215 125.23 12.4941C125.98 13.4551 126.355 14.668 126.355 16.1328V29H121.434V26.3633H121.293C120.789 27.2891 120.068 28.0215 119.131 28.5605C118.205 29.0879 117.062 29.3516 115.703 29.3516C114.461 29.3516 113.359 29.1406 112.398 28.7188C111.449 28.2852 110.699 27.6406 110.148 26.7852C109.609 25.9297 109.34 24.8867 109.34 23.6562ZM114.332 23.5156C114.332 24.2305 114.59 24.7871 115.105 25.1855C115.633 25.5723 116.324 25.7656 117.18 25.7656C117.953 25.7656 118.645 25.6074 119.254 25.291C119.875 24.9746 120.355 24.541 120.695 23.9902C121.035 23.4395 121.199 22.8359 121.188 22.1797V20.791C120.637 20.8027 119.957 20.832 119.148 20.8789C118.34 20.9258 117.719 20.9727 117.285 21.0195C116.371 21.1133 115.65 21.3711 115.123 21.793C114.596 22.2148 114.332 22.7891 114.332 23.5156ZM135.531 29H130.328V3.54688H135.531V29ZM138.66 23.6562C138.66 21.6875 139.322 20.2461 140.646 19.332C141.971 18.418 143.676 17.9023 145.762 17.7852C147.051 17.7031 148.633 17.6211 150.508 17.5391V15.9922C150.484 15.1953 150.209 14.5742 149.682 14.1289C149.154 13.6836 148.41 13.4609 147.449 13.4609C146.582 13.4609 145.873 13.6484 145.322 14.0234C144.771 14.3984 144.426 14.9141 144.285 15.5703H139.328C139.434 14.4453 139.82 13.4375 140.488 12.5469C141.168 11.6562 142.111 10.9531 143.318 10.4375C144.525 9.92188 145.949 9.66406 147.59 9.66406C149.043 9.66406 150.379 9.89258 151.598 10.3496C152.828 10.8066 153.812 11.5215 154.551 12.4941C155.301 13.4551 155.676 14.668 155.676 16.1328V29H150.754V26.3633H150.613C150.109 27.2891 149.389 28.0215 148.451 28.5605C147.525 29.0879 146.383 29.3516 145.023 29.3516C143.781 29.3516 142.68 29.1406 141.719 28.7188C140.77 28.2852 140.02 27.6406 139.469 26.7852C138.93 25.9297 138.66 24.8867 138.66 23.6562ZM143.652 23.5156C143.652 24.2305 143.91 24.7871 144.426 25.1855C144.953 25.5723 145.645 25.7656 146.5 25.7656C147.273 25.7656 147.965 25.6074 148.574 25.291C149.195 24.9746 149.676 24.541 150.016 23.9902C150.355 23.4395 150.52 22.8359 150.508 22.1797V20.791C149.957 20.8027 149.277 20.832 148.469 20.8789C147.66 20.9258 147.039 20.9727 146.605 21.0195C145.691 21.1133 144.971 21.3711 144.443 21.793C143.916 22.2148 143.652 22.7891 143.652 23.5156ZM167.523 16.625L171.145 9.91016H176.523L170.934 19.4375L176.664 29H171.32L167.523 22.3555L163.797 29H158.383L164.078 19.4375L158.594 9.91016H163.973L167.523 16.625ZM182.535 36.1719C181.445 36.1719 180.566 36.1367 179.898 36.0664V32.0234C180.789 32.0703 181.492 32.0938 182.008 32.0938C182.418 32.0938 182.758 32.0586 183.027 31.9883C183.309 31.918 183.572 31.7539 183.818 31.4961C184.076 31.2383 184.305 30.8516 184.504 30.3359L184.82 29.5273L177.965 9.91016H183.414L187.422 23.9727H187.633L191.676 9.91016H197.195L189.742 31.1094C189.168 32.7383 188.307 33.9863 187.158 34.8535C186.01 35.7324 184.469 36.1719 182.535 36.1719ZM221.945 10.8242C221.84 9.81641 221.4 9.03125 220.627 8.46875C219.854 7.90625 218.828 7.625 217.551 7.625C216.672 7.625 215.916 7.75391 215.283 8.01172C214.662 8.25781 214.188 8.60352 213.859 9.04883C213.531 9.49414 213.367 10.0039 213.367 10.5781C213.367 11.3984 213.736 12.0547 214.475 12.5469C215.213 13.0391 216.203 13.4258 217.445 13.707L219.73 14.2695C222.086 14.7969 223.943 15.6699 225.303 16.8887C226.674 18.0957 227.359 19.707 227.359 21.7227C227.359 23.2812 226.967 24.6348 226.182 25.7832C225.396 26.9199 224.266 27.7988 222.789 28.4199C221.312 29.041 219.555 29.3516 217.516 29.3516C215.453 29.3516 213.66 29.0352 212.137 28.4023C210.625 27.7695 209.447 26.8379 208.604 25.6074C207.771 24.3652 207.332 22.8477 207.285 21.0547H212.418C212.5 22.3086 212.992 23.2695 213.895 23.9375C214.809 24.5938 215.992 24.9219 217.445 24.9219C218.359 24.9219 219.162 24.7871 219.854 24.5176C220.545 24.248 221.078 23.873 221.453 23.3926C221.828 22.9121 222.016 22.3555 222.016 21.7227C222.016 20.9023 221.658 20.252 220.943 19.7715C220.24 19.291 219.145 18.8633 217.656 18.4883L214.879 17.8203C210.262 16.6836 207.953 14.375 207.953 10.8945C207.953 9.37109 208.363 8.0293 209.184 6.86914C210.016 5.69727 211.164 4.79492 212.629 4.16211C214.094 3.51758 215.746 3.19531 217.586 3.19531C219.438 3.19531 221.072 3.51758 222.49 4.16211C223.908 4.80664 225.01 5.70898 225.795 6.86914C226.58 8.01758 226.984 9.33594 227.008 10.8242H221.945ZM252.918 10.8242C252.812 9.81641 252.373 9.03125 251.6 8.46875C250.826 7.90625 249.801 7.625 248.523 7.625C247.645 7.625 246.889 7.75391 246.256 8.01172C245.635 8.25781 245.16 8.60352 244.832 9.04883C244.504 9.49414 244.34 10.0039 244.34 10.5781C244.34 11.3984 244.709 12.0547 245.447 12.5469C246.186 13.0391 247.176 13.4258 248.418 13.707L250.703 14.2695C253.059 14.7969 254.916 15.6699 256.275 16.8887C257.646 18.0957 258.332 19.707 258.332 21.7227C258.332 23.2812 257.939 24.6348 257.154 25.7832C256.369 26.9199 255.238 27.7988 253.762 28.4199C252.285 29.041 250.527 29.3516 248.488 29.3516C246.426 29.3516 244.633 29.0352 243.109 28.4023C241.598 27.7695 240.42 26.8379 239.576 25.6074C238.744 24.3652 238.305 22.8477 238.258 21.0547H243.391C243.473 22.3086 243.965 23.2695 244.867 23.9375C245.781 24.5938 246.965 24.9219 248.418 24.9219C249.332 24.9219 250.135 24.7871 250.826 24.5176C251.518 24.248 252.051 23.873 252.426 23.3926C252.801 22.9121 252.988 22.3555 252.988 21.7227C252.988 20.9023 252.631 20.252 251.916 19.7715C251.213 19.291 250.117 18.8633 248.629 18.4883L245.852 17.8203C241.234 16.6836 238.926 14.375 238.926 10.8945C238.926 9.37109 239.336 8.0293 240.156 6.86914C240.988 5.69727 242.137 4.79492 243.602 4.16211C245.066 3.51758 246.719 3.19531 248.559 3.19531C250.41 3.19531 252.045 3.51758 253.463 4.16211C254.881 4.80664 255.982 5.70898 256.768 6.86914C257.553 8.01758 257.957 9.33594 257.98 10.8242H252.918ZM270.32 29.3867C268.387 29.3867 266.711 28.9883 265.293 28.1914C263.887 27.3945 262.803 26.2578 262.041 24.7812C261.279 23.293 260.898 21.5469 260.898 19.543C260.898 17.5859 261.273 15.8633 262.023 14.375C262.785 12.875 263.863 11.7148 265.258 10.8945C266.652 10.0742 268.27 9.66406 270.109 9.66406C271.82 9.66406 273.35 10.0273 274.697 10.7539C276.057 11.4688 277.123 12.5527 277.896 14.0059C278.682 15.459 279.074 17.2344 279.074 19.332V20.8086H266.031C266.031 21.7578 266.207 22.584 266.559 23.2871C266.922 23.9902 267.432 24.5352 268.088 24.9219C268.756 25.2969 269.535 25.4844 270.426 25.4844C271.281 25.4844 272.02 25.3145 272.641 24.9746C273.262 24.623 273.707 24.1484 273.977 23.5508H278.934C278.688 24.7227 278.184 25.748 277.422 26.627C276.66 27.5059 275.67 28.1855 274.451 28.666C273.244 29.1465 271.867 29.3867 270.32 29.3867ZM274.152 17.5391C274.152 16.7773 273.982 16.0977 273.643 15.5C273.314 14.8906 272.852 14.416 272.254 14.0762C271.656 13.7363 270.977 13.5664 270.215 13.5664C269.441 13.5664 268.738 13.7422 268.105 14.0938C267.484 14.4453 266.986 14.9258 266.611 15.5352C266.248 16.1445 266.055 16.8125 266.031 17.5391H274.152ZM282.344 9.91016H287.371V13.2148H287.582C287.922 12.0547 288.502 11.1699 289.322 10.5605C290.143 9.93945 291.098 9.62891 292.188 9.62891C292.785 9.62891 293.336 9.6875 293.84 9.80469V14.4453C293.582 14.375 293.236 14.3105 292.803 14.252C292.369 14.1934 291.977 14.1641 291.625 14.1641C290.852 14.1641 290.154 14.334 289.533 14.6738C288.912 15.0137 288.426 15.4883 288.074 16.0977C287.723 16.6953 287.547 17.375 287.547 18.1367V29H282.344V9.91016ZM296.371 9.91016H301.574V29H296.371V9.91016ZM298.973 7.41406C298.457 7.41406 297.977 7.29687 297.531 7.0625C297.098 6.81641 296.752 6.49414 296.494 6.0957C296.248 5.68555 296.125 5.24609 296.125 4.77734C296.125 4.29688 296.248 3.85156 296.494 3.44141C296.752 3.03125 297.098 2.70898 297.531 2.47461C297.977 2.22852 298.457 2.10547 298.973 2.10547C299.477 2.10547 299.945 2.22852 300.379 2.47461C300.812 2.70898 301.152 3.03125 301.398 3.44141C301.656 3.85156 301.785 4.29688 301.785 4.77734C301.785 5.24609 301.656 5.68555 301.398 6.0957C301.152 6.49414 300.812 6.81641 300.379 7.0625C299.945 7.29687 299.477 7.41406 298.973 7.41406ZM314.266 29.3867C312.332 29.3867 310.656 28.9883 309.238 28.1914C307.832 27.3945 306.748 26.2578 305.986 24.7812C305.225 23.293 304.844 21.5469 304.844 19.543C304.844 17.5859 305.219 15.8633 305.969 14.375C306.73 12.875 307.809 11.7148 309.203 10.8945C310.598 10.0742 312.215 9.66406 314.055 9.66406C315.766 9.66406 317.295 10.0273 318.643 10.7539C320.002 11.4688 321.068 12.5527 321.842 14.0059C322.627 15.459 323.02 17.2344 323.02 19.332V20.8086H309.977C309.977 21.7578 310.152 22.584 310.504 23.2871C310.867 23.9902 311.377 24.5352 312.033 24.9219C312.701 25.2969 313.48 25.4844 314.371 25.4844C315.227 25.4844 315.965 25.3145 316.586 24.9746C317.207 24.623 317.652 24.1484 317.922 23.5508H322.879C322.633 24.7227 322.129 25.748 321.367 26.627C320.605 27.5059 319.615 28.1855 318.396 28.666C317.189 29.1465 315.812 29.3867 314.266 29.3867ZM318.098 17.5391C318.098 16.7773 317.928 16.0977 317.588 15.5C317.26 14.8906 316.797 14.416 316.199 14.0762C315.602 13.7363 314.922 13.5664 314.16 13.5664C313.387 13.5664 312.684 13.7422 312.051 14.0938C311.43 14.4453 310.932 14.9258 310.557 15.5352C310.193 16.1445 310 16.8125 309.977 17.5391H318.098ZM337.188 15.5703C337.082 14.9023 336.748 14.3691 336.186 13.9707C335.623 13.5605 334.914 13.3555 334.059 13.3555C333.496 13.3555 332.986 13.4434 332.529 13.6191C332.084 13.7832 331.732 14.0176 331.475 14.3223C331.217 14.6152 331.094 14.9492 331.105 15.3242C331.07 16.2266 331.891 16.8594 333.566 17.2227L336.977 17.9258C338.828 18.3125 340.205 18.9277 341.107 19.7715C342.021 20.6152 342.484 21.7227 342.496 23.0938C342.484 24.3359 342.121 25.4316 341.406 26.3809C340.703 27.3301 339.713 28.0684 338.436 28.5957C337.158 29.123 335.688 29.3867 334.023 29.3867C332.324 29.3867 330.854 29.1465 329.611 28.666C328.369 28.1738 327.391 27.4766 326.676 26.5742C325.973 25.6602 325.551 24.582 325.41 23.3398H330.648C330.766 24.0898 331.117 24.6582 331.703 25.0449C332.289 25.4316 333.062 25.625 334.023 25.625C334.973 25.625 335.734 25.4434 336.309 25.0801C336.895 24.7168 337.188 24.2305 337.188 23.6211C337.188 23.1289 336.977 22.7305 336.555 22.4258C336.145 22.1094 335.488 21.8516 334.586 21.6523L331.422 21.0195C329.617 20.668 328.246 20.0293 327.309 19.1035C326.371 18.1777 325.914 17.0117 325.938 15.6055C325.926 14.3984 326.248 13.3496 326.904 12.459C327.561 11.5566 328.498 10.8652 329.717 10.3848C330.936 9.9043 332.359 9.66406 333.988 9.66406C335.57 9.66406 336.953 9.9043 338.137 10.3848C339.32 10.8652 340.246 11.5508 340.914 12.4414C341.594 13.3203 341.98 14.3633 342.074 15.5703H337.188ZM364.68 7.48438C364.668 9.44141 364.943 11.3398 365.506 13.1797C366.068 15.0078 366.918 16.6484 368.055 18.1016C369.191 19.5547 370.586 20.6797 372.238 21.4766L369.531 25.0625C367.867 24.2422 366.443 23.0879 365.26 21.5996C364.088 20.1113 363.156 18.3652 362.465 16.3613C361.75 18.4941 360.76 20.3633 359.494 21.9688C358.24 23.5625 356.734 24.793 354.977 25.6602L352.199 22.0391C353.945 21.2422 355.416 20.0879 356.611 18.5762C357.807 17.0527 358.697 15.3359 359.283 13.4258C359.881 11.5039 360.18 9.52344 360.18 7.48438V2.70312H364.68V7.48438ZM378.145 12.582H382.855V16.3789H378.145V32.2344H373.645V0.242188H378.145V12.582ZM410.98 23.6211H406.516V12.1602H401.277V8.53906H406.516V0.277344H410.98V23.6211ZM411.754 31.6719H389.746V21.582H394.246V28.0859H411.754V31.6719ZM396.109 6.53516C396.109 7.8125 396.373 9.06055 396.9 10.2793C397.439 11.498 398.26 12.5996 399.361 13.584C400.463 14.5684 401.828 15.3242 403.457 15.8516L401.242 19.4023C399.52 18.8516 398.037 18.0254 396.795 16.9238C395.564 15.8223 394.586 14.5215 393.859 13.0215C393.133 14.6855 392.119 16.1211 390.818 17.3281C389.529 18.5352 387.965 19.4492 386.125 20.0703L383.84 16.4141C385.527 15.8867 386.945 15.1074 388.094 14.0762C389.254 13.0449 390.115 11.8789 390.678 10.5781C391.24 9.26562 391.527 7.90625 391.539 6.5V6.00781H385.105V2.42188H402.473V6.00781H396.109V6.53516ZM440.512 6.42969H444.836V10.1211H440.512V16.2383H436.012V0.242188H440.512V6.42969ZM440.512 26.2227H423.742V28.3672H441.426V31.8828H419.348V22.9883H436.047V20.9492H419.277V17.5039H440.512V26.2227ZM423.953 1.19141C425.582 1.20313 427.047 1.51953 428.348 2.14062C429.648 2.75 430.668 3.60547 431.406 4.70703C432.156 5.79688 432.531 7.03906 432.531 8.43359C432.531 9.81641 432.156 11.0586 431.406 12.1602C430.668 13.2617 429.643 14.123 428.33 14.7441C427.029 15.3652 425.57 15.6758 423.953 15.6758C422.324 15.6758 420.854 15.3652 419.541 14.7441C418.24 14.123 417.215 13.2617 416.465 12.1602C415.715 11.0586 415.34 9.81641 415.34 8.43359C415.34 7.03906 415.715 5.79688 416.465 4.70703C417.215 3.60547 418.24 2.75 419.541 2.14062C420.854 1.51953 422.324 1.20313 423.953 1.19141ZM423.953 4.84766C423.133 4.84766 422.4 4.99414 421.756 5.28711C421.111 5.56836 420.607 5.97852 420.244 6.51758C419.893 7.05664 419.723 7.69531 419.734 8.43359C419.723 9.18359 419.893 9.83984 420.244 10.4023C420.607 10.9531 421.111 11.3809 421.756 11.6855C422.4 11.9785 423.133 12.125 423.953 12.125C424.773 12.125 425.5 11.9785 426.133 11.6855C426.777 11.3809 427.275 10.9531 427.627 10.4023C427.99 9.83984 428.172 9.18359 428.172 8.43359C428.172 7.69531 427.99 7.05664 427.627 6.51758C427.275 5.97852 426.777 5.56836 426.133 5.28711C425.5 4.99414 424.773 4.84766 423.953 4.84766ZM471.625 7.83594H475.949V11.5625H471.625V19.2617H467.125V0.277344H471.625V7.83594ZM471.625 31.8828H450.672V20.5977H471.625V31.8828ZM455.066 28.2969H467.23V24.1133H455.066V28.2969ZM462.062 11.5625H451.867V14.4453C454.68 14.4219 457.053 14.3516 458.986 14.2344C460.932 14.1055 462.871 13.8711 464.805 13.5312L465.297 17.0469C463.129 17.4805 460.938 17.7676 458.723 17.9082C456.52 18.0371 453.648 18.1016 450.109 18.1016H447.402V8.1875H457.703V5.41016H447.367V1.82422H462.062V11.5625Z" fill="white"/>
</svg>
