<svg width="243" height="35" viewBox="0 0 243 35" fill="none" xmlns="http://www.w3.org/2000/svg">
<g filter="url(#filter0_d_3754_3115)">
<path d="M4.078 2.48H7.774L15.358 14.408V2.48H18.622V20H15.142L7.342 7.688V20H4.078V2.48ZM27.0563 20.288C25.9523 20.288 24.9443 20.104 24.0323 19.736C23.1203 19.352 22.3363 18.832 21.6803 18.176C21.0403 17.52 20.5363 16.752 20.1683 15.872C19.8163 14.976 19.6403 14.024 19.6403 13.016C19.6403 11.992 19.8243 11.032 20.1923 10.136C20.5763 9.24 21.0963 8.464 21.7523 7.808C22.4083 7.152 23.1763 6.632 24.0563 6.248C24.9523 5.864 25.9123 5.672 26.9363 5.672C27.9763 5.672 28.9363 5.856 29.8163 6.224C30.7123 6.576 31.4803 7.08 32.1203 7.736C32.7603 8.376 33.2563 9.136 33.6083 10.016C33.9763 10.896 34.1603 11.856 34.1603 12.896V14.12H22.7363C22.9603 15.112 23.4483 15.912 24.2003 16.52C24.9523 17.128 25.9043 17.432 27.0563 17.432C27.9683 17.432 28.7603 17.208 29.4323 16.76C30.1043 16.312 30.6083 15.712 30.9443 14.96L33.6083 16.496C33.0003 17.632 32.1443 18.552 31.0403 19.256C29.9523 19.944 28.6243 20.288 27.0563 20.288ZM26.9363 8.528C25.9603 8.528 25.1123 8.792 24.3923 9.32C23.6883 9.848 23.1923 10.544 22.9043 11.408H30.8723C30.6323 10.464 30.1683 9.752 29.4803 9.272C28.7923 8.776 27.9443 8.528 26.9363 8.528ZM33.5498 5.96H36.8618L39.9578 15.632L43.4858 5.96H46.7018L50.1578 15.656L53.3738 5.96H56.6618L51.7418 20H48.6218L45.0698 10.28L41.4218 20H38.2298L33.5498 5.96ZM71.5474 20.24C70.1714 20.24 68.9234 20 67.8034 19.52C66.6994 19.04 65.7474 18.392 64.9474 17.576C64.1474 16.744 63.5314 15.784 63.0994 14.696C62.6674 13.608 62.4514 12.456 62.4514 11.24C62.4514 9.992 62.6754 8.824 63.1234 7.736C63.5714 6.632 64.1874 5.68 64.9714 4.88C65.7714 4.064 66.7154 3.424 67.8034 2.96C68.9074 2.48 70.1074 2.24 71.4034 2.24C72.3154 2.24 73.1714 2.352 73.9714 2.576C74.7714 2.8 75.5074 3.112 76.1794 3.512C76.8674 3.896 77.4754 4.368 78.0034 4.928C78.5474 5.472 79.0034 6.072 79.3714 6.728L76.4914 8.456C75.9474 7.448 75.2514 6.688 74.4034 6.176C73.5714 5.664 72.5794 5.408 71.4274 5.408C70.6114 5.408 69.8514 5.568 69.1474 5.888C68.4594 6.192 67.8514 6.608 67.3234 7.136C66.8114 7.664 66.4114 8.28 66.1234 8.984C65.8354 9.688 65.6914 10.44 65.6914 11.24C65.6914 12.056 65.8354 12.816 66.1234 13.52C66.4114 14.224 66.8114 14.84 67.3234 15.368C67.8514 15.896 68.4754 16.312 69.1954 16.616C69.9154 16.92 70.6994 17.072 71.5474 17.072C72.8594 17.072 73.9474 16.728 74.8114 16.04C75.6914 15.352 76.2914 14.432 76.6114 13.28H71.0194V10.16H80.1154V11.456C80.1154 12.64 79.9154 13.768 79.5154 14.84C79.1154 15.896 78.5394 16.824 77.7874 17.624C77.0514 18.424 76.1554 19.064 75.0994 19.544C74.0434 20.008 72.8594 20.24 71.5474 20.24ZM87.7964 20.288C86.9484 20.288 86.1084 20.128 85.2764 19.808C84.4604 19.472 83.7244 18.992 83.0684 18.368C82.4124 17.744 81.8844 16.984 81.4844 16.088C81.0844 15.176 80.8844 14.144 80.8844 12.992C80.8844 11.824 81.0764 10.792 81.4604 9.896C81.8604 8.984 82.3804 8.216 83.0204 7.592C83.6764 6.968 84.4204 6.496 85.2524 6.176C86.0844 5.84 86.9484 5.672 87.8444 5.672C88.7724 5.672 89.6284 5.848 90.4124 6.2C91.1964 6.552 91.8444 7.032 92.3564 7.64V5.96H95.5964V20H92.3564V18.176C91.8444 18.832 91.1884 19.352 90.3884 19.736C89.5884 20.104 88.7244 20.288 87.7964 20.288ZM88.3244 17.312C88.9164 17.312 89.4684 17.2 89.9804 16.976C90.5084 16.752 90.9564 16.44 91.3244 16.04C91.6924 15.64 91.9804 15.176 92.1884 14.648C92.4124 14.12 92.5244 13.552 92.5244 12.944C92.5244 12.352 92.4124 11.792 92.1884 11.264C91.9804 10.736 91.6924 10.28 91.3244 9.896C90.9564 9.496 90.5084 9.184 89.9804 8.96C89.4684 8.736 88.9164 8.624 88.3244 8.624C87.7164 8.624 87.1564 8.736 86.6444 8.96C86.1324 9.184 85.6844 9.488 85.3004 9.872C84.9164 10.256 84.6124 10.712 84.3884 11.24C84.1804 11.768 84.0764 12.336 84.0764 12.944C84.0764 13.552 84.1804 14.128 84.3884 14.672C84.6124 15.2 84.9164 15.664 85.3004 16.064C85.6844 16.448 86.1324 16.752 86.6444 16.976C87.1564 17.2 87.7164 17.312 88.3244 17.312ZM96.9619 2.24H100.226V20H96.9619V2.24ZM108.071 20.288C107.223 20.288 106.383 20.128 105.551 19.808C104.735 19.472 103.999 18.992 103.343 18.368C102.687 17.744 102.159 16.984 101.759 16.088C101.359 15.176 101.159 14.144 101.159 12.992C101.159 11.824 101.351 10.792 101.735 9.896C102.135 8.984 102.655 8.216 103.295 7.592C103.951 6.968 104.695 6.496 105.527 6.176C106.359 5.84 107.223 5.672 108.119 5.672C109.047 5.672 109.903 5.848 110.687 6.2C111.471 6.552 112.119 7.032 112.631 7.64V5.96H115.871V20H112.631V18.176C112.119 18.832 111.463 19.352 110.663 19.736C109.863 20.104 108.999 20.288 108.071 20.288ZM108.599 17.312C109.191 17.312 109.743 17.2 110.255 16.976C110.783 16.752 111.231 16.44 111.599 16.04C111.967 15.64 112.255 15.176 112.463 14.648C112.687 14.12 112.799 13.552 112.799 12.944C112.799 12.352 112.687 11.792 112.463 11.264C112.255 10.736 111.967 10.28 111.599 9.896C111.231 9.496 110.783 9.184 110.255 8.96C109.743 8.736 109.191 8.624 108.599 8.624C107.991 8.624 107.431 8.736 106.919 8.96C106.407 9.184 105.959 9.488 105.575 9.872C105.191 10.256 104.887 10.712 104.663 11.24C104.455 11.768 104.351 12.336 104.351 12.944C104.351 13.552 104.455 14.128 104.663 14.672C104.887 15.2 105.191 15.664 105.575 16.064C105.959 16.448 106.407 16.752 106.919 16.976C107.431 17.2 107.991 17.312 108.599 17.312ZM121.466 12.848L116.378 5.96H120.338L123.53 10.424L126.698 5.96H130.538L125.498 12.896L130.874 20H126.914L123.482 15.32L120.146 20H116.186L121.466 12.848ZM136.232 19.304L130.472 5.96H133.928L137.84 15.416L141.536 5.96H144.944L136.568 26.48H133.28L136.232 19.304ZM156.999 20.24C155.415 20.24 154.071 19.944 152.967 19.352C151.879 18.744 150.943 17.992 150.159 17.096L153.135 14.744C153.583 15.512 154.135 16.104 154.791 16.52C155.447 16.92 156.175 17.12 156.975 17.12C157.407 17.12 157.783 17.056 158.103 16.928C158.439 16.8 158.719 16.632 158.943 16.424C159.183 16.2 159.359 15.944 159.471 15.656C159.583 15.368 159.639 15.072 159.639 14.768C159.639 14.4 159.535 14.088 159.327 13.832C159.119 13.576 158.847 13.36 158.511 13.184C158.175 12.992 157.783 12.824 157.335 12.68C156.903 12.536 156.455 12.392 155.991 12.248C155.399 12.056 154.807 11.848 154.215 11.624C153.623 11.4 153.087 11.104 152.607 10.736C152.143 10.352 151.759 9.888 151.455 9.344C151.167 8.784 151.023 8.088 151.023 7.256C151.023 6.552 151.167 5.896 151.455 5.288C151.743 4.68 152.143 4.152 152.655 3.704C153.183 3.24 153.799 2.88 154.503 2.624C155.207 2.368 155.983 2.24 156.831 2.24C157.535 2.24 158.167 2.304 158.727 2.432C159.303 2.56 159.823 2.736 160.287 2.96C160.767 3.184 161.199 3.456 161.583 3.776C161.983 4.08 162.359 4.416 162.711 4.784L160.023 6.824C159.271 5.704 158.215 5.144 156.855 5.144C156.055 5.144 155.447 5.336 155.031 5.72C154.615 6.104 154.407 6.576 154.407 7.136C154.407 7.488 154.503 7.784 154.695 8.024C154.887 8.264 155.143 8.48 155.463 8.672C155.799 8.848 156.183 9.008 156.615 9.152C157.047 9.296 157.503 9.448 157.983 9.608C158.575 9.8 159.167 10.024 159.759 10.28C160.367 10.52 160.911 10.84 161.391 11.24C161.887 11.624 162.287 12.104 162.591 12.68C162.895 13.256 163.047 13.96 163.047 14.792C163.047 15.48 162.911 16.152 162.639 16.808C162.367 17.464 161.975 18.048 161.463 18.56C160.951 19.056 160.319 19.464 159.567 19.784C158.815 20.088 157.959 20.24 156.999 20.24ZM175.445 20.24C173.861 20.24 172.517 19.944 171.413 19.352C170.325 18.744 169.389 17.992 168.605 17.096L171.581 14.744C172.029 15.512 172.581 16.104 173.237 16.52C173.893 16.92 174.621 17.12 175.421 17.12C175.853 17.12 176.229 17.056 176.549 16.928C176.885 16.8 177.165 16.632 177.389 16.424C177.629 16.2 177.805 15.944 177.917 15.656C178.029 15.368 178.085 15.072 178.085 14.768C178.085 14.4 177.981 14.088 177.773 13.832C177.565 13.576 177.293 13.36 176.957 13.184C176.621 12.992 176.229 12.824 175.781 12.68C175.349 12.536 174.901 12.392 174.437 12.248C173.845 12.056 173.253 11.848 172.661 11.624C172.069 11.4 171.533 11.104 171.053 10.736C170.589 10.352 170.205 9.888 169.901 9.344C169.613 8.784 169.469 8.088 169.469 7.256C169.469 6.552 169.613 5.896 169.901 5.288C170.189 4.68 170.589 4.152 171.101 3.704C171.629 3.24 172.245 2.88 172.949 2.624C173.653 2.368 174.429 2.24 175.277 2.24C175.981 2.24 176.613 2.304 177.173 2.432C177.749 2.56 178.269 2.736 178.733 2.96C179.213 3.184 179.645 3.456 180.029 3.776C180.429 4.08 180.805 4.416 181.157 4.784L178.469 6.824C177.717 5.704 176.661 5.144 175.301 5.144C174.501 5.144 173.893 5.336 173.477 5.72C173.061 6.104 172.853 6.576 172.853 7.136C172.853 7.488 172.949 7.784 173.141 8.024C173.333 8.264 173.589 8.48 173.909 8.672C174.245 8.848 174.629 9.008 175.061 9.152C175.493 9.296 175.949 9.448 176.429 9.608C177.021 9.8 177.613 10.024 178.205 10.28C178.813 10.52 179.357 10.84 179.837 11.24C180.333 11.624 180.733 12.104 181.037 12.68C181.341 13.256 181.493 13.96 181.493 14.792C181.493 15.48 181.357 16.152 181.085 16.808C180.813 17.464 180.421 18.048 179.909 18.56C179.397 19.056 178.765 19.464 178.013 19.784C177.261 20.088 176.405 20.24 175.445 20.24ZM189.824 20.288C188.72 20.288 187.712 20.104 186.8 19.736C185.888 19.352 185.104 18.832 184.448 18.176C183.808 17.52 183.304 16.752 182.936 15.872C182.584 14.976 182.408 14.024 182.408 13.016C182.408 11.992 182.592 11.032 182.96 10.136C183.344 9.24 183.864 8.464 184.52 7.808C185.176 7.152 185.944 6.632 186.824 6.248C187.72 5.864 188.68 5.672 189.704 5.672C190.744 5.672 191.704 5.856 192.584 6.224C193.48 6.576 194.248 7.08 194.888 7.736C195.528 8.376 196.024 9.136 196.376 10.016C196.744 10.896 196.928 11.856 196.928 12.896V14.12H185.504C185.728 15.112 186.216 15.912 186.968 16.52C187.72 17.128 188.672 17.432 189.824 17.432C190.736 17.432 191.528 17.208 192.2 16.76C192.872 16.312 193.376 15.712 193.712 14.96L196.376 16.496C195.768 17.632 194.912 18.552 193.808 19.256C192.72 19.944 191.392 20.288 189.824 20.288ZM189.704 8.528C188.728 8.528 187.88 8.792 187.16 9.32C186.456 9.848 185.96 10.544 185.672 11.408H193.64C193.4 10.464 192.936 9.752 192.248 9.272C191.56 8.776 190.712 8.528 189.704 8.528ZM197.9 5.96H201.116V8.048C201.756 6.656 202.956 5.96 204.716 5.96C205.228 5.96 205.684 6.016 206.084 6.128C206.5 6.24 206.868 6.384 207.188 6.56L205.964 9.632C205.724 9.472 205.452 9.344 205.148 9.248C204.86 9.136 204.484 9.08 204.02 9.08C203.076 9.08 202.356 9.352 201.86 9.896C201.38 10.424 201.14 11.296 201.14 12.512V20H197.9V5.96ZM207.756 5.96H211.02V20H207.756V5.96ZM207.348 2.528C207.348 1.92 207.532 1.432 207.9 1.064C208.268 0.679999 208.764 0.487999 209.388 0.487999C210.028 0.487999 210.524 0.679999 210.876 1.064C211.244 1.432 211.428 1.92 211.428 2.528C211.428 3.136 211.244 3.624 210.876 3.992C210.524 4.36 210.028 4.544 209.388 4.544C208.732 4.544 208.228 4.36 207.876 3.992C207.524 3.624 207.348 3.136 207.348 2.528ZM219.369 20.288C218.265 20.288 217.257 20.104 216.345 19.736C215.433 19.352 214.649 18.832 213.993 18.176C213.353 17.52 212.849 16.752 212.481 15.872C212.129 14.976 211.953 14.024 211.953 13.016C211.953 11.992 212.137 11.032 212.505 10.136C212.889 9.24 213.409 8.464 214.065 7.808C214.721 7.152 215.489 6.632 216.369 6.248C217.265 5.864 218.225 5.672 219.249 5.672C220.289 5.672 221.249 5.856 222.129 6.224C223.025 6.576 223.793 7.08 224.433 7.736C225.073 8.376 225.569 9.136 225.921 10.016C226.289 10.896 226.473 11.856 226.473 12.896V14.12H215.049C215.273 15.112 215.761 15.912 216.513 16.52C217.265 17.128 218.217 17.432 219.369 17.432C220.281 17.432 221.073 17.208 221.745 16.76C222.417 16.312 222.921 15.712 223.257 14.96L225.921 16.496C225.313 17.632 224.457 18.552 223.353 19.256C222.265 19.944 220.937 20.288 219.369 20.288ZM219.249 8.528C218.273 8.528 217.425 8.792 216.705 9.32C216.001 9.848 215.505 10.544 215.217 11.408H223.185C222.945 10.464 222.481 9.752 221.793 9.272C221.105 8.776 220.257 8.528 219.249 8.528ZM232.724 20.288C231.172 20.288 229.884 20 228.86 19.424C227.836 18.832 227.044 17.984 226.484 16.88L229.484 15.44C229.82 16.096 230.276 16.6 230.852 16.952C231.428 17.304 232.1 17.48 232.868 17.48C233.668 17.48 234.268 17.312 234.668 16.976C235.068 16.64 235.268 16.24 235.268 15.776C235.268 15.52 235.172 15.312 234.98 15.152C234.804 14.992 234.564 14.856 234.26 14.744C233.972 14.616 233.628 14.512 233.228 14.432C232.828 14.352 232.412 14.264 231.98 14.168C231.372 14.056 230.772 13.912 230.18 13.736C229.604 13.544 229.084 13.296 228.62 12.992C228.156 12.672 227.78 12.272 227.492 11.792C227.204 11.296 227.06 10.68 227.06 9.944C227.06 9.384 227.188 8.848 227.444 8.336C227.7 7.808 228.068 7.344 228.548 6.944C229.028 6.544 229.604 6.232 230.276 6.008C230.964 5.768 231.732 5.648 232.58 5.648C233.988 5.648 235.156 5.912 236.084 6.44C237.028 6.952 237.772 7.656 238.316 8.552L235.556 9.944C235.268 9.448 234.868 9.056 234.356 8.768C233.844 8.48 233.252 8.336 232.58 8.336C231.812 8.336 231.244 8.488 230.876 8.792C230.508 9.096 230.324 9.448 230.324 9.848C230.324 10.312 230.596 10.648 231.14 10.856C231.684 11.048 232.484 11.256 233.54 11.48C234.116 11.608 234.692 11.76 235.268 11.936C235.86 12.112 236.396 12.36 236.876 12.68C237.356 12.984 237.74 13.384 238.028 13.88C238.332 14.36 238.484 14.968 238.484 15.704C238.484 16.2 238.372 16.72 238.148 17.264C237.924 17.792 237.572 18.288 237.092 18.752C236.628 19.2 236.036 19.568 235.316 19.856C234.596 20.144 233.732 20.288 232.724 20.288Z" fill="white"/>
</g>
<defs>
<filter id="filter0_d_3754_3115" x="0.078125" y="0.488007" width="242.406" height="33.992" filterUnits="userSpaceOnUse" color-interpolation-filters="sRGB">
<feFlood flood-opacity="0" result="BackgroundImageFix"/>
<feColorMatrix in="SourceAlpha" type="matrix" values="0 0 0 0 0 0 0 0 0 0 0 0 0 0 0 0 0 0 127 0" result="hardAlpha"/>
<feOffset dy="4"/>
<feGaussianBlur stdDeviation="2"/>
<feComposite in2="hardAlpha" operator="out"/>
<feColorMatrix type="matrix" values="0 0 0 0 0 0 0 0 0 0 0 0 0 0 0 0 0 0 0.25 0"/>
<feBlend mode="normal" in2="BackgroundImageFix" result="effect1_dropShadow_3754_3115"/>
<feBlend mode="normal" in="SourceGraphic" in2="effect1_dropShadow_3754_3115" result="shape"/>
</filter>
</defs>
</svg>
