<svg width="206" height="33" viewBox="0 0 206 33" fill="none" xmlns="http://www.w3.org/2000/svg">
<g filter="url(#filter0_d_1695_1075)">
<path d="M4.6615 18V14.928C4.6615 11.904 7.0855 10.152 9.2695 8.664C10.9975 7.44 12.5815 6.48 12.5815 5.136C12.5815 3.984 11.7415 3.048 10.1815 3.048C8.6455 3.048 7.7095 4.08 7.1095 5.544L4.3015 4.128C5.3815 1.728 7.3255 0.24 10.2055 0.24C13.7575 0.24 15.8935 2.4 15.8935 5.16C15.8935 7.92 13.6375 9.48 11.5255 10.896C9.7255 12.12 7.9255 13.224 7.9255 14.88H15.8215V18H4.6615ZM23.2167 15C24.9687 15 25.9287 13.848 25.9287 12.408V6.192C25.9287 4.536 24.9927 3.456 23.2647 3.456C21.5127 3.456 20.5527 4.656 20.5527 6.192V12.384C20.5527 13.92 21.4647 15 23.2167 15ZM23.2407 18.24C19.4247 18.24 17.2887 15.888 17.2887 12.528V6.096C17.2887 2.76 19.7127 0.24 23.2407 0.24C26.8647 0.24 29.1927 2.856 29.1927 6.072V12.528C29.1927 15.96 27.0087 18.24 23.2407 18.24ZM30.6781 18V14.928C30.6781 11.904 33.1021 10.152 35.2861 8.664C37.0141 7.44 38.5981 6.48 38.5981 5.136C38.5981 3.984 37.7581 3.048 36.1981 3.048C34.6621 3.048 33.7261 4.08 33.1261 5.544L30.3181 4.128C31.3981 1.728 33.3421 0.24 36.2221 0.24C39.7741 0.24 41.9101 2.4 41.9101 5.16C41.9101 7.92 39.6541 9.48 37.5421 10.896C35.7421 12.12 33.9421 13.224 33.9421 14.88H41.8381V18H30.6781ZM48.6813 18.24C45.6093 18.24 43.6173 16.632 42.7053 14.88L45.7293 13.128C46.2333 14.256 47.1453 15.24 48.7053 15.24C50.1453 15.24 51.3933 14.112 51.3933 12.48C51.3933 10.848 50.3613 9.576 48.6333 9.576C47.2653 9.576 46.4253 10.32 45.8253 11.352L42.9213 9.864L44.1693 0.48H53.9133V3.528H46.7613L46.2573 7.416C46.9293 6.96 47.8653 6.6 48.9933 6.6C52.1373 6.6 54.6813 8.664 54.6813 12.48C54.6813 15.888 52.1613 18.24 48.6813 18.24ZM61.1164 18V0.48H64.8124L72.3964 12.408V0.48H75.6604V18H72.1804L64.3804 5.688V18H61.1164ZM84.0948 18.288C79.6788 18.288 76.6788 15.072 76.6788 11.016C76.6788 6.912 79.8708 3.672 83.9748 3.672C88.1508 3.672 91.1988 6.744 91.1988 10.896V12.12H79.7748C80.2308 14.112 81.7908 15.432 84.0948 15.432C85.9188 15.432 87.3108 14.472 87.9828 12.96L90.6468 14.496C89.4228 16.776 87.2628 18.288 84.0948 18.288ZM83.9748 6.528C82.0308 6.528 80.5188 7.68 79.9428 9.408H87.9108C87.4308 7.512 85.9908 6.528 83.9748 6.528ZM95.2683 18L90.5883 3.96H93.9003L96.9963 13.632L100.524 3.96H103.74L107.196 13.656L110.412 3.96H113.7L108.78 18H105.66L102.108 8.28L98.4603 18H95.2683ZM128.586 18.24C123.114 18.24 119.49 14.112 119.49 9.24C119.49 4.248 123.258 0.24 128.442 0.24C132.066 0.24 134.922 2.088 136.41 4.728L133.53 6.456C132.426 4.416 130.746 3.408 128.466 3.408C125.202 3.408 122.73 6.072 122.73 9.24C122.73 12.48 125.178 15.072 128.586 15.072C131.25 15.072 133.002 13.584 133.65 11.28H128.058V8.16H137.154V9.456C137.154 14.184 133.842 18.24 128.586 18.24ZM144.835 18.288C141.451 18.288 137.923 15.6 137.923 10.992C137.923 6.336 141.331 3.672 144.883 3.672C146.731 3.672 148.363 4.416 149.395 5.64V3.96H152.635V18H149.395V16.176C148.363 17.496 146.683 18.288 144.835 18.288ZM145.363 15.312C147.787 15.312 149.563 13.368 149.563 10.944C149.563 8.544 147.787 6.624 145.363 6.624C142.963 6.624 141.115 8.52 141.115 10.944C141.115 13.392 142.963 15.312 145.363 15.312ZM154 18V0.24H157.264V18H154ZM165.109 18.288C161.725 18.288 158.197 15.6 158.197 10.992C158.197 6.336 161.605 3.672 165.157 3.672C167.005 3.672 168.637 4.416 169.669 5.64V3.96H172.909V18H169.669V16.176C168.637 17.496 166.957 18.288 165.109 18.288ZM165.637 15.312C168.061 15.312 169.837 13.368 169.837 10.944C169.837 8.544 168.061 6.624 165.637 6.624C163.237 6.624 161.389 8.52 161.389 10.944C161.389 13.392 163.237 15.312 165.637 15.312ZM173.224 18L178.504 10.848L173.416 3.96H177.376L180.568 8.424L183.736 3.96H187.576L182.536 10.896L187.912 18H183.952L180.52 13.32L177.184 18H173.224ZM190.319 24.48L193.271 17.304L187.511 3.96H190.967L194.879 13.416L198.575 3.96H201.983L193.607 24.48H190.319Z" fill="white"/>
</g>
<defs>
<filter id="filter0_d_1695_1075" x="0.301514" y="0.23999" width="205.681" height="32.24" filterUnits="userSpaceOnUse" color-interpolation-filters="sRGB">
<feFlood flood-opacity="0" result="BackgroundImageFix"/>
<feColorMatrix in="SourceAlpha" type="matrix" values="0 0 0 0 0 0 0 0 0 0 0 0 0 0 0 0 0 0 127 0" result="hardAlpha"/>
<feOffset dy="4"/>
<feGaussianBlur stdDeviation="2"/>
<feComposite in2="hardAlpha" operator="out"/>
<feColorMatrix type="matrix" values="0 0 0 0 0 0 0 0 0 0 0 0 0 0 0 0 0 0 0.25 0"/>
<feBlend mode="normal" in2="BackgroundImageFix" result="effect1_dropShadow_1695_1075"/>
<feBlend mode="normal" in="SourceGraphic" in2="effect1_dropShadow_1695_1075" result="shape"/>
</filter>
</defs>
</svg>
