<svg width="30" height="30" viewBox="0 0 30 30" fill="none" xmlns="http://www.w3.org/2000/svg">
<path d="M23.665 5.27271H6.16504C4.26656 5.27271 2.72754 6.81173 2.72754 8.71021V21.2102C2.72754 23.1087 4.26656 24.6477 6.16504 24.6477H23.665C25.5635 24.6477 27.1025 23.1087 27.1025 21.2102V8.71021C27.1025 6.81173 25.5635 5.27271 23.665 5.27271Z" fill="#00AA5B"/>
<path d="M2.72754 10.2727H27.1025V12.1477H2.72754V10.2727Z" fill="#145638"/>
<path d="M9.91504 17.1477H7.41504C7.1664 17.1477 6.92794 17.0489 6.75213 16.8731C6.57631 16.6973 6.47754 16.4588 6.47754 16.2102C6.47754 15.9616 6.57631 15.7231 6.75213 15.5473C6.92794 15.3715 7.1664 15.2727 7.41504 15.2727H9.91504C10.1637 15.2727 10.4021 15.3715 10.578 15.5473C10.7538 15.7231 10.8525 15.9616 10.8525 16.2102C10.8525 16.4588 10.7538 16.6973 10.578 16.8731C10.4021 17.0489 10.1637 17.1477 9.91504 17.1477Z" fill="white"/>
<path d="M12.415 20.8977H7.41504C7.1664 20.8977 6.92794 20.7989 6.75213 20.6231C6.57631 20.4473 6.47754 20.2088 6.47754 19.9602C6.47754 19.7116 6.57631 19.4731 6.75213 19.2973C6.92794 19.1215 7.1664 19.0227 7.41504 19.0227H12.415C12.6637 19.0227 12.9021 19.1215 13.078 19.2973C13.2538 19.4731 13.3525 19.7116 13.3525 19.9602C13.3525 20.2088 13.2538 20.4473 13.078 20.6231C12.9021 20.7989 12.6637 20.8977 12.415 20.8977Z" fill="white"/>
</svg>
