<svg width="25" height="24" viewBox="0 0 25 24" fill="none" xmlns="http://www.w3.org/2000/svg">
<path d="M14.8603 2.478C14.2172 1.8855 13.3748 1.55658 12.5003 1.55658C11.6259 1.55658 10.7835 1.8855 10.1403 2.478L2.34584 9.594C2.13131 9.79064 1.97861 10.0454 1.90635 10.3273C1.83409 10.6092 1.8454 10.9061 1.93888 11.1817C2.03237 11.4572 2.20401 11.6997 2.43287 11.8794C2.66174 12.0592 2.93795 12.1685 3.22784 12.194L4.54384 12.3085C4.66877 12.3194 4.78504 12.3769 4.86959 12.4695C4.95415 12.5621 5.00082 12.6831 5.00034 12.8085V21C5.00034 21.3978 5.15838 21.7794 5.43968 22.0607C5.72098 22.342 6.10252 22.5 6.50034 22.5H18.5003C18.8982 22.5 19.2797 22.342 19.561 22.0607C19.8423 21.7794 20.0003 21.3978 20.0003 21V12.8075C19.9999 12.6821 20.0465 12.5611 20.1311 12.4685C20.2156 12.3759 20.3319 12.3184 20.4568 12.3075L21.7713 12.194C22.0612 12.1685 22.3374 12.0592 22.5663 11.8794C22.7952 11.6997 22.9668 11.4572 23.0603 11.1817C23.1538 10.9061 23.1651 10.6092 23.0928 10.3273C23.0206 10.0454 22.8679 9.79064 22.6533 9.594L14.8603 2.478Z" fill="#54C0EB"/>
<path d="M10.4924 16.867C10.401 16.8669 10.3114 16.8417 10.2334 16.7942C10.1553 16.7467 10.0917 16.6788 10.0496 16.5977C10.0074 16.5166 9.98827 16.4255 9.99423 16.3344C10.0002 16.2432 10.031 16.1554 10.0834 16.0805L14.1004 10.346C14.138 10.2922 14.1859 10.2463 14.2413 10.211C14.2967 10.1757 14.3585 10.1517 14.4232 10.1403C14.4878 10.1288 14.5541 10.1303 14.6183 10.1445C14.6824 10.1587 14.7431 10.1853 14.7969 10.223C14.8507 10.2607 14.8966 10.3085 14.9319 10.3639C14.9672 10.4193 14.9912 10.4811 15.0026 10.5458C15.0141 10.6105 15.0126 10.6767 14.9984 10.7409C14.9842 10.805 14.9575 10.8657 14.9199 10.9195L10.9029 16.654C10.8567 16.7199 10.7952 16.7737 10.7237 16.8108C10.6523 16.8479 10.5729 16.8672 10.4924 16.867Z" fill="#F2F2F2"/>
<path d="M10.25 13.5C9.90388 13.5 9.56554 13.3974 9.27775 13.2051C8.98997 13.0128 8.76567 12.7395 8.63321 12.4197C8.50076 12.0999 8.4661 11.7481 8.53363 11.4086C8.60115 11.0691 8.76782 10.7573 9.01256 10.5126C9.25731 10.2678 9.56913 10.1012 9.90859 10.0336C10.2481 9.9661 10.5999 10.0008 10.9197 10.1332C11.2395 10.2657 11.5128 10.49 11.7051 10.7778C11.8974 11.0655 12 11.4039 12 11.75C12 12.2141 11.8156 12.6592 11.4874 12.9874C11.1592 13.3156 10.7141 13.5 10.25 13.5ZM10.25 11C10.1017 11 9.95666 11.044 9.83332 11.1264C9.70999 11.2088 9.61386 11.3259 9.55709 11.463C9.50033 11.6 9.48547 11.7508 9.51441 11.8963C9.54335 12.0418 9.61478 12.1754 9.71967 12.2803C9.82456 12.3852 9.9582 12.4567 10.1037 12.4856C10.2492 12.5145 10.4 12.4997 10.537 12.4429C10.6741 12.3861 10.7912 12.29 10.8736 12.1667C10.956 12.0433 11 11.8983 11 11.75C11 11.5511 10.921 11.3603 10.7803 11.2197C10.6397 11.079 10.4489 11 10.25 11Z" fill="#F2F2F2"/>
<path d="M14.75 17C14.4039 17 14.0655 16.8974 13.7778 16.7051C13.49 16.5128 13.2657 16.2395 13.1332 15.9197C13.0008 15.5999 12.9661 15.2481 13.0336 14.9086C13.1012 14.5691 13.2678 14.2573 13.5126 14.0126C13.7573 13.7678 14.0691 13.6012 14.4086 13.5336C14.7481 13.4661 15.0999 13.5008 15.4197 13.6332C15.7395 13.7657 16.0128 13.99 16.2051 14.2778C16.3974 14.5655 16.5 14.9039 16.5 15.25C16.5 15.7141 16.3156 16.1592 15.9874 16.4874C15.6592 16.8156 15.2141 17 14.75 17ZM14.75 14.5C14.6017 14.5 14.4567 14.544 14.3333 14.6264C14.21 14.7088 14.1139 14.8259 14.0571 14.963C14.0003 15.1 13.9855 15.2508 14.0144 15.3963C14.0434 15.5418 14.1148 15.6754 14.2197 15.7803C14.3246 15.8852 14.4582 15.9567 14.6037 15.9856C14.7492 16.0145 14.9 15.9997 15.037 15.9429C15.1741 15.8861 15.2912 15.79 15.3736 15.6667C15.456 15.5433 15.5 15.3983 15.5 15.25C15.5 15.0511 15.421 14.8603 15.2803 14.7197C15.1397 14.579 14.9489 14.5 14.75 14.5Z" fill="#F2F2F2"/>
</svg>
