<svg width="24" height="24" viewBox="0 0 24 24" fill="none" xmlns="http://www.w3.org/2000/svg">
<path d="M10.5 7.75H7C6.13805 7.75 5.3114 7.40759 4.7019 6.7981C4.09241 6.18861 3.75 5.36196 3.75 4.5C3.75 3.63805 4.09241 2.8114 4.7019 2.20191C5.3114 1.59241 6.13805 1.25 7 1.25H7.16C7.69628 1.24934 8.22439 1.3814 8.69724 1.6344C9.17009 1.88741 9.57298 2.25349 9.87 2.7L11.12 4.58C11.2061 4.70302 11.2515 4.84987 11.25 5V7C11.2474 7.19811 11.1676 7.38737 11.0275 7.52747C10.8874 7.66756 10.6981 7.74741 10.5 7.75ZM7 2.75C6.53587 2.75 6.09075 2.93438 5.76256 3.26257C5.43437 3.59075 5.25 4.03587 5.25 4.5C5.25 4.96413 5.43437 5.40925 5.76256 5.73744C6.09075 6.06563 6.53587 6.25 7 6.25H9.75V5.25L8.62 3.53C8.45991 3.2896 8.2428 3.09257 7.98805 2.95647C7.7333 2.82037 7.44883 2.74944 7.16 2.75H7Z" fill="#C80000"/>
<path d="M17 7.75H13.5C13.3019 7.74741 13.1127 7.66756 12.9726 7.52747C12.8325 7.38737 12.7526 7.19811 12.75 7V5C12.7485 4.84987 12.794 4.70302 12.88 4.58L14.13 2.7C14.4271 2.25349 14.8299 1.88741 15.3028 1.6344C15.7756 1.3814 16.3038 1.24934 16.84 1.25H17C17.862 1.25 18.6886 1.59241 19.2981 2.20191C19.9076 2.8114 20.25 3.63805 20.25 4.5C20.25 5.36196 19.9076 6.18861 19.2981 6.7981C18.6886 7.40759 17.862 7.75 17 7.75ZM14.25 6.25H17C17.4642 6.25 17.9093 6.06563 18.2375 5.73744C18.5657 5.40925 18.75 4.96413 18.75 4.5C18.75 4.03587 18.5657 3.59075 18.2375 3.26257C17.9093 2.93438 17.4642 2.75 17 2.75H16.84C16.5512 2.74944 16.2667 2.82037 16.012 2.95647C15.7572 3.09257 15.5401 3.2896 15.38 3.53L14.25 5.23V6.25Z" fill="#C80000"/>
<path d="M20.5 10.25H3.5C3.30189 10.2526 3.11263 10.3324 2.97253 10.4725C2.83244 10.6126 2.75259 10.8019 2.75 11V21C2.75263 21.4633 2.93784 21.9069 3.26546 22.2345C3.59309 22.5622 4.03668 22.7474 4.5 22.75H19.5C19.9633 22.7474 20.4069 22.5622 20.7345 22.2345C21.0622 21.9069 21.2474 21.4633 21.25 21V11C21.2474 10.8019 21.1676 10.6126 21.0275 10.4725C20.8874 10.3324 20.6981 10.2526 20.5 10.25Z" fill="#ED4040"/>
<path d="M12 3.25C11.3934 3.25263 10.8125 3.49474 10.3836 3.92363C9.9547 4.35252 9.71259 4.93346 9.70996 5.54V6.38C9.70996 6.54443 9.77528 6.70213 9.89155 6.81841C10.0078 6.93468 10.1655 7 10.33 7H13.67C13.8344 7 13.9921 6.93468 14.1084 6.81841C14.2246 6.70213 14.29 6.54443 14.29 6.38V5.54C14.2873 4.93346 14.0452 4.35252 13.6163 3.92363C13.1874 3.49474 12.6065 3.25263 12 3.25Z" fill="#C80000"/>
<path d="M21 6.25H3C2.0335 6.25 1.25 7.0335 1.25 8V10C1.25 10.9665 2.0335 11.75 3 11.75H21C21.9665 11.75 22.75 10.9665 22.75 10V8C22.75 7.0335 21.9665 6.25 21 6.25Z" fill="#ED4040"/>
<path d="M9.70996 6H14.29V22.75H9.70996V6Z" fill="#C80000"/>
</svg>
