<svg width="30" height="30" viewBox="0 0 30 30" fill="none" xmlns="http://www.w3.org/2000/svg">
<path d="M25.46 15.03L23.69 9.72002C23.5744 9.37097 23.3519 9.06719 23.0539 8.85178C22.7559 8.63638 22.3977 8.5203 22.03 8.52002H17.75C17.5519 8.52261 17.3626 8.60246 17.2225 8.74255C17.0824 8.88265 17.0026 9.07191 17 9.27002V15.27C17.0026 15.4681 17.0824 15.6574 17.2225 15.7975C17.3626 15.9376 17.5519 16.0174 17.75 16.02H24.75C24.8687 16.0189 24.9855 15.9903 25.0913 15.9365C25.1971 15.8827 25.2891 15.8052 25.36 15.71C25.4297 15.6129 25.4751 15.5004 25.4925 15.3821C25.5099 15.2639 25.4987 15.1431 25.46 15.03Z" fill="#C91752"/>
<path d="M25.33 14.79C25.2588 14.7055 25.17 14.6376 25.0698 14.591C24.9696 14.5444 24.8605 14.5201 24.75 14.52H18.59L19.43 7.42001C19.4537 7.24082 19.4383 7.05863 19.3847 6.88599C19.3312 6.71335 19.2409 6.55437 19.12 6.42001C19.0041 6.28753 18.8611 6.18147 18.7006 6.10901C18.5402 6.03656 18.366 5.99938 18.19 6.00001H6.19C5.87547 6.00707 5.57517 6.13248 5.34903 6.3512C5.12289 6.56993 4.98754 6.86589 4.97 7.18001L6.75 7.52001C6.55109 7.52001 6.36032 7.59903 6.21967 7.73968C6.07902 7.88033 6 8.0711 6 8.27001C6 8.46892 6.07902 8.65969 6.21967 8.80034C6.36032 8.94099 6.55109 9.02001 6.75 9.02001H8.75C8.94891 9.02001 9.13968 9.09903 9.28033 9.23968C9.42098 9.38033 9.5 9.5711 9.5 9.77001C9.5 9.96892 9.42098 10.1597 9.28033 10.3003C9.13968 10.441 8.94891 10.52 8.75 10.52H4.75C4.55109 10.52 4.36032 10.599 4.21967 10.7397C4.07902 10.8803 4 11.0711 4 11.27C4 11.4689 4.07902 11.6597 4.21967 11.8003C4.36032 11.941 4.55109 12.02 4.75 12.02H7.75C7.94891 12.02 8.13968 12.099 8.28033 12.2397C8.42098 12.3803 8.5 12.5711 8.5 12.77C8.5 12.9689 8.42098 13.1597 8.28033 13.3003C8.13968 13.441 7.94891 13.52 7.75 13.52H5.75C5.66106 13.5211 5.57302 13.5381 5.49 13.57C5.34757 13.6241 5.22469 13.7198 5.13731 13.8446C5.04994 13.9695 5.0021 14.1177 5 14.27C5.00036 14.4035 5.0368 14.5343 5.10545 14.6487C5.17411 14.7632 5.27243 14.8569 5.39 14.92C5.49763 14.9879 5.6228 15.0226 5.75 15.02H9.75C9.94891 15.02 10.1397 15.099 10.2803 15.2397C10.421 15.3803 10.5 15.5711 10.5 15.77C10.5 15.9689 10.421 16.1597 10.2803 16.3003C10.1397 16.441 9.94891 16.52 9.75 16.52H4.75C4.56838 16.5183 4.39302 16.5863 4.26 16.71C4.17838 16.7787 4.1128 16.8644 4.06788 16.9612C4.02296 17.0579 3.99979 17.1633 4 17.27C4.00176 17.4462 4.06548 17.6161 4.18 17.75C4.25014 17.8332 4.33733 17.9003 4.43567 17.9469C4.53401 17.9935 4.6412 18.0184 4.75 18.02H7.75C7.94891 18.02 8.13968 18.099 8.28033 18.2397C8.42098 18.3803 8.5 18.5711 8.5 18.77C8.5 18.9689 8.42098 19.1597 8.28033 19.3003C8.13968 19.441 7.94891 19.52 7.75 19.52H5.75C5.55526 19.5224 5.36888 19.5995 5.22932 19.7353C5.08976 19.8712 5.00767 20.0554 5 20.25C4.99521 20.2932 4.99521 20.3368 5 20.38C4.99425 20.4265 4.99425 20.4735 5 20.52C5.01943 20.5653 5.04285 20.6088 5.07 20.65C5.13792 20.7521 5.23014 20.8357 5.33836 20.8933C5.44658 20.9509 5.56741 20.9807 5.69 20.98H22.93C23.3352 20.9789 23.7276 20.838 24.0409 20.5811C24.3543 20.3242 24.5694 19.9671 24.65 19.57L25.49 15.38C25.5169 15.1699 25.4593 14.9577 25.33 14.79Z" fill="#FD6490"/>
<path d="M9.5 6.77002C9.49741 6.96813 9.41756 7.15739 9.27747 7.29749C9.13737 7.43758 8.94811 7.51743 8.75 7.52002H4.75C4.55109 7.52002 4.36032 7.441 4.21967 7.30035C4.07902 7.1597 4 6.96893 4 6.77002C4 6.57111 4.07902 6.38034 4.21967 6.23969C4.36032 6.09904 4.55109 6.02002 4.75 6.02002H8.75C8.94811 6.02261 9.13737 6.10246 9.27747 6.24255C9.41756 6.38265 9.49741 6.57191 9.5 6.77002Z" fill="#FD6490"/>
<path d="M10.5 8.27002C10.4974 8.46813 10.4176 8.65739 10.2775 8.79749C10.1374 8.93758 9.94811 9.01743 9.75 9.02002H5.75C5.55109 9.02002 5.36032 8.941 5.21967 8.80035C5.07902 8.6597 5 8.46893 5 8.27002C5 8.07111 5.07902 7.88034 5.21967 7.73969C5.36032 7.59904 5.55109 7.52002 5.75 7.52002H9.75C9.94811 7.52261 10.1374 7.60246 10.2775 7.74255C10.4176 7.88265 10.4974 8.07191 10.5 8.27002Z" fill="#FD6490"/>
<path d="M12.1299 23.52C13.3725 23.52 14.3799 22.5127 14.3799 21.27C14.3799 20.0274 13.3725 19.02 12.1299 19.02C10.8872 19.02 9.87988 20.0274 9.87988 21.27C9.87988 22.5127 10.8872 23.52 12.1299 23.52Z" fill="#353535"/>
<path d="M20.1299 23.52C21.3725 23.52 22.3799 22.5127 22.3799 21.27C22.3799 20.0274 21.3725 19.02 20.1299 19.02C18.8872 19.02 17.8799 20.0274 17.8799 21.27C17.8799 22.5127 18.8872 23.52 20.1299 23.52Z" fill="#353535"/>
</svg>
