<svg width="40" height="40" viewBox="0 0 40 40" fill="none" xmlns="http://www.w3.org/2000/svg">
<path d="M29.8917 17.928L28.7997 16.838C28.5326 16.5687 28.3821 16.2052 28.3807 15.826V14.548C28.3796 13.7711 28.0704 13.0263 27.521 12.477C26.9715 11.9277 26.2266 11.6188 25.4497 11.618H24.1737C23.9858 11.6185 23.7996 11.5818 23.6259 11.5101C23.4522 11.4383 23.2945 11.3329 23.1617 11.2L22.0717 10.109C21.5217 9.56038 20.7765 9.25229 19.9997 9.25229C19.2228 9.25229 18.4777 9.56038 17.9277 10.109L16.8377 11.2C16.705 11.3331 16.5472 11.4387 16.3735 11.5106C16.1999 11.5825 16.0137 11.6194 15.8257 11.619H14.5487C13.7717 11.6198 13.0268 11.9287 12.4774 12.478C11.9279 13.0273 11.6187 13.7721 11.6177 14.549V15.826C11.6167 16.2048 11.4665 16.568 11.1997 16.837L10.1077 17.928C9.55907 18.478 9.25098 19.2231 9.25098 20C9.25098 20.7768 9.55907 21.522 10.1077 22.072L11.1997 23.162C11.4667 23.4313 11.6172 23.7947 11.6187 24.174V25.452C11.6197 26.2289 11.9289 26.9737 12.4784 27.523C13.0278 28.0723 13.7727 28.3812 14.5497 28.382H15.8257C16.0137 28.3816 16.1999 28.4185 16.3735 28.4904C16.5472 28.5623 16.705 28.6679 16.8377 28.801L17.9277 29.892C18.4776 30.4408 19.2227 30.7491 19.9997 30.7491C20.7766 30.7491 21.5218 30.4408 22.0717 29.892L23.1617 28.801C23.2944 28.6679 23.4521 28.5623 23.6258 28.4904C23.7995 28.4185 23.9857 28.3816 24.1737 28.382H25.4507C26.2276 28.3812 26.9725 28.0723 27.522 27.523C28.0714 26.9737 28.3806 26.2289 28.3817 25.452V24.174C28.3825 23.7949 28.5331 23.4315 28.8007 23.163L29.8917 22.072C30.4403 21.522 30.7484 20.7768 30.7484 20C30.7484 19.2231 30.4403 18.478 29.8917 17.928Z" fill="#FFC545"/>
<path d="M22.5 24C23.3284 24 24 23.3284 24 22.5C24 21.6716 23.3284 21 22.5 21C21.6716 21 21 21.6716 21 22.5C21 23.3284 21.6716 24 22.5 24Z" fill="white"/>
<path d="M17.5 19C18.3284 19 19 18.3284 19 17.5C19 16.6716 18.3284 16 17.5 16C16.6716 16 16 16.6716 16 17.5C16 18.3284 16.6716 19 17.5 19Z" fill="white"/>
<path d="M17.1718 23.579C17.0235 23.5786 16.8788 23.5343 16.7556 23.4518C16.6325 23.3692 16.5366 23.2521 16.4799 23.1151C16.4232 22.9781 16.4084 22.8275 16.4372 22.6821C16.466 22.5367 16.5372 22.403 16.6418 22.298L22.2998 16.641C22.443 16.5151 22.6287 16.4485 22.8192 16.4547C23.0098 16.4609 23.1908 16.5394 23.3255 16.6742C23.4603 16.8091 23.5386 16.9902 23.5446 17.1807C23.5506 17.3713 23.4838 17.5569 23.3578 17.7L17.6998 23.359C17.5599 23.4994 17.37 23.5785 17.1718 23.579Z" fill="white"/>
</svg>
