<svg width="155" height="18" viewBox="0 0 155 18" fill="none" xmlns="http://www.w3.org/2000/svg">
<path d="M0.211063 1.32H2.67506L7.73106 9.272V1.32H9.90706V13H7.58706L2.38706 4.792V13H0.211063V1.32ZM15.8499 13.192C15.1139 13.192 14.4419 13.0693 13.8339 12.824C13.2259 12.568 12.7033 12.2213 12.2659 11.784C11.8393 11.3467 11.5033 10.8347 11.2579 10.248C11.0233 9.65067 10.9059 9.016 10.9059 8.344C10.9059 7.66133 11.0286 7.02133 11.2739 6.424C11.5299 5.82667 11.8766 5.30933 12.3139 4.872C12.7513 4.43467 13.2633 4.088 13.8499 3.832C14.4473 3.576 15.0873 3.448 15.7699 3.448C16.4633 3.448 17.1033 3.57067 17.6899 3.816C18.2873 4.05067 18.7993 4.38667 19.2259 4.824C19.6526 5.25067 19.9833 5.75733 20.2179 6.344C20.4633 6.93067 20.5859 7.57067 20.5859 8.264V9.08H12.9699C13.1193 9.74133 13.4446 10.2747 13.9459 10.68C14.4473 11.0853 15.0819 11.288 15.8499 11.288C16.4579 11.288 16.9859 11.1387 17.4339 10.84C17.8819 10.5413 18.2179 10.1413 18.4419 9.64L20.2179 10.664C19.8126 11.4213 19.2419 12.0347 18.5059 12.504C17.7806 12.9627 16.8953 13.192 15.8499 13.192ZM15.7699 5.352C15.1193 5.352 14.5539 5.528 14.0739 5.88C13.6046 6.232 13.2739 6.696 13.0819 7.272H18.3939C18.2339 6.64267 17.9246 6.168 17.4659 5.848C17.0073 5.51733 16.4419 5.352 15.7699 5.352ZM20.4989 3.64H22.7069L24.7709 10.088L27.1229 3.64H29.2669L31.5709 10.104L33.7149 3.64H35.9069L32.6269 13H30.5469L28.1789 6.52L25.7469 13H23.6189L20.4989 3.64ZM46.4707 13.16C45.5534 13.16 44.7214 13 43.9747 12.68C43.2387 12.36 42.604 11.928 42.0707 11.384C41.5374 10.8293 41.1267 10.1893 40.8387 9.464C40.5507 8.73867 40.4067 7.97067 40.4067 7.16C40.4067 6.328 40.556 5.54933 40.8547 4.824C41.1534 4.088 41.564 3.45333 42.0867 2.92C42.62 2.376 43.2494 1.94933 43.9747 1.64C44.7107 1.32 45.5107 1.16 46.3747 1.16C46.9827 1.16 47.5534 1.23467 48.0867 1.384C48.62 1.53333 49.1107 1.74133 49.5587 2.008C50.0174 2.264 50.4227 2.57867 50.7747 2.952C51.1374 3.31467 51.4414 3.71467 51.6867 4.152L49.7667 5.304C49.404 4.632 48.94 4.12533 48.3747 3.784C47.82 3.44267 47.1587 3.272 46.3907 3.272C45.8467 3.272 45.34 3.37867 44.8707 3.592C44.412 3.79467 44.0067 4.072 43.6547 4.424C43.3134 4.776 43.0467 5.18667 42.8547 5.656C42.6627 6.12533 42.5667 6.62667 42.5667 7.16C42.5667 7.704 42.6627 8.21067 42.8547 8.68C43.0467 9.14933 43.3134 9.56 43.6547 9.912C44.0067 10.264 44.4227 10.5413 44.9027 10.744C45.3827 10.9467 45.9054 11.048 46.4707 11.048C47.3454 11.048 48.0707 10.8187 48.6467 10.36C49.2334 9.90133 49.6334 9.288 49.8467 8.52H46.1187V6.44H52.1827V7.304C52.1827 8.09333 52.0494 8.84533 51.7827 9.56C51.516 10.264 51.132 10.8827 50.6307 11.416C50.14 11.9493 49.5427 12.376 48.8387 12.696C48.1347 13.0053 47.3454 13.16 46.4707 13.16ZM57.6233 13.192C57.058 13.192 56.498 13.0853 55.9433 12.872C55.3993 12.648 54.9086 12.328 54.4713 11.912C54.034 11.496 53.682 10.9893 53.4153 10.392C53.1486 9.784 53.0153 9.096 53.0153 8.328C53.0153 7.54933 53.1433 6.86133 53.3993 6.264C53.666 5.656 54.0126 5.144 54.4393 4.728C54.8766 4.312 55.3726 3.99733 55.9273 3.784C56.482 3.56 57.058 3.448 57.6553 3.448C58.274 3.448 58.8446 3.56533 59.3673 3.8C59.89 4.03467 60.322 4.35467 60.6633 4.76V3.64H62.8233V13H60.6633V11.784C60.322 12.2213 59.8846 12.568 59.3513 12.824C58.818 13.0693 58.242 13.192 57.6233 13.192ZM57.9753 11.208C58.37 11.208 58.738 11.1333 59.0793 10.984C59.4313 10.8347 59.73 10.6267 59.9753 10.36C60.2206 10.0933 60.4126 9.784 60.5513 9.432C60.7006 9.08 60.7753 8.70133 60.7753 8.296C60.7753 7.90133 60.7006 7.528 60.5513 7.176C60.4126 6.824 60.2206 6.52 59.9753 6.264C59.73 5.99733 59.4313 5.78933 59.0793 5.64C58.738 5.49067 58.37 5.416 57.9753 5.416C57.57 5.416 57.1966 5.49067 56.8553 5.64C56.514 5.78933 56.2153 5.992 55.9593 6.248C55.7033 6.504 55.5006 6.808 55.3513 7.16C55.2126 7.512 55.1433 7.89067 55.1433 8.296C55.1433 8.70133 55.2126 9.08533 55.3513 9.448C55.5006 9.8 55.7033 10.1093 55.9593 10.376C56.2153 10.632 56.514 10.8347 56.8553 10.984C57.1966 11.1333 57.57 11.208 57.9753 11.208ZM64.0537 1.16H66.2297V13H64.0537V1.16ZM71.7796 13.192C71.2142 13.192 70.6542 13.0853 70.0996 12.872C69.5556 12.648 69.0649 12.328 68.6276 11.912C68.1902 11.496 67.8382 10.9893 67.5716 10.392C67.3049 9.784 67.1716 9.096 67.1716 8.328C67.1716 7.54933 67.2996 6.86133 67.5556 6.264C67.8222 5.656 68.1689 5.144 68.5956 4.728C69.0329 4.312 69.5289 3.99733 70.0836 3.784C70.6382 3.56 71.2142 3.448 71.8116 3.448C72.4302 3.448 73.0009 3.56533 73.5236 3.8C74.0462 4.03467 74.4782 4.35467 74.8196 4.76V3.64H76.9796V13H74.8196V11.784C74.4782 12.2213 74.0409 12.568 73.5076 12.824C72.9742 13.0693 72.3982 13.192 71.7796 13.192ZM72.1316 11.208C72.5262 11.208 72.8942 11.1333 73.2356 10.984C73.5876 10.8347 73.8862 10.6267 74.1316 10.36C74.3769 10.0933 74.5689 9.784 74.7076 9.432C74.8569 9.08 74.9316 8.70133 74.9316 8.296C74.9316 7.90133 74.8569 7.528 74.7076 7.176C74.5689 6.824 74.3769 6.52 74.1316 6.264C73.8862 5.99733 73.5876 5.78933 73.2356 5.64C72.8942 5.49067 72.5262 5.416 72.1316 5.416C71.7262 5.416 71.3529 5.49067 71.0116 5.64C70.6702 5.78933 70.3716 5.992 70.1156 6.248C69.8596 6.504 69.6569 6.808 69.5076 7.16C69.3689 7.512 69.2996 7.89067 69.2996 8.296C69.2996 8.70133 69.3689 9.08533 69.5076 9.448C69.6569 9.8 69.8596 10.1093 70.1156 10.376C70.3716 10.632 70.6702 10.8347 71.0116 10.984C71.3529 11.1333 71.7262 11.208 72.1316 11.208ZM81.0297 8.232L77.6377 3.64H80.2777L82.4057 6.616L84.5177 3.64H87.0777L83.7177 8.264L87.3017 13H84.6617L82.3737 9.88L80.1497 13H77.5097L81.0297 8.232ZM91.1938 12.536L87.3538 3.64H89.6578L92.2658 9.944L94.7298 3.64H97.0018L91.4178 17.32H89.2258L91.1938 12.536ZM111.716 0.0559998V2.904H113.684V4.344H111.716V7.208H109.956V0.0559998H111.716ZM111.716 7.816V11.56H104.244V12.728H112.18V14.12H102.5V10.264H109.988V9.176H102.468V7.816H111.716ZM104.484 0.487999C105.199 0.487999 105.839 0.626666 106.404 0.903999C106.98 1.18133 107.428 1.56533 107.748 2.056C108.079 2.536 108.244 3.08533 108.244 3.704C108.244 4.32267 108.079 4.87733 107.748 5.368C107.428 5.848 106.98 6.22667 106.404 6.504C105.839 6.77067 105.199 6.904 104.484 6.904C103.78 6.904 103.14 6.77067 102.564 6.504C101.999 6.22667 101.551 5.848 101.22 5.368C100.9 4.87733 100.74 4.32267 100.74 3.704C100.74 3.08533 100.9 2.536 101.22 2.056C101.551 1.56533 101.999 1.18133 102.564 0.903999C103.14 0.626666 103.78 0.487999 104.484 0.487999ZM104.484 1.912C103.887 1.912 103.396 2.07733 103.012 2.408C102.628 2.73867 102.436 3.17067 102.436 3.704C102.436 4.23733 102.628 4.66933 103.012 5C103.396 5.33067 103.887 5.496 104.484 5.496C105.092 5.496 105.583 5.336 105.956 5.016C106.34 4.68533 106.532 4.248 106.532 3.704C106.532 3.16 106.34 2.728 105.956 2.408C105.583 2.07733 105.092 1.912 104.484 1.912ZM124.916 0.0559998V3.512H126.9V4.968H124.916V8.52H123.156V0.0559998H124.916ZM124.916 9.176V14.12H115.764V9.176H124.916ZM117.492 10.536V12.728H123.204V10.536H117.492ZM120.772 0.792V4.952H116.068V6.504C117.348 6.49333 118.436 6.46133 119.332 6.408C120.228 6.344 121.13 6.232 122.036 6.072L122.196 7.464C121.204 7.64533 120.207 7.768 119.204 7.832C118.212 7.896 116.975 7.928 115.492 7.928H114.324V3.624H119.028V2.2H114.292V0.792H120.772ZM140.988 0.0559998V3.352H142.956V4.808H140.988V8.36H139.228V0.0559998H140.988ZM132.076 0.855999V2.808H135.34V0.855999H137.068V7.592H130.332V0.855999H132.076ZM132.076 6.184H135.34V4.168H132.076V6.184ZM141.084 9.048V10.456H133.628V12.696H141.356V14.12H131.884V9.048H141.084ZM154.797 0.039999V14.28H153.037V0.039999H154.797ZM150.589 1.528C150.589 3.81067 150.082 5.80533 149.069 7.512C148.055 9.21867 146.37 10.6427 144.013 11.784L143.101 10.392C144.914 9.51733 146.274 8.472 147.181 7.256C148.087 6.04 148.621 4.60533 148.781 2.952H143.805V1.528H150.589Z" fill="white"/>
</svg>
