<svg width="552" height="68" viewBox="0 0 552 68" fill="none" xmlns="http://www.w3.org/2000/svg">
<path d="M36.45 9.3V26.75H43.25V31.35H36.45V52.3H30.95V9.3H36.45ZM1.15 39.1L9.3 27.7C10.2 26.4 10.8167 25.2833 11.15 24.35C11.4833 23.3833 11.65 22.35 11.65 21.25V12.15H17V21.25C17 22.3833 17.15 23.4333 17.45 24.4C17.7833 25.3333 18.4 26.4333 19.3 27.7L27.45 39.1L23.35 42L15.2 30.6L14.3 29.25L13.4 30.6L5.25 42L1.15 39.1ZM73.8176 24.25H66.3676V19.8H73.8176V9.3H79.3176V39.9H73.8176V24.25ZM56.5176 38.2V48.5H79.6676V52.9H51.0176V38.2H56.5176ZM43.6176 30.5L51.4176 22.6C52.1509 21.8667 52.6342 21.1667 52.8676 20.5C53.1342 19.8 53.2676 19.0167 53.2676 18.15V16.4H44.5676V11.9H66.8176V16.4H58.5176V18.15C58.5176 19.05 58.6342 19.8333 58.8676 20.5C59.1009 21.1333 59.6009 21.8333 60.3676 22.6L68.1676 30.5L64.5676 34.1L56.7676 26.2L55.9176 25.2L55.0176 26.2L47.2176 34.1L43.6176 30.5ZM121.135 9.25V52.25H115.885V9.25H121.135ZM112.435 10.1V50.15H107.285V33.9H101.935C101.002 35.3667 99.8018 36.5 98.3352 37.3C96.9018 38.1 95.2852 38.5 93.4852 38.5C91.4518 38.5 89.6352 37.9667 88.0352 36.9C86.4352 35.8333 85.1852 34.35 84.2852 32.45C83.3852 30.5167 82.9352 28.3333 82.9352 25.9C82.9352 23.4333 83.3852 21.25 84.2852 19.35C85.1852 17.4167 86.4352 15.9167 88.0352 14.85C89.6352 13.75 91.4518 13.2 93.4852 13.2C95.3852 13.2 97.0852 13.6667 98.5852 14.6C100.118 15.5 101.352 16.7667 102.285 18.4H107.285V10.1H112.435ZM93.4852 33.6C95.1185 33.6 96.4352 32.9 97.4352 31.5C98.4685 30.0667 98.9852 28.2 98.9852 25.9C98.9852 23.5667 98.4685 21.6833 97.4352 20.25C96.4352 18.8167 95.1185 18.1 93.4852 18.1C91.8852 18.1 90.5852 18.8167 89.5852 20.25C88.5852 21.6833 88.0852 23.5667 88.0852 25.9C88.0852 28.2 88.5852 30.0667 89.5852 31.5C90.5852 32.9 91.8852 33.6 93.4852 33.6ZM107.285 29.45V22.85H103.885C104.052 23.9167 104.135 24.9333 104.135 25.9C104.135 26.9667 104.018 28.15 103.785 29.45H107.285ZM158.253 9.3V15.45H164.253V20H158.253V25.05H164.253V29.55H158.253V35.05H152.703V9.3H158.253ZM158.253 36.95V53.8H152.703V41.35H130.653V36.95H158.253ZM135.553 33.05C133.319 33.05 131.319 32.5833 129.553 31.65C127.819 30.7167 126.453 29.4167 125.453 27.75C124.486 26.0833 124.003 24.1833 124.003 22.05C124.003 19.9167 124.486 18.0167 125.453 16.35C126.453 14.65 127.819 13.3333 129.553 12.4C131.319 11.4667 133.319 11 135.553 11C137.786 11 139.769 11.4667 141.503 12.4C143.236 13.3333 144.586 14.65 145.553 16.35C146.553 18.0167 147.053 19.9167 147.053 22.05C147.053 24.1833 146.553 26.0833 145.553 27.75C144.586 29.4167 143.236 30.7167 141.503 31.65C139.769 32.5833 137.786 33.05 135.553 33.05ZM135.553 28.55C137.386 28.55 138.853 27.95 139.953 26.75C141.086 25.55 141.653 23.9833 141.653 22.05C141.653 20.0833 141.086 18.5 139.953 17.3C138.853 16.0667 137.386 15.45 135.553 15.45C133.719 15.45 132.236 16.0667 131.103 17.3C129.969 18.5 129.403 20.0833 129.403 22.05C129.403 23.9833 129.969 25.55 131.103 26.75C132.236 27.95 133.719 28.55 135.553 28.55ZM210.894 9.25V52.25H205.694V32.3H201.394V50.25H196.244V10.2H201.394V27.85H205.694V9.25H210.894ZM180.494 15.2V10.1H185.944V15.2H193.644V19.6H172.794V15.2H180.494ZM183.194 41.6C181.294 41.6 179.594 41.1667 178.094 40.3C176.594 39.4333 175.41 38.2333 174.544 36.7C173.71 35.1333 173.294 33.3667 173.294 31.4C173.294 29.4333 173.71 27.6833 174.544 26.15C175.41 24.5833 176.594 23.3667 178.094 22.5C179.594 21.6333 181.294 21.2 183.194 21.2C185.127 21.2 186.844 21.6333 188.344 22.5C189.844 23.3667 191.01 24.5833 191.844 26.15C192.71 27.6833 193.144 29.4333 193.144 31.4C193.144 33.3667 192.71 35.1333 191.844 36.7C191.01 38.2333 189.844 39.4333 188.344 40.3C186.844 41.1667 185.127 41.6 183.194 41.6ZM183.194 37.05C184.66 37.05 185.844 36.5333 186.744 35.5C187.644 34.4667 188.094 33.1 188.094 31.4C188.094 29.7 187.644 28.3333 186.744 27.3C185.844 26.2667 184.66 25.75 183.194 25.75C181.727 25.75 180.544 26.2667 179.644 27.3C178.777 28.3333 178.344 29.7 178.344 31.4C178.344 33.1 178.777 34.4667 179.644 35.5C180.544 36.5333 181.727 37.05 183.194 37.05ZM248.111 9.3V19.95H254.561V24.5H248.111V33.1H254.561V37.6H248.111V52.3H242.561V9.3H248.111ZM225.761 38.5C223.428 38.5 221.328 37.9667 219.461 36.9C217.628 35.8333 216.195 34.35 215.161 32.45C214.128 30.5167 213.611 28.3333 213.611 25.9C213.611 23.4333 214.128 21.25 215.161 19.35C216.195 17.4167 217.628 15.9167 219.461 14.85C221.328 13.75 223.428 13.2 225.761 13.2C228.095 13.2 230.178 13.75 232.011 14.85C233.845 15.9167 235.278 17.4167 236.311 19.35C237.345 21.25 237.861 23.4333 237.861 25.9C237.861 28.3333 237.345 30.5167 236.311 32.45C235.278 34.35 233.845 35.8333 232.011 36.9C230.178 37.9667 228.095 38.5 225.761 38.5ZM225.761 33.8C227.795 33.8 229.428 33.0833 230.661 31.65C231.895 30.1833 232.511 28.2667 232.511 25.9C232.511 23.5333 231.895 21.6167 230.661 20.15C229.428 18.65 227.795 17.9 225.761 17.9C223.728 17.9 222.095 18.65 220.861 20.15C219.628 21.6167 219.011 23.5333 219.011 25.9C219.011 28.2667 219.628 30.1833 220.861 31.65C222.095 33.0833 223.728 33.8 225.761 33.8ZM297.652 9.3V27H304.402V31.55H297.652V52.3H292.152V9.3H297.652ZM273.302 14.9V10.1H278.752V14.9H288.452V19.3H263.552V14.9H273.302ZM276.002 42.1C273.902 42.1 272.036 41.6667 270.402 40.8C268.769 39.9 267.486 38.65 266.552 37.05C265.652 35.45 265.202 33.6333 265.202 31.6C265.202 29.5667 265.652 27.75 266.552 26.15C267.486 24.5167 268.769 23.25 270.402 22.35C272.036 21.45 273.902 21 276.002 21C278.102 21 279.969 21.45 281.602 22.35C283.269 23.25 284.552 24.5167 285.452 26.15C286.386 27.75 286.852 29.5667 286.852 31.6C286.852 33.6333 286.386 35.45 285.452 37.05C284.552 38.65 283.269 39.9 281.602 40.8C279.969 41.6667 278.102 42.1 276.002 42.1ZM276.002 37.55C277.669 37.55 279.002 37 280.002 35.9C281.036 34.8 281.552 33.3667 281.552 31.6C281.552 29.8 281.036 28.35 280.002 27.25C279.002 26.15 277.669 25.6 276.002 25.6C274.336 25.6 272.986 26.15 271.952 27.25C270.952 28.35 270.452 29.8 270.452 31.6C270.452 33.3667 270.969 34.8 272.002 35.9C273.036 37 274.369 37.55 276.002 37.55ZM315.12 10.85V22.4H338.52V26.75H309.62V10.85H315.12ZM343.82 31.05V35.45H303.52V31.05H343.82ZM315.22 39.15V48.45H338.12V52.85H309.77V39.15H315.22Z" fill="#2F2F2F"/>
<path d="M357.9 48.3L371.45 18L354.75 18.05V13.35H376.75L377.25 18L362.8 50.35L357.9 48.3ZM413.221 9.2V26.5H419.771V31.05H413.221V52.25H407.721V9.2H413.221ZM380.921 13.05H401.571V17.55C401.571 21.65 400.605 25.35 398.671 28.65C396.738 31.9167 394.205 34.6167 391.071 36.75C387.938 38.8833 384.555 40.4167 380.921 41.35L379.671 36.35C382.771 35.55 385.571 34.3333 388.071 32.7C390.571 31.0333 392.571 28.9167 394.071 26.35C395.571 23.7833 396.321 20.85 396.321 17.55H380.921V13.05ZM456.089 9.3V52.3H450.539V9.3H456.089ZM419.589 38.4L427.639 26.65C428.572 25.2833 429.189 24.1833 429.489 23.35C429.822 22.4833 429.989 21.5167 429.989 20.45V17.6H421.289V13.1H444.089V17.6H435.389V20.45C435.389 21.5167 435.539 22.4833 435.839 23.35C436.172 24.2167 436.789 25.3167 437.689 26.65L445.739 38.4L441.539 41.3L433.489 29.55L432.639 28.3L431.839 29.55L423.789 41.3L419.589 38.4ZM505.38 9.2V52.35H499.83V9.2H505.38ZM481.48 38.5C479.147 38.5 477.047 37.9667 475.18 36.9C473.347 35.8333 471.913 34.35 470.88 32.45C469.847 30.5167 469.33 28.3333 469.33 25.9C469.33 23.4333 469.847 21.25 470.88 19.35C471.913 17.4167 473.347 15.9167 475.18 14.85C477.047 13.75 479.147 13.2 481.48 13.2C483.813 13.2 485.897 13.75 487.73 14.85C489.563 15.9167 490.997 17.4167 492.03 19.35C493.063 21.25 493.58 23.4333 493.58 25.9C493.58 28.3333 493.063 30.5167 492.03 32.45C490.997 34.35 489.563 35.8333 487.73 36.9C485.897 37.9667 483.813 38.5 481.48 38.5ZM481.48 33.8C483.513 33.8 485.147 33.0833 486.38 31.65C487.613 30.1833 488.23 28.2667 488.23 25.9C488.23 23.5333 487.613 21.6167 486.38 20.15C485.147 18.65 483.513 17.9 481.48 17.9C479.447 17.9 477.813 18.65 476.58 20.15C475.347 21.6167 474.73 23.5333 474.73 25.9C474.73 28.2667 475.347 30.1833 476.58 31.65C477.813 33.0833 479.447 33.8 481.48 33.8ZM549.498 35.1V39.6H539.698V53.75H534.148V39.6H524.398V53.75H518.748V39.6H509.198V35.1H549.498ZM516.398 20.8C516.398 18.6 516.931 16.6333 517.998 14.9C519.098 13.1667 520.614 11.8167 522.548 10.85C524.514 9.88333 526.731 9.4 529.198 9.4C531.731 9.4 533.981 9.88333 535.948 10.85C537.914 11.8167 539.448 13.1667 540.548 14.9C541.648 16.6333 542.198 18.6 542.198 20.8C542.198 23 541.648 24.9667 540.548 26.7C539.448 28.4 537.914 29.7333 535.948 30.7C533.981 31.6667 531.731 32.15 529.198 32.15C526.731 32.15 524.514 31.6667 522.548 30.7C520.614 29.7333 519.098 28.4 517.998 26.7C516.931 24.9667 516.398 23 516.398 20.8ZM521.798 20.8C521.798 22.8333 522.481 24.4833 523.848 25.75C525.214 27.0167 526.998 27.65 529.198 27.65C531.464 27.65 533.298 27.0333 534.698 25.8C536.098 24.5333 536.798 22.8667 536.798 20.8C536.798 18.7333 536.098 17.0667 534.698 15.8C533.298 14.5 531.464 13.85 529.198 13.85C526.998 13.85 525.214 14.5 523.848 15.8C522.481 17.0667 521.798 18.7333 521.798 20.8Z" fill="#FF0090"/>
<path d="M351.5 66.4167C350.764 66.4167 350.167 67.0136 350.167 67.75C350.167 68.4864 350.764 69.0833 351.5 69.0833V66.4167ZM351.5 69.0833C353.909 69.0833 355.143 67.6119 356.003 66.628C356.893 65.6119 357.409 65.0833 358.5 65.0833V62.4167C356.091 62.4167 354.857 63.8881 353.997 64.872C353.107 65.8881 352.591 66.4167 351.5 66.4167V69.0833Z" fill="#FF0090"/>
<path d="M358.5 65.0833C359.591 65.0833 360.107 65.6119 360.997 66.628C361.857 67.6119 363.091 69.0833 365.5 69.0833V66.4167C364.409 66.4167 363.893 65.8881 363.003 64.872C362.143 63.8881 360.909 62.4167 358.5 62.4167V65.0833Z" fill="#FF0090"/>
<path d="M365.5 69.0833C367.909 69.0833 369.143 67.6119 370.003 66.628C370.893 65.6119 371.409 65.0833 372.5 65.0833V62.4167C370.091 62.4167 368.857 63.8881 367.997 64.872C367.107 65.8881 366.591 66.4167 365.5 66.4167V69.0833Z" fill="#FF0090"/>
<path d="M372.5 65.0833C373.591 65.0833 374.107 65.6119 374.997 66.628C375.857 67.6119 377.091 69.0833 379.5 69.0833V66.4167C378.409 66.4167 377.893 65.8881 377.003 64.872C376.143 63.8881 374.909 62.4167 372.5 62.4167V65.0833Z" fill="#FF0090"/>
<path d="M379.5 69.0833C381.909 69.0833 383.143 67.6119 384.003 66.628C384.893 65.6119 385.409 65.0833 386.5 65.0833V62.4167C384.091 62.4167 382.857 63.8881 381.997 64.872C381.107 65.8881 380.591 66.4167 379.5 66.4167V69.0833Z" fill="#FF0090"/>
<path d="M386.5 65.0833C387.591 65.0833 388.107 65.6119 388.997 66.628C389.857 67.6119 391.091 69.0833 393.5 69.0833V66.4167C392.409 66.4167 391.893 65.8881 391.003 64.872C390.143 63.8881 388.909 62.4167 386.5 62.4167V65.0833Z" fill="#FF0090"/>
<path d="M393.5 69.0833C395.909 69.0833 397.143 67.6119 398.003 66.628C398.893 65.6119 399.409 65.0833 400.5 65.0833V62.4167C398.091 62.4167 396.857 63.8881 395.997 64.872C395.107 65.8881 394.591 66.4167 393.5 66.4167V69.0833Z" fill="#FF0090"/>
<path d="M400.5 65.0833C401.591 65.0833 402.107 65.6119 402.997 66.628C403.857 67.6119 405.091 69.0833 407.5 69.0833V66.4167C406.409 66.4167 405.893 65.8881 405.003 64.872C404.143 63.8881 402.909 62.4167 400.5 62.4167V65.0833Z" fill="#FF0090"/>
<path d="M407.5 69.0833C409.909 69.0833 411.143 67.6119 412.003 66.628C412.893 65.6119 413.409 65.0833 414.5 65.0833V62.4167C412.091 62.4167 410.857 63.8881 409.997 64.872C409.107 65.8881 408.591 66.4167 407.5 66.4167V69.0833Z" fill="#FF0090"/>
<path d="M414.5 65.0833C415.591 65.0833 416.107 65.6119 416.997 66.628C417.857 67.6119 419.091 69.0833 421.5 69.0833V66.4167C420.409 66.4167 419.893 65.8881 419.003 64.872C418.143 63.8881 416.909 62.4167 414.5 62.4167V65.0833Z" fill="#FF0090"/>
<path d="M421.5 69.0833C423.909 69.0833 425.143 67.6119 426.003 66.628C426.893 65.6119 427.409 65.0833 428.5 65.0833V62.4167C426.091 62.4167 424.857 63.8881 423.997 64.872C423.107 65.8881 422.591 66.4167 421.5 66.4167V69.0833Z" fill="#FF0090"/>
<path d="M428.5 65.0833C429.591 65.0833 430.107 65.6119 430.997 66.628C431.857 67.6119 433.091 69.0833 435.5 69.0833V66.4167C434.409 66.4167 433.893 65.8881 433.003 64.872C432.143 63.8881 430.909 62.4167 428.5 62.4167V65.0833Z" fill="#FF0090"/>
<path d="M435.5 69.0833C437.909 69.0833 439.143 67.6119 440.003 66.628C440.893 65.6119 441.409 65.0833 442.5 65.0833V62.4167C440.091 62.4167 438.857 63.8881 437.997 64.872C437.107 65.8881 436.591 66.4167 435.5 66.4167V69.0833Z" fill="#FF0090"/>
<path d="M442.5 65.0833C443.591 65.0833 444.107 65.6119 444.997 66.628C445.857 67.6119 447.091 69.0833 449.5 69.0833V66.4167C448.409 66.4167 447.893 65.8881 447.003 64.872C446.143 63.8881 444.909 62.4167 442.5 62.4167V65.0833Z" fill="#FF0090"/>
<path d="M449.5 69.0833C451.909 69.0833 453.143 67.6119 454.003 66.628C454.893 65.6119 455.409 65.0833 456.5 65.0833V62.4167C454.091 62.4167 452.857 63.8881 451.997 64.872C451.107 65.8881 450.591 66.4167 449.5 66.4167V69.0833Z" fill="#FF0090"/>
<path d="M456.5 65.0833C457.591 65.0833 458.107 65.6119 458.997 66.628C459.857 67.6119 461.091 69.0833 463.5 69.0833V66.4167C462.409 66.4167 461.893 65.8881 461.003 64.872C460.143 63.8881 458.909 62.4167 456.5 62.4167V65.0833Z" fill="#FF0090"/>
<path d="M463.5 69.0833C465.909 69.0833 467.143 67.6119 468.003 66.628C468.893 65.6119 469.409 65.0833 470.5 65.0833V62.4167C468.091 62.4167 466.857 63.8881 465.997 64.872C465.107 65.8881 464.591 66.4167 463.5 66.4167V69.0833Z" fill="#FF0090"/>
<path d="M470.5 65.0833C471.591 65.0833 472.107 65.6119 472.997 66.628C473.857 67.6119 475.091 69.0833 477.5 69.0833V66.4167C476.409 66.4167 475.893 65.8881 475.003 64.872C474.143 63.8881 472.909 62.4167 470.5 62.4167V65.0833Z" fill="#FF0090"/>
<path d="M477.5 69.0833C479.909 69.0833 481.143 67.6119 482.003 66.628C482.893 65.6119 483.409 65.0833 484.5 65.0833V62.4167C482.091 62.4167 480.857 63.8881 479.997 64.872C479.107 65.8881 478.591 66.4167 477.5 66.4167V69.0833Z" fill="#FF0090"/>
<path d="M484.5 65.0833C485.591 65.0833 486.107 65.6119 486.997 66.628C487.857 67.6119 489.091 69.0833 491.5 69.0833V66.4167C490.409 66.4167 489.893 65.8881 489.003 64.872C488.143 63.8881 486.909 62.4167 484.5 62.4167V65.0833Z" fill="#FF0090"/>
<path d="M491.5 69.0833C493.909 69.0833 495.143 67.6119 496.003 66.628C496.893 65.6119 497.409 65.0833 498.5 65.0833V62.4167C496.091 62.4167 494.857 63.8881 493.997 64.872C493.107 65.8881 492.591 66.4167 491.5 66.4167V69.0833Z" fill="#FF0090"/>
<path d="M498.5 65.0833C499.591 65.0833 500.107 65.6119 500.997 66.628C501.857 67.6119 503.091 69.0833 505.5 69.0833V66.4167C504.409 66.4167 503.893 65.8881 503.003 64.872C502.143 63.8881 500.909 62.4167 498.5 62.4167V65.0833Z" fill="#FF0090"/>
<path d="M505.5 69.0833C507.909 69.0833 509.143 67.6119 510.003 66.628C510.893 65.6119 511.409 65.0833 512.5 65.0833V62.4167C510.091 62.4167 508.857 63.8881 507.997 64.872C507.107 65.8881 506.591 66.4167 505.5 66.4167V69.0833Z" fill="#FF0090"/>
<path d="M512.5 65.0833C513.591 65.0833 514.107 65.6119 514.997 66.628C515.857 67.6119 517.091 69.0833 519.5 69.0833V66.4167C518.409 66.4167 517.893 65.8881 517.003 64.872C516.143 63.8881 514.909 62.4167 512.5 62.4167V65.0833Z" fill="#FF0090"/>
<path d="M519.5 69.0833C521.909 69.0833 523.143 67.6119 524.003 66.628C524.893 65.6119 525.409 65.0833 526.5 65.0833V62.4167C524.091 62.4167 522.857 63.8881 521.997 64.872C521.107 65.8881 520.591 66.4167 519.5 66.4167V69.0833Z" fill="#FF0090"/>
<path d="M526.5 65.0833C527.591 65.0833 528.107 65.6119 528.997 66.628C529.857 67.6119 531.091 69.0833 533.5 69.0833V66.4167C532.409 66.4167 531.893 65.8881 531.003 64.872C530.143 63.8881 528.909 62.4167 526.5 62.4167V65.0833Z" fill="#FF0090"/>
<path d="M533.5 69.0833C535.909 69.0833 537.143 67.6119 538.003 66.628C538.893 65.6119 539.409 65.0833 540.5 65.0833V62.4167C538.091 62.4167 536.857 63.8881 535.997 64.872C535.107 65.8881 534.591 66.4167 533.5 66.4167V69.0833Z" fill="#FF0090"/>
<path d="M540.5 65.0833C541.591 65.0833 542.107 65.6119 542.997 66.628C543.857 67.6119 545.091 69.0833 547.5 69.0833V66.4167C546.409 66.4167 545.893 65.8881 545.003 64.872C544.143 63.8881 542.909 62.4167 540.5 62.4167V65.0833ZM547.5 69.0833C548.236 69.0833 548.833 68.4864 548.833 67.75C548.833 67.0136 548.236 66.4167 547.5 66.4167V69.0833Z" fill="#FF0090"/>
</svg>
