<svg width="181" height="22" viewBox="0 0 181 22" fill="none" xmlns="http://www.w3.org/2000/svg">
<path d="M16.06 0.202V4.118H18.766V6.098H16.06V10.036H13.64V0.202H16.06ZM16.06 10.872V16.02H5.786V17.626H16.698V19.54H3.388V14.238H13.684V12.742H3.344V10.872H16.06ZM6.116 0.795999C7.09867 0.795999 7.97867 0.986665 8.756 1.368C9.548 1.74933 10.164 2.27733 10.604 2.952C11.0587 3.612 11.286 4.36733 11.286 5.218C11.286 6.06867 11.0587 6.83133 10.604 7.506C10.164 8.166 9.548 8.68667 8.756 9.068C7.97867 9.43467 7.09867 9.618 6.116 9.618C5.148 9.618 4.268 9.43467 3.476 9.068C2.69867 8.68667 2.08267 8.166 1.628 7.506C1.188 6.83133 0.968 6.06867 0.968 5.218C0.968 4.36733 1.188 3.612 1.628 2.952C2.08267 2.27733 2.69867 1.74933 3.476 1.368C4.268 0.986665 5.148 0.795999 6.116 0.795999ZM6.116 2.754C5.29467 2.754 4.62 2.98133 4.092 3.436C3.564 3.89067 3.3 4.48467 3.3 5.218C3.3 5.95133 3.564 6.54533 4.092 7C4.62 7.45467 5.29467 7.682 6.116 7.682C6.952 7.682 7.62667 7.462 8.14 7.022C8.668 6.56733 8.932 5.966 8.932 5.218C8.932 4.47 8.668 3.876 8.14 3.436C7.62667 2.98133 6.952 2.754 6.116 2.754ZM34.2105 0.202V4.954H36.9385V6.956H34.2105V11.84H31.7905V0.202H34.2105ZM34.2105 12.742V19.54H21.6265V12.742H34.2105ZM24.0025 14.612V17.626H31.8565V14.612H24.0025ZM28.5125 1.214V6.934H22.0445V9.068C23.8045 9.05333 25.3005 9.00933 26.5325 8.936C27.7645 8.848 29.0038 8.694 30.2505 8.474L30.4705 10.388C29.1065 10.6373 27.7352 10.806 26.3565 10.894C24.9925 10.982 23.2912 11.026 21.2525 11.026H19.6465V5.108H26.1145V3.15H19.6025V1.214H28.5125ZM56.3093 0.202V4.734H59.0153V6.736H56.3093V11.62H53.8893V0.202H56.3093ZM44.0553 1.302V3.986H48.5433V1.302H50.9193V10.564H41.6573V1.302H44.0553ZM44.0553 8.628H48.5433V5.856H44.0553V8.628ZM56.4413 12.566V14.502H46.1893V17.582H56.8153V19.54H43.7913V12.566H56.4413ZM74.9439 1.962V3.854C74.9439 5.526 74.8999 7.03667 74.8119 8.386C74.7385 9.73533 74.5405 11.312 74.2179 13.116L71.7759 12.852C72.1132 11.18 72.3185 9.684 72.3919 8.364C72.4799 7.02933 72.5239 5.548 72.5239 3.92H60.9299V1.962H74.9439ZM65.6159 15.272V8.452H68.0139V15.272H76.8139V17.252H59.1039V15.272H65.6159ZM78.9924 21.036H77.2544L78.0904 15.976H80.4884L78.9924 21.036ZM91.189 1.126V6.538H102.277V8.474H88.769V1.126H91.189ZM104.301 10.894V12.852H100.033V19.804H97.635V12.852H93.257V19.804H90.815V12.852H86.591V10.894H104.301ZM125.278 0.179999V10.058H122.99V6.252H120.988V9.926H118.722V0.553999H120.988V4.316H122.99V0.179999H125.278ZM117.094 1.346C117.094 3.66333 116.492 5.59933 115.29 7.154C114.087 8.694 112.254 9.89667 109.79 10.762L108.69 9.002C112.254 7.82867 114.219 5.91467 114.586 3.26H109.57V1.346H117.094ZM125.278 10.916V16.02H114.564V17.626H125.982V19.54H112.188V14.216H122.924V12.786H112.144V10.916H125.278ZM143.076 0.202V12.214H140.656V6.736H137.378V4.8H140.656V0.202H143.076ZM143.076 13.204V19.782H140.656V15.14H129.788V13.204H143.076ZM136.322 1.346V7.198H129.986V9.508C131.644 9.49333 133.052 9.44933 134.21 9.376C135.384 9.30267 136.572 9.17067 137.774 8.98L137.95 10.938C136.616 11.1433 135.296 11.2827 133.99 11.356C132.7 11.4147 131.079 11.444 129.128 11.444H127.566V5.394H133.946V3.282H127.522V1.346H136.322ZM152.273 1.786V4.866C152.273 6.08333 152.471 7.264 152.867 8.408C153.263 9.552 153.835 10.5713 154.583 11.466C155.345 12.346 156.24 13.0133 157.267 13.468L155.859 15.426C154.744 14.9127 153.783 14.1647 152.977 13.182C152.17 12.1847 151.539 11.0333 151.085 9.728C150.63 11.136 149.985 12.3753 149.149 13.446C148.327 14.502 147.337 15.3013 146.179 15.844L144.727 13.842C145.768 13.3727 146.67 12.676 147.433 11.752C148.21 10.828 148.804 9.772 149.215 8.584C149.625 7.38133 149.831 6.142 149.831 4.866V1.786H152.273ZM161.073 0.157999V19.804H158.653V0.157999H161.073ZM170.709 15.536V12.324H165.187V5.9H176.341V3.436H165.143V1.522H178.739V7.814H167.563V10.388H179.179V12.324H173.107V15.536H180.807V17.494H163.075V15.536H170.709Z" fill="#777777"/>
</svg>
