<svg width="249" height="32" viewBox="0 0 249 32" fill="none" xmlns="http://www.w3.org/2000/svg">
<path d="M20.61 28.272H16.7L4.256 9.368V28.272H0.652V3.18H4.562L16.972 22.05V3.18H20.61V28.272ZM40.4304 6.342H27.8164V13.788H38.6624V16.916H27.8164V25.11H40.4304V28.272H24.2124V3.18H40.4304V6.342ZM59.9775 6.342H52.9055V28.272H49.2675V6.342H42.1615V3.18H59.9775V6.342ZM78.5343 6.342H66.2603V14.128H76.6643V17.256H66.2603V28.272H62.6563V3.18H78.5343V6.342ZM84.9138 25.11H96.2698V28.272H81.3098V3.18H84.9138V25.11ZM102.971 3.18V28.272H99.3673V3.18H102.971ZM118.545 15.692L127.113 28.272H122.625L116.301 18.786L109.977 28.272H105.489L114.057 15.692L105.489 3.18H109.977L116.301 12.632L122.625 3.214L127.113 3.18L118.545 15.692Z" fill="#FF008C"/>
<path d="M146.397 23.002V17.698H138.509V2.262H142.215V7.022H154.353V2.262H158.025V17.698H150.137V23.002H162.003V26.062H134.599V23.002H146.397ZM142.215 14.74H154.353V9.98H142.215V14.74ZM170.039 1.548V9.402H185.951V12.36H166.299V1.548H170.039ZM189.555 15.284V18.276H162.151V15.284H189.555ZM170.107 20.792V27.116H185.679V30.108H166.401V20.792H170.107ZM219.537 0.493999V7.736H223.719V10.83H219.537V18.14H215.797V0.493999H219.537ZM200.939 1.99V5.866H207.365V1.99H211.071V15.93H197.233V1.99H200.939ZM200.939 13.006H207.365V8.79H200.939V13.006ZM210.595 31.366C209.099 31.366 207.762 31.0827 206.583 30.516C205.427 29.972 204.52 29.2013 203.863 28.204C203.228 27.2067 202.911 26.0847 202.911 24.838C202.911 23.5687 203.228 22.4353 203.863 21.438C204.52 20.4407 205.427 19.67 206.583 19.126C207.762 18.5593 209.099 18.276 210.595 18.276C212.091 18.276 213.428 18.5593 214.607 19.126C215.786 19.67 216.704 20.4407 217.361 21.438C218.018 22.4353 218.347 23.5687 218.347 24.838C218.347 26.0847 218.018 27.2067 217.361 28.204C216.704 29.2013 215.786 29.972 214.607 30.516C213.428 31.0827 212.091 31.366 210.595 31.366ZM210.595 28.34C211.819 28.34 212.805 28.0227 213.553 27.388C214.301 26.7307 214.675 25.8807 214.675 24.838C214.675 23.7953 214.301 22.9567 213.553 22.322C212.805 21.6647 211.819 21.336 210.595 21.336C209.394 21.336 208.419 21.6647 207.671 22.322C206.923 22.9567 206.549 23.7953 206.549 24.838C206.549 25.8807 206.923 26.7307 207.671 27.388C208.419 28.0227 209.394 28.34 210.595 28.34ZM229.545 18.378H233.251V21.438H244.811V18.378H248.517V30.346H229.545V18.378ZM244.811 27.354V24.362H233.251V27.354H244.811ZM235.427 12.938V8.824H228.729V12.938H235.427ZM225.023 1.82H228.729V5.9H235.427V1.82H239.099V7.226H244.777V0.493999H248.551V17.256H244.777V10.286H239.099V15.93H225.023V1.82Z" fill="white"/>
</svg>
