<svg width="135" height="23" viewBox="0 0 135 23" fill="none" xmlns="http://www.w3.org/2000/svg">
<path d="M14.664 3.312V7.404H17.48V8.988H14.664V13.124H12.75V3.312H14.664ZM14.664 14.026V18.844H4.522V20.868H15.148V22.408H2.652V17.414H12.772V15.522H2.608V14.026H14.664ZM4.83 12.816C3.89133 12.816 3.05533 12.6253 2.322 12.244C1.60333 11.848 1.03867 11.3053 0.628 10.616C0.217333 9.912 0.0120001 9.12 0.0120001 8.24C0.0120001 7.34533 0.217333 6.55333 0.628 5.864C1.03867 5.16 1.60333 4.61733 2.322 4.236C3.05533 3.84 3.89133 3.642 4.83 3.642C5.76867 3.642 6.60467 3.84 7.338 4.236C8.07133 4.61733 8.64333 5.16 9.054 5.864C9.46467 6.55333 9.67 7.34533 9.67 8.24C9.67 9.12 9.46467 9.912 9.054 10.616C8.64333 11.3053 8.07133 11.848 7.338 12.244C6.60467 12.6253 5.76867 12.816 4.83 12.816ZM4.83 11.254C5.69533 11.254 6.39933 10.9753 6.942 10.418C7.49933 9.86067 7.778 9.13467 7.778 8.24C7.778 7.34533 7.49933 6.612 6.942 6.04C6.39933 5.468 5.69533 5.182 4.83 5.182C3.96467 5.182 3.25333 5.468 2.696 6.04C2.15333 6.612 1.882 7.34533 1.882 8.24C1.882 9.13467 2.15333 9.86067 2.696 10.418C3.25333 10.9753 3.96467 11.254 4.83 11.254ZM20.5719 15.412H32.3419V22.408H20.5719V15.412ZM30.4719 20.868V16.908H22.4199V20.868H30.4719ZM24.7079 7.976V5.798H18.3279V4.236H26.5779V9.494H20.2199V11.782H28.0299V13.366H18.3279V7.976H24.7079ZM30.4279 3.312H32.3419V8.196H35.1579V9.802H32.3419V14.092H30.4279V3.312ZM50.7677 3.268V22.034H48.8537V3.268H50.7677ZM40.4717 15.83C39.4744 15.83 38.5871 15.6027 37.8097 15.148C37.0324 14.6933 36.4237 14.0627 35.9837 13.256C35.5437 12.4493 35.3237 11.5327 35.3237 10.506C35.3237 9.46467 35.5437 8.54067 35.9837 7.734C36.4237 6.91267 37.0324 6.27467 37.8097 5.82C38.5871 5.36533 39.4744 5.138 40.4717 5.138C41.4544 5.138 42.3344 5.36533 43.1117 5.82C43.8891 6.27467 44.4904 6.91267 44.9157 7.734C45.3557 8.54067 45.5757 9.46467 45.5757 10.506C45.5757 11.5327 45.3557 12.4493 44.9157 13.256C44.4904 14.0627 43.8891 14.6933 43.1117 15.148C42.3344 15.6027 41.4544 15.83 40.4717 15.83ZM40.4717 14.158C41.4397 14.158 42.2244 13.8207 42.8257 13.146C43.4417 12.4713 43.7497 11.5913 43.7497 10.506C43.7497 9.42067 43.4417 8.53333 42.8257 7.844C42.2244 7.15467 41.4397 6.81 40.4717 6.81C39.4891 6.81 38.6897 7.15467 38.0737 7.844C37.4724 8.53333 37.1717 9.42067 37.1717 10.506C37.1717 11.5913 37.4724 12.4713 38.0737 13.146C38.6897 13.8207 39.4891 14.158 40.4717 14.158ZM65.2439 11.144C64.2319 11.144 63.3299 10.9827 62.5379 10.66C61.7459 10.3227 61.1299 9.86067 60.6899 9.274C60.2499 8.67267 60.0299 7.99067 60.0299 7.228C60.0299 6.45067 60.2499 5.76133 60.6899 5.16C61.1299 4.544 61.7459 4.06733 62.5379 3.73C63.3299 3.39267 64.2319 3.224 65.2439 3.224C66.2852 3.224 67.2092 3.39267 68.0159 3.73C68.8226 4.06733 69.4532 4.544 69.9079 5.16C70.3626 5.76133 70.5899 6.45067 70.5899 7.228C70.5899 7.99067 70.3626 8.67267 69.9079 9.274C69.4532 9.86067 68.8226 10.3227 68.0159 10.66C67.2092 10.9827 66.2852 11.144 65.2439 11.144ZM59.2159 18.118H69.3799V16.688H59.1499V15.236H64.3199V13.52H56.5539V11.98H74.0219V13.52H66.2339V15.236H71.2719V19.504H61.1079V20.978H71.8659V22.452H59.2159V18.118ZM65.2439 9.56C66.2852 9.56 67.1286 9.34733 67.7739 8.922C68.4192 8.482 68.7419 7.91733 68.7419 7.228C68.7419 6.524 68.4119 5.94467 67.7519 5.49C67.1066 5.03533 66.2706 4.808 65.2439 4.808C64.2466 4.808 63.4326 5.03533 62.8019 5.49C62.1712 5.94467 61.8559 6.524 61.8559 7.228C61.8559 7.91733 62.1712 8.482 62.8019 8.922C63.4326 9.34733 64.2466 9.56 65.2439 9.56ZM82.6798 9.78V6.436H75.5958V4.896H84.5498V11.342H77.5318V15.368H86.0018V16.93H75.6398V9.78H82.6798ZM88.2018 3.268H90.0938V22.034H88.2018V3.268ZM92.8996 4.632H101.81V6.282H105.902V3.312H107.816V16.424H105.902V11.98H101.81V13.498H92.8996V4.632ZM97.5196 15.962V20.692H107.882V22.232H95.6056V15.962H97.5196ZM99.9616 11.936V6.172H94.7476V11.936H99.9616ZM105.902 10.418V7.844H101.81V10.418H105.902ZM112.876 22.54H134.876V0.54H112.876V22.54Z" fill="#555555"/>
</svg>
