<svg width="61" height="32" viewBox="0 0 61 32" fill="none" xmlns="http://www.w3.org/2000/svg">
<path d="M30.5 31.75L26.6029 25L34.3971 25L30.5 31.75Z" fill="#ED0B86"/>
<rect width="61" height="27" rx="13.5" fill="#FF008C"/>
<rect width="61" height="27" rx="13.5" fill="url(#paint0_linear_1543_1300)"/>
<path d="M20.08 14.28V15.36H17.728V18.96H16.384V15.36H14.056V18.96H12.7V15.36H10.408V14.28H20.08ZM15.208 8.688C15.96 8.688 16.624 8.784 17.2 8.976C17.776 9.168 18.224 9.44 18.544 9.792C18.864 10.144 19.024 10.56 19.024 11.04C19.024 11.52 18.864 11.94 18.544 12.3C18.224 12.652 17.776 12.924 17.2 13.116C16.624 13.308 15.96 13.404 15.208 13.404C14.456 13.404 13.792 13.308 13.216 13.116C12.648 12.924 12.204 12.652 11.884 12.3C11.564 11.94 11.404 11.52 11.404 11.04C11.404 10.56 11.564 10.144 11.884 9.792C12.204 9.44 12.648 9.168 13.216 8.976C13.792 8.784 14.456 8.688 15.208 8.688ZM15.208 9.732C14.456 9.732 13.86 9.848 13.42 10.08C12.98 10.312 12.76 10.632 12.76 11.04C12.76 11.456 12.98 11.78 13.42 12.012C13.86 12.236 14.456 12.348 15.208 12.348C15.968 12.348 16.568 12.236 17.008 12.012C17.456 11.78 17.68 11.456 17.68 11.04C17.68 10.632 17.456 10.312 17.008 10.08C16.56 9.848 15.96 9.732 15.208 9.732ZM29.0563 8.604V9.588H27.6043V11.208H28.9963V12.204H21.2203V11.208H22.6123V9.588H21.1483V8.604H29.0563ZM29.9443 12.876V13.92H20.2963V12.876H29.9443ZM28.7443 14.64V17.184H22.7323V17.904H29.0443V18.876H21.4483V16.284H27.4483V15.6H21.4123V14.64H28.7443ZM26.2963 11.208V9.588H23.9323V11.208H26.2963ZM38.5486 8.28V11.148H40.0246V12.228H38.5486V15.336H37.2286V8.28H38.5486ZM35.3566 9.06V10.116H31.9126V12.972C32.9686 12.964 33.8086 12.94 34.4326 12.9C35.0646 12.852 35.6846 12.764 36.2926 12.636L36.4366 13.692C35.7646 13.836 35.0686 13.932 34.3486 13.98C33.6366 14.028 32.6766 14.052 31.4686 14.052H30.6046V9.06H35.3566ZM35.8726 14.784V15.108C35.8726 15.548 36.0086 15.96 36.2806 16.344C36.5606 16.728 36.9566 17.056 37.4686 17.328C37.9886 17.6 38.5966 17.788 39.2926 17.892L38.7886 18.924C37.9646 18.788 37.2446 18.536 36.6286 18.168C36.0126 17.8 35.5446 17.344 35.2246 16.8C34.8966 17.344 34.4246 17.8 33.8086 18.168C33.1926 18.536 32.4726 18.788 31.6486 18.924L31.1326 17.892C31.8366 17.788 32.4446 17.6 32.9566 17.328C33.4766 17.056 33.8726 16.728 34.1446 16.344C34.4246 15.96 34.5646 15.548 34.5646 15.108V14.784H35.8726ZM47.6208 11.016V8.28H48.9408V14.4H47.6208V12.084H45.5808V11.016H47.6208ZM45.6288 8.844C45.6288 10.3 45.2408 11.512 44.4648 12.48C43.6888 13.448 42.4648 14.184 40.7928 14.688L40.2768 13.644C41.7728 13.204 42.8448 12.58 43.4928 11.772L40.4448 12L40.2648 10.956L44.0328 10.8C44.1368 10.488 44.2048 10.184 44.2368 9.888H40.7928V8.844H45.6288ZM48.9408 14.916V18.84H41.9568V14.916H48.9408ZM43.2528 15.948V17.796H47.6448V15.948H43.2528Z" fill="white"/>
<defs>
<linearGradient id="paint0_linear_1543_1300" x1="-3.97404e-07" y1="1.575" x2="28.312" y2="31.9964" gradientUnits="userSpaceOnUse">
<stop stop-color="#ED2026"/>
<stop offset="1" stop-color="#EC098D"/>
</linearGradient>
</defs>
</svg>
