<svg width="61" height="27" viewBox="0 0 61 27" fill="none" xmlns="http://www.w3.org/2000/svg">
<rect width="61" height="27" rx="13.5" fill="#777777"/>
<path d="M25.044 12.9V13.872H20.88V14.652H23.856V17.172H17.844V17.904H24.156V18.876H16.56V16.272H22.56V15.612H16.524V14.652H19.56V13.872H15.42V12.9H25.044ZM20.892 8.256V9.156H24.108V10.128H21C21.136 10.52 21.516 10.848 22.14 11.112C22.764 11.368 23.588 11.516 24.612 11.556L24.24 12.552C23.272 12.488 22.444 12.332 21.756 12.084C21.076 11.828 20.568 11.488 20.232 11.064C19.896 11.488 19.384 11.828 18.696 12.084C18.008 12.332 17.18 12.488 16.212 12.552L15.84 11.556C16.864 11.516 17.688 11.368 18.312 11.112C18.936 10.848 19.316 10.52 19.452 10.128H16.356V9.156H19.56V8.256H20.892ZM33.9363 9.252V10.284C33.9363 11.196 33.9123 12.02 33.8643 12.756C33.8243 13.492 33.7163 14.352 33.5403 15.336L32.2083 15.192C32.3923 14.28 32.5043 13.464 32.5443 12.744C32.5923 12.016 32.6163 11.208 32.6163 10.32H26.2923V9.252H33.9363ZM28.8483 16.512V12.792H30.1563V16.512H34.9563V17.592H25.2963V16.512H28.8483ZM43.4886 8.268V12.456H45.0606V13.548H43.4886V18.96H42.1566V8.268H43.4886ZM40.6806 9.396C40.6806 12.884 39.0806 15.432 35.8806 17.04L35.1366 16.044C36.4246 15.38 37.4166 14.588 38.1126 13.668C38.8086 12.748 39.2206 11.68 39.3486 10.464H35.7006V9.396H40.6806Z" fill="white"/>
</svg>
