<svg width="61" height="32" viewBox="0 0 61 32" fill="none" xmlns="http://www.w3.org/2000/svg">
<path d="M30.5 31.75L26.6029 25L34.3971 25L30.5 31.75Z" fill="#777777"/>
<rect x="10" width="41" height="27" rx="13.5" fill="#777777"/>
<path d="M27.956 10.944V8.292H29.276V14.628H27.956V12.012H26.144V10.944H27.956ZM25.7 14.904C26.82 14.904 27.7 15.088 28.34 15.456C28.988 15.816 29.312 16.312 29.312 16.944C29.312 17.584 28.988 18.08 28.34 18.432C27.7 18.792 26.82 18.972 25.7 18.972C24.572 18.972 23.684 18.792 23.036 18.432C22.396 18.08 22.076 17.584 22.076 16.944C22.076 16.312 22.4 15.816 23.048 15.456C23.696 15.088 24.58 14.904 25.7 14.904ZM25.7 15.912C24.956 15.912 24.384 16 23.984 16.176C23.592 16.352 23.396 16.608 23.396 16.944C23.396 17.272 23.596 17.524 23.996 17.7C24.396 17.876 24.964 17.964 25.7 17.964C26.436 17.964 27.004 17.876 27.404 17.7C27.804 17.524 28.004 17.272 28.004 16.944C28.004 16.608 27.804 16.352 27.404 16.176C27.004 16 26.436 15.912 25.7 15.912ZM26.48 8.988V10.044H24.296V10.104C24.296 10.784 24.512 11.416 24.944 12C25.376 12.584 25.988 13.012 26.78 13.284L26.12 14.316C25.544 14.116 25.048 13.828 24.632 13.452C24.216 13.068 23.892 12.616 23.66 12.096C23.42 12.68 23.076 13.192 22.628 13.632C22.188 14.064 21.66 14.388 21.044 14.604L20.384 13.56C21.2 13.272 21.832 12.812 22.28 12.18C22.736 11.54 22.964 10.848 22.964 10.104V10.044H20.744V8.988H26.48ZM38.6003 8.268V12.456H40.1723V13.548H38.6003V18.96H37.2683V8.268H38.6003ZM35.7923 9.396C35.7923 12.884 34.1923 15.432 30.9923 17.04L30.2483 16.044C31.5363 15.38 32.5283 14.588 33.2243 13.668C33.9203 12.748 34.3323 11.68 34.4603 10.464H30.8123V9.396H35.7923Z" fill="white"/>
</svg>
