<svg width="61" height="27" viewBox="0 0 61 27" fill="none" xmlns="http://www.w3.org/2000/svg">
<rect width="61" height="27" rx="13.5" fill="#777777"/>
<path d="M21.42 9.336V10.428H19.2V11.316C19.2 11.868 19.304 12.432 19.512 13.008C19.728 13.576 20.036 14.096 20.436 14.568C20.844 15.032 21.316 15.388 21.852 15.636L21.12 16.68C20.536 16.4 20.024 15.996 19.584 15.468C19.152 14.932 18.812 14.324 18.564 13.644C18.316 14.388 17.968 15.052 17.52 15.636C17.072 16.212 16.548 16.648 15.948 16.944L15.192 15.9C15.728 15.636 16.2 15.26 16.608 14.772C17.024 14.276 17.34 13.728 17.556 13.128C17.78 12.52 17.892 11.916 17.892 11.316V10.428H15.588V9.336H21.42ZM23.712 8.292V12.456H25.332V13.548H23.712V18.972H22.38V8.292H23.712ZM27.7803 14.376V15.612H32.4603V14.376H33.7683V18.852H26.4843V14.376H27.7803ZM27.7803 17.796H32.4603V16.62H27.7803V17.796ZM33.7803 8.736V9.564C33.7803 10.124 33.7643 10.62 33.7323 11.052C33.7083 11.484 33.6403 11.976 33.5283 12.528H34.9683V13.596H25.2963V12.528H32.2323C32.3443 12.016 32.4163 11.552 32.4483 11.136C32.4803 10.712 32.4963 10.264 32.4963 9.792H26.5083V8.736H33.7803ZM44.2926 8.28V18.96H43.0446V8.28H44.2926ZM40.8966 12.012V8.484H42.1206V18.456H40.8966V13.08H39.3726V12.012H40.8966ZM40.1526 9.42V10.5H38.4606V11.196C38.4606 12.164 38.6366 13.052 38.9886 13.86C39.3406 14.668 39.8766 15.284 40.5966 15.708L39.8166 16.656C38.8886 16.096 38.2246 15.16 37.8246 13.848C37.6406 14.528 37.3766 15.132 37.0326 15.66C36.6886 16.188 36.2726 16.608 35.7846 16.92L34.9926 15.948C35.7206 15.492 36.2646 14.836 36.6246 13.98C36.9926 13.124 37.1766 12.196 37.1766 11.196V10.5H35.3406V9.42H40.1526Z" fill="white"/>
</svg>
