<svg width="249" height="31" viewBox="0 0 249 31" fill="none" xmlns="http://www.w3.org/2000/svg">
<mask id="path-1-outside-1_3781_6589" maskUnits="userSpaceOnUse" x="-1" y="-1" width="251" height="33" fill="black">
<rect fill="white" x="-1" y="-1" width="251" height="33"/>
<path d="M25.044 0.493999V15.692H21.304V9.708H16.034C15.7167 11.4533 14.8667 12.8587 13.484 13.924C12.1013 14.9893 10.4013 15.522 8.384 15.522C6.86533 15.522 5.50533 15.216 4.304 14.604C3.12533 13.9693 2.196 13.108 1.516 12.02C0.858667 10.9093 0.53 9.65133 0.53 8.246C0.53 6.84067 0.858667 5.58267 1.516 4.472C2.196 3.36133 3.12533 2.5 4.304 1.888C5.50533 1.276 6.86533 0.969999 8.384 0.969999C10.3787 0.969999 12.0673 1.50267 13.45 2.568C14.8327 3.61067 15.694 4.99333 16.034 6.716H21.304V0.493999H25.044ZM25.044 17.12V25.008H9.846V27.456H25.826V30.38H6.106V22.288H21.338V20.01H6.072V17.12H25.044ZM8.384 12.564C9.63067 12.564 10.628 12.1673 11.376 11.374C12.1467 10.5807 12.532 9.538 12.532 8.246C12.532 6.954 12.1467 5.91133 11.376 5.118C10.628 4.302 9.63067 3.894 8.384 3.894C7.13733 3.894 6.11733 4.302 5.324 5.118C4.55333 5.91133 4.168 6.954 4.168 8.246C4.168 9.538 4.55333 10.5807 5.324 11.374C6.09467 12.1673 7.11467 12.564 8.384 12.564ZM42.77 3.01V21.71H28.524V3.01H42.77ZM32.196 5.968V18.718H39.098V5.968H32.196ZM51.032 0.493999V12.156H55.622V15.25H51.032V29.734H47.292V0.493999H51.032ZM78.5839 0.425998V12.156H83.0039V15.25H78.5839V29.7H74.8439V0.425998H78.5839ZM71.9539 21.948H56.0419V2.942H59.7819V18.854H71.9539V21.948ZM100.508 16.1V12.598H92.7898V1.786H112.238V4.744H96.4958V9.572H112.238V12.598H104.282V16.1H116.08V19.092H88.7438V16.1H100.508ZM96.4618 21.166V27.184H112.374V30.176H92.7558V21.166H96.4618ZM141.218 0.425998V29.768H137.444V0.425998H141.218ZM124.966 20.35C123.379 20.35 121.951 19.9873 120.682 19.262C119.435 18.5367 118.46 17.528 117.758 16.236C117.055 14.9213 116.704 13.4367 116.704 11.782C116.704 10.1047 117.055 8.62 117.758 7.328C118.46 6.01333 119.435 4.99333 120.682 4.268C121.951 3.52 123.379 3.146 124.966 3.146C126.552 3.146 127.969 3.52 129.216 4.268C130.462 4.99333 131.437 6.01333 132.14 7.328C132.842 8.62 133.194 10.1047 133.194 11.782C133.194 13.4367 132.842 14.9213 132.14 16.236C131.437 17.528 130.462 18.5367 129.216 19.262C127.969 19.9873 126.552 20.35 124.966 20.35ZM124.966 17.154C126.348 17.154 127.459 16.6667 128.298 15.692C129.136 14.6947 129.556 13.3913 129.556 11.782C129.556 10.1727 129.136 8.86933 128.298 7.872C127.459 6.852 126.348 6.342 124.966 6.342C123.583 6.342 122.472 6.852 121.634 7.872C120.795 8.86933 120.376 10.1727 120.376 11.782C120.376 13.3913 120.795 14.6947 121.634 15.692C122.472 16.6667 123.583 17.154 124.966 17.154ZM167.12 3.044V6.036H156.036V13.006H167.12V16.032H161.918V20.86H169.602V23.852H150.528V20.86H158.178V16.032H152.262V3.044H167.12ZM174.94 0.425998V29.768H171.2V0.425998H174.94ZM201.064 0.425998V12.156H205.484V15.25H201.064V29.7H197.324V0.425998H201.064ZM194.434 21.948H178.522V2.942H182.262V18.854H194.434V21.948ZM212.228 23.342V16.508C211.366 15.7373 210.698 14.808 210.222 13.72C209.746 12.6093 209.508 11.408 209.508 10.116C209.508 8.43867 209.893 6.94267 210.664 5.628C211.457 4.29067 212.545 3.25933 213.928 2.534C215.333 1.786 216.92 1.412 218.688 1.412C220.478 1.412 222.076 1.786 223.482 2.534C224.91 3.25933 226.009 4.29067 226.78 5.628C227.573 6.94267 227.97 8.43867 227.97 10.116C227.97 11.408 227.732 12.598 227.256 13.686C226.802 14.774 226.145 15.7033 225.284 16.474V23.342H232.458V26.368H205.054V23.342H212.228ZM213.18 10.116C213.18 11.748 213.69 13.0967 214.71 14.162C215.73 15.2047 217.056 15.726 218.688 15.726C220.365 15.726 221.714 15.2047 222.734 14.162C223.776 13.1193 224.298 11.7707 224.298 10.116C224.298 8.46133 223.776 7.11267 222.734 6.07C221.714 5.02733 220.365 4.506 218.688 4.506C217.056 4.506 215.73 5.03867 214.71 6.104C213.69 7.14666 213.18 8.484 213.18 10.116ZM221.544 23.342V18.446C220.614 18.6953 219.662 18.82 218.688 18.82C217.668 18.82 216.75 18.7067 215.934 18.48V23.342H221.544ZM240.528 28.816C239.893 28.816 239.372 28.612 238.964 28.204C238.578 27.8187 238.386 27.3087 238.386 26.674C238.386 26.0393 238.578 25.5293 238.964 25.144C239.372 24.7587 239.893 24.566 240.528 24.566C241.162 24.566 241.672 24.7587 242.058 25.144C242.443 25.5293 242.636 26.0393 242.636 26.674C242.636 27.3087 242.443 27.8187 242.058 28.204C241.672 28.612 241.162 28.816 240.528 28.816ZM238.658 21.404C238.635 19.6587 238.896 18.208 239.44 17.052C240.006 15.8733 240.924 14.8193 242.194 13.89C243.44 12.9607 244.268 12.1673 244.676 11.51C245.106 10.83 245.322 10.082 245.322 9.266C245.322 8.13267 244.925 7.21467 244.132 6.512C243.338 5.80933 242.318 5.458 241.072 5.458C240.12 5.458 239.213 5.77533 238.352 6.41C237.513 7.022 236.901 7.82667 236.516 8.824L233.116 7.566C233.75 5.88867 234.804 4.51733 236.278 3.452C237.774 2.364 239.372 1.82 241.072 1.82C242.636 1.82 244.018 2.13733 245.22 2.772C246.421 3.384 247.35 4.25667 248.008 5.39C248.665 6.52333 248.994 7.81533 248.994 9.266C248.994 10.6033 248.631 11.8953 247.906 13.142C247.203 14.3887 246.024 15.624 244.37 16.848C243.78 17.2787 243.338 17.6753 243.044 18.038C242.772 18.4007 242.579 18.8313 242.466 19.33C242.352 19.8287 242.307 20.5087 242.33 21.37L238.658 21.404Z"/>
</mask>
<path d="M25.044 0.493999V15.692H21.304V9.708H16.034C15.7167 11.4533 14.8667 12.8587 13.484 13.924C12.1013 14.9893 10.4013 15.522 8.384 15.522C6.86533 15.522 5.50533 15.216 4.304 14.604C3.12533 13.9693 2.196 13.108 1.516 12.02C0.858667 10.9093 0.53 9.65133 0.53 8.246C0.53 6.84067 0.858667 5.58267 1.516 4.472C2.196 3.36133 3.12533 2.5 4.304 1.888C5.50533 1.276 6.86533 0.969999 8.384 0.969999C10.3787 0.969999 12.0673 1.50267 13.45 2.568C14.8327 3.61067 15.694 4.99333 16.034 6.716H21.304V0.493999H25.044ZM25.044 17.12V25.008H9.846V27.456H25.826V30.38H6.106V22.288H21.338V20.01H6.072V17.12H25.044ZM8.384 12.564C9.63067 12.564 10.628 12.1673 11.376 11.374C12.1467 10.5807 12.532 9.538 12.532 8.246C12.532 6.954 12.1467 5.91133 11.376 5.118C10.628 4.302 9.63067 3.894 8.384 3.894C7.13733 3.894 6.11733 4.302 5.324 5.118C4.55333 5.91133 4.168 6.954 4.168 8.246C4.168 9.538 4.55333 10.5807 5.324 11.374C6.09467 12.1673 7.11467 12.564 8.384 12.564ZM42.77 3.01V21.71H28.524V3.01H42.77ZM32.196 5.968V18.718H39.098V5.968H32.196ZM51.032 0.493999V12.156H55.622V15.25H51.032V29.734H47.292V0.493999H51.032ZM78.5839 0.425998V12.156H83.0039V15.25H78.5839V29.7H74.8439V0.425998H78.5839ZM71.9539 21.948H56.0419V2.942H59.7819V18.854H71.9539V21.948ZM100.508 16.1V12.598H92.7898V1.786H112.238V4.744H96.4958V9.572H112.238V12.598H104.282V16.1H116.08V19.092H88.7438V16.1H100.508ZM96.4618 21.166V27.184H112.374V30.176H92.7558V21.166H96.4618ZM141.218 0.425998V29.768H137.444V0.425998H141.218ZM124.966 20.35C123.379 20.35 121.951 19.9873 120.682 19.262C119.435 18.5367 118.46 17.528 117.758 16.236C117.055 14.9213 116.704 13.4367 116.704 11.782C116.704 10.1047 117.055 8.62 117.758 7.328C118.46 6.01333 119.435 4.99333 120.682 4.268C121.951 3.52 123.379 3.146 124.966 3.146C126.552 3.146 127.969 3.52 129.216 4.268C130.462 4.99333 131.437 6.01333 132.14 7.328C132.842 8.62 133.194 10.1047 133.194 11.782C133.194 13.4367 132.842 14.9213 132.14 16.236C131.437 17.528 130.462 18.5367 129.216 19.262C127.969 19.9873 126.552 20.35 124.966 20.35ZM124.966 17.154C126.348 17.154 127.459 16.6667 128.298 15.692C129.136 14.6947 129.556 13.3913 129.556 11.782C129.556 10.1727 129.136 8.86933 128.298 7.872C127.459 6.852 126.348 6.342 124.966 6.342C123.583 6.342 122.472 6.852 121.634 7.872C120.795 8.86933 120.376 10.1727 120.376 11.782C120.376 13.3913 120.795 14.6947 121.634 15.692C122.472 16.6667 123.583 17.154 124.966 17.154ZM167.12 3.044V6.036H156.036V13.006H167.12V16.032H161.918V20.86H169.602V23.852H150.528V20.86H158.178V16.032H152.262V3.044H167.12ZM174.94 0.425998V29.768H171.2V0.425998H174.94ZM201.064 0.425998V12.156H205.484V15.25H201.064V29.7H197.324V0.425998H201.064ZM194.434 21.948H178.522V2.942H182.262V18.854H194.434V21.948ZM212.228 23.342V16.508C211.366 15.7373 210.698 14.808 210.222 13.72C209.746 12.6093 209.508 11.408 209.508 10.116C209.508 8.43867 209.893 6.94267 210.664 5.628C211.457 4.29067 212.545 3.25933 213.928 2.534C215.333 1.786 216.92 1.412 218.688 1.412C220.478 1.412 222.076 1.786 223.482 2.534C224.91 3.25933 226.009 4.29067 226.78 5.628C227.573 6.94267 227.97 8.43867 227.97 10.116C227.97 11.408 227.732 12.598 227.256 13.686C226.802 14.774 226.145 15.7033 225.284 16.474V23.342H232.458V26.368H205.054V23.342H212.228ZM213.18 10.116C213.18 11.748 213.69 13.0967 214.71 14.162C215.73 15.2047 217.056 15.726 218.688 15.726C220.365 15.726 221.714 15.2047 222.734 14.162C223.776 13.1193 224.298 11.7707 224.298 10.116C224.298 8.46133 223.776 7.11267 222.734 6.07C221.714 5.02733 220.365 4.506 218.688 4.506C217.056 4.506 215.73 5.03867 214.71 6.104C213.69 7.14666 213.18 8.484 213.18 10.116ZM221.544 23.342V18.446C220.614 18.6953 219.662 18.82 218.688 18.82C217.668 18.82 216.75 18.7067 215.934 18.48V23.342H221.544ZM240.528 28.816C239.893 28.816 239.372 28.612 238.964 28.204C238.578 27.8187 238.386 27.3087 238.386 26.674C238.386 26.0393 238.578 25.5293 238.964 25.144C239.372 24.7587 239.893 24.566 240.528 24.566C241.162 24.566 241.672 24.7587 242.058 25.144C242.443 25.5293 242.636 26.0393 242.636 26.674C242.636 27.3087 242.443 27.8187 242.058 28.204C241.672 28.612 241.162 28.816 240.528 28.816ZM238.658 21.404C238.635 19.6587 238.896 18.208 239.44 17.052C240.006 15.8733 240.924 14.8193 242.194 13.89C243.44 12.9607 244.268 12.1673 244.676 11.51C245.106 10.83 245.322 10.082 245.322 9.266C245.322 8.13267 244.925 7.21467 244.132 6.512C243.338 5.80933 242.318 5.458 241.072 5.458C240.12 5.458 239.213 5.77533 238.352 6.41C237.513 7.022 236.901 7.82667 236.516 8.824L233.116 7.566C233.75 5.88867 234.804 4.51733 236.278 3.452C237.774 2.364 239.372 1.82 241.072 1.82C242.636 1.82 244.018 2.13733 245.22 2.772C246.421 3.384 247.35 4.25667 248.008 5.39C248.665 6.52333 248.994 7.81533 248.994 9.266C248.994 10.6033 248.631 11.8953 247.906 13.142C247.203 14.3887 246.024 15.624 244.37 16.848C243.78 17.2787 243.338 17.6753 243.044 18.038C242.772 18.4007 242.579 18.8313 242.466 19.33C242.352 19.8287 242.307 20.5087 242.33 21.37L238.658 21.404Z" fill="#2F2F2F"/>
<path d="M25.044 0.493999H26.044V-0.506001H25.044V0.493999ZM25.044 15.692V16.692H26.044V15.692H25.044ZM21.304 15.692H20.304V16.692H21.304V15.692ZM21.304 9.708H22.304V8.708H21.304V9.708ZM16.034 9.708V8.708H15.1994L15.0501 9.52911L16.034 9.708ZM13.484 13.924L12.8737 13.1319V13.1319L13.484 13.924ZM4.304 14.604L3.8299 15.4845L3.83993 15.4899L3.85007 15.495L4.304 14.604ZM1.516 12.02L0.655423 12.5293L0.661587 12.5397L0.668002 12.55L1.516 12.02ZM1.516 4.472L0.663149 3.94985L0.659238 3.95623L0.655423 3.96268L1.516 4.472ZM4.304 1.888L3.85006 0.996933L3.84319 1.0005L4.304 1.888ZM13.45 2.568L12.8396 3.36018L12.8479 3.36643L13.45 2.568ZM16.034 6.716L15.0529 6.90963L15.2121 7.716H16.034V6.716ZM21.304 6.716V7.716H22.304V6.716H21.304ZM21.304 0.493999V-0.506001H20.304V0.493999H21.304ZM25.044 17.12H26.044V16.12H25.044V17.12ZM25.044 25.008V26.008H26.044V25.008H25.044ZM9.846 25.008V24.008H8.846V25.008H9.846ZM9.846 27.456H8.846V28.456H9.846V27.456ZM25.826 27.456H26.826V26.456H25.826V27.456ZM25.826 30.38V31.38H26.826V30.38H25.826ZM6.106 30.38H5.106V31.38H6.106V30.38ZM6.106 22.288V21.288H5.106V22.288H6.106ZM21.338 22.288V23.288H22.338V22.288H21.338ZM21.338 20.01H22.338V19.01H21.338V20.01ZM6.072 20.01H5.072V21.01H6.072V20.01ZM6.072 17.12V16.12H5.072V17.12H6.072ZM11.376 11.374L10.6587 10.6772L10.6535 10.6826L10.6484 10.688L11.376 11.374ZM11.376 5.118L10.6388 5.79372L10.6486 5.8044L10.6587 5.81478L11.376 5.118ZM5.324 5.118L4.60701 4.42092L4.60672 4.42121L5.324 5.118ZM5.324 11.374L4.60672 12.0708H4.60672L5.324 11.374ZM24.044 0.493999V15.692H26.044V0.493999H24.044ZM25.044 14.692H21.304V16.692H25.044V14.692ZM22.304 15.692V9.708H20.304V15.692H22.304ZM21.304 8.708H16.034V10.708H21.304V8.708ZM15.0501 9.52911C14.7763 11.0352 14.0567 12.2204 12.8737 13.1319L14.0943 14.7161C15.6767 13.497 16.657 11.8714 17.0179 9.88688L15.0501 9.52911ZM12.8737 13.1319C11.6924 14.042 10.2164 14.522 8.384 14.522V16.522C10.5863 16.522 12.5103 15.9366 14.0943 14.7161L12.8737 13.1319ZM8.384 14.522C7.00297 14.522 5.80175 14.2447 4.75793 13.713L3.85007 15.495C5.20892 16.1873 6.72769 16.522 8.384 16.522V14.522ZM4.7781 13.7235C3.74549 13.1675 2.94785 12.4242 2.364 11.49L0.668002 12.55C1.44415 13.7918 2.50518 14.7712 3.8299 15.4845L4.7781 13.7235ZM2.37658 11.5107C1.81854 10.5678 1.53 9.48858 1.53 8.246H-0.47C-0.47 9.81409 -0.101207 11.2509 0.655423 12.5293L2.37658 11.5107ZM1.53 8.246C1.53 7.00342 1.81854 5.92421 2.37658 4.98132L0.655423 3.96268C-0.101207 5.24112 -0.47 6.67791 -0.47 8.246H1.53ZM2.36885 4.99415C2.95188 4.04187 3.74427 3.3054 4.76481 2.7755L3.84319 1.0005C2.5064 1.6946 1.44012 2.6808 0.663149 3.94985L2.36885 4.99415ZM4.75793 2.77904C5.80175 2.24728 7.00297 1.97 8.384 1.97V-0.0300007C6.72769 -0.0300007 5.20892 0.30472 3.85007 0.99696L4.75793 2.77904ZM8.384 1.97C10.1909 1.97 11.6564 2.44843 12.8397 3.36014L14.0603 1.77586C12.4783 0.556901 10.5665 -0.0300007 8.384 -0.0300007V1.97ZM12.8479 3.36643C14.0312 4.25871 14.7598 5.4246 15.0529 6.90963L17.0151 6.52237C16.6282 4.56207 15.6342 2.96262 14.0521 1.76957L12.8479 3.36643ZM16.034 7.716H21.304V5.716H16.034V7.716ZM22.304 6.716V0.493999H20.304V6.716H22.304ZM21.304 1.494H25.044V-0.506001H21.304V1.494ZM24.044 17.12V25.008H26.044V17.12H24.044ZM25.044 24.008H9.846V26.008H25.044V24.008ZM8.846 25.008V27.456H10.846V25.008H8.846ZM9.846 28.456H25.826V26.456H9.846V28.456ZM24.826 27.456V30.38H26.826V27.456H24.826ZM25.826 29.38H6.106V31.38H25.826V29.38ZM7.106 30.38V22.288H5.106V30.38H7.106ZM6.106 23.288H21.338V21.288H6.106V23.288ZM22.338 22.288V20.01H20.338V22.288H22.338ZM21.338 19.01H6.072V21.01H21.338V19.01ZM7.072 20.01V17.12H5.072V20.01H7.072ZM6.072 18.12H25.044V16.12H6.072V18.12ZM8.384 13.564C9.86279 13.564 11.1389 13.0832 12.1036 12.06L10.6484 10.688C10.1171 11.2515 9.39855 11.564 8.384 11.564V13.564ZM12.0933 12.0708C13.0756 11.0596 13.532 9.75119 13.532 8.246H11.532C11.532 9.32481 11.2178 10.1017 10.6587 10.6772L12.0933 12.0708ZM13.532 8.246C13.532 6.74081 13.0756 5.43238 12.0933 4.42121L10.6587 5.81478C11.2178 6.39028 11.532 7.16719 11.532 8.246H13.532ZM12.1132 4.44227C11.1508 3.39245 9.87182 2.894 8.384 2.894V4.894C9.38951 4.894 10.1052 5.21155 10.6388 5.79372L12.1132 4.44227ZM8.384 2.894C6.89571 2.894 5.60758 3.39175 4.60701 4.42092L6.041 5.81508C6.62708 5.21224 7.37896 4.894 8.384 4.894V2.894ZM4.60672 4.42121C3.62444 5.43238 3.168 6.74081 3.168 8.246H5.168C5.168 7.16719 5.48223 6.39028 6.04128 5.81478L4.60672 4.42121ZM3.168 8.246C3.168 9.75119 3.62444 11.0596 4.60672 12.0708L6.04128 10.6772C5.48223 10.1017 5.168 9.32481 5.168 8.246H3.168ZM4.60672 12.0708C5.59398 13.0871 6.88792 13.564 8.384 13.564V11.564C7.34141 11.564 6.59535 11.2476 6.04128 10.6772L4.60672 12.0708ZM42.77 3.01H43.77V2.01H42.77V3.01ZM42.77 21.71V22.71H43.77V21.71H42.77ZM28.524 21.71H27.524V22.71H28.524V21.71ZM28.524 3.01V2.01H27.524V3.01H28.524ZM32.196 5.968V4.968H31.196V5.968H32.196ZM32.196 18.718H31.196V19.718H32.196V18.718ZM39.098 18.718V19.718H40.098V18.718H39.098ZM39.098 5.968H40.098V4.968H39.098V5.968ZM51.032 0.493999H52.032V-0.506001H51.032V0.493999ZM51.032 12.156H50.032V13.156H51.032V12.156ZM55.622 12.156H56.622V11.156H55.622V12.156ZM55.622 15.25V16.25H56.622V15.25H55.622ZM51.032 15.25V14.25H50.032V15.25H51.032ZM51.032 29.734V30.734H52.032V29.734H51.032ZM47.292 29.734H46.292V30.734H47.292V29.734ZM47.292 0.493999V-0.506001H46.292V0.493999H47.292ZM41.77 3.01V21.71H43.77V3.01H41.77ZM42.77 20.71H28.524V22.71H42.77V20.71ZM29.524 21.71V3.01H27.524V21.71H29.524ZM28.524 4.01H42.77V2.01H28.524V4.01ZM31.196 5.968V18.718H33.196V5.968H31.196ZM32.196 19.718H39.098V17.718H32.196V19.718ZM40.098 18.718V5.968H38.098V18.718H40.098ZM39.098 4.968H32.196V6.968H39.098V4.968ZM50.032 0.493999V12.156H52.032V0.493999H50.032ZM51.032 13.156H55.622V11.156H51.032V13.156ZM54.622 12.156V15.25H56.622V12.156H54.622ZM55.622 14.25H51.032V16.25H55.622V14.25ZM50.032 15.25V29.734H52.032V15.25H50.032ZM51.032 28.734H47.292V30.734H51.032V28.734ZM48.292 29.734V0.493999H46.292V29.734H48.292ZM47.292 1.494H51.032V-0.506001H47.292V1.494ZM78.5839 0.425998H79.5839V-0.574002H78.5839V0.425998ZM78.5839 12.156H77.5839V13.156H78.5839V12.156ZM83.0039 12.156H84.0039V11.156H83.0039V12.156ZM83.0039 15.25V16.25H84.0039V15.25H83.0039ZM78.5839 15.25V14.25H77.5839V15.25H78.5839ZM78.5839 29.7V30.7H79.5839V29.7H78.5839ZM74.8439 29.7H73.8439V30.7H74.8439V29.7ZM74.8439 0.425998V-0.574002H73.8439V0.425998H74.8439ZM71.9539 21.948V22.948H72.9539V21.948H71.9539ZM56.0419 21.948H55.0419V22.948H56.0419V21.948ZM56.0419 2.942V1.942H55.0419V2.942H56.0419ZM59.7819 2.942H60.7819V1.942H59.7819V2.942ZM59.7819 18.854H58.7819V19.854H59.7819V18.854ZM71.9539 18.854H72.9539V17.854H71.9539V18.854ZM77.5839 0.425998V12.156H79.5839V0.425998H77.5839ZM78.5839 13.156H83.0039V11.156H78.5839V13.156ZM82.0039 12.156V15.25H84.0039V12.156H82.0039ZM83.0039 14.25H78.5839V16.25H83.0039V14.25ZM77.5839 15.25V29.7H79.5839V15.25H77.5839ZM78.5839 28.7H74.8439V30.7H78.5839V28.7ZM75.8439 29.7V0.425998H73.8439V29.7H75.8439ZM74.8439 1.426H78.5839V-0.574002H74.8439V1.426ZM71.9539 20.948H56.0419V22.948H71.9539V20.948ZM57.0419 21.948V2.942H55.0419V21.948H57.0419ZM56.0419 3.942H59.7819V1.942H56.0419V3.942ZM58.7819 2.942V18.854H60.7819V2.942H58.7819ZM59.7819 19.854H71.9539V17.854H59.7819V19.854ZM70.9539 18.854V21.948H72.9539V18.854H70.9539ZM100.508 16.1V17.1H101.508V16.1H100.508ZM100.508 12.598H101.508V11.598H100.508V12.598ZM92.7898 12.598H91.7898V13.598H92.7898V12.598ZM92.7898 1.786V0.785999H91.7898V1.786H92.7898ZM112.238 1.786H113.238V0.785999H112.238V1.786ZM112.238 4.744V5.744H113.238V4.744H112.238ZM96.4958 4.744V3.744H95.4958V4.744H96.4958ZM96.4958 9.572H95.4958V10.572H96.4958V9.572ZM112.238 9.572H113.238V8.572H112.238V9.572ZM112.238 12.598V13.598H113.238V12.598H112.238ZM104.282 12.598V11.598H103.282V12.598H104.282ZM104.282 16.1H103.282V17.1H104.282V16.1ZM116.08 16.1H117.08V15.1H116.08V16.1ZM116.08 19.092V20.092H117.08V19.092H116.08ZM88.7438 19.092H87.7438V20.092H88.7438V19.092ZM88.7438 16.1V15.1H87.7438V16.1H88.7438ZM96.4618 21.166H97.4618V20.166H96.4618V21.166ZM96.4618 27.184H95.4618V28.184H96.4618V27.184ZM112.374 27.184H113.374V26.184H112.374V27.184ZM112.374 30.176V31.176H113.374V30.176H112.374ZM92.7558 30.176H91.7558V31.176H92.7558V30.176ZM92.7558 21.166V20.166H91.7558V21.166H92.7558ZM101.508 16.1V12.598H99.5078V16.1H101.508ZM100.508 11.598H92.7898V13.598H100.508V11.598ZM93.7898 12.598V1.786H91.7898V12.598H93.7898ZM92.7898 2.786H112.238V0.785999H92.7898V2.786ZM111.238 1.786V4.744H113.238V1.786H111.238ZM112.238 3.744H96.4958V5.744H112.238V3.744ZM95.4958 4.744V9.572H97.4958V4.744H95.4958ZM96.4958 10.572H112.238V8.572H96.4958V10.572ZM111.238 9.572V12.598H113.238V9.572H111.238ZM112.238 11.598H104.282V13.598H112.238V11.598ZM103.282 12.598V16.1H105.282V12.598H103.282ZM104.282 17.1H116.08V15.1H104.282V17.1ZM115.08 16.1V19.092H117.08V16.1H115.08ZM116.08 18.092H88.7438V20.092H116.08V18.092ZM89.7438 19.092V16.1H87.7438V19.092H89.7438ZM88.7438 17.1H100.508V15.1H88.7438V17.1ZM95.4618 21.166V27.184H97.4618V21.166H95.4618ZM96.4618 28.184H112.374V26.184H96.4618V28.184ZM111.374 27.184V30.176H113.374V27.184H111.374ZM112.374 29.176H92.7558V31.176H112.374V29.176ZM93.7558 30.176V21.166H91.7558V30.176H93.7558ZM92.7558 22.166H96.4618V20.166H92.7558V22.166ZM141.218 0.425998H142.218V-0.574002H141.218V0.425998ZM141.218 29.768V30.768H142.218V29.768H141.218ZM137.444 29.768H136.444V30.768H137.444V29.768ZM137.444 0.425998V-0.574002H136.444V0.425998H137.444ZM120.682 19.262L120.179 20.1264L120.186 20.1302L120.682 19.262ZM117.758 16.236L116.876 16.7074L116.879 16.7138L117.758 16.236ZM117.758 7.328L118.636 7.80578L118.64 7.79938L117.758 7.328ZM120.682 4.268L121.185 5.13236L121.189 5.12954L120.682 4.268ZM129.216 4.268L128.701 5.12557L128.713 5.13235L129.216 4.268ZM132.14 7.328L131.258 7.79939L131.261 7.80577L132.14 7.328ZM132.14 16.236L133.018 16.7138L133.022 16.7074L132.14 16.236ZM129.216 19.262L129.719 20.1263L129.216 19.262ZM128.298 15.692L129.056 16.3443L129.063 16.3356L128.298 15.692ZM128.298 7.872L127.525 8.50714L127.532 8.5156L128.298 7.872ZM121.634 7.872L122.399 8.51564L122.406 8.5071L121.634 7.872ZM121.634 15.692L120.868 16.3356L120.876 16.3442L121.634 15.692ZM140.218 0.425998V29.768H142.218V0.425998H140.218ZM141.218 28.768H137.444V30.768H141.218V28.768ZM138.444 29.768V0.425998H136.444V29.768H138.444ZM137.444 1.426H141.218V-0.574002H137.444V1.426ZM124.966 19.35C123.538 19.35 122.283 19.0255 121.178 18.3938L120.186 20.1302C121.619 20.9492 123.22 21.35 124.966 21.35V19.35ZM121.185 18.3977C120.099 17.7663 119.253 16.8928 118.636 15.7582L116.879 16.7138C117.668 18.1632 118.771 19.3071 120.179 20.1263L121.185 18.3977ZM118.64 15.7646C118.023 14.6104 117.704 13.2906 117.704 11.782H115.704C115.704 13.5827 116.087 15.2323 116.876 16.7074L118.64 15.7646ZM117.704 11.782C117.704 10.2479 118.024 8.93164 118.636 7.80577L116.879 6.85023C116.086 8.30836 115.704 9.96148 115.704 11.782H117.704ZM118.64 7.79938C119.258 6.64256 120.104 5.76115 121.185 5.13235L120.179 3.40365C118.766 4.22551 117.663 5.38411 116.876 6.85662L118.64 7.79938ZM121.189 5.12954C122.293 4.47915 123.543 4.146 124.966 4.146V2.146C123.215 2.146 121.609 2.56085 120.174 3.40646L121.189 5.12954ZM124.966 4.146C126.388 4.146 127.624 4.47917 128.701 5.12549L129.73 3.41051C128.314 2.56083 126.717 2.146 124.966 2.146V4.146ZM128.713 5.13235C129.794 5.76115 130.64 6.64256 131.258 7.79938L133.022 6.85662C132.235 5.38411 131.131 4.22551 129.719 3.40365L128.713 5.13235ZM131.261 7.80577C131.874 8.93164 132.194 10.2479 132.194 11.782H134.194C134.194 9.96148 133.811 8.30836 133.018 6.85023L131.261 7.80577ZM132.194 11.782C132.194 13.2906 131.875 14.6104 131.258 15.7646L133.022 16.7074C133.81 15.2323 134.194 13.5827 134.194 11.782H132.194ZM131.261 15.7582C130.644 16.8928 129.798 17.7663 128.713 18.3977L129.719 20.1263C131.127 19.3071 132.23 18.1632 133.018 16.7138L131.261 15.7582ZM128.713 18.3977C127.634 19.0254 126.394 19.35 124.966 19.35V21.35C126.711 21.35 128.304 20.9492 129.719 20.1263L128.713 18.3977ZM124.966 18.154C126.615 18.154 128.011 17.5579 129.056 16.3442L127.54 15.0398C126.907 15.7755 126.082 16.154 124.966 16.154V18.154ZM129.063 16.3356C130.086 15.1186 130.556 13.5696 130.556 11.782H128.556C128.556 13.2131 128.186 14.2707 127.532 15.0484L129.063 16.3356ZM130.556 11.782C130.556 9.99442 130.086 8.44537 129.063 7.2284L127.532 8.5156C128.186 9.29329 128.556 10.3509 128.556 11.782H130.556ZM129.07 7.23689C128.032 5.97364 126.631 5.342 124.966 5.342V7.342C126.066 7.342 126.887 7.73036 127.525 8.5071L129.07 7.23689ZM124.966 5.342C123.3 5.342 121.9 5.97364 120.861 7.23689L122.406 8.5071C123.045 7.73036 123.866 7.342 124.966 7.342V5.342ZM120.868 7.2284C119.845 8.44537 119.376 9.99442 119.376 11.782H121.376C121.376 10.3509 121.745 9.29329 122.399 8.5156L120.868 7.2284ZM119.376 11.782C119.376 13.5696 119.845 15.1186 120.868 16.3356L122.399 15.0484C121.745 14.2707 121.376 13.2131 121.376 11.782H119.376ZM120.876 16.3442C121.92 17.5579 123.317 18.154 124.966 18.154V16.154C123.849 16.154 123.025 15.7755 122.392 15.0398L120.876 16.3442ZM167.12 3.044H168.12V2.044H167.12V3.044ZM167.12 6.036V7.036H168.12V6.036H167.12ZM156.036 6.036V5.036H155.036V6.036H156.036ZM156.036 13.006H155.036V14.006H156.036V13.006ZM167.12 13.006H168.12V12.006H167.12V13.006ZM167.12 16.032V17.032H168.12V16.032H167.12ZM161.918 16.032V15.032H160.918V16.032H161.918ZM161.918 20.86H160.918V21.86H161.918V20.86ZM169.602 20.86H170.602V19.86H169.602V20.86ZM169.602 23.852V24.852H170.602V23.852H169.602ZM150.528 23.852H149.528V24.852H150.528V23.852ZM150.528 20.86V19.86H149.528V20.86H150.528ZM158.178 20.86V21.86H159.178V20.86H158.178ZM158.178 16.032H159.178V15.032H158.178V16.032ZM152.262 16.032H151.262V17.032H152.262V16.032ZM152.262 3.044V2.044H151.262V3.044H152.262ZM174.94 0.425998H175.94V-0.574002H174.94V0.425998ZM174.94 29.768V30.768H175.94V29.768H174.94ZM171.2 29.768H170.2V30.768H171.2V29.768ZM171.2 0.425998V-0.574002H170.2V0.425998H171.2ZM166.12 3.044V6.036H168.12V3.044H166.12ZM167.12 5.036H156.036V7.036H167.12V5.036ZM155.036 6.036V13.006H157.036V6.036H155.036ZM156.036 14.006H167.12V12.006H156.036V14.006ZM166.12 13.006V16.032H168.12V13.006H166.12ZM167.12 15.032H161.918V17.032H167.12V15.032ZM160.918 16.032V20.86H162.918V16.032H160.918ZM161.918 21.86H169.602V19.86H161.918V21.86ZM168.602 20.86V23.852H170.602V20.86H168.602ZM169.602 22.852H150.528V24.852H169.602V22.852ZM151.528 23.852V20.86H149.528V23.852H151.528ZM150.528 21.86H158.178V19.86H150.528V21.86ZM159.178 20.86V16.032H157.178V20.86H159.178ZM158.178 15.032H152.262V17.032H158.178V15.032ZM153.262 16.032V3.044H151.262V16.032H153.262ZM152.262 4.044H167.12V2.044H152.262V4.044ZM173.94 0.425998V29.768H175.94V0.425998H173.94ZM174.94 28.768H171.2V30.768H174.94V28.768ZM172.2 29.768V0.425998H170.2V29.768H172.2ZM171.2 1.426H174.94V-0.574002H171.2V1.426ZM201.064 0.425998H202.064V-0.574002H201.064V0.425998ZM201.064 12.156H200.064V13.156H201.064V12.156ZM205.484 12.156H206.484V11.156H205.484V12.156ZM205.484 15.25V16.25H206.484V15.25H205.484ZM201.064 15.25V14.25H200.064V15.25H201.064ZM201.064 29.7V30.7H202.064V29.7H201.064ZM197.324 29.7H196.324V30.7H197.324V29.7ZM197.324 0.425998V-0.574002H196.324V0.425998H197.324ZM194.434 21.948V22.948H195.434V21.948H194.434ZM178.522 21.948H177.522V22.948H178.522V21.948ZM178.522 2.942V1.942H177.522V2.942H178.522ZM182.262 2.942H183.262V1.942H182.262V2.942ZM182.262 18.854H181.262V19.854H182.262V18.854ZM194.434 18.854H195.434V17.854H194.434V18.854ZM200.064 0.425998V12.156H202.064V0.425998H200.064ZM201.064 13.156H205.484V11.156H201.064V13.156ZM204.484 12.156V15.25H206.484V12.156H204.484ZM205.484 14.25H201.064V16.25H205.484V14.25ZM200.064 15.25V29.7H202.064V15.25H200.064ZM201.064 28.7H197.324V30.7H201.064V28.7ZM198.324 29.7V0.425998H196.324V29.7H198.324ZM197.324 1.426H201.064V-0.574002H197.324V1.426ZM194.434 20.948H178.522V22.948H194.434V20.948ZM179.522 21.948V2.942H177.522V21.948H179.522ZM178.522 3.942H182.262V1.942H178.522V3.942ZM181.262 2.942V18.854H183.262V2.942H181.262ZM182.262 19.854H194.434V17.854H182.262V19.854ZM193.434 18.854V21.948H195.434V18.854H193.434ZM212.228 23.342V24.342H213.228V23.342H212.228ZM212.228 16.508H213.228V16.0609L212.894 15.7628L212.228 16.508ZM210.222 13.72L209.302 14.1139L209.305 14.1208L210.222 13.72ZM210.664 5.628L209.803 5.11779L209.801 5.12228L210.664 5.628ZM213.928 2.534L214.392 3.41956L214.397 3.41675L213.928 2.534ZM223.482 2.534L223.012 3.41675L223.02 3.42124L223.029 3.42558L223.482 2.534ZM226.78 5.628L225.913 6.1273L225.918 6.13603L225.923 6.14466L226.78 5.628ZM227.256 13.686L226.339 13.2852L226.336 13.2933L226.332 13.3014L227.256 13.686ZM225.284 16.474L224.617 15.7288L224.284 16.0269V16.474H225.284ZM225.284 23.342H224.284V24.342H225.284V23.342ZM232.458 23.342H233.458V22.342H232.458V23.342ZM232.458 26.368V27.368H233.458V26.368H232.458ZM205.054 26.368H204.054V27.368H205.054V26.368ZM205.054 23.342V22.342H204.054V23.342H205.054ZM214.71 14.162L213.987 14.8536L213.995 14.8613L214.71 14.162ZM222.734 14.162L222.026 13.4549L222.019 13.4627L222.734 14.162ZM222.734 6.07L222.019 6.76933L222.026 6.77711L222.734 6.07ZM214.71 6.104L215.424 6.80333L215.432 6.79557L214.71 6.104ZM221.544 23.342V24.342H222.544V23.342H221.544ZM221.544 18.446H222.544V17.1423L221.284 17.4802L221.544 18.446ZM215.934 18.48L216.201 17.5165L214.934 17.1644V18.48H215.934ZM215.934 23.342H214.934V24.342H215.934V23.342ZM213.228 23.342V16.508H211.228V23.342H213.228ZM212.894 15.7628C212.143 15.0904 211.558 14.2795 211.138 13.3192L209.305 14.1208C209.837 15.3365 210.59 16.3843 211.561 17.2532L212.894 15.7628ZM211.141 13.3261C210.722 12.3483 210.508 11.2821 210.508 10.116H208.508C208.508 11.5339 208.769 12.8703 209.302 14.1139L211.141 13.3261ZM210.508 10.116C210.508 8.59804 210.854 7.27988 211.526 6.13372L209.801 5.12228C208.931 6.60545 208.508 8.27929 208.508 10.116H210.508ZM211.524 6.1382C212.222 4.9609 213.173 4.05919 214.392 3.41955L213.463 1.64845C211.917 2.45947 210.692 3.62043 209.803 5.1178L211.524 6.1382ZM214.397 3.41675C215.643 2.75395 217.065 2.412 218.688 2.412V0.411998C216.774 0.411998 215.023 0.818045 213.458 1.65125L214.397 3.41675ZM218.688 2.412C220.335 2.412 221.768 2.75492 223.012 3.41675L223.951 1.65125C222.384 0.817079 220.621 0.411998 218.688 0.411998V2.412ZM223.029 3.42558C224.291 4.06654 225.243 4.96464 225.913 6.1273L227.646 5.1287C226.775 3.61669 225.529 2.45213 223.934 1.64242L223.029 3.42558ZM225.923 6.14466C226.614 7.28918 226.97 8.60339 226.97 10.116H228.97C228.97 8.27394 228.532 6.59616 227.636 5.11133L225.923 6.14466ZM226.97 10.116C226.97 11.2823 226.755 12.3343 226.339 13.2852L228.172 14.0868C228.708 12.8617 228.97 11.5337 228.97 10.116H226.97ZM226.332 13.3014C225.935 14.2544 225.365 15.0597 224.617 15.7288L225.95 17.2192C226.925 16.347 227.669 15.2936 228.179 14.0706L226.332 13.3014ZM224.284 16.474V23.342H226.284V16.474H224.284ZM225.284 24.342H232.458V22.342H225.284V24.342ZM231.458 23.342V26.368H233.458V23.342H231.458ZM232.458 25.368H205.054V27.368H232.458V25.368ZM206.054 26.368V23.342H204.054V26.368H206.054ZM205.054 24.342H212.228V22.342H205.054V24.342ZM212.18 10.116C212.18 11.9758 212.769 13.5816 213.987 14.8536L215.432 13.4704C214.61 12.6118 214.18 11.5202 214.18 10.116H212.18ZM213.995 14.8613C215.226 16.12 216.822 16.726 218.688 16.726V14.726C217.289 14.726 216.233 14.2894 215.424 13.4627L213.995 14.8613ZM218.688 16.726C220.59 16.726 222.212 16.1255 223.448 14.8613L222.019 13.4627C221.215 14.2838 220.14 14.726 218.688 14.726V16.726ZM223.441 14.8691C224.694 13.6153 225.298 12.0005 225.298 10.116H223.298C223.298 11.5408 222.858 12.6234 222.026 13.4549L223.441 14.8691ZM225.298 10.116C225.298 8.2315 224.694 6.61672 223.441 5.36289L222.026 6.77711C222.858 7.60861 223.298 8.69116 223.298 10.116H225.298ZM223.448 5.3707C222.212 4.10646 220.59 3.506 218.688 3.506V5.506C220.14 5.506 221.215 5.9482 222.019 6.76929L223.448 5.3707ZM218.688 3.506C216.815 3.506 215.217 4.12805 213.987 5.41243L215.432 6.79557C216.242 5.94928 217.296 5.506 218.688 5.506V3.506ZM213.995 5.4047C212.77 6.65712 212.18 8.25644 212.18 10.116H214.18C214.18 8.71155 214.61 7.63621 215.424 6.80329L213.995 5.4047ZM222.544 23.342V18.446H220.544V23.342H222.544ZM221.284 17.4802C220.441 17.7065 219.576 17.82 218.688 17.82V19.82C219.749 19.82 220.788 19.6841 221.803 19.4118L221.284 17.4802ZM218.688 17.82C217.74 17.82 216.914 17.7146 216.201 17.5165L215.666 19.4435C216.585 19.6987 217.595 19.82 218.688 19.82V17.82ZM214.934 18.48V23.342H216.934V18.48H214.934ZM215.934 24.342H221.544V22.342H215.934V24.342ZM238.964 28.204L239.671 27.4969L238.964 28.204ZM238.964 25.144L238.277 24.417L238.266 24.4268L238.256 24.4369L238.964 25.144ZM242.057 25.144L241.35 25.8511L242.057 25.144ZM242.057 28.204L241.35 27.4969L241.34 27.507L241.33 27.5174L242.057 28.204ZM238.658 21.404L237.658 21.417L237.671 22.4132L238.667 22.404L238.658 21.404ZM239.439 17.052L238.538 16.6187L238.535 16.6262L239.439 17.052ZM242.193 13.89L242.784 14.6969L242.791 14.6917L242.193 13.89ZM244.676 11.51L243.831 10.9749L243.826 10.9826L244.676 11.51ZM238.352 6.41L238.941 7.2178L238.945 7.21505L238.352 6.41ZM236.516 8.824L236.168 9.76186L237.093 10.1039L237.448 9.1844L236.516 8.824ZM233.115 7.566L232.18 7.21211L231.824 8.15429L232.768 8.50386L233.115 7.566ZM236.277 3.452L236.863 4.26235L236.866 4.26073L236.277 3.452ZM245.219 2.772L244.752 3.65619L244.759 3.65966L244.766 3.66304L245.219 2.772ZM247.906 13.142L247.041 12.6391L247.034 12.651L247.906 13.142ZM244.37 16.848L244.96 17.6554L244.964 17.6519L244.37 16.848ZM243.044 18.038L242.267 17.4074L242.255 17.4225L242.243 17.438L243.044 18.038ZM242.465 19.33L241.49 19.1084L242.465 19.33ZM242.329 21.37L242.339 22.37L243.356 22.3605L243.329 21.3437L242.329 21.37ZM240.527 27.816C240.129 27.816 239.871 27.6977 239.671 27.4969L238.256 28.9111C238.872 29.5263 239.657 29.816 240.527 29.816V27.816ZM239.671 27.4969C239.504 27.33 239.385 27.0906 239.385 26.674H237.385C237.385 27.5267 237.653 28.3073 238.256 28.9111L239.671 27.4969ZM239.385 26.674C239.385 26.2574 239.504 26.018 239.671 25.8511L238.256 24.4369C237.653 25.0407 237.385 25.8213 237.385 26.674H239.385ZM239.65 25.871C239.848 25.6843 240.112 25.566 240.527 25.566V23.566C239.674 23.566 238.895 23.833 238.277 24.417L239.65 25.871ZM240.527 25.566C240.944 25.566 241.184 25.6842 241.35 25.8511L242.765 24.4369C242.161 23.8331 241.38 23.566 240.527 23.566V25.566ZM241.35 25.8511C241.517 26.018 241.635 26.2574 241.635 26.674H243.635C243.635 25.8213 243.368 25.0407 242.765 24.4369L241.35 25.8511ZM241.635 26.674C241.635 27.0906 241.517 27.33 241.35 27.4969L242.765 28.9111C243.368 28.3073 243.635 27.5267 243.635 26.674H241.635ZM241.33 27.5174C241.16 27.6983 240.927 27.816 240.527 27.816V29.816C241.398 29.816 242.185 29.5257 242.785 28.8906L241.33 27.5174ZM239.657 21.391C239.636 19.7447 239.884 18.4559 240.344 17.4778L238.535 16.6262C237.907 17.9601 237.634 19.5726 237.658 21.417L239.657 21.391ZM240.341 17.4853C240.823 16.482 241.621 15.5487 242.784 14.6969L241.603 13.0831C240.228 14.09 239.189 15.2646 238.538 16.6187L240.341 17.4853ZM242.791 14.6917C244.058 13.7477 245.013 12.8621 245.525 12.0374L243.826 10.9826C243.522 11.4726 242.823 12.1737 241.596 13.0883L242.791 14.6917ZM245.52 12.0451C246.054 11.2027 246.322 10.2687 246.322 9.266H244.322C244.322 9.89531 244.159 10.4573 243.831 10.9749L245.52 12.0451ZM246.322 9.266C246.322 7.86885 245.818 6.67027 244.795 5.76341L243.468 7.26059C244.031 7.75906 244.322 8.39648 244.322 9.266H246.322ZM244.795 5.76341C243.787 4.8709 242.517 4.458 241.072 4.458V6.458C242.119 6.458 242.889 6.74776 243.468 7.26059L244.795 5.76341ZM241.072 4.458C239.88 4.458 238.769 4.86006 237.758 5.60494L238.945 7.21505C239.656 6.6906 240.359 6.458 241.072 6.458V4.458ZM237.762 5.60221C236.764 6.33082 236.035 7.29292 235.583 8.4636L237.448 9.1844C237.767 8.36041 238.262 7.71317 238.941 7.21779L237.762 5.60221ZM236.863 7.88614L233.463 6.62814L232.768 8.50386L236.168 9.76186L236.863 7.88614ZM234.051 7.91989C234.615 6.42829 235.546 5.21468 236.863 4.26235L235.692 2.64165C234.062 3.81999 232.885 5.34904 232.18 7.21211L234.051 7.91989ZM236.866 4.26073C238.207 3.28549 239.602 2.82 241.072 2.82V0.819999C239.141 0.819999 237.34 1.44251 235.689 2.64326L236.866 4.26073ZM241.072 2.82C242.497 2.82 243.715 3.10836 244.752 3.65619L245.687 1.8878C244.321 1.1663 242.774 0.819999 241.072 0.819999V2.82ZM244.766 3.66304C245.801 4.19027 246.585 4.9301 247.142 5.89172L248.873 4.88828C248.116 3.58323 247.041 2.57773 245.673 1.88096L244.766 3.66304ZM247.142 5.89172C247.702 6.85669 247.993 7.97216 247.993 9.266H249.993C249.993 7.65851 249.628 6.18998 248.873 4.88828L247.142 5.89172ZM247.993 9.266C247.993 10.4129 247.685 11.5328 247.041 12.6391L248.77 13.6449C249.577 12.2579 249.993 10.7938 249.993 9.266H247.993ZM247.034 12.651C246.424 13.7336 245.362 14.8699 243.775 16.0441L244.964 17.6519C246.686 16.3781 247.982 15.0437 248.777 13.633L247.034 12.651ZM243.779 16.0406C243.155 16.497 242.638 16.9517 242.267 17.4074L243.82 18.6686C244.039 18.399 244.405 18.0603 244.96 17.6554L243.779 16.0406ZM242.243 17.438C241.877 17.9267 241.631 18.4902 241.49 19.1084L243.441 19.5516C243.527 19.1724 243.666 18.8747 243.844 18.638L242.243 17.438ZM241.49 19.1084C241.35 19.7249 241.306 20.5001 241.33 21.3963L243.329 21.3437C243.307 20.5172 243.354 19.9324 243.441 19.5516L241.49 19.1084ZM242.32 20.37L238.648 20.404L238.667 22.404L242.339 22.37L242.32 20.37Z" fill="url(#paint0_linear_3781_6589)" mask="url(#path-1-outside-1_3781_6589)"/>
<defs>
<linearGradient id="paint0_linear_3781_6589" x1="125.519" y1="0.5" x2="125.519" y2="33.5" gradientUnits="userSpaceOnUse">
<stop stop-color="white" stop-opacity="0.15"/>
<stop offset="1" stop-color="#666666" stop-opacity="0"/>
</linearGradient>
</defs>
</svg>
