<svg xmlns="http://www.w3.org/2000/svg" width="110.16" height="127.075" viewBox="0 0 110.16 127.075">
  <g id="그룹_1717" data-name="그룹 1717" transform="translate(-718.406 -287.222)">
    <path id="패스_7410" data-name="패스 7410" d="M0,14.469,50.316,0V63.442L0,48.973Z" transform="translate(742.41 322.439) rotate(-30)" fill="#0085ff"/>
    <rect id="사각형_1053" data-name="사각형 1053" width="8.751" height="76.568" rx="4" transform="translate(782.704 291.597) rotate(-30)" fill="#88c6ff"/>
    <path id="사각형_1055" data-name="사각형 1055" d="M4,0H8.751a0,0,0,0,1,0,0V30.627a0,0,0,0,1,0,0H4a4,4,0,0,1-4-4V4A4,4,0,0,1,4,0Z" transform="translate(718.406 355.243) rotate(-30)" fill="#fff"/>
    <rect id="사각형_1054" data-name="사각형 1054" width="28.44" height="41.566" rx="4" transform="translate(723.25 346.131) rotate(-30)" fill="#88c6ff"/>
    <path id="사각형_1056" data-name="사각형 1056" d="M0,0H13.126a0,0,0,0,1,0,0V37.566a4,4,0,0,1-4,4H4a4,4,0,0,1-4-4V0A0,0,0,0,1,0,0Z" transform="translate(750.664 378.3) rotate(-30)" fill="#0085ff"/>
  </g>
</svg>
