<svg xmlns="http://www.w3.org/2000/svg" width="21.06" height="20.22" viewBox="0 0 21.06 20.22">
  <g id="그룹_767" data-name="그룹 767" transform="translate(5.25 -5.618)">
    <g id="그룹_769" data-name="그룹 769" transform="translate(-4.918 5.949)">
      <path id="패스_6994" data-name="패스 6994" d="M38.223,33.382l6.158-6.133a.319.319,0,0,0,0-.45L42.69,25.109a.319.319,0,0,0-.45,0l-6.158,6.133Z" transform="translate(-24.495 -16.952)" fill="none" stroke="#fff" stroke-linecap="round" stroke-linejoin="round" stroke-width="1.5"/>
      <path id="패스_6995" data-name="패스 6995" d="M8.2,1V16.735s-.275,2.57-1.894,2.57" transform="translate(-4.197 -0.581)" fill="none" stroke="#fff" stroke-linecap="round" stroke-linejoin="round" stroke-width="1.5"/>
      <line id="선_30" data-name="선 30" x2="8.053" transform="translate(6.689 5.253)" fill="none" stroke="#fff" stroke-linecap="round" stroke-linejoin="round" stroke-width="1.5"/>
      <line id="선_31" data-name="선 31" x2="8.053" transform="translate(6.689 7.861)" fill="none" stroke="#fff" stroke-linecap="round" stroke-linejoin="round" stroke-width="1.5"/>
      <line id="선_32" data-name="선 32" x2="4.129" transform="translate(6.689 10.47)" fill="none" stroke="#fff" stroke-linecap="round" stroke-linejoin="round" stroke-width="1.5"/>
      <line id="선_33" data-name="선 33" x2="4.129" transform="translate(6.689 13.078)" fill="none" stroke="#fff" stroke-linecap="round" stroke-linejoin="round" stroke-width="1.5"/>
      <path id="패스_6996" data-name="패스 6996" d="M17.714,9.349V1H4.642L4.583,13.755H1v2.98A3.093,3.093,0,0,0,4.308,19.72h10.1a3.093,3.093,0,0,0,3.308-2.985v-2.81" transform="translate(-0.581 -0.581)" fill="none" stroke="#fff" stroke-linecap="round" stroke-linejoin="round" stroke-width="1.5"/>
    </g>
  </g>
</svg>
