<svg xmlns="http://www.w3.org/2000/svg" xmlns:xlink="http://www.w3.org/1999/xlink" width="25.082" height="18.789" viewBox="0 0 25.082 18.789">
  <defs>
    <clipPath id="clip-path">
      <rect id="사각형_354" data-name="사각형 354" width="25.082" height="18.789" fill="none" stroke="#fff" stroke-width="1.2"/>
    </clipPath>
  </defs>
  <g id="그룹_455" data-name="그룹 455" transform="translate(0 0)">
    <g id="그룹_454" data-name="그룹 454" transform="translate(0 0)" clip-path="url(#clip-path)">
      <path id="패스_6975" data-name="패스 6975" d="M16.484,19.989c0-2.067-2.4-6.532-5.656-7.443a.478.478,0,0,1-.046-.9A4.949,4.949,0,0,0,13.772,7.1a5.03,5.03,0,1,0-7.187,4.54c.51.242.492.787.052.9C3.386,13.463,1,17.992,1,19.989" transform="translate(-0.716 -1.484)" fill="none" stroke="#fff" stroke-linecap="round" stroke-linejoin="round" stroke-width="1.2"/>
      <path id="패스_6976" data-name="패스 6976" d="M49.747,16.439a.174.174,0,0,0,.006.24A.255.255,0,0,0,50,16.7l5.552-1.782a.137.137,0,0,0,.085-.077L57.3,10.781a.109.109,0,0,0,.007-.02l.665-.665a.137.137,0,0,0,0-.195l-1.54-1.583a.142.142,0,0,0-.195,0l-.715.715-.012.013L51.37,10.554a.138.138,0,0,0-.078.086L49.518,16.3a.138.138,0,0,0,.229.138l3.067-2.976" transform="translate(-35.465 -5.931)" fill="none" stroke="#fff" stroke-linecap="round" stroke-linejoin="round" stroke-width="1.2"/>
      <circle id="타원_20" data-name="타원 20" cx="0.758" cy="0.758" r="0.758" transform="translate(17.143 6.227)" fill="none" stroke="#fff" stroke-linecap="round" stroke-linejoin="round" stroke-width="1.2"/>
      <line id="선_28" data-name="선 28" y1="2.198" x2="1.919" transform="translate(20.776 0.189)" fill="none" stroke="#fff" stroke-linecap="round" stroke-linejoin="round" stroke-width="1.2"/>
      <line id="선_29" data-name="선 29" y1="1.816" x2="2.383" transform="translate(22.511 2.349)" fill="none" stroke="#fff" stroke-linecap="round" stroke-linejoin="round" stroke-width="1.2"/>
    </g>
  </g>
</svg>
