<svg xmlns="http://www.w3.org/2000/svg" width="16.614" height="16.818" viewBox="0 0 16.614 16.818">
  <g id="그룹_449" data-name="그룹 449" transform="translate(0.646 0.394)">
    <g id="그룹_450" data-name="그룹 450" transform="translate(0.256 0.256)">
      <path id="패스_6970" data-name="패스 6970" d="M14.866,18.553a2.249,2.249,0,0,1,.946,1.613v8.777a.55.55,0,0,1-.548.548H1.548A.55.55,0,0,1,1,28.943V20.166a2.031,2.031,0,0,1,.944-1.582" transform="translate(-1 -13.973)" fill="none" stroke="#fff" stroke-linecap="round" stroke-linejoin="round" stroke-width="1.3"/>
      <path id="패스_6971" data-name="패스 6971" d="M18.215,2.97l2.018-1.5A2.32,2.32,0,0,1,21.272,1a2.044,2.044,0,0,1,.991.489L24.1,2.909" transform="translate(-13.723 -1)" fill="none" stroke="#fff" stroke-linecap="round" stroke-linejoin="round" stroke-width="1.3"/>
      <path id="패스_6972" data-name="패스 6972" d="M1,31.488l6.342,4.251s.651.588,1.025.588,1.028-.588,1.028-.588l6.417-4.251" transform="translate(-1 -23.533)" fill="none" stroke="#fff" stroke-linecap="round" stroke-linejoin="round" stroke-width="1.3"/>
      <path id="패스_6973" data-name="패스 6973" d="M4.618,15.184V9.1a.55.55,0,0,1,.548-.548H16.994a.55.55,0,0,1,.548.548v6.077" transform="translate(-3.674 -6.581)" fill="none" stroke="#fff" stroke-linecap="round" stroke-linejoin="round" stroke-width="1.3"/>
      <line id="선_26" data-name="선 26" x2="8.432" transform="translate(3.19 5.313)" fill="none" stroke="#fff" stroke-linecap="round" stroke-linejoin="round" stroke-width="1.3"/>
      <line id="선_27" data-name="선 27" x2="8.432" transform="translate(3.19 7.44)" fill="none" stroke="#fff" stroke-linecap="round" stroke-linejoin="round" stroke-width="1.3"/>
    </g>
  </g>
</svg>
