<svg width="272" height="78" viewBox="0 0 272 78" fill="none" xmlns="http://www.w3.org/2000/svg">
<path d="M72.764 20.808V17.352C71.74 17.24 70.836 16.92 70.052 16.392C69.268 15.864 68.652 15.184 68.204 14.352C67.772 13.504 67.556 12.56 67.556 11.52C67.556 10.384 67.812 9.368 68.324 8.472C68.852 7.576 69.572 6.88 70.484 6.384C71.412 5.872 72.468 5.616 73.652 5.616C74.852 5.616 75.916 5.872 76.844 6.384C77.788 6.88 78.516 7.576 79.028 8.472C79.556 9.368 79.82 10.384 79.82 11.52C79.82 12.56 79.596 13.504 79.148 14.352C78.716 15.184 78.1 15.864 77.3 16.392C76.5 16.92 75.58 17.24 74.54 17.352V20.808H83.204V22.296H64.172V20.808H72.764ZM69.284 11.52C69.284 12.352 69.468 13.104 69.836 13.776C70.204 14.432 70.716 14.944 71.372 15.312C72.044 15.68 72.804 15.864 73.652 15.864C74.516 15.864 75.284 15.68 75.956 15.312C76.628 14.944 77.148 14.432 77.516 13.776C77.9 13.104 78.092 12.352 78.092 11.52C78.092 10.672 77.9 9.92 77.516 9.264C77.148 8.592 76.628 8.072 75.956 7.704C75.284 7.336 74.516 7.152 73.652 7.152C72.804 7.152 72.044 7.336 71.372 7.704C70.716 8.072 70.204 8.592 69.836 9.264C69.468 9.92 69.284 10.672 69.284 11.52ZM97.5466 20.352V18.024H86.3146V16.608H99.3466V21.72H88.2106V24.048H100.091V25.464H86.3866V20.352H97.5466ZM83.3626 13.2H102.395V14.688H83.3626V13.2ZM87.9706 5.04V9.936H99.9466V11.4H86.1946V5.04H87.9706ZM124.693 4.752V25.032H122.965V4.752H124.693ZM120.565 5.232V23.952H118.861V15.744H115.957C115.541 16.528 114.973 17.144 114.253 17.592C113.549 18.024 112.749 18.24 111.853 18.24C110.909 18.24 110.069 18 109.333 17.52C108.597 17.04 108.021 16.368 107.605 15.504C107.205 14.64 107.005 13.656 107.005 12.552C107.005 11.448 107.205 10.464 107.605 9.6C108.021 8.72 108.597 8.04 109.333 7.56C110.069 7.064 110.909 6.816 111.853 6.816C112.781 6.816 113.613 7.064 114.349 7.56C115.085 8.04 115.661 8.704 116.077 9.552H118.861V5.232H120.565ZM111.853 16.632C112.797 16.632 113.565 16.256 114.157 15.504C114.749 14.736 115.045 13.752 115.045 12.552C115.045 11.336 114.749 10.344 114.157 9.576C113.565 8.808 112.797 8.424 111.853 8.424C110.909 8.424 110.141 8.808 109.549 9.576C108.957 10.344 108.661 11.336 108.661 12.552C108.661 13.752 108.957 14.736 109.549 15.504C110.141 16.256 110.909 16.632 111.853 16.632ZM118.861 14.256V11.04H116.557C116.653 11.52 116.701 12.024 116.701 12.552C116.701 13.128 116.637 13.696 116.509 14.256H118.861ZM142.347 4.752V8.016H145.443V9.528H142.347V12.48H145.443V13.992H142.347V16.752H140.547V4.752H142.347ZM142.347 17.76V25.752H140.547V19.224H129.723V17.76H142.347ZM131.715 15.48C130.723 15.48 129.835 15.272 129.051 14.856C128.267 14.44 127.659 13.856 127.227 13.104C126.795 12.352 126.579 11.504 126.579 10.56C126.579 9.6 126.795 8.744 127.227 7.992C127.659 7.24 128.267 6.656 129.051 6.24C129.835 5.824 130.723 5.616 131.715 5.616C132.707 5.616 133.595 5.824 134.379 6.24C135.163 6.656 135.771 7.24 136.203 7.992C136.635 8.744 136.851 9.6 136.851 10.56C136.851 11.504 136.635 12.352 136.203 13.104C135.771 13.856 135.163 14.44 134.379 14.856C133.595 15.272 132.707 15.48 131.715 15.48ZM131.715 13.992C132.707 13.992 133.515 13.672 134.139 13.032C134.763 12.392 135.075 11.568 135.075 10.56C135.075 9.536 134.763 8.704 134.139 8.064C133.515 7.424 132.707 7.104 131.715 7.104C130.723 7.104 129.915 7.424 129.291 8.064C128.667 8.704 128.355 9.536 128.355 10.56C128.355 11.568 128.667 12.392 129.291 13.032C129.915 13.672 130.723 13.992 131.715 13.992ZM161.37 4.752V13.296H164.85V14.808H161.37V25.032H159.57V4.752H161.37ZM144.954 18.432L148.794 12.984C149.258 12.328 149.57 11.76 149.73 11.28C149.89 10.784 149.97 10.248 149.97 9.672V8.136H145.626V6.648H155.97V8.136H151.65V9.672C151.65 10.264 151.73 10.8 151.89 11.28C152.05 11.76 152.354 12.328 152.802 12.984L156.642 18.432L155.298 19.392L151.458 13.896C151.17 13.464 150.954 13.112 150.81 12.84C150.634 13.144 150.41 13.496 150.138 13.896L146.298 19.392L144.954 18.432ZM187.748 15.384V16.872H168.788V15.384H187.748ZM184.796 19.176V25.752H182.996V20.64H171.62V19.176H184.796ZM184.7 5.328V6.768H173.588V8.568H184.7V9.96H173.588V11.928H184.7V13.344H171.788V5.328H184.7ZM205.786 4.752V25.032H204.058V4.752H205.786ZM201.898 5.232V23.976H200.218V17.424H196.714C196.314 18.016 195.778 18.48 195.106 18.816C194.45 19.152 193.706 19.32 192.874 19.32C191.978 19.32 191.178 19.128 190.474 18.744C189.786 18.36 189.242 17.824 188.842 17.136C188.458 16.432 188.266 15.64 188.266 14.76C188.266 13.88 188.458 13.096 188.842 12.408C189.242 11.704 189.786 11.16 190.474 10.776C191.178 10.376 191.978 10.176 192.874 10.176C194.202 10.176 195.298 10.592 196.162 11.424H200.218V5.232H201.898ZM192.01 7.728V5.064H193.738V7.728H197.89V9.216H187.858V7.728H192.01ZM192.874 17.784C193.754 17.784 194.466 17.504 195.01 16.944C195.57 16.384 195.85 15.656 195.85 14.76C195.85 13.864 195.57 13.136 195.01 12.576C194.466 12 193.754 11.712 192.874 11.712C191.994 11.712 191.274 12 190.714 12.576C190.17 13.136 189.898 13.864 189.898 14.76C189.898 15.656 190.17 16.384 190.714 16.944C191.274 17.504 191.994 17.784 192.874 17.784ZM197.146 12.888C197.37 13.464 197.482 14.088 197.482 14.76C197.482 15.176 197.434 15.576 197.338 15.96H200.218V12.888H197.146Z" fill="#777777"/>
<path d="M28.322 58.732V61.758H16.388V71.788H12.682V61.758H0.918V58.732H28.322ZM24.072 43.058V55.366H5.066V43.058H24.072ZM8.738 46.016V52.442H20.4V46.016H8.738ZM35.882 64.512V59.684H32.618V49.994H48.598V46.39H32.55V43.432H51.794V52.918H36.12V56.692H52.474V59.684H48.768V64.512H55.874V67.538H28.47V64.512H35.882ZM45.096 64.512V59.684H39.554V64.512H45.096ZM69.1958 55.876V51.864C67.9265 50.6627 67.2918 49.2347 67.2918 47.58C67.2918 46.2653 67.6432 45.1207 68.3458 44.146C69.0712 43.1487 70.0685 42.378 71.3378 41.834C72.6298 41.29 74.1032 41.018 75.7578 41.018C77.4352 41.018 78.9198 41.29 80.2118 41.834C81.5265 42.378 82.5465 43.1487 83.2718 44.146C83.9972 45.1207 84.3598 46.2653 84.3598 47.58C84.3598 49.2573 83.7025 50.6967 82.3878 51.898V55.876H89.4938V58.834H62.1578V55.876H69.1958ZM70.8958 47.58C70.8958 48.6 71.3492 49.4387 72.2558 50.096C73.1625 50.7533 74.3412 51.082 75.7918 51.082C77.2652 51.082 78.4665 50.7533 79.3958 50.096C80.3252 49.4387 80.7898 48.6 80.7898 47.58C80.7898 46.492 80.3365 45.642 79.4298 45.03C78.5232 44.3953 77.3105 44.078 75.7918 44.078C74.3185 44.078 73.1285 44.3953 72.2218 45.03C71.3378 45.642 70.8958 46.492 70.8958 47.58ZM75.8598 72.74C74.2505 72.74 72.8112 72.4567 71.5418 71.89C70.2725 71.346 69.2865 70.5753 68.5838 69.578C67.8812 68.6033 67.5298 67.504 67.5298 66.28C67.5298 65.0333 67.8812 63.934 68.5838 62.982C69.2865 62.0073 70.2725 61.2593 71.5418 60.738C72.8112 60.194 74.2505 59.922 75.8598 59.922C77.4692 59.922 78.9085 60.194 80.1778 60.738C81.4472 61.2593 82.4332 62.0073 83.1358 62.982C83.8612 63.934 84.2238 65.0333 84.2238 66.28C84.2238 67.504 83.8612 68.6033 83.1358 69.578C82.4332 70.5753 81.4472 71.346 80.1778 71.89C78.9085 72.4567 77.4692 72.74 75.8598 72.74ZM75.8598 69.748C77.2425 69.748 78.3645 69.4193 79.2258 68.762C80.1098 68.1047 80.5518 67.2773 80.5518 66.28C80.5518 65.328 80.1098 64.5347 79.2258 63.9C78.3645 63.2427 77.2425 62.914 75.8598 62.914C74.4998 62.914 73.3778 63.2427 72.4938 63.9C71.6325 64.5347 71.2018 65.328 71.2018 66.28C71.2018 67.2773 71.6325 68.1047 72.4938 68.762C73.3552 69.4193 74.4772 69.748 75.8598 69.748ZM78.6818 55.876V53.768C77.8432 53.9947 76.8685 54.108 75.7578 54.108C74.6925 54.108 73.7405 53.9947 72.9018 53.768V55.876H78.6818ZM104.262 72.366C102.766 72.366 101.428 72.0827 100.25 71.516C99.0938 70.972 98.1871 70.2013 97.5298 69.204C96.8951 68.2067 96.5778 67.0847 96.5778 65.838C96.5778 64.5687 96.8951 63.4353 97.5298 62.438C98.1871 61.4407 99.0938 60.67 100.25 60.126C101.428 59.5593 102.766 59.276 104.262 59.276C105.758 59.276 107.095 59.5593 108.274 60.126C109.452 60.67 110.37 61.4407 111.028 62.438C111.685 63.4353 112.014 64.5687 112.014 65.838C112.014 67.0847 111.685 68.2067 111.028 69.204C110.37 70.2013 109.452 70.972 108.274 71.516C107.095 72.0827 105.758 72.366 104.262 72.366ZM100.658 48.6V45.982H91.1718V42.956H104.364V51.49H94.9118V54.448H106.166V57.508H91.1718V48.6H100.658ZM104.262 69.34C105.486 69.34 106.472 69.0227 107.22 68.388C107.99 67.7307 108.376 66.8807 108.376 65.838C108.376 64.7953 107.99 63.9567 107.22 63.322C106.472 62.6647 105.486 62.336 104.262 62.336C103.06 62.336 102.086 62.6647 101.338 63.322C100.59 63.9567 100.216 64.7953 100.216 65.838C100.216 66.8807 100.59 67.7307 101.338 68.388C102.086 69.0227 103.06 69.34 104.262 69.34ZM109.668 41.46H113.408V45.642H117.624V48.736H113.408V52.034H117.624V55.094H113.408V59.106H109.668V41.46ZM148.524 41.494V57.712H144.784V51.32H139.514C139.196 53.1107 138.346 54.5613 136.964 55.672C135.581 56.76 133.881 57.304 131.864 57.304C130.345 57.304 128.985 56.9867 127.784 56.352C126.605 55.7173 125.676 54.8333 124.996 53.7C124.338 52.5667 124.01 51.2747 124.01 49.824C124.01 48.3733 124.338 47.0813 124.996 45.948C125.676 44.792 126.605 43.8967 127.784 43.262C128.985 42.6273 130.345 42.31 131.864 42.31C133.881 42.31 135.581 42.854 136.964 43.942C138.346 45.03 139.196 46.4807 139.514 48.294H144.784V41.494H148.524ZM133.258 59.14V62.336H144.818V59.14H148.524V71.38H129.552V59.14H133.258ZM133.258 68.388H144.818V65.226H133.258V68.388ZM131.864 54.244C133.11 54.244 134.108 53.836 134.856 53.02C135.626 52.204 136.012 51.1387 136.012 49.824C136.012 48.4867 135.626 47.41 134.856 46.594C134.108 45.7553 133.11 45.336 131.864 45.336C130.594 45.336 129.574 45.7553 128.804 46.594C128.033 47.41 127.648 48.4867 127.648 49.824C127.648 51.1387 128.033 52.204 128.804 53.02C129.597 53.836 130.617 54.244 131.864 54.244ZM178.32 63.526V66.586H150.95V63.526H178.32ZM173.73 60.024H169.956V47.138H154.418V44.078H173.73V60.024ZM204.342 41.46V70.7H200.772V41.46H204.342ZM194.652 52.306V42.106H198.12V69.204H194.652V55.366H191.524V52.306H194.652ZM190.844 43.942V55.366H183.296V60.568H191.558V63.628H179.692V52.374H187.274V46.934H179.658V43.942H190.844ZM231.01 41.426V70.768H227.236V41.426H231.01ZM214.758 61.35C213.171 61.35 211.743 60.9873 210.474 60.262C209.227 59.5367 208.252 58.528 207.55 57.236C206.847 55.9213 206.496 54.4367 206.496 52.782C206.496 51.1047 206.847 49.62 207.55 48.328C208.252 47.0133 209.227 45.9933 210.474 45.268C211.743 44.52 213.171 44.146 214.758 44.146C216.344 44.146 217.761 44.52 219.008 45.268C220.254 45.9933 221.229 47.0133 221.932 48.328C222.634 49.62 222.986 51.1047 222.986 52.782C222.986 54.4367 222.634 55.9213 221.932 57.236C221.229 58.528 220.254 59.5367 219.008 60.262C217.761 60.9873 216.344 61.35 214.758 61.35ZM214.758 58.154C216.14 58.154 217.251 57.6667 218.09 56.692C218.928 55.6947 219.348 54.3913 219.348 52.782C219.348 51.1727 218.928 49.8693 218.09 48.872C217.251 47.852 216.14 47.342 214.758 47.342C213.375 47.342 212.264 47.852 211.426 48.872C210.587 49.8693 210.168 51.1727 210.168 52.782C210.168 54.3913 210.587 55.6947 211.426 56.692C212.264 57.6667 213.375 58.154 214.758 58.154ZM257.406 43.874V46.934H241.154V55.434H257.406V58.426H237.448V43.874H257.406ZM233.606 63.832H261.01V66.892H233.606V63.832ZM267.855 62.37H264.387L263.741 43.33H268.399L267.855 62.37ZM266.155 65.566C266.767 65.566 267.266 65.7587 267.651 66.144C268.037 66.5293 268.229 67.0393 268.229 67.674C268.229 68.3087 268.037 68.8187 267.651 69.204C267.266 69.612 266.767 69.816 266.155 69.816C265.521 69.816 264.999 69.612 264.591 69.204C264.206 68.8187 264.013 68.3087 264.013 67.674C264.013 67.0393 264.206 66.5293 264.591 66.144C264.999 65.7587 265.521 65.566 266.155 65.566Z" fill="#222222"/>
</svg>
