<svg width="249" height="157" viewBox="0 0 249 157" fill="none" xmlns="http://www.w3.org/2000/svg">
<g filter="url(#filter0_d_4925_9137)">
<path d="M77.0319 18.766V16.28C75.6092 16.0453 74.4579 15.4293 73.5779 14.432C72.7126 13.42 72.2799 12.1953 72.2799 10.758C72.2799 9.67267 72.5292 8.70467 73.0279 7.854C73.5412 6.98867 74.2452 6.314 75.1399 5.83C76.0492 5.346 77.0759 5.104 78.2199 5.104C79.3786 5.104 80.4126 5.346 81.3219 5.83C82.2459 6.314 82.9572 6.98867 83.4559 7.854C83.9692 8.70467 84.2259 9.67267 84.2259 10.758C84.2259 12.1953 83.7859 13.4127 82.9059 14.41C82.0406 15.4073 80.8892 16.0307 79.4519 16.28V18.766H87.1299V20.724H69.3979V18.766H77.0319ZM74.6559 10.758C74.6559 11.814 74.9859 12.6793 75.6459 13.354C76.3059 14.0287 77.1639 14.366 78.2199 14.366C79.3052 14.366 80.1779 14.0287 80.8379 13.354C81.5126 12.6793 81.8499 11.814 81.8499 10.758C81.8499 9.68733 81.5126 8.81467 80.8379 8.14C80.1779 7.45067 79.3052 7.106 78.2199 7.106C77.1639 7.106 76.3059 7.45067 75.6459 8.14C74.9859 8.81467 74.6559 9.68733 74.6559 10.758ZM99.8756 18.392V16.874H89.7776V15.026H102.296V20.13H92.2636V21.692H102.912V23.54H89.8216V18.392H99.8756ZM87.2256 11.704H104.958V13.64H87.2256V11.704ZM92.3076 4.422V8.448H102.714V10.362H89.9096V4.422H92.3076ZM125.854 4.18V23.1H123.544V4.18H125.854ZM122.026 4.554V22.176H119.76V15.026H117.406C116.995 15.6713 116.467 16.17 115.822 16.522C115.191 16.874 114.48 17.05 113.688 17.05C112.793 17.05 111.994 16.8153 111.29 16.346C110.586 15.8767 110.036 15.224 109.64 14.388C109.244 13.5373 109.046 12.5767 109.046 11.506C109.046 10.4207 109.244 9.46 109.64 8.624C110.036 7.77333 110.586 7.11333 111.29 6.644C111.994 6.16 112.793 5.918 113.688 5.918C114.524 5.918 115.272 6.12333 115.932 6.534C116.606 6.93 117.149 7.48733 117.56 8.206H119.76V4.554H122.026ZM113.688 14.894C114.406 14.894 114.986 14.586 115.426 13.97C115.88 13.3393 116.108 12.518 116.108 11.506C116.108 10.4793 115.88 9.65067 115.426 9.02C114.986 8.38933 114.406 8.074 113.688 8.074C112.984 8.074 112.412 8.38933 111.972 9.02C111.532 9.65067 111.312 10.4793 111.312 11.506C111.312 12.518 111.532 13.3393 111.972 13.97C112.412 14.586 112.984 14.894 113.688 14.894ZM119.76 13.068V10.164H118.264C118.337 10.6333 118.374 11.0807 118.374 11.506C118.374 11.9753 118.322 12.496 118.22 13.068H119.76ZM142.185 4.202V6.908H144.825V8.91H142.185V11.132H144.825V13.112H142.185V15.532H139.743V4.202H142.185ZM142.185 16.368V23.782H139.743V18.304H130.041V16.368H142.185ZM132.197 14.652C131.215 14.652 130.335 14.4467 129.557 14.036C128.795 13.6253 128.193 13.0533 127.753 12.32C127.328 11.5867 127.115 10.7507 127.115 9.812C127.115 8.87333 127.328 8.03733 127.753 7.304C128.193 6.556 128.795 5.97667 129.557 5.566C130.335 5.15533 131.215 4.95 132.197 4.95C133.18 4.95 134.053 5.15533 134.815 5.566C135.578 5.97667 136.172 6.556 136.597 7.304C137.037 8.03733 137.257 8.87333 137.257 9.812C137.257 10.7507 137.037 11.5867 136.597 12.32C136.172 13.0533 135.578 13.6253 134.815 14.036C134.053 14.4467 133.18 14.652 132.197 14.652ZM132.197 12.672C133.004 12.672 133.649 12.408 134.133 11.88C134.632 11.352 134.881 10.6627 134.881 9.812C134.881 8.94667 134.632 8.25 134.133 7.722C133.649 7.17933 133.004 6.908 132.197 6.908C131.391 6.908 130.738 7.17933 130.239 7.722C129.741 8.25 129.491 8.94667 129.491 9.812C129.491 10.6627 129.741 11.352 130.239 11.88C130.738 12.408 131.391 12.672 132.197 12.672ZM159.309 4.422V12.452H162.587V13.596H159.309V22.88H157.967V4.422H159.309ZM149.607 6.93V4.686H150.883V6.93H155.415V8.074H145.075V6.93H149.607ZM150.245 17.886C149.394 17.886 148.639 17.7027 147.979 17.336C147.319 16.9693 146.798 16.456 146.417 15.796C146.05 15.136 145.867 14.3807 145.867 13.53C145.867 12.6793 146.05 11.924 146.417 11.264C146.798 10.5893 147.319 10.0687 147.979 9.702C148.639 9.32067 149.394 9.13 150.245 9.13C151.096 9.13 151.851 9.32067 152.511 9.702C153.171 10.0687 153.684 10.5893 154.051 11.264C154.432 11.924 154.623 12.6793 154.623 13.53C154.623 14.3807 154.432 15.136 154.051 15.796C153.684 16.456 153.171 16.9693 152.511 17.336C151.851 17.7027 151.096 17.886 150.245 17.886ZM150.245 16.698C151.169 16.698 151.924 16.4047 152.511 15.818C153.098 15.2167 153.391 14.454 153.391 13.53C153.391 12.5913 153.098 11.8213 152.511 11.22C151.924 10.6187 151.169 10.318 150.245 10.318C149.321 10.318 148.566 10.6187 147.979 11.22C147.392 11.8213 147.099 12.5913 147.099 13.53C147.099 14.454 147.392 15.2167 147.979 15.818C148.566 16.4047 149.321 16.698 150.245 16.698ZM163.351 5.676H171.997V7.414H176.485V4.444H177.827V17.182H176.485V12.628H171.997V14.102H163.351V5.676ZM167.179 16.918V21.934H177.783V23.078H165.837V16.918H167.179ZM170.699 12.98V6.798H164.649V12.98H170.699ZM176.485 11.506V8.558H171.997V11.506H176.485Z" fill="white"/>
</g>
<g filter="url(#filter1_d_4925_9137)">
<path d="M33.5871 37.98V74.1H29.2191V37.98H33.5871ZM21.2811 50.076V38.736H25.6071V72.336H21.2811V53.856H13.5111V50.076H21.2811ZM18.1311 64.65H3.22107V40.962H7.79907V60.744H18.1311V64.65ZM67.2858 37.938V74.184H62.6238V37.938H67.2858ZM47.2098 62.55C45.2498 62.55 43.4858 62.102 41.9178 61.206C40.3778 60.31 39.1738 59.064 38.3058 57.468C37.4378 55.844 37.0038 54.01 37.0038 51.966C37.0038 49.894 37.4378 48.06 38.3058 46.464C39.1738 44.84 40.3778 43.58 41.9178 42.684C43.4858 41.76 45.2498 41.298 47.2098 41.298C49.1698 41.298 50.9198 41.76 52.4598 42.684C53.9998 43.58 55.2038 44.84 56.0718 46.464C56.9398 48.06 57.3738 49.894 57.3738 51.966C57.3738 54.01 56.9398 55.844 56.0718 57.468C55.2038 59.064 53.9998 60.31 52.4598 61.206C50.9198 62.102 49.1698 62.55 47.2098 62.55ZM47.2098 58.602C48.9178 58.602 50.2898 58 51.3258 56.796C52.3618 55.564 52.8798 53.954 52.8798 51.966C52.8798 49.978 52.3618 48.368 51.3258 47.136C50.2898 45.876 48.9178 45.246 47.2098 45.246C45.5018 45.246 44.1298 45.876 43.0938 47.136C42.0578 48.368 41.5398 49.978 41.5398 51.966C41.5398 53.954 42.0578 55.564 43.0938 56.796C44.1298 58 45.5018 58.602 47.2098 58.602ZM102.455 37.938V74.184H97.8346V53.394H90.7366V64.818H72.8866V40.542H77.5066V49.698H86.1586V40.542H90.7366V49.698H97.8346V37.938H102.455ZM77.5066 61.08H86.1586V53.31H77.5066V61.08ZM122.503 54.276H132.751V58.728H122.503V68.934H118.093V58.728H107.845V54.276H118.093V44.028H122.503V54.276ZM151.487 60.996H175.511V74.94H151.487V60.996ZM171.017 71.286V64.608H156.065V71.286H171.017ZM145.229 40.374H159.929V46.632H163.793V38.694H168.077V58.938H163.793V50.412H159.929V56.754H145.229V40.374ZM155.561 53.184V43.944H149.555V53.184H155.561ZM171.143 38.022H175.511V59.316H171.143V38.022ZM209.797 37.938V74.184H205.177V53.394H198.079V64.818H180.229V40.542H184.849V49.698H193.501V40.542H198.079V49.698H205.177V37.938H209.797ZM184.849 61.08H193.501V53.31H184.849V61.08ZM244.378 38.022V58.056H239.758V38.022H244.378ZM225.646 59.82V63.684H239.842V59.82H244.378V74.94H221.11V59.82H225.646ZM225.646 71.244H239.842V67.254H225.646V71.244ZM214.684 55.326L220.858 47.682C221.446 46.926 221.852 46.254 222.076 45.666C222.328 45.078 222.454 44.49 222.454 43.902V39.366H226.948V43.902C226.948 44.49 227.06 45.078 227.284 45.666C227.508 46.226 227.928 46.898 228.544 47.682L234.718 55.326L231.442 58.014L225.268 50.37L224.68 49.656L224.134 50.37L217.96 58.014L214.684 55.326Z" fill="url(#paint0_linear_4925_9137)"/>
<path d="M66.3005 113.92V117.48H52.2605V129.28H47.9005V117.48H34.0605V113.92H66.3005ZM61.3005 95.48V109.96H38.9405V95.48H61.3005ZM43.2605 98.96V106.52H56.9805V98.96H43.2605ZM75.1945 120.72V115.04H71.3545V103.64H90.1545V99.4H71.2745V95.92H93.9145V107.08H75.4745V111.52H94.7145V115.04H90.3545V120.72H98.7145V124.28H66.4745V120.72H75.1945ZM86.0345 120.72V115.04H79.5145V120.72H86.0345ZM128.787 111.48V99.16H109.627V95.56H133.227V111.48H138.307V115.08H124.307V129.28H119.867V115.08H106.107V111.48H128.787ZM152.401 110.84V107.28H143.321V95.08H166.201V98.56H147.681V103.8H166.201V107.28H156.801V110.84H170.721V114.32H138.521V110.84H152.401ZM166.241 117.16V129.4H161.841V120.64H143.121V117.16H166.241ZM200.775 93.6V119.72H196.375V116.16H189.135V112.76H196.375V93.6H200.775ZM181.015 117.68V125H201.135V128.52H176.615V117.68H181.015ZM193.335 110.16H185.455V117.96H181.055V110.16H171.215V106.64H185.775V98.76H173.255V95.16H190.175V106.64H193.335V110.16ZM211.23 118.2H207.15L206.39 95.8H211.87L211.23 118.2ZM209.23 121.96C209.95 121.96 210.536 122.187 210.99 122.64C211.443 123.093 211.67 123.693 211.67 124.44C211.67 125.187 211.443 125.787 210.99 126.24C210.536 126.72 209.95 126.96 209.23 126.96C208.483 126.96 207.87 126.72 207.39 126.24C206.936 125.787 206.71 125.187 206.71 124.44C206.71 123.693 206.936 123.093 207.39 122.64C207.87 122.187 208.483 121.96 209.23 121.96Z" fill="#FF008C"/>
</g>
<path d="M44.3145 149.056L47.5545 145.804L48.1545 146.404L44.9025 149.656L48.1305 152.884L47.5545 153.472L44.3265 150.232L41.0745 153.484L40.4865 152.896L43.7265 149.644L40.4865 146.404L41.0745 145.816L44.3145 149.056ZM44.3505 146.776C44.1905 146.776 44.0585 146.724 43.9545 146.62C43.8505 146.516 43.7985 146.384 43.7985 146.224C43.7985 146.064 43.8505 145.936 43.9545 145.84C44.0585 145.736 44.1905 145.684 44.3505 145.684C44.5105 145.684 44.6385 145.736 44.7345 145.84C44.8385 145.936 44.8905 146.064 44.8905 146.224C44.8905 146.384 44.8385 146.516 44.7345 146.62C44.6385 146.724 44.5105 146.776 44.3505 146.776ZM44.3505 153.508C44.1905 153.508 44.0585 153.456 43.9545 153.352C43.8505 153.248 43.7985 153.116 43.7985 152.956C43.7985 152.796 43.8505 152.668 43.9545 152.572C44.0585 152.468 44.1905 152.416 44.3505 152.416C44.5105 152.416 44.6385 152.468 44.7345 152.572C44.8385 152.668 44.8905 152.796 44.8905 152.956C44.8905 153.116 44.8385 153.248 44.7345 153.352C44.6385 153.456 44.5105 153.508 44.3505 153.508ZM41.1105 150.148C40.9505 150.148 40.8185 150.096 40.7145 149.992C40.6105 149.888 40.5585 149.756 40.5585 149.596C40.5585 149.436 40.6105 149.308 40.7145 149.212C40.8185 149.108 40.9505 149.056 41.1105 149.056C41.2705 149.056 41.3985 149.108 41.4945 149.212C41.5985 149.308 41.6505 149.436 41.6505 149.596C41.6505 149.756 41.5985 149.888 41.4945 149.992C41.3985 150.096 41.2705 150.148 41.1105 150.148ZM47.6025 150.148C47.4425 150.148 47.3105 150.096 47.2065 149.992C47.1025 149.888 47.0505 149.756 47.0505 149.596C47.0505 149.436 47.1025 149.308 47.2065 149.212C47.3105 149.108 47.4425 149.056 47.6025 149.056C47.7625 149.056 47.8905 149.108 47.9865 149.212C48.0905 149.308 48.1425 149.436 48.1425 149.596C48.1425 149.756 48.0905 149.888 47.9865 149.992C47.8905 150.096 47.7625 150.148 47.6025 150.148ZM52.6737 149.764L52.9497 145.324H57.2697V146.092H53.7777L53.6097 148.78C54.0897 148.508 54.5657 148.372 55.0377 148.372C55.6057 148.372 56.1097 148.492 56.5497 148.732C56.9977 148.972 57.3457 149.308 57.5937 149.74C57.8417 150.172 57.9657 150.664 57.9657 151.216C57.9657 151.776 57.8417 152.276 57.5937 152.716C57.3457 153.156 56.9977 153.5 56.5497 153.748C56.1097 153.996 55.6057 154.12 55.0377 154.12C54.3737 154.12 53.7817 153.92 53.2617 153.52C52.7497 153.112 52.4177 152.588 52.2657 151.948L53.1057 151.756C53.2097 152.212 53.4417 152.584 53.8017 152.872C54.1617 153.16 54.5737 153.304 55.0377 153.304C55.4377 153.304 55.7937 153.216 56.1057 153.04C56.4177 152.864 56.6617 152.616 56.8377 152.296C57.0137 151.976 57.1017 151.616 57.1017 151.216C57.1017 150.824 57.0137 150.476 56.8377 150.172C56.6617 149.86 56.4177 149.62 56.1057 149.452C55.7937 149.276 55.4377 149.188 55.0377 149.188C54.7817 149.188 54.5137 149.256 54.2337 149.392C53.9537 149.528 53.7217 149.7 53.5377 149.908L52.6737 149.764ZM67.4686 150.208C67.4686 151.016 67.2926 151.708 66.9406 152.284C66.5886 152.86 66.1046 153.304 65.4886 153.616C64.8726 153.92 64.1766 154.08 63.4006 154.096C62.5766 154.096 61.8406 153.908 61.1926 153.532C60.5526 153.156 60.0486 152.632 59.6806 151.96C59.3206 151.288 59.1406 150.524 59.1406 149.668C59.1406 148.812 59.3206 148.052 59.6806 147.388C60.0486 146.716 60.5526 146.192 61.1926 145.816C61.8406 145.44 62.5766 145.252 63.4006 145.252C64.2006 145.252 64.8646 145.408 65.3926 145.72C65.9286 146.024 66.3046 146.324 66.5206 146.62C66.7366 146.916 66.9006 147.156 67.0126 147.34L66.2446 147.688C66.1566 147.544 66.0286 147.356 65.8606 147.124C65.6926 146.884 65.3966 146.64 64.9726 146.392C64.5566 146.144 64.0326 146.02 63.4006 146.02C62.7446 146.02 62.1566 146.176 61.6366 146.488C61.1246 146.8 60.7246 147.232 60.4366 147.784C60.1486 148.336 60.0046 148.964 60.0046 149.668C60.0046 150.372 60.1486 151.004 60.4366 151.564C60.7246 152.116 61.1246 152.548 61.6366 152.86C62.1566 153.172 62.7446 153.328 63.4006 153.328C64.3846 153.288 65.1726 153.012 65.7646 152.5C66.3566 151.98 66.6526 151.24 66.6526 150.28H63.5566V149.512H67.4806L67.4686 150.208ZM80.4114 152.752V153.508H70.8954V152.752H80.4114ZM79.5114 145.432V146.176H77.8554V149.872H79.4994V150.616H71.7714V149.872H73.3914V146.176H71.7474V145.432H79.5114ZM76.9674 149.872V146.176H74.3034V149.872H76.9674ZM89.4957 144.364V154.888H88.5957V144.364H89.4957ZM86.3277 145.372V149.08H82.4157V151.588C83.3597 151.588 84.2357 151.564 85.0437 151.516C85.8517 151.46 86.6957 151.36 87.5757 151.216L87.6717 151.948C86.7757 152.1 85.9197 152.204 85.1037 152.26C84.2877 152.308 83.3797 152.332 82.3797 152.332H81.5157V148.336H85.4277V146.104H81.4917V145.372H86.3277ZM96.312 145.408V152.224H91.512V145.408H96.312ZM92.4 146.14V151.492H95.448V146.14H92.4ZM99.48 144.364V154.888H98.58V144.364H99.48ZM103.704 145.192C104.176 145.192 104.6 145.324 104.976 145.588C105.352 145.844 105.656 146.216 105.888 146.704C106.12 147.192 106.256 147.76 106.296 148.408H108.648V144.364H109.536V154.888H108.648V149.128H106.296C106.272 149.808 106.144 150.404 105.912 150.916C105.688 151.42 105.384 151.812 105 152.092C104.616 152.364 104.184 152.5 103.704 152.5C103.2 152.5 102.748 152.352 102.348 152.056C101.956 151.752 101.648 151.324 101.424 150.772C101.208 150.22 101.1 149.576 101.1 148.84C101.1 148.112 101.208 147.472 101.424 146.92C101.648 146.368 101.956 145.944 102.348 145.648C102.748 145.344 103.2 145.192 103.704 145.192ZM103.704 145.996C103.36 145.996 103.056 146.116 102.792 146.356C102.528 146.588 102.32 146.92 102.168 147.352C102.024 147.776 101.952 148.272 101.952 148.84C101.952 149.408 102.024 149.908 102.168 150.34C102.32 150.772 102.528 151.108 102.792 151.348C103.056 151.58 103.36 151.696 103.704 151.696C104.048 151.696 104.352 151.58 104.616 151.348C104.88 151.108 105.084 150.772 105.228 150.34C105.38 149.908 105.456 149.408 105.456 148.84C105.456 148.272 105.38 147.776 105.228 147.352C105.084 146.92 104.88 146.588 104.616 146.356C104.352 146.116 104.048 145.996 103.704 145.996ZM122.118 144.376V154.876H121.254V144.376H122.118ZM120.03 144.616V154.336H119.178V149.224H117.798C117.766 150.248 117.546 151.06 117.138 151.66C116.738 152.252 116.214 152.548 115.566 152.548C115.118 152.548 114.726 152.4 114.39 152.104C114.062 151.808 113.806 151.384 113.622 150.832C113.438 150.28 113.346 149.636 113.346 148.9C113.346 148.164 113.438 147.524 113.622 146.98C113.806 146.428 114.062 146.004 114.39 145.708C114.726 145.412 115.118 145.264 115.566 145.264C116.206 145.264 116.722 145.552 117.114 146.128C117.514 146.696 117.742 147.48 117.798 148.48H119.178V144.616H120.03ZM115.566 146.104C115.142 146.104 114.802 146.356 114.546 146.86C114.298 147.364 114.174 148.044 114.174 148.9C114.174 149.756 114.298 150.44 114.546 150.952C114.802 151.456 115.142 151.708 115.566 151.708C116.006 151.708 116.35 151.456 116.598 150.952C116.854 150.448 116.982 149.764 116.982 148.9C116.982 148.044 116.854 147.364 116.598 146.86C116.35 146.356 116.006 146.104 115.566 146.104ZM129.15 147.052V144.58H130.002V151.96H129.15V147.796H127.482V147.052H129.15ZM132.054 144.376V152.248H131.202V144.376H132.054ZM126.126 151.288V153.892H132.378V154.636H125.226V151.288H126.126ZM126.294 145.12V146.68C126.294 147.32 126.482 147.924 126.858 148.492C127.234 149.06 127.742 149.488 128.382 149.776L127.878 150.46C127.406 150.244 126.998 149.944 126.654 149.56C126.318 149.176 126.058 148.74 125.874 148.252C125.682 148.796 125.402 149.288 125.034 149.728C124.674 150.16 124.25 150.492 123.762 150.724L123.258 150.04C123.69 149.832 124.07 149.544 124.398 149.176C124.734 148.808 124.99 148.404 125.166 147.964C125.342 147.524 125.43 147.096 125.43 146.68V145.12H126.294ZM140.947 145.48V144.376H141.847V149.884H140.947V148.108H138.835V147.388H140.947V146.212H138.835V145.48H140.947ZM141.847 150.412V152.848H136.015V154.024H142.243V154.732H135.127V152.176H140.959V151.132H135.115V150.412H141.847ZM136.747 144.64V145.756C136.747 146.22 136.859 146.668 137.083 147.1C137.307 147.532 137.615 147.916 138.007 148.252C138.399 148.58 138.843 148.832 139.339 149.008L138.871 149.704C138.287 149.48 137.771 149.156 137.323 148.732C136.883 148.308 136.551 147.82 136.327 147.268C136.103 147.876 135.763 148.412 135.307 148.876C134.851 149.34 134.319 149.684 133.711 149.908L133.243 149.212C133.747 149.028 134.199 148.76 134.599 148.408C134.999 148.056 135.311 147.652 135.535 147.196C135.759 146.732 135.871 146.252 135.871 145.756V144.64H136.747ZM147.889 152.764V149.896C147.441 149.664 147.089 149.364 146.833 148.996C146.585 148.62 146.461 148.2 146.461 147.736C146.461 147.2 146.621 146.728 146.941 146.32C147.269 145.912 147.721 145.6 148.297 145.384C148.873 145.16 149.529 145.048 150.265 145.048C151.001 145.048 151.657 145.16 152.233 145.384C152.809 145.6 153.257 145.912 153.577 146.32C153.905 146.728 154.069 147.2 154.069 147.736C154.069 148.192 153.945 148.604 153.697 148.972C153.457 149.34 153.117 149.644 152.677 149.884V152.764H155.041V153.508H145.525V152.764H147.889ZM150.265 145.768C149.697 145.768 149.189 145.852 148.741 146.02C148.301 146.18 147.957 146.408 147.709 146.704C147.461 147 147.337 147.344 147.337 147.736C147.337 148.128 147.461 148.472 147.709 148.768C147.957 149.064 148.301 149.296 148.741 149.464C149.189 149.624 149.697 149.704 150.265 149.704C150.833 149.704 151.337 149.624 151.777 149.464C152.225 149.296 152.573 149.064 152.821 148.768C153.077 148.472 153.205 148.128 153.205 147.736C153.205 147.344 153.077 147 152.821 146.704C152.573 146.408 152.225 146.18 151.777 146.02C151.337 145.852 150.833 145.768 150.265 145.768ZM151.777 152.764V150.232C151.321 150.352 150.817 150.412 150.265 150.412C149.729 150.412 149.233 150.352 148.777 150.232V152.764H151.777ZM163.801 144.94V145.708C163.801 146.284 163.785 146.8 163.753 147.256C163.721 147.712 163.641 148.232 163.513 148.816H165.049V149.56H155.533V148.816H162.625C162.761 148.232 162.845 147.712 162.877 147.256C162.909 146.8 162.925 146.284 162.925 145.708V145.684H156.757V144.94H163.801ZM163.849 151.024V154.744H156.709V151.024H163.849ZM157.585 151.744V154.012H162.973V151.744H157.585ZM174.433 144.376V154.876H173.569V144.376H174.433ZM171.469 148.168V144.628H172.309V154.324H171.469V148.912H169.693V148.168H171.469ZM170.497 145.624V146.368H168.589V147.364C168.589 148.3 168.789 149.18 169.189 150.004C169.589 150.828 170.137 151.444 170.833 151.852L170.281 152.512C169.777 152.208 169.345 151.788 168.985 151.252C168.625 150.708 168.349 150.092 168.157 149.404C167.973 150.14 167.693 150.804 167.317 151.396C166.941 151.98 166.493 152.436 165.973 152.764L165.421 152.092C166.125 151.66 166.681 151.012 167.089 150.148C167.505 149.276 167.713 148.348 167.713 147.364V146.368H165.685V145.624H170.497ZM185.551 146.872V144.388H186.451V152.248H185.551V147.628H183.223V146.872H185.551ZM181.375 145V146.344C181.375 147.08 181.615 147.764 182.095 148.396C182.575 149.028 183.191 149.488 183.943 149.776L183.463 150.472C182.887 150.248 182.379 149.916 181.939 149.476C181.507 149.028 181.179 148.516 180.955 147.94C180.731 148.572 180.387 149.132 179.923 149.62C179.467 150.1 178.931 150.468 178.315 150.724L177.847 150.004C178.359 149.812 178.815 149.528 179.215 149.152C179.615 148.776 179.927 148.344 180.151 147.856C180.375 147.36 180.487 146.848 180.487 146.32V145H181.375ZM180.619 151.36V153.892H186.703V154.636H179.719V151.36H180.619ZM192.343 145.144V145.888H189.175V147.244H192.235V147.952H189.175V149.428C189.967 149.428 190.627 149.408 191.155 149.368C191.691 149.328 192.231 149.256 192.775 149.152L192.871 149.884C192.295 149.996 191.723 150.072 191.155 150.112C190.595 150.152 189.867 150.172 188.971 150.172H188.311V145.144H192.343ZM196.675 144.376V150.736H195.823V147.88H194.347V150.676H193.495V144.58H194.347V147.136H195.823V144.376H196.675ZM196.675 151.3V154.876H195.787V152.044H189.655V151.3H196.675ZM203.809 145.3V147.208C203.809 147.832 203.937 148.452 204.193 149.068C204.449 149.676 204.793 150.22 205.225 150.7C205.657 151.18 206.125 151.536 206.629 151.768L206.089 152.488C205.489 152.192 204.949 151.748 204.469 151.156C203.989 150.556 203.625 149.88 203.377 149.128C203.137 149.928 202.773 150.644 202.285 151.276C201.797 151.908 201.245 152.376 200.629 152.68L200.077 151.936C200.581 151.696 201.049 151.328 201.481 150.832C201.921 150.336 202.269 149.772 202.525 149.14C202.781 148.5 202.909 147.856 202.909 147.208V145.3H203.809ZM208.693 144.364V154.888H207.793V144.364H208.693Z" fill="#AAAAAA"/>
<defs>
<filter id="filter0_d_4925_9137" x="68.3984" y="3.17969" width="112.428" height="23.6025" filterUnits="userSpaceOnUse" color-interpolation-filters="sRGB">
<feFlood flood-opacity="0" result="BackgroundImageFix"/>
<feColorMatrix in="SourceAlpha" type="matrix" values="0 0 0 0 0 0 0 0 0 0 0 0 0 0 0 0 0 0 127 0" result="hardAlpha"/>
<feOffset dx="1" dy="1"/>
<feGaussianBlur stdDeviation="1"/>
<feComposite in2="hardAlpha" operator="out"/>
<feColorMatrix type="matrix" values="0 0 0 0 0 0 0 0 0 0 0 0 0 0 0 0 0 0 0.4 0"/>
<feBlend mode="normal" in2="BackgroundImageFix" result="effect1_dropShadow_4925_9137"/>
<feBlend mode="normal" in="SourceGraphic" in2="effect1_dropShadow_4925_9137" result="shape"/>
</filter>
<filter id="filter1_d_4925_9137" x="2.2207" y="36.9385" width="245.158" height="95.4619" filterUnits="userSpaceOnUse" color-interpolation-filters="sRGB">
<feFlood flood-opacity="0" result="BackgroundImageFix"/>
<feColorMatrix in="SourceAlpha" type="matrix" values="0 0 0 0 0 0 0 0 0 0 0 0 0 0 0 0 0 0 127 0" result="hardAlpha"/>
<feOffset dx="1" dy="1"/>
<feGaussianBlur stdDeviation="1"/>
<feComposite in2="hardAlpha" operator="out"/>
<feColorMatrix type="matrix" values="0 0 0 0 0 0 0 0 0 0 0 0 0 0 0 0 0 0 0.4 0"/>
<feBlend mode="normal" in2="BackgroundImageFix" result="effect1_dropShadow_4925_9137"/>
<feBlend mode="normal" in="SourceGraphic" in2="effect1_dropShadow_4925_9137" result="shape"/>
</filter>
<linearGradient id="paint0_linear_4925_9137" x1="249" y1="70.5372" x2="10.2011" y2="46.4991" gradientUnits="userSpaceOnUse">
<stop stop-color="#FF008C"/>
<stop offset="1" stop-color="#FFC6E5"/>
</linearGradient>
</defs>
</svg>
