<svg width="229" height="126" viewBox="0 0 229 126" fill="none" xmlns="http://www.w3.org/2000/svg">
<g filter="url(#filter0_d_4051_1670)">
<path d="M17.9059 41.42C8.32987 41.42 1.98787 34.196 1.98787 25.67C1.98787 16.934 8.58187 9.92 17.6539 9.92C23.9959 9.92 28.9939 13.154 31.5979 17.774L26.5579 20.798C24.6259 17.228 21.6859 15.464 17.6959 15.464C11.9839 15.464 7.65787 20.126 7.65787 25.67C7.65787 31.34 11.9419 35.876 17.9059 35.876C22.5679 35.876 25.6339 33.272 26.7679 29.24H16.9819V23.78H32.8999V26.048C32.8999 34.322 27.1039 41.42 17.9059 41.42ZM47.1815 41.504C41.2595 41.504 35.0855 36.8 35.0855 28.736C35.0855 20.588 41.0495 15.926 47.2655 15.926C50.4995 15.926 53.3555 17.228 55.1615 19.37V16.43H60.8315V41H55.1615V37.808C53.3555 40.118 50.4155 41.504 47.1815 41.504ZM48.1055 36.296C52.3475 36.296 55.4555 32.894 55.4555 28.652C55.4555 24.452 52.3475 21.092 48.1055 21.092C43.9055 21.092 40.6715 24.41 40.6715 28.652C40.6715 32.936 43.9055 36.296 48.1055 36.296ZM64.0612 41V9.92H69.7732V41H64.0612ZM84.3417 41.504C78.4197 41.504 72.2457 36.8 72.2457 28.736C72.2457 20.588 78.2097 15.926 84.4257 15.926C87.6597 15.926 90.5157 17.228 92.3217 19.37V16.43H97.9917V41H92.3217V37.808C90.5157 40.118 87.5757 41.504 84.3417 41.504ZM85.2657 36.296C89.5077 36.296 92.6157 32.894 92.6157 28.652C92.6157 24.452 89.5077 21.092 85.2657 21.092C81.0657 21.092 77.8317 24.41 77.8317 28.652C77.8317 32.936 81.0657 36.296 85.2657 36.296ZM99.3832 41L108.623 28.484L99.7192 16.43H106.649L112.235 24.242L117.779 16.43H124.499L115.679 28.568L125.087 41H118.157L112.151 32.81L106.313 41H99.3832ZM130.138 52.34L135.304 39.782L125.224 16.43H131.272L138.118 32.978L144.586 16.43H150.55L135.892 52.34H130.138ZM169.126 41.42C163.624 41.42 159.97 39.068 157.156 35.918L162.364 31.802C163.918 34.49 166.27 35.96 169.084 35.96C172.108 35.96 173.746 33.986 173.746 31.844C173.746 29.282 170.596 28.442 167.362 27.434C163.204 26.09 158.668 24.536 158.668 18.698C158.668 13.784 162.952 9.92 168.832 9.92C173.746 9.92 176.644 11.81 179.122 14.372L174.418 17.942C173.116 15.968 171.268 15.002 168.874 15.002C166.06 15.002 164.59 16.514 164.59 18.488C164.59 20.966 167.488 21.68 170.848 22.814C175.006 24.158 179.71 26.006 179.71 31.886C179.71 36.716 175.846 41.42 169.126 41.42ZM182.208 41V35.624C182.208 30.332 186.45 27.266 190.272 24.662C193.296 22.52 196.068 20.84 196.068 18.488C196.068 16.472 194.598 14.834 191.868 14.834C189.18 14.834 187.542 16.64 186.492 19.202L181.578 16.724C183.468 12.524 186.87 9.92 191.91 9.92C198.126 9.92 201.864 13.7 201.864 18.53C201.864 23.36 197.916 26.09 194.22 28.568C191.07 30.71 187.92 32.642 187.92 35.54H201.738V41H182.208ZM214.553 41.42C209.177 41.42 205.691 38.606 204.095 35.54L209.387 32.474C210.269 34.448 211.865 36.17 214.595 36.17C217.115 36.17 219.299 34.196 219.299 31.34C219.299 28.484 217.493 26.258 214.469 26.258C212.075 26.258 210.605 27.56 209.555 29.366L204.473 26.762L206.657 10.34H223.709V15.674H211.193L210.311 22.478C211.487 21.68 213.125 21.05 215.099 21.05C220.601 21.05 225.053 24.662 225.053 31.34C225.053 37.304 220.643 41.42 214.553 41.42Z" fill="url(#paint0_linear_4051_1670)"/>
<path d="M50.3813 95.12L46.1413 95.08V70.64L40.3013 74.16L38.4613 70.64L46.1813 66.04H50.3813V95.12ZM66.8003 91.64C68.4803 91.64 69.947 91.1867 71.2003 90.28C72.4536 89.3733 73.4136 88.0933 74.0803 86.44C74.747 84.76 75.0803 82.8 75.0803 80.56C75.0803 78.2933 74.747 76.3333 74.0803 74.68C73.4136 73 72.4536 71.7067 71.2003 70.8C69.947 69.8933 68.4803 69.44 66.8003 69.44C65.1203 69.44 63.6536 69.8933 62.4003 70.8C61.147 71.7067 60.1736 73 59.4803 74.68C58.8136 76.3333 58.4803 78.2933 58.4803 80.56C58.4803 82.8 58.8136 84.76 59.4803 86.44C60.1736 88.0933 61.147 89.3733 62.4003 90.28C63.6536 91.1867 65.1203 91.64 66.8003 91.64ZM66.8003 95.4C64.2403 95.4 62.0136 94.8 60.1203 93.6C58.227 92.3733 56.7736 90.6533 55.7603 88.44C54.747 86.2 54.2403 83.5733 54.2403 80.56C54.2403 77.5467 54.747 74.92 55.7603 72.68C56.7736 70.44 58.227 68.72 60.1203 67.52C62.0136 66.32 64.2403 65.72 66.8003 65.72C69.3336 65.72 71.547 66.32 73.4403 67.52C75.3336 68.72 76.787 70.44 77.8003 72.68C78.8136 74.92 79.3203 77.5467 79.3203 80.56C79.3203 83.5733 78.8136 86.2 77.8003 88.44C76.787 90.6533 75.3336 92.3733 73.4403 93.6C71.547 94.8 69.3336 95.4 66.8003 95.4ZM81.5466 65H98.2666V81.68H81.5466V65ZM90.3466 85.52V94.12H109.067V97.68H85.8666V85.52H90.3466ZM93.9466 78.16V68.52H85.8666V78.16H93.9466ZM103.787 62.6H108.187V73.08H113.107V76.72H108.187V87.12H103.787V62.6ZM123.921 76.56C122.241 76.56 120.747 76.28 119.441 75.72C118.161 75.16 117.147 74.36 116.401 73.32C115.681 72.28 115.321 71.0667 115.321 69.68C115.321 68.2933 115.681 67.08 116.401 66.04C117.147 65 118.161 64.2 119.441 63.64C120.747 63.08 122.241 62.8 123.921 62.8C125.601 62.8 127.081 63.08 128.361 63.64C129.667 64.2 130.681 65 131.401 66.04C132.147 67.08 132.521 68.2933 132.521 69.68C132.521 71.0667 132.147 72.28 131.401 73.32C130.681 74.36 129.667 75.16 128.361 75.72C127.081 76.28 125.601 76.56 123.921 76.56ZM122.081 87.52V81.64H113.321V78.12H135.601V81.64H126.481V88.12H122.721V94H142.481V97.52H118.361V87.52H122.081ZM130.921 83.76H137.921V62.6H142.321V90H137.921V86.8H130.921V83.76ZM123.921 73.04C125.307 73.04 126.401 72.7467 127.201 72.16C128.027 71.5467 128.441 70.72 128.441 69.68C128.441 68.64 128.027 67.8267 127.201 67.24C126.401 66.6533 125.307 66.36 123.921 66.36C122.561 66.36 121.467 66.6533 120.641 67.24C119.814 67.8267 119.401 68.64 119.401 69.68C119.401 70.72 119.814 71.5467 120.641 72.16C121.467 72.7467 122.561 73.04 123.921 73.04ZM175.535 62.6V97H171.335V80.12H167.455V95.24H163.375V63.32H167.455V76.52H171.335V62.6H175.535ZM160.855 87.88H146.615V65.68H160.055V69.28H151.015V84.24H160.855V87.88ZM185.429 87.2H181.349L180.589 64.8H186.069L185.429 87.2ZM183.429 90.96C184.149 90.96 184.735 91.1867 185.189 91.64C185.642 92.0933 185.869 92.6933 185.869 93.44C185.869 94.1867 185.642 94.7867 185.189 95.24C184.735 95.72 184.149 95.96 183.429 95.96C182.682 95.96 182.069 95.72 181.589 95.24C181.135 94.7867 180.909 94.1867 180.909 93.44C180.909 92.6933 181.135 92.0933 181.589 91.64C182.069 91.1867 182.682 90.96 183.429 90.96Z" fill="#FF008C"/>
</g>
<path d="M12.1884 118.056L15.4284 114.804L16.0284 115.404L12.7764 118.656L16.0044 121.884L15.4284 122.472L12.2004 119.232L8.94836 122.484L8.36036 121.896L11.6004 118.644L8.36036 115.404L8.94836 114.816L12.1884 118.056ZM12.2244 115.776C12.0644 115.776 11.9324 115.724 11.8284 115.62C11.7244 115.516 11.6724 115.384 11.6724 115.224C11.6724 115.064 11.7244 114.936 11.8284 114.84C11.9324 114.736 12.0644 114.684 12.2244 114.684C12.3844 114.684 12.5124 114.736 12.6084 114.84C12.7124 114.936 12.7644 115.064 12.7644 115.224C12.7644 115.384 12.7124 115.516 12.6084 115.62C12.5124 115.724 12.3844 115.776 12.2244 115.776ZM12.2244 122.508C12.0644 122.508 11.9324 122.456 11.8284 122.352C11.7244 122.248 11.6724 122.116 11.6724 121.956C11.6724 121.796 11.7244 121.668 11.8284 121.572C11.9324 121.468 12.0644 121.416 12.2244 121.416C12.3844 121.416 12.5124 121.468 12.6084 121.572C12.7124 121.668 12.7644 121.796 12.7644 121.956C12.7644 122.116 12.7124 122.248 12.6084 122.352C12.5124 122.456 12.3844 122.508 12.2244 122.508ZM8.98436 119.148C8.82436 119.148 8.69236 119.096 8.58836 118.992C8.48436 118.888 8.43236 118.756 8.43236 118.596C8.43236 118.436 8.48436 118.308 8.58836 118.212C8.69236 118.108 8.82436 118.056 8.98436 118.056C9.14436 118.056 9.27236 118.108 9.36836 118.212C9.47236 118.308 9.52436 118.436 9.52436 118.596C9.52436 118.756 9.47236 118.888 9.36836 118.992C9.27236 119.096 9.14436 119.148 8.98436 119.148ZM15.4764 119.148C15.3164 119.148 15.1844 119.096 15.0804 118.992C14.9764 118.888 14.9244 118.756 14.9244 118.596C14.9244 118.436 14.9764 118.308 15.0804 118.212C15.1844 118.108 15.3164 118.056 15.4764 118.056C15.6364 118.056 15.7644 118.108 15.8604 118.212C15.9644 118.308 16.0164 118.436 16.0164 118.596C16.0164 118.756 15.9644 118.888 15.8604 118.992C15.7644 119.096 15.6364 119.148 15.4764 119.148ZM28.7796 119.208C28.7796 120.016 28.6036 120.708 28.2516 121.284C27.8996 121.86 27.4156 122.304 26.7996 122.616C26.1836 122.92 25.4876 123.08 24.7116 123.096C23.8876 123.096 23.1516 122.908 22.5036 122.532C21.8636 122.156 21.3596 121.632 20.9916 120.96C20.6316 120.288 20.4516 119.524 20.4516 118.668C20.4516 117.812 20.6316 117.052 20.9916 116.388C21.3596 115.716 21.8636 115.192 22.5036 114.816C23.1516 114.44 23.8876 114.252 24.7116 114.252C25.5116 114.252 26.1756 114.408 26.7036 114.72C27.2396 115.024 27.6156 115.324 27.8316 115.62C28.0476 115.916 28.2116 116.156 28.3236 116.34L27.5556 116.688C27.4676 116.544 27.3396 116.356 27.1716 116.124C27.0036 115.884 26.7076 115.64 26.2836 115.392C25.8676 115.144 25.3436 115.02 24.7116 115.02C24.0556 115.02 23.4676 115.176 22.9476 115.488C22.4356 115.8 22.0356 116.232 21.7476 116.784C21.4596 117.336 21.3156 117.964 21.3156 118.668C21.3156 119.372 21.4596 120.004 21.7476 120.564C22.0356 121.116 22.4356 121.548 22.9476 121.86C23.4676 122.172 24.0556 122.328 24.7116 122.328C25.6956 122.288 26.4836 122.012 27.0756 121.5C27.6676 120.98 27.9636 120.24 27.9636 119.28H24.8676V118.512H28.7916L28.7796 119.208ZM32.2842 123.084C31.7802 123.084 31.3282 122.964 30.9282 122.724C30.5282 122.484 30.2162 122.152 29.9922 121.728C29.7682 121.304 29.6562 120.824 29.6562 120.288C29.6562 119.752 29.7682 119.272 29.9922 118.848C30.2162 118.416 30.5282 118.08 30.9282 117.84C31.3282 117.6 31.7802 117.48 32.2842 117.48C32.6042 117.48 32.9202 117.568 33.2322 117.744C33.5522 117.92 33.8322 118.176 34.0722 118.512V117.468H34.9362V123H34.0722V122.04C33.8322 122.4 33.5562 122.664 33.2442 122.832C32.9402 123 32.6202 123.084 32.2842 123.084ZM32.2962 122.304C32.6082 122.304 32.9002 122.22 33.1722 122.052C33.4442 121.876 33.6642 121.636 33.8322 121.332C34.0002 121.02 34.0842 120.672 34.0842 120.288C34.0842 119.912 34.0002 119.568 33.8322 119.256C33.6642 118.944 33.4442 118.7 33.1722 118.524C32.9002 118.348 32.6082 118.26 32.2962 118.26C31.7762 118.26 31.3482 118.452 31.0122 118.836C30.6842 119.212 30.5202 119.696 30.5202 120.288C30.5202 120.88 30.6842 121.364 31.0122 121.74C31.3482 122.116 31.7762 122.304 32.2962 122.304ZM36.9574 114.576V123H36.0934V114.576H36.9574ZM40.3945 123.084C39.8905 123.084 39.4385 122.964 39.0385 122.724C38.6385 122.484 38.3265 122.152 38.1025 121.728C37.8785 121.304 37.7665 120.824 37.7665 120.288C37.7665 119.752 37.8785 119.272 38.1025 118.848C38.3265 118.416 38.6385 118.08 39.0385 117.84C39.4385 117.6 39.8905 117.48 40.3945 117.48C40.7145 117.48 41.0305 117.568 41.3425 117.744C41.6625 117.92 41.9425 118.176 42.1825 118.512V117.468H43.0465V123H42.1825V122.04C41.9425 122.4 41.6665 122.664 41.3545 122.832C41.0505 123 40.7305 123.084 40.3945 123.084ZM40.4065 122.304C40.7185 122.304 41.0105 122.22 41.2825 122.052C41.5545 121.876 41.7745 121.636 41.9425 121.332C42.1105 121.02 42.1945 120.672 42.1945 120.288C42.1945 119.912 42.1105 119.568 41.9425 119.256C41.7745 118.944 41.5545 118.7 41.2825 118.524C41.0105 118.348 40.7185 118.26 40.4065 118.26C39.8865 118.26 39.4585 118.452 39.1225 118.836C38.7945 119.212 38.6305 119.696 38.6305 120.288C38.6305 120.88 38.7945 121.364 39.1225 121.74C39.4585 122.116 39.8865 122.304 40.4065 122.304ZM47.0809 120.24L49.1809 123H48.0889L46.6249 121.02L45.1609 123H44.0689L46.1569 120.24L44.0689 117.468H45.1609L46.6249 119.472L48.0889 117.468H49.1809L47.0809 120.24ZM50.6711 125.58L51.8231 122.748L49.5791 117.468H50.5271L52.2791 121.704L53.9471 117.468H54.8831L52.7951 122.64L51.6191 125.58H50.6711ZM59.0038 120.732C59.2358 121.204 59.5478 121.588 59.9398 121.884C60.3318 122.18 60.7678 122.328 61.2478 122.328C61.8238 122.328 62.2838 122.184 62.6278 121.896C62.9798 121.608 63.1558 121.224 63.1558 120.744C63.1558 120.4 63.0638 120.116 62.8798 119.892C62.7038 119.668 62.4798 119.488 62.2078 119.352C61.9358 119.216 61.5718 119.064 61.1158 118.896C60.5798 118.696 60.1478 118.508 59.8198 118.332C59.4918 118.156 59.2118 117.908 58.9798 117.588C58.7558 117.268 58.6438 116.86 58.6438 116.364C58.6438 115.708 58.8878 115.192 59.3758 114.816C59.8718 114.432 60.4998 114.24 61.2598 114.24C61.8998 114.24 62.4438 114.4 62.8918 114.72C63.3398 115.032 63.6638 115.496 63.8638 116.112L63.0718 116.388C62.9598 115.972 62.7398 115.64 62.4118 115.392C62.0918 115.136 61.7158 115.008 61.2838 115.008C60.7558 115.008 60.3278 115.132 59.9998 115.38C59.6718 115.62 59.5078 115.952 59.5078 116.376C59.5078 116.712 59.5958 116.992 59.7718 117.216C59.9558 117.432 60.1798 117.608 60.4438 117.744C60.7158 117.88 61.0758 118.032 61.5238 118.2C62.0678 118.4 62.5038 118.588 62.8318 118.764C63.1598 118.94 63.4398 119.192 63.6718 119.52C63.9038 119.84 64.0198 120.252 64.0198 120.756C64.0198 121.22 63.9038 121.628 63.6718 121.98C63.4478 122.332 63.1278 122.608 62.7118 122.808C62.3038 123 61.8238 123.096 61.2718 123.096C60.0078 123.096 59.0038 122.44 58.2598 121.128L59.0038 120.732ZM66.0805 121.344C66.8005 120.672 67.3845 120.108 67.8325 119.652C68.2804 119.188 68.6604 118.716 68.9725 118.236C69.2925 117.748 69.4525 117.304 69.4525 116.904C69.4525 116.344 69.2925 115.888 68.9725 115.536C68.6525 115.176 68.2365 114.996 67.7244 114.996C67.3565 114.996 67.0005 115.124 66.6564 115.38C66.3205 115.628 66.0645 115.948 65.8885 116.34L65.0964 116.004C65.3204 115.484 65.6765 115.06 66.1645 114.732C66.6605 114.396 67.1805 114.228 67.7244 114.228C68.2285 114.228 68.6765 114.344 69.0685 114.576C69.4605 114.8 69.7645 115.116 69.9805 115.524C70.2045 115.924 70.3165 116.384 70.3165 116.904C70.3165 117.416 70.1445 117.948 69.8005 118.5C69.4645 119.052 69.0605 119.572 68.5884 120.06C68.1165 120.548 67.5125 121.132 66.7765 121.812L66.3084 122.244H70.4605V123.012H65.2524L65.1324 122.244L66.0805 121.344ZM71.7159 118.764L71.9919 114.324H76.3119V115.092H72.8199L72.6519 117.78C73.1319 117.508 73.6079 117.372 74.0799 117.372C74.6479 117.372 75.1519 117.492 75.5919 117.732C76.0399 117.972 76.3879 118.308 76.6359 118.74C76.8839 119.172 77.0079 119.664 77.0079 120.216C77.0079 120.776 76.8839 121.276 76.6359 121.716C76.3879 122.156 76.0399 122.5 75.5919 122.748C75.1519 122.996 74.6479 123.12 74.0799 123.12C73.4159 123.12 72.8239 122.92 72.3039 122.52C71.7919 122.112 71.4599 121.588 71.3079 120.948L72.1479 120.756C72.2519 121.212 72.4839 121.584 72.8439 121.872C73.2039 122.16 73.6159 122.304 74.0799 122.304C74.4799 122.304 74.8359 122.216 75.1479 122.04C75.4599 121.864 75.7039 121.616 75.8799 121.296C76.0559 120.976 76.1439 120.616 76.1439 120.216C76.1439 119.824 76.0559 119.476 75.8799 119.172C75.7039 118.86 75.4599 118.62 75.1479 118.452C74.8359 118.276 74.4799 118.188 74.0799 118.188C73.8239 118.188 73.5559 118.256 73.2759 118.392C72.9959 118.528 72.7639 118.7 72.5799 118.908L71.7159 118.764ZM83.7685 123.084C83.1045 123.084 82.5325 122.94 82.0525 122.652C81.5725 122.356 81.2045 121.948 80.9485 121.428C80.6925 120.908 80.5645 120.308 80.5645 119.628V114.336H81.4285V119.64C81.4285 120.448 81.6325 121.096 82.0405 121.584C82.4565 122.072 83.0325 122.316 83.7685 122.316C84.5045 122.316 85.0765 122.072 85.4845 121.584C85.9005 121.096 86.1085 120.448 86.1085 119.64V114.336H86.9725V119.628C86.9725 120.308 86.8445 120.908 86.5885 121.428C86.3325 121.948 85.9645 122.356 85.4845 122.652C85.0045 122.94 84.4325 123.084 83.7685 123.084ZM89.2043 114.576V123H88.3403V114.576H89.2043ZM90.7725 118.236H89.7765V117.468H90.7725V115.56H91.6365V117.468H92.9445V118.236H91.6365V123H90.7725V118.236ZM93.7327 117.468H94.5967V118.44C94.7887 118.128 95.0607 117.876 95.4127 117.684C95.7647 117.492 96.1367 117.4 96.5287 117.408V118.26C96.1927 118.252 95.8767 118.336 95.5807 118.512C95.2847 118.68 95.0447 118.912 94.8607 119.208C94.6847 119.496 94.5967 119.812 94.5967 120.156V123H93.7327V117.468ZM99.4041 123.084C98.9001 123.084 98.4481 122.964 98.0481 122.724C97.6481 122.484 97.3361 122.152 97.1121 121.728C96.8881 121.304 96.7761 120.824 96.7761 120.288C96.7761 119.752 96.8881 119.272 97.1121 118.848C97.3361 118.416 97.6481 118.08 98.0481 117.84C98.4481 117.6 98.9001 117.48 99.4041 117.48C99.7241 117.48 100.04 117.568 100.352 117.744C100.672 117.92 100.952 118.176 101.192 118.512V117.468H102.056V123H101.192V122.04C100.952 122.4 100.676 122.664 100.364 122.832C100.06 123 99.7401 123.084 99.4041 123.084ZM99.4161 122.304C99.7281 122.304 100.02 122.22 100.292 122.052C100.564 121.876 100.784 121.636 100.952 121.332C101.12 121.02 101.204 120.672 101.204 120.288C101.204 119.912 101.12 119.568 100.952 119.256C100.784 118.944 100.564 118.7 100.292 118.524C100.02 118.348 99.7281 118.26 99.4161 118.26C98.8961 118.26 98.4681 118.452 98.1321 118.836C97.8041 119.212 97.6401 119.696 97.6401 120.288C97.6401 120.88 97.8041 121.364 98.1321 121.74C98.4681 122.116 98.8961 122.304 99.4161 122.304ZM106.444 121.344C107.164 120.672 107.748 120.108 108.196 119.652C108.644 119.188 109.024 118.716 109.336 118.236C109.656 117.748 109.816 117.304 109.816 116.904C109.816 116.344 109.656 115.888 109.336 115.536C109.016 115.176 108.6 114.996 108.088 114.996C107.72 114.996 107.364 115.124 107.02 115.38C106.684 115.628 106.428 115.948 106.252 116.34L105.46 116.004C105.684 115.484 106.04 115.06 106.528 114.732C107.024 114.396 107.544 114.228 108.088 114.228C108.592 114.228 109.04 114.344 109.432 114.576C109.824 114.8 110.128 115.116 110.344 115.524C110.568 115.924 110.68 116.384 110.68 116.904C110.68 117.416 110.508 117.948 110.164 118.5C109.828 119.052 109.424 119.572 108.952 120.06C108.48 120.548 107.876 121.132 107.14 121.812L106.672 122.244H110.824V123.012H105.616L105.496 122.244L106.444 121.344ZM112.079 118.764L112.355 114.324H116.675V115.092H113.183L113.015 117.78C113.495 117.508 113.971 117.372 114.443 117.372C115.011 117.372 115.515 117.492 115.955 117.732C116.403 117.972 116.751 118.308 116.999 118.74C117.247 119.172 117.371 119.664 117.371 120.216C117.371 120.776 117.247 121.276 116.999 121.716C116.751 122.156 116.403 122.5 115.955 122.748C115.515 122.996 115.011 123.12 114.443 123.12C113.779 123.12 113.187 122.92 112.667 122.52C112.155 122.112 111.823 121.588 111.671 120.948L112.511 120.756C112.615 121.212 112.847 121.584 113.207 121.872C113.567 122.16 113.979 122.304 114.443 122.304C114.843 122.304 115.199 122.216 115.511 122.04C115.823 121.864 116.067 121.616 116.243 121.296C116.419 120.976 116.507 120.616 116.507 120.216C116.507 119.824 116.419 119.476 116.243 119.172C116.067 118.86 115.823 118.62 115.511 118.452C115.199 118.276 114.843 118.188 114.443 118.188C114.187 118.188 113.919 118.256 113.639 118.392C113.359 118.528 113.127 118.7 112.943 118.908L112.079 118.764ZM121.054 122.328C121.646 122.328 122.13 122.136 122.506 121.752C122.882 121.36 123.07 120.86 123.07 120.252C123.07 119.636 122.882 119.136 122.506 118.752C122.13 118.36 121.646 118.164 121.054 118.164C120.678 118.164 120.338 118.252 120.034 118.428C119.738 118.604 119.506 118.852 119.338 119.172C119.17 119.492 119.086 119.852 119.086 120.252C119.086 120.86 119.27 121.36 119.638 121.752C120.006 122.136 120.478 122.328 121.054 122.328ZM118.222 120.252C118.222 119.7 118.37 119.164 118.666 118.644L121.126 114.336H122.122L120.31 117.48C120.59 117.424 120.846 117.396 121.078 117.396C121.63 117.396 122.122 117.52 122.554 117.768C122.986 118.008 123.322 118.344 123.562 118.776C123.81 119.208 123.934 119.7 123.934 120.252C123.934 120.804 123.81 121.296 123.562 121.728C123.322 122.16 122.986 122.496 122.554 122.736C122.122 122.976 121.63 123.096 121.078 123.096C120.526 123.096 120.034 122.976 119.602 122.736C119.17 122.496 118.83 122.16 118.582 121.728C118.342 121.296 118.222 120.804 118.222 120.252ZM133.437 119.208C133.437 120.016 133.261 120.708 132.909 121.284C132.557 121.86 132.073 122.304 131.457 122.616C130.841 122.92 130.145 123.08 129.369 123.096C128.545 123.096 127.809 122.908 127.161 122.532C126.521 122.156 126.017 121.632 125.649 120.96C125.289 120.288 125.109 119.524 125.109 118.668C125.109 117.812 125.289 117.052 125.649 116.388C126.017 115.716 126.521 115.192 127.161 114.816C127.809 114.44 128.545 114.252 129.369 114.252C130.169 114.252 130.833 114.408 131.361 114.72C131.897 115.024 132.273 115.324 132.489 115.62C132.705 115.916 132.869 116.156 132.981 116.34L132.213 116.688C132.125 116.544 131.997 116.356 131.829 116.124C131.661 115.884 131.365 115.64 130.941 115.392C130.525 115.144 130.001 115.02 129.369 115.02C128.713 115.02 128.125 115.176 127.605 115.488C127.093 115.8 126.693 116.232 126.405 116.784C126.117 117.336 125.973 117.964 125.973 118.668C125.973 119.372 126.117 120.004 126.405 120.564C126.693 121.116 127.093 121.548 127.605 121.86C128.125 122.172 128.713 122.328 129.369 122.328C130.353 122.288 131.141 122.012 131.733 121.5C132.325 120.98 132.621 120.24 132.621 119.28H129.525V118.512H133.449L133.437 119.208ZM134.674 114.336H137.302C137.758 114.336 138.166 114.436 138.526 114.636C138.886 114.836 139.166 115.116 139.366 115.476C139.574 115.828 139.678 116.232 139.678 116.688C139.678 116.96 139.61 117.248 139.474 117.552C139.338 117.848 139.154 118.108 138.922 118.332L139.21 118.488C139.546 118.712 139.822 119.02 140.038 119.412C140.254 119.804 140.362 120.196 140.362 120.588C140.362 121.052 140.258 121.468 140.05 121.836C139.85 122.204 139.57 122.492 139.21 122.7C138.85 122.9 138.438 123 137.974 123H134.674V114.336ZM137.986 122.232C138.434 122.232 138.802 122.08 139.09 121.776C139.378 121.472 139.522 121.084 139.522 120.612C139.522 120.108 139.378 119.696 139.09 119.376C138.802 119.056 138.434 118.896 137.986 118.896H135.538V122.232H137.986ZM137.518 118.128C137.91 118.112 138.23 117.968 138.478 117.696C138.726 117.424 138.85 117.08 138.85 116.664C138.85 116.208 138.706 115.836 138.418 115.548C138.13 115.252 137.762 115.104 137.314 115.104H135.538V118.128H137.518ZM147.653 121.764V119.172H144.485V114.252H151.709V119.172H148.541V121.764H152.873V122.508H143.357V121.764H147.653ZM145.361 114.972V118.452H150.833V114.972H145.361ZM162.857 118.692V119.424H153.377V118.692H162.857ZM161.669 113.832V114.564H155.465V116.76H161.765V117.516H154.577V113.832H161.669ZM155.489 120.564V122.892H161.849V123.636H154.601V120.564H155.489ZM174.563 113.376V123.876H173.699V113.376H174.563ZM172.619 113.616V123.348H171.779V120.072H170.243C170.083 120.512 169.823 120.864 169.463 121.128C169.103 121.384 168.687 121.512 168.215 121.512C167.799 121.512 167.423 121.412 167.087 121.212C166.751 121.004 166.487 120.716 166.295 120.348C166.111 119.98 166.019 119.56 166.019 119.088C166.019 118.616 166.111 118.2 166.295 117.84C166.487 117.472 166.747 117.188 167.075 116.988C167.411 116.78 167.791 116.676 168.215 116.676C168.639 116.676 169.015 116.78 169.343 116.988C169.679 117.188 169.939 117.472 170.123 117.84C170.315 118.2 170.411 118.616 170.411 119.088L170.399 119.34H171.779V117.684H170.291V116.952H171.779V113.616H172.619ZM167.783 115.2V113.652H168.671V115.2H170.831V115.932H165.635V115.2H167.783ZM168.215 117.444C167.815 117.444 167.483 117.6 167.219 117.912C166.955 118.216 166.823 118.608 166.823 119.088C166.823 119.568 166.955 119.964 167.219 120.276C167.483 120.58 167.815 120.732 168.215 120.732C168.623 120.732 168.959 120.58 169.223 120.276C169.487 119.964 169.619 119.568 169.619 119.088C169.619 118.608 169.487 118.216 169.223 117.912C168.959 117.6 168.623 117.444 168.215 117.444ZM180.167 114.144V114.888H176.999V116.244H180.059V116.952H176.999V118.428C177.791 118.428 178.451 118.408 178.979 118.368C179.515 118.328 180.055 118.256 180.599 118.152L180.695 118.884C180.119 118.996 179.547 119.072 178.979 119.112C178.419 119.152 177.691 119.172 176.795 119.172H176.135V114.144H180.167ZM184.499 113.376V119.736H183.647V116.88H182.171V119.676H181.319V113.58H182.171V116.136H183.647V113.376H184.499ZM184.499 120.3V123.876H183.611V121.044H177.479V120.3H184.499ZM195.665 116.136V113.376H196.565V119.652H195.665V116.892H193.553V116.136H195.665ZM193.889 114.108V114.852H191.549V115.32C191.549 115.768 191.657 116.208 191.873 116.64C192.097 117.064 192.405 117.44 192.797 117.768C193.189 118.096 193.633 118.348 194.129 118.524L193.661 119.244C193.077 119.028 192.565 118.712 192.125 118.296C191.685 117.872 191.353 117.384 191.129 116.832C190.905 117.44 190.557 117.976 190.085 118.44C189.621 118.904 189.081 119.252 188.465 119.484L187.997 118.776C188.509 118.592 188.965 118.324 189.365 117.972C189.765 117.62 190.077 117.216 190.301 116.76C190.533 116.296 190.649 115.816 190.649 115.32V114.852H188.285V114.108H193.889ZM196.565 120.24V123.876H195.665V120.984H189.581V120.24H196.565ZM200.333 118.596V117.096C199.461 116.744 199.025 116.22 199.025 115.524C199.025 114.908 199.353 114.432 200.009 114.096C200.665 113.752 201.565 113.58 202.709 113.58C203.853 113.58 204.753 113.752 205.409 114.096C206.065 114.432 206.393 114.908 206.393 115.524C206.393 115.876 206.281 116.184 206.057 116.448C205.833 116.704 205.513 116.916 205.097 117.084V118.596H207.449V119.316H197.969V118.596H200.333ZM202.709 120.144C203.837 120.144 204.717 120.308 205.349 120.636C205.981 120.956 206.297 121.408 206.297 121.992C206.297 122.592 205.981 123.052 205.349 123.372C204.717 123.7 203.837 123.864 202.709 123.864C201.581 123.864 200.701 123.7 200.069 123.372C199.437 123.052 199.121 122.592 199.121 121.992C199.121 121.408 199.437 120.956 200.069 120.636C200.701 120.308 201.581 120.144 202.709 120.144ZM202.709 120.84C201.869 120.84 201.209 120.944 200.729 121.152C200.257 121.352 200.021 121.632 200.021 121.992C200.021 122.36 200.257 122.648 200.729 122.856C201.201 123.056 201.861 123.156 202.709 123.156C203.549 123.156 204.205 123.056 204.677 122.856C205.149 122.648 205.385 122.36 205.385 121.992C205.385 121.632 205.145 121.352 204.665 121.152C204.193 120.944 203.541 120.84 202.709 120.84ZM202.709 114.276C201.861 114.276 201.189 114.388 200.693 114.612C200.197 114.828 199.949 115.132 199.949 115.524C199.949 115.908 200.197 116.212 200.693 116.436C201.189 116.652 201.861 116.76 202.709 116.76C203.557 116.76 204.229 116.652 204.725 116.436C205.221 116.212 205.469 115.908 205.469 115.524C205.469 115.132 205.221 114.828 204.725 114.612C204.229 114.388 203.557 114.276 202.709 114.276ZM204.209 118.596V117.336C203.713 117.416 203.213 117.456 202.709 117.456C202.141 117.456 201.645 117.416 201.221 117.336V118.596H204.209ZM213.935 114.3V116.208C213.935 116.832 214.063 117.452 214.319 118.068C214.575 118.676 214.919 119.22 215.351 119.7C215.783 120.18 216.251 120.536 216.755 120.768L216.215 121.488C215.615 121.192 215.075 120.748 214.595 120.156C214.115 119.556 213.751 118.88 213.503 118.128C213.263 118.928 212.899 119.644 212.411 120.276C211.923 120.908 211.371 121.376 210.755 121.68L210.203 120.936C210.707 120.696 211.175 120.328 211.607 119.832C212.047 119.336 212.395 118.772 212.651 118.14C212.907 117.5 213.035 116.856 213.035 116.208V114.3H213.935ZM218.819 113.364V123.888H217.919V113.364H218.819Z" fill="#AAAAAA"/>
<defs>
<filter id="filter0_d_4051_1670" x="0.987854" y="8.91992" width="227.066" height="91.7598" filterUnits="userSpaceOnUse" color-interpolation-filters="sRGB">
<feFlood flood-opacity="0" result="BackgroundImageFix"/>
<feColorMatrix in="SourceAlpha" type="matrix" values="0 0 0 0 0 0 0 0 0 0 0 0 0 0 0 0 0 0 127 0" result="hardAlpha"/>
<feOffset dx="1" dy="1"/>
<feGaussianBlur stdDeviation="1"/>
<feComposite in2="hardAlpha" operator="out"/>
<feColorMatrix type="matrix" values="0 0 0 0 0 0 0 0 0 0 0 0 0 0 0 0 0 0 0.4 0"/>
<feBlend mode="normal" in2="BackgroundImageFix" result="effect1_dropShadow_4051_1670"/>
<feBlend mode="normal" in="SourceGraphic" in2="effect1_dropShadow_4051_1670" result="shape"/>
</filter>
<linearGradient id="paint0_linear_4051_1670" x1="226" y1="40.1653" x2="9.85301" y2="20.3225" gradientUnits="userSpaceOnUse">
<stop stop-color="#FF008C"/>
<stop offset="1" stop-color="#FFC6E5"/>
</linearGradient>
</defs>
</svg>
