<svg width="229" height="156" viewBox="0 0 229 156" fill="none" xmlns="http://www.w3.org/2000/svg">
<g filter="url(#filter0_d_4925_2312)">
<path d="M17.5019 19.074V15.906C16.5632 15.8033 15.7345 15.51 15.0159 15.026C14.2972 14.542 13.7325 13.9187 13.3219 13.156C12.9259 12.3787 12.7279 11.5133 12.7279 10.56C12.7279 9.51867 12.9625 8.58733 13.4319 7.766C13.9159 6.94467 14.5759 6.30667 15.4119 5.852C16.2625 5.38267 17.2305 5.148 18.3159 5.148C19.4159 5.148 20.3912 5.38267 21.2419 5.852C22.1072 6.30667 22.7745 6.94467 23.2439 7.766C23.7279 8.58733 23.9699 9.51867 23.9699 10.56C23.9699 11.5133 23.7645 12.3787 23.3539 13.156C22.9579 13.9187 22.3932 14.542 21.6599 15.026C20.9265 15.51 20.0832 15.8033 19.1299 15.906V19.074H27.0719V20.438H9.62588V19.074H17.5019ZM14.3119 10.56C14.3119 11.3227 14.4805 12.012 14.8179 12.628C15.1552 13.2293 15.6245 13.6987 16.2259 14.036C16.8419 14.3733 17.5385 14.542 18.3159 14.542C19.1079 14.542 19.8119 14.3733 20.4279 14.036C21.0439 13.6987 21.5205 13.2293 21.8579 12.628C22.2099 12.012 22.3859 11.3227 22.3859 10.56C22.3859 9.78267 22.2099 9.09333 21.8579 8.492C21.5205 7.876 21.0439 7.39933 20.4279 7.062C19.8119 6.72467 19.1079 6.556 18.3159 6.556C17.5385 6.556 16.8419 6.72467 16.2259 7.062C15.6245 7.39933 15.1552 7.876 14.8179 8.492C14.4805 9.09333 14.3119 9.78267 14.3119 10.56ZM40.2193 18.656V16.522H29.9233V15.224H41.8693V19.91H31.6613V22.044H42.5513V23.342H29.9893V18.656H40.2193ZM27.2173 12.1H44.6633V13.464H27.2173V12.1ZM31.4413 4.62V9.108H42.4193V10.45H29.8133V4.62H31.4413ZM56.171 22.33C54.895 22.33 53.7877 22.0513 52.849 21.494C51.9103 20.9367 51.1917 20.1667 50.693 19.184C50.209 18.1867 49.967 17.0427 49.967 15.752V5.94H52.299V15.752C52.299 17.116 52.629 18.194 53.289 18.986C53.949 19.778 54.9097 20.174 56.171 20.174C57.4323 20.174 58.393 19.778 59.053 18.986C59.713 18.194 60.043 17.116 60.043 15.752V5.94H62.397V15.752C62.397 17.0427 62.1477 18.1867 61.649 19.184C61.1503 20.1667 60.4317 20.9367 59.493 21.494C58.5543 22.0513 57.447 22.33 56.171 22.33ZM68.4609 8.4296H71.6817V9.8288H68.4609V13.0364H67.0749V9.8288H63.8541V8.4296H67.0749V5.2088H68.4609V8.4296ZM87.8158 4.18V9.438H90.5218V11.418H87.8158V16.61H85.3958V4.18H87.8158ZM83.7018 14.146H73.4938V5.28H82.5138V7.26H75.8918V12.166H83.7018V14.146ZM75.0558 22.088L79.5438 18.766C80.3064 18.1793 80.6878 17.6953 80.6878 17.314V15.598H83.0418V17.314C83.0418 17.4753 83.1298 17.6807 83.3058 17.93C83.4818 18.1793 83.7824 18.458 84.2078 18.766L88.6958 22.088L87.3758 23.848L82.8878 20.526C82.4624 20.2033 82.1251 19.9027 81.8758 19.624C81.5384 19.9613 81.2011 20.262 80.8638 20.526L76.3758 23.848L75.0558 22.088ZM90.6835 13.266C92.1062 12.9873 93.2795 12.672 94.2035 12.32C95.1422 11.9533 95.8975 11.4473 96.4695 10.802H91.1235V8.91H97.4595C97.6062 8.41133 97.6795 7.81 97.6795 7.106H91.1235V5.126H99.8355V7.106C99.8355 8.91 99.4322 10.3767 98.6255 11.506C97.8188 12.6207 96.7848 13.464 95.5235 14.036C94.2622 14.608 92.7808 15.0553 91.0795 15.378L90.6835 13.266ZM94.3135 16.236H106.568V23.54H94.3135V16.236ZM104.192 21.626V18.128H96.6675V21.626H104.192ZM100.65 9.196H104.148V4.18H106.568V15.29H104.148V11.154H100.65V9.196ZM124.483 4.356V22.946H122.899V4.356H124.483ZM120.655 4.796V21.956H119.093V12.364H117.113C116.952 13.6693 116.475 14.7253 115.683 15.532C114.891 16.324 113.901 16.72 112.713 16.72C111.848 16.72 111.078 16.5 110.403 16.06C109.729 15.62 109.201 15.004 108.819 14.212C108.453 13.42 108.269 12.518 108.269 11.506C108.269 10.494 108.453 9.592 108.819 8.8C109.201 7.99333 109.729 7.37 110.403 6.93C111.078 6.47533 111.848 6.248 112.713 6.248C113.52 6.248 114.246 6.446 114.891 6.842C115.551 7.238 116.072 7.80267 116.453 8.536C116.849 9.25467 117.077 10.076 117.135 11H119.093V4.796H120.655ZM112.713 15.246C113.579 15.246 114.283 14.9013 114.825 14.212C115.368 13.508 115.639 12.606 115.639 11.506C115.639 10.3913 115.368 9.482 114.825 8.778C114.283 8.074 113.579 7.722 112.713 7.722C111.848 7.722 111.144 8.074 110.601 8.778C110.059 9.482 109.787 10.3913 109.787 11.506C109.787 12.606 110.059 13.508 110.601 14.212C111.144 14.9013 111.848 15.246 112.713 15.246ZM139.897 10.956V4.334H141.525V22.968H139.897V12.298H135.123V10.956H139.897ZM125.465 17.116L129.051 12.32C129.461 11.748 129.74 11.2127 129.887 10.714C130.048 10.2007 130.129 9.658 130.129 9.086V5.654H131.669V9.086C131.669 9.658 131.742 10.2007 131.889 10.714C132.05 11.2127 132.336 11.748 132.747 12.32L136.333 17.116L135.145 17.996L131.559 13.2C131.309 12.8627 131.089 12.518 130.899 12.166C130.708 12.518 130.488 12.8627 130.239 13.2L126.653 17.996L125.465 17.116ZM163.636 4.356V22.946H162.052V4.356H163.636ZM159.852 4.796V21.956H158.29V14.432H155.628C155.247 15.1507 154.726 15.7153 154.066 16.126C153.421 16.522 152.688 16.72 151.866 16.72C151.001 16.72 150.231 16.5 149.556 16.06C148.882 15.62 148.354 15.004 147.972 14.212C147.606 13.42 147.422 12.518 147.422 11.506C147.422 10.494 147.606 9.592 147.972 8.8C148.354 7.99333 148.882 7.37 149.556 6.93C150.231 6.47533 151.001 6.248 151.866 6.248C152.717 6.248 153.48 6.47533 154.154 6.93C154.829 7.37 155.357 7.97867 155.738 8.756H158.29V4.796H159.852ZM151.866 15.246C152.732 15.246 153.436 14.9013 153.978 14.212C154.521 13.508 154.792 12.606 154.792 11.506C154.792 10.3913 154.521 9.482 153.978 8.778C153.436 8.074 152.732 7.722 151.866 7.722C151.001 7.722 150.297 8.074 149.754 8.778C149.212 9.482 148.94 10.3913 148.94 11.506C148.94 12.606 149.212 13.508 149.754 14.212C150.297 14.9013 151.001 15.246 151.866 15.246ZM158.29 13.068V10.12H156.178C156.266 10.56 156.31 11.022 156.31 11.506C156.31 12.034 156.252 12.5547 156.134 13.068H158.29ZM179.82 4.356V7.348H182.658V8.734H179.82V11.44H182.658V12.826H179.82V15.356H178.17V4.356H179.82ZM179.82 16.28V23.606H178.17V17.622H168.248V16.28H179.82ZM170.074 14.19C169.164 14.19 168.35 13.9993 167.632 13.618C166.913 13.2367 166.356 12.7013 165.96 12.012C165.564 11.3227 165.366 10.5453 165.366 9.68C165.366 8.8 165.564 8.01533 165.96 7.326C166.356 6.63667 166.913 6.10133 167.632 5.72C168.35 5.33867 169.164 5.148 170.074 5.148C170.983 5.148 171.797 5.33867 172.516 5.72C173.234 6.10133 173.792 6.63667 174.188 7.326C174.584 8.01533 174.782 8.8 174.782 9.68C174.782 10.5453 174.584 11.3227 174.188 12.012C173.792 12.7013 173.234 13.2367 172.516 13.618C171.797 13.9993 170.983 14.19 170.074 14.19ZM170.074 12.826C170.983 12.826 171.724 12.5327 172.296 11.946C172.868 11.3593 173.154 10.604 173.154 9.68C173.154 8.74133 172.868 7.97867 172.296 7.392C171.724 6.80533 170.983 6.512 170.074 6.512C169.164 6.512 168.424 6.80533 167.852 7.392C167.28 7.97867 166.994 8.74133 166.994 9.68C166.994 10.604 167.28 11.3593 167.852 11.946C168.424 12.5327 169.164 12.826 170.074 12.826ZM197.103 4.422V12.452H200.381V13.596H197.103V22.88H195.761V4.422H197.103ZM187.401 6.93V4.686H188.677V6.93H193.209V8.074H182.869V6.93H187.401ZM188.039 17.886C187.189 17.886 186.433 17.7027 185.773 17.336C185.113 16.9693 184.593 16.456 184.211 15.796C183.845 15.136 183.661 14.3807 183.661 13.53C183.661 12.6793 183.845 11.924 184.211 11.264C184.593 10.5893 185.113 10.0687 185.773 9.702C186.433 9.32067 187.189 9.13 188.039 9.13C188.89 9.13 189.645 9.32067 190.305 9.702C190.965 10.0687 191.479 10.5893 191.845 11.264C192.227 11.924 192.417 12.6793 192.417 13.53C192.417 14.3807 192.227 15.136 191.845 15.796C191.479 16.456 190.965 16.9693 190.305 17.336C189.645 17.7027 188.89 17.886 188.039 17.886ZM188.039 16.698C188.963 16.698 189.719 16.4047 190.305 15.818C190.892 15.2167 191.185 14.454 191.185 13.53C191.185 12.5913 190.892 11.8213 190.305 11.22C189.719 10.6187 188.963 10.318 188.039 10.318C187.115 10.318 186.36 10.6187 185.773 11.22C185.187 11.8213 184.893 12.5913 184.893 13.53C184.893 14.454 185.187 15.2167 185.773 15.818C186.36 16.4047 187.115 16.698 188.039 16.698ZM201.145 5.676H209.791V7.414H214.279V4.444H215.621V17.182H214.279V12.628H209.791V14.102H201.145V5.676ZM204.973 16.918V21.934H215.577V23.078H203.631V16.918H204.973ZM208.493 12.98V6.798H202.443V12.98H208.493ZM214.279 11.506V8.558H209.791V11.506H214.279Z" fill="white"/>
</g>
<g filter="url(#filter1_d_4925_2312)">
<path d="M17.9059 71.42C8.32987 71.42 1.98787 64.196 1.98787 55.67C1.98787 46.934 8.58187 39.92 17.6539 39.92C23.9959 39.92 28.9939 43.154 31.5979 47.774L26.5579 50.798C24.6259 47.228 21.6859 45.464 17.6959 45.464C11.9839 45.464 7.65787 50.126 7.65787 55.67C7.65787 61.34 11.9419 65.876 17.9059 65.876C22.5679 65.876 25.6339 63.272 26.7679 59.24H16.9819V53.78H32.8999V56.048C32.8999 64.322 27.1039 71.42 17.9059 71.42ZM47.1815 71.504C41.2595 71.504 35.0855 66.8 35.0855 58.736C35.0855 50.588 41.0495 45.926 47.2655 45.926C50.4995 45.926 53.3555 47.228 55.1615 49.37V46.43H60.8315V71H55.1615V67.808C53.3555 70.118 50.4155 71.504 47.1815 71.504ZM48.1055 66.296C52.3475 66.296 55.4555 62.894 55.4555 58.652C55.4555 54.452 52.3475 51.092 48.1055 51.092C43.9055 51.092 40.6715 54.41 40.6715 58.652C40.6715 62.936 43.9055 66.296 48.1055 66.296ZM64.0612 71V39.92H69.7732V71H64.0612ZM84.3417 71.504C78.4197 71.504 72.2457 66.8 72.2457 58.736C72.2457 50.588 78.2097 45.926 84.4257 45.926C87.6597 45.926 90.5157 47.228 92.3217 49.37V46.43H97.9917V71H92.3217V67.808C90.5157 70.118 87.5757 71.504 84.3417 71.504ZM85.2657 66.296C89.5077 66.296 92.6157 62.894 92.6157 58.652C92.6157 54.452 89.5077 51.092 85.2657 51.092C81.0657 51.092 77.8317 54.41 77.8317 58.652C77.8317 62.936 81.0657 66.296 85.2657 66.296ZM99.3832 71L108.623 58.484L99.7192 46.43H106.649L112.235 54.242L117.779 46.43H124.499L115.679 58.568L125.087 71H118.157L112.151 62.81L106.313 71H99.3832ZM130.138 82.34L135.304 69.782L125.224 46.43H131.272L138.118 62.978L144.586 46.43H150.55L135.892 82.34H130.138ZM169.126 71.42C163.624 71.42 159.97 69.068 157.156 65.918L162.364 61.802C163.918 64.49 166.27 65.96 169.084 65.96C172.108 65.96 173.746 63.986 173.746 61.844C173.746 59.282 170.596 58.442 167.362 57.434C163.204 56.09 158.668 54.536 158.668 48.698C158.668 43.784 162.952 39.92 168.832 39.92C173.746 39.92 176.644 41.81 179.122 44.372L174.418 47.942C173.116 45.968 171.268 45.002 168.874 45.002C166.06 45.002 164.59 46.514 164.59 48.488C164.59 50.966 167.488 51.68 170.848 52.814C175.006 54.158 179.71 56.006 179.71 61.886C179.71 66.716 175.846 71.42 169.126 71.42ZM182.208 71V65.624C182.208 60.332 186.45 57.266 190.272 54.662C193.296 52.52 196.068 50.84 196.068 48.488C196.068 46.472 194.598 44.834 191.868 44.834C189.18 44.834 187.542 46.64 186.492 49.202L181.578 46.724C183.468 42.524 186.87 39.92 191.91 39.92C198.126 39.92 201.864 43.7 201.864 48.53C201.864 53.36 197.916 56.09 194.22 58.568C191.07 60.71 187.92 62.642 187.92 65.54H201.738V71H182.208ZM214.553 71.42C209.177 71.42 205.691 68.606 204.095 65.54L209.387 62.474C210.269 64.448 211.865 66.17 214.595 66.17C217.115 66.17 219.299 64.196 219.299 61.34C219.299 58.484 217.493 56.258 214.469 56.258C212.075 56.258 210.605 57.56 209.555 59.366L204.473 56.762L206.657 40.34H223.709V45.674H211.193L210.311 52.478C211.487 51.68 213.125 51.05 215.099 51.05C220.601 51.05 225.053 54.662 225.053 61.34C225.053 67.304 220.643 71.42 214.553 71.42Z" fill="url(#paint0_linear_4925_2312)"/>
<path d="M50.3813 125.12L46.1413 125.08V100.64L40.3013 104.16L38.4613 100.64L46.1813 96.04H50.3813V125.12ZM66.8003 121.64C68.4803 121.64 69.947 121.187 71.2003 120.28C72.4536 119.373 73.4136 118.093 74.0803 116.44C74.747 114.76 75.0803 112.8 75.0803 110.56C75.0803 108.293 74.747 106.333 74.0803 104.68C73.4136 103 72.4536 101.707 71.2003 100.8C69.947 99.8933 68.4803 99.44 66.8003 99.44C65.1203 99.44 63.6536 99.8933 62.4003 100.8C61.147 101.707 60.1736 103 59.4803 104.68C58.8136 106.333 58.4803 108.293 58.4803 110.56C58.4803 112.8 58.8136 114.76 59.4803 116.44C60.1736 118.093 61.147 119.373 62.4003 120.28C63.6536 121.187 65.1203 121.64 66.8003 121.64ZM66.8003 125.4C64.2403 125.4 62.0136 124.8 60.1203 123.6C58.227 122.373 56.7736 120.653 55.7603 118.44C54.747 116.2 54.2403 113.573 54.2403 110.56C54.2403 107.547 54.747 104.92 55.7603 102.68C56.7736 100.44 58.227 98.72 60.1203 97.52C62.0136 96.32 64.2403 95.72 66.8003 95.72C69.3336 95.72 71.547 96.32 73.4403 97.52C75.3336 98.72 76.787 100.44 77.8003 102.68C78.8136 104.92 79.3203 107.547 79.3203 110.56C79.3203 113.573 78.8136 116.2 77.8003 118.44C76.787 120.653 75.3336 122.373 73.4403 123.6C71.547 124.8 69.3336 125.4 66.8003 125.4ZM81.5466 95H98.2666V111.68H81.5466V95ZM90.3466 115.52V124.12H109.067V127.68H85.8666V115.52H90.3466ZM93.9466 108.16V98.52H85.8666V108.16H93.9466ZM103.787 92.6H108.187V103.08H113.107V106.72H108.187V117.12H103.787V92.6ZM123.921 106.56C122.241 106.56 120.747 106.28 119.441 105.72C118.161 105.16 117.147 104.36 116.401 103.32C115.681 102.28 115.321 101.067 115.321 99.68C115.321 98.2933 115.681 97.08 116.401 96.04C117.147 95 118.161 94.2 119.441 93.64C120.747 93.08 122.241 92.8 123.921 92.8C125.601 92.8 127.081 93.08 128.361 93.64C129.667 94.2 130.681 95 131.401 96.04C132.147 97.08 132.521 98.2933 132.521 99.68C132.521 101.067 132.147 102.28 131.401 103.32C130.681 104.36 129.667 105.16 128.361 105.72C127.081 106.28 125.601 106.56 123.921 106.56ZM122.081 117.52V111.64H113.321V108.12H135.601V111.64H126.481V118.12H122.721V124H142.481V127.52H118.361V117.52H122.081ZM130.921 113.76H137.921V92.6H142.321V120H137.921V116.8H130.921V113.76ZM123.921 103.04C125.307 103.04 126.401 102.747 127.201 102.16C128.027 101.547 128.441 100.72 128.441 99.68C128.441 98.64 128.027 97.8267 127.201 97.24C126.401 96.6533 125.307 96.36 123.921 96.36C122.561 96.36 121.467 96.6533 120.641 97.24C119.814 97.8267 119.401 98.64 119.401 99.68C119.401 100.72 119.814 101.547 120.641 102.16C121.467 102.747 122.561 103.04 123.921 103.04ZM175.535 92.6V127H171.335V110.12H167.455V125.24H163.375V93.32H167.455V106.52H171.335V92.6H175.535ZM160.855 117.88H146.615V95.68H160.055V99.28H151.015V114.24H160.855V117.88ZM185.429 117.2H181.349L180.589 94.8H186.069L185.429 117.2ZM183.429 120.96C184.149 120.96 184.735 121.187 185.189 121.64C185.642 122.093 185.869 122.693 185.869 123.44C185.869 124.187 185.642 124.787 185.189 125.24C184.735 125.72 184.149 125.96 183.429 125.96C182.682 125.96 182.069 125.72 181.589 125.24C181.135 124.787 180.909 124.187 180.909 123.44C180.909 122.693 181.135 122.093 181.589 121.64C182.069 121.187 182.682 120.96 183.429 120.96Z" fill="#FF008C"/>
</g>
<path d="M12.1884 148.056L15.4284 144.804L16.0284 145.404L12.7764 148.656L16.0044 151.884L15.4284 152.472L12.2004 149.232L8.94836 152.484L8.36036 151.896L11.6004 148.644L8.36036 145.404L8.94836 144.816L12.1884 148.056ZM12.2244 145.776C12.0644 145.776 11.9324 145.724 11.8284 145.62C11.7244 145.516 11.6724 145.384 11.6724 145.224C11.6724 145.064 11.7244 144.936 11.8284 144.84C11.9324 144.736 12.0644 144.684 12.2244 144.684C12.3844 144.684 12.5124 144.736 12.6084 144.84C12.7124 144.936 12.7644 145.064 12.7644 145.224C12.7644 145.384 12.7124 145.516 12.6084 145.62C12.5124 145.724 12.3844 145.776 12.2244 145.776ZM12.2244 152.508C12.0644 152.508 11.9324 152.456 11.8284 152.352C11.7244 152.248 11.6724 152.116 11.6724 151.956C11.6724 151.796 11.7244 151.668 11.8284 151.572C11.9324 151.468 12.0644 151.416 12.2244 151.416C12.3844 151.416 12.5124 151.468 12.6084 151.572C12.7124 151.668 12.7644 151.796 12.7644 151.956C12.7644 152.116 12.7124 152.248 12.6084 152.352C12.5124 152.456 12.3844 152.508 12.2244 152.508ZM8.98436 149.148C8.82436 149.148 8.69236 149.096 8.58836 148.992C8.48436 148.888 8.43236 148.756 8.43236 148.596C8.43236 148.436 8.48436 148.308 8.58836 148.212C8.69236 148.108 8.82436 148.056 8.98436 148.056C9.14436 148.056 9.27236 148.108 9.36836 148.212C9.47236 148.308 9.52436 148.436 9.52436 148.596C9.52436 148.756 9.47236 148.888 9.36836 148.992C9.27236 149.096 9.14436 149.148 8.98436 149.148ZM15.4764 149.148C15.3164 149.148 15.1844 149.096 15.0804 148.992C14.9764 148.888 14.9244 148.756 14.9244 148.596C14.9244 148.436 14.9764 148.308 15.0804 148.212C15.1844 148.108 15.3164 148.056 15.4764 148.056C15.6364 148.056 15.7644 148.108 15.8604 148.212C15.9644 148.308 16.0164 148.436 16.0164 148.596C16.0164 148.756 15.9644 148.888 15.8604 148.992C15.7644 149.096 15.6364 149.148 15.4764 149.148ZM28.7796 149.208C28.7796 150.016 28.6036 150.708 28.2516 151.284C27.8996 151.86 27.4156 152.304 26.7996 152.616C26.1836 152.92 25.4876 153.08 24.7116 153.096C23.8876 153.096 23.1516 152.908 22.5036 152.532C21.8636 152.156 21.3596 151.632 20.9916 150.96C20.6316 150.288 20.4516 149.524 20.4516 148.668C20.4516 147.812 20.6316 147.052 20.9916 146.388C21.3596 145.716 21.8636 145.192 22.5036 144.816C23.1516 144.44 23.8876 144.252 24.7116 144.252C25.5116 144.252 26.1756 144.408 26.7036 144.72C27.2396 145.024 27.6156 145.324 27.8316 145.62C28.0476 145.916 28.2116 146.156 28.3236 146.34L27.5556 146.688C27.4676 146.544 27.3396 146.356 27.1716 146.124C27.0036 145.884 26.7076 145.64 26.2836 145.392C25.8676 145.144 25.3436 145.02 24.7116 145.02C24.0556 145.02 23.4676 145.176 22.9476 145.488C22.4356 145.8 22.0356 146.232 21.7476 146.784C21.4596 147.336 21.3156 147.964 21.3156 148.668C21.3156 149.372 21.4596 150.004 21.7476 150.564C22.0356 151.116 22.4356 151.548 22.9476 151.86C23.4676 152.172 24.0556 152.328 24.7116 152.328C25.6956 152.288 26.4836 152.012 27.0756 151.5C27.6676 150.98 27.9636 150.24 27.9636 149.28H24.8676V148.512H28.7916L28.7796 149.208ZM32.2842 153.084C31.7802 153.084 31.3282 152.964 30.9282 152.724C30.5282 152.484 30.2162 152.152 29.9922 151.728C29.7682 151.304 29.6562 150.824 29.6562 150.288C29.6562 149.752 29.7682 149.272 29.9922 148.848C30.2162 148.416 30.5282 148.08 30.9282 147.84C31.3282 147.6 31.7802 147.48 32.2842 147.48C32.6042 147.48 32.9202 147.568 33.2322 147.744C33.5522 147.92 33.8322 148.176 34.0722 148.512V147.468H34.9362V153H34.0722V152.04C33.8322 152.4 33.5562 152.664 33.2442 152.832C32.9402 153 32.6202 153.084 32.2842 153.084ZM32.2962 152.304C32.6082 152.304 32.9002 152.22 33.1722 152.052C33.4442 151.876 33.6642 151.636 33.8322 151.332C34.0002 151.02 34.0842 150.672 34.0842 150.288C34.0842 149.912 34.0002 149.568 33.8322 149.256C33.6642 148.944 33.4442 148.7 33.1722 148.524C32.9002 148.348 32.6082 148.26 32.2962 148.26C31.7762 148.26 31.3482 148.452 31.0122 148.836C30.6842 149.212 30.5202 149.696 30.5202 150.288C30.5202 150.88 30.6842 151.364 31.0122 151.74C31.3482 152.116 31.7762 152.304 32.2962 152.304ZM36.9574 144.576V153H36.0934V144.576H36.9574ZM40.3945 153.084C39.8905 153.084 39.4385 152.964 39.0385 152.724C38.6385 152.484 38.3265 152.152 38.1025 151.728C37.8785 151.304 37.7665 150.824 37.7665 150.288C37.7665 149.752 37.8785 149.272 38.1025 148.848C38.3265 148.416 38.6385 148.08 39.0385 147.84C39.4385 147.6 39.8905 147.48 40.3945 147.48C40.7145 147.48 41.0305 147.568 41.3425 147.744C41.6625 147.92 41.9425 148.176 42.1825 148.512V147.468H43.0465V153H42.1825V152.04C41.9425 152.4 41.6665 152.664 41.3545 152.832C41.0505 153 40.7305 153.084 40.3945 153.084ZM40.4065 152.304C40.7185 152.304 41.0105 152.22 41.2825 152.052C41.5545 151.876 41.7745 151.636 41.9425 151.332C42.1105 151.02 42.1945 150.672 42.1945 150.288C42.1945 149.912 42.1105 149.568 41.9425 149.256C41.7745 148.944 41.5545 148.7 41.2825 148.524C41.0105 148.348 40.7185 148.26 40.4065 148.26C39.8865 148.26 39.4585 148.452 39.1225 148.836C38.7945 149.212 38.6305 149.696 38.6305 150.288C38.6305 150.88 38.7945 151.364 39.1225 151.74C39.4585 152.116 39.8865 152.304 40.4065 152.304ZM47.0809 150.24L49.1809 153H48.0889L46.6249 151.02L45.1609 153H44.0689L46.1569 150.24L44.0689 147.468H45.1609L46.6249 149.472L48.0889 147.468H49.1809L47.0809 150.24ZM50.6711 155.58L51.8231 152.748L49.5791 147.468H50.5271L52.2791 151.704L53.9471 147.468H54.8831L52.7951 152.64L51.6191 155.58H50.6711ZM59.0038 150.732C59.2358 151.204 59.5478 151.588 59.9398 151.884C60.3318 152.18 60.7678 152.328 61.2478 152.328C61.8238 152.328 62.2838 152.184 62.6278 151.896C62.9798 151.608 63.1558 151.224 63.1558 150.744C63.1558 150.4 63.0638 150.116 62.8798 149.892C62.7038 149.668 62.4798 149.488 62.2078 149.352C61.9358 149.216 61.5718 149.064 61.1158 148.896C60.5798 148.696 60.1478 148.508 59.8198 148.332C59.4918 148.156 59.2118 147.908 58.9798 147.588C58.7558 147.268 58.6438 146.86 58.6438 146.364C58.6438 145.708 58.8878 145.192 59.3758 144.816C59.8718 144.432 60.4998 144.24 61.2598 144.24C61.8998 144.24 62.4438 144.4 62.8918 144.72C63.3398 145.032 63.6638 145.496 63.8638 146.112L63.0718 146.388C62.9598 145.972 62.7398 145.64 62.4118 145.392C62.0918 145.136 61.7158 145.008 61.2838 145.008C60.7558 145.008 60.3278 145.132 59.9998 145.38C59.6718 145.62 59.5078 145.952 59.5078 146.376C59.5078 146.712 59.5958 146.992 59.7718 147.216C59.9558 147.432 60.1798 147.608 60.4438 147.744C60.7158 147.88 61.0758 148.032 61.5238 148.2C62.0678 148.4 62.5038 148.588 62.8318 148.764C63.1598 148.94 63.4398 149.192 63.6718 149.52C63.9038 149.84 64.0198 150.252 64.0198 150.756C64.0198 151.22 63.9038 151.628 63.6718 151.98C63.4478 152.332 63.1278 152.608 62.7118 152.808C62.3038 153 61.8238 153.096 61.2718 153.096C60.0078 153.096 59.0038 152.44 58.2598 151.128L59.0038 150.732ZM66.0805 151.344C66.8005 150.672 67.3845 150.108 67.8325 149.652C68.2804 149.188 68.6604 148.716 68.9725 148.236C69.2925 147.748 69.4525 147.304 69.4525 146.904C69.4525 146.344 69.2925 145.888 68.9725 145.536C68.6525 145.176 68.2365 144.996 67.7244 144.996C67.3565 144.996 67.0005 145.124 66.6564 145.38C66.3205 145.628 66.0645 145.948 65.8885 146.34L65.0964 146.004C65.3204 145.484 65.6765 145.06 66.1645 144.732C66.6605 144.396 67.1805 144.228 67.7244 144.228C68.2285 144.228 68.6765 144.344 69.0685 144.576C69.4605 144.8 69.7645 145.116 69.9805 145.524C70.2045 145.924 70.3165 146.384 70.3165 146.904C70.3165 147.416 70.1445 147.948 69.8005 148.5C69.4645 149.052 69.0605 149.572 68.5884 150.06C68.1165 150.548 67.5125 151.132 66.7765 151.812L66.3084 152.244H70.4605V153.012H65.2524L65.1324 152.244L66.0805 151.344ZM71.7159 148.764L71.9919 144.324H76.3119V145.092H72.8199L72.6519 147.78C73.1319 147.508 73.6079 147.372 74.0799 147.372C74.6479 147.372 75.1519 147.492 75.5919 147.732C76.0399 147.972 76.3879 148.308 76.6359 148.74C76.8839 149.172 77.0079 149.664 77.0079 150.216C77.0079 150.776 76.8839 151.276 76.6359 151.716C76.3879 152.156 76.0399 152.5 75.5919 152.748C75.1519 152.996 74.6479 153.12 74.0799 153.12C73.4159 153.12 72.8239 152.92 72.3039 152.52C71.7919 152.112 71.4599 151.588 71.3079 150.948L72.1479 150.756C72.2519 151.212 72.4839 151.584 72.8439 151.872C73.2039 152.16 73.6159 152.304 74.0799 152.304C74.4799 152.304 74.8359 152.216 75.1479 152.04C75.4599 151.864 75.7039 151.616 75.8799 151.296C76.0559 150.976 76.1439 150.616 76.1439 150.216C76.1439 149.824 76.0559 149.476 75.8799 149.172C75.7039 148.86 75.4599 148.62 75.1479 148.452C74.8359 148.276 74.4799 148.188 74.0799 148.188C73.8239 148.188 73.5559 148.256 73.2759 148.392C72.9959 148.528 72.7639 148.7 72.5799 148.908L71.7159 148.764ZM83.7685 153.084C83.1045 153.084 82.5325 152.94 82.0525 152.652C81.5725 152.356 81.2045 151.948 80.9485 151.428C80.6925 150.908 80.5645 150.308 80.5645 149.628V144.336H81.4285V149.64C81.4285 150.448 81.6325 151.096 82.0405 151.584C82.4565 152.072 83.0325 152.316 83.7685 152.316C84.5045 152.316 85.0765 152.072 85.4845 151.584C85.9005 151.096 86.1085 150.448 86.1085 149.64V144.336H86.9725V149.628C86.9725 150.308 86.8445 150.908 86.5885 151.428C86.3325 151.948 85.9645 152.356 85.4845 152.652C85.0045 152.94 84.4325 153.084 83.7685 153.084ZM89.2043 144.576V153H88.3403V144.576H89.2043ZM90.7725 148.236H89.7765V147.468H90.7725V145.56H91.6365V147.468H92.9445V148.236H91.6365V153H90.7725V148.236ZM93.7327 147.468H94.5967V148.44C94.7887 148.128 95.0607 147.876 95.4127 147.684C95.7647 147.492 96.1367 147.4 96.5287 147.408V148.26C96.1927 148.252 95.8767 148.336 95.5807 148.512C95.2847 148.68 95.0447 148.912 94.8607 149.208C94.6847 149.496 94.5967 149.812 94.5967 150.156V153H93.7327V147.468ZM99.4041 153.084C98.9001 153.084 98.4481 152.964 98.0481 152.724C97.6481 152.484 97.3361 152.152 97.1121 151.728C96.8881 151.304 96.7761 150.824 96.7761 150.288C96.7761 149.752 96.8881 149.272 97.1121 148.848C97.3361 148.416 97.6481 148.08 98.0481 147.84C98.4481 147.6 98.9001 147.48 99.4041 147.48C99.7241 147.48 100.04 147.568 100.352 147.744C100.672 147.92 100.952 148.176 101.192 148.512V147.468H102.056V153H101.192V152.04C100.952 152.4 100.676 152.664 100.364 152.832C100.06 153 99.7401 153.084 99.4041 153.084ZM99.4161 152.304C99.7281 152.304 100.02 152.22 100.292 152.052C100.564 151.876 100.784 151.636 100.952 151.332C101.12 151.02 101.204 150.672 101.204 150.288C101.204 149.912 101.12 149.568 100.952 149.256C100.784 148.944 100.564 148.7 100.292 148.524C100.02 148.348 99.7281 148.26 99.4161 148.26C98.8961 148.26 98.4681 148.452 98.1321 148.836C97.8041 149.212 97.6401 149.696 97.6401 150.288C97.6401 150.88 97.8041 151.364 98.1321 151.74C98.4681 152.116 98.8961 152.304 99.4161 152.304ZM106.444 151.344C107.164 150.672 107.748 150.108 108.196 149.652C108.644 149.188 109.024 148.716 109.336 148.236C109.656 147.748 109.816 147.304 109.816 146.904C109.816 146.344 109.656 145.888 109.336 145.536C109.016 145.176 108.6 144.996 108.088 144.996C107.72 144.996 107.364 145.124 107.02 145.38C106.684 145.628 106.428 145.948 106.252 146.34L105.46 146.004C105.684 145.484 106.04 145.06 106.528 144.732C107.024 144.396 107.544 144.228 108.088 144.228C108.592 144.228 109.04 144.344 109.432 144.576C109.824 144.8 110.128 145.116 110.344 145.524C110.568 145.924 110.68 146.384 110.68 146.904C110.68 147.416 110.508 147.948 110.164 148.5C109.828 149.052 109.424 149.572 108.952 150.06C108.48 150.548 107.876 151.132 107.14 151.812L106.672 152.244H110.824V153.012H105.616L105.496 152.244L106.444 151.344ZM112.079 148.764L112.355 144.324H116.675V145.092H113.183L113.015 147.78C113.495 147.508 113.971 147.372 114.443 147.372C115.011 147.372 115.515 147.492 115.955 147.732C116.403 147.972 116.751 148.308 116.999 148.74C117.247 149.172 117.371 149.664 117.371 150.216C117.371 150.776 117.247 151.276 116.999 151.716C116.751 152.156 116.403 152.5 115.955 152.748C115.515 152.996 115.011 153.12 114.443 153.12C113.779 153.12 113.187 152.92 112.667 152.52C112.155 152.112 111.823 151.588 111.671 150.948L112.511 150.756C112.615 151.212 112.847 151.584 113.207 151.872C113.567 152.16 113.979 152.304 114.443 152.304C114.843 152.304 115.199 152.216 115.511 152.04C115.823 151.864 116.067 151.616 116.243 151.296C116.419 150.976 116.507 150.616 116.507 150.216C116.507 149.824 116.419 149.476 116.243 149.172C116.067 148.86 115.823 148.62 115.511 148.452C115.199 148.276 114.843 148.188 114.443 148.188C114.187 148.188 113.919 148.256 113.639 148.392C113.359 148.528 113.127 148.7 112.943 148.908L112.079 148.764ZM121.054 152.328C121.646 152.328 122.13 152.136 122.506 151.752C122.882 151.36 123.07 150.86 123.07 150.252C123.07 149.636 122.882 149.136 122.506 148.752C122.13 148.36 121.646 148.164 121.054 148.164C120.678 148.164 120.338 148.252 120.034 148.428C119.738 148.604 119.506 148.852 119.338 149.172C119.17 149.492 119.086 149.852 119.086 150.252C119.086 150.86 119.27 151.36 119.638 151.752C120.006 152.136 120.478 152.328 121.054 152.328ZM118.222 150.252C118.222 149.7 118.37 149.164 118.666 148.644L121.126 144.336H122.122L120.31 147.48C120.59 147.424 120.846 147.396 121.078 147.396C121.63 147.396 122.122 147.52 122.554 147.768C122.986 148.008 123.322 148.344 123.562 148.776C123.81 149.208 123.934 149.7 123.934 150.252C123.934 150.804 123.81 151.296 123.562 151.728C123.322 152.16 122.986 152.496 122.554 152.736C122.122 152.976 121.63 153.096 121.078 153.096C120.526 153.096 120.034 152.976 119.602 152.736C119.17 152.496 118.83 152.16 118.582 151.728C118.342 151.296 118.222 150.804 118.222 150.252ZM133.437 149.208C133.437 150.016 133.261 150.708 132.909 151.284C132.557 151.86 132.073 152.304 131.457 152.616C130.841 152.92 130.145 153.08 129.369 153.096C128.545 153.096 127.809 152.908 127.161 152.532C126.521 152.156 126.017 151.632 125.649 150.96C125.289 150.288 125.109 149.524 125.109 148.668C125.109 147.812 125.289 147.052 125.649 146.388C126.017 145.716 126.521 145.192 127.161 144.816C127.809 144.44 128.545 144.252 129.369 144.252C130.169 144.252 130.833 144.408 131.361 144.72C131.897 145.024 132.273 145.324 132.489 145.62C132.705 145.916 132.869 146.156 132.981 146.34L132.213 146.688C132.125 146.544 131.997 146.356 131.829 146.124C131.661 145.884 131.365 145.64 130.941 145.392C130.525 145.144 130.001 145.02 129.369 145.02C128.713 145.02 128.125 145.176 127.605 145.488C127.093 145.8 126.693 146.232 126.405 146.784C126.117 147.336 125.973 147.964 125.973 148.668C125.973 149.372 126.117 150.004 126.405 150.564C126.693 151.116 127.093 151.548 127.605 151.86C128.125 152.172 128.713 152.328 129.369 152.328C130.353 152.288 131.141 152.012 131.733 151.5C132.325 150.98 132.621 150.24 132.621 149.28H129.525V148.512H133.449L133.437 149.208ZM134.674 144.336H137.302C137.758 144.336 138.166 144.436 138.526 144.636C138.886 144.836 139.166 145.116 139.366 145.476C139.574 145.828 139.678 146.232 139.678 146.688C139.678 146.96 139.61 147.248 139.474 147.552C139.338 147.848 139.154 148.108 138.922 148.332L139.21 148.488C139.546 148.712 139.822 149.02 140.038 149.412C140.254 149.804 140.362 150.196 140.362 150.588C140.362 151.052 140.258 151.468 140.05 151.836C139.85 152.204 139.57 152.492 139.21 152.7C138.85 152.9 138.438 153 137.974 153H134.674V144.336ZM137.986 152.232C138.434 152.232 138.802 152.08 139.09 151.776C139.378 151.472 139.522 151.084 139.522 150.612C139.522 150.108 139.378 149.696 139.09 149.376C138.802 149.056 138.434 148.896 137.986 148.896H135.538V152.232H137.986ZM137.518 148.128C137.91 148.112 138.23 147.968 138.478 147.696C138.726 147.424 138.85 147.08 138.85 146.664C138.85 146.208 138.706 145.836 138.418 145.548C138.13 145.252 137.762 145.104 137.314 145.104H135.538V148.128H137.518ZM147.653 151.764V149.172H144.485V144.252H151.709V149.172H148.541V151.764H152.873V152.508H143.357V151.764H147.653ZM145.361 144.972V148.452H150.833V144.972H145.361ZM162.857 148.692V149.424H153.377V148.692H162.857ZM161.669 143.832V144.564H155.465V146.76H161.765V147.516H154.577V143.832H161.669ZM155.489 150.564V152.892H161.849V153.636H154.601V150.564H155.489ZM174.563 143.376V153.876H173.699V143.376H174.563ZM172.619 143.616V153.348H171.779V150.072H170.243C170.083 150.512 169.823 150.864 169.463 151.128C169.103 151.384 168.687 151.512 168.215 151.512C167.799 151.512 167.423 151.412 167.087 151.212C166.751 151.004 166.487 150.716 166.295 150.348C166.111 149.98 166.019 149.56 166.019 149.088C166.019 148.616 166.111 148.2 166.295 147.84C166.487 147.472 166.747 147.188 167.075 146.988C167.411 146.78 167.791 146.676 168.215 146.676C168.639 146.676 169.015 146.78 169.343 146.988C169.679 147.188 169.939 147.472 170.123 147.84C170.315 148.2 170.411 148.616 170.411 149.088L170.399 149.34H171.779V147.684H170.291V146.952H171.779V143.616H172.619ZM167.783 145.2V143.652H168.671V145.2H170.831V145.932H165.635V145.2H167.783ZM168.215 147.444C167.815 147.444 167.483 147.6 167.219 147.912C166.955 148.216 166.823 148.608 166.823 149.088C166.823 149.568 166.955 149.964 167.219 150.276C167.483 150.58 167.815 150.732 168.215 150.732C168.623 150.732 168.959 150.58 169.223 150.276C169.487 149.964 169.619 149.568 169.619 149.088C169.619 148.608 169.487 148.216 169.223 147.912C168.959 147.6 168.623 147.444 168.215 147.444ZM180.167 144.144V144.888H176.999V146.244H180.059V146.952H176.999V148.428C177.791 148.428 178.451 148.408 178.979 148.368C179.515 148.328 180.055 148.256 180.599 148.152L180.695 148.884C180.119 148.996 179.547 149.072 178.979 149.112C178.419 149.152 177.691 149.172 176.795 149.172H176.135V144.144H180.167ZM184.499 143.376V149.736H183.647V146.88H182.171V149.676H181.319V143.58H182.171V146.136H183.647V143.376H184.499ZM184.499 150.3V153.876H183.611V151.044H177.479V150.3H184.499ZM195.665 146.136V143.376H196.565V149.652H195.665V146.892H193.553V146.136H195.665ZM193.889 144.108V144.852H191.549V145.32C191.549 145.768 191.657 146.208 191.873 146.64C192.097 147.064 192.405 147.44 192.797 147.768C193.189 148.096 193.633 148.348 194.129 148.524L193.661 149.244C193.077 149.028 192.565 148.712 192.125 148.296C191.685 147.872 191.353 147.384 191.129 146.832C190.905 147.44 190.557 147.976 190.085 148.44C189.621 148.904 189.081 149.252 188.465 149.484L187.997 148.776C188.509 148.592 188.965 148.324 189.365 147.972C189.765 147.62 190.077 147.216 190.301 146.76C190.533 146.296 190.649 145.816 190.649 145.32V144.852H188.285V144.108H193.889ZM196.565 150.24V153.876H195.665V150.984H189.581V150.24H196.565ZM200.333 148.596V147.096C199.461 146.744 199.025 146.22 199.025 145.524C199.025 144.908 199.353 144.432 200.009 144.096C200.665 143.752 201.565 143.58 202.709 143.58C203.853 143.58 204.753 143.752 205.409 144.096C206.065 144.432 206.393 144.908 206.393 145.524C206.393 145.876 206.281 146.184 206.057 146.448C205.833 146.704 205.513 146.916 205.097 147.084V148.596H207.449V149.316H197.969V148.596H200.333ZM202.709 150.144C203.837 150.144 204.717 150.308 205.349 150.636C205.981 150.956 206.297 151.408 206.297 151.992C206.297 152.592 205.981 153.052 205.349 153.372C204.717 153.7 203.837 153.864 202.709 153.864C201.581 153.864 200.701 153.7 200.069 153.372C199.437 153.052 199.121 152.592 199.121 151.992C199.121 151.408 199.437 150.956 200.069 150.636C200.701 150.308 201.581 150.144 202.709 150.144ZM202.709 150.84C201.869 150.84 201.209 150.944 200.729 151.152C200.257 151.352 200.021 151.632 200.021 151.992C200.021 152.36 200.257 152.648 200.729 152.856C201.201 153.056 201.861 153.156 202.709 153.156C203.549 153.156 204.205 153.056 204.677 152.856C205.149 152.648 205.385 152.36 205.385 151.992C205.385 151.632 205.145 151.352 204.665 151.152C204.193 150.944 203.541 150.84 202.709 150.84ZM202.709 144.276C201.861 144.276 201.189 144.388 200.693 144.612C200.197 144.828 199.949 145.132 199.949 145.524C199.949 145.908 200.197 146.212 200.693 146.436C201.189 146.652 201.861 146.76 202.709 146.76C203.557 146.76 204.229 146.652 204.725 146.436C205.221 146.212 205.469 145.908 205.469 145.524C205.469 145.132 205.221 144.828 204.725 144.612C204.229 144.388 203.557 144.276 202.709 144.276ZM204.209 148.596V147.336C203.713 147.416 203.213 147.456 202.709 147.456C202.141 147.456 201.645 147.416 201.221 147.336V148.596H204.209ZM213.935 144.3V146.208C213.935 146.832 214.063 147.452 214.319 148.068C214.575 148.676 214.919 149.22 215.351 149.7C215.783 150.18 216.251 150.536 216.755 150.768L216.215 151.488C215.615 151.192 215.075 150.748 214.595 150.156C214.115 149.556 213.751 148.88 213.503 148.128C213.263 148.928 212.899 149.644 212.411 150.276C211.923 150.908 211.371 151.376 210.755 151.68L210.203 150.936C210.707 150.696 211.175 150.328 211.607 149.832C212.047 149.336 212.395 148.772 212.651 148.14C212.907 147.5 213.035 146.856 213.035 146.208V144.3H213.935ZM218.819 143.364V153.888H217.919V143.364H218.819Z" fill="#AAAAAA"/>
<defs>
<filter id="filter0_d_4925_2312" x="8.625" y="3.17969" width="209.996" height="23.668" filterUnits="userSpaceOnUse" color-interpolation-filters="sRGB">
<feFlood flood-opacity="0" result="BackgroundImageFix"/>
<feColorMatrix in="SourceAlpha" type="matrix" values="0 0 0 0 0 0 0 0 0 0 0 0 0 0 0 0 0 0 127 0" result="hardAlpha"/>
<feOffset dx="1" dy="1"/>
<feGaussianBlur stdDeviation="1"/>
<feComposite in2="hardAlpha" operator="out"/>
<feColorMatrix type="matrix" values="0 0 0 0 0 0 0 0 0 0 0 0 0 0 0 0 0 0 0.4 0"/>
<feBlend mode="normal" in2="BackgroundImageFix" result="effect1_dropShadow_4925_2312"/>
<feBlend mode="normal" in="SourceGraphic" in2="effect1_dropShadow_4925_2312" result="shape"/>
</filter>
<filter id="filter1_d_4925_2312" x="0.988281" y="38.9199" width="227.064" height="91.7598" filterUnits="userSpaceOnUse" color-interpolation-filters="sRGB">
<feFlood flood-opacity="0" result="BackgroundImageFix"/>
<feColorMatrix in="SourceAlpha" type="matrix" values="0 0 0 0 0 0 0 0 0 0 0 0 0 0 0 0 0 0 127 0" result="hardAlpha"/>
<feOffset dx="1" dy="1"/>
<feGaussianBlur stdDeviation="1"/>
<feComposite in2="hardAlpha" operator="out"/>
<feColorMatrix type="matrix" values="0 0 0 0 0 0 0 0 0 0 0 0 0 0 0 0 0 0 0.4 0"/>
<feBlend mode="normal" in2="BackgroundImageFix" result="effect1_dropShadow_4925_2312"/>
<feBlend mode="normal" in="SourceGraphic" in2="effect1_dropShadow_4925_2312" result="shape"/>
</filter>
<linearGradient id="paint0_linear_4925_2312" x1="226" y1="70.1653" x2="9.85301" y2="50.3225" gradientUnits="userSpaceOnUse">
<stop stop-color="#FF008C"/>
<stop offset="1" stop-color="#FFC6E5"/>
</linearGradient>
</defs>
</svg>
