<svg width="113" height="24" viewBox="0 0 113 24" fill="none" xmlns="http://www.w3.org/2000/svg">
<g filter="url(#filter0_d_4051_1671)">
<path d="M9.03191 15.766V13.28C7.60924 13.0453 6.45791 12.4293 5.57791 11.432C4.71257 10.42 4.27991 9.19533 4.27991 7.758C4.27991 6.67267 4.52924 5.70467 5.02791 4.854C5.54124 3.98867 6.24524 3.314 7.13991 2.83C8.04924 2.346 9.07591 2.104 10.2199 2.104C11.3786 2.104 12.4126 2.346 13.3219 2.83C14.2459 3.314 14.9572 3.98867 15.4559 4.854C15.9692 5.70467 16.2259 6.67267 16.2259 7.758C16.2259 9.19533 15.7859 10.4127 14.9059 11.41C14.0406 12.4073 12.8892 13.0307 11.4519 13.28V15.766H19.1299V17.724H1.39791V15.766H9.03191ZM6.65591 7.758C6.65591 8.814 6.98591 9.67933 7.64591 10.354C8.30591 11.0287 9.16391 11.366 10.2199 11.366C11.3052 11.366 12.1779 11.0287 12.8379 10.354C13.5126 9.67933 13.8499 8.814 13.8499 7.758C13.8499 6.68733 13.5126 5.81467 12.8379 5.14C12.1779 4.45067 11.3052 4.106 10.2199 4.106C9.16391 4.106 8.30591 4.45067 7.64591 5.14C6.98591 5.81467 6.65591 6.68733 6.65591 7.758ZM31.8756 15.392V13.874H21.7776V12.026H34.2956V17.13H24.2636V18.692H34.9116V20.54H21.8216V15.392H31.8756ZM19.2256 8.704H36.9576V10.64H19.2256V8.704ZM24.3076 1.422V5.448H34.7136V7.362H21.9096V1.422H24.3076ZM57.8537 1.18V20.1H55.5437V1.18H57.8537ZM54.0257 1.554V19.176H51.7597V12.026H49.4057C48.995 12.6713 48.467 13.17 47.8217 13.522C47.191 13.874 46.4797 14.05 45.6877 14.05C44.793 14.05 43.9937 13.8153 43.2897 13.346C42.5857 12.8767 42.0357 12.224 41.6397 11.388C41.2437 10.5373 41.0457 9.57667 41.0457 8.506C41.0457 7.42067 41.2437 6.46 41.6397 5.624C42.0357 4.77333 42.5857 4.11333 43.2897 3.644C43.9937 3.16 44.793 2.918 45.6877 2.918C46.5237 2.918 47.2717 3.12333 47.9317 3.534C48.6064 3.93 49.149 4.48733 49.5597 5.206H51.7597V1.554H54.0257ZM45.6877 11.894C46.4064 11.894 46.9857 11.586 47.4257 10.97C47.8804 10.3393 48.1077 9.518 48.1077 8.506C48.1077 7.47933 47.8804 6.65067 47.4257 6.02C46.9857 5.38933 46.4064 5.074 45.6877 5.074C44.9837 5.074 44.4117 5.38933 43.9717 6.02C43.5317 6.65067 43.3117 7.47933 43.3117 8.506C43.3117 9.518 43.5317 10.3393 43.9717 10.97C44.4117 11.586 44.9837 11.894 45.6877 11.894ZM51.7597 10.068V7.164H50.2637C50.337 7.63333 50.3737 8.08067 50.3737 8.506C50.3737 8.97533 50.3224 9.496 50.2197 10.068H51.7597ZM74.1854 1.202V3.908H76.8254V5.91H74.1854V8.132H76.8254V10.112H74.1854V12.532H71.7434V1.202H74.1854ZM74.1854 13.368V20.782H71.7434V15.304H62.0414V13.368H74.1854ZM64.1974 11.652C63.2148 11.652 62.3348 11.4467 61.5574 11.036C60.7948 10.6253 60.1934 10.0533 59.7534 9.32C59.3281 8.58667 59.1154 7.75067 59.1154 6.812C59.1154 5.87333 59.3281 5.03733 59.7534 4.304C60.1934 3.556 60.7948 2.97667 61.5574 2.566C62.3348 2.15533 63.2148 1.95 64.1974 1.95C65.1801 1.95 66.0528 2.15533 66.8154 2.566C67.5781 2.97667 68.1721 3.556 68.5974 4.304C69.0374 5.03733 69.2574 5.87333 69.2574 6.812C69.2574 7.75067 69.0374 8.58667 68.5974 9.32C68.1721 10.0533 67.5781 10.6253 66.8154 11.036C66.0528 11.4467 65.1801 11.652 64.1974 11.652ZM64.1974 9.672C65.0041 9.672 65.6494 9.408 66.1334 8.88C66.6321 8.352 66.8814 7.66267 66.8814 6.812C66.8814 5.94667 66.6321 5.25 66.1334 4.722C65.6494 4.17933 65.0041 3.908 64.1974 3.908C63.3908 3.908 62.7381 4.17933 62.2394 4.722C61.7408 5.25 61.4914 5.94667 61.4914 6.812C61.4914 7.66267 61.7408 8.352 62.2394 8.88C62.7381 9.408 63.3908 9.672 64.1974 9.672ZM91.3092 1.422V9.452H94.5872V10.596H91.3092V19.88H89.9672V1.422H91.3092ZM81.6072 3.93V1.686H82.8832V3.93H87.4152V5.074H77.0752V3.93H81.6072ZM82.2452 14.886C81.3945 14.886 80.6392 14.7027 79.9792 14.336C79.3192 13.9693 78.7985 13.456 78.4172 12.796C78.0505 12.136 77.8672 11.3807 77.8672 10.53C77.8672 9.67933 78.0505 8.924 78.4172 8.264C78.7985 7.58933 79.3192 7.06867 79.9792 6.702C80.6392 6.32067 81.3945 6.13 82.2452 6.13C83.0958 6.13 83.8512 6.32067 84.5112 6.702C85.1712 7.06867 85.6845 7.58933 86.0512 8.264C86.4325 8.924 86.6232 9.67933 86.6232 10.53C86.6232 11.3807 86.4325 12.136 86.0512 12.796C85.6845 13.456 85.1712 13.9693 84.5112 14.336C83.8512 14.7027 83.0958 14.886 82.2452 14.886ZM82.2452 13.698C83.1692 13.698 83.9245 13.4047 84.5112 12.818C85.0978 12.2167 85.3912 11.454 85.3912 10.53C85.3912 9.59133 85.0978 8.82133 84.5112 8.22C83.9245 7.61867 83.1692 7.318 82.2452 7.318C81.3212 7.318 80.5658 7.61867 79.9792 8.22C79.3925 8.82133 79.0992 9.59133 79.0992 10.53C79.0992 11.454 79.3925 12.2167 79.9792 12.818C80.5658 13.4047 81.3212 13.698 82.2452 13.698ZM95.3506 2.676H103.997V4.414H108.485V1.444H109.827V14.182H108.485V9.628H103.997V11.102H95.3506V2.676ZM99.1786 13.918V18.934H109.783V20.078H97.8366V13.918H99.1786ZM102.699 9.98V3.798H96.6486V9.98H102.699ZM108.485 8.506V5.558H103.997V8.506H108.485Z" fill="white"/>
</g>
<defs>
<filter id="filter0_d_4051_1671" x="0.397919" y="0.179688" width="112.429" height="23.6025" filterUnits="userSpaceOnUse" color-interpolation-filters="sRGB">
<feFlood flood-opacity="0" result="BackgroundImageFix"/>
<feColorMatrix in="SourceAlpha" type="matrix" values="0 0 0 0 0 0 0 0 0 0 0 0 0 0 0 0 0 0 127 0" result="hardAlpha"/>
<feOffset dx="1" dy="1"/>
<feGaussianBlur stdDeviation="1"/>
<feComposite in2="hardAlpha" operator="out"/>
<feColorMatrix type="matrix" values="0 0 0 0 0 0 0 0 0 0 0 0 0 0 0 0 0 0 0.4 0"/>
<feBlend mode="normal" in2="BackgroundImageFix" result="effect1_dropShadow_4051_1671"/>
<feBlend mode="normal" in="SourceGraphic" in2="effect1_dropShadow_4051_1671" result="shape"/>
</filter>
</defs>
</svg>
