<svg width="219" height="127" viewBox="0 0 219 127" fill="none" xmlns="http://www.w3.org/2000/svg">
<g filter="url(#filter0_d_4051_6432)">
<path d="M33.1739 7.98V44.1H28.8059V7.98H33.1739ZM20.8679 20.076V8.736H25.1939V42.336H20.8679V23.856H13.0979V20.076H20.8679ZM17.7179 34.65H2.80786V10.962H7.38586V30.744H17.7179V34.65ZM66.8726 7.938V44.184H62.2106V7.938H66.8726ZM46.7966 32.55C44.8366 32.55 43.0726 32.102 41.5046 31.206C39.9646 30.31 38.7606 29.064 37.8926 27.468C37.0246 25.844 36.5906 24.01 36.5906 21.966C36.5906 19.894 37.0246 18.06 37.8926 16.464C38.7606 14.84 39.9646 13.58 41.5046 12.684C43.0726 11.76 44.8366 11.298 46.7966 11.298C48.7566 11.298 50.5066 11.76 52.0466 12.684C53.5866 13.58 54.7906 14.84 55.6586 16.464C56.5266 18.06 56.9606 19.894 56.9606 21.966C56.9606 24.01 56.5266 25.844 55.6586 27.468C54.7906 29.064 53.5866 30.31 52.0466 31.206C50.5066 32.102 48.7566 32.55 46.7966 32.55ZM46.7966 28.602C48.5046 28.602 49.8766 28 50.9126 26.796C51.9486 25.564 52.4666 23.954 52.4666 21.966C52.4666 19.978 51.9486 18.368 50.9126 17.136C49.8766 15.876 48.5046 15.246 46.7966 15.246C45.0886 15.246 43.7166 15.876 42.6806 17.136C41.6446 18.368 41.1266 19.978 41.1266 21.966C41.1266 23.954 41.6446 25.564 42.6806 26.796C43.7166 28 45.0886 28.602 46.7966 28.602ZM102.041 7.938V44.184H97.4214V23.394H90.3234V34.818H72.4734V10.542H77.0934V19.698H85.7454V10.542H90.3234V19.698H97.4214V7.938H102.041ZM77.0934 31.08H85.7454V23.31H77.0934V31.08ZM121.9 30.996H145.924V44.94H121.9V30.996ZM141.43 41.286V34.608H126.478V41.286H141.43ZM115.642 10.374H130.342V16.632H134.206V8.694H138.49V28.938H134.206V20.412H130.342V26.754H115.642V10.374ZM125.974 23.184V13.944H119.968V23.184H125.974ZM141.556 8.022H145.924V29.316H141.556V8.022ZM180.211 7.938V44.184H175.591V23.394H168.493V34.818H150.643V10.542H155.263V19.698H163.915V10.542H168.493V19.698H175.591V7.938H180.211ZM155.263 31.08H163.915V23.31H155.263V31.08ZM214.791 8.022V28.056H210.171V8.022H214.791ZM196.059 29.82V33.684H210.255V29.82H214.791V44.94H191.523V29.82H196.059ZM196.059 41.244H210.255V37.254H196.059V41.244ZM185.097 25.326L191.271 17.682C191.859 16.926 192.265 16.254 192.489 15.666C192.741 15.078 192.867 14.49 192.867 13.902V9.366H197.361V13.902C197.361 14.49 197.473 15.078 197.697 15.666C197.921 16.226 198.341 16.898 198.957 17.682L205.131 25.326L201.855 28.014L195.681 20.37L195.093 19.656L194.547 20.37L188.373 28.014L185.097 25.326Z" fill="url(#paint0_linear_4051_6432)"/>
<path d="M51.3005 83.92V87.48H37.2605V99.28H32.9005V87.48H19.0605V83.92H51.3005ZM46.3005 65.48V79.96H23.9405V65.48H46.3005ZM28.2605 68.96V76.52H41.9805V68.96H28.2605ZM60.1945 90.72V85.04H56.3545V73.64H75.1545V69.4H56.2745V65.92H78.9145V77.08H60.4745V81.52H79.7145V85.04H75.3545V90.72H83.7145V94.28H51.4745V90.72H60.1945ZM71.0345 90.72V85.04H64.5145V90.72H71.0345ZM120.467 63.56V98.08H116.027V63.56H120.467ZM101.347 87C99.4807 87 97.8007 86.5733 96.3073 85.72C94.8407 84.8667 93.694 83.68 92.8673 82.16C92.0407 80.6133 91.6273 78.8667 91.6273 76.92C91.6273 74.9467 92.0407 73.2 92.8673 71.68C93.694 70.1333 94.8407 68.9333 96.3073 68.08C97.8007 67.2 99.4807 66.76 101.347 66.76C103.214 66.76 104.881 67.2 106.347 68.08C107.814 68.9333 108.961 70.1333 109.787 71.68C110.614 73.2 111.027 74.9467 111.027 76.92C111.027 78.8667 110.614 80.6133 109.787 82.16C108.961 83.68 107.814 84.8667 106.347 85.72C104.881 86.5733 103.214 87 101.347 87ZM101.347 83.24C102.974 83.24 104.281 82.6667 105.267 81.52C106.254 80.3467 106.747 78.8133 106.747 76.92C106.747 75.0267 106.254 73.4933 105.267 72.32C104.281 71.12 102.974 70.52 101.347 70.52C99.7207 70.52 98.414 71.12 97.4273 72.32C96.4407 73.4933 95.9473 75.0267 95.9473 76.92C95.9473 78.8133 96.4407 80.3467 97.4273 81.52C98.414 82.6667 99.7207 83.24 101.347 83.24ZM131.801 80.56V75.84C130.308 74.4267 129.561 72.7467 129.561 70.8C129.561 69.2533 129.975 67.9067 130.801 66.76C131.655 65.5867 132.828 64.68 134.321 64.04C135.841 63.4 137.575 63.08 139.521 63.08C141.495 63.08 143.241 63.4 144.761 64.04C146.308 64.68 147.508 65.5867 148.361 66.76C149.215 67.9067 149.641 69.2533 149.641 70.8C149.641 72.7733 148.868 74.4667 147.321 75.88V80.56H155.681V84.04H123.521V80.56H131.801ZM133.801 70.8C133.801 72 134.335 72.9867 135.401 73.76C136.468 74.5333 137.855 74.92 139.561 74.92C141.295 74.92 142.708 74.5333 143.801 73.76C144.895 72.9867 145.441 72 145.441 70.8C145.441 69.52 144.908 68.52 143.841 67.8C142.775 67.0533 141.348 66.68 139.561 66.68C137.828 66.68 136.428 67.0533 135.361 67.8C134.321 68.52 133.801 69.52 133.801 70.8ZM139.641 100.4C137.748 100.4 136.055 100.067 134.561 99.4C133.068 98.76 131.908 97.8533 131.081 96.68C130.255 95.5333 129.841 94.24 129.841 92.8C129.841 91.3333 130.255 90.04 131.081 88.92C131.908 87.7733 133.068 86.8933 134.561 86.28C136.055 85.64 137.748 85.32 139.641 85.32C141.535 85.32 143.228 85.64 144.721 86.28C146.215 86.8933 147.375 87.7733 148.201 88.92C149.055 90.04 149.481 91.3333 149.481 92.8C149.481 94.24 149.055 95.5333 148.201 96.68C147.375 97.8533 146.215 98.76 144.721 99.4C143.228 100.067 141.535 100.4 139.641 100.4ZM139.641 96.88C141.268 96.88 142.588 96.4933 143.601 95.72C144.641 94.9467 145.161 93.9733 145.161 92.8C145.161 91.68 144.641 90.7467 143.601 90C142.588 89.2267 141.268 88.84 139.641 88.84C138.041 88.84 136.721 89.2267 135.681 90C134.668 90.7467 134.161 91.68 134.161 92.8C134.161 93.9733 134.668 94.9467 135.681 95.72C136.695 96.4933 138.015 96.88 139.641 96.88ZM142.961 80.56V78.08C141.975 78.3467 140.828 78.48 139.521 78.48C138.268 78.48 137.148 78.3467 136.161 78.08V80.56H142.961ZM185.775 63.6V89.72H181.375V86.16H174.135V82.76H181.375V63.6H185.775ZM166.015 87.68V95H186.135V98.52H161.615V87.68H166.015ZM178.335 80.16H170.455V87.96H166.055V80.16H156.215V76.64H170.775V68.76H158.255V65.16H175.175V76.64H178.335V80.16ZM196.23 88.2H192.15L191.39 65.8H196.87L196.23 88.2ZM194.23 91.96C194.95 91.96 195.536 92.1867 195.99 92.64C196.443 93.0933 196.67 93.6933 196.67 94.44C196.67 95.1867 196.443 95.7867 195.99 96.24C195.536 96.72 194.95 96.96 194.23 96.96C193.483 96.96 192.87 96.72 192.39 96.24C191.936 95.7867 191.71 95.1867 191.71 94.44C191.71 93.6933 191.936 93.0933 192.39 92.64C192.87 92.1867 193.483 91.96 194.23 91.96Z" fill="#FF008C"/>
</g>
<path d="M29.3145 119.056L32.5545 115.804L33.1545 116.404L29.9025 119.656L33.1305 122.884L32.5545 123.472L29.3265 120.232L26.0745 123.484L25.4865 122.896L28.7265 119.644L25.4865 116.404L26.0745 115.816L29.3145 119.056ZM29.3505 116.776C29.1905 116.776 29.0585 116.724 28.9545 116.62C28.8505 116.516 28.7985 116.384 28.7985 116.224C28.7985 116.064 28.8505 115.936 28.9545 115.84C29.0585 115.736 29.1905 115.684 29.3505 115.684C29.5105 115.684 29.6385 115.736 29.7345 115.84C29.8385 115.936 29.8905 116.064 29.8905 116.224C29.8905 116.384 29.8385 116.516 29.7345 116.62C29.6385 116.724 29.5105 116.776 29.3505 116.776ZM29.3505 123.508C29.1905 123.508 29.0585 123.456 28.9545 123.352C28.8505 123.248 28.7985 123.116 28.7985 122.956C28.7985 122.796 28.8505 122.668 28.9545 122.572C29.0585 122.468 29.1905 122.416 29.3505 122.416C29.5105 122.416 29.6385 122.468 29.7345 122.572C29.8385 122.668 29.8905 122.796 29.8905 122.956C29.8905 123.116 29.8385 123.248 29.7345 123.352C29.6385 123.456 29.5105 123.508 29.3505 123.508ZM26.1105 120.148C25.9505 120.148 25.8185 120.096 25.7145 119.992C25.6105 119.888 25.5585 119.756 25.5585 119.596C25.5585 119.436 25.6105 119.308 25.7145 119.212C25.8185 119.108 25.9505 119.056 26.1105 119.056C26.2705 119.056 26.3985 119.108 26.4945 119.212C26.5985 119.308 26.6505 119.436 26.6505 119.596C26.6505 119.756 26.5985 119.888 26.4945 119.992C26.3985 120.096 26.2705 120.148 26.1105 120.148ZM32.6025 120.148C32.4425 120.148 32.3105 120.096 32.2065 119.992C32.1025 119.888 32.0505 119.756 32.0505 119.596C32.0505 119.436 32.1025 119.308 32.2065 119.212C32.3105 119.108 32.4425 119.056 32.6025 119.056C32.7625 119.056 32.8905 119.108 32.9865 119.212C33.0905 119.308 33.1425 119.436 33.1425 119.596C33.1425 119.756 33.0905 119.888 32.9865 119.992C32.8905 120.096 32.7625 120.148 32.6025 120.148ZM37.6737 119.764L37.9497 115.324H42.2697V116.092H38.7777L38.6097 118.78C39.0897 118.508 39.5657 118.372 40.0377 118.372C40.6057 118.372 41.1097 118.492 41.5497 118.732C41.9977 118.972 42.3457 119.308 42.5937 119.74C42.8417 120.172 42.9657 120.664 42.9657 121.216C42.9657 121.776 42.8417 122.276 42.5937 122.716C42.3457 123.156 41.9977 123.5 41.5497 123.748C41.1097 123.996 40.6057 124.12 40.0377 124.12C39.3737 124.12 38.7817 123.92 38.2617 123.52C37.7497 123.112 37.4177 122.588 37.2657 121.948L38.1057 121.756C38.2097 122.212 38.4417 122.584 38.8017 122.872C39.1617 123.16 39.5737 123.304 40.0377 123.304C40.4377 123.304 40.7937 123.216 41.1057 123.04C41.4177 122.864 41.6617 122.616 41.8377 122.296C42.0137 121.976 42.1017 121.616 42.1017 121.216C42.1017 120.824 42.0137 120.476 41.8377 120.172C41.6617 119.86 41.4177 119.62 41.1057 119.452C40.7937 119.276 40.4377 119.188 40.0377 119.188C39.7817 119.188 39.5137 119.256 39.2337 119.392C38.9537 119.528 38.7217 119.7 38.5377 119.908L37.6737 119.764ZM52.4686 120.208C52.4686 121.016 52.2926 121.708 51.9406 122.284C51.5886 122.86 51.1046 123.304 50.4886 123.616C49.8726 123.92 49.1766 124.08 48.4006 124.096C47.5766 124.096 46.8406 123.908 46.1926 123.532C45.5526 123.156 45.0486 122.632 44.6806 121.96C44.3206 121.288 44.1406 120.524 44.1406 119.668C44.1406 118.812 44.3206 118.052 44.6806 117.388C45.0486 116.716 45.5526 116.192 46.1926 115.816C46.8406 115.44 47.5766 115.252 48.4006 115.252C49.2006 115.252 49.8646 115.408 50.3926 115.72C50.9286 116.024 51.3046 116.324 51.5206 116.62C51.7366 116.916 51.9006 117.156 52.0126 117.34L51.2446 117.688C51.1566 117.544 51.0286 117.356 50.8606 117.124C50.6926 116.884 50.3966 116.64 49.9726 116.392C49.5566 116.144 49.0326 116.02 48.4006 116.02C47.7446 116.02 47.1566 116.176 46.6366 116.488C46.1246 116.8 45.7246 117.232 45.4366 117.784C45.1486 118.336 45.0046 118.964 45.0046 119.668C45.0046 120.372 45.1486 121.004 45.4366 121.564C45.7246 122.116 46.1246 122.548 46.6366 122.86C47.1566 123.172 47.7446 123.328 48.4006 123.328C49.3846 123.288 50.1726 123.012 50.7646 122.5C51.3566 121.98 51.6526 121.24 51.6526 120.28H48.5566V119.512H52.4806L52.4686 120.208ZM65.4114 122.752V123.508H55.8954V122.752H65.4114ZM64.5114 115.432V116.176H62.8554V119.872H64.4994V120.616H56.7714V119.872H58.3914V116.176H56.7474V115.432H64.5114ZM61.9674 119.872V116.176H59.3034V119.872H61.9674ZM74.4957 114.364V124.888H73.5957V114.364H74.4957ZM71.3277 115.372V119.08H67.4157V121.588C68.3597 121.588 69.2357 121.564 70.0437 121.516C70.8517 121.46 71.6957 121.36 72.5757 121.216L72.6717 121.948C71.7757 122.1 70.9197 122.204 70.1037 122.26C69.2877 122.308 68.3797 122.332 67.3797 122.332H66.5157V118.336H70.4277V116.104H66.4917V115.372H71.3277ZM81.312 115.408V122.224H76.512V115.408H81.312ZM77.4 116.14V121.492H80.448V116.14H77.4ZM84.48 114.364V124.888H83.58V114.364H84.48ZM88.7042 115.192C89.1762 115.192 89.6002 115.324 89.9762 115.588C90.3522 115.844 90.6562 116.216 90.8882 116.704C91.1202 117.192 91.2562 117.76 91.2962 118.408H93.6482V114.364H94.5362V124.888H93.6482V119.128H91.2962C91.2722 119.808 91.1442 120.404 90.9122 120.916C90.6882 121.42 90.3842 121.812 90.0002 122.092C89.6162 122.364 89.1842 122.5 88.7042 122.5C88.2002 122.5 87.7482 122.352 87.3482 122.056C86.9562 121.752 86.6482 121.324 86.4242 120.772C86.2082 120.22 86.1002 119.576 86.1002 118.84C86.1002 118.112 86.2082 117.472 86.4242 116.92C86.6482 116.368 86.9562 115.944 87.3482 115.648C87.7482 115.344 88.2002 115.192 88.7042 115.192ZM88.7042 115.996C88.3602 115.996 88.0562 116.116 87.7922 116.356C87.5282 116.588 87.3202 116.92 87.1682 117.352C87.0242 117.776 86.9522 118.272 86.9522 118.84C86.9522 119.408 87.0242 119.908 87.1682 120.34C87.3202 120.772 87.5282 121.108 87.7922 121.348C88.0562 121.58 88.3602 121.696 88.7042 121.696C89.0482 121.696 89.3522 121.58 89.6162 121.348C89.8802 121.108 90.0842 120.772 90.2282 120.34C90.3802 119.908 90.4562 119.408 90.4562 118.84C90.4562 118.272 90.3802 117.776 90.2282 117.352C90.0842 116.92 89.8802 116.588 89.6162 116.356C89.3522 116.116 89.0482 115.996 88.7042 115.996ZM107.118 114.376V124.876H106.254V114.376H107.118ZM105.03 114.616V124.336H104.178V119.224H102.798C102.766 120.248 102.546 121.06 102.138 121.66C101.738 122.252 101.214 122.548 100.566 122.548C100.118 122.548 99.7261 122.4 99.3901 122.104C99.0621 121.808 98.8061 121.384 98.6221 120.832C98.4381 120.28 98.3461 119.636 98.3461 118.9C98.3461 118.164 98.4381 117.524 98.6221 116.98C98.8061 116.428 99.0621 116.004 99.3901 115.708C99.7261 115.412 100.118 115.264 100.566 115.264C101.206 115.264 101.722 115.552 102.114 116.128C102.514 116.696 102.742 117.48 102.798 118.48H104.178V114.616H105.03ZM100.566 116.104C100.142 116.104 99.8021 116.356 99.5461 116.86C99.2981 117.364 99.1741 118.044 99.1741 118.9C99.1741 119.756 99.2981 120.44 99.5461 120.952C99.8021 121.456 100.142 121.708 100.566 121.708C101.006 121.708 101.35 121.456 101.598 120.952C101.854 120.448 101.982 119.764 101.982 118.9C101.982 118.044 101.854 117.364 101.598 116.86C101.35 116.356 101.006 116.104 100.566 116.104ZM114.15 117.052V114.58H115.002V121.96H114.15V117.796H112.482V117.052H114.15ZM117.054 114.376V122.248H116.202V114.376H117.054ZM111.126 121.288V123.892H117.378V124.636H110.226V121.288H111.126ZM111.294 115.12V116.68C111.294 117.32 111.482 117.924 111.858 118.492C112.234 119.06 112.742 119.488 113.382 119.776L112.878 120.46C112.406 120.244 111.998 119.944 111.654 119.56C111.318 119.176 111.058 118.74 110.874 118.252C110.682 118.796 110.402 119.288 110.034 119.728C109.674 120.16 109.25 120.492 108.762 120.724L108.258 120.04C108.69 119.832 109.07 119.544 109.398 119.176C109.734 118.808 109.99 118.404 110.166 117.964C110.342 117.524 110.43 117.096 110.43 116.68V115.12H111.294ZM125.947 115.48V114.376H126.847V119.884H125.947V118.108H123.835V117.388H125.947V116.212H123.835V115.48H125.947ZM126.847 120.412V122.848H121.015V124.024H127.243V124.732H120.127V122.176H125.959V121.132H120.115V120.412H126.847ZM121.747 114.64V115.756C121.747 116.22 121.859 116.668 122.083 117.1C122.307 117.532 122.615 117.916 123.007 118.252C123.399 118.58 123.843 118.832 124.339 119.008L123.871 119.704C123.287 119.48 122.771 119.156 122.323 118.732C121.883 118.308 121.551 117.82 121.327 117.268C121.103 117.876 120.763 118.412 120.307 118.876C119.851 119.34 119.319 119.684 118.711 119.908L118.243 119.212C118.747 119.028 119.199 118.76 119.599 118.408C119.999 118.056 120.311 117.652 120.535 117.196C120.759 116.732 120.871 116.252 120.871 115.756V114.64H121.747ZM132.889 122.764V119.896C132.441 119.664 132.089 119.364 131.833 118.996C131.585 118.62 131.461 118.2 131.461 117.736C131.461 117.2 131.621 116.728 131.941 116.32C132.269 115.912 132.721 115.6 133.297 115.384C133.873 115.16 134.529 115.048 135.265 115.048C136.001 115.048 136.657 115.16 137.233 115.384C137.809 115.6 138.257 115.912 138.577 116.32C138.905 116.728 139.069 117.2 139.069 117.736C139.069 118.192 138.945 118.604 138.697 118.972C138.457 119.34 138.117 119.644 137.677 119.884V122.764H140.041V123.508H130.525V122.764H132.889ZM135.265 115.768C134.697 115.768 134.189 115.852 133.741 116.02C133.301 116.18 132.957 116.408 132.709 116.704C132.461 117 132.337 117.344 132.337 117.736C132.337 118.128 132.461 118.472 132.709 118.768C132.957 119.064 133.301 119.296 133.741 119.464C134.189 119.624 134.697 119.704 135.265 119.704C135.833 119.704 136.337 119.624 136.777 119.464C137.225 119.296 137.573 119.064 137.821 118.768C138.077 118.472 138.205 118.128 138.205 117.736C138.205 117.344 138.077 117 137.821 116.704C137.573 116.408 137.225 116.18 136.777 116.02C136.337 115.852 135.833 115.768 135.265 115.768ZM136.777 122.764V120.232C136.321 120.352 135.817 120.412 135.265 120.412C134.729 120.412 134.233 120.352 133.777 120.232V122.764H136.777ZM148.801 114.94V115.708C148.801 116.284 148.785 116.8 148.753 117.256C148.721 117.712 148.641 118.232 148.513 118.816H150.049V119.56H140.533V118.816H147.625C147.761 118.232 147.845 117.712 147.877 117.256C147.909 116.8 147.925 116.284 147.925 115.708V115.684H141.757V114.94H148.801ZM148.849 121.024V124.744H141.709V121.024H148.849ZM142.585 121.744V124.012H147.973V121.744H142.585ZM159.433 114.376V124.876H158.569V114.376H159.433ZM156.469 118.168V114.628H157.309V124.324H156.469V118.912H154.693V118.168H156.469ZM155.497 115.624V116.368H153.589V117.364C153.589 118.3 153.789 119.18 154.189 120.004C154.589 120.828 155.137 121.444 155.833 121.852L155.281 122.512C154.777 122.208 154.345 121.788 153.985 121.252C153.625 120.708 153.349 120.092 153.157 119.404C152.973 120.14 152.693 120.804 152.317 121.396C151.941 121.98 151.493 122.436 150.973 122.764L150.421 122.092C151.125 121.66 151.681 121.012 152.089 120.148C152.505 119.276 152.713 118.348 152.713 117.364V116.368H150.685V115.624H155.497ZM170.551 116.872V114.388H171.451V122.248H170.551V117.628H168.223V116.872H170.551ZM166.375 115V116.344C166.375 117.08 166.615 117.764 167.095 118.396C167.575 119.028 168.191 119.488 168.943 119.776L168.463 120.472C167.887 120.248 167.379 119.916 166.939 119.476C166.507 119.028 166.179 118.516 165.955 117.94C165.731 118.572 165.387 119.132 164.923 119.62C164.467 120.1 163.931 120.468 163.315 120.724L162.847 120.004C163.359 119.812 163.815 119.528 164.215 119.152C164.615 118.776 164.927 118.344 165.151 117.856C165.375 117.36 165.487 116.848 165.487 116.32V115H166.375ZM165.619 121.36V123.892H171.703V124.636H164.719V121.36H165.619ZM177.343 115.144V115.888H174.175V117.244H177.235V117.952H174.175V119.428C174.967 119.428 175.627 119.408 176.155 119.368C176.691 119.328 177.231 119.256 177.775 119.152L177.871 119.884C177.295 119.996 176.723 120.072 176.155 120.112C175.595 120.152 174.867 120.172 173.971 120.172H173.311V115.144H177.343ZM181.675 114.376V120.736H180.823V117.88H179.347V120.676H178.495V114.58H179.347V117.136H180.823V114.376H181.675ZM181.675 121.3V124.876H180.787V122.044H174.655V121.3H181.675ZM188.809 115.3V117.208C188.809 117.832 188.937 118.452 189.193 119.068C189.449 119.676 189.793 120.22 190.225 120.7C190.657 121.18 191.125 121.536 191.629 121.768L191.089 122.488C190.489 122.192 189.949 121.748 189.469 121.156C188.989 120.556 188.625 119.88 188.377 119.128C188.137 119.928 187.773 120.644 187.285 121.276C186.797 121.908 186.245 122.376 185.629 122.68L185.077 121.936C185.581 121.696 186.049 121.328 186.481 120.832C186.921 120.336 187.269 119.772 187.525 119.14C187.781 118.5 187.909 117.856 187.909 117.208V115.3H188.809ZM193.693 114.364V124.888H192.793V114.364H193.693Z" fill="#AAAAAA"/>
<defs>
<filter id="filter0_d_4051_6432" x="1.80786" y="6.93848" width="215.984" height="96.4619" filterUnits="userSpaceOnUse" color-interpolation-filters="sRGB">
<feFlood flood-opacity="0" result="BackgroundImageFix"/>
<feColorMatrix in="SourceAlpha" type="matrix" values="0 0 0 0 0 0 0 0 0 0 0 0 0 0 0 0 0 0 127 0" result="hardAlpha"/>
<feOffset dx="1" dy="1"/>
<feGaussianBlur stdDeviation="1"/>
<feComposite in2="hardAlpha" operator="out"/>
<feColorMatrix type="matrix" values="0 0 0 0 0 0 0 0 0 0 0 0 0 0 0 0 0 0 0.4 0"/>
<feBlend mode="normal" in2="BackgroundImageFix" result="effect1_dropShadow_4051_6432"/>
<feBlend mode="normal" in="SourceGraphic" in2="effect1_dropShadow_4051_6432" result="shape"/>
</filter>
<linearGradient id="paint0_linear_4051_6432" x1="219" y1="40.5372" x2="8.49391" y2="21.9002" gradientUnits="userSpaceOnUse">
<stop stop-color="#FF008C"/>
<stop offset="1" stop-color="#FFC6E5"/>
</linearGradient>
</defs>
</svg>
