<svg width="305" height="127" viewBox="0 0 305 127" fill="none" xmlns="http://www.w3.org/2000/svg">
<g filter="url(#filter0_d_4051_517)">
<path d="M17.0485 42.42C14.6405 42.42 12.4565 42 10.4965 41.16C8.56448 40.32 6.89848 39.186 5.49848 37.758C4.09848 36.302 3.02048 34.622 2.26448 32.718C1.50848 30.814 1.13048 28.798 1.13048 26.67C1.13048 24.486 1.52248 22.442 2.30648 20.538C3.09048 18.606 4.16848 16.94 5.54048 15.54C6.94048 14.112 8.59248 12.992 10.4965 12.18C12.4285 11.34 14.5285 10.92 16.7965 10.92C18.3925 10.92 19.8905 11.116 21.2905 11.508C22.6905 11.9 23.9785 12.446 25.1545 13.146C26.3585 13.818 27.4225 14.644 28.3465 15.624C29.2985 16.576 30.0965 17.626 30.7405 18.774L25.7005 21.798C24.7485 20.034 23.5305 18.704 22.0465 17.808C20.5905 16.912 18.8545 16.464 16.8385 16.464C15.4105 16.464 14.0805 16.744 12.8485 17.304C11.6445 17.836 10.5805 18.564 9.65648 19.488C8.76048 20.412 8.06048 21.49 7.55648 22.722C7.05248 23.954 6.80048 25.27 6.80048 26.67C6.80048 28.098 7.05248 29.428 7.55648 30.66C8.06048 31.892 8.76048 32.97 9.65648 33.894C10.5805 34.818 11.6725 35.546 12.9325 36.078C14.1925 36.61 15.5645 36.876 17.0485 36.876C19.3445 36.876 21.2485 36.274 22.7605 35.07C24.3005 33.866 25.3505 32.256 25.9105 30.24H16.1245V24.78H32.0425V27.048C32.0425 29.12 31.6925 31.094 30.9925 32.97C30.2925 34.818 29.2845 36.442 27.9685 37.842C26.6805 39.242 25.1125 40.362 23.2645 41.202C21.4165 42.014 19.3445 42.42 17.0485 42.42ZM45.0641 42.504C43.5801 42.504 42.1101 42.224 40.6541 41.664C39.2261 41.076 37.9381 40.236 36.7901 39.144C35.6421 38.052 34.7181 36.722 34.0181 35.154C33.3181 33.558 32.9681 31.752 32.9681 29.736C32.9681 27.692 33.3041 25.886 33.9761 24.318C34.6761 22.722 35.5861 21.378 36.7061 20.286C37.8541 19.194 39.1561 18.368 40.6121 17.808C42.0681 17.22 43.5801 16.926 45.1481 16.926C46.7721 16.926 48.2701 17.234 49.6421 17.85C51.0141 18.466 52.1481 19.306 53.0441 20.37V17.43H58.7141V42H53.0441V38.808C52.1481 39.956 51.0001 40.866 49.6001 41.538C48.2001 42.182 46.6881 42.504 45.0641 42.504ZM45.9881 37.296C47.0241 37.296 47.9901 37.1 48.8861 36.708C49.8101 36.316 50.5941 35.77 51.2381 35.07C51.8821 34.37 52.3861 33.558 52.7501 32.634C53.1421 31.71 53.3381 30.716 53.3381 29.652C53.3381 28.616 53.1421 27.636 52.7501 26.712C52.3861 25.788 51.8821 24.99 51.2381 24.318C50.5941 23.618 49.8101 23.072 48.8861 22.68C47.9901 22.288 47.0241 22.092 45.9881 22.092C44.9241 22.092 43.9441 22.288 43.0481 22.68C42.1521 23.072 41.3681 23.604 40.6961 24.276C40.0241 24.948 39.4921 25.746 39.1001 26.67C38.7361 27.594 38.5541 28.588 38.5541 29.652C38.5541 30.716 38.7361 31.724 39.1001 32.676C39.4921 33.6 40.0241 34.412 40.6961 35.112C41.3681 35.784 42.1521 36.316 43.0481 36.708C43.9441 37.1 44.9241 37.296 45.9881 37.296ZM60.6839 10.92H66.3959V42H60.6839V10.92ZM79.7043 42.504C78.2203 42.504 76.7503 42.224 75.2943 41.664C73.8663 41.076 72.5783 40.236 71.4303 39.144C70.2823 38.052 69.3583 36.722 68.6583 35.154C67.9583 33.558 67.6083 31.752 67.6083 29.736C67.6083 27.692 67.9443 25.886 68.6163 24.318C69.3163 22.722 70.2263 21.378 71.3463 20.286C72.4943 19.194 73.7963 18.368 75.2523 17.808C76.7083 17.22 78.2203 16.926 79.7883 16.926C81.4123 16.926 82.9103 17.234 84.2823 17.85C85.6543 18.466 86.7883 19.306 87.6843 20.37V17.43H93.3543V42H87.6843V38.808C86.7883 39.956 85.6403 40.866 84.2403 41.538C82.8403 42.182 81.3283 42.504 79.7043 42.504ZM80.6283 37.296C81.6643 37.296 82.6303 37.1 83.5263 36.708C84.4503 36.316 85.2343 35.77 85.8783 35.07C86.5223 34.37 87.0263 33.558 87.3903 32.634C87.7823 31.71 87.9783 30.716 87.9783 29.652C87.9783 28.616 87.7823 27.636 87.3903 26.712C87.0263 25.788 86.5223 24.99 85.8783 24.318C85.2343 23.618 84.4503 23.072 83.5263 22.68C82.6303 22.288 81.6643 22.092 80.6283 22.092C79.5643 22.092 78.5843 22.288 77.6883 22.68C76.7923 23.072 76.0083 23.604 75.3363 24.276C74.6643 24.948 74.1323 25.746 73.7403 26.67C73.3763 27.594 73.1943 28.588 73.1943 29.652C73.1943 30.716 73.3763 31.724 73.7403 32.676C74.1323 33.6 74.6643 34.412 75.3363 35.112C76.0083 35.784 76.7923 36.316 77.6883 36.708C78.5843 37.1 79.5643 37.296 80.6283 37.296ZM102.726 29.484L93.8219 17.43H100.752L106.338 25.242L111.882 17.43H118.602L109.782 29.568L119.19 42H112.26L106.254 33.81L100.416 42H93.4859L102.726 29.484ZM128.147 40.782L118.067 17.43H124.115L130.961 33.978L137.429 17.43H143.393L128.735 53.34H122.981L128.147 40.782ZM152.14 11.34H158.104L163.9 32.802L170.326 11.34H175.954L182.338 32.718L188.092 11.34H193.846L185.194 42H179.524L173.098 20.37L166.672 42H160.876L152.14 11.34ZM202.439 42.504C200.955 42.504 199.485 42.224 198.029 41.664C196.601 41.076 195.313 40.236 194.165 39.144C193.017 38.052 192.093 36.722 191.393 35.154C190.693 33.558 190.343 31.752 190.343 29.736C190.343 27.692 190.679 25.886 191.351 24.318C192.051 22.722 192.961 21.378 194.081 20.286C195.229 19.194 196.531 18.368 197.987 17.808C199.443 17.22 200.955 16.926 202.523 16.926C204.147 16.926 205.645 17.234 207.017 17.85C208.389 18.466 209.523 19.306 210.419 20.37V17.43H216.089V42H210.419V38.808C209.523 39.956 208.375 40.866 206.975 41.538C205.575 42.182 204.063 42.504 202.439 42.504ZM203.363 37.296C204.399 37.296 205.365 37.1 206.261 36.708C207.185 36.316 207.969 35.77 208.613 35.07C209.257 34.37 209.761 33.558 210.125 32.634C210.517 31.71 210.713 30.716 210.713 29.652C210.713 28.616 210.517 27.636 210.125 26.712C209.761 25.788 209.257 24.99 208.613 24.318C207.969 23.618 207.185 23.072 206.261 22.68C205.365 22.288 204.399 22.092 203.363 22.092C202.299 22.092 201.319 22.288 200.423 22.68C199.527 23.072 198.743 23.604 198.071 24.276C197.399 24.948 196.867 25.746 196.475 26.67C196.111 27.594 195.929 28.588 195.929 29.652C195.929 30.716 196.111 31.724 196.475 32.676C196.867 33.6 197.399 34.412 198.071 35.112C198.743 35.784 199.527 36.316 200.423 36.708C201.319 37.1 202.299 37.296 203.363 37.296ZM217.177 17.43H221.377V13.692L227.089 9.786V17.43H232.087V22.512H227.089V31.71C227.089 32.774 227.145 33.642 227.257 34.314C227.369 34.958 227.593 35.462 227.929 35.826C228.293 36.162 228.797 36.386 229.441 36.498C230.113 36.61 230.995 36.666 232.087 36.666V42H231.289C229.385 42 227.789 41.832 226.501 41.496C225.241 41.16 224.233 40.6 223.477 39.816C222.721 39.004 222.175 37.954 221.839 36.666C221.531 35.35 221.377 33.712 221.377 31.752V22.512H217.177V17.43ZM244.724 42.504C242.932 42.504 241.252 42.168 239.684 41.496C238.144 40.824 236.8 39.914 235.652 38.766C234.504 37.618 233.594 36.274 232.922 34.734C232.278 33.166 231.956 31.5 231.956 29.736C231.956 27.944 232.278 26.278 232.922 24.738C233.594 23.17 234.504 21.812 235.652 20.664C236.8 19.488 238.144 18.578 239.684 17.934C241.252 17.262 242.932 16.926 244.724 16.926C246.096 16.926 247.384 17.122 248.588 17.514C249.82 17.878 250.94 18.396 251.948 19.068C252.956 19.74 253.838 20.538 254.594 21.462C255.35 22.386 255.966 23.408 256.442 24.528L251.36 26.67C250.8 25.326 249.932 24.262 248.756 23.478C247.608 22.666 246.278 22.26 244.766 22.26C243.73 22.26 242.764 22.456 241.868 22.848C241 23.24 240.23 23.772 239.558 24.444C238.914 25.116 238.41 25.914 238.046 26.838C237.682 27.734 237.5 28.7 237.5 29.736C237.5 30.744 237.682 31.71 238.046 32.634C238.41 33.53 238.914 34.314 239.558 34.986C240.23 35.658 241 36.19 241.868 36.582C242.764 36.974 243.744 37.17 244.808 37.17C246.404 37.17 247.762 36.75 248.882 35.91C250.03 35.042 250.884 33.936 251.444 32.592L256.526 34.776C256.05 35.924 255.434 36.974 254.678 37.926C253.922 38.85 253.04 39.662 252.032 40.362C251.052 41.034 249.946 41.566 248.714 41.958C247.482 42.322 246.152 42.504 244.724 42.504ZM257.416 10.92H263.086V20.37C263.926 19.306 264.962 18.466 266.194 17.85C267.454 17.234 268.868 16.926 270.436 16.926C273.488 16.926 275.868 17.85 277.576 19.698C279.312 21.546 280.18 24.122 280.18 27.426V42H274.384V28.056C274.384 26.124 273.922 24.612 272.998 23.52C272.074 22.4 270.688 21.84 268.84 21.84C268.028 21.84 267.272 21.994 266.572 22.302C265.9 22.582 265.298 23.016 264.766 23.604C264.262 24.164 263.856 24.864 263.548 25.704C263.268 26.516 263.128 27.454 263.128 28.518V42H257.416V10.92ZM295.348 16.8H281.992V11.34H301.312V16.296L290.686 42H284.638L295.348 16.8Z" fill="url(#paint0_linear_4051_517)"/>
<path d="M102.428 75.6H96.4675V72.04H102.428V63.64H106.828V88.12H102.428V75.6ZM88.5875 86.76V95H107.108V98.52H84.1875V86.76H88.5875ZM78.2675 80.6L84.5075 74.28C85.0942 73.6933 85.4808 73.1333 85.6675 72.6C85.8808 72.04 85.9875 71.4133 85.9875 70.72V69.32H79.0275V65.72H96.8275V69.32H90.1875V70.72C90.1875 71.44 90.2808 72.0667 90.4675 72.6C90.6542 73.1067 91.0542 73.6667 91.6675 74.28L97.9075 80.6L95.0275 83.48L88.7875 77.16L88.1075 76.36L87.3875 77.16L81.1475 83.48L78.2675 80.6ZM140.042 63.64V84.4H135.842V76.04H132.442V84.2H128.322V64.28H132.442V72.44H135.842V63.64H140.042ZM140.042 86.16V99.24H135.642V89.64H116.842V86.16H140.042ZM118.122 82.64C116.495 82.64 115.042 82.28 113.762 81.56C112.508 80.8133 111.522 79.7867 110.802 78.48C110.108 77.1467 109.762 75.64 109.762 73.96C109.762 72.28 110.108 70.7867 110.802 69.48C111.522 68.1467 112.508 67.1067 113.762 66.36C115.042 65.6133 116.495 65.24 118.122 65.24C119.748 65.24 121.188 65.6133 122.442 66.36C123.722 67.1067 124.708 68.1467 125.402 69.48C126.122 70.7867 126.482 72.28 126.482 73.96C126.482 75.64 126.122 77.1467 125.402 78.48C124.708 79.7867 123.722 80.8133 122.442 81.56C121.188 82.28 119.748 82.64 118.122 82.64ZM118.122 79C119.428 79 120.468 78.5467 121.242 77.64C122.042 76.7067 122.442 75.48 122.442 73.96C122.442 72.44 122.042 71.2133 121.242 70.28C120.468 69.3467 119.428 68.88 118.122 68.88C116.842 68.88 115.788 69.3467 114.962 70.28C114.162 71.2133 113.762 72.44 113.762 73.96C113.762 75.48 114.162 76.7067 114.962 77.64C115.788 78.5467 116.842 79 118.122 79ZM177.194 63.56V71.52H182.114V75.12H177.194V82.92H172.754V63.56H177.194ZM177.194 84.52V93.12H159.194V95.64H178.074V98.92H154.874V90.08H172.834V87.76H154.754V84.52H177.194ZM169.554 70.32H166.474C167.594 71.7067 168.154 73.1733 168.154 74.72C168.154 76.2133 167.794 77.56 167.074 78.76C166.354 79.9333 165.354 80.8533 164.074 81.52C162.794 82.16 161.328 82.48 159.674 82.48C158.074 82.48 156.634 82.16 155.354 81.52C154.101 80.8533 153.114 79.9333 152.394 78.76C151.674 77.56 151.314 76.2133 151.314 74.72C151.314 73.1733 151.874 71.7067 152.994 70.32H149.874V66.72H157.594V63.24H161.834V66.72H169.554V70.32ZM155.514 74.72C155.514 76 155.901 77.04 156.674 77.84C157.448 78.64 158.448 79.04 159.674 79.04C160.954 79.04 161.994 78.64 162.794 77.84C163.594 77.04 163.994 76 163.994 74.72C163.994 73.4133 163.594 72.36 162.794 71.56C161.994 70.7333 160.954 70.32 159.674 70.32C158.421 70.32 157.408 70.7333 156.634 71.56C155.888 72.36 155.514 73.4133 155.514 74.72ZM211.128 63.64V87.88H206.728V63.64H211.128ZM193.128 86.68V95H211.448V98.52H188.728V86.68H193.128ZM191.848 82.84C190.062 82.84 188.462 82.4667 187.048 81.72C185.662 80.9733 184.568 79.9333 183.768 78.6C182.995 77.2667 182.608 75.7467 182.608 74.04C182.608 72.3333 182.995 70.8133 183.768 69.48C184.568 68.12 185.662 67.0667 187.048 66.32C188.462 65.5733 190.062 65.2 191.848 65.2C193.635 65.2 195.222 65.5733 196.608 66.32C197.995 67.0667 199.075 68.12 199.848 69.48C200.648 70.8133 201.048 72.3333 201.048 74.04C201.048 75.7467 200.648 77.2667 199.848 78.6C199.075 79.9333 197.995 80.9733 196.608 81.72C195.222 82.4667 193.635 82.84 191.848 82.84ZM191.848 79.24C193.315 79.24 194.488 78.76 195.368 77.8C196.275 76.84 196.728 75.5867 196.728 74.04C196.728 72.4667 196.275 71.2 195.368 70.24C194.488 69.28 193.315 68.8 191.848 68.8C190.355 68.8 189.155 69.28 188.248 70.24C187.368 71.2 186.928 72.4667 186.928 74.04C186.928 75.6133 187.382 76.88 188.288 77.84C189.195 78.7733 190.382 79.24 191.848 79.24ZM222.023 88.2H217.943L217.183 65.8H222.663L222.023 88.2ZM220.023 91.96C220.743 91.96 221.329 92.1867 221.783 92.64C222.236 93.0933 222.463 93.6933 222.463 94.44C222.463 95.1867 222.236 95.7867 221.783 96.24C221.329 96.72 220.743 96.96 220.023 96.96C219.276 96.96 218.663 96.72 218.183 96.24C217.729 95.7867 217.503 95.1867 217.503 94.44C217.503 93.6933 217.729 93.0933 218.183 92.64C218.663 92.1867 219.276 91.96 220.023 91.96Z" fill="#FF008C"/>
</g>
<path d="M80.9067 119.056L84.1467 115.804L84.7467 116.404L81.4947 119.656L84.7227 122.884L84.1467 123.472L80.9187 120.232L77.6667 123.484L77.0787 122.896L80.3187 119.644L77.0787 116.404L77.6667 115.816L80.9067 119.056ZM80.9427 116.776C80.7827 116.776 80.6507 116.724 80.5467 116.62C80.4427 116.516 80.3907 116.384 80.3907 116.224C80.3907 116.064 80.4427 115.936 80.5467 115.84C80.6507 115.736 80.7827 115.684 80.9427 115.684C81.1027 115.684 81.2307 115.736 81.3267 115.84C81.4307 115.936 81.4827 116.064 81.4827 116.224C81.4827 116.384 81.4307 116.516 81.3267 116.62C81.2307 116.724 81.1027 116.776 80.9427 116.776ZM80.9427 123.508C80.7827 123.508 80.6507 123.456 80.5467 123.352C80.4427 123.248 80.3907 123.116 80.3907 122.956C80.3907 122.796 80.4427 122.668 80.5467 122.572C80.6507 122.468 80.7827 122.416 80.9427 122.416C81.1027 122.416 81.2307 122.468 81.3267 122.572C81.4307 122.668 81.4827 122.796 81.4827 122.956C81.4827 123.116 81.4307 123.248 81.3267 123.352C81.2307 123.456 81.1027 123.508 80.9427 123.508ZM77.7027 120.148C77.5427 120.148 77.4107 120.096 77.3067 119.992C77.2027 119.888 77.1507 119.756 77.1507 119.596C77.1507 119.436 77.2027 119.308 77.3067 119.212C77.4107 119.108 77.5427 119.056 77.7027 119.056C77.8627 119.056 77.9907 119.108 78.0867 119.212C78.1907 119.308 78.2427 119.436 78.2427 119.596C78.2427 119.756 78.1907 119.888 78.0867 119.992C77.9907 120.096 77.8627 120.148 77.7027 120.148ZM84.1947 120.148C84.0347 120.148 83.9027 120.096 83.7987 119.992C83.6947 119.888 83.6427 119.756 83.6427 119.596C83.6427 119.436 83.6947 119.308 83.7987 119.212C83.9027 119.108 84.0347 119.056 84.1947 119.056C84.3547 119.056 84.4827 119.108 84.5787 119.212C84.6827 119.308 84.7347 119.436 84.7347 119.596C84.7347 119.756 84.6827 119.888 84.5787 119.992C84.4827 120.096 84.3547 120.148 84.1947 120.148ZM86.9803 119.764L87.2563 115.324H91.5763V116.092H88.0843L87.9163 118.78C88.3963 118.508 88.8723 118.372 89.3443 118.372C89.9123 118.372 90.4163 118.492 90.8563 118.732C91.3043 118.972 91.6523 119.308 91.9003 119.74C92.1483 120.172 92.2723 120.664 92.2723 121.216C92.2723 121.776 92.1483 122.276 91.9003 122.716C91.6523 123.156 91.3043 123.5 90.8563 123.748C90.4163 123.996 89.9123 124.12 89.3443 124.12C88.6803 124.12 88.0883 123.92 87.5683 123.52C87.0563 123.112 86.7243 122.588 86.5723 121.948L87.4123 121.756C87.5163 122.212 87.7483 122.584 88.1083 122.872C88.4683 123.16 88.8803 123.304 89.3443 123.304C89.7443 123.304 90.1003 123.216 90.4123 123.04C90.7243 122.864 90.9683 122.616 91.1443 122.296C91.3203 121.976 91.4083 121.616 91.4083 121.216C91.4083 120.824 91.3203 120.476 91.1443 120.172C90.9683 119.86 90.7243 119.62 90.4123 119.452C90.1003 119.276 89.7443 119.188 89.3443 119.188C89.0883 119.188 88.8203 119.256 88.5403 119.392C88.2603 119.528 88.0283 119.7 87.8443 119.908L86.9803 119.764ZM101.775 120.208C101.775 121.016 101.599 121.708 101.247 122.284C100.895 122.86 100.411 123.304 99.7953 123.616C99.1793 123.92 98.4833 124.08 97.7073 124.096C96.8833 124.096 96.1473 123.908 95.4993 123.532C94.8593 123.156 94.3553 122.632 93.9873 121.96C93.6273 121.288 93.4473 120.524 93.4473 119.668C93.4473 118.812 93.6273 118.052 93.9873 117.388C94.3553 116.716 94.8593 116.192 95.4993 115.816C96.1473 115.44 96.8833 115.252 97.7073 115.252C98.5073 115.252 99.1713 115.408 99.6993 115.72C100.235 116.024 100.611 116.324 100.827 116.62C101.043 116.916 101.207 117.156 101.319 117.34L100.551 117.688C100.463 117.544 100.335 117.356 100.167 117.124C99.9993 116.884 99.7033 116.64 99.2793 116.392C98.8633 116.144 98.3393 116.02 97.7073 116.02C97.0513 116.02 96.4633 116.176 95.9433 116.488C95.4313 116.8 95.0313 117.232 94.7433 117.784C94.4553 118.336 94.3113 118.964 94.3113 119.668C94.3113 120.372 94.4553 121.004 94.7433 121.564C95.0313 122.116 95.4313 122.548 95.9433 122.86C96.4633 123.172 97.0513 123.328 97.7073 123.328C98.6913 123.288 99.4793 123.012 100.071 122.5C100.663 121.98 100.959 121.24 100.959 120.28H97.8633V119.512H101.787L101.775 120.208ZM113.266 114.364V118.54H115.006V119.296H113.266V124.888H112.366V114.364H113.266ZM110.542 115.408V116.14H106.558V121.492C107.598 121.492 108.474 121.468 109.186 121.42C109.906 121.372 110.63 121.276 111.358 121.132L111.466 121.9C110.698 122.044 109.942 122.14 109.198 122.188C108.462 122.236 107.558 122.26 106.486 122.26H105.67V115.408H110.542ZM123.778 114.364V124.888H122.878V114.364H123.778ZM118.258 115.192C118.77 115.192 119.226 115.344 119.626 115.648C120.034 115.944 120.35 116.368 120.574 116.92C120.798 117.472 120.91 118.112 120.91 118.84C120.91 119.568 120.798 120.212 120.574 120.772C120.35 121.324 120.034 121.752 119.626 122.056C119.226 122.352 118.77 122.5 118.258 122.5C117.738 122.5 117.274 122.352 116.866 122.056C116.466 121.752 116.154 121.324 115.93 120.772C115.706 120.22 115.594 119.576 115.594 118.84C115.594 118.112 115.706 117.472 115.93 116.92C116.154 116.368 116.466 115.944 116.866 115.648C117.274 115.344 117.738 115.192 118.258 115.192ZM118.258 115.996C117.906 115.996 117.594 116.116 117.322 116.356C117.058 116.588 116.85 116.92 116.698 117.352C116.546 117.776 116.47 118.272 116.47 118.84C116.47 119.408 116.546 119.908 116.698 120.34C116.85 120.772 117.058 121.108 117.322 121.348C117.594 121.58 117.906 121.696 118.258 121.696C118.602 121.696 118.91 121.58 119.182 121.348C119.454 121.108 119.666 120.772 119.818 120.34C119.97 119.9 120.046 119.4 120.046 118.84C120.046 118.28 119.97 117.784 119.818 117.352C119.666 116.92 119.454 116.588 119.182 116.356C118.91 116.116 118.602 115.996 118.258 115.996ZM134.051 121.444V124.876H133.163V122.188H127.067V121.444H134.051ZM129.395 115.168V118.072H126.563V119.692C127.283 119.692 127.923 119.668 128.483 119.62C129.043 119.572 129.619 119.488 130.211 119.368L130.319 120.1C129.687 120.22 129.071 120.304 128.471 120.352C127.871 120.392 127.171 120.412 126.371 120.412H125.711V117.388H128.531V115.9H125.675V115.168H129.395ZM134.051 114.376V120.928H133.199V114.376H134.051ZM131.147 117.088V114.58H131.999V120.856H131.147V117.832H129.815V117.088H131.147ZM143.543 115.288V116.02H137.375V117.628H143.315V118.36H137.375V120.052H143.651V120.796H136.463V115.288H143.543ZM144.743 122.752V123.496H135.227V122.752H144.743ZM150.533 123.328C151.125 123.328 151.609 123.136 151.985 122.752C152.361 122.36 152.549 121.86 152.549 121.252C152.549 120.636 152.361 120.136 151.985 119.752C151.609 119.36 151.125 119.164 150.533 119.164C150.157 119.164 149.817 119.252 149.513 119.428C149.217 119.604 148.985 119.852 148.817 120.172C148.649 120.492 148.565 120.852 148.565 121.252C148.565 121.86 148.749 122.36 149.117 122.752C149.485 123.136 149.957 123.328 150.533 123.328ZM147.701 121.252C147.701 120.7 147.849 120.164 148.145 119.644L150.605 115.336H151.601L149.789 118.48C150.069 118.424 150.325 118.396 150.557 118.396C151.109 118.396 151.601 118.52 152.033 118.768C152.465 119.008 152.801 119.344 153.041 119.776C153.289 120.208 153.413 120.7 153.413 121.252C153.413 121.804 153.289 122.296 153.041 122.728C152.801 123.16 152.465 123.496 152.033 123.736C151.601 123.976 151.109 124.096 150.557 124.096C150.005 124.096 149.513 123.976 149.081 123.736C148.649 123.496 148.309 123.16 148.061 122.728C147.821 122.296 147.701 121.804 147.701 121.252ZM154.684 119.764L154.96 115.324H159.28V116.092H155.788L155.62 118.78C156.1 118.508 156.576 118.372 157.048 118.372C157.616 118.372 158.12 118.492 158.56 118.732C159.008 118.972 159.356 119.308 159.604 119.74C159.852 120.172 159.976 120.664 159.976 121.216C159.976 121.776 159.852 122.276 159.604 122.716C159.356 123.156 159.008 123.5 158.56 123.748C158.12 123.996 157.616 124.12 157.048 124.12C156.384 124.12 155.792 123.92 155.272 123.52C154.76 123.112 154.428 122.588 154.276 121.948L155.116 121.756C155.22 122.212 155.452 122.584 155.812 122.872C156.172 123.16 156.584 123.304 157.048 123.304C157.448 123.304 157.804 123.216 158.116 123.04C158.428 122.864 158.672 122.616 158.848 122.296C159.024 121.976 159.112 121.616 159.112 121.216C159.112 120.824 159.024 120.476 158.848 120.172C158.672 119.86 158.428 119.62 158.116 119.452C157.804 119.276 157.448 119.188 157.048 119.188C156.792 119.188 156.524 119.256 156.244 119.392C155.964 119.528 155.732 119.7 155.548 119.908L154.684 119.764ZM165.296 122.764V119.896C164.848 119.664 164.496 119.364 164.24 118.996C163.992 118.62 163.868 118.2 163.868 117.736C163.868 117.2 164.028 116.728 164.348 116.32C164.676 115.912 165.128 115.6 165.704 115.384C166.28 115.16 166.936 115.048 167.672 115.048C168.408 115.048 169.064 115.16 169.64 115.384C170.216 115.6 170.664 115.912 170.984 116.32C171.312 116.728 171.476 117.2 171.476 117.736C171.476 118.192 171.352 118.604 171.104 118.972C170.864 119.34 170.524 119.644 170.084 119.884V122.764H172.448V123.508H162.932V122.764H165.296ZM167.672 115.768C167.104 115.768 166.596 115.852 166.148 116.02C165.708 116.18 165.364 116.408 165.116 116.704C164.868 117 164.744 117.344 164.744 117.736C164.744 118.128 164.868 118.472 165.116 118.768C165.364 119.064 165.708 119.296 166.148 119.464C166.596 119.624 167.104 119.704 167.672 119.704C168.24 119.704 168.744 119.624 169.184 119.464C169.632 119.296 169.98 119.064 170.228 118.768C170.484 118.472 170.612 118.128 170.612 117.736C170.612 117.344 170.484 117 170.228 116.704C169.98 116.408 169.632 116.18 169.184 116.02C168.744 115.852 168.24 115.768 167.672 115.768ZM169.184 122.764V120.232C168.728 120.352 168.224 120.412 167.672 120.412C167.136 120.412 166.64 120.352 166.184 120.232V122.764H169.184ZM181.209 114.94V115.708C181.209 116.284 181.193 116.8 181.161 117.256C181.129 117.712 181.049 118.232 180.921 118.816H182.457V119.56H172.941V118.816H180.033C180.169 118.232 180.253 117.712 180.285 117.256C180.317 116.8 180.333 116.284 180.333 115.708V115.684H174.165V114.94H181.209ZM181.257 121.024V124.744H174.117V121.024H181.257ZM174.993 121.744V124.012H180.381V121.744H174.993ZM191.841 114.376V124.876H190.977V114.376H191.841ZM188.877 118.168V114.628H189.717V124.324H188.877V118.912H187.101V118.168H188.877ZM187.905 115.624V116.368H185.997V117.364C185.997 118.3 186.197 119.18 186.597 120.004C186.997 120.828 187.545 121.444 188.241 121.852L187.689 122.512C187.185 122.208 186.753 121.788 186.393 121.252C186.033 120.708 185.757 120.092 185.565 119.404C185.381 120.14 185.101 120.804 184.725 121.396C184.349 121.98 183.901 122.436 183.381 122.764L182.829 122.092C183.533 121.66 184.089 121.012 184.497 120.148C184.913 119.276 185.121 118.348 185.121 117.364V116.368H183.093V115.624H187.905ZM202.959 116.872V114.388H203.859V122.248H202.959V117.628H200.631V116.872H202.959ZM198.783 115V116.344C198.783 117.08 199.023 117.764 199.503 118.396C199.983 119.028 200.599 119.488 201.351 119.776L200.871 120.472C200.295 120.248 199.787 119.916 199.347 119.476C198.915 119.028 198.587 118.516 198.363 117.94C198.139 118.572 197.795 119.132 197.331 119.62C196.875 120.1 196.339 120.468 195.723 120.724L195.255 120.004C195.767 119.812 196.223 119.528 196.623 119.152C197.023 118.776 197.335 118.344 197.559 117.856C197.783 117.36 197.895 116.848 197.895 116.32V115H198.783ZM198.027 121.36V123.892H204.111V124.636H197.127V121.36H198.027ZM209.751 115.144V115.888H206.583V117.244H209.643V117.952H206.583V119.428C207.375 119.428 208.035 119.408 208.563 119.368C209.099 119.328 209.639 119.256 210.183 119.152L210.279 119.884C209.703 119.996 209.131 120.072 208.563 120.112C208.003 120.152 207.275 120.172 206.379 120.172H205.719V115.144H209.751ZM214.083 114.376V120.736H213.231V117.88H211.755V120.676H210.903V114.58H211.755V117.136H213.231V114.376H214.083ZM214.083 121.3V124.876H213.195V122.044H207.063V121.3H214.083ZM221.217 115.3V117.208C221.217 117.832 221.345 118.452 221.601 119.068C221.857 119.676 222.201 120.22 222.633 120.7C223.065 121.18 223.533 121.536 224.037 121.768L223.497 122.488C222.897 122.192 222.357 121.748 221.877 121.156C221.397 120.556 221.033 119.88 220.785 119.128C220.545 119.928 220.181 120.644 219.693 121.276C219.205 121.908 218.653 122.376 218.037 122.68L217.485 121.936C217.989 121.696 218.457 121.328 218.889 120.832C219.329 120.336 219.677 119.772 219.933 119.14C220.189 118.5 220.317 117.856 220.317 117.208V115.3H221.217ZM226.101 114.364V124.888H225.201V114.364H226.101Z" fill="#AAAAAA"/>
<defs>
<filter id="filter0_d_4051_517" x="0.130482" y="8.78613" width="304.182" height="93.4541" filterUnits="userSpaceOnUse" color-interpolation-filters="sRGB">
<feFlood flood-opacity="0" result="BackgroundImageFix"/>
<feColorMatrix in="SourceAlpha" type="matrix" values="0 0 0 0 0 0 0 0 0 0 0 0 0 0 0 0 0 0 127 0" result="hardAlpha"/>
<feOffset dx="1" dy="1"/>
<feGaussianBlur stdDeviation="1"/>
<feComposite in2="hardAlpha" operator="out"/>
<feColorMatrix type="matrix" values="0 0 0 0 0 0 0 0 0 0 0 0 0 0 0 0 0 0 0.4 0"/>
<feBlend mode="normal" in2="BackgroundImageFix" result="effect1_dropShadow_4051_517"/>
<feBlend mode="normal" in="SourceGraphic" in2="effect1_dropShadow_4051_517" result="shape"/>
</filter>
<linearGradient id="paint0_linear_4051_517" x1="303" y1="40.5372" x2="13.8081" y2="5.11326" gradientUnits="userSpaceOnUse">
<stop stop-color="#FF008C"/>
<stop offset="1" stop-color="#FFC6E5"/>
</linearGradient>
</defs>
</svg>
