<svg width="249" height="157" viewBox="0 0 249 157" fill="none" xmlns="http://www.w3.org/2000/svg">
<g filter="url(#filter0_d_4925_1295)">
<path d="M77.0319 18.766V16.28C75.6092 16.0453 74.4579 15.4293 73.5779 14.432C72.7126 13.42 72.2799 12.1953 72.2799 10.758C72.2799 9.67267 72.5292 8.70467 73.0279 7.854C73.5412 6.98867 74.2452 6.314 75.1399 5.83C76.0492 5.346 77.0759 5.104 78.2199 5.104C79.3786 5.104 80.4126 5.346 81.3219 5.83C82.2459 6.314 82.9572 6.98867 83.4559 7.854C83.9692 8.70467 84.2259 9.67267 84.2259 10.758C84.2259 12.1953 83.7859 13.4127 82.9059 14.41C82.0406 15.4073 80.8892 16.0307 79.4519 16.28V18.766H87.1299V20.724H69.3979V18.766H77.0319ZM74.6559 10.758C74.6559 11.814 74.9859 12.6793 75.6459 13.354C76.3059 14.0287 77.1639 14.366 78.2199 14.366C79.3052 14.366 80.1779 14.0287 80.8379 13.354C81.5126 12.6793 81.8499 11.814 81.8499 10.758C81.8499 9.68733 81.5126 8.81467 80.8379 8.14C80.1779 7.45067 79.3052 7.106 78.2199 7.106C77.1639 7.106 76.3059 7.45067 75.6459 8.14C74.9859 8.81467 74.6559 9.68733 74.6559 10.758ZM99.8756 18.392V16.874H89.7776V15.026H102.296V20.13H92.2636V21.692H102.912V23.54H89.8216V18.392H99.8756ZM87.2256 11.704H104.958V13.64H87.2256V11.704ZM92.3076 4.422V8.448H102.714V10.362H89.9096V4.422H92.3076ZM125.854 4.18V23.1H123.544V4.18H125.854ZM122.026 4.554V22.176H119.76V15.026H117.406C116.995 15.6713 116.467 16.17 115.822 16.522C115.191 16.874 114.48 17.05 113.688 17.05C112.793 17.05 111.994 16.8153 111.29 16.346C110.586 15.8767 110.036 15.224 109.64 14.388C109.244 13.5373 109.046 12.5767 109.046 11.506C109.046 10.4207 109.244 9.46 109.64 8.624C110.036 7.77333 110.586 7.11333 111.29 6.644C111.994 6.16 112.793 5.918 113.688 5.918C114.524 5.918 115.272 6.12333 115.932 6.534C116.606 6.93 117.149 7.48733 117.56 8.206H119.76V4.554H122.026ZM113.688 14.894C114.406 14.894 114.986 14.586 115.426 13.97C115.88 13.3393 116.108 12.518 116.108 11.506C116.108 10.4793 115.88 9.65067 115.426 9.02C114.986 8.38933 114.406 8.074 113.688 8.074C112.984 8.074 112.412 8.38933 111.972 9.02C111.532 9.65067 111.312 10.4793 111.312 11.506C111.312 12.518 111.532 13.3393 111.972 13.97C112.412 14.586 112.984 14.894 113.688 14.894ZM119.76 13.068V10.164H118.264C118.337 10.6333 118.374 11.0807 118.374 11.506C118.374 11.9753 118.322 12.496 118.22 13.068H119.76ZM142.185 4.202V6.908H144.825V8.91H142.185V11.132H144.825V13.112H142.185V15.532H139.743V4.202H142.185ZM142.185 16.368V23.782H139.743V18.304H130.041V16.368H142.185ZM132.197 14.652C131.215 14.652 130.335 14.4467 129.557 14.036C128.795 13.6253 128.193 13.0533 127.753 12.32C127.328 11.5867 127.115 10.7507 127.115 9.812C127.115 8.87333 127.328 8.03733 127.753 7.304C128.193 6.556 128.795 5.97667 129.557 5.566C130.335 5.15533 131.215 4.95 132.197 4.95C133.18 4.95 134.053 5.15533 134.815 5.566C135.578 5.97667 136.172 6.556 136.597 7.304C137.037 8.03733 137.257 8.87333 137.257 9.812C137.257 10.7507 137.037 11.5867 136.597 12.32C136.172 13.0533 135.578 13.6253 134.815 14.036C134.053 14.4467 133.18 14.652 132.197 14.652ZM132.197 12.672C133.004 12.672 133.649 12.408 134.133 11.88C134.632 11.352 134.881 10.6627 134.881 9.812C134.881 8.94667 134.632 8.25 134.133 7.722C133.649 7.17933 133.004 6.908 132.197 6.908C131.391 6.908 130.738 7.17933 130.239 7.722C129.741 8.25 129.491 8.94667 129.491 9.812C129.491 10.6627 129.741 11.352 130.239 11.88C130.738 12.408 131.391 12.672 132.197 12.672ZM159.309 4.422V12.452H162.587V13.596H159.309V22.88H157.967V4.422H159.309ZM149.607 6.93V4.686H150.883V6.93H155.415V8.074H145.075V6.93H149.607ZM150.245 17.886C149.394 17.886 148.639 17.7027 147.979 17.336C147.319 16.9693 146.798 16.456 146.417 15.796C146.05 15.136 145.867 14.3807 145.867 13.53C145.867 12.6793 146.05 11.924 146.417 11.264C146.798 10.5893 147.319 10.0687 147.979 9.702C148.639 9.32067 149.394 9.13 150.245 9.13C151.096 9.13 151.851 9.32067 152.511 9.702C153.171 10.0687 153.684 10.5893 154.051 11.264C154.432 11.924 154.623 12.6793 154.623 13.53C154.623 14.3807 154.432 15.136 154.051 15.796C153.684 16.456 153.171 16.9693 152.511 17.336C151.851 17.7027 151.096 17.886 150.245 17.886ZM150.245 16.698C151.169 16.698 151.924 16.4047 152.511 15.818C153.098 15.2167 153.391 14.454 153.391 13.53C153.391 12.5913 153.098 11.8213 152.511 11.22C151.924 10.6187 151.169 10.318 150.245 10.318C149.321 10.318 148.566 10.6187 147.979 11.22C147.392 11.8213 147.099 12.5913 147.099 13.53C147.099 14.454 147.392 15.2167 147.979 15.818C148.566 16.4047 149.321 16.698 150.245 16.698ZM163.351 5.676H171.997V7.414H176.485V4.444H177.827V17.182H176.485V12.628H171.997V14.102H163.351V5.676ZM167.179 16.918V21.934H177.783V23.078H165.837V16.918H167.179ZM170.699 12.98V6.798H164.649V12.98H170.699ZM176.485 11.506V8.558H171.997V11.506H176.485Z" fill="white"/>
</g>
<g filter="url(#filter1_d_4925_1295)">
<path d="M47.9309 57.888L48.9809 41.55H65.3189V45.456H53.2649L52.7609 52.932C54.2449 52.26 55.6869 51.924 57.0869 51.924C59.1589 51.924 61.0069 52.358 62.6309 53.226C64.2829 54.094 65.5569 55.312 66.4529 56.88C67.3769 58.42 67.8389 60.184 67.8389 62.172C67.8389 64.188 67.3769 65.98 66.4529 67.548C65.5569 69.116 64.2829 70.348 62.6309 71.244C61.0069 72.112 59.1589 72.546 57.0869 72.546C55.4629 72.546 53.9229 72.21 52.4669 71.538C51.0389 70.838 49.8209 69.886 48.8129 68.682C47.8049 67.45 47.1189 66.064 46.7549 64.524L51.0809 63.516C51.3889 64.916 52.1029 66.078 53.2229 67.002C54.3429 67.898 55.6309 68.346 57.0869 68.346C58.9349 68.346 60.4469 67.772 61.6229 66.624C62.7989 65.476 63.3869 63.992 63.3869 62.172C63.3869 60.408 62.7989 58.966 61.6229 57.846C60.4469 56.698 58.9349 56.124 57.0869 56.124C56.3029 56.124 55.4769 56.348 54.6089 56.796C53.7409 57.216 52.9989 57.762 52.3829 58.434L47.9309 57.888ZM82.9405 72.126L78.4885 72.084V46.422L72.3565 50.118L70.4245 46.422L78.5305 41.592H82.9405V72.126ZM88.5045 68.22C89.1765 67.576 89.8765 66.932 90.6045 66.288C91.3325 65.616 92.0605 64.958 92.7885 64.314C95.0565 62.298 96.8625 60.632 98.2065 59.316C99.5505 57.972 100.685 56.6 101.609 55.2C102.533 53.8 102.995 52.47 102.995 51.21C102.995 49.474 102.491 48.06 101.483 46.968C100.503 45.876 99.2425 45.33 97.7025 45.33C96.4985 45.33 95.3505 45.722 94.2585 46.506C93.1945 47.29 92.3825 48.298 91.8225 49.53L87.9165 47.808C88.7565 45.876 90.0865 44.308 91.9065 43.104C93.7545 41.872 95.6865 41.256 97.7025 41.256C99.6065 41.256 101.287 41.676 102.743 42.516C104.227 43.356 105.375 44.532 106.187 46.044C107.027 47.556 107.447 49.278 107.447 51.21C107.447 53.114 106.873 55.004 105.725 56.88C104.605 58.756 103.247 60.478 101.651 62.046C100.055 63.614 97.9965 65.476 95.4765 67.632L94.8045 68.22H107.951V72.126H88.9245L88.5045 68.22ZM141.81 58.77C141.81 61.626 141.194 64.09 139.962 66.162C138.758 68.234 137.064 69.83 134.88 70.95C132.696 72.042 130.162 72.616 127.278 72.672C124.31 72.672 121.65 72 119.298 70.656C116.974 69.312 115.154 67.436 113.838 65.028C112.522 62.62 111.864 59.89 111.864 56.838C111.864 53.786 112.522 51.07 113.838 48.69C115.154 46.282 116.974 44.406 119.298 43.062C121.65 41.718 124.31 41.046 127.278 41.046C130.162 41.046 132.57 41.606 134.502 42.726C136.434 43.818 137.792 44.896 138.576 45.96C139.36 47.024 139.962 47.878 140.382 48.522L136.56 50.496C136.252 50.02 135.818 49.39 135.258 48.606C134.726 47.822 133.76 47.024 132.36 46.212C130.988 45.372 129.294 44.952 127.278 44.952C125.122 44.952 123.204 45.456 121.524 46.464C119.872 47.444 118.584 48.83 117.66 50.622C116.764 52.414 116.316 54.486 116.316 56.838C116.316 59.19 116.764 61.276 117.66 63.096C118.584 64.888 119.872 66.288 121.524 67.296C123.204 68.276 125.122 68.766 127.278 68.766C130.274 68.682 132.71 67.898 134.586 66.414C136.462 64.902 137.414 62.69 137.442 59.778H127.782V56.082H141.852L141.81 58.77ZM146.129 41.34H156.461C158.085 41.34 159.541 41.704 160.829 42.432C162.117 43.132 163.125 44.126 163.853 45.414C164.581 46.702 164.945 48.158 164.945 49.782C164.945 50.734 164.707 51.728 164.231 52.764C163.783 53.8 163.181 54.71 162.425 55.494L163.517 56.166C164.693 56.922 165.645 57.986 166.373 59.358C167.129 60.73 167.507 62.116 167.507 63.516C167.507 65.224 167.143 66.75 166.415 68.094C165.687 69.41 164.679 70.446 163.391 71.202C162.103 71.958 160.633 72.336 158.981 72.336H146.129V41.34ZM158.519 68.43C159.891 68.43 160.997 67.982 161.837 67.086C162.677 66.19 163.097 65.014 163.097 63.558C163.097 61.99 162.677 60.73 161.837 59.778C160.997 58.798 159.891 58.308 158.519 58.308H150.581V68.43H158.519ZM156.545 54.444C157.749 54.388 158.715 53.954 159.443 53.142C160.199 52.33 160.577 51.28 160.577 49.992C160.577 48.564 160.157 47.416 159.317 46.548C158.505 45.68 157.427 45.246 156.083 45.246H150.581V54.444H156.545ZM183.918 66.036V60.786H174.468V48.564H193.83V44.07H174.384V40.416H198.156V52.176H178.794V57.09H198.996V60.786H188.538V66.036H203.196V69.774H169.344V66.036H183.918Z" fill="url(#paint0_linear_4925_1295)"/>
<path d="M33.8864 113.92V117.48H19.8464V129.28H15.4864V117.48H1.64641V113.92H33.8864ZM28.8864 95.48V109.96H6.52641V95.48H28.8864ZM10.8464 98.96V106.52H24.5664V98.96H10.8464ZM42.7805 120.72V115.04H38.9405V103.64H57.7405V99.4H38.8605V95.92H61.5005V107.08H43.0605V111.52H62.3005V115.04H57.9405V120.72H66.3005V124.28H34.0605V120.72H42.7805ZM53.6205 120.72V115.04H47.1005V120.72H53.6205ZM103.253 93.64V112.72H98.8533V105.2H92.6533C92.2799 107.307 91.2799 109.013 89.6533 110.32C88.0266 111.6 86.0266 112.24 83.6533 112.24C81.8666 112.24 80.2666 111.867 78.8533 111.12C77.4666 110.373 76.3733 109.333 75.5733 108C74.7999 106.667 74.4133 105.147 74.4133 103.44C74.4133 101.733 74.7999 100.213 75.5733 98.88C76.3733 97.52 77.4666 96.4667 78.8533 95.72C80.2666 94.9733 81.8666 94.6 83.6533 94.6C86.0266 94.6 88.0266 95.24 89.6533 96.52C91.2799 97.8 92.2799 99.5067 92.6533 101.64H98.8533V93.64H103.253ZM85.2933 114.4V118.16H98.8933V114.4H103.253V128.8H80.9333V114.4H85.2933ZM85.2933 125.28H98.8933V121.56H85.2933V125.28ZM83.6533 108.64C85.1199 108.64 86.2933 108.16 87.1733 107.2C88.0799 106.24 88.5333 104.987 88.5333 103.44C88.5333 101.867 88.0799 100.6 87.1733 99.64C86.2933 98.6533 85.1199 98.16 83.6533 98.16C82.1599 98.16 80.9599 98.6533 80.0533 99.64C79.1466 100.6 78.6933 101.867 78.6933 103.44C78.6933 104.987 79.1466 106.24 80.0533 107.2C80.9866 108.16 82.1866 108.64 83.6533 108.64ZM138.307 119.56V123.16H106.107V119.56H138.307ZM132.907 115.44H128.467V100.28H110.187V96.68H132.907V115.44ZM168.921 93.6V128H164.721V93.6H168.921ZM157.521 106.36V94.36H161.601V126.24H157.521V109.96H153.841V106.36H157.521ZM153.041 96.52V109.96H144.161V116.08H153.881V119.68H139.921V106.44H148.841V100.04H139.881V96.52H153.041ZM200.295 93.56V128.08H195.855V93.56H200.295ZM181.175 117C179.309 117 177.629 116.573 176.135 115.72C174.669 114.867 173.522 113.68 172.695 112.16C171.869 110.613 171.455 108.867 171.455 106.92C171.455 104.947 171.869 103.2 172.695 101.68C173.522 100.133 174.669 98.9333 176.135 98.08C177.629 97.2 179.309 96.76 181.175 96.76C183.042 96.76 184.709 97.2 186.175 98.08C187.642 98.9333 188.789 100.133 189.615 101.68C190.442 103.2 190.855 104.947 190.855 106.92C190.855 108.867 190.442 110.613 189.615 112.16C188.789 113.68 187.642 114.867 186.175 115.72C184.709 116.573 183.042 117 181.175 117ZM181.175 113.24C182.802 113.24 184.109 112.667 185.095 111.52C186.082 110.347 186.575 108.813 186.575 106.92C186.575 105.027 186.082 103.493 185.095 102.32C184.109 101.12 182.802 100.52 181.175 100.52C179.549 100.52 178.242 101.12 177.255 102.32C176.269 103.493 175.775 105.027 175.775 106.92C175.775 108.813 176.269 110.347 177.255 111.52C178.242 112.667 179.549 113.24 181.175 113.24ZM231.35 96.44V100.04H212.23V110.04H231.35V113.56H207.87V96.44H231.35ZM203.35 119.92H235.59V123.52H203.35V119.92ZM243.644 118.2H239.564L238.804 95.8H244.284L243.644 118.2ZM241.644 121.96C242.364 121.96 242.95 122.187 243.404 122.64C243.857 123.093 244.084 123.693 244.084 124.44C244.084 125.187 243.857 125.787 243.404 126.24C242.95 126.72 242.364 126.96 241.644 126.96C240.897 126.96 240.284 126.72 239.804 126.24C239.35 125.787 239.124 125.187 239.124 124.44C239.124 123.693 239.35 123.093 239.804 122.64C240.284 122.187 240.897 121.96 241.644 121.96Z" fill="#FF008C"/>
</g>
<path d="M31.5312 149.764L31.8072 145.324H36.1272V146.092H32.6352L32.4672 148.78C32.9472 148.508 33.4232 148.372 33.8952 148.372C34.4632 148.372 34.9672 148.492 35.4072 148.732C35.8552 148.972 36.2032 149.308 36.4512 149.74C36.6992 150.172 36.8232 150.664 36.8232 151.216C36.8232 151.776 36.6992 152.276 36.4512 152.716C36.2032 153.156 35.8552 153.5 35.4072 153.748C34.9672 153.996 34.4632 154.12 33.8952 154.12C33.2312 154.12 32.6392 153.92 32.1192 153.52C31.6072 153.112 31.2752 152.588 31.1232 151.948L31.9632 151.756C32.0672 152.212 32.2992 152.584 32.6592 152.872C33.0192 153.16 33.4312 153.304 33.8952 153.304C34.2952 153.304 34.6512 153.216 34.9632 153.04C35.2752 152.864 35.5192 152.616 35.6952 152.296C35.8712 151.976 35.9592 151.616 35.9592 151.216C35.9592 150.824 35.8712 150.476 35.6952 150.172C35.5192 149.86 35.2752 149.62 34.9632 149.452C34.6512 149.276 34.2952 149.188 33.8952 149.188C33.6392 149.188 33.3712 149.256 33.0912 149.392C32.8112 149.528 32.5792 149.7 32.3952 149.908L31.5312 149.764ZM40.2781 154H39.4141V146.332L38.0701 147.268L37.5901 146.608L39.4141 145.348H40.2781V154ZM42.6667 152.344C43.3867 151.672 43.9707 151.108 44.4187 150.652C44.8667 150.188 45.2467 149.716 45.5587 149.236C45.8787 148.748 46.0387 148.304 46.0387 147.904C46.0387 147.344 45.8787 146.888 45.5587 146.536C45.2387 146.176 44.8227 145.996 44.3107 145.996C43.9427 145.996 43.5867 146.124 43.2427 146.38C42.9067 146.628 42.6507 146.948 42.4747 147.34L41.6827 147.004C41.9067 146.484 42.2627 146.06 42.7507 145.732C43.2467 145.396 43.7667 145.228 44.3107 145.228C44.8147 145.228 45.2627 145.344 45.6547 145.576C46.0467 145.8 46.3507 146.116 46.5667 146.524C46.7907 146.924 46.9027 147.384 46.9027 147.904C46.9027 148.416 46.7307 148.948 46.3867 149.5C46.0507 150.052 45.6467 150.572 45.1747 151.06C44.7027 151.548 44.0987 152.132 43.3627 152.812L42.8947 153.244H47.0467V154.012H41.8387L41.7187 153.244L42.6667 152.344ZM56.5341 150.208C56.5341 151.016 56.3581 151.708 56.0061 152.284C55.6541 152.86 55.1701 153.304 54.5541 153.616C53.9381 153.92 53.2421 154.08 52.4661 154.096C51.6421 154.096 50.9061 153.908 50.2581 153.532C49.6181 153.156 49.1141 152.632 48.7461 151.96C48.3861 151.288 48.2061 150.524 48.2061 149.668C48.2061 148.812 48.3861 148.052 48.7461 147.388C49.1141 146.716 49.6181 146.192 50.2581 145.816C50.9061 145.44 51.6421 145.252 52.4661 145.252C53.2661 145.252 53.9301 145.408 54.4581 145.72C54.9941 146.024 55.3701 146.324 55.5861 146.62C55.8021 146.916 55.9661 147.156 56.0781 147.34L55.3101 147.688C55.2221 147.544 55.0941 147.356 54.9261 147.124C54.7581 146.884 54.4621 146.64 54.0381 146.392C53.6221 146.144 53.0981 146.02 52.4661 146.02C51.8101 146.02 51.2221 146.176 50.7021 146.488C50.1901 146.8 49.7901 147.232 49.5021 147.784C49.2141 148.336 49.0701 148.964 49.0701 149.668C49.0701 150.372 49.2141 151.004 49.5021 151.564C49.7901 152.116 50.1901 152.548 50.7021 152.86C51.2221 153.172 51.8101 153.328 52.4661 153.328C53.4501 153.288 54.2381 153.012 54.8301 152.5C55.4221 151.98 55.7181 151.24 55.7181 150.28H52.6221V149.512H56.5461L56.5341 150.208ZM57.7708 145.336H60.3988C60.8548 145.336 61.2628 145.436 61.6228 145.636C61.9828 145.836 62.2628 146.116 62.4628 146.476C62.6708 146.828 62.7748 147.232 62.7748 147.688C62.7748 147.96 62.7068 148.248 62.5708 148.552C62.4348 148.848 62.2508 149.108 62.0188 149.332L62.3068 149.488C62.6428 149.712 62.9188 150.02 63.1348 150.412C63.3508 150.804 63.4588 151.196 63.4588 151.588C63.4588 152.052 63.3548 152.468 63.1468 152.836C62.9468 153.204 62.6668 153.492 62.3068 153.7C61.9468 153.9 61.5348 154 61.0708 154H57.7708V145.336ZM61.0828 153.232C61.5308 153.232 61.8988 153.08 62.1868 152.776C62.4748 152.472 62.6188 152.084 62.6188 151.612C62.6188 151.108 62.4748 150.696 62.1868 150.376C61.8988 150.056 61.5308 149.896 61.0828 149.896H58.6348V153.232H61.0828ZM60.6148 149.128C61.0068 149.112 61.3268 148.968 61.5748 148.696C61.8228 148.424 61.9468 148.08 61.9468 147.664C61.9468 147.208 61.8028 146.836 61.5148 146.548C61.2268 146.252 60.8588 146.104 60.4108 146.104H58.6348V149.128H60.6148ZM69.9815 153.484L73.8335 149.632L69.9815 145.768L70.5935 145.18L75.0335 149.632L70.5935 154.084L69.9815 153.484ZM83.0431 154H82.1791V146.332L80.8351 147.268L80.3551 146.608L82.1791 145.348H83.0431V154ZM90.6277 146.104H88.0357V154H87.1717V146.104H84.5917V145.336H90.6277V146.104ZM91.8986 145.336H94.5266C94.9826 145.336 95.3906 145.436 95.7506 145.636C96.1106 145.836 96.3906 146.116 96.5906 146.476C96.7986 146.828 96.9026 147.232 96.9026 147.688C96.9026 147.96 96.8346 148.248 96.6986 148.552C96.5626 148.848 96.3786 149.108 96.1466 149.332L96.4346 149.488C96.7706 149.712 97.0466 150.02 97.2626 150.412C97.4786 150.804 97.5866 151.196 97.5866 151.588C97.5866 152.052 97.4826 152.468 97.2746 152.836C97.0746 153.204 96.7946 153.492 96.4346 153.7C96.0746 153.9 95.6626 154 95.1986 154H91.8986V145.336ZM95.2106 153.232C95.6586 153.232 96.0266 153.08 96.3146 152.776C96.6026 152.472 96.7466 152.084 96.7466 151.612C96.7466 151.108 96.6026 150.696 96.3146 150.376C96.0266 150.056 95.6586 149.896 95.2106 149.896H92.7626V153.232H95.2106ZM94.7426 149.128C95.1346 149.112 95.4546 148.968 95.7026 148.696C95.9506 148.424 96.0746 148.08 96.0746 147.664C96.0746 147.208 95.9306 146.836 95.6426 146.548C95.3546 146.252 94.9866 146.104 94.5386 146.104H92.7626V149.128H94.7426ZM103.437 144.868C104.141 144.868 104.737 145.052 105.225 145.42C105.713 145.788 106.005 146.28 106.101 146.896H108.297V144.376H109.197V150.004H108.297V147.64H106.101C106.013 148.256 105.725 148.756 105.237 149.14C104.749 149.524 104.149 149.716 103.437 149.716C102.917 149.716 102.453 149.616 102.045 149.416C101.637 149.208 101.317 148.92 101.085 148.552C100.853 148.184 100.737 147.764 100.737 147.292C100.737 146.82 100.853 146.4 101.085 146.032C101.317 145.664 101.637 145.38 102.045 145.18C102.453 144.972 102.917 144.868 103.437 144.868ZM103.437 145.624C102.893 145.624 102.449 145.78 102.105 146.092C101.769 146.404 101.601 146.804 101.601 147.292C101.601 147.78 101.773 148.18 102.117 148.492C102.461 148.796 102.901 148.948 103.437 148.948C103.973 148.948 104.409 148.796 104.745 148.492C105.089 148.18 105.261 147.78 105.261 147.292C105.261 146.804 105.089 146.404 104.745 146.092C104.409 145.78 103.973 145.624 103.437 145.624ZM103.401 150.544V151.888H108.297V150.544H109.197V154.732H102.501V150.544H103.401ZM103.401 154H108.297V152.608H103.401V154ZM118.798 145.492V146.524C118.798 147.436 118.774 148.264 118.726 149.008C118.686 149.752 118.578 150.628 118.402 151.636L117.49 151.552C117.674 150.6 117.79 149.752 117.838 149.008C117.886 148.264 117.91 147.436 117.91 146.524V146.236H111.634V145.492H118.798ZM120.082 152.572V153.328H110.59V152.572H120.082ZM124.678 145.54V149.152H121.822V151.528C122.51 151.528 123.146 151.508 123.73 151.468C124.314 151.428 124.926 151.348 125.566 151.228L125.638 151.972C124.958 152.092 124.314 152.172 123.706 152.212C123.098 152.252 122.41 152.272 121.642 152.272H120.958V148.432H123.814V146.296H120.934V145.54H124.678ZM129.49 144.376V154.876H128.626V144.376H129.49ZM126.514 148.168V144.64H127.354V154.312H126.514V148.912H125.182V148.168H126.514ZM139.174 144.364V154.888H138.274V144.364H139.174ZM133.654 145.192C134.166 145.192 134.622 145.344 135.022 145.648C135.43 145.944 135.746 146.368 135.97 146.92C136.194 147.472 136.306 148.112 136.306 148.84C136.306 149.568 136.194 150.212 135.97 150.772C135.746 151.324 135.43 151.752 135.022 152.056C134.622 152.352 134.166 152.5 133.654 152.5C133.134 152.5 132.67 152.352 132.262 152.056C131.862 151.752 131.55 151.324 131.326 150.772C131.102 150.22 130.99 149.576 130.99 148.84C130.99 148.112 131.102 147.472 131.326 146.92C131.55 146.368 131.862 145.944 132.262 145.648C132.67 145.344 133.134 145.192 133.654 145.192ZM133.654 145.996C133.302 145.996 132.99 146.116 132.718 146.356C132.454 146.588 132.246 146.92 132.094 147.352C131.942 147.776 131.866 148.272 131.866 148.84C131.866 149.408 131.942 149.908 132.094 150.34C132.246 150.772 132.454 151.108 132.718 151.348C132.99 151.58 133.302 151.696 133.654 151.696C133.998 151.696 134.306 151.58 134.578 151.348C134.85 151.108 135.062 150.772 135.214 150.34C135.366 149.9 135.442 149.4 135.442 148.84C135.442 148.28 135.366 147.784 135.214 147.352C135.062 146.92 134.85 146.588 134.578 146.356C134.306 146.116 133.998 145.996 133.654 145.996ZM148.906 145.348V146.092H142.726V149.428H149.026V150.16H141.838V145.348H148.906ZM150.13 152.68V153.424H140.614V152.68H150.13ZM161.476 144.364V154.888H160.576V144.364H161.476ZM154.408 145.276V148.06H157.54V145.276H158.428V152.344H153.508V145.276H154.408ZM154.408 151.6H157.54V148.78H154.408V151.6ZM165.281 149.596V148.096C164.409 147.744 163.973 147.22 163.973 146.524C163.973 145.908 164.301 145.432 164.957 145.096C165.613 144.752 166.513 144.58 167.657 144.58C168.801 144.58 169.701 144.752 170.357 145.096C171.013 145.432 171.341 145.908 171.341 146.524C171.341 146.876 171.229 147.184 171.005 147.448C170.781 147.704 170.461 147.916 170.045 148.084V149.596H172.397V150.316H162.917V149.596H165.281ZM167.657 151.144C168.785 151.144 169.665 151.308 170.297 151.636C170.929 151.956 171.245 152.408 171.245 152.992C171.245 153.592 170.929 154.052 170.297 154.372C169.665 154.7 168.785 154.864 167.657 154.864C166.529 154.864 165.649 154.7 165.017 154.372C164.385 154.052 164.069 153.592 164.069 152.992C164.069 152.408 164.385 151.956 165.017 151.636C165.649 151.308 166.529 151.144 167.657 151.144ZM167.657 151.84C166.817 151.84 166.157 151.944 165.677 152.152C165.205 152.352 164.969 152.632 164.969 152.992C164.969 153.36 165.205 153.648 165.677 153.856C166.149 154.056 166.809 154.156 167.657 154.156C168.497 154.156 169.153 154.056 169.625 153.856C170.097 153.648 170.333 153.36 170.333 152.992C170.333 152.632 170.093 152.352 169.613 152.152C169.141 151.944 168.489 151.84 167.657 151.84ZM167.657 145.276C166.809 145.276 166.137 145.388 165.641 145.612C165.145 145.828 164.897 146.132 164.897 146.524C164.897 146.908 165.145 147.212 165.641 147.436C166.137 147.652 166.809 147.76 167.657 147.76C168.505 147.76 169.177 147.652 169.673 147.436C170.169 147.212 170.417 146.908 170.417 146.524C170.417 146.132 170.169 145.828 169.673 145.612C169.177 145.388 168.505 145.276 167.657 145.276ZM169.157 149.596V148.336C168.661 148.416 168.161 148.456 167.657 148.456C167.089 148.456 166.593 148.416 166.169 148.336V149.596H169.157ZM181.403 145.456V146.212H178.907V147.628C178.907 148.204 179.035 148.78 179.291 149.356C179.555 149.924 179.903 150.432 180.335 150.88C180.767 151.32 181.235 151.652 181.739 151.876L181.223 152.596C180.615 152.308 180.063 151.876 179.567 151.3C179.071 150.724 178.703 150.076 178.463 149.356C178.223 150.132 177.855 150.832 177.359 151.456C176.871 152.08 176.327 152.544 175.727 152.848L175.211 152.14C175.699 151.9 176.159 151.54 176.591 151.06C177.023 150.572 177.367 150.024 177.623 149.416C177.879 148.808 178.007 148.212 178.007 147.628V146.212H175.535V145.456H181.403ZM183.767 144.376V154.876H182.867V144.376H183.767ZM193.775 144.376V152.368H192.875V151.252H190.727V150.592H192.875V144.376H193.775ZM187.559 151.588V153.892H194.039V154.636H186.659V151.588H187.559ZM185.147 149.248C186.435 149.248 187.639 149.228 188.759 149.188C189.879 149.148 190.939 149.068 191.939 148.948L191.999 149.596C191.111 149.748 190.151 149.848 189.119 149.896V151.984H188.219V149.944C187.339 149.984 186.359 150.004 185.279 150.004L185.147 149.248ZM188.567 144.808C189.335 144.808 189.955 144.976 190.427 145.312C190.907 145.64 191.147 146.08 191.147 146.632C191.147 147.184 190.911 147.628 190.439 147.964C189.967 148.292 189.343 148.456 188.567 148.456C187.791 148.456 187.167 148.292 186.695 147.964C186.223 147.628 185.987 147.184 185.987 146.632C185.987 146.08 186.223 145.64 186.695 145.312C187.175 144.976 187.799 144.808 188.567 144.808ZM188.567 145.48C188.055 145.48 187.639 145.588 187.319 145.804C186.999 146.012 186.839 146.288 186.839 146.632C186.839 146.976 186.999 147.252 187.319 147.46C187.639 147.668 188.055 147.772 188.567 147.772C189.079 147.772 189.491 147.668 189.803 147.46C190.123 147.252 190.283 146.976 190.283 146.632C190.283 146.288 190.123 146.012 189.803 145.804C189.491 145.588 189.079 145.48 188.567 145.48ZM203.459 144.376V148.72H205.055V149.476H203.459V154.876H202.571V144.376H203.459ZM198.383 145.516C198.383 146.876 198.195 148.144 197.819 149.32C197.443 150.488 196.811 151.548 195.923 152.5L195.203 151.984C196.643 150.504 197.423 148.596 197.543 146.26H195.527V145.516H198.383ZM201.251 145.516C201.251 146.996 201.087 148.388 200.759 149.692C200.431 150.988 199.823 152.156 198.935 153.196L198.203 152.692C199.579 151.116 200.311 148.972 200.399 146.26H198.719V145.516H201.251ZM211.427 145.456V146.212H208.931V147.628C208.931 148.204 209.059 148.78 209.315 149.356C209.579 149.924 209.927 150.432 210.359 150.88C210.791 151.32 211.259 151.652 211.763 151.876L211.247 152.596C210.639 152.308 210.087 151.876 209.591 151.3C209.095 150.724 208.727 150.076 208.487 149.356C208.247 150.132 207.879 150.832 207.383 151.456C206.895 152.08 206.351 152.544 205.751 152.848L205.235 152.14C205.723 151.9 206.183 151.54 206.615 151.06C207.047 150.572 207.391 150.024 207.647 149.416C207.903 148.808 208.031 148.212 208.031 147.628V146.212H205.559V145.456H211.427ZM213.791 144.376V154.876H212.891V144.376H213.791ZM217.056 151.924H216.264L216.108 145.336H217.2L217.056 151.924ZM216.672 152.956C216.848 152.956 216.988 153.012 217.092 153.124C217.204 153.228 217.26 153.368 217.26 153.544C217.26 153.728 217.204 153.876 217.092 153.988C216.988 154.1 216.848 154.156 216.672 154.156C216.496 154.156 216.348 154.1 216.228 153.988C216.116 153.868 216.06 153.72 216.06 153.544C216.06 153.368 216.116 153.228 216.228 153.124C216.34 153.012 216.488 152.956 216.672 152.956Z" fill="#AAAAAA"/>
<defs>
<filter id="filter0_d_4925_1295" x="68.3984" y="3.17969" width="112.428" height="23.6025" filterUnits="userSpaceOnUse" color-interpolation-filters="sRGB">
<feFlood flood-opacity="0" result="BackgroundImageFix"/>
<feColorMatrix in="SourceAlpha" type="matrix" values="0 0 0 0 0 0 0 0 0 0 0 0 0 0 0 0 0 0 127 0" result="hardAlpha"/>
<feOffset dx="1" dy="1"/>
<feGaussianBlur stdDeviation="1"/>
<feComposite in2="hardAlpha" operator="out"/>
<feColorMatrix type="matrix" values="0 0 0 0 0 0 0 0 0 0 0 0 0 0 0 0 0 0 0.4 0"/>
<feBlend mode="normal" in2="BackgroundImageFix" result="effect1_dropShadow_4925_1295"/>
<feBlend mode="normal" in="SourceGraphic" in2="effect1_dropShadow_4925_1295" result="shape"/>
</filter>
<filter id="filter1_d_4925_1295" x="0.646484" y="39.416" width="246.637" height="92.8643" filterUnits="userSpaceOnUse" color-interpolation-filters="sRGB">
<feFlood flood-opacity="0" result="BackgroundImageFix"/>
<feColorMatrix in="SourceAlpha" type="matrix" values="0 0 0 0 0 0 0 0 0 0 0 0 0 0 0 0 0 0 127 0" result="hardAlpha"/>
<feOffset dx="1" dy="1"/>
<feGaussianBlur stdDeviation="1"/>
<feComposite in2="hardAlpha" operator="out"/>
<feColorMatrix type="matrix" values="0 0 0 0 0 0 0 0 0 0 0 0 0 0 0 0 0 0 0.4 0"/>
<feBlend mode="normal" in2="BackgroundImageFix" result="effect1_dropShadow_4925_1295"/>
<feBlend mode="normal" in="SourceGraphic" in2="effect1_dropShadow_4925_1295" result="shape"/>
</filter>
<linearGradient id="paint0_linear_4925_1295" x1="248.5" y1="70.5372" x2="10.641" y2="46.6899" gradientUnits="userSpaceOnUse">
<stop stop-color="#FF008C"/>
<stop offset="1" stop-color="#FFC6E5"/>
</linearGradient>
</defs>
</svg>
