<svg width="305" height="156" viewBox="0 0 305 156" fill="none" xmlns="http://www.w3.org/2000/svg">
<g filter="url(#filter0_d_5003_2419)">
<path d="M55.5019 19.074V15.906C54.5632 15.8033 53.7345 15.51 53.0159 15.026C52.2972 14.542 51.7325 13.9187 51.3219 13.156C50.9259 12.3787 50.7279 11.5133 50.7279 10.56C50.7279 9.51867 50.9625 8.58733 51.4319 7.766C51.9159 6.94467 52.5759 6.30667 53.4119 5.852C54.2625 5.38267 55.2305 5.148 56.3159 5.148C57.4159 5.148 58.3912 5.38267 59.2419 5.852C60.1072 6.30667 60.7745 6.94467 61.2439 7.766C61.7279 8.58733 61.9699 9.51867 61.9699 10.56C61.9699 11.5133 61.7645 12.3787 61.3539 13.156C60.9579 13.9187 60.3932 14.542 59.6599 15.026C58.9265 15.51 58.0832 15.8033 57.1299 15.906V19.074H65.0719V20.438H47.6259V19.074H55.5019ZM52.3119 10.56C52.3119 11.3227 52.4805 12.012 52.8179 12.628C53.1552 13.2293 53.6245 13.6987 54.2259 14.036C54.8419 14.3733 55.5385 14.542 56.3159 14.542C57.1079 14.542 57.8119 14.3733 58.4279 14.036C59.0439 13.6987 59.5205 13.2293 59.8579 12.628C60.2099 12.012 60.3859 11.3227 60.3859 10.56C60.3859 9.78267 60.2099 9.09333 59.8579 8.492C59.5205 7.876 59.0439 7.39933 58.4279 7.062C57.8119 6.72467 57.1079 6.556 56.3159 6.556C55.5385 6.556 54.8419 6.72467 54.2259 7.062C53.6245 7.39933 53.1552 7.876 52.8179 8.492C52.4805 9.09333 52.3119 9.78267 52.3119 10.56ZM78.2193 18.656V16.522H67.9233V15.224H79.8693V19.91H69.6613V22.044H80.5513V23.342H67.9893V18.656H78.2193ZM65.2173 12.1H82.6633V13.464H65.2173V12.1ZM69.4413 4.62V9.108H80.4193V10.45H67.8133V4.62H69.4413ZM94.171 22.33C92.895 22.33 91.7877 22.0513 90.849 21.494C89.9103 20.9367 89.1917 20.1667 88.693 19.184C88.209 18.1867 87.967 17.0427 87.967 15.752V5.94H90.299V15.752C90.299 17.116 90.629 18.194 91.289 18.986C91.949 19.778 92.9097 20.174 94.171 20.174C95.4323 20.174 96.393 19.778 97.053 18.986C97.713 18.194 98.043 17.116 98.043 15.752V5.94H100.397V15.752C100.397 17.0427 100.148 18.1867 99.649 19.184C99.1503 20.1667 98.4317 20.9367 97.493 21.494C96.5543 22.0513 95.447 22.33 94.171 22.33ZM106.461 8.4296H109.682V9.8288H106.461V13.0364H105.075V9.8288H101.854V8.4296H105.075V5.2088H106.461V8.4296ZM125.816 4.18V9.438H128.522V11.418H125.816V16.61H123.396V4.18H125.816ZM121.702 14.146H111.494V5.28H120.514V7.26H113.892V12.166H121.702V14.146ZM113.056 22.088L117.544 18.766C118.306 18.1793 118.688 17.6953 118.688 17.314V15.598H121.042V17.314C121.042 17.4753 121.13 17.6807 121.306 17.93C121.482 18.1793 121.782 18.458 122.208 18.766L126.696 22.088L125.376 23.848L120.888 20.526C120.462 20.2033 120.125 19.9027 119.876 19.624C119.538 19.9613 119.201 20.262 118.864 20.526L114.376 23.848L113.056 22.088ZM128.684 13.266C130.106 12.9873 131.28 12.672 132.204 12.32C133.142 11.9533 133.898 11.4473 134.47 10.802H129.124V8.91H135.46C135.606 8.41133 135.68 7.81 135.68 7.106H129.124V5.126H137.836V7.106C137.836 8.91 137.432 10.3767 136.626 11.506C135.819 12.6207 134.785 13.464 133.524 14.036C132.262 14.608 130.781 15.0553 129.08 15.378L128.684 13.266ZM132.314 16.236H144.568V23.54H132.314V16.236ZM142.192 21.626V18.128H134.668V21.626H142.192ZM138.65 9.196H142.148V4.18H144.568V15.29H142.148V11.154H138.65V9.196ZM162.483 4.356V22.946H160.899V4.356H162.483ZM158.655 4.796V21.956H157.093V12.364H155.113C154.952 13.6693 154.475 14.7253 153.683 15.532C152.891 16.324 151.901 16.72 150.713 16.72C149.848 16.72 149.078 16.5 148.403 16.06C147.729 15.62 147.201 15.004 146.819 14.212C146.453 13.42 146.269 12.518 146.269 11.506C146.269 10.494 146.453 9.592 146.819 8.8C147.201 7.99333 147.729 7.37 148.403 6.93C149.078 6.47533 149.848 6.248 150.713 6.248C151.52 6.248 152.246 6.446 152.891 6.842C153.551 7.238 154.072 7.80267 154.453 8.536C154.849 9.25467 155.077 10.076 155.135 11H157.093V4.796H158.655ZM150.713 15.246C151.579 15.246 152.283 14.9013 152.825 14.212C153.368 13.508 153.639 12.606 153.639 11.506C153.639 10.3913 153.368 9.482 152.825 8.778C152.283 8.074 151.579 7.722 150.713 7.722C149.848 7.722 149.144 8.074 148.601 8.778C148.059 9.482 147.787 10.3913 147.787 11.506C147.787 12.606 148.059 13.508 148.601 14.212C149.144 14.9013 149.848 15.246 150.713 15.246ZM177.897 10.956V4.334H179.525V22.968H177.897V12.298H173.123V10.956H177.897ZM163.465 17.116L167.051 12.32C167.461 11.748 167.74 11.2127 167.887 10.714C168.048 10.2007 168.129 9.658 168.129 9.086V5.654H169.669V9.086C169.669 9.658 169.742 10.2007 169.889 10.714C170.05 11.2127 170.336 11.748 170.747 12.32L174.333 17.116L173.145 17.996L169.559 13.2C169.309 12.8627 169.089 12.518 168.899 12.166C168.708 12.518 168.488 12.8627 168.239 13.2L164.653 17.996L163.465 17.116ZM201.636 4.356V22.946H200.052V4.356H201.636ZM197.852 4.796V21.956H196.29V14.432H193.628C193.247 15.1507 192.726 15.7153 192.066 16.126C191.421 16.522 190.688 16.72 189.866 16.72C189.001 16.72 188.231 16.5 187.556 16.06C186.882 15.62 186.354 15.004 185.972 14.212C185.606 13.42 185.422 12.518 185.422 11.506C185.422 10.494 185.606 9.592 185.972 8.8C186.354 7.99333 186.882 7.37 187.556 6.93C188.231 6.47533 189.001 6.248 189.866 6.248C190.717 6.248 191.48 6.47533 192.154 6.93C192.829 7.37 193.357 7.97867 193.738 8.756H196.29V4.796H197.852ZM189.866 15.246C190.732 15.246 191.436 14.9013 191.978 14.212C192.521 13.508 192.792 12.606 192.792 11.506C192.792 10.3913 192.521 9.482 191.978 8.778C191.436 8.074 190.732 7.722 189.866 7.722C189.001 7.722 188.297 8.074 187.754 8.778C187.212 9.482 186.94 10.3913 186.94 11.506C186.94 12.606 187.212 13.508 187.754 14.212C188.297 14.9013 189.001 15.246 189.866 15.246ZM196.29 13.068V10.12H194.178C194.266 10.56 194.31 11.022 194.31 11.506C194.31 12.034 194.252 12.5547 194.134 13.068H196.29ZM217.82 4.356V7.348H220.658V8.734H217.82V11.44H220.658V12.826H217.82V15.356H216.17V4.356H217.82ZM217.82 16.28V23.606H216.17V17.622H206.248V16.28H217.82ZM208.074 14.19C207.164 14.19 206.35 13.9993 205.632 13.618C204.913 13.2367 204.356 12.7013 203.96 12.012C203.564 11.3227 203.366 10.5453 203.366 9.68C203.366 8.8 203.564 8.01533 203.96 7.326C204.356 6.63667 204.913 6.10133 205.632 5.72C206.35 5.33867 207.164 5.148 208.074 5.148C208.983 5.148 209.797 5.33867 210.516 5.72C211.234 6.10133 211.792 6.63667 212.188 7.326C212.584 8.01533 212.782 8.8 212.782 9.68C212.782 10.5453 212.584 11.3227 212.188 12.012C211.792 12.7013 211.234 13.2367 210.516 13.618C209.797 13.9993 208.983 14.19 208.074 14.19ZM208.074 12.826C208.983 12.826 209.724 12.5327 210.296 11.946C210.868 11.3593 211.154 10.604 211.154 9.68C211.154 8.74133 210.868 7.97867 210.296 7.392C209.724 6.80533 208.983 6.512 208.074 6.512C207.164 6.512 206.424 6.80533 205.852 7.392C205.28 7.97867 204.994 8.74133 204.994 9.68C204.994 10.604 205.28 11.3593 205.852 11.946C206.424 12.5327 207.164 12.826 208.074 12.826ZM235.103 4.422V12.452H238.381V13.596H235.103V22.88H233.761V4.422H235.103ZM225.401 6.93V4.686H226.677V6.93H231.209V8.074H220.869V6.93H225.401ZM226.039 17.886C225.189 17.886 224.433 17.7027 223.773 17.336C223.113 16.9693 222.593 16.456 222.211 15.796C221.845 15.136 221.661 14.3807 221.661 13.53C221.661 12.6793 221.845 11.924 222.211 11.264C222.593 10.5893 223.113 10.0687 223.773 9.702C224.433 9.32067 225.189 9.13 226.039 9.13C226.89 9.13 227.645 9.32067 228.305 9.702C228.965 10.0687 229.479 10.5893 229.845 11.264C230.227 11.924 230.417 12.6793 230.417 13.53C230.417 14.3807 230.227 15.136 229.845 15.796C229.479 16.456 228.965 16.9693 228.305 17.336C227.645 17.7027 226.89 17.886 226.039 17.886ZM226.039 16.698C226.963 16.698 227.719 16.4047 228.305 15.818C228.892 15.2167 229.185 14.454 229.185 13.53C229.185 12.5913 228.892 11.8213 228.305 11.22C227.719 10.6187 226.963 10.318 226.039 10.318C225.115 10.318 224.36 10.6187 223.773 11.22C223.187 11.8213 222.893 12.5913 222.893 13.53C222.893 14.454 223.187 15.2167 223.773 15.818C224.36 16.4047 225.115 16.698 226.039 16.698ZM239.145 5.676H247.791V7.414H252.279V4.444H253.621V17.182H252.279V12.628H247.791V14.102H239.145V5.676ZM242.973 16.918V21.934H253.577V23.078H241.631V16.918H242.973ZM246.493 12.98V6.798H240.443V12.98H246.493ZM252.279 11.506V8.558H247.791V11.506H252.279Z" fill="white"/>
</g>
<g filter="url(#filter1_d_5003_2419)">
<path d="M17.0485 71.42C7.47248 71.42 1.13048 64.196 1.13048 55.67C1.13048 46.934 7.72448 39.92 16.7965 39.92C23.1385 39.92 28.1365 43.154 30.7405 47.774L25.7005 50.798C23.7685 47.228 20.8285 45.464 16.8385 45.464C11.1265 45.464 6.80048 50.126 6.80048 55.67C6.80048 61.34 11.0845 65.876 17.0485 65.876C21.7105 65.876 24.7765 63.272 25.9105 59.24H16.1245V53.78H32.0425V56.048C32.0425 64.322 26.2465 71.42 17.0485 71.42ZM45.0641 71.504C39.1421 71.504 32.9681 66.8 32.9681 58.736C32.9681 50.588 38.9321 45.926 45.1481 45.926C48.3821 45.926 51.2381 47.228 53.0441 49.37V46.43H58.7141V71H53.0441V67.808C51.2381 70.118 48.2981 71.504 45.0641 71.504ZM45.9881 66.296C50.2301 66.296 53.3381 62.894 53.3381 58.652C53.3381 54.452 50.2301 51.092 45.9881 51.092C41.7881 51.092 38.5541 54.41 38.5541 58.652C38.5541 62.936 41.7881 66.296 45.9881 66.296ZM60.6839 71V39.92H66.3959V71H60.6839ZM79.7043 71.504C73.7823 71.504 67.6083 66.8 67.6083 58.736C67.6083 50.588 73.5723 45.926 79.7883 45.926C83.0223 45.926 85.8783 47.228 87.6843 49.37V46.43H93.3543V71H87.6843V67.808C85.8783 70.118 82.9383 71.504 79.7043 71.504ZM80.6283 66.296C84.8703 66.296 87.9783 62.894 87.9783 58.652C87.9783 54.452 84.8703 51.092 80.6283 51.092C76.4283 51.092 73.1943 54.41 73.1943 58.652C73.1943 62.936 76.4283 66.296 80.6283 66.296ZM93.4859 71L102.726 58.484L93.8219 46.43H100.752L106.338 54.242L111.882 46.43H118.602L109.782 58.568L119.19 71H112.26L106.254 62.81L100.416 71H93.4859ZM122.981 82.34L128.147 69.782L118.067 46.43H124.115L130.961 62.978L137.429 46.43H143.393L128.735 82.34H122.981ZM160.876 71L152.14 40.34H158.104L163.9 61.802L170.326 40.34H175.954L182.338 61.718L188.092 40.34H193.846L185.194 71H179.524L173.098 49.37L166.672 71H160.876ZM202.439 71.504C196.517 71.504 190.343 66.8 190.343 58.736C190.343 50.588 196.307 45.926 202.523 45.926C205.757 45.926 208.613 47.228 210.419 49.37V46.43H216.089V71H210.419V67.808C208.613 70.118 205.673 71.504 202.439 71.504ZM203.363 66.296C207.605 66.296 210.713 62.894 210.713 58.652C210.713 54.452 207.605 51.092 203.363 51.092C199.163 51.092 195.929 54.41 195.929 58.652C195.929 62.936 199.163 66.296 203.363 66.296ZM217.177 51.512V46.43H221.377V42.692L227.089 38.786V46.43H232.087V51.512H227.089V60.71C227.089 64.994 227.719 65.666 232.087 65.666V71H231.289C223.687 71 221.377 68.564 221.377 60.752V51.512H217.177ZM244.724 71.504C237.542 71.504 231.956 65.792 231.956 58.736C231.956 51.554 237.542 45.926 244.724 45.926C250.226 45.926 254.552 49.076 256.442 53.528L251.36 55.67C250.226 52.982 247.79 51.26 244.766 51.26C240.608 51.26 237.5 54.578 237.5 58.736C237.5 62.81 240.608 66.17 244.808 66.17C248 66.17 250.31 64.28 251.444 61.592L256.526 63.776C254.594 68.312 250.436 71.504 244.724 71.504ZM257.416 71V39.92H263.086V49.37C264.766 47.228 267.286 45.926 270.436 45.926C276.61 45.926 280.18 49.748 280.18 56.426V71H274.384V57.056C274.384 53.192 272.536 50.84 268.84 50.84C265.648 50.84 263.128 53.234 263.128 57.518V71H257.416ZM284.638 71L295.348 45.8H281.992V40.34H301.312V45.296L290.686 71H284.638Z" fill="url(#paint0_linear_5003_2419)"/>
<path d="M102.428 104.6H96.4675V101.04H102.428V92.64H106.828V117.12H102.428V104.6ZM88.5875 115.76V124H107.108V127.52H84.1875V115.76H88.5875ZM78.2675 109.6L84.5075 103.28C85.0942 102.693 85.4808 102.133 85.6675 101.6C85.8808 101.04 85.9875 100.413 85.9875 99.72V98.32H79.0275V94.72H96.8275V98.32H90.1875V99.72C90.1875 100.44 90.2808 101.067 90.4675 101.6C90.6542 102.107 91.0542 102.667 91.6675 103.28L97.9075 109.6L95.0275 112.48L88.7875 106.16L88.1075 105.36L87.3875 106.16L81.1475 112.48L78.2675 109.6ZM140.042 92.64V113.4H135.842V105.04H132.442V113.2H128.322V93.28H132.442V101.44H135.842V92.64H140.042ZM140.042 115.16V128.24H135.642V118.64H116.842V115.16H140.042ZM118.122 111.64C116.495 111.64 115.042 111.28 113.762 110.56C112.508 109.813 111.522 108.787 110.802 107.48C110.108 106.147 109.762 104.64 109.762 102.96C109.762 101.28 110.108 99.7867 110.802 98.48C111.522 97.1467 112.508 96.1067 113.762 95.36C115.042 94.6133 116.495 94.24 118.122 94.24C119.748 94.24 121.188 94.6133 122.442 95.36C123.722 96.1067 124.708 97.1467 125.402 98.48C126.122 99.7867 126.482 101.28 126.482 102.96C126.482 104.64 126.122 106.147 125.402 107.48C124.708 108.787 123.722 109.813 122.442 110.56C121.188 111.28 119.748 111.64 118.122 111.64ZM118.122 108C119.428 108 120.468 107.547 121.242 106.64C122.042 105.707 122.442 104.48 122.442 102.96C122.442 101.44 122.042 100.213 121.242 99.28C120.468 98.3467 119.428 97.88 118.122 97.88C116.842 97.88 115.788 98.3467 114.962 99.28C114.162 100.213 113.762 101.44 113.762 102.96C113.762 104.48 114.162 105.707 114.962 106.64C115.788 107.547 116.842 108 118.122 108ZM177.194 92.56V100.52H182.114V104.12H177.194V111.92H172.754V92.56H177.194ZM177.194 113.52V122.12H159.194V124.64H178.074V127.92H154.874V119.08H172.834V116.76H154.754V113.52H177.194ZM169.554 99.32H166.474C167.594 100.707 168.154 102.173 168.154 103.72C168.154 105.213 167.794 106.56 167.074 107.76C166.354 108.933 165.354 109.853 164.074 110.52C162.794 111.16 161.328 111.48 159.674 111.48C158.074 111.48 156.634 111.16 155.354 110.52C154.101 109.853 153.114 108.933 152.394 107.76C151.674 106.56 151.314 105.213 151.314 103.72C151.314 102.173 151.874 100.707 152.994 99.32H149.874V95.72H157.594V92.24H161.834V95.72H169.554V99.32ZM155.514 103.72C155.514 105 155.901 106.04 156.674 106.84C157.448 107.64 158.448 108.04 159.674 108.04C160.954 108.04 161.994 107.64 162.794 106.84C163.594 106.04 163.994 105 163.994 103.72C163.994 102.413 163.594 101.36 162.794 100.56C161.994 99.7333 160.954 99.32 159.674 99.32C158.421 99.32 157.408 99.7333 156.634 100.56C155.888 101.36 155.514 102.413 155.514 103.72ZM211.128 92.64V116.88H206.728V92.64H211.128ZM193.128 115.68V124H211.448V127.52H188.728V115.68H193.128ZM191.848 111.84C190.062 111.84 188.462 111.467 187.048 110.72C185.662 109.973 184.568 108.933 183.768 107.6C182.995 106.267 182.608 104.747 182.608 103.04C182.608 101.333 182.995 99.8133 183.768 98.48C184.568 97.12 185.662 96.0667 187.048 95.32C188.462 94.5733 190.062 94.2 191.848 94.2C193.635 94.2 195.222 94.5733 196.608 95.32C197.995 96.0667 199.075 97.12 199.848 98.48C200.648 99.8133 201.048 101.333 201.048 103.04C201.048 104.747 200.648 106.267 199.848 107.6C199.075 108.933 197.995 109.973 196.608 110.72C195.222 111.467 193.635 111.84 191.848 111.84ZM191.848 108.24C193.315 108.24 194.488 107.76 195.368 106.8C196.275 105.84 196.728 104.587 196.728 103.04C196.728 101.467 196.275 100.2 195.368 99.24C194.488 98.28 193.315 97.8 191.848 97.8C190.355 97.8 189.155 98.28 188.248 99.24C187.368 100.2 186.928 101.467 186.928 103.04C186.928 104.613 187.382 105.88 188.288 106.84C189.195 107.773 190.382 108.24 191.848 108.24ZM222.023 117.2H217.943L217.183 94.8H222.663L222.023 117.2ZM220.023 120.96C220.743 120.96 221.329 121.187 221.783 121.64C222.236 122.093 222.463 122.693 222.463 123.44C222.463 124.187 222.236 124.787 221.783 125.24C221.329 125.72 220.743 125.96 220.023 125.96C219.276 125.96 218.663 125.72 218.183 125.24C217.729 124.787 217.503 124.187 217.503 123.44C217.503 122.693 217.729 122.093 218.183 121.64C218.663 121.187 219.276 120.96 220.023 120.96Z" fill="#FF008C"/>
</g>
<path d="M80.9067 148.056L84.1467 144.804L84.7467 145.404L81.4947 148.656L84.7227 151.884L84.1467 152.472L80.9187 149.232L77.6667 152.484L77.0787 151.896L80.3187 148.644L77.0787 145.404L77.6667 144.816L80.9067 148.056ZM80.9427 145.776C80.7827 145.776 80.6507 145.724 80.5467 145.62C80.4427 145.516 80.3907 145.384 80.3907 145.224C80.3907 145.064 80.4427 144.936 80.5467 144.84C80.6507 144.736 80.7827 144.684 80.9427 144.684C81.1027 144.684 81.2307 144.736 81.3267 144.84C81.4307 144.936 81.4827 145.064 81.4827 145.224C81.4827 145.384 81.4307 145.516 81.3267 145.62C81.2307 145.724 81.1027 145.776 80.9427 145.776ZM80.9427 152.508C80.7827 152.508 80.6507 152.456 80.5467 152.352C80.4427 152.248 80.3907 152.116 80.3907 151.956C80.3907 151.796 80.4427 151.668 80.5467 151.572C80.6507 151.468 80.7827 151.416 80.9427 151.416C81.1027 151.416 81.2307 151.468 81.3267 151.572C81.4307 151.668 81.4827 151.796 81.4827 151.956C81.4827 152.116 81.4307 152.248 81.3267 152.352C81.2307 152.456 81.1027 152.508 80.9427 152.508ZM77.7027 149.148C77.5427 149.148 77.4107 149.096 77.3067 148.992C77.2027 148.888 77.1507 148.756 77.1507 148.596C77.1507 148.436 77.2027 148.308 77.3067 148.212C77.4107 148.108 77.5427 148.056 77.7027 148.056C77.8627 148.056 77.9907 148.108 78.0867 148.212C78.1907 148.308 78.2427 148.436 78.2427 148.596C78.2427 148.756 78.1907 148.888 78.0867 148.992C77.9907 149.096 77.8627 149.148 77.7027 149.148ZM84.1947 149.148C84.0347 149.148 83.9027 149.096 83.7987 148.992C83.6947 148.888 83.6427 148.756 83.6427 148.596C83.6427 148.436 83.6947 148.308 83.7987 148.212C83.9027 148.108 84.0347 148.056 84.1947 148.056C84.3547 148.056 84.4827 148.108 84.5787 148.212C84.6827 148.308 84.7347 148.436 84.7347 148.596C84.7347 148.756 84.6827 148.888 84.5787 148.992C84.4827 149.096 84.3547 149.148 84.1947 149.148ZM86.9803 148.764L87.2563 144.324H91.5763V145.092H88.0843L87.9163 147.78C88.3963 147.508 88.8723 147.372 89.3443 147.372C89.9123 147.372 90.4163 147.492 90.8563 147.732C91.3043 147.972 91.6523 148.308 91.9003 148.74C92.1483 149.172 92.2723 149.664 92.2723 150.216C92.2723 150.776 92.1483 151.276 91.9003 151.716C91.6523 152.156 91.3043 152.5 90.8563 152.748C90.4163 152.996 89.9123 153.12 89.3443 153.12C88.6803 153.12 88.0883 152.92 87.5683 152.52C87.0563 152.112 86.7243 151.588 86.5723 150.948L87.4123 150.756C87.5163 151.212 87.7483 151.584 88.1083 151.872C88.4683 152.16 88.8803 152.304 89.3443 152.304C89.7443 152.304 90.1003 152.216 90.4123 152.04C90.7243 151.864 90.9683 151.616 91.1443 151.296C91.3203 150.976 91.4083 150.616 91.4083 150.216C91.4083 149.824 91.3203 149.476 91.1443 149.172C90.9683 148.86 90.7243 148.62 90.4123 148.452C90.1003 148.276 89.7443 148.188 89.3443 148.188C89.0883 148.188 88.8203 148.256 88.5403 148.392C88.2603 148.528 88.0283 148.7 87.8443 148.908L86.9803 148.764ZM101.775 149.208C101.775 150.016 101.599 150.708 101.247 151.284C100.895 151.86 100.411 152.304 99.7953 152.616C99.1793 152.92 98.4833 153.08 97.7073 153.096C96.8833 153.096 96.1473 152.908 95.4993 152.532C94.8593 152.156 94.3553 151.632 93.9873 150.96C93.6273 150.288 93.4473 149.524 93.4473 148.668C93.4473 147.812 93.6273 147.052 93.9873 146.388C94.3553 145.716 94.8593 145.192 95.4993 144.816C96.1473 144.44 96.8833 144.252 97.7073 144.252C98.5073 144.252 99.1713 144.408 99.6993 144.72C100.235 145.024 100.611 145.324 100.827 145.62C101.043 145.916 101.207 146.156 101.319 146.34L100.551 146.688C100.463 146.544 100.335 146.356 100.167 146.124C99.9993 145.884 99.7033 145.64 99.2793 145.392C98.8633 145.144 98.3393 145.02 97.7073 145.02C97.0513 145.02 96.4633 145.176 95.9433 145.488C95.4313 145.8 95.0313 146.232 94.7433 146.784C94.4553 147.336 94.3113 147.964 94.3113 148.668C94.3113 149.372 94.4553 150.004 94.7433 150.564C95.0313 151.116 95.4313 151.548 95.9433 151.86C96.4633 152.172 97.0513 152.328 97.7073 152.328C98.6913 152.288 99.4793 152.012 100.071 151.5C100.663 150.98 100.959 150.24 100.959 149.28H97.8633V148.512H101.787L101.775 149.208ZM113.266 143.364V147.54H115.006V148.296H113.266V153.888H112.366V143.364H113.266ZM110.542 144.408V145.14H106.558V150.492C107.598 150.492 108.474 150.468 109.186 150.42C109.906 150.372 110.63 150.276 111.358 150.132L111.466 150.9C110.698 151.044 109.942 151.14 109.198 151.188C108.462 151.236 107.558 151.26 106.486 151.26H105.67V144.408H110.542ZM123.778 143.364V153.888H122.878V143.364H123.778ZM118.258 144.192C118.77 144.192 119.226 144.344 119.626 144.648C120.034 144.944 120.35 145.368 120.574 145.92C120.798 146.472 120.91 147.112 120.91 147.84C120.91 148.568 120.798 149.212 120.574 149.772C120.35 150.324 120.034 150.752 119.626 151.056C119.226 151.352 118.77 151.5 118.258 151.5C117.738 151.5 117.274 151.352 116.866 151.056C116.466 150.752 116.154 150.324 115.93 149.772C115.706 149.22 115.594 148.576 115.594 147.84C115.594 147.112 115.706 146.472 115.93 145.92C116.154 145.368 116.466 144.944 116.866 144.648C117.274 144.344 117.738 144.192 118.258 144.192ZM118.258 144.996C117.906 144.996 117.594 145.116 117.322 145.356C117.058 145.588 116.85 145.92 116.698 146.352C116.546 146.776 116.47 147.272 116.47 147.84C116.47 148.408 116.546 148.908 116.698 149.34C116.85 149.772 117.058 150.108 117.322 150.348C117.594 150.58 117.906 150.696 118.258 150.696C118.602 150.696 118.91 150.58 119.182 150.348C119.454 150.108 119.666 149.772 119.818 149.34C119.97 148.9 120.046 148.4 120.046 147.84C120.046 147.28 119.97 146.784 119.818 146.352C119.666 145.92 119.454 145.588 119.182 145.356C118.91 145.116 118.602 144.996 118.258 144.996ZM134.051 150.444V153.876H133.163V151.188H127.067V150.444H134.051ZM129.395 144.168V147.072H126.563V148.692C127.283 148.692 127.923 148.668 128.483 148.62C129.043 148.572 129.619 148.488 130.211 148.368L130.319 149.1C129.687 149.22 129.071 149.304 128.471 149.352C127.871 149.392 127.171 149.412 126.371 149.412H125.711V146.388H128.531V144.9H125.675V144.168H129.395ZM134.051 143.376V149.928H133.199V143.376H134.051ZM131.147 146.088V143.58H131.999V149.856H131.147V146.832H129.815V146.088H131.147ZM143.543 144.288V145.02H137.375V146.628H143.315V147.36H137.375V149.052H143.651V149.796H136.463V144.288H143.543ZM144.743 151.752V152.496H135.227V151.752H144.743ZM150.533 152.328C151.125 152.328 151.609 152.136 151.985 151.752C152.361 151.36 152.549 150.86 152.549 150.252C152.549 149.636 152.361 149.136 151.985 148.752C151.609 148.36 151.125 148.164 150.533 148.164C150.157 148.164 149.817 148.252 149.513 148.428C149.217 148.604 148.985 148.852 148.817 149.172C148.649 149.492 148.565 149.852 148.565 150.252C148.565 150.86 148.749 151.36 149.117 151.752C149.485 152.136 149.957 152.328 150.533 152.328ZM147.701 150.252C147.701 149.7 147.849 149.164 148.145 148.644L150.605 144.336H151.601L149.789 147.48C150.069 147.424 150.325 147.396 150.557 147.396C151.109 147.396 151.601 147.52 152.033 147.768C152.465 148.008 152.801 148.344 153.041 148.776C153.289 149.208 153.413 149.7 153.413 150.252C153.413 150.804 153.289 151.296 153.041 151.728C152.801 152.16 152.465 152.496 152.033 152.736C151.601 152.976 151.109 153.096 150.557 153.096C150.005 153.096 149.513 152.976 149.081 152.736C148.649 152.496 148.309 152.16 148.061 151.728C147.821 151.296 147.701 150.804 147.701 150.252ZM154.684 148.764L154.96 144.324H159.28V145.092H155.788L155.62 147.78C156.1 147.508 156.576 147.372 157.048 147.372C157.616 147.372 158.12 147.492 158.56 147.732C159.008 147.972 159.356 148.308 159.604 148.74C159.852 149.172 159.976 149.664 159.976 150.216C159.976 150.776 159.852 151.276 159.604 151.716C159.356 152.156 159.008 152.5 158.56 152.748C158.12 152.996 157.616 153.12 157.048 153.12C156.384 153.12 155.792 152.92 155.272 152.52C154.76 152.112 154.428 151.588 154.276 150.948L155.116 150.756C155.22 151.212 155.452 151.584 155.812 151.872C156.172 152.16 156.584 152.304 157.048 152.304C157.448 152.304 157.804 152.216 158.116 152.04C158.428 151.864 158.672 151.616 158.848 151.296C159.024 150.976 159.112 150.616 159.112 150.216C159.112 149.824 159.024 149.476 158.848 149.172C158.672 148.86 158.428 148.62 158.116 148.452C157.804 148.276 157.448 148.188 157.048 148.188C156.792 148.188 156.524 148.256 156.244 148.392C155.964 148.528 155.732 148.7 155.548 148.908L154.684 148.764ZM165.296 151.764V148.896C164.848 148.664 164.496 148.364 164.24 147.996C163.992 147.62 163.868 147.2 163.868 146.736C163.868 146.2 164.028 145.728 164.348 145.32C164.676 144.912 165.128 144.6 165.704 144.384C166.28 144.16 166.936 144.048 167.672 144.048C168.408 144.048 169.064 144.16 169.64 144.384C170.216 144.6 170.664 144.912 170.984 145.32C171.312 145.728 171.476 146.2 171.476 146.736C171.476 147.192 171.352 147.604 171.104 147.972C170.864 148.34 170.524 148.644 170.084 148.884V151.764H172.448V152.508H162.932V151.764H165.296ZM167.672 144.768C167.104 144.768 166.596 144.852 166.148 145.02C165.708 145.18 165.364 145.408 165.116 145.704C164.868 146 164.744 146.344 164.744 146.736C164.744 147.128 164.868 147.472 165.116 147.768C165.364 148.064 165.708 148.296 166.148 148.464C166.596 148.624 167.104 148.704 167.672 148.704C168.24 148.704 168.744 148.624 169.184 148.464C169.632 148.296 169.98 148.064 170.228 147.768C170.484 147.472 170.612 147.128 170.612 146.736C170.612 146.344 170.484 146 170.228 145.704C169.98 145.408 169.632 145.18 169.184 145.02C168.744 144.852 168.24 144.768 167.672 144.768ZM169.184 151.764V149.232C168.728 149.352 168.224 149.412 167.672 149.412C167.136 149.412 166.64 149.352 166.184 149.232V151.764H169.184ZM181.209 143.94V144.708C181.209 145.284 181.193 145.8 181.161 146.256C181.129 146.712 181.049 147.232 180.921 147.816H182.457V148.56H172.941V147.816H180.033C180.169 147.232 180.253 146.712 180.285 146.256C180.317 145.8 180.333 145.284 180.333 144.708V144.684H174.165V143.94H181.209ZM181.257 150.024V153.744H174.117V150.024H181.257ZM174.993 150.744V153.012H180.381V150.744H174.993ZM191.841 143.376V153.876H190.977V143.376H191.841ZM188.877 147.168V143.628H189.717V153.324H188.877V147.912H187.101V147.168H188.877ZM187.905 144.624V145.368H185.997V146.364C185.997 147.3 186.197 148.18 186.597 149.004C186.997 149.828 187.545 150.444 188.241 150.852L187.689 151.512C187.185 151.208 186.753 150.788 186.393 150.252C186.033 149.708 185.757 149.092 185.565 148.404C185.381 149.14 185.101 149.804 184.725 150.396C184.349 150.98 183.901 151.436 183.381 151.764L182.829 151.092C183.533 150.66 184.089 150.012 184.497 149.148C184.913 148.276 185.121 147.348 185.121 146.364V145.368H183.093V144.624H187.905ZM202.959 145.872V143.388H203.859V151.248H202.959V146.628H200.631V145.872H202.959ZM198.783 144V145.344C198.783 146.08 199.023 146.764 199.503 147.396C199.983 148.028 200.599 148.488 201.351 148.776L200.871 149.472C200.295 149.248 199.787 148.916 199.347 148.476C198.915 148.028 198.587 147.516 198.363 146.94C198.139 147.572 197.795 148.132 197.331 148.62C196.875 149.1 196.339 149.468 195.723 149.724L195.255 149.004C195.767 148.812 196.223 148.528 196.623 148.152C197.023 147.776 197.335 147.344 197.559 146.856C197.783 146.36 197.895 145.848 197.895 145.32V144H198.783ZM198.027 150.36V152.892H204.111V153.636H197.127V150.36H198.027ZM209.751 144.144V144.888H206.583V146.244H209.643V146.952H206.583V148.428C207.375 148.428 208.035 148.408 208.563 148.368C209.099 148.328 209.639 148.256 210.183 148.152L210.279 148.884C209.703 148.996 209.131 149.072 208.563 149.112C208.003 149.152 207.275 149.172 206.379 149.172H205.719V144.144H209.751ZM214.083 143.376V149.736H213.231V146.88H211.755V149.676H210.903V143.58H211.755V146.136H213.231V143.376H214.083ZM214.083 150.3V153.876H213.195V151.044H207.063V150.3H214.083ZM221.217 144.3V146.208C221.217 146.832 221.345 147.452 221.601 148.068C221.857 148.676 222.201 149.22 222.633 149.7C223.065 150.18 223.533 150.536 224.037 150.768L223.497 151.488C222.897 151.192 222.357 150.748 221.877 150.156C221.397 149.556 221.033 148.88 220.785 148.128C220.545 148.928 220.181 149.644 219.693 150.276C219.205 150.908 218.653 151.376 218.037 151.68L217.485 150.936C217.989 150.696 218.457 150.328 218.889 149.832C219.329 149.336 219.677 148.772 219.933 148.14C220.189 147.5 220.317 146.856 220.317 146.208V144.3H221.217ZM226.101 143.364V153.888H225.201V143.364H226.101Z" fill="#AAAAAA"/>
<defs>
<filter id="filter0_d_5003_2419" x="46.625" y="3.17969" width="209.996" height="23.668" filterUnits="userSpaceOnUse" color-interpolation-filters="sRGB">
<feFlood flood-opacity="0" result="BackgroundImageFix"/>
<feColorMatrix in="SourceAlpha" type="matrix" values="0 0 0 0 0 0 0 0 0 0 0 0 0 0 0 0 0 0 127 0" result="hardAlpha"/>
<feOffset dx="1" dy="1"/>
<feGaussianBlur stdDeviation="1"/>
<feComposite in2="hardAlpha" operator="out"/>
<feColorMatrix type="matrix" values="0 0 0 0 0 0 0 0 0 0 0 0 0 0 0 0 0 0 0.4 0"/>
<feBlend mode="normal" in2="BackgroundImageFix" result="effect1_dropShadow_5003_2419"/>
<feBlend mode="normal" in="SourceGraphic" in2="effect1_dropShadow_5003_2419" result="shape"/>
</filter>
<filter id="filter1_d_5003_2419" x="0.130859" y="37.7861" width="304.182" height="93.4541" filterUnits="userSpaceOnUse" color-interpolation-filters="sRGB">
<feFlood flood-opacity="0" result="BackgroundImageFix"/>
<feColorMatrix in="SourceAlpha" type="matrix" values="0 0 0 0 0 0 0 0 0 0 0 0 0 0 0 0 0 0 127 0" result="hardAlpha"/>
<feOffset dx="1" dy="1"/>
<feGaussianBlur stdDeviation="1"/>
<feComposite in2="hardAlpha" operator="out"/>
<feColorMatrix type="matrix" values="0 0 0 0 0 0 0 0 0 0 0 0 0 0 0 0 0 0 0.4 0"/>
<feBlend mode="normal" in2="BackgroundImageFix" result="effect1_dropShadow_5003_2419"/>
<feBlend mode="normal" in="SourceGraphic" in2="effect1_dropShadow_5003_2419" result="shape"/>
</filter>
<linearGradient id="paint0_linear_5003_2419" x1="303" y1="70.1653" x2="13.8876" y2="34.4232" gradientUnits="userSpaceOnUse">
<stop stop-color="#FF008C"/>
<stop offset="1" stop-color="#FFC6E5"/>
</linearGradient>
</defs>
</svg>
