<svg xmlns="http://www.w3.org/2000/svg" xmlns:xlink="http://www.w3.org/1999/xlink" width="25.371" height="20.464" viewBox="0 0 25.371 20.464">
  <defs>
    <clipPath id="clip-path">
      <rect id="사각형_767" data-name="사각형 767" width="25.371" height="20.464" fill="none" stroke="#fff" stroke-width="1"/>
    </clipPath>
  </defs>
  <g id="그룹_1450" data-name="그룹 1450" transform="translate(0 0)">
    <g id="그룹_1449" data-name="그룹 1449" transform="translate(0 0)" clip-path="url(#clip-path)">
      <rect id="사각형_766" data-name="사각형 766" width="24.239" height="19.33" transform="translate(0.565 0.567)" fill="none" stroke="#fff" stroke-linecap="round" stroke-linejoin="round" stroke-width="1"/>
      <path id="패스_7119" data-name="패스 7119" d="M5.413,4.232A1.741,1.741,0,1,1,3.669,2.491,1.74,1.74,0,0,1,5.413,4.232Z" transform="translate(2.871 3.705)" fill="none" stroke="#fff" stroke-linecap="round" stroke-linejoin="round" stroke-width="1"/>
      <path id="패스_7120" data-name="패스 7120" d="M8.521,6.193A1.673,1.673,0,0,0,6.853,4.522H2.879A1.668,1.668,0,0,0,1.21,6.193L1.7,8.7H8.089Z" transform="translate(1.799 6.725)" fill="none" stroke="#fff" stroke-linecap="round" stroke-linejoin="round" stroke-width="1"/>
      <line id="선_62" data-name="선 62" x2="7.955" transform="translate(14.26 6.199)" fill="none" stroke="#fff" stroke-linecap="round" stroke-linejoin="round" stroke-width="1"/>
      <line id="선_63" data-name="선 63" x2="7.955" transform="translate(14.26 9.113)" fill="none" stroke="#fff" stroke-linecap="round" stroke-linejoin="round" stroke-width="1"/>
      <line id="선_64" data-name="선 64" x2="7.955" transform="translate(14.26 12.026)" fill="none" stroke="#fff" stroke-linecap="round" stroke-linejoin="round" stroke-width="1"/>
      <line id="선_65" data-name="선 65" x2="3.979" transform="translate(14.26 14.941)" fill="none" stroke="#fff" stroke-linecap="round" stroke-linejoin="round" stroke-width="1"/>
    </g>
  </g>
</svg>
