<svg xmlns="http://www.w3.org/2000/svg" xmlns:xlink="http://www.w3.org/1999/xlink" width="24" height="24" viewBox="0 0 24 24">
  <defs>
    <clipPath id="clip-path">
      <rect id="사각형_768" data-name="사각형 768" width="24" height="24" fill="none" stroke="#fff" stroke-width="1"/>
    </clipPath>
  </defs>
  <g id="그룹_1454" data-name="그룹 1454" transform="translate(0 0)">
    <g id="그룹_1453" data-name="그룹 1453" transform="translate(0 0)" clip-path="url(#clip-path)">
      <path id="패스_7121" data-name="패스 7121" d="M14.4,7.059a6.09,6.09,0,0,0-.957-2.3L14.817,3.4,13.154,1.757,11.783,3.116a6.19,6.19,0,0,0-2.313-.949V.243H7.117V2.167A6.176,6.176,0,0,0,4.8,3.116L3.433,1.757,1.769,3.4,3.14,4.763a6.125,6.125,0,0,0-.957,2.3H.242V9.778H2.183a6.1,6.1,0,0,0,.957,2.293L1.769,13.431l1.664,1.647L4.8,13.72a6.247,6.247,0,0,0,2.313.949v1.922H9.469V14.67a6.262,6.262,0,0,0,2.313-.949l1.371,1.357,1.664-1.647-1.371-1.359A6.065,6.065,0,0,0,14.4,9.778h1.941V7.059Z" transform="translate(0.282 0.278)" fill="none" stroke="#fff" stroke-width="1"/>
      <path id="패스_7122" data-name="패스 7122" d="M14.4,7.059a6.09,6.09,0,0,0-.957-2.3L14.817,3.4,13.154,1.757,11.783,3.116a6.19,6.19,0,0,0-2.313-.949V.243H7.117V2.167A6.176,6.176,0,0,0,4.8,3.116L3.433,1.757,1.769,3.4,3.14,4.763a6.125,6.125,0,0,0-.957,2.3H.242V9.778H2.183a6.1,6.1,0,0,0,.957,2.293L1.769,13.431l1.664,1.647L4.8,13.72a6.247,6.247,0,0,0,2.313.949v1.922H9.469V14.67a6.262,6.262,0,0,0,2.313-.949l1.371,1.357,1.664-1.647-1.371-1.359A6.065,6.065,0,0,0,14.4,9.778h1.941V7.059Z" transform="translate(0.282 0.278)" fill="none" stroke="#fff" stroke-linecap="round" stroke-linejoin="round" stroke-width="1"/>
      <path id="패스_7123" data-name="패스 7123" d="M8.152,5.493a2.726,2.726,0,1,0-2.725,2.7,2.713,2.713,0,0,0,2.725-2.7" transform="translate(3.148 3.202)" fill="none" stroke="#fff" stroke-width="1"/>
      <path id="패스_7124" data-name="패스 7124" d="M8.152,5.493a2.726,2.726,0,1,0-2.725,2.7A2.713,2.713,0,0,0,8.152,5.493Z" transform="translate(3.148 3.202)" fill="none" stroke="#fff" stroke-linecap="round" stroke-linejoin="round" stroke-width="1"/>
      <path id="패스_7125" data-name="패스 7125" d="M15.014,10.537a3.676,3.676,0,0,0-.583-1.394l.834-.827-1.012-1-.832.825a3.775,3.775,0,0,0-1.406-.576V6.4h-1.43V7.565a3.775,3.775,0,0,0-1.406.576l-.834-.825-1.009,1,.834.827a3.676,3.676,0,0,0-.583,1.394H6.41v1.651H7.588a3.7,3.7,0,0,0,.583,1.4l-.834.825,1.009,1,.834-.825a3.774,3.774,0,0,0,1.406.576v1.168h1.43V15.161a3.774,3.774,0,0,0,1.406-.576l.832.825,1.012-1-.834-.825a3.7,3.7,0,0,0,.583-1.4h1.178V10.537Z" transform="translate(7.474 7.339)" fill="none" stroke="#fff" stroke-width="1"/>
      <path id="패스_7126" data-name="패스 7126" d="M15.014,10.537a3.676,3.676,0,0,0-.583-1.394l.834-.827-1.012-1-.832.825a3.775,3.775,0,0,0-1.406-.576V6.4h-1.43V7.565a3.775,3.775,0,0,0-1.406.576l-.834-.825-1.009,1,.834.827a3.676,3.676,0,0,0-.583,1.394H6.41v1.651H7.588a3.7,3.7,0,0,0,.583,1.4l-.834.825,1.009,1,.834-.825a3.774,3.774,0,0,0,1.406.576v1.168h1.43V15.161a3.774,3.774,0,0,0,1.406-.576l.832.825,1.012-1-.834-.825a3.7,3.7,0,0,0,.583-1.4h1.178V10.537Z" transform="translate(7.474 7.339)" fill="none" stroke="#fff" stroke-linecap="round" stroke-linejoin="round" stroke-width="1"/>
      <path id="패스_7127" data-name="패스 7127" d="M11.215,9.586a1.656,1.656,0,1,0-1.657,1.643,1.648,1.648,0,0,0,1.657-1.643" transform="translate(9.215 9.116)" fill="none" stroke="#fff" stroke-width="1"/>
      <path id="패스_7128" data-name="패스 7128" d="M11.215,9.586a1.656,1.656,0,1,0-1.657,1.643A1.648,1.648,0,0,0,11.215,9.586Z" transform="translate(9.215 9.116)" fill="none" stroke="#fff" stroke-linecap="round" stroke-linejoin="round" stroke-width="1"/>
    </g>
  </g>
</svg>
