<svg width="16" height="16" viewBox="0 0 16 16" fill="none" xmlns="http://www.w3.org/2000/svg">
<rect x="0.5" y="0.5" width="15" height="15" rx="7.5" fill="white"/>
<rect x="0.5" y="0.5" width="15" height="15" rx="7.5" stroke="#555555"/>
<path d="M8.67 9.76H7.19L6.92 4H8.9L8.67 9.76ZM7.93 10.8C8.16333 10.8 8.35333 10.8733 8.5 11.02C8.64667 11.1667 8.72 11.3567 8.72 11.59C8.72 11.8167 8.64667 12.0033 8.5 12.15C8.35333 12.3033 8.16333 12.38 7.93 12.38C7.70333 12.38 7.51333 12.3033 7.36 12.15C7.21333 12.0033 7.14 11.8167 7.14 11.59C7.14 11.3567 7.21333 11.1667 7.36 11.02C7.51333 10.8733 7.70333 10.8 7.93 10.8Z" fill="#555555"/>
</svg>
