<svg xmlns="http://www.w3.org/2000/svg" xmlns:xlink="http://www.w3.org/1999/xlink" width="23.709" height="24.161" viewBox="0 0 23.709 24.161">
  <defs>
    <clipPath id="clip-path">
      <rect id="사각형_765" data-name="사각형 765" width="23.709" height="24.161" fill="none" stroke="#fff" stroke-width="1"/>
    </clipPath>
  </defs>
  <g id="그룹_1446" data-name="그룹 1446" transform="translate(0 0)">
    <g id="그룹_1445" data-name="그룹 1445" transform="translate(0 0)" clip-path="url(#clip-path)">
      <path id="패스_7113" data-name="패스 7113" d="M5.908,8A2.4,2.4,0,1,1,3.5,5.593,2.4,2.4,0,0,1,5.908,8Z" transform="translate(1.464 7.438)" fill="none" stroke="#fff" stroke-linecap="round" stroke-linejoin="round" stroke-width="1"/>
      <path id="패스_7114" data-name="패스 7114" d="M8.417,8.887a2.7,2.7,0,0,0-1.505-.75L4.717,10.453l-2.3-2.3A2.69,2.69,0,0,0,.227,10.791v2.02H9.2v-2.02A2.685,2.685,0,0,0,8.417,8.887Z" transform="translate(0.302 10.821)" fill="none" stroke="#fff" stroke-linecap="round" stroke-linejoin="round" stroke-width="1"/>
      <path id="패스_7115" data-name="패스 7115" d="M11.778,8a2.4,2.4,0,1,1-2.4-2.407A2.4,2.4,0,0,1,11.778,8Z" transform="translate(9.268 7.438)" fill="none" stroke="#fff" stroke-linecap="round" stroke-linejoin="round" stroke-width="1"/>
      <path id="패스_7116" data-name="패스 7116" d="M14.286,8.887a2.7,2.7,0,0,0-1.505-.75l-2.195,2.316-2.3-2.3A2.69,2.69,0,0,0,6.1,10.791v2.02h8.977v-2.02A2.685,2.685,0,0,0,14.286,8.887Z" transform="translate(8.107 10.821)" fill="none" stroke="#fff" stroke-linecap="round" stroke-linejoin="round" stroke-width="1"/>
      <path id="패스_7117" data-name="패스 7117" d="M3.725,1.2A3.421,3.421,0,0,1,6.151.2h7.463a3.429,3.429,0,0,1,3.427,3.43V6.973a3.429,3.429,0,0,1-3.427,3.43h-2.7a8.368,8.368,0,0,1-4.636,3,13.51,13.51,0,0,0,.832-3H6.151a3.429,3.429,0,0,1-3.43-3.43V3.63a3.415,3.415,0,0,1,1-2.425" transform="translate(3.619 0.266)" fill="none" stroke="#fff" stroke-width="1"/>
      <path id="패스_7118" data-name="패스 7118" d="M3.725,1.2A3.421,3.421,0,0,1,6.151.2h7.463a3.429,3.429,0,0,1,3.427,3.43V6.973a3.429,3.429,0,0,1-3.427,3.43h-2.7a8.368,8.368,0,0,1-4.636,3,13.51,13.51,0,0,0,.832-3H6.151a3.429,3.429,0,0,1-3.43-3.43V3.63A3.415,3.415,0,0,1,3.725,1.2Z" transform="translate(3.619 0.266)" fill="none" stroke="#fff" stroke-linecap="round" stroke-linejoin="round" stroke-width="1"/>
      <line id="선_60" data-name="선 60" x2="6.629" transform="translate(10.363 3.765)" fill="none" stroke="#fff" stroke-linecap="round" stroke-linejoin="round" stroke-width="1"/>
      <line id="선_61" data-name="선 61" x2="6.629" transform="translate(10.363 7.067)" fill="none" stroke="#fff" stroke-linecap="round" stroke-linejoin="round" stroke-width="1"/>
    </g>
  </g>
</svg>
