<svg xmlns="http://www.w3.org/2000/svg" xmlns:xlink="http://www.w3.org/1999/xlink" width="22.674" height="21.981" viewBox="0 0 22.674 21.981">
  <defs>
    <clipPath id="clip-path">
      <rect id="사각형_764" data-name="사각형 764" width="22.157" height="21" fill="none" stroke="#0060aa" stroke-width="1"/>
    </clipPath>
  </defs>
  <g id="그룹_1442" data-name="그룹 1442" transform="translate(-408.922 -727.019)">
    <g id="그룹_1440" data-name="그룹 1440" transform="translate(408.922 728)">
      <g id="그룹_1439" data-name="그룹 1439" transform="translate(0 0)" clip-path="url(#clip-path)">
        <line id="선_59" data-name="선 59" x2="19.054" transform="translate(0.476 20.524)" fill="none" stroke="#0060aa" stroke-linecap="round" stroke-linejoin="round" stroke-width="1"/>
        <rect id="사각형_761" data-name="사각형 761" width="2.947" height="13.555" transform="translate(2.734 6.872)" fill="none" stroke="#0060aa" stroke-linecap="round" stroke-linejoin="round" stroke-width="1"/>
        <rect id="사각형_762" data-name="사각형 762" width="2.945" height="18.759" transform="translate(8.531 1.666)" fill="none" stroke="#0060aa" stroke-linecap="round" stroke-linejoin="round" stroke-width="1"/>
        <rect id="사각형_763" data-name="사각형 763" width="2.947" height="9.429" transform="translate(13.931 10.998)" fill="none" stroke="#0060aa" stroke-linecap="round" stroke-linejoin="round" stroke-width="1"/>
      </g>
    </g>
    <g id="그룹_1441" data-name="그룹 1441">
      <ellipse id="타원_65" data-name="타원 65" cx="1.645" cy="1.67" rx="1.645" ry="1.67" transform="translate(425.32 730.239)" fill="none" stroke="#0060aa" stroke-linecap="round" stroke-linejoin="round" stroke-width="1.033"/>
      <path id="패스_7112" data-name="패스 7112" d="M18.145,4.891a3.289,3.289,0,0,0-.089-.747l1.03-.762-.771-1.356-1.164.525A3.162,3.162,0,0,0,15.877,1.8L15.742.517H14.2L14.066,1.8a3.162,3.162,0,0,0-1.274.749l-1.164-.525-.77,1.356,1.029.762a3.181,3.181,0,0,0,0,1.495L10.858,6.4l.77,1.356,1.164-.525a3.162,3.162,0,0,0,1.274.749L14.2,9.265h1.541l.135-1.284a3.162,3.162,0,0,0,1.274-.749l1.164.525L19.086,6.4l-1.03-.762A3.289,3.289,0,0,0,18.145,4.891Z" transform="translate(411.993 727.019)" fill="none" stroke="#0060aa" stroke-linecap="round" stroke-linejoin="round" stroke-width="1.033"/>
    </g>
  </g>
</svg>
