<svg xmlns="http://www.w3.org/2000/svg" width="21.079" height="21.874" viewBox="0 0 21.079 21.874">
  <g id="그룹_1473" data-name="그룹 1473" transform="translate(0.024 0.019)">
    <g id="그룹_1485" data-name="그룹 1485" transform="translate(0 0)">
      <ellipse id="타원_66" data-name="타원 66" cx="3.079" cy="3.12" rx="3.079" ry="3.12" transform="translate(3.646 0.482)" fill="none" stroke="#fff" stroke-linecap="round" stroke-linejoin="round" stroke-width="1"/>
      <path id="패스_7144" data-name="패스 7144" d="M6.322,12.112l-1.989,2.43-1.987-2.43L4.333,3.95Z" transform="translate(2.555 4.412)" fill="none" stroke="#fff" stroke-linecap="round" stroke-linejoin="round" stroke-width="1"/>
      <path id="패스_7145" data-name="패스 7145" d="M11.438,17H2.2L.228,6.892a3,3,0,0,1,.865-2.119A2.93,2.93,0,0,1,3.184,3.9h7.021a2.937,2.937,0,0,1,2.091.876,3.013,3.013,0,0,1,.865,2.119Z" transform="translate(0.248 4.353)" fill="none" stroke="#fff" stroke-linecap="round" stroke-linejoin="round" stroke-width="1"/>
      <line id="선_74" data-name="선 74" x2="2.047" transform="translate(9.637 11.478)" fill="none" stroke="#fff" stroke-linecap="round" stroke-linejoin="round" stroke-width="1"/>
      <line id="선_75" data-name="선 75" x2="2.354" y2="2.17" transform="translate(4.032 8.25)" fill="none" stroke="#fff" stroke-linecap="round" stroke-linejoin="round" stroke-width="1"/>
      <line id="선_76" data-name="선 76" x1="2.356" y2="2.17" transform="translate(7.453 8.25)" fill="none" stroke="#fff" stroke-linecap="round" stroke-linejoin="round" stroke-width="1"/>
      <line id="선_77" data-name="선 77" y1="4.14" x2="2.601" transform="translate(15.166 1.311)" fill="none" stroke="#fff" stroke-linecap="round" stroke-linejoin="round" stroke-width="1"/>
      <line id="선_78" data-name="선 78" x1="2.438" y1="3.88" transform="translate(17.928 1.311)" fill="none" stroke="#fff" stroke-linecap="round" stroke-linejoin="round" stroke-width="1"/>
      <line id="선_79" data-name="선 79" y2="19.758" transform="translate(17.866 1.598)" fill="none" stroke="#fff" stroke-linecap="round" stroke-linejoin="round" stroke-width="1"/>
    </g>
  </g>
</svg>
